<?xml version="1.0" encoding="UTF-8" standalone="no"?>
<!DOCTYPE svg PUBLIC "-//W3C//DTD SVG 1.1//EN"
 "http://www.w3.org/Graphics/SVG/1.1/DTD/svg11.dtd">
<!-- Generated by graphviz version 2.44.1 (20200629.0846)
 -->
<!-- Title: Grid::calculateDistrictProductionCapacity Pages: 1 -->
<svg width="631pt" height="218pt"
 viewBox="0.00 0.00 631.00 218.00" xmlns="http://www.w3.org/2000/svg" xmlns:xlink="http://www.w3.org/1999/xlink">
<g id="graph0" class="graph" transform="scale(1 1) rotate(0) translate(4 214)">
<title>Grid::calculateDistrictProductionCapacity</title>
<!-- Node1 -->
<g id="node1" class="node">
<title>Node1</title>
<g id="a_node1"><a xlink:title=" ">
<polygon fill="#bfbfbf" stroke="black" points="0,-90 0,-120 157,-120 157,-90 0,-90"/>
<text text-anchor="start" x="8" y="-108" font-family="Helvetica,sans-Serif" font-size="10.00">Grid::calculateDistrictProduction</text>
<text text-anchor="middle" x="78.5" y="-97" font-family="Helvetica,sans-Serif" font-size="10.00">Capacity</text>
</a>
</g>
</g>
<!-- Node2 -->
<g id="node2" class="node">
<title>Node2</title>
<g id="a_node2"><a xlink:href="../../d6/d85/class_district.html#adbea56c31148dadc0e42c993ab123a0f" target="_top" xlink:title=" ">
<polygon fill="none" stroke="black" points="193,-190.5 193,-209.5 327,-209.5 327,-190.5 193,-190.5"/>
<text text-anchor="middle" x="260" y="-197.5" font-family="Helvetica,sans-Serif" font-size="10.00">District::getAssignedFields</text>
</a>
</g>
</g>
<!-- Node1&#45;&gt;Node2 -->
<g id="edge1" class="edge">
<title>Node1&#45;&gt;Node2</title>
<path fill="none" stroke="midnightblue" d="M98.09,-120.12C119.73,-137.05 157.09,-164.3 193,-181 198,-183.32 203.35,-185.43 208.76,-187.32"/>
<polygon fill="midnightblue" stroke="midnightblue" points="207.9,-190.72 218.49,-190.49 210.06,-184.06 207.9,-190.72"/>
</g>
<!-- Node3 -->
<g id="node3" class="node">
<title>Node3</title>
<g id="a_node3"><a xlink:href="../../da/d74/class_grid.html#a258fdb0fb8bc7f13cad6637d40a7f20c" target="_top" xlink:title=" ">
<polygon fill="none" stroke="black" points="200.5,-152.5 200.5,-171.5 319.5,-171.5 319.5,-152.5 200.5,-152.5"/>
<text text-anchor="middle" x="260" y="-159.5" font-family="Helvetica,sans-Serif" font-size="10.00">Grid::getDistrictByPoint</text>
</a>
</g>
</g>
<!-- Node1&#45;&gt;Node3 -->
<g id="edge2" class="edge">
<title>Node1&#45;&gt;Node3</title>
<path fill="none" stroke="midnightblue" d="M127.13,-120.13C155.9,-129.26 192.13,-140.77 219.34,-149.41"/>
<polygon fill="midnightblue" stroke="midnightblue" points="218.33,-152.76 228.92,-152.45 220.45,-146.09 218.33,-152.76"/>
</g>
<!-- Node5 -->
<g id="node5" class="node">
<title>Node5</title>
<g id="a_node5"><a xlink:href="../../da/d74/class_grid.html#aff3d5bc3ea4e8da08e0a78d7f73f0084" target="_top" xlink:title=" ">
<polygon fill="none" stroke="black" points="372,-114.5 372,-133.5 482,-133.5 482,-114.5 372,-114.5"/>
<text text-anchor="middle" x="427" y="-121.5" font-family="Helvetica,sans-Serif" font-size="10.00">Grid::getFieldByPoint</text>
</a>
</g>
</g>
<!-- Node1&#45;&gt;Node5 -->
<g id="edge8" class="edge">
<title>Node1&#45;&gt;Node5</title>
<path fill="none" stroke="midnightblue" d="M157.26,-109.26C218.91,-112.64 304.01,-117.31 361.81,-120.48"/>
<polygon fill="midnightblue" stroke="midnightblue" points="361.74,-123.98 371.92,-121.03 362.12,-116.99 361.74,-123.98"/>
</g>
<!-- Node9 -->
<g id="node9" class="node">
<title>Node9</title>
<g id="a_node9"><a xlink:href="../../d1/d22/class_utils_1_1_point.html#adedde8c4c0d9e7efeb415929a10ef8db" target="_top" xlink:title=" ">
<polygon fill="none" stroke="black" points="193.5,-76.5 193.5,-95.5 326.5,-95.5 326.5,-76.5 193.5,-76.5"/>
<text text-anchor="middle" x="260" y="-83.5" font-family="Helvetica,sans-Serif" font-size="10.00">Utils::Point::getNeighbours</text>
</a>
</g>
</g>
<!-- Node1&#45;&gt;Node9 -->
<g id="edge9" class="edge">
<title>Node1&#45;&gt;Node9</title>
<path fill="none" stroke="midnightblue" d="M157.19,-96.78C165.84,-95.86 174.64,-94.93 183.26,-94.02"/>
<polygon fill="midnightblue" stroke="midnightblue" points="183.71,-97.49 193.28,-92.96 182.97,-90.53 183.71,-97.49"/>
</g>
<!-- Node12 -->
<g id="node12" class="node">
<title>Node12</title>
<g id="a_node12"><a xlink:href="../../da/d74/class_grid.html#a01226c7da17f429e10f78721fd8773f3" target="_top" xlink:title=" ">
<polygon fill="none" stroke="black" points="200.5,-38.5 200.5,-57.5 319.5,-57.5 319.5,-38.5 200.5,-38.5"/>
<text text-anchor="middle" x="260" y="-45.5" font-family="Helvetica,sans-Serif" font-size="10.00">Grid::getPointByFieldID</text>
</a>
</g>
</g>
<!-- Node1&#45;&gt;Node12 -->
<g id="edge14" class="edge">
<title>Node1&#45;&gt;Node12</title>
<path fill="none" stroke="midnightblue" d="M123.02,-89.95C144.08,-82.78 169.79,-74.22 193,-67 200.04,-64.81 207.54,-62.57 214.86,-60.43"/>
<polygon fill="midnightblue" stroke="midnightblue" points="216.03,-63.73 224.66,-57.58 214.08,-57.01 216.03,-63.73"/>
</g>
<!-- Node13 -->
<g id="node13" class="node">
<title>Node13</title>
<g id="a_node13"><a xlink:href="../../d6/d85/class_district.html#a9f95a81345775882edb95c75893ef5ba" target="_top" xlink:title=" ">
<polygon fill="none" stroke="black" points="218.5,-0.5 218.5,-19.5 301.5,-19.5 301.5,-0.5 218.5,-0.5"/>
<text text-anchor="middle" x="260" y="-7.5" font-family="Helvetica,sans-Serif" font-size="10.00">District::isClear</text>
</a>
</g>
</g>
<!-- Node1&#45;&gt;Node13 -->
<g id="edge15" class="edge">
<title>Node1&#45;&gt;Node13</title>
<path fill="none" stroke="midnightblue" d="M98.09,-89.88C119.73,-72.95 157.09,-45.7 193,-29 198,-26.68 203.35,-24.57 208.76,-22.68"/>
<polygon fill="midnightblue" stroke="midnightblue" points="210.06,-25.94 218.49,-19.51 207.9,-19.28 210.06,-25.94"/>
</g>
<!-- Node4 -->
<g id="node4" class="node">
<title>Node4</title>
<g id="a_node4"><a xlink:href="../../da/d74/class_grid.html#af60e6e64cac90b7d38132dc6560b2052" target="_top" xlink:title=" ">
<polygon fill="none" stroke="black" points="374,-152.5 374,-171.5 480,-171.5 480,-152.5 374,-152.5"/>
<text text-anchor="middle" x="427" y="-159.5" font-family="Helvetica,sans-Serif" font-size="10.00">Grid::getDistrictByID</text>
</a>
</g>
</g>
<!-- Node3&#45;&gt;Node4 -->
<g id="edge3" class="edge">
<title>Node3&#45;&gt;Node4</title>
<path fill="none" stroke="midnightblue" d="M319.64,-162C333.87,-162 349.15,-162 363.55,-162"/>
<polygon fill="midnightblue" stroke="midnightblue" points="363.86,-165.5 373.86,-162 363.86,-158.5 363.86,-165.5"/>
</g>
<!-- Node3&#45;&gt;Node5 -->
<g id="edge4" class="edge">
<title>Node3&#45;&gt;Node5</title>
<path fill="none" stroke="midnightblue" d="M302.64,-152.41C324.51,-147.37 351.51,-141.16 374.66,-135.82"/>
<polygon fill="midnightblue" stroke="midnightblue" points="375.7,-139.18 384.66,-133.52 374.13,-132.35 375.7,-139.18"/>
</g>
<!-- Node6 -->
<g id="node6" class="node">
<title>Node6</title>
<g id="a_node6"><a xlink:href="../../da/d74/class_grid.html#a3618702f7872969eedc6e8817dc26776" target="_top" xlink:title=" ">
<polygon fill="none" stroke="black" points="527,-152.5 527,-171.5 623,-171.5 623,-152.5 527,-152.5"/>
<text text-anchor="middle" x="575" y="-159.5" font-family="Helvetica,sans-Serif" font-size="10.00">Grid::getFieldByID</text>
</a>
</g>
</g>
<!-- Node5&#45;&gt;Node6 -->
<g id="edge5" class="edge">
<title>Node5&#45;&gt;Node6</title>
<path fill="none" stroke="midnightblue" d="M464.84,-133.59C483.85,-138.54 507.23,-144.62 527.47,-149.89"/>
<polygon fill="midnightblue" stroke="midnightblue" points="526.86,-153.35 537.42,-152.48 528.63,-146.57 526.86,-153.35"/>
</g>
<!-- Node7 -->
<g id="node7" class="node">
<title>Node7</title>
<g id="a_node7"><a xlink:href="../../d1/d22/class_utils_1_1_point.html#a4fd453f573c399f7195a8982268a9f55" target="_top" xlink:title=" ">
<polygon fill="none" stroke="black" points="530.5,-76.5 530.5,-95.5 619.5,-95.5 619.5,-76.5 530.5,-76.5"/>
<text text-anchor="middle" x="575" y="-83.5" font-family="Helvetica,sans-Serif" font-size="10.00">Utils::Point::getX</text>
</a>
</g>
</g>
<!-- Node5&#45;&gt;Node7 -->
<g id="edge6" class="edge">
<title>Node5&#45;&gt;Node7</title>
<path fill="none" stroke="midnightblue" d="M464.84,-114.41C483.85,-109.46 507.23,-103.38 527.47,-98.11"/>
<polygon fill="midnightblue" stroke="midnightblue" points="528.63,-101.43 537.42,-95.52 526.86,-94.65 528.63,-101.43"/>
</g>
<!-- Node8 -->
<g id="node8" class="node">
<title>Node8</title>
<g id="a_node8"><a xlink:href="../../d1/d22/class_utils_1_1_point.html#a62ce3a4ededc21a4f417bf18e357fc8e" target="_top" xlink:title=" ">
<polygon fill="none" stroke="black" points="529.5,-114.5 529.5,-133.5 620.5,-133.5 620.5,-114.5 529.5,-114.5"/>
<text text-anchor="middle" x="575" y="-121.5" font-family="Helvetica,sans-Serif" font-size="10.00">Utils::Point::getY</text>
</a>
</g>
</g>
<!-- Node5&#45;&gt;Node8 -->
<g id="edge7" class="edge">
<title>Node5&#45;&gt;Node8</title>
<path fill="none" stroke="midnightblue" d="M482.37,-124C494.28,-124 506.9,-124 518.85,-124"/>
<polygon fill="midnightblue" stroke="midnightblue" points="519.13,-127.5 529.13,-124 519.13,-120.5 519.13,-127.5"/>
</g>
<!-- Node10 -->
<g id="node10" class="node">
<title>Node10</title>
<g id="a_node10"><a xlink:href="../../d1/d22/class_utils_1_1_point.html#ac6478449387ca5e2f34511ad421785d7" target="_top" xlink:title=" ">
<polygon fill="none" stroke="black" points="380.5,-38.5 380.5,-57.5 473.5,-57.5 473.5,-38.5 380.5,-38.5"/>
<text text-anchor="middle" x="427" y="-45.5" font-family="Helvetica,sans-Serif" font-size="10.00">Utils::Point::Point</text>
</a>
</g>
</g>
<!-- Node9&#45;&gt;Node10 -->
<g id="edge10" class="edge">
<title>Node9&#45;&gt;Node10</title>
<path fill="none" stroke="midnightblue" d="M302.64,-76.41C324.51,-71.37 351.51,-65.16 374.66,-59.82"/>
<polygon fill="midnightblue" stroke="midnightblue" points="375.7,-63.18 384.66,-57.52 374.13,-56.35 375.7,-63.18"/>
</g>
<!-- Node11 -->
<g id="node11" class="node">
<title>Node11</title>
<g id="a_node11"><a xlink:href="../../d1/d22/class_utils_1_1_point.html#a1563d88d568349cd8e76904c25671594" target="_top" xlink:title=" ">
<polygon fill="none" stroke="black" points="363,-76.5 363,-95.5 491,-95.5 491,-76.5 363,-76.5"/>
<text text-anchor="middle" x="427" y="-83.5" font-family="Helvetica,sans-Serif" font-size="10.00">Utils::Point::withinBounds</text>
</a>
</g>
</g>
<!-- Node9&#45;&gt;Node11 -->
<g id="edge11" class="edge">
<title>Node9&#45;&gt;Node11</title>
<path fill="none" stroke="midnightblue" d="M326.69,-86C335.28,-86 344.12,-86 352.83,-86"/>
<polygon fill="midnightblue" stroke="midnightblue" points="352.96,-89.5 362.96,-86 352.96,-82.5 352.96,-89.5"/>
</g>
<!-- Node11&#45;&gt;Node7 -->
<g id="edge12" class="edge">
<title>Node11&#45;&gt;Node7</title>
<path fill="none" stroke="midnightblue" d="M491.19,-86C500.92,-86 510.89,-86 520.39,-86"/>
<polygon fill="midnightblue" stroke="midnightblue" points="520.48,-89.5 530.48,-86 520.48,-82.5 520.48,-89.5"/>
</g>
<!-- Node11&#45;&gt;Node8 -->
<g id="edge13" class="edge">
<title>Node11&#45;&gt;Node8</title>
<path fill="none" stroke="midnightblue" d="M464.84,-95.59C483.85,-100.54 507.23,-106.62 527.47,-111.89"/>
<polygon fill="midnightblue" stroke="midnightblue" points="526.86,-115.35 537.42,-114.48 528.63,-108.57 526.86,-115.35"/>
</g>
</g>
</svg>
