<?xml version="1.0" encoding="UTF-8" standalone="no"?>
<!DOCTYPE svg PUBLIC "-//W3C//DTD SVG 1.1//EN"
 "http://www.w3.org/Graphics/SVG/1.1/DTD/svg11.dtd">
<!-- Generated by graphviz version 2.44.1 (20200629.0846)
 -->
<!-- Title: Grid::operator= Pages: 1 -->
<svg width="555pt" height="218pt"
 viewBox="0.00 0.00 555.00 218.00" xmlns="http://www.w3.org/2000/svg" xmlns:xlink="http://www.w3.org/1999/xlink">
<g id="graph0" class="graph" transform="scale(1 1) rotate(0) translate(4 214)">
<title>Grid::operator=</title>
<!-- Node1 -->
<g id="node1" class="node">
<title>Node1</title>
<g id="a_node1"><a xlink:title=" ">
<polygon fill="#bfbfbf" stroke="black" points="0,-95.5 0,-114.5 82,-114.5 82,-95.5 0,-95.5"/>
<text text-anchor="middle" x="41" y="-102.5" font-family="Helvetica,sans-Serif" font-size="10.00">Grid::operator=</text>
</a>
</g>
</g>
<!-- Node2 -->
<g id="node2" class="node">
<title>Node2</title>
<g id="a_node2"><a xlink:href="../../d6/d85/class_district.html#a9f7a3cbb12d5136cb3f4d4b73b34a02c" target="_top" xlink:title=" ">
<polygon fill="none" stroke="black" points="119,-190.5 119,-209.5 250,-209.5 250,-190.5 119,-190.5"/>
<text text-anchor="middle" x="184.5" y="-197.5" font-family="Helvetica,sans-Serif" font-size="10.00">District::addAssignedField</text>
</a>
</g>
</g>
<!-- Node1&#45;&gt;Node2 -->
<g id="edge1" class="edge">
<title>Node1&#45;&gt;Node2</title>
<path fill="none" stroke="midnightblue" d="M49.04,-114.72C61.26,-130.88 87.96,-163.24 118,-181 121.67,-183.17 125.6,-185.1 129.65,-186.83"/>
<polygon fill="midnightblue" stroke="midnightblue" points="128.65,-190.19 139.24,-190.48 131.14,-183.65 128.65,-190.19"/>
</g>
<!-- Node3 -->
<g id="node3" class="node">
<title>Node3</title>
<g id="a_node3"><a xlink:href="../../da/d74/class_grid.html#a258fdb0fb8bc7f13cad6637d40a7f20c" target="_top" xlink:title=" ">
<polygon fill="none" stroke="black" points="125,-152.5 125,-171.5 244,-171.5 244,-152.5 125,-152.5"/>
<text text-anchor="middle" x="184.5" y="-159.5" font-family="Helvetica,sans-Serif" font-size="10.00">Grid::getDistrictByPoint</text>
</a>
</g>
</g>
<!-- Node1&#45;&gt;Node3 -->
<g id="edge2" class="edge">
<title>Node1&#45;&gt;Node3</title>
<path fill="none" stroke="midnightblue" d="M63.15,-114.58C78.32,-121.35 99.3,-130.52 118,-138 127.26,-141.7 137.35,-145.51 146.77,-148.97"/>
<polygon fill="midnightblue" stroke="midnightblue" points="145.68,-152.3 156.28,-152.43 148.08,-145.72 145.68,-152.3"/>
</g>
<!-- Node5 -->
<g id="node5" class="node">
<title>Node5</title>
<g id="a_node5"><a xlink:href="../../da/d74/class_grid.html#aff3d5bc3ea4e8da08e0a78d7f73f0084" target="_top" xlink:title=" ">
<polygon fill="none" stroke="black" points="296,-114.5 296,-133.5 406,-133.5 406,-114.5 296,-114.5"/>
<text text-anchor="middle" x="351" y="-121.5" font-family="Helvetica,sans-Serif" font-size="10.00">Grid::getFieldByPoint</text>
</a>
</g>
</g>
<!-- Node1&#45;&gt;Node5 -->
<g id="edge8" class="edge">
<title>Node1&#45;&gt;Node5</title>
<path fill="none" stroke="midnightblue" d="M82.27,-107.48C133.98,-110.67 224.36,-116.25 285.66,-120.03"/>
<polygon fill="midnightblue" stroke="midnightblue" points="285.79,-123.55 295.99,-120.67 286.22,-116.56 285.79,-123.55"/>
</g>
<!-- Node9 -->
<g id="node9" class="node">
<title>Node9</title>
<g id="a_node9"><a xlink:href="../../da/d74/class_grid.html#ae7393bc74ab867cc3f4409c70d80351b" target="_top" xlink:title=" ">
<polygon fill="none" stroke="black" points="143.5,-38.5 143.5,-57.5 225.5,-57.5 225.5,-38.5 143.5,-38.5"/>
<text text-anchor="middle" x="184.5" y="-45.5" font-family="Helvetica,sans-Serif" font-size="10.00">Grid::getHeight</text>
</a>
</g>
</g>
<!-- Node1&#45;&gt;Node9 -->
<g id="edge9" class="edge">
<title>Node1&#45;&gt;Node9</title>
<path fill="none" stroke="midnightblue" d="M58.8,-95.49C73.94,-87.19 96.98,-75.22 118,-67 123.86,-64.71 130.11,-62.55 136.34,-60.56"/>
<polygon fill="midnightblue" stroke="midnightblue" points="137.5,-63.87 146.04,-57.6 135.46,-57.17 137.5,-63.87"/>
</g>
<!-- Node10 -->
<g id="node10" class="node">
<title>Node10</title>
<g id="a_node10"><a xlink:href="../../d1/d22/class_utils_1_1_point.html#adedde8c4c0d9e7efeb415929a10ef8db" target="_top" xlink:title=" ">
<polygon fill="none" stroke="black" points="118,-76.5 118,-95.5 251,-95.5 251,-76.5 118,-76.5"/>
<text text-anchor="middle" x="184.5" y="-83.5" font-family="Helvetica,sans-Serif" font-size="10.00">Utils::Point::getNeighbours</text>
</a>
</g>
</g>
<!-- Node1&#45;&gt;Node10 -->
<g id="edge10" class="edge">
<title>Node1&#45;&gt;Node10</title>
<path fill="none" stroke="midnightblue" d="M82.17,-99.61C90.24,-98.52 98.97,-97.35 107.81,-96.16"/>
<polygon fill="midnightblue" stroke="midnightblue" points="108.35,-99.62 117.8,-94.82 107.42,-92.68 108.35,-99.62"/>
</g>
<!-- Node13 -->
<g id="node13" class="node">
<title>Node13</title>
<g id="a_node13"><a xlink:href="../../da/d74/class_grid.html#a862cf2f474e31195bea649b08cfb7b46" target="_top" xlink:title=" ">
<polygon fill="none" stroke="black" points="144.5,-0.5 144.5,-19.5 224.5,-19.5 224.5,-0.5 144.5,-0.5"/>
<text text-anchor="middle" x="184.5" y="-7.5" font-family="Helvetica,sans-Serif" font-size="10.00">Grid::getWidth</text>
</a>
</g>
</g>
<!-- Node1&#45;&gt;Node13 -->
<g id="edge15" class="edge">
<title>Node1&#45;&gt;Node13</title>
<path fill="none" stroke="midnightblue" d="M49.04,-95.28C61.26,-79.12 87.96,-46.76 118,-29 123.16,-25.95 128.84,-23.36 134.63,-21.18"/>
<polygon fill="midnightblue" stroke="midnightblue" points="136.06,-24.39 144.41,-17.86 133.82,-17.76 136.06,-24.39"/>
</g>
<!-- Node4 -->
<g id="node4" class="node">
<title>Node4</title>
<g id="a_node4"><a xlink:href="../../da/d74/class_grid.html#af60e6e64cac90b7d38132dc6560b2052" target="_top" xlink:title=" ">
<polygon fill="none" stroke="black" points="298,-152.5 298,-171.5 404,-171.5 404,-152.5 298,-152.5"/>
<text text-anchor="middle" x="351" y="-159.5" font-family="Helvetica,sans-Serif" font-size="10.00">Grid::getDistrictByID</text>
</a>
</g>
</g>
<!-- Node3&#45;&gt;Node4 -->
<g id="edge3" class="edge">
<title>Node3&#45;&gt;Node4</title>
<path fill="none" stroke="midnightblue" d="M244.42,-162C258.44,-162 273.45,-162 287.62,-162"/>
<polygon fill="midnightblue" stroke="midnightblue" points="287.76,-165.5 297.76,-162 287.76,-158.5 287.76,-165.5"/>
</g>
<!-- Node3&#45;&gt;Node5 -->
<g id="edge4" class="edge">
<title>Node3&#45;&gt;Node5</title>
<path fill="none" stroke="midnightblue" d="M227.01,-152.41C248.82,-147.37 275.73,-141.16 298.82,-135.82"/>
<polygon fill="midnightblue" stroke="midnightblue" points="299.83,-139.18 308.79,-133.52 298.26,-132.36 299.83,-139.18"/>
</g>
<!-- Node6 -->
<g id="node6" class="node">
<title>Node6</title>
<g id="a_node6"><a xlink:href="../../da/d74/class_grid.html#a3618702f7872969eedc6e8817dc26776" target="_top" xlink:title=" ">
<polygon fill="none" stroke="black" points="451,-152.5 451,-171.5 547,-171.5 547,-152.5 451,-152.5"/>
<text text-anchor="middle" x="499" y="-159.5" font-family="Helvetica,sans-Serif" font-size="10.00">Grid::getFieldByID</text>
</a>
</g>
</g>
<!-- Node5&#45;&gt;Node6 -->
<g id="edge5" class="edge">
<title>Node5&#45;&gt;Node6</title>
<path fill="none" stroke="midnightblue" d="M388.84,-133.59C407.85,-138.54 431.23,-144.62 451.47,-149.89"/>
<polygon fill="midnightblue" stroke="midnightblue" points="450.86,-153.35 461.42,-152.48 452.63,-146.57 450.86,-153.35"/>
</g>
<!-- Node7 -->
<g id="node7" class="node">
<title>Node7</title>
<g id="a_node7"><a xlink:href="../../d1/d22/class_utils_1_1_point.html#a4fd453f573c399f7195a8982268a9f55" target="_top" xlink:title=" ">
<polygon fill="none" stroke="black" points="454.5,-76.5 454.5,-95.5 543.5,-95.5 543.5,-76.5 454.5,-76.5"/>
<text text-anchor="middle" x="499" y="-83.5" font-family="Helvetica,sans-Serif" font-size="10.00">Utils::Point::getX</text>
</a>
</g>
</g>
<!-- Node5&#45;&gt;Node7 -->
<g id="edge6" class="edge">
<title>Node5&#45;&gt;Node7</title>
<path fill="none" stroke="midnightblue" d="M388.84,-114.41C407.85,-109.46 431.23,-103.38 451.47,-98.11"/>
<polygon fill="midnightblue" stroke="midnightblue" points="452.63,-101.43 461.42,-95.52 450.86,-94.65 452.63,-101.43"/>
</g>
<!-- Node8 -->
<g id="node8" class="node">
<title>Node8</title>
<g id="a_node8"><a xlink:href="../../d1/d22/class_utils_1_1_point.html#a62ce3a4ededc21a4f417bf18e357fc8e" target="_top" xlink:title=" ">
<polygon fill="none" stroke="black" points="453.5,-114.5 453.5,-133.5 544.5,-133.5 544.5,-114.5 453.5,-114.5"/>
<text text-anchor="middle" x="499" y="-121.5" font-family="Helvetica,sans-Serif" font-size="10.00">Utils::Point::getY</text>
</a>
</g>
</g>
<!-- Node5&#45;&gt;Node8 -->
<g id="edge7" class="edge">
<title>Node5&#45;&gt;Node8</title>
<path fill="none" stroke="midnightblue" d="M406.37,-124C418.28,-124 430.9,-124 442.85,-124"/>
<polygon fill="midnightblue" stroke="midnightblue" points="443.13,-127.5 453.13,-124 443.13,-120.5 443.13,-127.5"/>
</g>
<!-- Node11 -->
<g id="node11" class="node">
<title>Node11</title>
<g id="a_node11"><a xlink:href="../../d1/d22/class_utils_1_1_point.html#ac6478449387ca5e2f34511ad421785d7" target="_top" xlink:title=" ">
<polygon fill="none" stroke="black" points="304.5,-38.5 304.5,-57.5 397.5,-57.5 397.5,-38.5 304.5,-38.5"/>
<text text-anchor="middle" x="351" y="-45.5" font-family="Helvetica,sans-Serif" font-size="10.00">Utils::Point::Point</text>
</a>
</g>
</g>
<!-- Node10&#45;&gt;Node11 -->
<g id="edge11" class="edge">
<title>Node10&#45;&gt;Node11</title>
<path fill="none" stroke="midnightblue" d="M227.01,-76.41C248.82,-71.37 275.73,-65.16 298.82,-59.82"/>
<polygon fill="midnightblue" stroke="midnightblue" points="299.83,-63.18 308.79,-57.52 298.26,-56.36 299.83,-63.18"/>
</g>
<!-- Node12 -->
<g id="node12" class="node">
<title>Node12</title>
<g id="a_node12"><a xlink:href="../../d1/d22/class_utils_1_1_point.html#a1563d88d568349cd8e76904c25671594" target="_top" xlink:title=" ">
<polygon fill="none" stroke="black" points="287,-76.5 287,-95.5 415,-95.5 415,-76.5 287,-76.5"/>
<text text-anchor="middle" x="351" y="-83.5" font-family="Helvetica,sans-Serif" font-size="10.00">Utils::Point::withinBounds</text>
</a>
</g>
</g>
<!-- Node10&#45;&gt;Node12 -->
<g id="edge12" class="edge">
<title>Node10&#45;&gt;Node12</title>
<path fill="none" stroke="midnightblue" d="M251.46,-86C259.79,-86 268.34,-86 276.77,-86"/>
<polygon fill="midnightblue" stroke="midnightblue" points="276.96,-89.5 286.96,-86 276.96,-82.5 276.96,-89.5"/>
</g>
<!-- Node12&#45;&gt;Node7 -->
<g id="edge13" class="edge">
<title>Node12&#45;&gt;Node7</title>
<path fill="none" stroke="midnightblue" d="M415.19,-86C424.92,-86 434.89,-86 444.39,-86"/>
<polygon fill="midnightblue" stroke="midnightblue" points="444.48,-89.5 454.48,-86 444.48,-82.5 444.48,-89.5"/>
</g>
<!-- Node12&#45;&gt;Node8 -->
<g id="edge14" class="edge">
<title>Node12&#45;&gt;Node8</title>
<path fill="none" stroke="midnightblue" d="M388.84,-95.59C407.85,-100.54 431.23,-106.62 451.47,-111.89"/>
<polygon fill="midnightblue" stroke="midnightblue" points="450.86,-115.35 461.42,-114.48 452.63,-108.57 450.86,-115.35"/>
</g>
</g>
</svg>
