<?xml version="1.0" encoding="UTF-8" standalone="no"?>
<!DOCTYPE svg PUBLIC "-//W3C//DTD SVG 1.1//EN"
 "http://www.w3.org/Graphics/SVG/1.1/DTD/svg11.dtd">
<!-- Generated by graphviz version 2.44.1 (20200629.0846)
 -->
<!-- Title: Grid::getPointByFieldID Pages: 1 -->
<!--zoomable 148 -->
<svg id="main" version="1.1" xmlns="http://www.w3.org/2000/svg" xmlns:xlink="http://www.w3.org/1999/xlink" xml:space="preserve" onload="init(evt)">
<style type="text/css"><![CDATA[
.edge:hover path { stroke: red; }
.edge:hover polygon { stroke: red; fill: red; }
]]></style>
<script type="text/javascript"><![CDATA[
var edges = document.getElementsByTagName('g');
if (edges && edges.length) {
  for (var i=0;i<edges.length;i++) {
    if (edges[i].id.substr(0,4)=='edge') {
      edges[i].setAttribute('class','edge');
    }
  }
}
]]></script>
        <defs>
                <circle id="rim" cx="0" cy="0" r="7"/>
                <circle id="rim2" cx="0" cy="0" r="3.5"/>
                <g id="zoomPlus">
                        <use xlink:href="#rim" fill="#404040">
                                <set attributeName="fill" to="#808080" begin="zoomplus.mouseover" end="zoomplus.mouseout"/>
                        </use>
                        <path d="M-4,0h8M0,-4v8" fill="none" stroke="white" stroke-width="1.5" pointer-events="none"/>
                </g>
                <g id="zoomMin">
                        <use xlink:href="#rim" fill="#404040">
                                <set attributeName="fill" to="#808080" begin="zoomminus.mouseover" end="zoomminus.mouseout"/>
                        </use>
                        <path d="M-4,0h8" fill="none" stroke="white" stroke-width="1.5" pointer-events="none"/>
                </g>
                <g id="dirArrow">
                        <path fill="none" stroke="white" stroke-width="1.5" d="M0,-3.0v7 M-2.5,-0.5L0,-3.0L2.5,-0.5"/>
                </g>
               <g id="resetDef">
                       <use xlink:href="#rim2" fill="#404040">
                               <set attributeName="fill" to="#808080" begin="reset.mouseover" end="reset.mouseout"/>
                       </use>
               </g>
        </defs>

<script type="text/javascript">
var viewWidth = 1093;
var viewHeight = 148;
var sectionId = 'dynsection-25';
</script>
<script xlink:href="../../svgpan.js"/>
<svg id="graph" class="graph">
<g id="viewport">
<title>Grid::getPointByFieldID</title>
<!-- Node1 -->
<g id="node1" class="node">
<title>Node1</title>
<g id="a_node1"><a xlink:title=" ">
<polygon fill="#bfbfbf" stroke="black" points="966,-57.5 966,-76.5 1085,-76.5 1085,-57.5 966,-57.5"/>
<text text-anchor="middle" x="1025.5" y="-64.5" font-family="Helvetica,sans-Serif" font-size="10.00">Grid::getPointByFieldID</text>
</a>
</g>
</g>
<!-- Node2 -->
<g id="node2" class="node">
<title>Node2</title>
<g id="a_node2"><a xlink:href="../../d2/d5b/class_graph_algos.html#a05980a7c241d7f0c6d4356e6210df1e2" target="_top" xlink:title=" ">
<polygon fill="none" stroke="black" points="810,-117.5 810,-136.5 922,-136.5 922,-117.5 810,-117.5"/>
<text text-anchor="middle" x="866" y="-124.5" font-family="Helvetica,sans-Serif" font-size="10.00">GraphAlgos::calcPath</text>
</a>
</g>
</g>
<!-- Node1&#45;&gt;Node2 -->
<g id="edge1" class="edge">
<title>Node1&#45;&gt;Node2</title>
<path fill="none" stroke="midnightblue" d="M990.03,-80.13C960.47,-91.39 918.57,-107.35 892.1,-117.44"/>
<polygon fill="midnightblue" stroke="midnightblue" points="991.44,-83.34 999.54,-76.51 988.95,-76.8 991.44,-83.34"/>
</g>
<!-- Node4 -->
<g id="node4" class="node">
<title>Node4</title>
<g id="a_node4"><a xlink:href="../../da/d74/class_grid.html#ae16bf4e418d38191c647ef0220fc8606" target="_top" xlink:title=" ">
<polygon fill="none" stroke="black" points="609,-71 609,-101 766,-101 766,-71 609,-71"/>
<text text-anchor="start" x="617" y="-89" font-family="Helvetica,sans-Serif" font-size="10.00">Grid::calculateDistrictProduction</text>
<text text-anchor="middle" x="687.5" y="-78" font-family="Helvetica,sans-Serif" font-size="10.00">Capacity</text>
</a>
</g>
</g>
<!-- Node1&#45;&gt;Node4 -->
<g id="edge3" class="edge">
<title>Node1&#45;&gt;Node4</title>
<path fill="none" stroke="midnightblue" d="M955.96,-70.88C900.9,-73.99 823.56,-78.36 766.2,-81.61"/>
<polygon fill="midnightblue" stroke="midnightblue" points="956.19,-74.37 965.97,-70.31 955.79,-67.38 956.19,-74.37"/>
</g>
<!-- Node11 -->
<g id="node11" class="node">
<title>Node11</title>
<g id="a_node11"><a xlink:href="../../da/d74/class_grid.html#ae35f72ddb8055fa73554119e8ed1f63b" target="_top" xlink:title=" ">
<polygon fill="none" stroke="black" points="802.5,-38.5 802.5,-57.5 929.5,-57.5 929.5,-38.5 802.5,-38.5"/>
<text text-anchor="middle" x="866" y="-45.5" font-family="Helvetica,sans-Serif" font-size="10.00">Grid::getCoordinatesByID</text>
</a>
</g>
</g>
<!-- Node1&#45;&gt;Node11 -->
<g id="edge10" class="edge">
<title>Node1&#45;&gt;Node11</title>
<path fill="none" stroke="midnightblue" d="M955.76,-58.71C947.08,-57.66 938.24,-56.59 929.65,-55.56"/>
<polygon fill="midnightblue" stroke="midnightblue" points="955.51,-62.2 965.85,-59.93 956.34,-55.25 955.51,-62.2"/>
</g>
<!-- Node13 -->
<g id="node13" class="node">
<title>Node13</title>
<g id="a_node13"><a xlink:href="../../da/d74/class_grid.html#ad6a4463d8308549e914b3e244abb716e" target="_top" xlink:title=" ">
<polygon fill="none" stroke="black" points="802,-0.5 802,-19.5 930,-19.5 930,-0.5 802,-0.5"/>
<text text-anchor="middle" x="866" y="-7.5" font-family="Helvetica,sans-Serif" font-size="10.00">Grid::getNeihboursOfField</text>
</a>
</g>
</g>
<!-- Node1&#45;&gt;Node13 -->
<g id="edge13" class="edge">
<title>Node1&#45;&gt;Node13</title>
<path fill="none" stroke="midnightblue" d="M992.9,-53.47C974.67,-45.87 951.21,-36.45 930,-29 920.51,-25.67 910.11,-22.38 900.53,-19.51"/>
<polygon fill="midnightblue" stroke="midnightblue" points="991.61,-56.72 1002.18,-57.37 994.32,-50.27 991.61,-56.72"/>
</g>
<!-- Node3 -->
<g id="node3" class="node">
<title>Node3</title>
<g id="a_node3"><a xlink:href="../../d2/d5b/class_graph_algos.html#af00f038c0816aca536aacf698936a029" target="_top" xlink:title=" ">
<polygon fill="none" stroke="black" points="635,-120.5 635,-139.5 740,-139.5 740,-120.5 635,-120.5"/>
<text text-anchor="middle" x="687.5" y="-127.5" font-family="Helvetica,sans-Serif" font-size="10.00">GraphAlgos::dijkstra</text>
</a>
</g>
</g>
<!-- Node2&#45;&gt;Node3 -->
<g id="edge2" class="edge">
<title>Node2&#45;&gt;Node3</title>
<path fill="none" stroke="midnightblue" d="M799.54,-128.11C779.91,-128.45 758.66,-128.81 740.06,-129.12"/>
<polygon fill="midnightblue" stroke="midnightblue" points="799.7,-131.61 809.64,-127.94 799.58,-124.61 799.7,-131.61"/>
</g>
<!-- Node5 -->
<g id="node5" class="node">
<title>Node5</title>
<g id="a_node5"><a xlink:href="../../da/df6/class_logic.html#a7ebaa13c8a671d82c669431478524784" target="_top" xlink:title=" ">
<polygon fill="none" stroke="black" points="478,-54.5 478,-73.5 573,-73.5 573,-54.5 478,-54.5"/>
<text text-anchor="middle" x="525.5" y="-61.5" font-family="Helvetica,sans-Serif" font-size="10.00">Logic::simulateTO</text>
</a>
</g>
</g>
<!-- Node4&#45;&gt;Node5 -->
<g id="edge4" class="edge">
<title>Node4&#45;&gt;Node5</title>
<path fill="none" stroke="midnightblue" d="M598.92,-73.96C590.16,-72.75 581.52,-71.57 573.43,-70.45"/>
<polygon fill="midnightblue" stroke="midnightblue" points="598.46,-77.43 608.84,-75.32 599.41,-70.49 598.46,-77.43"/>
</g>
<!-- Node6 -->
<g id="node6" class="node">
<title>Node6</title>
<g id="a_node6"><a xlink:href="../../d2/d5c/class_iface.html#ad724ec2c6a2aa884f61de19193affc6a" target="_top" xlink:title=" ">
<polygon fill="none" stroke="black" points="327,-73.5 327,-92.5 442,-92.5 442,-73.5 327,-73.5"/>
<text text-anchor="middle" x="384.5" y="-80.5" font-family="Helvetica,sans-Serif" font-size="10.00">Iface::requestLEGACY</text>
</a>
</g>
</g>
<!-- Node5&#45;&gt;Node6 -->
<g id="edge5" class="edge">
<title>Node5&#45;&gt;Node6</title>
<path fill="none" stroke="midnightblue" d="M467.78,-71.75C459.42,-72.9 450.8,-74.07 442.43,-75.22"/>
<polygon fill="midnightblue" stroke="midnightblue" points="468.39,-75.2 477.83,-70.38 467.45,-68.27 468.39,-75.2"/>
</g>
<!-- Node7 -->
<g id="node7" class="node">
<title>Node7</title>
<g id="a_node7"><a xlink:href="../../d2/d5c/class_iface.html#abae0122b800731a979c9f8e4c3a58176" target="_top" xlink:title=" ">
<polygon fill="none" stroke="black" points="351,-35.5 351,-54.5 418,-54.5 418,-35.5 351,-35.5"/>
<text text-anchor="middle" x="384.5" y="-42.5" font-family="Helvetica,sans-Serif" font-size="10.00">Iface::round</text>
</a>
</g>
</g>
<!-- Node5&#45;&gt;Node7 -->
<g id="edge6" class="edge">
<title>Node5&#45;&gt;Node7</title>
<path fill="none" stroke="midnightblue" d="M467.54,-56.21C450.75,-53.92 432.94,-51.48 418.23,-49.47"/>
<polygon fill="midnightblue" stroke="midnightblue" points="467.45,-59.73 477.83,-57.62 468.39,-52.8 467.45,-59.73"/>
</g>
<!-- Node8 -->
<g id="node8" class="node">
<title>Node8</title>
<g id="a_node8"><a xlink:href="../../d2/d5c/class_iface.html#a44e6d0db22abbce5cb8c132e5f1d4284" target="_top" xlink:title=" ">
<polygon fill="none" stroke="black" points="229,-35.5 229,-54.5 291,-54.5 291,-35.5 229,-35.5"/>
<text text-anchor="middle" x="260" y="-42.5" font-family="Helvetica,sans-Serif" font-size="10.00">Iface::start</text>
</a>
</g>
</g>
<!-- Node7&#45;&gt;Node8 -->
<g id="edge7" class="edge">
<title>Node7&#45;&gt;Node8</title>
<path fill="none" stroke="midnightblue" d="M340.6,-45C324.27,-45 306.03,-45 291.13,-45"/>
<polygon fill="midnightblue" stroke="midnightblue" points="340.99,-48.5 350.99,-45 340.99,-41.5 340.99,-48.5"/>
</g>
<!-- Node9 -->
<g id="node9" class="node">
<title>Node9</title>
<g id="a_node9"><a xlink:href="../../dc/d90/class_anti_virus.html#affe3f62a87b880cc964188d9ddb9d562" target="_top" xlink:title=" ">
<polygon fill="none" stroke="black" points="74,-35.5 74,-54.5 193,-54.5 193,-35.5 74,-35.5"/>
<text text-anchor="middle" x="133.5" y="-42.5" font-family="Helvetica,sans-Serif" font-size="10.00">AntiVirus::startInterface</text>
</a>
</g>
</g>
<!-- Node8&#45;&gt;Node9 -->
<g id="edge8" class="edge">
<title>Node8&#45;&gt;Node9</title>
<path fill="none" stroke="midnightblue" d="M218.83,-45C210.62,-45 201.82,-45 193.12,-45"/>
<polygon fill="midnightblue" stroke="midnightblue" points="218.86,-48.5 228.86,-45 218.86,-41.5 218.86,-48.5"/>
</g>
<!-- Node10 -->
<g id="node10" class="node">
<title>Node10</title>
<g id="a_node10"><a xlink:href="../../df/d0a/main_8cpp.html#ae66f6b31b5ad750f1fe042a706a4e3d4" target="_top" xlink:title=" ">
<polygon fill="none" stroke="black" points="0,-35.5 0,-54.5 38,-54.5 38,-35.5 0,-35.5"/>
<text text-anchor="middle" x="19" y="-42.5" font-family="Helvetica,sans-Serif" font-size="10.00">main</text>
</a>
</g>
</g>
<!-- Node9&#45;&gt;Node10 -->
<g id="edge9" class="edge">
<title>Node9&#45;&gt;Node10</title>
<path fill="none" stroke="midnightblue" d="M63.65,-45C54.29,-45 45.43,-45 38.16,-45"/>
<polygon fill="midnightblue" stroke="midnightblue" points="63.94,-48.5 73.94,-45 63.94,-41.5 63.94,-48.5"/>
</g>
<!-- Node12 -->
<g id="node12" class="node">
<title>Node12</title>
<g id="a_node12"><a xlink:href="../../da/d74/class_grid.html#af0f5fd31b711478666ebeb96f8af4c86" target="_top" xlink:title=" ">
<polygon fill="none" stroke="black" points="615.5,-32.5 615.5,-51.5 759.5,-51.5 759.5,-32.5 615.5,-32.5"/>
<text text-anchor="middle" x="687.5" y="-39.5" font-family="Helvetica,sans-Serif" font-size="10.00">Grid::getNotVaccinatedFields</text>
</a>
</g>
</g>
<!-- Node11&#45;&gt;Node12 -->
<g id="edge11" class="edge">
<title>Node11&#45;&gt;Node12</title>
<path fill="none" stroke="midnightblue" d="M792.13,-45.52C781.43,-45.16 770.41,-44.78 759.74,-44.42"/>
<polygon fill="midnightblue" stroke="midnightblue" points="792.16,-49.03 802.28,-45.87 792.4,-42.03 792.16,-49.03"/>
</g>
<!-- Node12&#45;&gt;Node5 -->
<g id="edge12" class="edge">
<title>Node12&#45;&gt;Node5</title>
<path fill="none" stroke="midnightblue" d="M607.1,-52.92C595.51,-54.51 583.9,-56.11 573.25,-57.57"/>
<polygon fill="midnightblue" stroke="midnightblue" points="607.82,-56.35 617.25,-51.52 606.87,-49.42 607.82,-56.35"/>
</g>
</g>
</svg>
        <g id="navigator" transform="translate(0 0)" fill="#404254">
                <rect fill="#f2f5e9" fill-opacity="0.5" stroke="#606060" stroke-width=".5" x="0" y="0" width="60" height="60"/>
                <use id="zoomplus" xlink:href="#zoomPlus" x="17" y="9" onmousedown="handleZoom(evt,'in')"/>
                <use id="zoomminus" xlink:href="#zoomMin" x="42" y="9" onmousedown="handleZoom(evt,'out')"/>
                <use id="reset" xlink:href="#resetDef" x="30" y="36" onmousedown="handleReset()"/>
                <g id="arrowUp" xlink:href="#dirArrow" transform="translate(30 24)" onmousedown="handlePan(0,-1)">
                  <use xlink:href="#rim" fill="#404040">
                        <set attributeName="fill" to="#808080" begin="arrowUp.mouseover" end="arrowUp.mouseout"/>
                  </use>
                  <path fill="none" stroke="white" stroke-width="1.5" d="M0,-3.0v7 M-2.5,-0.5L0,-3.0L2.5,-0.5"/>
                </g>
                <g id="arrowRight" xlink:href="#dirArrow" transform="rotate(90) translate(36 -43)" onmousedown="handlePan(1,0)">
                  <use xlink:href="#rim" fill="#404040">
                        <set attributeName="fill" to="#808080" begin="arrowRight.mouseover" end="arrowRight.mouseout"/>
                  </use>
                  <path fill="none" stroke="white" stroke-width="1.5" d="M0,-3.0v7 M-2.5,-0.5L0,-3.0L2.5,-0.5"/>
                </g>
                <g id="arrowDown" xlink:href="#dirArrow" transform="rotate(180) translate(-30 -48)" onmousedown="handlePan(0,1)">
                  <use xlink:href="#rim" fill="#404040">
                        <set attributeName="fill" to="#808080" begin="arrowDown.mouseover" end="arrowDown.mouseout"/>
                  </use>
                  <path fill="none" stroke="white" stroke-width="1.5" d="M0,-3.0v7 M-2.5,-0.5L0,-3.0L2.5,-0.5"/>
                </g>
                <g id="arrowLeft" xlink:href="#dirArrow" transform="rotate(270) translate(-36 17)" onmousedown="handlePan(-1,0)">
                  <use xlink:href="#rim" fill="#404040">
                        <set attributeName="fill" to="#808080" begin="arrowLeft.mouseover" end="arrowLeft.mouseout"/>
                  </use>
                  <path fill="none" stroke="white" stroke-width="1.5" d="M0,-3.0v7 M-2.5,-0.5L0,-3.0L2.5,-0.5"/>
                </g>
        </g>
        <svg viewBox="0 0 15 15" width="100%" height="30px" preserveAspectRatio="xMaxYMin meet">
         <g id="arrow_out" transform="scale(0.3 0.3)">
          <a xlink:href="class_grid_a01226c7da17f429e10f78721fd8773f3_icgraph_org.svg" target="_base">
           <rect id="button" ry="5" rx="5" y="6" x="6" height="38" width="38"
                fill="#f2f5e9" fill-opacity="0.5" stroke="#606060" stroke-width="1.0"/>
           <path id="arrow"
             d="M 11.500037,31.436501 C 11.940474,20.09759 22.043105,11.32322 32.158766,21.979434 L 37.068811,17.246167 C 37.068811,17.246167 37.088388,32 37.088388,32 L 22.160133,31.978069 C 22.160133,31.978069 26.997745,27.140456 26.997745,27.140456 C 18.528582,18.264221 13.291696,25.230495 11.500037,31.436501 z"
             style="fill:#404040;"/>
          </a>
         </g>
        </svg>
</svg>
