<?xml version="1.0" encoding="UTF-8" standalone="no"?>
<!DOCTYPE svg PUBLIC "-//W3C//DTD SVG 1.1//EN"
 "http://www.w3.org/Graphics/SVG/1.1/DTD/svg11.dtd">
<!-- Generated by graphviz version 2.44.1 (20200629.0846)
 -->
<!-- Title: Grid::getFieldByPoint Pages: 1 -->
<svg width="1281pt" height="916pt"
 viewBox="0.00 0.00 1281.00 915.51" xmlns="http://www.w3.org/2000/svg" xmlns:xlink="http://www.w3.org/1999/xlink">
<g id="graph0" class="graph" transform="scale(1 1) rotate(0) translate(4 911.51)">
<title>Grid::getFieldByPoint</title>
<!-- Node1 -->
<g id="node1" class="node">
<title>Node1</title>
<g id="a_node1"><a xlink:title=" ">
<polygon fill="#bfbfbf" stroke="black" points="1163,-384.5 1163,-403.5 1273,-403.5 1273,-384.5 1163,-384.5"/>
<text text-anchor="middle" x="1218" y="-391.5" font-family="Helvetica,sans-Serif" font-size="10.00">Grid::getFieldByPoint</text>
</a>
</g>
</g>
<!-- Node2 -->
<g id="node2" class="node">
<title>Node2</title>
<g id="a_node2"><a xlink:href="../../da/d74/class_grid.html#ae16bf4e418d38191c647ef0220fc8606" target="_top" xlink:title=" ">
<polygon fill="none" stroke="black" points="736,-632 736,-662 893,-662 893,-632 736,-632"/>
<text text-anchor="start" x="744" y="-650" font-family="Helvetica,sans-Serif" font-size="10.00">Grid::calculateDistrictProduction</text>
<text text-anchor="middle" x="814.5" y="-639" font-family="Helvetica,sans-Serif" font-size="10.00">Capacity</text>
</a>
</g>
</g>
<!-- Node1&#45;&gt;Node2 -->
<g id="edge1" class="edge">
<title>Node1&#45;&gt;Node2</title>
<path fill="none" stroke="midnightblue" d="M1210.65,-413.43C1199.12,-445.67 1171.75,-510.19 1127,-546 1059.08,-600.35 961.08,-625.81 893.22,-637.5"/>
<polygon fill="midnightblue" stroke="midnightblue" points="1214.01,-414.42 1213.95,-403.82 1207.39,-412.14 1214.01,-414.42"/>
</g>
<!-- Node3 -->
<g id="node3" class="node">
<title>Node3</title>
<g id="a_node3"><a xlink:href="../../da/df6/class_logic.html#a7ebaa13c8a671d82c669431478524784" target="_top" xlink:title=" ">
<polygon fill="none" stroke="black" points="575.5,-719.5 575.5,-738.5 670.5,-738.5 670.5,-719.5 575.5,-719.5"/>
<text text-anchor="middle" x="623" y="-726.5" font-family="Helvetica,sans-Serif" font-size="10.00">Logic::simulateTO</text>
</a>
</g>
</g>
<!-- Node1&#45;&gt;Node3 -->
<g id="edge51" class="edge">
<title>Node1&#45;&gt;Node3</title>
<path fill="none" stroke="midnightblue" d="M1215.81,-413.97C1210.8,-490.82 1188.75,-765.92 1127,-822 994.81,-942.06 888.39,-921.28 726,-847 675.76,-824.02 640.82,-762.73 628.7,-738.78"/>
<polygon fill="midnightblue" stroke="midnightblue" points="1219.32,-413.96 1216.45,-403.76 1212.33,-413.52 1219.32,-413.96"/>
</g>
<!-- Node9 -->
<g id="node9" class="node">
<title>Node9</title>
<g id="a_node9"><a xlink:href="../../da/df6/class_logic.html#acf435c045c675cb3ad14f7bf8732940e" target="_top" xlink:title=" ">
<polygon fill="none" stroke="black" points="743.5,-807 743.5,-837 885.5,-837 885.5,-807 743.5,-807"/>
<text text-anchor="start" x="751.5" y="-825" font-family="Helvetica,sans-Serif" font-size="10.00">Logic::calculateSpontaneous</text>
<text text-anchor="middle" x="814.5" y="-814" font-family="Helvetica,sans-Serif" font-size="10.00">Healing</text>
</a>
</g>
</g>
<!-- Node1&#45;&gt;Node9 -->
<g id="edge8" class="edge">
<title>Node1&#45;&gt;Node9</title>
<path fill="none" stroke="midnightblue" d="M1215.31,-413.84C1208.77,-485.66 1182.66,-730.52 1127,-781 1062.05,-839.9 955.84,-841 885.8,-833.66"/>
<polygon fill="midnightblue" stroke="midnightblue" points="1218.83,-413.79 1216.22,-403.52 1211.86,-413.17 1218.83,-413.79"/>
</g>
<!-- Node10 -->
<g id="node10" class="node">
<title>Node10</title>
<g id="a_node10"><a xlink:href="../../da/df6/class_logic.html#a1a2ddbd7540b8ede1bcc7976d31f9836" target="_top" xlink:title=" ">
<polygon fill="none" stroke="black" points="962,-88 962,-118 1104,-118 1104,-88 962,-88"/>
<text text-anchor="start" x="970" y="-106" font-family="Helvetica,sans-Serif" font-size="10.00">Logic::calculateSpontaneous</text>
<text text-anchor="middle" x="1033" y="-95" font-family="Helvetica,sans-Serif" font-size="10.00">HealingLEGACY</text>
</a>
</g>
</g>
<!-- Node1&#45;&gt;Node10 -->
<g id="edge10" class="edge">
<title>Node1&#45;&gt;Node10</title>
<path fill="none" stroke="midnightblue" d="M1215.99,-374.31C1212.47,-326.14 1196.72,-201.33 1127,-133 1120.46,-126.59 1112.54,-121.55 1104.11,-117.58"/>
<polygon fill="midnightblue" stroke="midnightblue" points="1212.51,-374.59 1216.63,-384.35 1219.49,-374.15 1212.51,-374.59"/>
</g>
<!-- Node11 -->
<g id="node11" class="node">
<title>Node11</title>
<g id="a_node11"><a xlink:href="../../da/df6/class_logic.html#a7399ce3a312128bf723035825d466d89" target="_top" xlink:title=" ">
<polygon fill="none" stroke="black" points="743.5,-758 743.5,-788 885.5,-788 885.5,-758 743.5,-758"/>
<text text-anchor="start" x="751.5" y="-776" font-family="Helvetica,sans-Serif" font-size="10.00">Logic::calculateSpontaneous</text>
<text text-anchor="middle" x="814.5" y="-765" font-family="Helvetica,sans-Serif" font-size="10.00">Infection</text>
</a>
</g>
</g>
<!-- Node1&#45;&gt;Node11 -->
<g id="edge11" class="edge">
<title>Node1&#45;&gt;Node11</title>
<path fill="none" stroke="midnightblue" d="M1214.84,-413.62C1207.07,-480.54 1178.18,-698.15 1127,-742 1060.76,-798.76 955.14,-796.53 885.55,-786.97"/>
<polygon fill="midnightblue" stroke="midnightblue" points="1218.33,-413.91 1215.98,-403.58 1211.38,-413.12 1218.33,-413.91"/>
</g>
<!-- Node12 -->
<g id="node12" class="node">
<title>Node12</title>
<g id="a_node12"><a xlink:href="../../da/df6/class_logic.html#a7ff7fb2511045df5fe201656025da085" target="_top" xlink:title=" ">
<polygon fill="none" stroke="black" points="962,-39 962,-69 1104,-69 1104,-39 962,-39"/>
<text text-anchor="start" x="970" y="-57" font-family="Helvetica,sans-Serif" font-size="10.00">Logic::calculateSpontaneous</text>
<text text-anchor="middle" x="1033" y="-46" font-family="Helvetica,sans-Serif" font-size="10.00">InfectionLEGACY</text>
</a>
</g>
</g>
<!-- Node1&#45;&gt;Node12 -->
<g id="edge13" class="edge">
<title>Node1&#45;&gt;Node12</title>
<path fill="none" stroke="midnightblue" d="M1217.65,-374.1C1218.3,-318.67 1212.2,-161.11 1127,-78 1120.55,-71.71 1112.69,-67.01 1104.29,-63.5"/>
<polygon fill="midnightblue" stroke="midnightblue" points="1214.14,-374.25 1217.43,-384.32 1221.14,-374.39 1214.14,-374.25"/>
</g>
<!-- Node13 -->
<g id="node13" class="node">
<title>Node13</title>
<g id="a_node13"><a xlink:href="../../da/df6/class_logic.html#ac8b8a4faa67a5f1868371796c9d5f3c2" target="_top" xlink:title=" ">
<polygon fill="none" stroke="black" points="746.5,-719.5 746.5,-738.5 882.5,-738.5 882.5,-719.5 746.5,-719.5"/>
<text text-anchor="middle" x="814.5" y="-726.5" font-family="Helvetica,sans-Serif" font-size="10.00">Logic::calculateVaccination</text>
</a>
</g>
</g>
<!-- Node1&#45;&gt;Node13 -->
<g id="edge14" class="edge">
<title>Node1&#45;&gt;Node13</title>
<path fill="none" stroke="midnightblue" d="M1214.26,-413.56C1205.11,-475.76 1173.59,-667.1 1127,-705 1048.11,-769.19 917.68,-752.22 853.53,-738.55"/>
<polygon fill="midnightblue" stroke="midnightblue" points="1217.74,-413.92 1215.7,-403.52 1210.81,-412.92 1217.74,-413.92"/>
</g>
<!-- Node14 -->
<g id="node14" class="node">
<title>Node14</title>
<g id="a_node14"><a xlink:href="../../d9/dbf/class_window.html#a3d7f68f2fe4c1e7d787353b056090ea4" target="_top" xlink:title=" ">
<polygon fill="none" stroke="black" points="726,-365.5 726,-384.5 903,-384.5 903,-365.5 726,-365.5"/>
<text text-anchor="middle" x="814.5" y="-372.5" font-family="Helvetica,sans-Serif" font-size="10.00">Window::createAcquiredDistrictsMap</text>
</a>
</g>
</g>
<!-- Node1&#45;&gt;Node14 -->
<g id="edge16" class="edge">
<title>Node1&#45;&gt;Node14</title>
<path fill="none" stroke="midnightblue" d="M1152.63,-396.78C1096.22,-398.55 1012.05,-399.59 939,-394 914.77,-392.15 888.11,-388.28 865.77,-384.51"/>
<polygon fill="midnightblue" stroke="midnightblue" points="1152.95,-400.27 1162.83,-396.44 1152.72,-393.27 1152.95,-400.27"/>
</g>
<!-- Node18 -->
<g id="node18" class="node">
<title>Node18</title>
<g id="a_node18"><a xlink:href="../../d9/dbf/class_window.html#a3cf04a74c49b1871b64436ef60fedc87" target="_top" xlink:title=" ">
<polygon fill="none" stroke="black" points="749,-289.5 749,-308.5 880,-308.5 880,-289.5 749,-289.5"/>
<text text-anchor="middle" x="814.5" y="-296.5" font-family="Helvetica,sans-Serif" font-size="10.00">Window::createDistrictCell</text>
</a>
</g>
</g>
<!-- Node1&#45;&gt;Node18 -->
<g id="edge20" class="edge">
<title>Node1&#45;&gt;Node18</title>
<path fill="none" stroke="midnightblue" d="M1202.77,-376.7C1186.58,-358.42 1158.28,-330.53 1127,-318 1046.53,-285.76 944.97,-286.4 880.11,-291.41"/>
<polygon fill="midnightblue" stroke="midnightblue" points="1200.16,-379.03 1209.33,-384.33 1205.47,-374.47 1200.16,-379.03"/>
</g>
<!-- Node19 -->
<g id="node19" class="node">
<title>Node19</title>
<g id="a_node19"><a xlink:href="../../d2/d5c/class_iface.html#a42712663a207dad0227b8fc592c7046b" target="_top" xlink:title=" ">
<polygon fill="none" stroke="black" points="770.5,-441.5 770.5,-460.5 858.5,-460.5 858.5,-441.5 770.5,-441.5"/>
<text text-anchor="middle" x="814.5" y="-448.5" font-family="Helvetica,sans-Serif" font-size="10.00">Iface::createGrid</text>
</a>
</g>
</g>
<!-- Node1&#45;&gt;Node19 -->
<g id="edge22" class="edge">
<title>Node1&#45;&gt;Node19</title>
<path fill="none" stroke="midnightblue" d="M1186.55,-407.54C1169.4,-414.56 1147.39,-422.56 1127,-427 1032.79,-447.49 919.23,-451.1 858.61,-451.39"/>
<polygon fill="midnightblue" stroke="midnightblue" points="1188.17,-410.66 1196.03,-403.56 1185.46,-404.2 1188.17,-410.66"/>
</g>
<!-- Node22 -->
<g id="node22" class="node">
<title>Node22</title>
<g id="a_node22"><a xlink:href="../../d9/dbf/class_window.html#a64c006506fe02aaabd214abef651d87d" target="_top" xlink:title=" ">
<polygon fill="none" stroke="black" points="953.5,-213.5 953.5,-232.5 1112.5,-232.5 1112.5,-213.5 953.5,-213.5"/>
<text text-anchor="middle" x="1033" y="-220.5" font-family="Helvetica,sans-Serif" font-size="10.00">Window::createInfectionHeatMap</text>
</a>
</g>
</g>
<!-- Node1&#45;&gt;Node22 -->
<g id="edge25" class="edge">
<title>Node1&#45;&gt;Node22</title>
<path fill="none" stroke="midnightblue" d="M1211.22,-374.48C1200.42,-341.58 1173.91,-275.41 1127,-242 1121.63,-238.18 1115.67,-235.08 1109.43,-232.59"/>
<polygon fill="midnightblue" stroke="midnightblue" points="1207.96,-375.78 1214.29,-384.27 1214.64,-373.68 1207.96,-375.78"/>
</g>
<!-- Node23 -->
<g id="node23" class="node">
<title>Node23</title>
<g id="a_node23"><a xlink:href="../../d9/dbf/class_window.html#a559be400478ab10fd0c147c3e88710be" target="_top" xlink:title=" ">
<polygon fill="none" stroke="black" points="939,-175.5 939,-194.5 1127,-194.5 1127,-175.5 939,-175.5"/>
<text text-anchor="middle" x="1033" y="-182.5" font-family="Helvetica,sans-Serif" font-size="10.00">Window::createMinimalVaccinationMap</text>
</a>
</g>
</g>
<!-- Node1&#45;&gt;Node23 -->
<g id="edge27" class="edge">
<title>Node1&#45;&gt;Node23</title>
<path fill="none" stroke="midnightblue" d="M1213.67,-374.37C1205.96,-335.34 1183.06,-247.96 1127,-204 1122.2,-200.24 1116.85,-197.17 1111.2,-194.66"/>
<polygon fill="midnightblue" stroke="midnightblue" points="1210.23,-375.03 1215.49,-384.23 1217.11,-373.76 1210.23,-375.03"/>
</g>
<!-- Node24 -->
<g id="node24" class="node">
<title>Node24</title>
<g id="a_node24"><a xlink:href="../../d9/dbf/class_window.html#ad7e1d8bae4995cbd51eff71c283e6945" target="_top" xlink:title=" ">
<polygon fill="none" stroke="black" points="958.5,-365.5 958.5,-384.5 1107.5,-384.5 1107.5,-365.5 958.5,-365.5"/>
<text text-anchor="middle" x="1033" y="-372.5" font-family="Helvetica,sans-Serif" font-size="10.00">Window::createPopulationMap</text>
</a>
</g>
</g>
<!-- Node1&#45;&gt;Node24 -->
<g id="edge29" class="edge">
<title>Node1&#45;&gt;Node24</title>
<path fill="none" stroke="midnightblue" d="M1152.25,-387.28C1137.77,-385.77 1122.32,-384.17 1107.51,-382.63"/>
<polygon fill="midnightblue" stroke="midnightblue" points="1152.28,-390.8 1162.59,-388.35 1153,-383.84 1152.28,-390.8"/>
</g>
<!-- Node25 -->
<g id="node25" class="node">
<title>Node25</title>
<g id="a_node25"><a xlink:href="../../d9/dbf/class_window.html#ac2cf80c0ebb9c8fa2217776be9c394d7" target="_top" xlink:title=" ">
<polygon fill="none" stroke="black" points="981.5,-327.5 981.5,-346.5 1084.5,-346.5 1084.5,-327.5 981.5,-327.5"/>
<text text-anchor="middle" x="1033" y="-334.5" font-family="Helvetica,sans-Serif" font-size="10.00">Window::createText</text>
</a>
</g>
</g>
<!-- Node1&#45;&gt;Node25 -->
<g id="edge31" class="edge">
<title>Node1&#45;&gt;Node25</title>
<path fill="none" stroke="midnightblue" d="M1188.34,-380.18C1170.92,-372.21 1148.05,-362.52 1127,-356 1113.46,-351.8 1098.53,-348.28 1084.66,-345.46"/>
<polygon fill="midnightblue" stroke="midnightblue" points="1186.86,-383.35 1197.4,-384.39 1189.81,-377 1186.86,-383.35"/>
</g>
<!-- Node26 -->
<g id="node26" class="node">
<title>Node26</title>
<g id="a_node26"><a xlink:href="../../d9/dbf/class_window.html#a27b72cfc7953f398cace9362daa9d4ca" target="_top" xlink:title=" ">
<polygon fill="none" stroke="black" points="956,-251.5 956,-270.5 1110,-270.5 1110,-251.5 956,-251.5"/>
<text text-anchor="middle" x="1033" y="-258.5" font-family="Helvetica,sans-Serif" font-size="10.00">Window::createVaccinationMap</text>
</a>
</g>
</g>
<!-- Node1&#45;&gt;Node26 -->
<g id="edge33" class="edge">
<title>Node1&#45;&gt;Node26</title>
<path fill="none" stroke="midnightblue" d="M1206.75,-375.42C1192.24,-350.9 1163.4,-308.15 1127,-285 1117.01,-278.65 1105.41,-273.97 1093.86,-270.53"/>
<polygon fill="midnightblue" stroke="midnightblue" points="1203.9,-377.48 1211.91,-384.42 1209.97,-374 1203.9,-377.48"/>
</g>
<!-- Node27 -->
<g id="node27" class="node">
<title>Node27</title>
<g id="a_node27"><a xlink:href="../../d2/d5b/class_graph_algos.html#af00f038c0816aca536aacf698936a029" target="_top" xlink:title=" ">
<polygon fill="none" stroke="black" points="980.5,-0.5 980.5,-19.5 1085.5,-19.5 1085.5,-0.5 980.5,-0.5"/>
<text text-anchor="middle" x="1033" y="-7.5" font-family="Helvetica,sans-Serif" font-size="10.00">GraphAlgos::dijkstra</text>
</a>
</g>
</g>
<!-- Node1&#45;&gt;Node27 -->
<g id="edge35" class="edge">
<title>Node1&#45;&gt;Node27</title>
<path fill="none" stroke="midnightblue" d="M1214.87,-374.09C1207.09,-305.11 1177.95,-77.94 1127,-29 1115.95,-18.38 1100.65,-12.97 1085.65,-10.39"/>
<polygon fill="midnightblue" stroke="midnightblue" points="1211.43,-374.85 1216.01,-384.4 1218.39,-374.08 1211.43,-374.85"/>
</g>
<!-- Node28 -->
<g id="node28" class="node">
<title>Node28</title>
<g id="a_node28"><a xlink:href="../../da/d74/class_grid.html#a258fdb0fb8bc7f13cad6637d40a7f20c" target="_top" xlink:title=" ">
<polygon fill="none" stroke="black" points="973.5,-517.5 973.5,-536.5 1092.5,-536.5 1092.5,-517.5 973.5,-517.5"/>
<text text-anchor="middle" x="1033" y="-524.5" font-family="Helvetica,sans-Serif" font-size="10.00">Grid::getDistrictByPoint</text>
</a>
</g>
</g>
<!-- Node1&#45;&gt;Node28 -->
<g id="edge36" class="edge">
<title>Node1&#45;&gt;Node28</title>
<path fill="none" stroke="midnightblue" d="M1206.75,-412.58C1192.24,-437.1 1163.4,-479.85 1127,-503 1116.73,-509.53 1104.75,-514.29 1092.88,-517.76"/>
<polygon fill="midnightblue" stroke="midnightblue" points="1209.97,-414 1211.91,-403.58 1203.9,-410.52 1209.97,-414"/>
</g>
<!-- Node31 -->
<g id="node31" class="node">
<title>Node31</title>
<g id="a_node31"><a xlink:href="../../da/d74/class_grid.html#aec7885d1f815b35b32ec7a605f714acd" target="_top" xlink:title=" ">
<polygon fill="none" stroke="black" points="773.5,-403.5 773.5,-422.5 855.5,-422.5 855.5,-403.5 773.5,-403.5"/>
<text text-anchor="middle" x="814.5" y="-410.5" font-family="Helvetica,sans-Serif" font-size="10.00">Grid::operator=</text>
</a>
</g>
</g>
<!-- Node1&#45;&gt;Node31 -->
<g id="edge48" class="edge">
<title>Node1&#45;&gt;Node31</title>
<path fill="none" stroke="midnightblue" d="M1161.95,-405.28C1150.45,-407.22 1138.37,-408.94 1127,-410 1030.07,-419.02 915.45,-416.84 855.93,-414.75"/>
<polygon fill="midnightblue" stroke="midnightblue" points="1162.63,-408.71 1171.88,-403.54 1161.42,-401.82 1162.63,-408.71"/>
</g>
<!-- Node32 -->
<g id="node32" class="node">
<title>Node32</title>
<g id="a_node32"><a xlink:href="../../d9/dbf/class_window.html#ab5efaea1f6d653d0404cb3f17b0e7e4c" target="_top" xlink:title=" ">
<polygon fill="none" stroke="black" points="569,-175.5 569,-194.5 677,-194.5 677,-175.5 569,-175.5"/>
<text text-anchor="middle" x="623" y="-182.5" font-family="Helvetica,sans-Serif" font-size="10.00">Window::showStatus</text>
</a>
</g>
</g>
<!-- Node1&#45;&gt;Node32 -->
<g id="edge49" class="edge">
<title>Node1&#45;&gt;Node32</title>
<path fill="none" stroke="midnightblue" d="M1216.16,-374.23C1213,-328.23 1198.03,-214.33 1127,-166 1054.93,-116.97 789.71,-155.89 676.16,-175.47"/>
<polygon fill="midnightblue" stroke="midnightblue" points="1212.67,-374.59 1216.73,-384.37 1219.66,-374.19 1212.67,-374.59"/>
</g>
<!-- Node33 -->
<g id="node33" class="node">
<title>Node33</title>
<g id="a_node33"><a xlink:href="../../da/df6/class_logic.html#a4d43275d8c0cccec8902901dd4e99f09" target="_top" xlink:title=" ">
<polygon fill="none" stroke="black" points="556,-681.5 556,-700.5 690,-700.5 690,-681.5 556,-681.5"/>
<text text-anchor="middle" x="623" y="-688.5" font-family="Helvetica,sans-Serif" font-size="10.00">Logic::simulateVaccination</text>
</a>
</g>
</g>
<!-- Node1&#45;&gt;Node33 -->
<g id="edge52" class="edge">
<title>Node1&#45;&gt;Node33</title>
<path fill="none" stroke="midnightblue" d="M1213.9,-413.86C1206.48,-454.7 1183.9,-548.57 1127,-600 1005.04,-710.24 796.19,-708.58 690.07,-699.25"/>
<polygon fill="midnightblue" stroke="midnightblue" points="1217.38,-414.27 1215.6,-403.83 1210.48,-413.1 1217.38,-414.27"/>
</g>
<!-- Node2&#45;&gt;Node3 -->
<g id="edge2" class="edge">
<title>Node2&#45;&gt;Node3</title>
<path fill="none" stroke="midnightblue" d="M778.84,-666.95C754.53,-680.37 720.97,-697.77 690,-710 681.02,-713.55 671.11,-716.75 661.77,-719.47"/>
<polygon fill="midnightblue" stroke="midnightblue" points="780.65,-669.94 787.68,-662.02 777.24,-663.83 780.65,-669.94"/>
</g>
<!-- Node4 -->
<g id="node4" class="node">
<title>Node4</title>
<g id="a_node4"><a xlink:href="../../d2/d5c/class_iface.html#ad724ec2c6a2aa884f61de19193affc6a" target="_top" xlink:title=" ">
<polygon fill="none" stroke="black" points="405,-719.5 405,-738.5 520,-738.5 520,-719.5 405,-719.5"/>
<text text-anchor="middle" x="462.5" y="-726.5" font-family="Helvetica,sans-Serif" font-size="10.00">Iface::requestLEGACY</text>
</a>
</g>
</g>
<!-- Node3&#45;&gt;Node4 -->
<g id="edge3" class="edge">
<title>Node3&#45;&gt;Node4</title>
<path fill="none" stroke="midnightblue" d="M564.94,-729C550.39,-729 534.77,-729 520.24,-729"/>
<polygon fill="midnightblue" stroke="midnightblue" points="565.3,-732.5 575.3,-729 565.3,-725.5 565.3,-732.5"/>
</g>
<!-- Node5 -->
<g id="node5" class="node">
<title>Node5</title>
<g id="a_node5"><a xlink:href="../../d2/d5c/class_iface.html#abae0122b800731a979c9f8e4c3a58176" target="_top" xlink:title=" ">
<polygon fill="none" stroke="black" points="429,-681.5 429,-700.5 496,-700.5 496,-681.5 429,-681.5"/>
<text text-anchor="middle" x="462.5" y="-688.5" font-family="Helvetica,sans-Serif" font-size="10.00">Iface::round</text>
</a>
</g>
</g>
<!-- Node3&#45;&gt;Node5 -->
<g id="edge4" class="edge">
<title>Node3&#45;&gt;Node5</title>
<path fill="none" stroke="midnightblue" d="M572.03,-717.02C547.2,-711.07 517.91,-704.04 496.02,-698.8"/>
<polygon fill="midnightblue" stroke="midnightblue" points="571.46,-720.48 582,-719.41 573.1,-713.68 571.46,-720.48"/>
</g>
<!-- Node6 -->
<g id="node6" class="node">
<title>Node6</title>
<g id="a_node6"><a xlink:href="../../d2/d5c/class_iface.html#a44e6d0db22abbce5cb8c132e5f1d4284" target="_top" xlink:title=" ">
<polygon fill="none" stroke="black" points="268,-681.5 268,-700.5 330,-700.5 330,-681.5 268,-681.5"/>
<text text-anchor="middle" x="299" y="-688.5" font-family="Helvetica,sans-Serif" font-size="10.00">Iface::start</text>
</a>
</g>
</g>
<!-- Node5&#45;&gt;Node6 -->
<g id="edge5" class="edge">
<title>Node5&#45;&gt;Node6</title>
<path fill="none" stroke="midnightblue" d="M418.56,-691C390.69,-691 355.07,-691 330.18,-691"/>
<polygon fill="midnightblue" stroke="midnightblue" points="418.82,-694.5 428.82,-691 418.82,-687.5 418.82,-694.5"/>
</g>
<!-- Node7 -->
<g id="node7" class="node">
<title>Node7</title>
<g id="a_node7"><a xlink:href="../../dc/d90/class_anti_virus.html#affe3f62a87b880cc964188d9ddb9d562" target="_top" xlink:title=" ">
<polygon fill="none" stroke="black" points="74,-681.5 74,-700.5 193,-700.5 193,-681.5 74,-681.5"/>
<text text-anchor="middle" x="133.5" y="-688.5" font-family="Helvetica,sans-Serif" font-size="10.00">AntiVirus::startInterface</text>
</a>
</g>
</g>
<!-- Node6&#45;&gt;Node7 -->
<g id="edge6" class="edge">
<title>Node6&#45;&gt;Node7</title>
<path fill="none" stroke="midnightblue" d="M257.61,-691C238.18,-691 214.54,-691 193.18,-691"/>
<polygon fill="midnightblue" stroke="midnightblue" points="257.63,-694.5 267.63,-691 257.63,-687.5 257.63,-694.5"/>
</g>
<!-- Node8 -->
<g id="node8" class="node">
<title>Node8</title>
<g id="a_node8"><a xlink:href="../../df/d0a/main_8cpp.html#ae66f6b31b5ad750f1fe042a706a4e3d4" target="_top" xlink:title=" ">
<polygon fill="none" stroke="black" points="0,-681.5 0,-700.5 38,-700.5 38,-681.5 0,-681.5"/>
<text text-anchor="middle" x="19" y="-688.5" font-family="Helvetica,sans-Serif" font-size="10.00">main</text>
</a>
</g>
</g>
<!-- Node7&#45;&gt;Node8 -->
<g id="edge7" class="edge">
<title>Node7&#45;&gt;Node8</title>
<path fill="none" stroke="midnightblue" d="M63.65,-691C54.29,-691 45.43,-691 38.16,-691"/>
<polygon fill="midnightblue" stroke="midnightblue" points="63.94,-694.5 73.94,-691 63.94,-687.5 63.94,-694.5"/>
</g>
<!-- Node9&#45;&gt;Node3 -->
<g id="edge9" class="edge">
<title>Node9&#45;&gt;Node3</title>
<path fill="none" stroke="midnightblue" d="M739.49,-803.58C734.87,-801.85 730.33,-799.99 726,-798 690.46,-781.65 653.61,-753.41 635.48,-738.64"/>
<polygon fill="midnightblue" stroke="midnightblue" points="738.48,-806.93 749.07,-806.94 740.8,-800.33 738.48,-806.93"/>
</g>
<!-- Node11&#45;&gt;Node3 -->
<g id="edge12" class="edge">
<title>Node11&#45;&gt;Node3</title>
<path fill="none" stroke="midnightblue" d="M738.91,-755.68C713.73,-749.84 686.56,-743.53 664.97,-738.51"/>
<polygon fill="midnightblue" stroke="midnightblue" points="738.28,-759.13 748.81,-757.98 739.87,-752.31 738.28,-759.13"/>
</g>
<!-- Node13&#45;&gt;Node3 -->
<g id="edge15" class="edge">
<title>Node13&#45;&gt;Node3</title>
<path fill="none" stroke="midnightblue" d="M736.32,-729C714.1,-729 690.53,-729 670.76,-729"/>
<polygon fill="midnightblue" stroke="midnightblue" points="736.42,-732.5 746.42,-729 736.42,-725.5 736.42,-732.5"/>
</g>
<!-- Node15 -->
<g id="node15" class="node">
<title>Node15</title>
<g id="a_node15"><a xlink:href="../../d9/dbf/class_window.html#a613473425472a8fa471f2cbd4926aa2e" target="_top" xlink:title=" ">
<polygon fill="none" stroke="black" points="572,-270.5 572,-289.5 674,-289.5 674,-270.5 572,-270.5"/>
<text text-anchor="middle" x="623" y="-277.5" font-family="Helvetica,sans-Serif" font-size="10.00">Window::createGrid</text>
</a>
</g>
</g>
<!-- Node14&#45;&gt;Node15 -->
<g id="edge17" class="edge">
<title>Node14&#45;&gt;Node15</title>
<path fill="none" stroke="midnightblue" d="M757.36,-362.66C746.71,-359.47 735.83,-355.6 726,-351 690.05,-334.17 653.08,-304.85 635.13,-289.69"/>
<polygon fill="midnightblue" stroke="midnightblue" points="756.46,-366.04 767.04,-365.4 758.37,-359.3 756.46,-366.04"/>
</g>
<!-- Node16 -->
<g id="node16" class="node">
<title>Node16</title>
<g id="a_node16"><a xlink:href="../../d9/dbf/class_window.html#a59515fc5a56e86d5a46d771595daac55" target="_top" xlink:title=" ">
<polygon fill="none" stroke="black" points="419.5,-270.5 419.5,-289.5 505.5,-289.5 505.5,-270.5 419.5,-270.5"/>
<text text-anchor="middle" x="462.5" y="-277.5" font-family="Helvetica,sans-Serif" font-size="10.00">Window::update</text>
</a>
</g>
</g>
<!-- Node15&#45;&gt;Node16 -->
<g id="edge18" class="edge">
<title>Node15&#45;&gt;Node16</title>
<path fill="none" stroke="midnightblue" d="M561.65,-280C542.96,-280 522.78,-280 505.61,-280"/>
<polygon fill="midnightblue" stroke="midnightblue" points="561.85,-283.5 571.85,-280 561.85,-276.5 561.85,-283.5"/>
</g>
<!-- Node17 -->
<g id="node17" class="node">
<title>Node17</title>
<g id="a_node17"><a xlink:href="../../d0/d85/class_visualization.html#a83a40506ae13f42fefad3449d644909a" target="_top" xlink:title=" ">
<polygon fill="none" stroke="black" points="229,-265 229,-295 369,-295 369,-265 229,-265"/>
<text text-anchor="start" x="237" y="-283" font-family="Helvetica,sans-Serif" font-size="10.00">Visualization::displayCurrent</text>
<text text-anchor="middle" x="299" y="-272" font-family="Helvetica,sans-Serif" font-size="10.00">Round</text>
</a>
</g>
</g>
<!-- Node16&#45;&gt;Node17 -->
<g id="edge19" class="edge">
<title>Node16&#45;&gt;Node17</title>
<path fill="none" stroke="midnightblue" d="M409.43,-280C396.55,-280 382.56,-280 369.01,-280"/>
<polygon fill="midnightblue" stroke="midnightblue" points="409.49,-283.5 419.49,-280 409.49,-276.5 409.49,-283.5"/>
</g>
<!-- Node18&#45;&gt;Node15 -->
<g id="edge21" class="edge">
<title>Node18&#45;&gt;Node15</title>
<path fill="none" stroke="midnightblue" d="M738.64,-291.49C716.95,-289.32 693.81,-287 674.04,-285.02"/>
<polygon fill="midnightblue" stroke="midnightblue" points="738.52,-295 748.81,-292.51 739.21,-288.03 738.52,-295"/>
</g>
<!-- Node20 -->
<g id="node20" class="node">
<title>Node20</title>
<g id="a_node20"><a xlink:href="../../d2/d5c/class_iface.html#a6afe73763b17570a7a884ffeca597c0e" target="_top" xlink:title=" ">
<polygon fill="none" stroke="black" points="575.5,-441.5 575.5,-460.5 670.5,-460.5 670.5,-441.5 575.5,-441.5"/>
<text text-anchor="middle" x="623" y="-448.5" font-family="Helvetica,sans-Serif" font-size="10.00">Iface::initAntiVirus</text>
</a>
</g>
</g>
<!-- Node19&#45;&gt;Node20 -->
<g id="edge23" class="edge">
<title>Node19&#45;&gt;Node20</title>
<path fill="none" stroke="midnightblue" d="M760.43,-451C732.27,-451 697.97,-451 670.81,-451"/>
<polygon fill="midnightblue" stroke="midnightblue" points="760.5,-454.5 770.5,-451 760.5,-447.5 760.5,-454.5"/>
</g>
<!-- Node21 -->
<g id="node21" class="node">
<title>Node21</title>
<g id="a_node21"><a xlink:href="../../dc/d90/class_anti_virus.html#a3b3aed962d274c4333a8c9ac191816a0" target="_top" xlink:title=" ">
<polygon fill="none" stroke="black" points="411.5,-441.5 411.5,-460.5 513.5,-460.5 513.5,-441.5 411.5,-441.5"/>
<text text-anchor="middle" x="462.5" y="-448.5" font-family="Helvetica,sans-Serif" font-size="10.00">AntiVirus::AntiVirus</text>
</a>
</g>
</g>
<!-- Node20&#45;&gt;Node21 -->
<g id="edge24" class="edge">
<title>Node20&#45;&gt;Node21</title>
<path fill="none" stroke="midnightblue" d="M565.07,-451C548.29,-451 530.06,-451 513.73,-451"/>
<polygon fill="midnightblue" stroke="midnightblue" points="565.3,-454.5 575.3,-451 565.3,-447.5 565.3,-454.5"/>
</g>
<!-- Node22&#45;&gt;Node15 -->
<g id="edge26" class="edge">
<title>Node22&#45;&gt;Node15</title>
<path fill="none" stroke="midnightblue" d="M947.38,-233.82C885.91,-241.81 800.74,-253.13 726,-264 709.06,-266.46 690.56,-269.32 674.03,-271.92"/>
<polygon fill="midnightblue" stroke="midnightblue" points="947.96,-237.28 957.42,-232.52 947.06,-230.33 947.96,-237.28"/>
</g>
<!-- Node23&#45;&gt;Node15 -->
<g id="edge28" class="edge">
<title>Node23&#45;&gt;Node15</title>
<path fill="none" stroke="midnightblue" d="M933.78,-195.83C873.11,-203.96 794.12,-217.14 726,-237 696.11,-245.71 663.2,-260.62 643.07,-270.39"/>
<polygon fill="midnightblue" stroke="midnightblue" points="934.28,-199.3 943.73,-194.52 933.36,-192.36 934.28,-199.3"/>
</g>
<!-- Node24&#45;&gt;Node15 -->
<g id="edge30" class="edge">
<title>Node24&#45;&gt;Node15</title>
<path fill="none" stroke="midnightblue" d="M964.16,-363.77C888.14,-350.93 769.79,-330.14 726,-318 697.96,-310.23 666.74,-298.05 646.32,-289.59"/>
<polygon fill="midnightblue" stroke="midnightblue" points="963.69,-367.24 974.13,-365.45 964.85,-360.34 963.69,-367.24"/>
</g>
<!-- Node25&#45;&gt;Node18 -->
<g id="edge32" class="edge">
<title>Node25&#45;&gt;Node18</title>
<path fill="none" stroke="midnightblue" d="M971.15,-326.32C939.27,-320.72 900.57,-313.93 869.73,-308.52"/>
<polygon fill="midnightblue" stroke="midnightblue" points="970.79,-329.81 981.24,-328.09 972,-322.91 970.79,-329.81"/>
</g>
<!-- Node26&#45;&gt;Node15 -->
<g id="edge34" class="edge">
<title>Node26&#45;&gt;Node15</title>
<path fill="none" stroke="midnightblue" d="M945.63,-265.02C863.18,-268.86 741.78,-274.52 674.16,-277.66"/>
<polygon fill="midnightblue" stroke="midnightblue" points="945.91,-268.51 955.74,-264.55 945.58,-261.52 945.91,-268.51"/>
</g>
<!-- Node28&#45;&gt;Node2 -->
<g id="edge39" class="edge">
<title>Node28&#45;&gt;Node2</title>
<path fill="none" stroke="midnightblue" d="M1009.72,-542.57C973,-568.24 903.72,-616.64 903,-617 891.83,-622.67 879.34,-627.67 867.38,-631.88"/>
<polygon fill="midnightblue" stroke="midnightblue" points="1012.1,-545.18 1018.29,-536.58 1008.09,-539.44 1012.1,-545.18"/>
</g>
<!-- Node28&#45;&gt;Node3 -->
<g id="edge46" class="edge">
<title>Node28&#45;&gt;Node3</title>
<path fill="none" stroke="midnightblue" d="M1004.53,-541.06C978.84,-553.74 939.11,-572.18 903,-584 826.45,-609.07 787.73,-571.25 726,-623 693.93,-649.88 721.2,-682.11 690,-710 684.49,-714.93 677.77,-718.58 670.77,-721.29"/>
<polygon fill="midnightblue" stroke="midnightblue" points="1006.27,-544.1 1013.66,-536.5 1003.15,-537.84 1006.27,-544.1"/>
</g>
<!-- Node28&#45;&gt;Node14 -->
<g id="edge42" class="edge">
<title>Node28&#45;&gt;Node14</title>
<path fill="none" stroke="midnightblue" d="M1016.46,-509.91C985.26,-475.75 916.8,-401.67 903,-394 896.07,-390.15 888.43,-387.08 880.63,-384.63"/>
<polygon fill="midnightblue" stroke="midnightblue" points="1013.87,-512.27 1023.2,-517.3 1019.05,-507.55 1013.87,-512.27"/>
</g>
<!-- Node28&#45;&gt;Node16 -->
<g id="edge47" class="edge">
<title>Node28&#45;&gt;Node16</title>
<path fill="none" stroke="midnightblue" d="M962.98,-522.38C839.01,-513.56 588.48,-493.12 556,-470 523.42,-446.82 479.25,-325.34 466.86,-289.78"/>
<polygon fill="midnightblue" stroke="midnightblue" points="962.9,-525.89 973.13,-523.1 963.4,-518.9 962.9,-525.89"/>
</g>
<!-- Node28&#45;&gt;Node18 -->
<g id="edge43" class="edge">
<title>Node28&#45;&gt;Node18</title>
<path fill="none" stroke="midnightblue" d="M1019.36,-508.63C992.49,-469.86 929.94,-381.15 903,-356 881.79,-336.21 852.92,-318.89 834.24,-308.69"/>
<polygon fill="midnightblue" stroke="midnightblue" points="1016.82,-511.11 1025.38,-517.35 1022.58,-507.13 1016.82,-511.11"/>
</g>
<!-- Node28&#45;&gt;Node19 -->
<g id="edge44" class="edge">
<title>Node28&#45;&gt;Node19</title>
<path fill="none" stroke="midnightblue" d="M969.85,-514.74C959.28,-511.6 948.62,-507.73 939,-503 920.81,-494.06 921.12,-484.08 903,-475 889.2,-468.09 873.14,-462.95 858.58,-459.24"/>
<polygon fill="midnightblue" stroke="midnightblue" points="968.92,-518.11 979.49,-517.42 970.8,-511.37 968.92,-518.11"/>
</g>
<!-- Node29 -->
<g id="node29" class="node">
<title>Node29</title>
<g id="a_node29"><a xlink:href="../../da/df6/class_logic.html#a95e67ed4c9141cbf3efdf6a720993e59" target="_top" xlink:title=" ">
<polygon fill="none" stroke="black" points="758,-555.5 758,-574.5 871,-574.5 871,-555.5 758,-555.5"/>
<text text-anchor="middle" x="814.5" y="-562.5" font-family="Helvetica,sans-Serif" font-size="10.00">Logic::calculateBorder</text>
</a>
</g>
</g>
<!-- Node28&#45;&gt;Node29 -->
<g id="edge37" class="edge">
<title>Node28&#45;&gt;Node29</title>
<path fill="none" stroke="midnightblue" d="M967.76,-538.28C936.61,-543.74 899.6,-550.24 869.88,-555.46"/>
<polygon fill="midnightblue" stroke="midnightblue" points="968.4,-541.72 977.65,-536.54 967.19,-534.82 968.4,-541.72"/>
</g>
<!-- Node30 -->
<g id="node30" class="node">
<title>Node30</title>
<g id="a_node30"><a xlink:href="../../d9/d64/class_a_i.html#a6afa7ebeca7011cfffbc5a0df60c112f" target="_top" xlink:title=" ">
<polygon fill="none" stroke="black" points="560,-580.5 560,-599.5 686,-599.5 686,-580.5 560,-580.5"/>
<text text-anchor="middle" x="623" y="-587.5" font-family="Helvetica,sans-Serif" font-size="10.00">AI::calculatePutVaccines</text>
</a>
</g>
</g>
<!-- Node28&#45;&gt;Node30 -->
<g id="edge40" class="edge">
<title>Node28&#45;&gt;Node30</title>
<path fill="none" stroke="midnightblue" d="M963.15,-524.57C900.47,-523.93 805.81,-526.92 726,-546 694.68,-553.49 660.81,-569.93 641.05,-580.46"/>
<polygon fill="midnightblue" stroke="midnightblue" points="963.27,-528.07 973.31,-524.71 963.36,-521.07 963.27,-528.07"/>
</g>
<!-- Node28&#45;&gt;Node31 -->
<g id="edge45" class="edge">
<title>Node28&#45;&gt;Node31</title>
<path fill="none" stroke="midnightblue" d="M1007.29,-511.99C988.12,-500 961.18,-482.39 939,-465 921.92,-451.61 922.27,-441.98 903,-432 888.51,-424.49 871.18,-419.95 855.79,-417.2"/>
<polygon fill="midnightblue" stroke="midnightblue" points="1005.67,-515.11 1016.02,-517.4 1009.36,-509.16 1005.67,-515.11"/>
</g>
<!-- Node29&#45;&gt;Node3 -->
<g id="edge38" class="edge">
<title>Node29&#45;&gt;Node3</title>
<path fill="none" stroke="midnightblue" d="M748.25,-574.77C740.02,-578.22 732.3,-582.84 726,-589 685.9,-628.25 729.85,-670.5 690,-710 684.58,-715.37 677.75,-719.25 670.54,-722.03"/>
<polygon fill="midnightblue" stroke="midnightblue" points="749.49,-578.04 757.7,-571.35 747.11,-571.46 749.49,-578.04"/>
</g>
<!-- Node30&#45;&gt;Node5 -->
<g id="edge41" class="edge">
<title>Node30&#45;&gt;Node5</title>
<path fill="none" stroke="midnightblue" d="M598.51,-604.97C565.45,-626.03 506.16,-663.82 478.49,-681.45"/>
<polygon fill="midnightblue" stroke="midnightblue" points="600.54,-607.83 607.09,-599.5 596.77,-601.92 600.54,-607.83"/>
</g>
<!-- Node32&#45;&gt;Node16 -->
<g id="edge50" class="edge">
<title>Node32&#45;&gt;Node16</title>
<path fill="none" stroke="midnightblue" d="M596.94,-200.02C564.06,-219.73 507.29,-253.75 479.61,-270.34"/>
<polygon fill="midnightblue" stroke="midnightblue" points="599.15,-202.77 605.93,-194.63 595.55,-196.77 599.15,-202.77"/>
</g>
<!-- Node33&#45;&gt;Node5 -->
<g id="edge53" class="edge">
<title>Node33&#45;&gt;Node5</title>
<path fill="none" stroke="midnightblue" d="M545.53,-691C528.17,-691 510.63,-691 496.25,-691"/>
<polygon fill="midnightblue" stroke="midnightblue" points="545.7,-694.5 555.7,-691 545.7,-687.5 545.7,-694.5"/>
</g>
</g>
</svg>
