<?xml version="1.0" encoding="UTF-8" standalone="no"?>
<!DOCTYPE svg PUBLIC "-//W3C//DTD SVG 1.1//EN"
 "http://www.w3.org/Graphics/SVG/1.1/DTD/svg11.dtd">
<!-- Generated by graphviz version 2.44.1 (20200629.0846)
 -->
<!-- Title: Grid::getDistrictByID Pages: 1 -->
<svg width="1223pt" height="388pt"
 viewBox="0.00 0.00 1223.00 387.50" xmlns="http://www.w3.org/2000/svg" xmlns:xlink="http://www.w3.org/1999/xlink">
<g id="graph0" class="graph" transform="scale(1 1) rotate(0) translate(4 383.5)">
<title>Grid::getDistrictByID</title>
<!-- Node1 -->
<g id="node1" class="node">
<title>Node1</title>
<g id="a_node1"><a xlink:title=" ">
<polygon fill="#bfbfbf" stroke="black" points="1109,-288.5 1109,-307.5 1215,-307.5 1215,-288.5 1109,-288.5"/>
<text text-anchor="middle" x="1162" y="-295.5" font-family="Helvetica,sans-Serif" font-size="10.00">Grid::getDistrictByID</text>
</a>
</g>
</g>
<!-- Node2 -->
<g id="node2" class="node">
<title>Node2</title>
<g id="a_node2"><a xlink:href="../../da/df6/class_logic.html#a95e67ed4c9141cbf3efdf6a720993e59" target="_top" xlink:title=" ">
<polygon fill="none" stroke="black" points="750,-316.5 750,-335.5 863,-335.5 863,-316.5 750,-316.5"/>
<text text-anchor="middle" x="806.5" y="-323.5" font-family="Helvetica,sans-Serif" font-size="10.00">Logic::calculateBorder</text>
</a>
</g>
</g>
<!-- Node1&#45;&gt;Node2 -->
<g id="edge1" class="edge">
<title>Node1&#45;&gt;Node2</title>
<path fill="none" stroke="midnightblue" d="M1098.47,-302.95C1031.74,-308.24 927.02,-316.53 863.08,-321.6"/>
<polygon fill="midnightblue" stroke="midnightblue" points="1099.15,-306.41 1108.84,-302.13 1098.59,-299.43 1099.15,-306.41"/>
</g>
<!-- Node9 -->
<g id="node9" class="node">
<title>Node9</title>
<g id="a_node9"><a xlink:href="../../da/df6/class_logic.html#a7399ce3a312128bf723035825d466d89" target="_top" xlink:title=" ">
<polygon fill="none" stroke="black" points="931,-349 931,-379 1073,-379 1073,-349 931,-349"/>
<text text-anchor="start" x="939" y="-367" font-family="Helvetica,sans-Serif" font-size="10.00">Logic::calculateSpontaneous</text>
<text text-anchor="middle" x="1002" y="-356" font-family="Helvetica,sans-Serif" font-size="10.00">Infection</text>
</a>
</g>
</g>
<!-- Node1&#45;&gt;Node9 -->
<g id="edge8" class="edge">
<title>Node1&#45;&gt;Node9</title>
<path fill="none" stroke="midnightblue" d="M1128.62,-311.53C1102.61,-322.39 1066.12,-337.63 1039.17,-348.89"/>
<polygon fill="midnightblue" stroke="midnightblue" points="1130.15,-314.68 1138.03,-307.6 1127.45,-308.22 1130.15,-314.68"/>
</g>
<!-- Node10 -->
<g id="node10" class="node">
<title>Node10</title>
<g id="a_node10"><a xlink:href="../../da/df6/class_logic.html#a7ff7fb2511045df5fe201656025da085" target="_top" xlink:title=" ">
<polygon fill="none" stroke="black" points="931,-261 931,-291 1073,-291 1073,-261 931,-261"/>
<text text-anchor="start" x="939" y="-279" font-family="Helvetica,sans-Serif" font-size="10.00">Logic::calculateSpontaneous</text>
<text text-anchor="middle" x="1002" y="-268" font-family="Helvetica,sans-Serif" font-size="10.00">InfectionLEGACY</text>
</a>
</g>
</g>
<!-- Node1&#45;&gt;Node10 -->
<g id="edge10" class="edge">
<title>Node1&#45;&gt;Node10</title>
<path fill="none" stroke="midnightblue" d="M1098.74,-289.33C1090.34,-288.16 1081.68,-286.96 1073.16,-285.77"/>
<polygon fill="midnightblue" stroke="midnightblue" points="1098.44,-292.82 1108.83,-290.74 1099.41,-285.89 1098.44,-292.82"/>
</g>
<!-- Node11 -->
<g id="node11" class="node">
<title>Node11</title>
<g id="a_node11"><a xlink:href="../../da/d74/class_grid.html#a258fdb0fb8bc7f13cad6637d40a7f20c" target="_top" xlink:title=" ">
<polygon fill="none" stroke="black" points="942.5,-171.5 942.5,-190.5 1061.5,-190.5 1061.5,-171.5 942.5,-171.5"/>
<text text-anchor="middle" x="1002" y="-178.5" font-family="Helvetica,sans-Serif" font-size="10.00">Grid::getDistrictByPoint</text>
</a>
</g>
</g>
<!-- Node1&#45;&gt;Node11 -->
<g id="edge11" class="edge">
<title>Node1&#45;&gt;Node11</title>
<path fill="none" stroke="midnightblue" d="M1139.96,-282.42C1106.83,-257.89 1043.46,-210.96 1016.11,-190.71"/>
<polygon fill="midnightblue" stroke="midnightblue" points="1137.95,-285.29 1148.07,-288.43 1142.12,-279.66 1137.95,-285.29"/>
</g>
<!-- Node3 -->
<g id="node3" class="node">
<title>Node3</title>
<g id="a_node3"><a xlink:href="../../da/df6/class_logic.html#a7ebaa13c8a671d82c669431478524784" target="_top" xlink:title=" ">
<polygon fill="none" stroke="black" points="571.5,-278.5 571.5,-297.5 666.5,-297.5 666.5,-278.5 571.5,-278.5"/>
<text text-anchor="middle" x="619" y="-285.5" font-family="Helvetica,sans-Serif" font-size="10.00">Logic::simulateTO</text>
</a>
</g>
</g>
<!-- Node2&#45;&gt;Node3 -->
<g id="edge2" class="edge">
<title>Node2&#45;&gt;Node3</title>
<path fill="none" stroke="midnightblue" d="M748.83,-314.39C722.44,-308.99 691.45,-302.64 666.47,-297.52"/>
<polygon fill="midnightblue" stroke="midnightblue" points="748.19,-317.83 758.69,-316.41 749.6,-310.98 748.19,-317.83"/>
</g>
<!-- Node4 -->
<g id="node4" class="node">
<title>Node4</title>
<g id="a_node4"><a xlink:href="../../d2/d5c/class_iface.html#ad724ec2c6a2aa884f61de19193affc6a" target="_top" xlink:title=" ">
<polygon fill="none" stroke="black" points="405,-278.5 405,-297.5 520,-297.5 520,-278.5 405,-278.5"/>
<text text-anchor="middle" x="462.5" y="-285.5" font-family="Helvetica,sans-Serif" font-size="10.00">Iface::requestLEGACY</text>
</a>
</g>
</g>
<!-- Node3&#45;&gt;Node4 -->
<g id="edge3" class="edge">
<title>Node3&#45;&gt;Node4</title>
<path fill="none" stroke="midnightblue" d="M561.2,-288C547.83,-288 533.57,-288 520.2,-288"/>
<polygon fill="midnightblue" stroke="midnightblue" points="561.23,-291.5 571.23,-288 561.23,-284.5 561.23,-291.5"/>
</g>
<!-- Node5 -->
<g id="node5" class="node">
<title>Node5</title>
<g id="a_node5"><a xlink:href="../../d2/d5c/class_iface.html#abae0122b800731a979c9f8e4c3a58176" target="_top" xlink:title=" ">
<polygon fill="none" stroke="black" points="429,-196.5 429,-215.5 496,-215.5 496,-196.5 429,-196.5"/>
<text text-anchor="middle" x="462.5" y="-203.5" font-family="Helvetica,sans-Serif" font-size="10.00">Iface::round</text>
</a>
</g>
</g>
<!-- Node3&#45;&gt;Node5 -->
<g id="edge4" class="edge">
<title>Node3&#45;&gt;Node5</title>
<path fill="none" stroke="midnightblue" d="M590.88,-273.6C559.38,-256.89 508.32,-229.79 481.41,-215.51"/>
<polygon fill="midnightblue" stroke="midnightblue" points="589.5,-276.84 599.97,-278.43 592.78,-270.65 589.5,-276.84"/>
</g>
<!-- Node6 -->
<g id="node6" class="node">
<title>Node6</title>
<g id="a_node6"><a xlink:href="../../d2/d5c/class_iface.html#a44e6d0db22abbce5cb8c132e5f1d4284" target="_top" xlink:title=" ">
<polygon fill="none" stroke="black" points="268,-196.5 268,-215.5 330,-215.5 330,-196.5 268,-196.5"/>
<text text-anchor="middle" x="299" y="-203.5" font-family="Helvetica,sans-Serif" font-size="10.00">Iface::start</text>
</a>
</g>
</g>
<!-- Node5&#45;&gt;Node6 -->
<g id="edge5" class="edge">
<title>Node5&#45;&gt;Node6</title>
<path fill="none" stroke="midnightblue" d="M418.56,-206C390.69,-206 355.07,-206 330.18,-206"/>
<polygon fill="midnightblue" stroke="midnightblue" points="418.82,-209.5 428.82,-206 418.82,-202.5 418.82,-209.5"/>
</g>
<!-- Node7 -->
<g id="node7" class="node">
<title>Node7</title>
<g id="a_node7"><a xlink:href="../../dc/d90/class_anti_virus.html#affe3f62a87b880cc964188d9ddb9d562" target="_top" xlink:title=" ">
<polygon fill="none" stroke="black" points="74,-196.5 74,-215.5 193,-215.5 193,-196.5 74,-196.5"/>
<text text-anchor="middle" x="133.5" y="-203.5" font-family="Helvetica,sans-Serif" font-size="10.00">AntiVirus::startInterface</text>
</a>
</g>
</g>
<!-- Node6&#45;&gt;Node7 -->
<g id="edge6" class="edge">
<title>Node6&#45;&gt;Node7</title>
<path fill="none" stroke="midnightblue" d="M257.61,-206C238.18,-206 214.54,-206 193.18,-206"/>
<polygon fill="midnightblue" stroke="midnightblue" points="257.63,-209.5 267.63,-206 257.63,-202.5 257.63,-209.5"/>
</g>
<!-- Node8 -->
<g id="node8" class="node">
<title>Node8</title>
<g id="a_node8"><a xlink:href="../../df/d0a/main_8cpp.html#ae66f6b31b5ad750f1fe042a706a4e3d4" target="_top" xlink:title=" ">
<polygon fill="none" stroke="black" points="0,-196.5 0,-215.5 38,-215.5 38,-196.5 0,-196.5"/>
<text text-anchor="middle" x="19" y="-203.5" font-family="Helvetica,sans-Serif" font-size="10.00">main</text>
</a>
</g>
</g>
<!-- Node7&#45;&gt;Node8 -->
<g id="edge7" class="edge">
<title>Node7&#45;&gt;Node8</title>
<path fill="none" stroke="midnightblue" d="M63.65,-206C54.29,-206 45.43,-206 38.16,-206"/>
<polygon fill="midnightblue" stroke="midnightblue" points="63.94,-209.5 73.94,-206 63.94,-202.5 63.94,-209.5"/>
</g>
<!-- Node9&#45;&gt;Node3 -->
<g id="edge9" class="edge">
<title>Node9&#45;&gt;Node3</title>
<path fill="none" stroke="midnightblue" d="M920.64,-368.25C863.01,-368.99 784.19,-365.25 718,-345 684.31,-334.69 649.82,-310.93 632.12,-297.57"/>
<polygon fill="midnightblue" stroke="midnightblue" points="920.84,-371.74 930.78,-368.07 920.72,-364.75 920.84,-371.74"/>
</g>
<!-- Node11&#45;&gt;Node2 -->
<g id="edge12" class="edge">
<title>Node11&#45;&gt;Node2</title>
<path fill="none" stroke="midnightblue" d="M982.53,-197.81C967.89,-211.52 947.26,-231.7 931,-251 913.13,-272.22 917.71,-286.06 895,-302 885.59,-308.61 874.43,-313.4 863.28,-316.87"/>
<polygon fill="midnightblue" stroke="midnightblue" points="985.03,-200.27 989.98,-190.91 980.27,-195.13 985.03,-200.27"/>
</g>
<!-- Node11&#45;&gt;Node3 -->
<g id="edge27" class="edge">
<title>Node11&#45;&gt;Node3</title>
<path fill="none" stroke="midnightblue" d="M986.33,-198.27C967.56,-219 932.89,-252.87 895,-268 819.43,-298.18 722.95,-297.1 666.67,-292.96"/>
<polygon fill="midnightblue" stroke="midnightblue" points="989.17,-200.35 993.16,-190.53 983.92,-195.72 989.17,-200.35"/>
</g>
<!-- Node12 -->
<g id="node12" class="node">
<title>Node12</title>
<g id="a_node12"><a xlink:href="../../da/d74/class_grid.html#ae16bf4e418d38191c647ef0220fc8606" target="_top" xlink:title=" ">
<polygon fill="none" stroke="black" points="728,-229 728,-259 885,-259 885,-229 728,-229"/>
<text text-anchor="start" x="736" y="-247" font-family="Helvetica,sans-Serif" font-size="10.00">Grid::calculateDistrictProduction</text>
<text text-anchor="middle" x="806.5" y="-236" font-family="Helvetica,sans-Serif" font-size="10.00">Capacity</text>
</a>
</g>
</g>
<!-- Node11&#45;&gt;Node12 -->
<g id="edge13" class="edge">
<title>Node11&#45;&gt;Node12</title>
<path fill="none" stroke="midnightblue" d="M966.3,-194.09C945.7,-201.7 918.99,-211.28 895,-219 884.47,-222.39 873.16,-225.79 862.28,-228.95"/>
<polygon fill="midnightblue" stroke="midnightblue" points="967.73,-197.29 975.89,-190.53 965.29,-190.73 967.73,-197.29"/>
</g>
<!-- Node13 -->
<g id="node13" class="node">
<title>Node13</title>
<g id="a_node13"><a xlink:href="../../d9/d64/class_a_i.html#a6afa7ebeca7011cfffbc5a0df60c112f" target="_top" xlink:title=" ">
<polygon fill="none" stroke="black" points="556,-174.5 556,-193.5 682,-193.5 682,-174.5 556,-174.5"/>
<text text-anchor="middle" x="619" y="-181.5" font-family="Helvetica,sans-Serif" font-size="10.00">AI::calculatePutVaccines</text>
</a>
</g>
</g>
<!-- Node11&#45;&gt;Node13 -->
<g id="edge15" class="edge">
<title>Node11&#45;&gt;Node13</title>
<path fill="none" stroke="midnightblue" d="M932.43,-180.41C875.12,-180.06 791.22,-179.88 718,-181 706.43,-181.18 694.09,-181.47 682.2,-181.81"/>
<polygon fill="midnightblue" stroke="midnightblue" points="932.44,-183.91 942.46,-180.48 932.48,-176.91 932.44,-183.91"/>
</g>
<!-- Node14 -->
<g id="node14" class="node">
<title>Node14</title>
<g id="a_node14"><a xlink:href="../../d9/dbf/class_window.html#a3d7f68f2fe4c1e7d787353b056090ea4" target="_top" xlink:title=" ">
<polygon fill="none" stroke="black" points="718,-0.5 718,-19.5 895,-19.5 895,-0.5 718,-0.5"/>
<text text-anchor="middle" x="806.5" y="-7.5" font-family="Helvetica,sans-Serif" font-size="10.00">Window::createAcquiredDistrictsMap</text>
</a>
</g>
</g>
<!-- Node11&#45;&gt;Node14 -->
<g id="edge17" class="edge">
<title>Node11&#45;&gt;Node14</title>
<path fill="none" stroke="midnightblue" d="M993.32,-161.93C979.12,-129.21 945.49,-62.65 895,-29 889.18,-25.12 882.7,-22.02 875.98,-19.54"/>
<polygon fill="midnightblue" stroke="midnightblue" points="990.15,-163.42 997.25,-171.28 996.61,-160.71 990.15,-163.42"/>
</g>
<!-- Node16 -->
<g id="node16" class="node">
<title>Node16</title>
<g id="a_node16"><a xlink:href="../../d9/dbf/class_window.html#a59515fc5a56e86d5a46d771595daac55" target="_top" xlink:title=" ">
<polygon fill="none" stroke="black" points="419.5,-57.5 419.5,-76.5 505.5,-76.5 505.5,-57.5 419.5,-57.5"/>
<text text-anchor="middle" x="462.5" y="-64.5" font-family="Helvetica,sans-Serif" font-size="10.00">Window::update</text>
</a>
</g>
</g>
<!-- Node11&#45;&gt;Node16 -->
<g id="edge28" class="edge">
<title>Node11&#45;&gt;Node16</title>
<path fill="none" stroke="midnightblue" d="M984.07,-164.35C964.46,-146.23 930.3,-118.08 895,-105 824.31,-78.8 599.66,-70.33 505.58,-67.89"/>
<polygon fill="midnightblue" stroke="midnightblue" points="981.87,-167.1 991.54,-171.43 986.69,-162.01 981.87,-167.1"/>
</g>
<!-- Node18 -->
<g id="node18" class="node">
<title>Node18</title>
<g id="a_node18"><a xlink:href="../../d9/dbf/class_window.html#a3cf04a74c49b1871b64436ef60fedc87" target="_top" xlink:title=" ">
<polygon fill="none" stroke="black" points="741,-38.5 741,-57.5 872,-57.5 872,-38.5 741,-38.5"/>
<text text-anchor="middle" x="806.5" y="-45.5" font-family="Helvetica,sans-Serif" font-size="10.00">Window::createDistrictCell</text>
</a>
</g>
</g>
<!-- Node11&#45;&gt;Node18 -->
<g id="edge21" class="edge">
<title>Node11&#45;&gt;Node18</title>
<path fill="none" stroke="midnightblue" d="M988.54,-163.2C970.64,-138.94 935.31,-95.81 895,-72 884.42,-65.75 872.17,-61.08 860.24,-57.61"/>
<polygon fill="midnightblue" stroke="midnightblue" points="985.84,-165.43 994.53,-171.49 991.51,-161.33 985.84,-165.43"/>
</g>
<!-- Node19 -->
<g id="node19" class="node">
<title>Node19</title>
<g id="a_node19"><a xlink:href="../../d2/d5c/class_iface.html#a42712663a207dad0227b8fc592c7046b" target="_top" xlink:title=" ">
<polygon fill="none" stroke="black" points="762.5,-114.5 762.5,-133.5 850.5,-133.5 850.5,-114.5 762.5,-114.5"/>
<text text-anchor="middle" x="806.5" y="-121.5" font-family="Helvetica,sans-Serif" font-size="10.00">Iface::createGrid</text>
</a>
</g>
</g>
<!-- Node11&#45;&gt;Node19 -->
<g id="edge23" class="edge">
<title>Node11&#45;&gt;Node19</title>
<path fill="none" stroke="midnightblue" d="M961.71,-168.42C941.78,-162.12 917.15,-154.48 895,-148 878.07,-143.04 859.2,-137.83 843.34,-133.53"/>
<polygon fill="midnightblue" stroke="midnightblue" points="960.79,-171.8 971.38,-171.48 962.91,-165.13 960.79,-171.8"/>
</g>
<!-- Node22 -->
<g id="node22" class="node">
<title>Node22</title>
<g id="a_node22"><a xlink:href="../../da/d74/class_grid.html#aec7885d1f815b35b32ec7a605f714acd" target="_top" xlink:title=" ">
<polygon fill="none" stroke="black" points="765.5,-190.5 765.5,-209.5 847.5,-209.5 847.5,-190.5 765.5,-190.5"/>
<text text-anchor="middle" x="806.5" y="-197.5" font-family="Helvetica,sans-Serif" font-size="10.00">Grid::operator=</text>
</a>
</g>
</g>
<!-- Node11&#45;&gt;Node22 -->
<g id="edge26" class="edge">
<title>Node11&#45;&gt;Node22</title>
<path fill="none" stroke="midnightblue" d="M932.15,-187.76C903.78,-190.55 871.91,-193.68 847.5,-196.07"/>
<polygon fill="midnightblue" stroke="midnightblue" points="932.81,-191.21 942.42,-186.75 932.12,-184.25 932.81,-191.21"/>
</g>
<!-- Node12&#45;&gt;Node3 -->
<g id="edge14" class="edge">
<title>Node12&#45;&gt;Node3</title>
<path fill="none" stroke="midnightblue" d="M732.16,-261.4C707.6,-267.22 681.15,-273.5 660.1,-278.49"/>
<polygon fill="midnightblue" stroke="midnightblue" points="733.26,-264.73 742.18,-259.02 731.64,-257.92 733.26,-264.73"/>
</g>
<!-- Node13&#45;&gt;Node5 -->
<g id="edge16" class="edge">
<title>Node13&#45;&gt;Node5</title>
<path fill="none" stroke="midnightblue" d="M545.54,-194.32C528.34,-196.77 510.82,-199.26 496.42,-201.31"/>
<polygon fill="midnightblue" stroke="midnightblue" points="546.2,-197.76 555.6,-192.88 545.21,-190.83 546.2,-197.76"/>
</g>
<!-- Node15 -->
<g id="node15" class="node">
<title>Node15</title>
<g id="a_node15"><a xlink:href="../../d9/dbf/class_window.html#a613473425472a8fa471f2cbd4926aa2e" target="_top" xlink:title=" ">
<polygon fill="none" stroke="black" points="568,-38.5 568,-57.5 670,-57.5 670,-38.5 568,-38.5"/>
<text text-anchor="middle" x="619" y="-45.5" font-family="Helvetica,sans-Serif" font-size="10.00">Window::createGrid</text>
</a>
</g>
</g>
<!-- Node14&#45;&gt;Node15 -->
<g id="edge18" class="edge">
<title>Node14&#45;&gt;Node15</title>
<path fill="none" stroke="midnightblue" d="M748.83,-21.61C722.44,-27.01 691.45,-33.36 666.47,-38.48"/>
<polygon fill="midnightblue" stroke="midnightblue" points="749.6,-25.02 758.69,-19.59 748.19,-18.17 749.6,-25.02"/>
</g>
<!-- Node15&#45;&gt;Node16 -->
<g id="edge19" class="edge">
<title>Node15&#45;&gt;Node16</title>
<path fill="none" stroke="midnightblue" d="M557.75,-55.41C540.34,-57.55 521.71,-59.84 505.65,-61.82"/>
<polygon fill="midnightblue" stroke="midnightblue" points="558.34,-58.86 567.84,-54.17 557.49,-51.92 558.34,-58.86"/>
</g>
<!-- Node17 -->
<g id="node17" class="node">
<title>Node17</title>
<g id="a_node17"><a xlink:href="../../d0/d85/class_visualization.html#a83a40506ae13f42fefad3449d644909a" target="_top" xlink:title=" ">
<polygon fill="none" stroke="black" points="229,-52 229,-82 369,-82 369,-52 229,-52"/>
<text text-anchor="start" x="237" y="-70" font-family="Helvetica,sans-Serif" font-size="10.00">Visualization::displayCurrent</text>
<text text-anchor="middle" x="299" y="-59" font-family="Helvetica,sans-Serif" font-size="10.00">Round</text>
</a>
</g>
</g>
<!-- Node16&#45;&gt;Node17 -->
<g id="edge20" class="edge">
<title>Node16&#45;&gt;Node17</title>
<path fill="none" stroke="midnightblue" d="M409.43,-67C396.55,-67 382.56,-67 369.01,-67"/>
<polygon fill="midnightblue" stroke="midnightblue" points="409.49,-70.5 419.49,-67 409.49,-63.5 409.49,-70.5"/>
</g>
<!-- Node18&#45;&gt;Node15 -->
<g id="edge22" class="edge">
<title>Node18&#45;&gt;Node15</title>
<path fill="none" stroke="midnightblue" d="M730.67,-48C710.29,-48 688.71,-48 670.07,-48"/>
<polygon fill="midnightblue" stroke="midnightblue" points="730.88,-51.5 740.88,-48 730.88,-44.5 730.88,-51.5"/>
</g>
<!-- Node20 -->
<g id="node20" class="node">
<title>Node20</title>
<g id="a_node20"><a xlink:href="../../d2/d5c/class_iface.html#a6afe73763b17570a7a884ffeca597c0e" target="_top" xlink:title=" ">
<polygon fill="none" stroke="black" points="571.5,-114.5 571.5,-133.5 666.5,-133.5 666.5,-114.5 571.5,-114.5"/>
<text text-anchor="middle" x="619" y="-121.5" font-family="Helvetica,sans-Serif" font-size="10.00">Iface::initAntiVirus</text>
</a>
</g>
</g>
<!-- Node19&#45;&gt;Node20 -->
<g id="edge24" class="edge">
<title>Node19&#45;&gt;Node20</title>
<path fill="none" stroke="midnightblue" d="M752.41,-124C725.36,-124 692.77,-124 666.69,-124"/>
<polygon fill="midnightblue" stroke="midnightblue" points="752.48,-127.5 762.48,-124 752.48,-120.5 752.48,-127.5"/>
</g>
<!-- Node21 -->
<g id="node21" class="node">
<title>Node21</title>
<g id="a_node21"><a xlink:href="../../dc/d90/class_anti_virus.html#a3b3aed962d274c4333a8c9ac191816a0" target="_top" xlink:title=" ">
<polygon fill="none" stroke="black" points="411.5,-114.5 411.5,-133.5 513.5,-133.5 513.5,-114.5 411.5,-114.5"/>
<text text-anchor="middle" x="462.5" y="-121.5" font-family="Helvetica,sans-Serif" font-size="10.00">AntiVirus::AntiVirus</text>
</a>
</g>
</g>
<!-- Node20&#45;&gt;Node21 -->
<g id="edge25" class="edge">
<title>Node20&#45;&gt;Node21</title>
<path fill="none" stroke="midnightblue" d="M561.18,-124C545.59,-124 528.79,-124 513.61,-124"/>
<polygon fill="midnightblue" stroke="midnightblue" points="561.23,-127.5 571.23,-124 561.23,-120.5 561.23,-127.5"/>
</g>
</g>
</svg>
