<?xml version="1.0" encoding="UTF-8" standalone="no"?>
<!DOCTYPE svg PUBLIC "-//W3C//DTD SVG 1.1//EN"
 "http://www.w3.org/Graphics/SVG/1.1/DTD/svg11.dtd">
<!-- Generated by graphviz version 2.44.1 (20200629.0846)
 -->
<!-- Title: Grid::addCountry Pages: 1 -->
<svg width="279pt" height="116pt"
 viewBox="0.00 0.00 279.00 115.50" xmlns="http://www.w3.org/2000/svg" xmlns:xlink="http://www.w3.org/1999/xlink">
<g id="graph0" class="graph" transform="scale(1 1) rotate(0) translate(4 111.5)">
<title>Grid::addCountry</title>
<!-- Node1 -->
<g id="node1" class="node">
<title>Node1</title>
<g id="a_node1"><a xlink:title=" ">
<polygon fill="#bfbfbf" stroke="black" points="0,-50 0,-69 90,-69 90,-50 0,-50"/>
<text text-anchor="middle" x="45" y="-57" font-family="Helvetica,sans-Serif" font-size="10.00">Grid::addCountry</text>
</a>
</g>
</g>
<!-- Node2 -->
<g id="node2" class="node">
<title>Node2</title>
<g id="a_node2"><a xlink:href="../../d3/d56/class_country.html#a585e0db86044e616bafa0a0f563ee68f" target="_top" xlink:title=" ">
<polygon fill="none" stroke="black" points="142,-88 142,-107 255,-107 255,-88 142,-88"/>
<text text-anchor="middle" x="198.5" y="-95" font-family="Helvetica,sans-Serif" font-size="10.00">Country::getCountryID</text>
</a>
</g>
</g>
<!-- Node1&#45;&gt;Node2 -->
<g id="edge1" class="edge">
<title>Node1&#45;&gt;Node2</title>
<path fill="none" stroke="midnightblue" d="M84.23,-69.09C104.13,-74.08 128.66,-80.23 149.79,-85.53"/>
<polygon fill="midnightblue" stroke="midnightblue" points="148.99,-88.94 159.55,-87.98 150.7,-82.15 148.99,-88.94"/>
</g>
<!-- Node3 -->
<g id="node3" class="node">
<title>Node3</title>
<g id="a_node3"><a xlink:href="../../d3/d56/class_country.html#a9a46612a5cee07fe7275552dd4a4bd36" target="_top" xlink:title=" ">
<polygon fill="none" stroke="black" points="126,-50 126,-69 271,-69 271,-50 126,-50"/>
<text text-anchor="middle" x="198.5" y="-57" font-family="Helvetica,sans-Serif" font-size="10.00">Country::getReserveVaccines</text>
</a>
</g>
</g>
<!-- Node1&#45;&gt;Node3 -->
<g id="edge2" class="edge">
<title>Node1&#45;&gt;Node3</title>
<path fill="none" stroke="midnightblue" d="M90.23,-59.5C98.26,-59.5 106.87,-59.5 115.59,-59.5"/>
<polygon fill="midnightblue" stroke="midnightblue" points="115.85,-63 125.85,-59.5 115.85,-56 115.85,-63"/>
</g>
<!-- Node4 -->
<g id="node4" class="node">
<title>Node4</title>
<g id="a_node4"><a xlink:href="../../d3/d56/class_country.html#a4649630394770028c46cb3d2dab48675" target="_top" xlink:title=" ">
<polygon fill="none" stroke="black" points="130,-0.5 130,-30.5 267,-30.5 267,-0.5 130,-0.5"/>
<text text-anchor="start" x="138" y="-18.5" font-family="Helvetica,sans-Serif" font-size="10.00">Country::getTotalProduction</text>
<text text-anchor="middle" x="198.5" y="-7.5" font-family="Helvetica,sans-Serif" font-size="10.00">Capacity</text>
</a>
</g>
</g>
<!-- Node1&#45;&gt;Node4 -->
<g id="edge3" class="edge">
<title>Node1&#45;&gt;Node4</title>
<path fill="none" stroke="midnightblue" d="M78.87,-49.95C95.55,-45.11 116.36,-39.07 135.87,-33.4"/>
<polygon fill="midnightblue" stroke="midnightblue" points="137,-36.72 145.63,-30.57 135.05,-29.99 137,-36.72"/>
</g>
</g>
</svg>
