<?xml version="1.0" encoding="UTF-8" standalone="no"?>
<!DOCTYPE svg PUBLIC "-//W3C//DTD SVG 1.1//EN"
 "http://www.w3.org/Graphics/SVG/1.1/DTD/svg11.dtd">
<!-- Generated by graphviz version 2.44.1 (20200629.0846)
 -->
<!-- Title: Grid::getFieldByID Pages: 1 -->
<svg width="1455pt" height="877pt"
 viewBox="0.00 0.00 1455.00 876.84" xmlns="http://www.w3.org/2000/svg" xmlns:xlink="http://www.w3.org/1999/xlink">
<g id="graph0" class="graph" transform="scale(1 1) rotate(0) translate(4 872.84)">
<title>Grid::getFieldByID</title>
<!-- Node1 -->
<g id="node1" class="node">
<title>Node1</title>
<g id="a_node1"><a xlink:title=" ">
<polygon fill="#bfbfbf" stroke="black" points="1351,-454 1351,-473 1447,-473 1447,-454 1351,-454"/>
<text text-anchor="middle" x="1399" y="-461" font-family="Helvetica,sans-Serif" font-size="10.00">Grid::getFieldByID</text>
</a>
</g>
</g>
<!-- Node2 -->
<g id="node2" class="node">
<title>Node2</title>
<g id="a_node2"><a xlink:href="../../d2/d5b/class_graph_algos.html#a05980a7c241d7f0c6d4356e6210df1e2" target="_top" xlink:title=" ">
<polygon fill="none" stroke="black" points="1183,-663 1183,-682 1295,-682 1295,-663 1183,-663"/>
<text text-anchor="middle" x="1239" y="-670" font-family="Helvetica,sans-Serif" font-size="10.00">GraphAlgos::calcPath</text>
</a>
</g>
</g>
<!-- Node1&#45;&gt;Node2 -->
<g id="edge1" class="edge">
<title>Node1&#45;&gt;Node2</title>
<path fill="none" stroke="midnightblue" d="M1384.74,-481.04C1352.7,-523.43 1271.88,-630.33 1247.24,-662.92"/>
<polygon fill="midnightblue" stroke="midnightblue" points="1387.56,-483.11 1390.8,-473.02 1381.98,-478.89 1387.56,-483.11"/>
</g>
<!-- Node4 -->
<g id="node4" class="node">
<title>Node4</title>
<g id="a_node4"><a xlink:href="../../d0/d85/class_visualization.html#a83a40506ae13f42fefad3449d644909a" target="_top" xlink:title=" ">
<polygon fill="none" stroke="black" points="229,-483.5 229,-513.5 369,-513.5 369,-483.5 229,-483.5"/>
<text text-anchor="start" x="237" y="-501.5" font-family="Helvetica,sans-Serif" font-size="10.00">Visualization::displayCurrent</text>
<text text-anchor="middle" x="299" y="-490.5" font-family="Helvetica,sans-Serif" font-size="10.00">Round</text>
</a>
</g>
</g>
<!-- Node1&#45;&gt;Node4 -->
<g id="edge3" class="edge">
<title>Node1&#45;&gt;Node4</title>
<path fill="none" stroke="midnightblue" d="M1394.38,-483.45C1386.07,-525.2 1362.56,-623.52 1315,-691.5 1230.38,-812.44 1181.6,-868.5 1034,-868.5 1034,-868.5 1034,-868.5 622,-868.5 520.52,-868.5 471.8,-873.89 405,-797.5 346.98,-731.16 402.03,-684.21 369,-602.5 355.03,-567.95 328.69,-532.88 312.9,-513.58"/>
<polygon fill="midnightblue" stroke="midnightblue" points="1397.85,-483.94 1396.29,-473.46 1390.97,-482.63 1397.85,-483.94"/>
</g>
<!-- Node5 -->
<g id="node5" class="node">
<title>Node5</title>
<g id="a_node5"><a xlink:href="../../d6/dcc/class_protocol.html#aa1fc30a5134e08b800865f53a14708a6" target="_top" xlink:title=" ">
<polygon fill="none" stroke="black" points="1180.5,-416 1180.5,-435 1297.5,-435 1297.5,-416 1180.5,-416"/>
<text text-anchor="middle" x="1239" y="-423" font-family="Helvetica,sans-Serif" font-size="10.00">Protocol::displayResult</text>
</a>
</g>
</g>
<!-- Node1&#45;&gt;Node5 -->
<g id="edge4" class="edge">
<title>Node1&#45;&gt;Node5</title>
<path fill="none" stroke="midnightblue" d="M1348.24,-451.53C1326.1,-446.21 1300.39,-440.02 1279.58,-435.02"/>
<polygon fill="midnightblue" stroke="midnightblue" points="1347.59,-454.98 1358.13,-453.91 1349.23,-448.17 1347.59,-454.98"/>
</g>
<!-- Node6 -->
<g id="node6" class="node">
<title>Node6</title>
<g id="a_node6"><a xlink:href="../../da/d74/class_grid.html#aff3d5bc3ea4e8da08e0a78d7f73f0084" target="_top" xlink:title=" ">
<polygon fill="none" stroke="black" points="1184,-454 1184,-473 1294,-473 1294,-454 1184,-454"/>
<text text-anchor="middle" x="1239" y="-461" font-family="Helvetica,sans-Serif" font-size="10.00">Grid::getFieldByPoint</text>
</a>
</g>
</g>
<!-- Node1&#45;&gt;Node6 -->
<g id="edge5" class="edge">
<title>Node1&#45;&gt;Node6</title>
<path fill="none" stroke="midnightblue" d="M1340.33,-463.5C1325.21,-463.5 1308.95,-463.5 1294.02,-463.5"/>
<polygon fill="midnightblue" stroke="midnightblue" points="1340.59,-467 1350.59,-463.5 1340.59,-460 1340.59,-467"/>
</g>
<!-- Node37 -->
<g id="node37" class="node">
<title>Node37</title>
<g id="a_node37"><a xlink:href="../../d7/d8b/class_graphics.html#ac8f2a0735ce7724a2b76718029201269" target="_top" xlink:title=" ">
<polygon fill="none" stroke="black" points="1163,-192 1163,-211 1315,-211 1315,-192 1163,-192"/>
<text text-anchor="middle" x="1239" y="-199" font-family="Helvetica,sans-Serif" font-size="10.00">Graphics::terminalGraphicsRun</text>
</a>
</g>
</g>
<!-- Node1&#45;&gt;Node37 -->
<g id="edge59" class="edge">
<title>Node1&#45;&gt;Node37</title>
<path fill="none" stroke="midnightblue" d="M1386.93,-445.14C1355.97,-393.81 1269.23,-249.98 1245.86,-211.22"/>
<polygon fill="midnightblue" stroke="midnightblue" points="1384.03,-447.11 1392.19,-453.86 1390.02,-443.49 1384.03,-447.11"/>
</g>
<!-- Node3 -->
<g id="node3" class="node">
<title>Node3</title>
<g id="a_node3"><a xlink:href="../../d2/d5b/class_graph_algos.html#af00f038c0816aca536aacf698936a029" target="_top" xlink:title=" ">
<polygon fill="none" stroke="black" points="980.5,-821 980.5,-840 1085.5,-840 1085.5,-821 980.5,-821"/>
<text text-anchor="middle" x="1033" y="-828" font-family="Helvetica,sans-Serif" font-size="10.00">GraphAlgos::dijkstra</text>
</a>
</g>
</g>
<!-- Node2&#45;&gt;Node3 -->
<g id="edge2" class="edge">
<title>Node2&#45;&gt;Node3</title>
<path fill="none" stroke="midnightblue" d="M1228.03,-690.75C1211.17,-719.86 1174.2,-776.53 1127,-806.5 1114.61,-814.37 1099.75,-819.66 1085.58,-823.22"/>
<polygon fill="midnightblue" stroke="midnightblue" points="1231.09,-692.45 1232.96,-682.02 1225,-689.01 1231.09,-692.45"/>
</g>
<!-- Node6&#45;&gt;Node3 -->
<g id="edge40" class="edge">
<title>Node6&#45;&gt;Node3</title>
<path fill="none" stroke="midnightblue" d="M1229.49,-482.37C1214.5,-516.14 1183.08,-589.4 1163,-653.5 1142.12,-720.16 1175.86,-756.58 1127,-806.5 1116.15,-817.58 1100.91,-823.78 1085.9,-827.18"/>
<polygon fill="midnightblue" stroke="midnightblue" points="1232.7,-483.77 1233.58,-473.21 1226.31,-480.91 1232.7,-483.77"/>
</g>
<!-- Node7 -->
<g id="node7" class="node">
<title>Node7</title>
<g id="a_node7"><a xlink:href="../../da/d74/class_grid.html#ae16bf4e418d38191c647ef0220fc8606" target="_top" xlink:title=" ">
<polygon fill="none" stroke="black" points="736,-543.5 736,-573.5 893,-573.5 893,-543.5 736,-543.5"/>
<text text-anchor="start" x="744" y="-561.5" font-family="Helvetica,sans-Serif" font-size="10.00">Grid::calculateDistrictProduction</text>
<text text-anchor="middle" x="814.5" y="-550.5" font-family="Helvetica,sans-Serif" font-size="10.00">Capacity</text>
</a>
</g>
</g>
<!-- Node6&#45;&gt;Node7 -->
<g id="edge6" class="edge">
<title>Node6&#45;&gt;Node7</title>
<path fill="none" stroke="midnightblue" d="M1214.74,-478.55C1192.97,-491.86 1159.07,-510.65 1127,-520.5 1049.66,-544.25 957.23,-553.23 893.24,-556.59"/>
<polygon fill="midnightblue" stroke="midnightblue" points="1216.65,-481.48 1223.28,-473.22 1212.95,-475.54 1216.65,-481.48"/>
</g>
<!-- Node8 -->
<g id="node8" class="node">
<title>Node8</title>
<g id="a_node8"><a xlink:href="../../da/df6/class_logic.html#a7ebaa13c8a671d82c669431478524784" target="_top" xlink:title=" ">
<polygon fill="none" stroke="black" points="575.5,-593 575.5,-612 670.5,-612 670.5,-593 575.5,-593"/>
<text text-anchor="middle" x="623" y="-600" font-family="Helvetica,sans-Serif" font-size="10.00">Logic::simulateTO</text>
</a>
</g>
</g>
<!-- Node6&#45;&gt;Node8 -->
<g id="edge56" class="edge">
<title>Node6&#45;&gt;Node8</title>
<path fill="none" stroke="midnightblue" d="M1222.3,-480.6C1202.32,-501.16 1165.73,-534.95 1127,-551.5 970.42,-618.43 762.29,-613.21 670.67,-606.75"/>
<polygon fill="midnightblue" stroke="midnightblue" points="1224.99,-482.85 1229.34,-473.19 1219.92,-478.02 1224.99,-482.85"/>
</g>
<!-- Node14 -->
<g id="node14" class="node">
<title>Node14</title>
<g id="a_node14"><a xlink:href="../../da/df6/class_logic.html#acf435c045c675cb3ad14f7bf8732940e" target="_top" xlink:title=" ">
<polygon fill="none" stroke="black" points="743.5,-631.5 743.5,-661.5 885.5,-661.5 885.5,-631.5 743.5,-631.5"/>
<text text-anchor="start" x="751.5" y="-649.5" font-family="Helvetica,sans-Serif" font-size="10.00">Logic::calculateSpontaneous</text>
<text text-anchor="middle" x="814.5" y="-638.5" font-family="Helvetica,sans-Serif" font-size="10.00">Healing</text>
</a>
</g>
</g>
<!-- Node6&#45;&gt;Node14 -->
<g id="edge13" class="edge">
<title>Node6&#45;&gt;Node14</title>
<path fill="none" stroke="midnightblue" d="M1230.35,-482.86C1215.86,-516.63 1180.98,-585.62 1127,-616.5 1052.84,-658.92 952.25,-660.55 885.69,-655.49"/>
<polygon fill="midnightblue" stroke="midnightblue" points="1233.74,-483.81 1234.33,-473.23 1227.27,-481.13 1233.74,-483.81"/>
</g>
<!-- Node15 -->
<g id="node15" class="node">
<title>Node15</title>
<g id="a_node15"><a xlink:href="../../da/df6/class_logic.html#a1a2ddbd7540b8ede1bcc7976d31f9836" target="_top" xlink:title=" ">
<polygon fill="none" stroke="black" points="962,-366.5 962,-396.5 1104,-396.5 1104,-366.5 962,-366.5"/>
<text text-anchor="start" x="970" y="-384.5" font-family="Helvetica,sans-Serif" font-size="10.00">Logic::calculateSpontaneous</text>
<text text-anchor="middle" x="1033" y="-373.5" font-family="Helvetica,sans-Serif" font-size="10.00">HealingLEGACY</text>
</a>
</g>
</g>
<!-- Node6&#45;&gt;Node15 -->
<g id="edge15" class="edge">
<title>Node6&#45;&gt;Node15</title>
<path fill="none" stroke="midnightblue" d="M1174.76,-450.32C1170.68,-448.61 1166.72,-446.68 1163,-444.5 1142.93,-432.73 1146.98,-418.41 1127,-406.5 1119.96,-402.31 1112.21,-398.8 1104.28,-395.88"/>
<polygon fill="midnightblue" stroke="midnightblue" points="1173.88,-453.72 1184.47,-453.93 1176.32,-447.16 1173.88,-453.72"/>
</g>
<!-- Node16 -->
<g id="node16" class="node">
<title>Node16</title>
<g id="a_node16"><a xlink:href="../../da/df6/class_logic.html#a7399ce3a312128bf723035825d466d89" target="_top" xlink:title=" ">
<polygon fill="none" stroke="black" points="743.5,-719.5 743.5,-749.5 885.5,-749.5 885.5,-719.5 743.5,-719.5"/>
<text text-anchor="start" x="751.5" y="-737.5" font-family="Helvetica,sans-Serif" font-size="10.00">Logic::calculateSpontaneous</text>
<text text-anchor="middle" x="814.5" y="-726.5" font-family="Helvetica,sans-Serif" font-size="10.00">Infection</text>
</a>
</g>
</g>
<!-- Node6&#45;&gt;Node16 -->
<g id="edge16" class="edge">
<title>Node6&#45;&gt;Node16</title>
<path fill="none" stroke="midnightblue" d="M1231.2,-482.62C1213.21,-532.04 1163.33,-662.04 1127,-688.5 1089.61,-715.74 965.5,-727.07 885.69,-731.62"/>
<polygon fill="midnightblue" stroke="midnightblue" points="1234.52,-483.7 1234.62,-473.11 1227.94,-481.33 1234.52,-483.7"/>
</g>
<!-- Node17 -->
<g id="node17" class="node">
<title>Node17</title>
<g id="a_node17"><a xlink:href="../../da/df6/class_logic.html#a7ff7fb2511045df5fe201656025da085" target="_top" xlink:title=" ">
<polygon fill="none" stroke="black" points="962,-88.5 962,-118.5 1104,-118.5 1104,-88.5 962,-88.5"/>
<text text-anchor="start" x="970" y="-106.5" font-family="Helvetica,sans-Serif" font-size="10.00">Logic::calculateSpontaneous</text>
<text text-anchor="middle" x="1033" y="-95.5" font-family="Helvetica,sans-Serif" font-size="10.00">InfectionLEGACY</text>
</a>
</g>
</g>
<!-- Node6&#45;&gt;Node17 -->
<g id="edge18" class="edge">
<title>Node6&#45;&gt;Node17</title>
<path fill="none" stroke="midnightblue" d="M1174.57,-453.88C1170.25,-451.37 1166.31,-448.28 1163,-444.5 1070,-338.05 1219.23,-235.62 1127,-128.5 1120.89,-121.4 1113.01,-116.22 1104.41,-112.44"/>
<polygon fill="midnightblue" stroke="midnightblue" points="1173.34,-457.17 1183.88,-458.25 1176.32,-450.83 1173.34,-457.17"/>
</g>
<!-- Node18 -->
<g id="node18" class="node">
<title>Node18</title>
<g id="a_node18"><a xlink:href="../../da/df6/class_logic.html#ac8b8a4faa67a5f1868371796c9d5f3c2" target="_top" xlink:title=" ">
<polygon fill="none" stroke="black" points="746.5,-681 746.5,-700 882.5,-700 882.5,-681 746.5,-681"/>
<text text-anchor="middle" x="814.5" y="-688" font-family="Helvetica,sans-Serif" font-size="10.00">Logic::calculateVaccination</text>
</a>
</g>
</g>
<!-- Node6&#45;&gt;Node18 -->
<g id="edge19" class="edge">
<title>Node6&#45;&gt;Node18</title>
<path fill="none" stroke="midnightblue" d="M1232.73,-483.16C1221.05,-522.54 1188.98,-610.81 1127,-651.5 1053.88,-699.51 950,-702.65 882.68,-698.31"/>
<polygon fill="midnightblue" stroke="midnightblue" points="1236.13,-484 1235.49,-473.43 1229.39,-482.09 1236.13,-484"/>
</g>
<!-- Node19 -->
<g id="node19" class="node">
<title>Node19</title>
<g id="a_node19"><a xlink:href="../../d9/dbf/class_window.html#a3d7f68f2fe4c1e7d787353b056090ea4" target="_top" xlink:title=" ">
<polygon fill="none" stroke="black" points="726,-353 726,-372 903,-372 903,-353 726,-353"/>
<text text-anchor="middle" x="814.5" y="-360" font-family="Helvetica,sans-Serif" font-size="10.00">Window::createAcquiredDistrictsMap</text>
</a>
</g>
</g>
<!-- Node6&#45;&gt;Node19 -->
<g id="edge21" class="edge">
<title>Node6&#45;&gt;Node19</title>
<path fill="none" stroke="midnightblue" d="M1180.32,-474.59C1116.53,-483.68 1012.98,-488.79 939,-444.5 912.97,-428.92 927.31,-404.66 903,-386.5 894.54,-380.18 884.52,-375.53 874.33,-372.1"/>
<polygon fill="midnightblue" stroke="midnightblue" points="1181.23,-477.99 1190.6,-473.04 1180.19,-471.07 1181.23,-477.99"/>
</g>
<!-- Node22 -->
<g id="node22" class="node">
<title>Node22</title>
<g id="a_node22"><a xlink:href="../../d9/dbf/class_window.html#a3cf04a74c49b1871b64436ef60fedc87" target="_top" xlink:title=" ">
<polygon fill="none" stroke="black" points="749,-163 749,-182 880,-182 880,-163 749,-163"/>
<text text-anchor="middle" x="814.5" y="-170" font-family="Helvetica,sans-Serif" font-size="10.00">Window::createDistrictCell</text>
</a>
</g>
</g>
<!-- Node6&#45;&gt;Node22 -->
<g id="edge25" class="edge">
<title>Node6&#45;&gt;Node22</title>
<path fill="none" stroke="midnightblue" d="M1174.51,-453.63C1170.23,-451.17 1166.32,-448.17 1163,-444.5 1090.61,-364.54 1205.02,-278.97 1127,-204.5 1092.74,-171.8 960.8,-168.79 880.03,-170.2"/>
<polygon fill="midnightblue" stroke="midnightblue" points="1173.16,-456.86 1183.7,-457.94 1176.13,-450.52 1173.16,-456.86"/>
</g>
<!-- Node23 -->
<g id="node23" class="node">
<title>Node23</title>
<g id="a_node23"><a xlink:href="../../d2/d5c/class_iface.html#a42712663a207dad0227b8fc592c7046b" target="_top" xlink:title=" ">
<polygon fill="none" stroke="black" points="770.5,-769 770.5,-788 858.5,-788 858.5,-769 770.5,-769"/>
<text text-anchor="middle" x="814.5" y="-776" font-family="Helvetica,sans-Serif" font-size="10.00">Iface::createGrid</text>
</a>
</g>
</g>
<!-- Node6&#45;&gt;Node23 -->
<g id="edge27" class="edge">
<title>Node6&#45;&gt;Node23</title>
<path fill="none" stroke="midnightblue" d="M1230.28,-482.79C1206.79,-541.33 1137.12,-713.44 1127,-721.5 1086.15,-754.05 934.35,-769.68 858.79,-775.58"/>
<polygon fill="midnightblue" stroke="midnightblue" points="1233.63,-483.83 1234.11,-473.25 1227.14,-481.23 1233.63,-483.83"/>
</g>
<!-- Node26 -->
<g id="node26" class="node">
<title>Node26</title>
<g id="a_node26"><a xlink:href="../../d9/dbf/class_window.html#a64c006506fe02aaabd214abef651d87d" target="_top" xlink:title=" ">
<polygon fill="none" stroke="black" points="953.5,-138 953.5,-157 1112.5,-157 1112.5,-138 953.5,-138"/>
<text text-anchor="middle" x="1033" y="-145" font-family="Helvetica,sans-Serif" font-size="10.00">Window::createInfectionHeatMap</text>
</a>
</g>
</g>
<!-- Node6&#45;&gt;Node26 -->
<g id="edge30" class="edge">
<title>Node6&#45;&gt;Node26</title>
<path fill="none" stroke="midnightblue" d="M1174.64,-453.81C1170.3,-451.32 1166.34,-448.25 1163,-444.5 1081.67,-353.05 1208.13,-263.13 1127,-171.5 1121.58,-165.38 1114.83,-160.73 1107.46,-157.2"/>
<polygon fill="midnightblue" stroke="midnightblue" points="1173.44,-457.11 1183.98,-458.17 1176.4,-450.77 1173.44,-457.11"/>
</g>
<!-- Node27 -->
<g id="node27" class="node">
<title>Node27</title>
<g id="a_node27"><a xlink:href="../../d9/dbf/class_window.html#a559be400478ab10fd0c147c3e88710be" target="_top" xlink:title=" ">
<polygon fill="none" stroke="black" points="939,-252 939,-271 1127,-271 1127,-252 939,-252"/>
<text text-anchor="middle" x="1033" y="-259" font-family="Helvetica,sans-Serif" font-size="10.00">Window::createMinimalVaccinationMap</text>
</a>
</g>
</g>
<!-- Node6&#45;&gt;Node27 -->
<g id="edge32" class="edge">
<title>Node6&#45;&gt;Node27</title>
<path fill="none" stroke="midnightblue" d="M1174.59,-453.24C1170.33,-450.86 1166.4,-447.98 1163,-444.5 1112.42,-392.62 1177.46,-337.49 1127,-285.5 1120.96,-279.28 1113.54,-274.59 1105.54,-271.08"/>
<polygon fill="midnightblue" stroke="midnightblue" points="1173.15,-456.43 1183.7,-457.43 1176.08,-450.07 1173.15,-456.43"/>
</g>
<!-- Node28 -->
<g id="node28" class="node">
<title>Node28</title>
<g id="a_node28"><a xlink:href="../../d9/dbf/class_window.html#ad7e1d8bae4995cbd51eff71c283e6945" target="_top" xlink:title=" ">
<polygon fill="none" stroke="black" points="958.5,-416 958.5,-435 1107.5,-435 1107.5,-416 958.5,-416"/>
<text text-anchor="middle" x="1033" y="-423" font-family="Helvetica,sans-Serif" font-size="10.00">Window::createPopulationMap</text>
</a>
</g>
</g>
<!-- Node6&#45;&gt;Node28 -->
<g id="edge34" class="edge">
<title>Node6&#45;&gt;Node28</title>
<path fill="none" stroke="midnightblue" d="M1176.7,-452.08C1147.51,-446.64 1113.01,-440.22 1085.24,-435.04"/>
<polygon fill="midnightblue" stroke="midnightblue" points="1176.31,-455.57 1186.79,-453.96 1177.6,-448.69 1176.31,-455.57"/>
</g>
<!-- Node29 -->
<g id="node29" class="node">
<title>Node29</title>
<g id="a_node29"><a xlink:href="../../d9/dbf/class_window.html#ac2cf80c0ebb9c8fa2217776be9c394d7" target="_top" xlink:title=" ">
<polygon fill="none" stroke="black" points="981.5,-214 981.5,-233 1084.5,-233 1084.5,-214 981.5,-214"/>
<text text-anchor="middle" x="1033" y="-221" font-family="Helvetica,sans-Serif" font-size="10.00">Window::createText</text>
</a>
</g>
</g>
<!-- Node6&#45;&gt;Node29 -->
<g id="edge36" class="edge">
<title>Node6&#45;&gt;Node29</title>
<path fill="none" stroke="midnightblue" d="M1174.62,-453.53C1170.32,-451.09 1166.37,-448.12 1163,-444.5 1100.87,-377.75 1190.67,-307.79 1127,-242.5 1115.96,-231.17 1100.12,-225.67 1084.63,-223.22"/>
<polygon fill="midnightblue" stroke="midnightblue" points="1173.3,-456.77 1183.84,-457.81 1176.24,-450.42 1173.3,-456.77"/>
</g>
<!-- Node30 -->
<g id="node30" class="node">
<title>Node30</title>
<g id="a_node30"><a xlink:href="../../d9/dbf/class_window.html#a27b72cfc7953f398cace9362daa9d4ca" target="_top" xlink:title=" ">
<polygon fill="none" stroke="black" points="737.5,-239 737.5,-258 891.5,-258 891.5,-239 737.5,-239"/>
<text text-anchor="middle" x="814.5" y="-246" font-family="Helvetica,sans-Serif" font-size="10.00">Window::createVaccinationMap</text>
</a>
</g>
</g>
<!-- Node6&#45;&gt;Node30 -->
<g id="edge38" class="edge">
<title>Node6&#45;&gt;Node30</title>
<path fill="none" stroke="midnightblue" d="M1174.76,-453.06C1170.47,-450.73 1166.47,-447.91 1163,-444.5 1119.88,-402.24 1171.66,-354.13 1127,-313.5 1064.25,-256.41 1020.98,-302.32 939,-280.5 922.56,-276.12 919.35,-272.2 903,-267.5 890.75,-263.98 877.37,-260.76 864.84,-258.02"/>
<polygon fill="midnightblue" stroke="midnightblue" points="1173.38,-456.28 1183.93,-457.21 1176.26,-449.9 1173.38,-456.28"/>
</g>
<!-- Node31 -->
<g id="node31" class="node">
<title>Node31</title>
<g id="a_node31"><a xlink:href="../../da/d74/class_grid.html#a258fdb0fb8bc7f13cad6637d40a7f20c" target="_top" xlink:title=" ">
<polygon fill="none" stroke="black" points="973.5,-492 973.5,-511 1092.5,-511 1092.5,-492 973.5,-492"/>
<text text-anchor="middle" x="1033" y="-499" font-family="Helvetica,sans-Serif" font-size="10.00">Grid::getDistrictByPoint</text>
</a>
</g>
</g>
<!-- Node6&#45;&gt;Node31 -->
<g id="edge41" class="edge">
<title>Node6&#45;&gt;Node31</title>
<path fill="none" stroke="midnightblue" d="M1176.7,-474.92C1147.51,-480.36 1113.01,-486.78 1085.24,-491.96"/>
<polygon fill="midnightblue" stroke="midnightblue" points="1177.6,-478.31 1186.79,-473.04 1176.31,-471.43 1177.6,-478.31"/>
</g>
<!-- Node34 -->
<g id="node34" class="node">
<title>Node34</title>
<g id="a_node34"><a xlink:href="../../da/d74/class_grid.html#aec7885d1f815b35b32ec7a605f714acd" target="_top" xlink:title=" ">
<polygon fill="none" stroke="black" points="773.5,-277 773.5,-296 855.5,-296 855.5,-277 773.5,-277"/>
<text text-anchor="middle" x="814.5" y="-284" font-family="Helvetica,sans-Serif" font-size="10.00">Grid::operator=</text>
</a>
</g>
</g>
<!-- Node6&#45;&gt;Node34 -->
<g id="edge53" class="edge">
<title>Node6&#45;&gt;Node34</title>
<path fill="none" stroke="midnightblue" d="M1174.43,-452.19C1170.33,-450.05 1166.46,-447.5 1163,-444.5 1131.1,-416.79 1159.22,-383.84 1127,-356.5 1061.65,-301.04 1021.53,-336.64 939,-313.5 922.76,-308.95 919.36,-305.6 903,-301.5 887.75,-297.68 870.76,-294.52 855.84,-292.1"/>
<polygon fill="midnightblue" stroke="midnightblue" points="1173.18,-455.47 1183.74,-456.3 1176,-449.06 1173.18,-455.47"/>
</g>
<!-- Node35 -->
<g id="node35" class="node">
<title>Node35</title>
<g id="a_node35"><a xlink:href="../../d9/dbf/class_window.html#ab5efaea1f6d653d0404cb3f17b0e7e4c" target="_top" xlink:title=" ">
<polygon fill="none" stroke="black" points="569,-132 569,-151 677,-151 677,-132 569,-132"/>
<text text-anchor="middle" x="623" y="-139" font-family="Helvetica,sans-Serif" font-size="10.00">Window::showStatus</text>
</a>
</g>
</g>
<!-- Node6&#45;&gt;Node35 -->
<g id="edge54" class="edge">
<title>Node6&#45;&gt;Node35</title>
<path fill="none" stroke="midnightblue" d="M1174.5,-453.93C1170.2,-451.41 1166.28,-448.31 1163,-444.5 1109.71,-382.54 1187.55,-133.39 1127,-78.5 1057.15,-15.18 751.9,-101.97 654.2,-131.97"/>
<polygon fill="midnightblue" stroke="midnightblue" points="1173.26,-457.22 1183.8,-458.32 1176.25,-450.89 1173.26,-457.22"/>
</g>
<!-- Node36 -->
<g id="node36" class="node">
<title>Node36</title>
<g id="a_node36"><a xlink:href="../../da/df6/class_logic.html#a4d43275d8c0cccec8902901dd4e99f09" target="_top" xlink:title=" ">
<polygon fill="none" stroke="black" points="556,-807 556,-826 690,-826 690,-807 556,-807"/>
<text text-anchor="middle" x="623" y="-814" font-family="Helvetica,sans-Serif" font-size="10.00">Logic::simulateVaccination</text>
</a>
</g>
</g>
<!-- Node6&#45;&gt;Node36 -->
<g id="edge57" class="edge">
<title>Node6&#45;&gt;Node36</title>
<path fill="none" stroke="midnightblue" d="M1230.15,-482.59C1216.19,-516.72 1186.32,-590.51 1163,-653.5 1146.02,-699.37 1164.19,-725.72 1127,-757.5 1062.75,-812.41 811.32,-818.12 690.09,-817.56"/>
<polygon fill="midnightblue" stroke="midnightblue" points="1233.39,-483.91 1233.95,-473.33 1226.91,-481.26 1233.39,-483.91"/>
</g>
<!-- Node7&#45;&gt;Node8 -->
<g id="edge7" class="edge">
<title>Node7&#45;&gt;Node8</title>
<path fill="none" stroke="midnightblue" d="M738.91,-575.82C713.73,-581.66 686.56,-587.97 664.97,-592.99"/>
<polygon fill="midnightblue" stroke="midnightblue" points="739.87,-579.19 748.81,-573.52 738.28,-572.37 739.87,-579.19"/>
</g>
<!-- Node9 -->
<g id="node9" class="node">
<title>Node9</title>
<g id="a_node9"><a xlink:href="../../d2/d5c/class_iface.html#ad724ec2c6a2aa884f61de19193affc6a" target="_top" xlink:title=" ">
<polygon fill="none" stroke="black" points="405,-574 405,-593 520,-593 520,-574 405,-574"/>
<text text-anchor="middle" x="462.5" y="-581" font-family="Helvetica,sans-Serif" font-size="10.00">Iface::requestLEGACY</text>
</a>
</g>
</g>
<!-- Node8&#45;&gt;Node9 -->
<g id="edge8" class="edge">
<title>Node8&#45;&gt;Node9</title>
<path fill="none" stroke="midnightblue" d="M565.36,-595.71C550.7,-593.95 534.91,-592.06 520.24,-590.3"/>
<polygon fill="midnightblue" stroke="midnightblue" points="564.96,-599.19 575.3,-596.9 565.79,-592.24 564.96,-599.19"/>
</g>
<!-- Node10 -->
<g id="node10" class="node">
<title>Node10</title>
<g id="a_node10"><a xlink:href="../../d2/d5c/class_iface.html#abae0122b800731a979c9f8e4c3a58176" target="_top" xlink:title=" ">
<polygon fill="none" stroke="black" points="429,-612 429,-631 496,-631 496,-612 429,-612"/>
<text text-anchor="middle" x="462.5" y="-619" font-family="Helvetica,sans-Serif" font-size="10.00">Iface::round</text>
</a>
</g>
</g>
<!-- Node8&#45;&gt;Node10 -->
<g id="edge9" class="edge">
<title>Node8&#45;&gt;Node10</title>
<path fill="none" stroke="midnightblue" d="M565.24,-609.3C542.11,-612.08 516.19,-615.18 496.31,-617.57"/>
<polygon fill="midnightblue" stroke="midnightblue" points="565.79,-612.76 575.3,-608.1 564.96,-605.81 565.79,-612.76"/>
</g>
<!-- Node11 -->
<g id="node11" class="node">
<title>Node11</title>
<g id="a_node11"><a xlink:href="../../d2/d5c/class_iface.html#a44e6d0db22abbce5cb8c132e5f1d4284" target="_top" xlink:title=" ">
<polygon fill="none" stroke="black" points="268,-612 268,-631 330,-631 330,-612 268,-612"/>
<text text-anchor="middle" x="299" y="-619" font-family="Helvetica,sans-Serif" font-size="10.00">Iface::start</text>
</a>
</g>
</g>
<!-- Node10&#45;&gt;Node11 -->
<g id="edge10" class="edge">
<title>Node10&#45;&gt;Node11</title>
<path fill="none" stroke="midnightblue" d="M418.56,-621.5C390.69,-621.5 355.07,-621.5 330.18,-621.5"/>
<polygon fill="midnightblue" stroke="midnightblue" points="418.82,-625 428.82,-621.5 418.82,-618 418.82,-625"/>
</g>
<!-- Node12 -->
<g id="node12" class="node">
<title>Node12</title>
<g id="a_node12"><a xlink:href="../../dc/d90/class_anti_virus.html#affe3f62a87b880cc964188d9ddb9d562" target="_top" xlink:title=" ">
<polygon fill="none" stroke="black" points="74,-612 74,-631 193,-631 193,-612 74,-612"/>
<text text-anchor="middle" x="133.5" y="-619" font-family="Helvetica,sans-Serif" font-size="10.00">AntiVirus::startInterface</text>
</a>
</g>
</g>
<!-- Node11&#45;&gt;Node12 -->
<g id="edge11" class="edge">
<title>Node11&#45;&gt;Node12</title>
<path fill="none" stroke="midnightblue" d="M257.61,-621.5C238.18,-621.5 214.54,-621.5 193.18,-621.5"/>
<polygon fill="midnightblue" stroke="midnightblue" points="257.63,-625 267.63,-621.5 257.63,-618 257.63,-625"/>
</g>
<!-- Node13 -->
<g id="node13" class="node">
<title>Node13</title>
<g id="a_node13"><a xlink:href="../../df/d0a/main_8cpp.html#ae66f6b31b5ad750f1fe042a706a4e3d4" target="_top" xlink:title=" ">
<polygon fill="none" stroke="black" points="0,-612 0,-631 38,-631 38,-612 0,-612"/>
<text text-anchor="middle" x="19" y="-619" font-family="Helvetica,sans-Serif" font-size="10.00">main</text>
</a>
</g>
</g>
<!-- Node12&#45;&gt;Node13 -->
<g id="edge12" class="edge">
<title>Node12&#45;&gt;Node13</title>
<path fill="none" stroke="midnightblue" d="M63.65,-621.5C54.29,-621.5 45.43,-621.5 38.16,-621.5"/>
<polygon fill="midnightblue" stroke="midnightblue" points="63.94,-625 73.94,-621.5 63.94,-618 63.94,-625"/>
</g>
<!-- Node14&#45;&gt;Node8 -->
<g id="edge14" class="edge">
<title>Node14&#45;&gt;Node8</title>
<path fill="none" stroke="midnightblue" d="M738.91,-629.18C713.73,-623.34 686.56,-617.03 664.97,-612.01"/>
<polygon fill="midnightblue" stroke="midnightblue" points="738.28,-632.63 748.81,-631.48 739.87,-625.81 738.28,-632.63"/>
</g>
<!-- Node16&#45;&gt;Node8 -->
<g id="edge17" class="edge">
<title>Node16&#45;&gt;Node8</title>
<path fill="none" stroke="midnightblue" d="M737.23,-715.46C733.34,-713.64 729.57,-711.66 726,-709.5 682.3,-683.08 644.9,-633.08 630.42,-612.12"/>
<polygon fill="midnightblue" stroke="midnightblue" points="735.9,-718.7 746.47,-719.4 738.65,-712.26 735.9,-718.7"/>
</g>
<!-- Node18&#45;&gt;Node8 -->
<g id="edge20" class="edge">
<title>Node18&#45;&gt;Node8</title>
<path fill="none" stroke="midnightblue" d="M744.57,-678.16C738.19,-676.24 731.91,-674.03 726,-671.5 689.83,-656.03 652.96,-627.15 635.08,-612.13"/>
<polygon fill="midnightblue" stroke="midnightblue" points="744.07,-681.65 754.64,-680.95 745.94,-674.91 744.07,-681.65"/>
</g>
<!-- Node20 -->
<g id="node20" class="node">
<title>Node20</title>
<g id="a_node20"><a xlink:href="../../d9/dbf/class_window.html#a613473425472a8fa471f2cbd4926aa2e" target="_top" xlink:title=" ">
<polygon fill="none" stroke="black" points="572,-239 572,-258 674,-258 674,-239 572,-239"/>
<text text-anchor="middle" x="623" y="-246" font-family="Helvetica,sans-Serif" font-size="10.00">Window::createGrid</text>
</a>
</g>
</g>
<!-- Node19&#45;&gt;Node20 -->
<g id="edge22" class="edge">
<title>Node19&#45;&gt;Node20</title>
<path fill="none" stroke="midnightblue" d="M753.53,-349.98C744.03,-346.89 734.54,-343.11 726,-338.5 685.9,-316.83 648.29,-276.68 632.21,-258.23"/>
<polygon fill="midnightblue" stroke="midnightblue" points="752.8,-353.42 763.39,-352.95 754.82,-346.71 752.8,-353.42"/>
</g>
<!-- Node21 -->
<g id="node21" class="node">
<title>Node21</title>
<g id="a_node21"><a xlink:href="../../d9/dbf/class_window.html#a59515fc5a56e86d5a46d771595daac55" target="_top" xlink:title=" ">
<polygon fill="none" stroke="black" points="419.5,-315 419.5,-334 505.5,-334 505.5,-315 419.5,-315"/>
<text text-anchor="middle" x="462.5" y="-322" font-family="Helvetica,sans-Serif" font-size="10.00">Window::update</text>
</a>
</g>
</g>
<!-- Node20&#45;&gt;Node21 -->
<g id="edge23" class="edge">
<title>Node20&#45;&gt;Node21</title>
<path fill="none" stroke="midnightblue" d="M592.68,-262.56C560.87,-277.81 510.95,-301.75 483.41,-314.95"/>
<polygon fill="midnightblue" stroke="midnightblue" points="594.42,-265.61 601.93,-258.13 591.4,-259.29 594.42,-265.61"/>
</g>
<!-- Node21&#45;&gt;Node4 -->
<g id="edge24" class="edge">
<title>Node21&#45;&gt;Node4</title>
<path fill="none" stroke="midnightblue" d="M445.41,-341.84C413.73,-375.97 343.78,-451.33 313.94,-483.48"/>
<polygon fill="midnightblue" stroke="midnightblue" points="448.35,-343.81 452.59,-334.1 443.22,-339.05 448.35,-343.81"/>
</g>
<!-- Node22&#45;&gt;Node20 -->
<g id="edge26" class="edge">
<title>Node22&#45;&gt;Node20</title>
<path fill="none" stroke="midnightblue" d="M762.09,-184.72C750.1,-188.09 737.48,-192.05 726,-196.5 694.49,-208.71 659.85,-227.63 640.13,-238.97"/>
<polygon fill="midnightblue" stroke="midnightblue" points="763.25,-188.03 771.99,-182.04 761.42,-181.28 763.25,-188.03"/>
</g>
<!-- Node24 -->
<g id="node24" class="node">
<title>Node24</title>
<g id="a_node24"><a xlink:href="../../d2/d5c/class_iface.html#a6afe73763b17570a7a884ffeca597c0e" target="_top" xlink:title=" ">
<polygon fill="none" stroke="black" points="575.5,-769 575.5,-788 670.5,-788 670.5,-769 575.5,-769"/>
<text text-anchor="middle" x="623" y="-776" font-family="Helvetica,sans-Serif" font-size="10.00">Iface::initAntiVirus</text>
</a>
</g>
</g>
<!-- Node23&#45;&gt;Node24 -->
<g id="edge28" class="edge">
<title>Node23&#45;&gt;Node24</title>
<path fill="none" stroke="midnightblue" d="M760.43,-778.5C732.27,-778.5 697.97,-778.5 670.81,-778.5"/>
<polygon fill="midnightblue" stroke="midnightblue" points="760.5,-782 770.5,-778.5 760.5,-775 760.5,-782"/>
</g>
<!-- Node25 -->
<g id="node25" class="node">
<title>Node25</title>
<g id="a_node25"><a xlink:href="../../dc/d90/class_anti_virus.html#a3b3aed962d274c4333a8c9ac191816a0" target="_top" xlink:title=" ">
<polygon fill="none" stroke="black" points="411.5,-769 411.5,-788 513.5,-788 513.5,-769 411.5,-769"/>
<text text-anchor="middle" x="462.5" y="-776" font-family="Helvetica,sans-Serif" font-size="10.00">AntiVirus::AntiVirus</text>
</a>
</g>
</g>
<!-- Node24&#45;&gt;Node25 -->
<g id="edge29" class="edge">
<title>Node24&#45;&gt;Node25</title>
<path fill="none" stroke="midnightblue" d="M565.07,-778.5C548.29,-778.5 530.06,-778.5 513.73,-778.5"/>
<polygon fill="midnightblue" stroke="midnightblue" points="565.3,-782 575.3,-778.5 565.3,-775 565.3,-782"/>
</g>
<!-- Node26&#45;&gt;Node20 -->
<g id="edge31" class="edge">
<title>Node26&#45;&gt;Node20</title>
<path fill="none" stroke="midnightblue" d="M972.17,-136.46C908.59,-127.46 806.36,-120.96 726,-153.5 681.59,-171.48 644.86,-218.48 630.5,-238.85"/>
<polygon fill="midnightblue" stroke="midnightblue" points="972.01,-139.97 982.42,-137.98 973.04,-133.05 972.01,-139.97"/>
</g>
<!-- Node27&#45;&gt;Node20 -->
<g id="edge33" class="edge">
<title>Node27&#45;&gt;Node20</title>
<path fill="none" stroke="midnightblue" d="M968.67,-249.85C958.68,-247.64 948.52,-245.18 939,-242.5 922.62,-237.9 919.76,-232.43 903,-229.5 825.51,-215.94 804.33,-222.27 726,-229.5 705.91,-231.36 683.88,-235.22 665.44,-238.99"/>
<polygon fill="midnightblue" stroke="midnightblue" points="968.05,-253.29 978.57,-251.97 969.52,-246.45 968.05,-253.29"/>
</g>
<!-- Node28&#45;&gt;Node20 -->
<g id="edge35" class="edge">
<title>Node28&#45;&gt;Node20</title>
<path fill="none" stroke="midnightblue" d="M949.23,-411.75C945.65,-409.91 942.22,-407.84 939,-405.5 913.22,-386.77 928.78,-362.22 903,-343.5 837.9,-296.22 801.29,-333.88 726,-305.5 692.59,-292.9 656.91,-270.69 637.87,-258.03"/>
<polygon fill="midnightblue" stroke="midnightblue" points="947.84,-414.96 958.39,-415.86 950.7,-408.57 947.84,-414.96"/>
</g>
<!-- Node29&#45;&gt;Node22 -->
<g id="edge37" class="edge">
<title>Node29&#45;&gt;Node22</title>
<path fill="none" stroke="midnightblue" d="M981.65,-211.64C943.47,-202.65 891.69,-190.45 856.14,-182.07"/>
<polygon fill="midnightblue" stroke="midnightblue" points="981,-215.08 991.53,-213.97 982.6,-208.27 981,-215.08"/>
</g>
<!-- Node30&#45;&gt;Node20 -->
<g id="edge39" class="edge">
<title>Node30&#45;&gt;Node20</title>
<path fill="none" stroke="midnightblue" d="M727.19,-248.5C708.97,-248.5 690.34,-248.5 674.01,-248.5"/>
<polygon fill="midnightblue" stroke="midnightblue" points="727.24,-252 737.24,-248.5 727.24,-245 727.24,-252"/>
</g>
<!-- Node31&#45;&gt;Node7 -->
<g id="edge44" class="edge">
<title>Node31&#45;&gt;Node7</title>
<path fill="none" stroke="midnightblue" d="M985.89,-513.64C952.81,-522.35 908.01,-534.14 872.65,-543.45"/>
<polygon fill="midnightblue" stroke="midnightblue" points="986.98,-516.97 995.76,-511.04 985.2,-510.2 986.98,-516.97"/>
</g>
<!-- Node31&#45;&gt;Node8 -->
<g id="edge51" class="edge">
<title>Node31&#45;&gt;Node8</title>
<path fill="none" stroke="midnightblue" d="M987.41,-489.59C925.82,-475.54 812.52,-458.44 726,-495.5 701.82,-505.86 650.96,-568.24 631.65,-592.69"/>
<polygon fill="midnightblue" stroke="midnightblue" points="986.66,-493.01 997.2,-491.9 988.27,-486.2 986.66,-493.01"/>
</g>
<!-- Node31&#45;&gt;Node19 -->
<g id="edge47" class="edge">
<title>Node31&#45;&gt;Node19</title>
<path fill="none" stroke="midnightblue" d="M963.76,-491.97C954.73,-488.49 946.14,-483.81 939,-477.5 906.4,-448.71 935.38,-415.53 903,-386.5 895.96,-380.19 887.42,-375.52 878.46,-372.07"/>
<polygon fill="midnightblue" stroke="midnightblue" points="962.7,-495.31 973.3,-495.17 964.93,-488.67 962.7,-495.31"/>
</g>
<!-- Node31&#45;&gt;Node21 -->
<g id="edge52" class="edge">
<title>Node31&#45;&gt;Node21</title>
<path fill="none" stroke="midnightblue" d="M968.64,-489.19C958.45,-486.07 948.22,-482.23 939,-477.5 920.47,-468 921.44,-457.19 903,-447.5 832.42,-410.41 601.2,-355.62 505.52,-333.88"/>
<polygon fill="midnightblue" stroke="midnightblue" points="967.8,-492.59 978.38,-491.95 969.71,-485.85 967.8,-492.59"/>
</g>
<!-- Node31&#45;&gt;Node22 -->
<g id="edge48" class="edge">
<title>Node31&#45;&gt;Node22</title>
<path fill="none" stroke="midnightblue" d="M994.89,-487.71C975.2,-478.47 952.38,-464.33 939,-444.5 884.82,-364.18 956.07,-310.56 903,-229.5 888.1,-206.75 860.62,-191.09 840.42,-182.02"/>
<polygon fill="midnightblue" stroke="midnightblue" points="993.68,-491 1004.24,-491.85 996.52,-484.6 993.68,-491"/>
</g>
<!-- Node31&#45;&gt;Node23 -->
<g id="edge49" class="edge">
<title>Node31&#45;&gt;Node23</title>
<path fill="none" stroke="midnightblue" d="M1028.27,-520.95C1017.88,-569.5 983.9,-696.65 903,-759.5 890.48,-769.23 874.04,-774.22 858.8,-776.71"/>
<polygon fill="midnightblue" stroke="midnightblue" points="1031.71,-521.6 1030.28,-511.1 1024.85,-520.2 1031.71,-521.6"/>
</g>
<!-- Node32 -->
<g id="node32" class="node">
<title>Node32</title>
<g id="a_node32"><a xlink:href="../../da/df6/class_logic.html#a95e67ed4c9141cbf3efdf6a720993e59" target="_top" xlink:title=" ">
<polygon fill="none" stroke="black" points="758,-505 758,-524 871,-524 871,-505 758,-505"/>
<text text-anchor="middle" x="814.5" y="-512" font-family="Helvetica,sans-Serif" font-size="10.00">Logic::calculateBorder</text>
</a>
</g>
</g>
<!-- Node31&#45;&gt;Node32 -->
<g id="edge42" class="edge">
<title>Node31&#45;&gt;Node32</title>
<path fill="none" stroke="midnightblue" d="M963.12,-505.64C933.44,-507.42 899.19,-509.47 871.15,-511.16"/>
<polygon fill="midnightblue" stroke="midnightblue" points="963.64,-509.11 973.41,-505.02 963.22,-502.12 963.64,-509.11"/>
</g>
<!-- Node33 -->
<g id="node33" class="node">
<title>Node33</title>
<g id="a_node33"><a xlink:href="../../d9/d64/class_a_i.html#a6afa7ebeca7011cfffbc5a0df60c112f" target="_top" xlink:title=" ">
<polygon fill="none" stroke="black" points="560,-492 560,-511 686,-511 686,-492 560,-492"/>
<text text-anchor="middle" x="623" y="-499" font-family="Helvetica,sans-Serif" font-size="10.00">AI::calculatePutVaccines</text>
</a>
</g>
</g>
<!-- Node31&#45;&gt;Node33 -->
<g id="edge45" class="edge">
<title>Node31&#45;&gt;Node33</title>
<path fill="none" stroke="midnightblue" d="M979.9,-489.45C966.47,-485.96 952.1,-481.9 939,-477.5 922.57,-471.99 920,-465.9 903,-462.5 825.86,-447.07 803.36,-448.22 726,-462.5 695.8,-468.08 662.97,-482.21 642.94,-491.84"/>
<polygon fill="midnightblue" stroke="midnightblue" points="979.41,-492.93 989.96,-492 981.13,-486.15 979.41,-492.93"/>
</g>
<!-- Node31&#45;&gt;Node34 -->
<g id="edge50" class="edge">
<title>Node31&#45;&gt;Node34</title>
<path fill="none" stroke="midnightblue" d="M998.15,-487.7C978.48,-478.16 954.59,-463.71 939,-444.5 908.97,-407.49 932.51,-380.91 903,-343.5 885.82,-321.72 857.92,-305.62 838.25,-296.18"/>
<polygon fill="midnightblue" stroke="midnightblue" points="996.86,-490.96 1007.4,-491.99 999.8,-484.61 996.86,-490.96"/>
</g>
<!-- Node32&#45;&gt;Node8 -->
<g id="edge43" class="edge">
<title>Node32&#45;&gt;Node8</title>
<path fill="none" stroke="midnightblue" d="M747.97,-525.84C740.43,-527.99 732.96,-530.52 726,-533.5 689.83,-548.97 652.96,-577.85 635.08,-592.87"/>
<polygon fill="midnightblue" stroke="midnightblue" points="749.11,-529.16 757.89,-523.24 747.33,-522.39 749.11,-529.16"/>
</g>
<!-- Node33&#45;&gt;Node10 -->
<g id="edge46" class="edge">
<title>Node33&#45;&gt;Node10</title>
<path fill="none" stroke="midnightblue" d="M608.64,-518.98C590.73,-541.3 556.89,-579.76 520,-602.5 512.69,-607.01 504.18,-610.59 496.02,-613.37"/>
<polygon fill="midnightblue" stroke="midnightblue" points="611.47,-521.04 614.9,-511.02 605.97,-516.71 611.47,-521.04"/>
</g>
<!-- Node35&#45;&gt;Node21 -->
<g id="edge55" class="edge">
<title>Node35&#45;&gt;Node21</title>
<path fill="none" stroke="midnightblue" d="M607.11,-158.69C574.55,-196.29 497.85,-284.84 472.1,-314.57"/>
<polygon fill="midnightblue" stroke="midnightblue" points="609.8,-160.93 613.7,-151.08 604.51,-156.35 609.8,-160.93"/>
</g>
<!-- Node36&#45;&gt;Node10 -->
<g id="edge58" class="edge">
<title>Node36&#45;&gt;Node10</title>
<path fill="none" stroke="midnightblue" d="M563.22,-802.49C560.68,-800.99 558.25,-799.34 556,-797.5 499.26,-751.28 473.06,-660.91 465.73,-631.21"/>
<polygon fill="midnightblue" stroke="midnightblue" points="561.71,-805.65 572.22,-806.99 564.84,-799.39 561.71,-805.65"/>
</g>
<!-- Node38 -->
<g id="node38" class="node">
<title>Node38</title>
<g id="a_node38"><a xlink:href="../../d7/d8b/class_graphics.html#ac4526fe4a93fbb8b3d24240952cfdfc5" target="_top" xlink:title=" ">
<polygon fill="none" stroke="black" points="971,-0.5 971,-30.5 1095,-30.5 1095,-0.5 971,-0.5"/>
<text text-anchor="start" x="979" y="-18.5" font-family="Helvetica,sans-Serif" font-size="10.00">Graphics::displayCurrent</text>
<text text-anchor="middle" x="1033" y="-7.5" font-family="Helvetica,sans-Serif" font-size="10.00">Round</text>
</a>
</g>
</g>
<!-- Node37&#45;&gt;Node38 -->
<g id="edge60" class="edge">
<title>Node37&#45;&gt;Node38</title>
<path fill="none" stroke="midnightblue" d="M1229.48,-182.45C1213.87,-149.67 1177.57,-82.54 1127,-45.5 1117.56,-38.58 1106.45,-33.21 1095.26,-29.06"/>
<polygon fill="midnightblue" stroke="midnightblue" points="1226.44,-184.2 1233.82,-191.81 1232.79,-181.26 1226.44,-184.2"/>
</g>
</g>
</svg>
