<?xml version="1.0" encoding="UTF-8" standalone="no"?>
<!DOCTYPE svg PUBLIC "-//W3C//DTD SVG 1.1//EN"
 "http://www.w3.org/Graphics/SVG/1.1/DTD/svg11.dtd">
<!-- Generated by graphviz version 2.44.1 (20200629.0846)
 -->
<!-- Title: Grid::Grid Pages: 1 -->
<svg width="233pt" height="66pt"
 viewBox="0.00 0.00 233.00 66.00" xmlns="http://www.w3.org/2000/svg" xmlns:xlink="http://www.w3.org/1999/xlink">
<g id="graph0" class="graph" transform="scale(1 1) rotate(0) translate(4 62)">
<title>Grid::Grid</title>
<!-- Node1 -->
<g id="node1" class="node">
<title>Node1</title>
<g id="a_node1"><a xlink:title=" ">
<polygon fill="#bfbfbf" stroke="black" points="0,-19.5 0,-38.5 59,-38.5 59,-19.5 0,-19.5"/>
<text text-anchor="middle" x="29.5" y="-26.5" font-family="Helvetica,sans-Serif" font-size="10.00">Grid::Grid</text>
</a>
</g>
</g>
<!-- Node2 -->
<g id="node2" class="node">
<title>Node2</title>
<g id="a_node2"><a xlink:href="../../d1/d22/class_utils_1_1_point.html#a3511f3b8bf0b687bc9455b1a804bd309" target="_top" xlink:title=" ">
<polygon fill="none" stroke="black" points="95,-38.5 95,-57.5 225,-57.5 225,-38.5 95,-38.5"/>
<text text-anchor="middle" x="160" y="-45.5" font-family="Helvetica,sans-Serif" font-size="10.00">Utils::Point::setGridHeight</text>
</a>
</g>
</g>
<!-- Node1&#45;&gt;Node2 -->
<g id="edge1" class="edge">
<title>Node1&#45;&gt;Node2</title>
<path fill="none" stroke="midnightblue" d="M59.02,-33.22C66.84,-34.37 75.69,-35.68 84.82,-37.03"/>
<polygon fill="midnightblue" stroke="midnightblue" points="84.39,-40.51 94.8,-38.51 85.42,-33.58 84.39,-40.51"/>
</g>
<!-- Node3 -->
<g id="node3" class="node">
<title>Node3</title>
<g id="a_node3"><a xlink:href="../../d1/d22/class_utils_1_1_point.html#a74887050d171c2259e60d10355239252" target="_top" xlink:title=" ">
<polygon fill="none" stroke="black" points="96,-0.5 96,-19.5 224,-19.5 224,-0.5 96,-0.5"/>
<text text-anchor="middle" x="160" y="-7.5" font-family="Helvetica,sans-Serif" font-size="10.00">Utils::Point::setGridWidth</text>
</a>
</g>
</g>
<!-- Node1&#45;&gt;Node3 -->
<g id="edge2" class="edge">
<title>Node1&#45;&gt;Node3</title>
<path fill="none" stroke="midnightblue" d="M59.02,-24.78C67.14,-23.58 76.38,-22.22 85.88,-20.81"/>
<polygon fill="midnightblue" stroke="midnightblue" points="86.46,-24.26 95.84,-19.34 85.44,-17.34 86.46,-24.26"/>
</g>
</g>
</svg>
