<?xml version="1.0" encoding="UTF-8" standalone="no"?>
<!DOCTYPE svg PUBLIC "-//W3C//DTD SVG 1.1//EN"
 "http://www.w3.org/Graphics/SVG/1.1/DTD/svg11.dtd">
<!-- Generated by graphviz version 2.44.1 (20200629.0846)
 -->
<!-- Title: Grid::getDistrictByPoint Pages: 1 -->
<svg width="405pt" height="104pt"
 viewBox="0.00 0.00 405.00 104.00" xmlns="http://www.w3.org/2000/svg" xmlns:xlink="http://www.w3.org/1999/xlink">
<g id="graph0" class="graph" transform="scale(1 1) rotate(0) translate(4 100)">
<title>Grid::getDistrictByPoint</title>
<!-- Node1 -->
<g id="node1" class="node">
<title>Node1</title>
<g id="a_node1"><a xlink:title=" ">
<polygon fill="#bfbfbf" stroke="black" points="0,-57.5 0,-76.5 119,-76.5 119,-57.5 0,-57.5"/>
<text text-anchor="middle" x="59.5" y="-64.5" font-family="Helvetica,sans-Serif" font-size="10.00">Grid::getDistrictByPoint</text>
</a>
</g>
</g>
<!-- Node2 -->
<g id="node2" class="node">
<title>Node2</title>
<g id="a_node2"><a xlink:href="../../da/d74/class_grid.html#af60e6e64cac90b7d38132dc6560b2052" target="_top" xlink:title=" ">
<polygon fill="none" stroke="black" points="157,-76.5 157,-95.5 263,-95.5 263,-76.5 157,-76.5"/>
<text text-anchor="middle" x="210" y="-83.5" font-family="Helvetica,sans-Serif" font-size="10.00">Grid::getDistrictByID</text>
</a>
</g>
</g>
<!-- Node1&#45;&gt;Node2 -->
<g id="edge1" class="edge">
<title>Node1&#45;&gt;Node2</title>
<path fill="none" stroke="midnightblue" d="M119.19,-74.51C128.26,-75.67 137.66,-76.87 146.8,-78.04"/>
<polygon fill="midnightblue" stroke="midnightblue" points="146.63,-81.55 156.99,-79.35 147.52,-74.6 146.63,-81.55"/>
</g>
<!-- Node3 -->
<g id="node3" class="node">
<title>Node3</title>
<g id="a_node3"><a xlink:href="../../da/d74/class_grid.html#aff3d5bc3ea4e8da08e0a78d7f73f0084" target="_top" xlink:title=" ">
<polygon fill="none" stroke="black" points="155,-38.5 155,-57.5 265,-57.5 265,-38.5 155,-38.5"/>
<text text-anchor="middle" x="210" y="-45.5" font-family="Helvetica,sans-Serif" font-size="10.00">Grid::getFieldByPoint</text>
</a>
</g>
</g>
<!-- Node1&#45;&gt;Node3 -->
<g id="edge2" class="edge">
<title>Node1&#45;&gt;Node3</title>
<path fill="none" stroke="midnightblue" d="M119.19,-59.49C127.49,-58.43 136.06,-57.33 144.46,-56.26"/>
<polygon fill="midnightblue" stroke="midnightblue" points="145.13,-59.7 154.6,-54.96 144.24,-52.76 145.13,-59.7"/>
</g>
<!-- Node4 -->
<g id="node4" class="node">
<title>Node4</title>
<g id="a_node4"><a xlink:href="../../da/d74/class_grid.html#a3618702f7872969eedc6e8817dc26776" target="_top" xlink:title=" ">
<polygon fill="none" stroke="black" points="301,-76.5 301,-95.5 397,-95.5 397,-76.5 301,-76.5"/>
<text text-anchor="middle" x="349" y="-83.5" font-family="Helvetica,sans-Serif" font-size="10.00">Grid::getFieldByID</text>
</a>
</g>
</g>
<!-- Node3&#45;&gt;Node4 -->
<g id="edge3" class="edge">
<title>Node3&#45;&gt;Node4</title>
<path fill="none" stroke="midnightblue" d="M245.57,-57.59C263.18,-62.47 284.78,-68.46 303.6,-73.68"/>
<polygon fill="midnightblue" stroke="midnightblue" points="302.87,-77.11 313.44,-76.41 304.74,-70.37 302.87,-77.11"/>
</g>
<!-- Node5 -->
<g id="node5" class="node">
<title>Node5</title>
<g id="a_node5"><a xlink:href="../../d1/d22/class_utils_1_1_point.html#a4fd453f573c399f7195a8982268a9f55" target="_top" xlink:title=" ">
<polygon fill="none" stroke="black" points="304.5,-38.5 304.5,-57.5 393.5,-57.5 393.5,-38.5 304.5,-38.5"/>
<text text-anchor="middle" x="349" y="-45.5" font-family="Helvetica,sans-Serif" font-size="10.00">Utils::Point::getX</text>
</a>
</g>
</g>
<!-- Node3&#45;&gt;Node5 -->
<g id="edge4" class="edge">
<title>Node3&#45;&gt;Node5</title>
<path fill="none" stroke="midnightblue" d="M265.15,-48C274.7,-48 284.65,-48 294.2,-48"/>
<polygon fill="midnightblue" stroke="midnightblue" points="294.36,-51.5 304.36,-48 294.36,-44.5 294.36,-51.5"/>
</g>
<!-- Node6 -->
<g id="node6" class="node">
<title>Node6</title>
<g id="a_node6"><a xlink:href="../../d1/d22/class_utils_1_1_point.html#a62ce3a4ededc21a4f417bf18e357fc8e" target="_top" xlink:title=" ">
<polygon fill="none" stroke="black" points="303.5,-0.5 303.5,-19.5 394.5,-19.5 394.5,-0.5 303.5,-0.5"/>
<text text-anchor="middle" x="349" y="-7.5" font-family="Helvetica,sans-Serif" font-size="10.00">Utils::Point::getY</text>
</a>
</g>
</g>
<!-- Node3&#45;&gt;Node6 -->
<g id="edge5" class="edge">
<title>Node3&#45;&gt;Node6</title>
<path fill="none" stroke="midnightblue" d="M245.57,-38.41C263.18,-33.53 284.78,-27.54 303.6,-22.32"/>
<polygon fill="midnightblue" stroke="midnightblue" points="304.74,-25.63 313.44,-19.59 302.87,-18.89 304.74,-25.63"/>
</g>
</g>
</svg>
