<?xml version="1.0" encoding="UTF-8" standalone="no"?>
<!DOCTYPE svg PUBLIC "-//W3C//DTD SVG 1.1//EN"
 "http://www.w3.org/Graphics/SVG/1.1/DTD/svg11.dtd">
<!-- Generated by graphviz version 2.44.1 (20200629.0846)
 -->
<!-- Title: Grid::getFieldByPoint Pages: 1 -->
<svg width="250pt" height="104pt"
 viewBox="0.00 0.00 250.00 104.00" xmlns="http://www.w3.org/2000/svg" xmlns:xlink="http://www.w3.org/1999/xlink">
<g id="graph0" class="graph" transform="scale(1 1) rotate(0) translate(4 100)">
<title>Grid::getFieldByPoint</title>
<!-- Node1 -->
<g id="node1" class="node">
<title>Node1</title>
<g id="a_node1"><a xlink:title=" ">
<polygon fill="#bfbfbf" stroke="black" points="0,-38.5 0,-57.5 110,-57.5 110,-38.5 0,-38.5"/>
<text text-anchor="middle" x="55" y="-45.5" font-family="Helvetica,sans-Serif" font-size="10.00">Grid::getFieldByPoint</text>
</a>
</g>
</g>
<!-- Node2 -->
<g id="node2" class="node">
<title>Node2</title>
<g id="a_node2"><a xlink:href="../../da/d74/class_grid.html#a3618702f7872969eedc6e8817dc26776" target="_top" xlink:title=" ">
<polygon fill="none" stroke="black" points="146,-76.5 146,-95.5 242,-95.5 242,-76.5 146,-76.5"/>
<text text-anchor="middle" x="194" y="-83.5" font-family="Helvetica,sans-Serif" font-size="10.00">Grid::getFieldByID</text>
</a>
</g>
</g>
<!-- Node1&#45;&gt;Node2 -->
<g id="edge1" class="edge">
<title>Node1&#45;&gt;Node2</title>
<path fill="none" stroke="midnightblue" d="M90.57,-57.59C108.18,-62.47 129.78,-68.46 148.6,-73.68"/>
<polygon fill="midnightblue" stroke="midnightblue" points="147.87,-77.11 158.44,-76.41 149.74,-70.37 147.87,-77.11"/>
</g>
<!-- Node3 -->
<g id="node3" class="node">
<title>Node3</title>
<g id="a_node3"><a xlink:href="../../d1/d22/class_utils_1_1_point.html#a4fd453f573c399f7195a8982268a9f55" target="_top" xlink:title=" ">
<polygon fill="none" stroke="black" points="149.5,-38.5 149.5,-57.5 238.5,-57.5 238.5,-38.5 149.5,-38.5"/>
<text text-anchor="middle" x="194" y="-45.5" font-family="Helvetica,sans-Serif" font-size="10.00">Utils::Point::getX</text>
</a>
</g>
</g>
<!-- Node1&#45;&gt;Node3 -->
<g id="edge2" class="edge">
<title>Node1&#45;&gt;Node3</title>
<path fill="none" stroke="midnightblue" d="M110.15,-48C119.7,-48 129.65,-48 139.2,-48"/>
<polygon fill="midnightblue" stroke="midnightblue" points="139.36,-51.5 149.36,-48 139.36,-44.5 139.36,-51.5"/>
</g>
<!-- Node4 -->
<g id="node4" class="node">
<title>Node4</title>
<g id="a_node4"><a xlink:href="../../d1/d22/class_utils_1_1_point.html#a62ce3a4ededc21a4f417bf18e357fc8e" target="_top" xlink:title=" ">
<polygon fill="none" stroke="black" points="148.5,-0.5 148.5,-19.5 239.5,-19.5 239.5,-0.5 148.5,-0.5"/>
<text text-anchor="middle" x="194" y="-7.5" font-family="Helvetica,sans-Serif" font-size="10.00">Utils::Point::getY</text>
</a>
</g>
</g>
<!-- Node1&#45;&gt;Node4 -->
<g id="edge3" class="edge">
<title>Node1&#45;&gt;Node4</title>
<path fill="none" stroke="midnightblue" d="M90.57,-38.41C108.18,-33.53 129.78,-27.54 148.6,-22.32"/>
<polygon fill="midnightblue" stroke="midnightblue" points="149.74,-25.63 158.44,-19.59 147.87,-18.89 149.74,-25.63"/>
</g>
</g>
</svg>
