<?xml version="1.0" encoding="UTF-8" standalone="no"?>
<!DOCTYPE svg PUBLIC "-//W3C//DTD SVG 1.1//EN"
 "http://www.w3.org/Graphics/SVG/1.1/DTD/svg11.dtd">
<!-- Generated by graphviz version 2.44.1 (20200629.0846)
 -->
<!-- Title: Grid::getWidth Pages: 1 -->
<!--zoomable 521 -->
<svg id="main" version="1.1" xmlns="http://www.w3.org/2000/svg" xmlns:xlink="http://www.w3.org/1999/xlink" xml:space="preserve" onload="init(evt)">
<style type="text/css"><![CDATA[
.edge:hover path { stroke: red; }
.edge:hover polygon { stroke: red; fill: red; }
]]></style>
<script type="text/javascript"><![CDATA[
var edges = document.getElementsByTagName('g');
if (edges && edges.length) {
  for (var i=0;i<edges.length;i++) {
    if (edges[i].id.substr(0,4)=='edge') {
      edges[i].setAttribute('class','edge');
    }
  }
}
]]></script>
        <defs>
                <circle id="rim" cx="0" cy="0" r="7"/>
                <circle id="rim2" cx="0" cy="0" r="3.5"/>
                <g id="zoomPlus">
                        <use xlink:href="#rim" fill="#404040">
                                <set attributeName="fill" to="#808080" begin="zoomplus.mouseover" end="zoomplus.mouseout"/>
                        </use>
                        <path d="M-4,0h8M0,-4v8" fill="none" stroke="white" stroke-width="1.5" pointer-events="none"/>
                </g>
                <g id="zoomMin">
                        <use xlink:href="#rim" fill="#404040">
                                <set attributeName="fill" to="#808080" begin="zoomminus.mouseover" end="zoomminus.mouseout"/>
                        </use>
                        <path d="M-4,0h8" fill="none" stroke="white" stroke-width="1.5" pointer-events="none"/>
                </g>
                <g id="dirArrow">
                        <path fill="none" stroke="white" stroke-width="1.5" d="M0,-3.0v7 M-2.5,-0.5L0,-3.0L2.5,-0.5"/>
                </g>
               <g id="resetDef">
                       <use xlink:href="#rim2" fill="#404040">
                               <set attributeName="fill" to="#808080" begin="reset.mouseover" end="reset.mouseout"/>
                       </use>
               </g>
        </defs>

<script type="text/javascript">
var viewWidth = 930;
var viewHeight = 521;
var sectionId = 'dynsection-26';
</script>
<script xlink:href="../../svgpan.js"/>
<svg id="graph" class="graph">
<g id="viewport">
<title>Grid::getWidth</title>
<!-- Node1 -->
<g id="node1" class="node">
<title>Node1</title>
<g id="a_node1"><a xlink:title=" ">
<polygon fill="#bfbfbf" stroke="black" points="842,-234 842,-253 922,-253 922,-234 842,-234"/>
<text text-anchor="middle" x="882" y="-241" font-family="Helvetica,sans-Serif" font-size="10.00">Grid::getWidth</text>
</a>
</g>
</g>
<!-- Node2 -->
<g id="node2" class="node">
<title>Node2</title>
<g id="a_node2"><a xlink:href="../../d9/d64/class_a_i.html#a6afa7ebeca7011cfffbc5a0df60c112f" target="_top" xlink:title=" ">
<polygon fill="none" stroke="black" points="485,-483 485,-502 611,-502 611,-483 485,-483"/>
<text text-anchor="middle" x="548" y="-490" font-family="Helvetica,sans-Serif" font-size="10.00">AI::calculatePutVaccines</text>
</a>
</g>
</g>
<!-- Node1&#45;&gt;Node2 -->
<g id="edge1" class="edge">
<title>Node1&#45;&gt;Node2</title>
<path fill="none" stroke="midnightblue" d="M881.44,-263.27C881.28,-309.33 873.74,-423.85 806,-476.5 742.29,-526.02 640.66,-513.66 586.25,-502.07"/>
<polygon fill="midnightblue" stroke="midnightblue" points="884.94,-263.09 881.36,-253.12 877.94,-263.14 884.94,-263.09"/>
</g>
<!-- Node7 -->
<g id="node7" class="node">
<title>Node7</title>
<g id="a_node7"><a xlink:href="../../da/df6/class_logic.html#acf435c045c675cb3ad14f7bf8732940e" target="_top" xlink:title=" ">
<polygon fill="none" stroke="black" points="659,-436.5 659,-466.5 801,-466.5 801,-436.5 659,-436.5"/>
<text text-anchor="start" x="667" y="-454.5" font-family="Helvetica,sans-Serif" font-size="10.00">Logic::calculateSpontaneous</text>
<text text-anchor="middle" x="730" y="-443.5" font-family="Helvetica,sans-Serif" font-size="10.00">Healing</text>
</a>
</g>
</g>
<!-- Node1&#45;&gt;Node7 -->
<g id="edge6" class="edge">
<title>Node1&#45;&gt;Node7</title>
<path fill="none" stroke="midnightblue" d="M877.82,-263.25C871.02,-299.39 851.77,-376.56 806,-421.5 799.8,-427.59 792.2,-432.49 784.24,-436.42"/>
<polygon fill="midnightblue" stroke="midnightblue" points="881.33,-263.51 879.61,-253.05 874.43,-262.3 881.33,-263.51"/>
</g>
<!-- Node8 -->
<g id="node8" class="node">
<title>Node8</title>
<g id="a_node8"><a xlink:href="../../da/df6/class_logic.html#a7ebaa13c8a671d82c669431478524784" target="_top" xlink:title=" ">
<polygon fill="none" stroke="black" points="500.5,-442 500.5,-461 595.5,-461 595.5,-442 500.5,-442"/>
<text text-anchor="middle" x="548" y="-449" font-family="Helvetica,sans-Serif" font-size="10.00">Logic::simulateTO</text>
</a>
</g>
</g>
<!-- Node1&#45;&gt;Node8 -->
<g id="edge20" class="edge">
<title>Node1&#45;&gt;Node8</title>
<path fill="none" stroke="midnightblue" d="M876.54,-262.75C868.26,-294.08 847.43,-355.88 806,-388.5 801.7,-391.89 661.12,-425.2 589.74,-441.97"/>
<polygon fill="midnightblue" stroke="midnightblue" points="879.94,-263.59 878.96,-253.04 873.15,-261.89 879.94,-263.59"/>
</g>
<!-- Node10 -->
<g id="node10" class="node">
<title>Node10</title>
<g id="a_node10"><a xlink:href="../../da/df6/class_logic.html#a1a2ddbd7540b8ede1bcc7976d31f9836" target="_top" xlink:title=" ">
<polygon fill="none" stroke="black" points="659,-348.5 659,-378.5 801,-378.5 801,-348.5 659,-348.5"/>
<text text-anchor="start" x="667" y="-366.5" font-family="Helvetica,sans-Serif" font-size="10.00">Logic::calculateSpontaneous</text>
<text text-anchor="middle" x="730" y="-355.5" font-family="Helvetica,sans-Serif" font-size="10.00">HealingLEGACY</text>
</a>
</g>
</g>
<!-- Node1&#45;&gt;Node10 -->
<g id="edge10" class="edge">
<title>Node1&#45;&gt;Node10</title>
<path fill="none" stroke="midnightblue" d="M870.99,-261.85C858.47,-283.19 835.08,-318.08 806,-338.5 800.5,-342.36 794.35,-345.67 788.01,-348.48"/>
<polygon fill="midnightblue" stroke="midnightblue" points="874.07,-263.52 875.97,-253.1 867.98,-260.07 874.07,-263.52"/>
</g>
<!-- Node11 -->
<g id="node11" class="node">
<title>Node11</title>
<g id="a_node11"><a xlink:href="../../d2/d5c/class_iface.html#a42712663a207dad0227b8fc592c7046b" target="_top" xlink:title=" ">
<polygon fill="none" stroke="black" points="686,-310 686,-329 774,-329 774,-310 686,-310"/>
<text text-anchor="middle" x="730" y="-317" font-family="Helvetica,sans-Serif" font-size="10.00">Iface::createGrid</text>
</a>
</g>
</g>
<!-- Node1&#45;&gt;Node11 -->
<g id="edge11" class="edge">
<title>Node1&#45;&gt;Node11</title>
<path fill="none" stroke="midnightblue" d="M863.6,-259.99C849.21,-272.79 827.68,-290.06 806,-300.5 796.08,-305.28 784.82,-308.95 774.09,-311.73"/>
<polygon fill="midnightblue" stroke="midnightblue" points="866.17,-262.39 871.2,-253.06 861.46,-257.22 866.17,-262.39"/>
</g>
<!-- Node14 -->
<g id="node14" class="node">
<title>Node14</title>
<g id="a_node14"><a xlink:href="../../d2/d5b/class_graph_algos.html#af00f038c0816aca536aacf698936a029" target="_top" xlink:title=" ">
<polygon fill="none" stroke="black" points="677.5,-272 677.5,-291 782.5,-291 782.5,-272 677.5,-272"/>
<text text-anchor="middle" x="730" y="-279" font-family="Helvetica,sans-Serif" font-size="10.00">GraphAlgos::dijkstra</text>
</a>
</g>
</g>
<!-- Node1&#45;&gt;Node14 -->
<g id="edge14" class="edge">
<title>Node1&#45;&gt;Node14</title>
<path fill="none" stroke="midnightblue" d="M833.19,-255.61C812.3,-260.9 788.15,-267.02 768.58,-271.98"/>
<polygon fill="midnightblue" stroke="midnightblue" points="834.31,-258.94 843.15,-253.09 832.6,-252.15 834.31,-258.94"/>
</g>
<!-- Node15 -->
<g id="node15" class="node">
<title>Node15</title>
<g id="a_node15"><a xlink:href="../../d0/d85/class_visualization.html#a83a40506ae13f42fefad3449d644909a" target="_top" xlink:title=" ">
<polygon fill="none" stroke="black" points="478,-139.5 478,-169.5 618,-169.5 618,-139.5 478,-139.5"/>
<text text-anchor="start" x="486" y="-157.5" font-family="Helvetica,sans-Serif" font-size="10.00">Visualization::displayCurrent</text>
<text text-anchor="middle" x="548" y="-146.5" font-family="Helvetica,sans-Serif" font-size="10.00">Round</text>
</a>
</g>
</g>
<!-- Node1&#45;&gt;Node15 -->
<g id="edge15" class="edge">
<title>Node1&#45;&gt;Node15</title>
<path fill="none" stroke="midnightblue" d="M831.4,-246.36C784.4,-247.46 712.49,-244.91 654,-224.5 619.46,-212.45 585.3,-186.33 565.72,-169.63"/>
<polygon fill="midnightblue" stroke="midnightblue" points="831.73,-249.85 841.62,-246.05 831.52,-242.85 831.73,-249.85"/>
</g>
<!-- Node16 -->
<g id="node16" class="node">
<title>Node16</title>
<g id="a_node16"><a xlink:href="../../d6/dcc/class_protocol.html#aa1fc30a5134e08b800865f53a14708a6" target="_top" xlink:title=" ">
<polygon fill="none" stroke="black" points="671.5,-196 671.5,-215 788.5,-215 788.5,-196 671.5,-196"/>
<text text-anchor="middle" x="730" y="-203" font-family="Helvetica,sans-Serif" font-size="10.00">Protocol::displayResult</text>
</a>
</g>
</g>
<!-- Node1&#45;&gt;Node16 -->
<g id="edge16" class="edge">
<title>Node1&#45;&gt;Node16</title>
<path fill="none" stroke="midnightblue" d="M833.19,-231.39C812.3,-226.1 788.15,-219.98 768.58,-215.02"/>
<polygon fill="midnightblue" stroke="midnightblue" points="832.6,-234.85 843.15,-233.91 834.31,-228.06 832.6,-234.85"/>
</g>
<!-- Node17 -->
<g id="node17" class="node">
<title>Node17</title>
<g id="a_node17"><a xlink:href="../../da/d74/class_grid.html#ac3e508275af5f0cf630771bbd73e7108" target="_top" xlink:title=" ">
<polygon fill="none" stroke="black" points="656,-158 656,-177 804,-177 804,-158 656,-158"/>
<text text-anchor="middle" x="730" y="-165" font-family="Helvetica,sans-Serif" font-size="10.00">Grid::executeOnEveryElement</text>
</a>
</g>
</g>
<!-- Node1&#45;&gt;Node17 -->
<g id="edge17" class="edge">
<title>Node1&#45;&gt;Node17</title>
<path fill="none" stroke="midnightblue" d="M863.6,-227.01C849.21,-214.21 827.68,-196.94 806,-186.5 798.01,-182.65 789.16,-179.53 780.42,-177"/>
<polygon fill="midnightblue" stroke="midnightblue" points="861.46,-229.78 871.2,-233.94 866.17,-224.61 861.46,-229.78"/>
</g>
<!-- Node18 -->
<g id="node18" class="node">
<title>Node18</title>
<g id="a_node18"><a xlink:href="../../da/d6e/anti_virus_8cpp.html#a8cc88dbb2b65ee8f1c5e52ae8dd01807" target="_top" xlink:title=" ">
<polygon fill="none" stroke="black" points="698,-120 698,-139 762,-139 762,-120 698,-120"/>
<text text-anchor="middle" x="730" y="-127" font-family="Helvetica,sans-Serif" font-size="10.00">operator&lt;&lt;</text>
</a>
</g>
</g>
<!-- Node1&#45;&gt;Node18 -->
<g id="edge18" class="edge">
<title>Node1&#45;&gt;Node18</title>
<path fill="none" stroke="midnightblue" d="M871.44,-225.11C859.2,-203.44 835.97,-167.93 806,-148.5 792.93,-140.02 776.3,-135.33 762.03,-132.73"/>
<polygon fill="midnightblue" stroke="midnightblue" points="868.41,-226.87 876.27,-233.98 874.56,-223.53 868.41,-226.87"/>
</g>
<!-- Node19 -->
<g id="node19" class="node">
<title>Node19</title>
<g id="a_node19"><a xlink:href="../../da/d74/class_grid.html#aec7885d1f815b35b32ec7a605f714acd" target="_top" xlink:title=" ">
<polygon fill="none" stroke="black" points="689,-82 689,-101 771,-101 771,-82 689,-82"/>
<text text-anchor="middle" x="730" y="-89" font-family="Helvetica,sans-Serif" font-size="10.00">Grid::operator=</text>
</a>
</g>
</g>
<!-- Node1&#45;&gt;Node19 -->
<g id="edge19" class="edge">
<title>Node1&#45;&gt;Node19</title>
<path fill="none" stroke="midnightblue" d="M875.4,-223.82C866.01,-194.53 844.28,-139.77 806,-110.5 795.97,-102.83 783.19,-98.23 771.04,-95.48"/>
<polygon fill="midnightblue" stroke="midnightblue" points="872.14,-225.15 878.4,-233.7 878.84,-223.11 872.14,-225.15"/>
</g>
<!-- Node20 -->
<g id="node20" class="node">
<title>Node20</title>
<g id="a_node20"><a xlink:href="../../d7/d8b/class_graphics.html#ac8f2a0735ce7724a2b76718029201269" target="_top" xlink:title=" ">
<polygon fill="none" stroke="black" points="654,-6 654,-25 806,-25 806,-6 654,-6"/>
<text text-anchor="middle" x="730" y="-13" font-family="Helvetica,sans-Serif" font-size="10.00">Graphics::terminalGraphicsRun</text>
</a>
</g>
</g>
<!-- Node1&#45;&gt;Node20 -->
<g id="edge21" class="edge">
<title>Node1&#45;&gt;Node20</title>
<path fill="none" stroke="midnightblue" d="M879.87,-223.72C876.39,-182.22 862.35,-85.66 806,-34.5 801.72,-30.62 796.77,-27.5 791.48,-25.01"/>
<polygon fill="midnightblue" stroke="midnightblue" points="876.39,-224.16 880.59,-233.89 883.37,-223.66 876.39,-224.16"/>
</g>
<!-- Node22 -->
<g id="node22" class="node">
<title>Node22</title>
<g id="a_node22"><a xlink:href="../../d9/dbf/class_window.html#a59515fc5a56e86d5a46d771595daac55" target="_top" xlink:title=" ">
<polygon fill="none" stroke="black" points="687,-44 687,-63 773,-63 773,-44 687,-44"/>
<text text-anchor="middle" x="730" y="-51" font-family="Helvetica,sans-Serif" font-size="10.00">Window::update</text>
</a>
</g>
</g>
<!-- Node1&#45;&gt;Node22 -->
<g id="edge23" class="edge">
<title>Node1&#45;&gt;Node22</title>
<path fill="none" stroke="midnightblue" d="M878.03,-223.42C871.62,-187.53 853.1,-112.39 806,-72.5 796.78,-64.69 784.77,-60.02 773.07,-57.25"/>
<polygon fill="midnightblue" stroke="midnightblue" points="874.62,-224.3 879.7,-233.6 881.53,-223.17 874.62,-224.3"/>
</g>
<!-- Node3 -->
<g id="node3" class="node">
<title>Node3</title>
<g id="a_node3"><a xlink:href="../../d2/d5c/class_iface.html#abae0122b800731a979c9f8e4c3a58176" target="_top" xlink:title=" ">
<polygon fill="none" stroke="black" points="351,-481 351,-500 418,-500 418,-481 351,-481"/>
<text text-anchor="middle" x="384.5" y="-488" font-family="Helvetica,sans-Serif" font-size="10.00">Iface::round</text>
</a>
</g>
</g>
<!-- Node2&#45;&gt;Node3 -->
<g id="edge2" class="edge">
<title>Node2&#45;&gt;Node3</title>
<path fill="none" stroke="midnightblue" d="M474.41,-491.6C454.85,-491.36 434.64,-491.11 418.44,-490.91"/>
<polygon fill="midnightblue" stroke="midnightblue" points="474.52,-495.1 484.56,-491.73 474.6,-488.1 474.52,-495.1"/>
</g>
<!-- Node4 -->
<g id="node4" class="node">
<title>Node4</title>
<g id="a_node4"><a xlink:href="../../d2/d5c/class_iface.html#a44e6d0db22abbce5cb8c132e5f1d4284" target="_top" xlink:title=" ">
<polygon fill="none" stroke="black" points="229,-481 229,-500 291,-500 291,-481 229,-481"/>
<text text-anchor="middle" x="260" y="-488" font-family="Helvetica,sans-Serif" font-size="10.00">Iface::start</text>
</a>
</g>
</g>
<!-- Node3&#45;&gt;Node4 -->
<g id="edge3" class="edge">
<title>Node3&#45;&gt;Node4</title>
<path fill="none" stroke="midnightblue" d="M340.6,-490.5C324.27,-490.5 306.03,-490.5 291.13,-490.5"/>
<polygon fill="midnightblue" stroke="midnightblue" points="340.99,-494 350.99,-490.5 340.99,-487 340.99,-494"/>
</g>
<!-- Node5 -->
<g id="node5" class="node">
<title>Node5</title>
<g id="a_node5"><a xlink:href="../../dc/d90/class_anti_virus.html#affe3f62a87b880cc964188d9ddb9d562" target="_top" xlink:title=" ">
<polygon fill="none" stroke="black" points="74,-481 74,-500 193,-500 193,-481 74,-481"/>
<text text-anchor="middle" x="133.5" y="-488" font-family="Helvetica,sans-Serif" font-size="10.00">AntiVirus::startInterface</text>
</a>
</g>
</g>
<!-- Node4&#45;&gt;Node5 -->
<g id="edge4" class="edge">
<title>Node4&#45;&gt;Node5</title>
<path fill="none" stroke="midnightblue" d="M218.83,-490.5C210.62,-490.5 201.82,-490.5 193.12,-490.5"/>
<polygon fill="midnightblue" stroke="midnightblue" points="218.86,-494 228.86,-490.5 218.86,-487 218.86,-494"/>
</g>
<!-- Node6 -->
<g id="node6" class="node">
<title>Node6</title>
<g id="a_node6"><a xlink:href="../../df/d0a/main_8cpp.html#ae66f6b31b5ad750f1fe042a706a4e3d4" target="_top" xlink:title=" ">
<polygon fill="none" stroke="black" points="0,-481 0,-500 38,-500 38,-481 0,-481"/>
<text text-anchor="middle" x="19" y="-488" font-family="Helvetica,sans-Serif" font-size="10.00">main</text>
</a>
</g>
</g>
<!-- Node5&#45;&gt;Node6 -->
<g id="edge5" class="edge">
<title>Node5&#45;&gt;Node6</title>
<path fill="none" stroke="midnightblue" d="M63.65,-490.5C54.29,-490.5 45.43,-490.5 38.16,-490.5"/>
<polygon fill="midnightblue" stroke="midnightblue" points="63.94,-494 73.94,-490.5 63.94,-487 63.94,-494"/>
</g>
<!-- Node7&#45;&gt;Node8 -->
<g id="edge7" class="edge">
<title>Node7&#45;&gt;Node8</title>
<path fill="none" stroke="midnightblue" d="M648.85,-451.5C630.64,-451.5 611.88,-451.5 595.61,-451.5"/>
<polygon fill="midnightblue" stroke="midnightblue" points="648.89,-455 658.89,-451.5 648.89,-448 648.89,-455"/>
</g>
<!-- Node8&#45;&gt;Node3 -->
<g id="edge9" class="edge">
<title>Node8&#45;&gt;Node3</title>
<path fill="none" stroke="midnightblue" d="M497.51,-463.45C471.71,-469.68 440.87,-477.13 418.08,-482.63"/>
<polygon fill="midnightblue" stroke="midnightblue" points="498.59,-466.79 507.49,-461.04 496.95,-459.99 498.59,-466.79"/>
</g>
<!-- Node9 -->
<g id="node9" class="node">
<title>Node9</title>
<g id="a_node9"><a xlink:href="../../d2/d5c/class_iface.html#ad724ec2c6a2aa884f61de19193affc6a" target="_top" xlink:title=" ">
<polygon fill="none" stroke="black" points="327,-442 327,-461 442,-461 442,-442 327,-442"/>
<text text-anchor="middle" x="384.5" y="-449" font-family="Helvetica,sans-Serif" font-size="10.00">Iface::requestLEGACY</text>
</a>
</g>
</g>
<!-- Node8&#45;&gt;Node9 -->
<g id="edge8" class="edge">
<title>Node8&#45;&gt;Node9</title>
<path fill="none" stroke="midnightblue" d="M490.25,-451.5C474.65,-451.5 457.73,-451.5 442.13,-451.5"/>
<polygon fill="midnightblue" stroke="midnightblue" points="490.29,-455 500.29,-451.5 490.29,-448 490.29,-455"/>
</g>
<!-- Node12 -->
<g id="node12" class="node">
<title>Node12</title>
<g id="a_node12"><a xlink:href="../../d2/d5c/class_iface.html#a6afe73763b17570a7a884ffeca597c0e" target="_top" xlink:title=" ">
<polygon fill="none" stroke="black" points="500.5,-310 500.5,-329 595.5,-329 595.5,-310 500.5,-310"/>
<text text-anchor="middle" x="548" y="-317" font-family="Helvetica,sans-Serif" font-size="10.00">Iface::initAntiVirus</text>
</a>
</g>
</g>
<!-- Node11&#45;&gt;Node12 -->
<g id="edge12" class="edge">
<title>Node11&#45;&gt;Node12</title>
<path fill="none" stroke="midnightblue" d="M675.66,-319.5C650.22,-319.5 620.05,-319.5 595.55,-319.5"/>
<polygon fill="midnightblue" stroke="midnightblue" points="675.89,-323 685.89,-319.5 675.89,-316 675.89,-323"/>
</g>
<!-- Node13 -->
<g id="node13" class="node">
<title>Node13</title>
<g id="a_node13"><a xlink:href="../../dc/d90/class_anti_virus.html#a3b3aed962d274c4333a8c9ac191816a0" target="_top" xlink:title=" ">
<polygon fill="none" stroke="black" points="333.5,-310 333.5,-329 435.5,-329 435.5,-310 333.5,-310"/>
<text text-anchor="middle" x="384.5" y="-317" font-family="Helvetica,sans-Serif" font-size="10.00">AntiVirus::AntiVirus</text>
</a>
</g>
</g>
<!-- Node12&#45;&gt;Node13 -->
<g id="edge13" class="edge">
<title>Node12&#45;&gt;Node13</title>
<path fill="none" stroke="midnightblue" d="M490.09,-319.5C472.38,-319.5 452.99,-319.5 435.77,-319.5"/>
<polygon fill="midnightblue" stroke="midnightblue" points="490.29,-323 500.29,-319.5 490.29,-316 490.29,-323"/>
</g>
<!-- Node21 -->
<g id="node21" class="node">
<title>Node21</title>
<g id="a_node21"><a xlink:href="../../d7/d8b/class_graphics.html#ac4526fe4a93fbb8b3d24240952cfdfc5" target="_top" xlink:title=" ">
<polygon fill="none" stroke="black" points="486,-0.5 486,-30.5 610,-30.5 610,-0.5 486,-0.5"/>
<text text-anchor="start" x="494" y="-18.5" font-family="Helvetica,sans-Serif" font-size="10.00">Graphics::displayCurrent</text>
<text text-anchor="middle" x="548" y="-7.5" font-family="Helvetica,sans-Serif" font-size="10.00">Round</text>
</a>
</g>
</g>
<!-- Node20&#45;&gt;Node21 -->
<g id="edge22" class="edge">
<title>Node20&#45;&gt;Node21</title>
<path fill="none" stroke="midnightblue" d="M643.66,-15.5C632.38,-15.5 621,-15.5 610.24,-15.5"/>
<polygon fill="midnightblue" stroke="midnightblue" points="643.97,-19 653.97,-15.5 643.97,-12 643.97,-19"/>
</g>
<!-- Node22&#45;&gt;Node15 -->
<g id="edge24" class="edge">
<title>Node22&#45;&gt;Node15</title>
<path fill="none" stroke="midnightblue" d="M676.78,-63.74C668.95,-66.12 661.12,-69.01 654,-72.5 618.27,-90 583.16,-121 563.96,-139.46"/>
<polygon fill="midnightblue" stroke="midnightblue" points="677.96,-67.04 686.65,-60.98 676.07,-60.3 677.96,-67.04"/>
</g>
</g>
</svg>
        <g id="navigator" transform="translate(0 0)" fill="#404254">
                <rect fill="#f2f5e9" fill-opacity="0.5" stroke="#606060" stroke-width=".5" x="0" y="0" width="60" height="60"/>
                <use id="zoomplus" xlink:href="#zoomPlus" x="17" y="9" onmousedown="handleZoom(evt,'in')"/>
                <use id="zoomminus" xlink:href="#zoomMin" x="42" y="9" onmousedown="handleZoom(evt,'out')"/>
                <use id="reset" xlink:href="#resetDef" x="30" y="36" onmousedown="handleReset()"/>
                <g id="arrowUp" xlink:href="#dirArrow" transform="translate(30 24)" onmousedown="handlePan(0,-1)">
                  <use xlink:href="#rim" fill="#404040">
                        <set attributeName="fill" to="#808080" begin="arrowUp.mouseover" end="arrowUp.mouseout"/>
                  </use>
                  <path fill="none" stroke="white" stroke-width="1.5" d="M0,-3.0v7 M-2.5,-0.5L0,-3.0L2.5,-0.5"/>
                </g>
                <g id="arrowRight" xlink:href="#dirArrow" transform="rotate(90) translate(36 -43)" onmousedown="handlePan(1,0)">
                  <use xlink:href="#rim" fill="#404040">
                        <set attributeName="fill" to="#808080" begin="arrowRight.mouseover" end="arrowRight.mouseout"/>
                  </use>
                  <path fill="none" stroke="white" stroke-width="1.5" d="M0,-3.0v7 M-2.5,-0.5L0,-3.0L2.5,-0.5"/>
                </g>
                <g id="arrowDown" xlink:href="#dirArrow" transform="rotate(180) translate(-30 -48)" onmousedown="handlePan(0,1)">
                  <use xlink:href="#rim" fill="#404040">
                        <set attributeName="fill" to="#808080" begin="arrowDown.mouseover" end="arrowDown.mouseout"/>
                  </use>
                  <path fill="none" stroke="white" stroke-width="1.5" d="M0,-3.0v7 M-2.5,-0.5L0,-3.0L2.5,-0.5"/>
                </g>
                <g id="arrowLeft" xlink:href="#dirArrow" transform="rotate(270) translate(-36 17)" onmousedown="handlePan(-1,0)">
                  <use xlink:href="#rim" fill="#404040">
                        <set attributeName="fill" to="#808080" begin="arrowLeft.mouseover" end="arrowLeft.mouseout"/>
                  </use>
                  <path fill="none" stroke="white" stroke-width="1.5" d="M0,-3.0v7 M-2.5,-0.5L0,-3.0L2.5,-0.5"/>
                </g>
        </g>
        <svg viewBox="0 0 15 15" width="100%" height="30px" preserveAspectRatio="xMaxYMin meet">
         <g id="arrow_out" transform="scale(0.3 0.3)">
          <a xlink:href="class_grid_a862cf2f474e31195bea649b08cfb7b46_icgraph_org.svg" target="_base">
           <rect id="button" ry="5" rx="5" y="6" x="6" height="38" width="38"
                fill="#f2f5e9" fill-opacity="0.5" stroke="#606060" stroke-width="1.0"/>
           <path id="arrow"
             d="M 11.500037,31.436501 C 11.940474,20.09759 22.043105,11.32322 32.158766,21.979434 L 37.068811,17.246167 C 37.068811,17.246167 37.088388,32 37.088388,32 L 22.160133,31.978069 C 22.160133,31.978069 26.997745,27.140456 26.997745,27.140456 C 18.528582,18.264221 13.291696,25.230495 11.500037,31.436501 z"
             style="fill:#404040;"/>
          </a>
         </g>
        </svg>
</svg>
