<?xml version="1.0" encoding="UTF-8" standalone="no"?>
<!DOCTYPE svg PUBLIC "-//W3C//DTD SVG 1.1//EN"
 "http://www.w3.org/Graphics/SVG/1.1/DTD/svg11.dtd">
<!-- Generated by graphviz version 2.44.1 (20200629.0846)
 -->
<!-- Title: Grid::getCountryByID Pages: 1 -->
<svg width="1048pt" height="218pt"
 viewBox="0.00 0.00 1048.00 218.00" xmlns="http://www.w3.org/2000/svg" xmlns:xlink="http://www.w3.org/1999/xlink">
<g id="graph0" class="graph" transform="scale(1 1) rotate(0) translate(4 214)">
<title>Grid::getCountryByID</title>
<!-- Node1 -->
<g id="node1" class="node">
<title>Node1</title>
<g id="a_node1"><a xlink:title=" ">
<polygon fill="#bfbfbf" stroke="black" points="931,-95.5 931,-114.5 1040,-114.5 1040,-95.5 931,-95.5"/>
<text text-anchor="middle" x="985.5" y="-102.5" font-family="Helvetica,sans-Serif" font-size="10.00">Grid::getCountryByID</text>
</a>
</g>
</g>
<!-- Node2 -->
<g id="node2" class="node">
<title>Node2</title>
<g id="a_node2"><a xlink:href="../../da/df6/class_logic.html#a95e67ed4c9141cbf3efdf6a720993e59" target="_top" xlink:title=" ">
<polygon fill="none" stroke="black" points="750,-190.5 750,-209.5 863,-209.5 863,-190.5 750,-190.5"/>
<text text-anchor="middle" x="806.5" y="-197.5" font-family="Helvetica,sans-Serif" font-size="10.00">Logic::calculateBorder</text>
</a>
</g>
</g>
<!-- Node1&#45;&gt;Node2 -->
<g id="edge1" class="edge">
<title>Node1&#45;&gt;Node2</title>
<path fill="none" stroke="midnightblue" d="M967.52,-121.98C950.54,-138.07 922.97,-161.82 895,-176 882.92,-182.13 869.08,-186.84 856.03,-190.41"/>
<polygon fill="midnightblue" stroke="midnightblue" points="970.22,-124.24 974.97,-114.77 965.35,-119.21 970.22,-124.24"/>
</g>
<!-- Node3 -->
<g id="node3" class="node">
<title>Node3</title>
<g id="a_node3"><a xlink:href="../../da/df6/class_logic.html#a7ebaa13c8a671d82c669431478524784" target="_top" xlink:title=" ">
<polygon fill="none" stroke="black" points="571.5,-152.5 571.5,-171.5 666.5,-171.5 666.5,-152.5 571.5,-152.5"/>
<text text-anchor="middle" x="619" y="-159.5" font-family="Helvetica,sans-Serif" font-size="10.00">Logic::simulateTO</text>
</a>
</g>
</g>
<!-- Node1&#45;&gt;Node3 -->
<g id="edge17" class="edge">
<title>Node1&#45;&gt;Node3</title>
<path fill="none" stroke="midnightblue" d="M953.86,-118.6C936.86,-125.56 915.13,-133.5 895,-138 816.2,-155.63 721.99,-160.45 666.8,-161.69"/>
<polygon fill="midnightblue" stroke="midnightblue" points="955.42,-121.75 963.28,-114.65 952.71,-115.29 955.42,-121.75"/>
</g>
<!-- Node5 -->
<g id="node5" class="node">
<title>Node5</title>
<g id="a_node5"><a xlink:href="../../d2/d5c/class_iface.html#abae0122b800731a979c9f8e4c3a58176" target="_top" xlink:title=" ">
<polygon fill="none" stroke="black" points="429,-114.5 429,-133.5 496,-133.5 496,-114.5 429,-114.5"/>
<text text-anchor="middle" x="462.5" y="-121.5" font-family="Helvetica,sans-Serif" font-size="10.00">Iface::round</text>
</a>
</g>
</g>
<!-- Node1&#45;&gt;Node5 -->
<g id="edge14" class="edge">
<title>Node1&#45;&gt;Node5</title>
<path fill="none" stroke="midnightblue" d="M920.55,-107.94C911.96,-108.31 903.27,-108.67 895,-109 746.14,-114.91 568.33,-120.69 496.25,-122.97"/>
<polygon fill="midnightblue" stroke="midnightblue" points="920.71,-111.43 930.55,-107.5 920.41,-104.44 920.71,-111.43"/>
</g>
<!-- Node9 -->
<g id="node9" class="node">
<title>Node9</title>
<g id="a_node9"><a xlink:href="../../d9/d64/class_a_i.html#a6afa7ebeca7011cfffbc5a0df60c112f" target="_top" xlink:title=" ">
<polygon fill="none" stroke="black" points="556,-76.5 556,-95.5 682,-95.5 682,-76.5 556,-76.5"/>
<text text-anchor="middle" x="619" y="-83.5" font-family="Helvetica,sans-Serif" font-size="10.00">AI::calculatePutVaccines</text>
</a>
</g>
</g>
<!-- Node1&#45;&gt;Node9 -->
<g id="edge8" class="edge">
<title>Node1&#45;&gt;Node9</title>
<path fill="none" stroke="midnightblue" d="M920.69,-101.67C853.61,-98.18 748.75,-92.71 682.26,-89.25"/>
<polygon fill="midnightblue" stroke="midnightblue" points="920.55,-105.17 930.72,-102.2 920.91,-98.18 920.55,-105.17"/>
</g>
<!-- Node10 -->
<g id="node10" class="node">
<title>Node10</title>
<g id="a_node10"><a xlink:href="../../d9/dbf/class_window.html#a3d7f68f2fe4c1e7d787353b056090ea4" target="_top" xlink:title=" ">
<polygon fill="none" stroke="black" points="718,-38.5 718,-57.5 895,-57.5 895,-38.5 718,-38.5"/>
<text text-anchor="middle" x="806.5" y="-45.5" font-family="Helvetica,sans-Serif" font-size="10.00">Window::createAcquiredDistrictsMap</text>
</a>
</g>
</g>
<!-- Node1&#45;&gt;Node10 -->
<g id="edge10" class="edge">
<title>Node1&#45;&gt;Node10</title>
<path fill="none" stroke="midnightblue" d="M951.04,-91.89C934.32,-85.54 913.72,-78.01 895,-72 878.8,-66.8 860.7,-61.72 845.18,-57.58"/>
<polygon fill="midnightblue" stroke="midnightblue" points="949.79,-95.16 960.38,-95.47 952.3,-88.62 949.79,-95.16"/>
</g>
<!-- Node14 -->
<g id="node14" class="node">
<title>Node14</title>
<g id="a_node14"><a xlink:href="../../d9/dbf/class_window.html#ab5efaea1f6d653d0404cb3f17b0e7e4c" target="_top" xlink:title=" ">
<polygon fill="none" stroke="black" points="752.5,-0.5 752.5,-19.5 860.5,-19.5 860.5,-0.5 752.5,-0.5"/>
<text text-anchor="middle" x="806.5" y="-7.5" font-family="Helvetica,sans-Serif" font-size="10.00">Window::showStatus</text>
</a>
</g>
</g>
<!-- Node1&#45;&gt;Node14 -->
<g id="edge15" class="edge">
<title>Node1&#45;&gt;Node14</title>
<path fill="none" stroke="midnightblue" d="M969,-87.56C952.43,-70.03 924.53,-43.59 895,-29 884.41,-23.77 872.39,-19.97 860.73,-17.21"/>
<polygon fill="midnightblue" stroke="midnightblue" points="966.83,-90.37 976.18,-95.36 971.98,-85.63 966.83,-90.37"/>
</g>
<!-- Node2&#45;&gt;Node3 -->
<g id="edge2" class="edge">
<title>Node2&#45;&gt;Node3</title>
<path fill="none" stroke="midnightblue" d="M748.83,-188.39C722.44,-182.99 691.45,-176.64 666.47,-171.52"/>
<polygon fill="midnightblue" stroke="midnightblue" points="748.19,-191.83 758.69,-190.41 749.6,-184.98 748.19,-191.83"/>
</g>
<!-- Node4 -->
<g id="node4" class="node">
<title>Node4</title>
<g id="a_node4"><a xlink:href="../../d2/d5c/class_iface.html#ad724ec2c6a2aa884f61de19193affc6a" target="_top" xlink:title=" ">
<polygon fill="none" stroke="black" points="405,-152.5 405,-171.5 520,-171.5 520,-152.5 405,-152.5"/>
<text text-anchor="middle" x="462.5" y="-159.5" font-family="Helvetica,sans-Serif" font-size="10.00">Iface::requestLEGACY</text>
</a>
</g>
</g>
<!-- Node3&#45;&gt;Node4 -->
<g id="edge3" class="edge">
<title>Node3&#45;&gt;Node4</title>
<path fill="none" stroke="midnightblue" d="M561.2,-162C547.83,-162 533.57,-162 520.2,-162"/>
<polygon fill="midnightblue" stroke="midnightblue" points="561.23,-165.5 571.23,-162 561.23,-158.5 561.23,-165.5"/>
</g>
<!-- Node3&#45;&gt;Node5 -->
<g id="edge4" class="edge">
<title>Node3&#45;&gt;Node5</title>
<path fill="none" stroke="midnightblue" d="M569.11,-149.97C545.32,-144.12 517.38,-137.25 496.21,-132.04"/>
<polygon fill="midnightblue" stroke="midnightblue" points="568.47,-153.42 579.01,-152.41 570.14,-146.62 568.47,-153.42"/>
</g>
<!-- Node6 -->
<g id="node6" class="node">
<title>Node6</title>
<g id="a_node6"><a xlink:href="../../d2/d5c/class_iface.html#a44e6d0db22abbce5cb8c132e5f1d4284" target="_top" xlink:title=" ">
<polygon fill="none" stroke="black" points="268,-114.5 268,-133.5 330,-133.5 330,-114.5 268,-114.5"/>
<text text-anchor="middle" x="299" y="-121.5" font-family="Helvetica,sans-Serif" font-size="10.00">Iface::start</text>
</a>
</g>
</g>
<!-- Node5&#45;&gt;Node6 -->
<g id="edge5" class="edge">
<title>Node5&#45;&gt;Node6</title>
<path fill="none" stroke="midnightblue" d="M418.56,-124C390.69,-124 355.07,-124 330.18,-124"/>
<polygon fill="midnightblue" stroke="midnightblue" points="418.82,-127.5 428.82,-124 418.82,-120.5 418.82,-127.5"/>
</g>
<!-- Node7 -->
<g id="node7" class="node">
<title>Node7</title>
<g id="a_node7"><a xlink:href="../../dc/d90/class_anti_virus.html#affe3f62a87b880cc964188d9ddb9d562" target="_top" xlink:title=" ">
<polygon fill="none" stroke="black" points="74,-114.5 74,-133.5 193,-133.5 193,-114.5 74,-114.5"/>
<text text-anchor="middle" x="133.5" y="-121.5" font-family="Helvetica,sans-Serif" font-size="10.00">AntiVirus::startInterface</text>
</a>
</g>
</g>
<!-- Node6&#45;&gt;Node7 -->
<g id="edge6" class="edge">
<title>Node6&#45;&gt;Node7</title>
<path fill="none" stroke="midnightblue" d="M257.61,-124C238.18,-124 214.54,-124 193.18,-124"/>
<polygon fill="midnightblue" stroke="midnightblue" points="257.63,-127.5 267.63,-124 257.63,-120.5 257.63,-127.5"/>
</g>
<!-- Node8 -->
<g id="node8" class="node">
<title>Node8</title>
<g id="a_node8"><a xlink:href="../../df/d0a/main_8cpp.html#ae66f6b31b5ad750f1fe042a706a4e3d4" target="_top" xlink:title=" ">
<polygon fill="none" stroke="black" points="0,-114.5 0,-133.5 38,-133.5 38,-114.5 0,-114.5"/>
<text text-anchor="middle" x="19" y="-121.5" font-family="Helvetica,sans-Serif" font-size="10.00">main</text>
</a>
</g>
</g>
<!-- Node7&#45;&gt;Node8 -->
<g id="edge7" class="edge">
<title>Node7&#45;&gt;Node8</title>
<path fill="none" stroke="midnightblue" d="M63.65,-124C54.29,-124 45.43,-124 38.16,-124"/>
<polygon fill="midnightblue" stroke="midnightblue" points="63.94,-127.5 73.94,-124 63.94,-120.5 63.94,-127.5"/>
</g>
<!-- Node9&#45;&gt;Node5 -->
<g id="edge9" class="edge">
<title>Node9&#45;&gt;Node5</title>
<path fill="none" stroke="midnightblue" d="M569.11,-98.03C545.32,-103.88 517.38,-110.75 496.21,-115.96"/>
<polygon fill="midnightblue" stroke="midnightblue" points="570.14,-101.38 579.01,-95.59 568.47,-94.58 570.14,-101.38"/>
</g>
<!-- Node11 -->
<g id="node11" class="node">
<title>Node11</title>
<g id="a_node11"><a xlink:href="../../d9/dbf/class_window.html#a613473425472a8fa471f2cbd4926aa2e" target="_top" xlink:title=" ">
<polygon fill="none" stroke="black" points="568,-38.5 568,-57.5 670,-57.5 670,-38.5 568,-38.5"/>
<text text-anchor="middle" x="619" y="-45.5" font-family="Helvetica,sans-Serif" font-size="10.00">Window::createGrid</text>
</a>
</g>
</g>
<!-- Node10&#45;&gt;Node11 -->
<g id="edge11" class="edge">
<title>Node10&#45;&gt;Node11</title>
<path fill="none" stroke="midnightblue" d="M707.9,-48C694.81,-48 681.86,-48 670.08,-48"/>
<polygon fill="midnightblue" stroke="midnightblue" points="707.91,-51.5 717.91,-48 707.91,-44.5 707.91,-51.5"/>
</g>
<!-- Node12 -->
<g id="node12" class="node">
<title>Node12</title>
<g id="a_node12"><a xlink:href="../../d9/dbf/class_window.html#a59515fc5a56e86d5a46d771595daac55" target="_top" xlink:title=" ">
<polygon fill="none" stroke="black" points="419.5,-19.5 419.5,-38.5 505.5,-38.5 505.5,-19.5 419.5,-19.5"/>
<text text-anchor="middle" x="462.5" y="-26.5" font-family="Helvetica,sans-Serif" font-size="10.00">Window::update</text>
</a>
</g>
</g>
<!-- Node11&#45;&gt;Node12 -->
<g id="edge12" class="edge">
<title>Node11&#45;&gt;Node12</title>
<path fill="none" stroke="midnightblue" d="M557.75,-40.59C540.34,-38.45 521.71,-36.16 505.65,-34.18"/>
<polygon fill="midnightblue" stroke="midnightblue" points="557.49,-44.08 567.84,-41.83 558.34,-37.14 557.49,-44.08"/>
</g>
<!-- Node13 -->
<g id="node13" class="node">
<title>Node13</title>
<g id="a_node13"><a xlink:href="../../d0/d85/class_visualization.html#a83a40506ae13f42fefad3449d644909a" target="_top" xlink:title=" ">
<polygon fill="none" stroke="black" points="229,-14 229,-44 369,-44 369,-14 229,-14"/>
<text text-anchor="start" x="237" y="-32" font-family="Helvetica,sans-Serif" font-size="10.00">Visualization::displayCurrent</text>
<text text-anchor="middle" x="299" y="-21" font-family="Helvetica,sans-Serif" font-size="10.00">Round</text>
</a>
</g>
</g>
<!-- Node12&#45;&gt;Node13 -->
<g id="edge13" class="edge">
<title>Node12&#45;&gt;Node13</title>
<path fill="none" stroke="midnightblue" d="M409.43,-29C396.55,-29 382.56,-29 369.01,-29"/>
<polygon fill="midnightblue" stroke="midnightblue" points="409.49,-32.5 419.49,-29 409.49,-25.5 409.49,-32.5"/>
</g>
<!-- Node14&#45;&gt;Node12 -->
<g id="edge16" class="edge">
<title>Node14&#45;&gt;Node12</title>
<path fill="none" stroke="midnightblue" d="M742.14,-13.52C673.17,-17.35 564.84,-23.37 505.62,-26.66"/>
<polygon fill="midnightblue" stroke="midnightblue" points="742.65,-17 752.44,-12.95 742.26,-10.01 742.65,-17"/>
</g>
</g>
</svg>
