<?xml version="1.0" encoding="UTF-8" standalone="no"?>
<!DOCTYPE svg PUBLIC "-//W3C//DTD SVG 1.1//EN"
 "http://www.w3.org/Graphics/SVG/1.1/DTD/svg11.dtd">
<!-- Generated by graphviz version 2.44.1 (20200629.0846)
 -->
<!-- Title: Grid::getHeight Pages: 1 -->
<svg width="932pt" height="521pt"
 viewBox="0.00 0.00 932.00 520.95" xmlns="http://www.w3.org/2000/svg" xmlns:xlink="http://www.w3.org/1999/xlink">
<g id="graph0" class="graph" transform="scale(1 1) rotate(0) translate(4 516.95)">
<title>Grid::getHeight</title>
<!-- Node1 -->
<g id="node1" class="node">
<title>Node1</title>
<g id="a_node1"><a xlink:title=" ">
<polygon fill="#bfbfbf" stroke="black" points="842,-234 842,-253 924,-253 924,-234 842,-234"/>
<text text-anchor="middle" x="883" y="-241" font-family="Helvetica,sans-Serif" font-size="10.00">Grid::getHeight</text>
</a>
</g>
</g>
<!-- Node2 -->
<g id="node2" class="node">
<title>Node2</title>
<g id="a_node2"><a xlink:href="../../d9/d64/class_a_i.html#a6afa7ebeca7011cfffbc5a0df60c112f" target="_top" xlink:title=" ">
<polygon fill="none" stroke="black" points="485,-483 485,-502 611,-502 611,-483 485,-483"/>
<text text-anchor="middle" x="548" y="-490" font-family="Helvetica,sans-Serif" font-size="10.00">AI::calculatePutVaccines</text>
</a>
</g>
</g>
<!-- Node1&#45;&gt;Node2 -->
<g id="edge1" class="edge">
<title>Node1&#45;&gt;Node2</title>
<path fill="none" stroke="midnightblue" d="M882.35,-263.28C881.98,-309.36 873.92,-423.91 806,-476.5 742.2,-525.9 640.6,-513.59 586.23,-502.04"/>
<polygon fill="midnightblue" stroke="midnightblue" points="885.85,-263.11 882.31,-253.12 878.85,-263.13 885.85,-263.11"/>
</g>
<!-- Node7 -->
<g id="node7" class="node">
<title>Node7</title>
<g id="a_node7"><a xlink:href="../../da/df6/class_logic.html#acf435c045c675cb3ad14f7bf8732940e" target="_top" xlink:title=" ">
<polygon fill="none" stroke="black" points="659,-436.5 659,-466.5 801,-466.5 801,-436.5 659,-436.5"/>
<text text-anchor="start" x="667" y="-454.5" font-family="Helvetica,sans-Serif" font-size="10.00">Logic::calculateSpontaneous</text>
<text text-anchor="middle" x="730" y="-443.5" font-family="Helvetica,sans-Serif" font-size="10.00">Healing</text>
</a>
</g>
</g>
<!-- Node1&#45;&gt;Node7 -->
<g id="edge6" class="edge">
<title>Node1&#45;&gt;Node7</title>
<path fill="none" stroke="midnightblue" d="M878.7,-263.25C871.68,-299.4 851.97,-376.57 806,-421.5 799.78,-427.58 792.18,-432.47 784.22,-436.4"/>
<polygon fill="midnightblue" stroke="midnightblue" points="882.21,-263.52 880.55,-253.06 875.32,-262.27 882.21,-263.52"/>
</g>
<!-- Node8 -->
<g id="node8" class="node">
<title>Node8</title>
<g id="a_node8"><a xlink:href="../../da/df6/class_logic.html#a7ebaa13c8a671d82c669431478524784" target="_top" xlink:title=" ">
<polygon fill="none" stroke="black" points="500.5,-442 500.5,-461 595.5,-461 595.5,-442 500.5,-442"/>
<text text-anchor="middle" x="548" y="-449" font-family="Helvetica,sans-Serif" font-size="10.00">Logic::simulateTO</text>
</a>
</g>
</g>
<!-- Node1&#45;&gt;Node8 -->
<g id="edge20" class="edge">
<title>Node1&#45;&gt;Node8</title>
<path fill="none" stroke="midnightblue" d="M877.41,-262.75C868.9,-294.09 847.64,-355.9 806,-388.5 801.69,-391.88 661.12,-425.2 589.74,-441.97"/>
<polygon fill="midnightblue" stroke="midnightblue" points="880.8,-263.59 879.9,-253.04 874.02,-261.86 880.8,-263.59"/>
</g>
<!-- Node10 -->
<g id="node10" class="node">
<title>Node10</title>
<g id="a_node10"><a xlink:href="../../da/df6/class_logic.html#a1a2ddbd7540b8ede1bcc7976d31f9836" target="_top" xlink:title=" ">
<polygon fill="none" stroke="black" points="659,-348.5 659,-378.5 801,-378.5 801,-348.5 659,-348.5"/>
<text text-anchor="start" x="667" y="-366.5" font-family="Helvetica,sans-Serif" font-size="10.00">Logic::calculateSpontaneous</text>
<text text-anchor="middle" x="730" y="-355.5" font-family="Helvetica,sans-Serif" font-size="10.00">HealingLEGACY</text>
</a>
</g>
</g>
<!-- Node1&#45;&gt;Node10 -->
<g id="edge10" class="edge">
<title>Node1&#45;&gt;Node10</title>
<path fill="none" stroke="midnightblue" d="M871.8,-261.85C859.05,-283.18 835.3,-318.07 806,-338.5 800.48,-342.35 794.33,-345.64 787.99,-348.44"/>
<polygon fill="midnightblue" stroke="midnightblue" points="874.88,-263.51 876.87,-253.1 868.83,-260 874.88,-263.51"/>
</g>
<!-- Node11 -->
<g id="node11" class="node">
<title>Node11</title>
<g id="a_node11"><a xlink:href="../../d2/d5c/class_iface.html#a42712663a207dad0227b8fc592c7046b" target="_top" xlink:title=" ">
<polygon fill="none" stroke="black" points="686,-310 686,-329 774,-329 774,-310 686,-310"/>
<text text-anchor="middle" x="730" y="-317" font-family="Helvetica,sans-Serif" font-size="10.00">Iface::createGrid</text>
</a>
</g>
</g>
<!-- Node1&#45;&gt;Node11 -->
<g id="edge11" class="edge">
<title>Node1&#45;&gt;Node11</title>
<path fill="none" stroke="midnightblue" d="M864.33,-259.98C849.72,-272.77 827.89,-290.04 806,-300.5 796.06,-305.25 784.8,-308.91 774.07,-311.68"/>
<polygon fill="midnightblue" stroke="midnightblue" points="866.95,-262.34 872.05,-253.05 862.27,-257.13 866.95,-262.34"/>
</g>
<!-- Node14 -->
<g id="node14" class="node">
<title>Node14</title>
<g id="a_node14"><a xlink:href="../../d2/d5b/class_graph_algos.html#af00f038c0816aca536aacf698936a029" target="_top" xlink:title=" ">
<polygon fill="none" stroke="black" points="677.5,-272 677.5,-291 782.5,-291 782.5,-272 677.5,-272"/>
<text text-anchor="middle" x="730" y="-279" font-family="Helvetica,sans-Serif" font-size="10.00">GraphAlgos::dijkstra</text>
</a>
</g>
</g>
<!-- Node1&#45;&gt;Node14 -->
<g id="edge14" class="edge">
<title>Node1&#45;&gt;Node14</title>
<path fill="none" stroke="midnightblue" d="M834.16,-255.54C813.06,-260.85 788.62,-267 768.83,-271.98"/>
<polygon fill="midnightblue" stroke="midnightblue" points="835.05,-258.92 843.9,-253.09 833.34,-252.14 835.05,-258.92"/>
</g>
<!-- Node15 -->
<g id="node15" class="node">
<title>Node15</title>
<g id="a_node15"><a xlink:href="../../d0/d85/class_visualization.html#a83a40506ae13f42fefad3449d644909a" target="_top" xlink:title=" ">
<polygon fill="none" stroke="black" points="478,-139.5 478,-169.5 618,-169.5 618,-139.5 478,-139.5"/>
<text text-anchor="start" x="486" y="-157.5" font-family="Helvetica,sans-Serif" font-size="10.00">Visualization::displayCurrent</text>
<text text-anchor="middle" x="548" y="-146.5" font-family="Helvetica,sans-Serif" font-size="10.00">Round</text>
</a>
</g>
</g>
<!-- Node1&#45;&gt;Node15 -->
<g id="edge15" class="edge">
<title>Node1&#45;&gt;Node15</title>
<path fill="none" stroke="midnightblue" d="M831.34,-246.41C784.12,-247.49 712.4,-244.87 654,-224.5 619.45,-212.45 585.3,-186.33 565.72,-169.63"/>
<polygon fill="midnightblue" stroke="midnightblue" points="831.72,-249.9 841.62,-246.11 831.52,-242.91 831.72,-249.9"/>
</g>
<!-- Node16 -->
<g id="node16" class="node">
<title>Node16</title>
<g id="a_node16"><a xlink:href="../../d6/dcc/class_protocol.html#aa1fc30a5134e08b800865f53a14708a6" target="_top" xlink:title=" ">
<polygon fill="none" stroke="black" points="671.5,-196 671.5,-215 788.5,-215 788.5,-196 671.5,-196"/>
<text text-anchor="middle" x="730" y="-203" font-family="Helvetica,sans-Serif" font-size="10.00">Protocol::displayResult</text>
</a>
</g>
</g>
<!-- Node1&#45;&gt;Node16 -->
<g id="edge16" class="edge">
<title>Node1&#45;&gt;Node16</title>
<path fill="none" stroke="midnightblue" d="M834.16,-231.46C813.06,-226.15 788.62,-220 768.83,-215.02"/>
<polygon fill="midnightblue" stroke="midnightblue" points="833.34,-234.86 843.9,-233.91 835.05,-228.08 833.34,-234.86"/>
</g>
<!-- Node17 -->
<g id="node17" class="node">
<title>Node17</title>
<g id="a_node17"><a xlink:href="../../da/d74/class_grid.html#ac3e508275af5f0cf630771bbd73e7108" target="_top" xlink:title=" ">
<polygon fill="none" stroke="black" points="656,-158 656,-177 804,-177 804,-158 656,-158"/>
<text text-anchor="middle" x="730" y="-165" font-family="Helvetica,sans-Serif" font-size="10.00">Grid::executeOnEveryElement</text>
</a>
</g>
</g>
<!-- Node1&#45;&gt;Node17 -->
<g id="edge17" class="edge">
<title>Node1&#45;&gt;Node17</title>
<path fill="none" stroke="midnightblue" d="M864.33,-227.02C849.72,-214.23 827.89,-196.96 806,-186.5 798,-182.68 789.14,-179.56 780.4,-177.05"/>
<polygon fill="midnightblue" stroke="midnightblue" points="862.27,-229.87 872.05,-233.95 866.95,-224.66 862.27,-229.87"/>
</g>
<!-- Node18 -->
<g id="node18" class="node">
<title>Node18</title>
<g id="a_node18"><a xlink:href="../../da/d6e/anti_virus_8cpp.html#a8cc88dbb2b65ee8f1c5e52ae8dd01807" target="_top" xlink:title=" ">
<polygon fill="none" stroke="black" points="698,-120 698,-139 762,-139 762,-120 698,-120"/>
<text text-anchor="middle" x="730" y="-127" font-family="Helvetica,sans-Serif" font-size="10.00">operator&lt;&lt;</text>
</a>
</g>
</g>
<!-- Node1&#45;&gt;Node18 -->
<g id="edge18" class="edge">
<title>Node1&#45;&gt;Node18</title>
<path fill="none" stroke="midnightblue" d="M872.25,-225.11C859.79,-203.44 836.18,-167.94 806,-148.5 792.9,-140.06 776.27,-135.37 762,-132.76"/>
<polygon fill="midnightblue" stroke="midnightblue" points="869.26,-226.94 877.17,-233.98 875.38,-223.54 869.26,-226.94"/>
</g>
<!-- Node19 -->
<g id="node19" class="node">
<title>Node19</title>
<g id="a_node19"><a xlink:href="../../da/d74/class_grid.html#aec7885d1f815b35b32ec7a605f714acd" target="_top" xlink:title=" ">
<polygon fill="none" stroke="black" points="689,-82 689,-101 771,-101 771,-82 689,-82"/>
<text text-anchor="middle" x="730" y="-89" font-family="Helvetica,sans-Serif" font-size="10.00">Grid::operator=</text>
</a>
</g>
</g>
<!-- Node1&#45;&gt;Node19 -->
<g id="edge19" class="edge">
<title>Node1&#45;&gt;Node19</title>
<path fill="none" stroke="midnightblue" d="M876.24,-223.82C866.64,-194.52 844.49,-139.75 806,-110.5 795.95,-102.86 783.17,-98.27 771.01,-95.52"/>
<polygon fill="midnightblue" stroke="midnightblue" points="873.01,-225.19 879.32,-233.7 879.69,-223.11 873.01,-225.19"/>
</g>
<!-- Node20 -->
<g id="node20" class="node">
<title>Node20</title>
<g id="a_node20"><a xlink:href="../../d7/d8b/class_graphics.html#ac8f2a0735ce7724a2b76718029201269" target="_top" xlink:title=" ">
<polygon fill="none" stroke="black" points="654,-6 654,-25 806,-25 806,-6 654,-6"/>
<text text-anchor="middle" x="730" y="-13" font-family="Helvetica,sans-Serif" font-size="10.00">Graphics::terminalGraphicsRun</text>
</a>
</g>
</g>
<!-- Node1&#45;&gt;Node20 -->
<g id="edge21" class="edge">
<title>Node1&#45;&gt;Node20</title>
<path fill="none" stroke="midnightblue" d="M880.77,-223.72C877.08,-182.21 862.55,-85.62 806,-34.5 801.72,-30.63 796.75,-27.52 791.46,-25.03"/>
<polygon fill="midnightblue" stroke="midnightblue" points="877.29,-224.18 881.54,-233.88 884.27,-223.65 877.29,-224.18"/>
</g>
<!-- Node22 -->
<g id="node22" class="node">
<title>Node22</title>
<g id="a_node22"><a xlink:href="../../d9/dbf/class_window.html#a59515fc5a56e86d5a46d771595daac55" target="_top" xlink:title=" ">
<polygon fill="none" stroke="black" points="687,-44 687,-63 773,-63 773,-44 687,-44"/>
<text text-anchor="middle" x="730" y="-51" font-family="Helvetica,sans-Serif" font-size="10.00">Window::update</text>
</a>
</g>
</g>
<!-- Node1&#45;&gt;Node22 -->
<g id="edge23" class="edge">
<title>Node1&#45;&gt;Node22</title>
<path fill="none" stroke="midnightblue" d="M878.9,-223.42C872.28,-187.52 853.3,-112.36 806,-72.5 796.76,-64.71 784.74,-60.05 773.05,-57.28"/>
<polygon fill="midnightblue" stroke="midnightblue" points="875.51,-224.33 880.64,-233.6 882.41,-223.16 875.51,-224.33"/>
</g>
<!-- Node3 -->
<g id="node3" class="node">
<title>Node3</title>
<g id="a_node3"><a xlink:href="../../d2/d5c/class_iface.html#abae0122b800731a979c9f8e4c3a58176" target="_top" xlink:title=" ">
<polygon fill="none" stroke="black" points="351,-481 351,-500 418,-500 418,-481 351,-481"/>
<text text-anchor="middle" x="384.5" y="-488" font-family="Helvetica,sans-Serif" font-size="10.00">Iface::round</text>
</a>
</g>
</g>
<!-- Node2&#45;&gt;Node3 -->
<g id="edge2" class="edge">
<title>Node2&#45;&gt;Node3</title>
<path fill="none" stroke="midnightblue" d="M474.41,-491.6C454.85,-491.36 434.64,-491.11 418.44,-490.91"/>
<polygon fill="midnightblue" stroke="midnightblue" points="474.52,-495.1 484.56,-491.73 474.6,-488.1 474.52,-495.1"/>
</g>
<!-- Node4 -->
<g id="node4" class="node">
<title>Node4</title>
<g id="a_node4"><a xlink:href="../../d2/d5c/class_iface.html#a44e6d0db22abbce5cb8c132e5f1d4284" target="_top" xlink:title=" ">
<polygon fill="none" stroke="black" points="229,-481 229,-500 291,-500 291,-481 229,-481"/>
<text text-anchor="middle" x="260" y="-488" font-family="Helvetica,sans-Serif" font-size="10.00">Iface::start</text>
</a>
</g>
</g>
<!-- Node3&#45;&gt;Node4 -->
<g id="edge3" class="edge">
<title>Node3&#45;&gt;Node4</title>
<path fill="none" stroke="midnightblue" d="M340.6,-490.5C324.27,-490.5 306.03,-490.5 291.13,-490.5"/>
<polygon fill="midnightblue" stroke="midnightblue" points="340.99,-494 350.99,-490.5 340.99,-487 340.99,-494"/>
</g>
<!-- Node5 -->
<g id="node5" class="node">
<title>Node5</title>
<g id="a_node5"><a xlink:href="../../dc/d90/class_anti_virus.html#affe3f62a87b880cc964188d9ddb9d562" target="_top" xlink:title=" ">
<polygon fill="none" stroke="black" points="74,-481 74,-500 193,-500 193,-481 74,-481"/>
<text text-anchor="middle" x="133.5" y="-488" font-family="Helvetica,sans-Serif" font-size="10.00">AntiVirus::startInterface</text>
</a>
</g>
</g>
<!-- Node4&#45;&gt;Node5 -->
<g id="edge4" class="edge">
<title>Node4&#45;&gt;Node5</title>
<path fill="none" stroke="midnightblue" d="M218.83,-490.5C210.62,-490.5 201.82,-490.5 193.12,-490.5"/>
<polygon fill="midnightblue" stroke="midnightblue" points="218.86,-494 228.86,-490.5 218.86,-487 218.86,-494"/>
</g>
<!-- Node6 -->
<g id="node6" class="node">
<title>Node6</title>
<g id="a_node6"><a xlink:href="../../df/d0a/main_8cpp.html#ae66f6b31b5ad750f1fe042a706a4e3d4" target="_top" xlink:title=" ">
<polygon fill="none" stroke="black" points="0,-481 0,-500 38,-500 38,-481 0,-481"/>
<text text-anchor="middle" x="19" y="-488" font-family="Helvetica,sans-Serif" font-size="10.00">main</text>
</a>
</g>
</g>
<!-- Node5&#45;&gt;Node6 -->
<g id="edge5" class="edge">
<title>Node5&#45;&gt;Node6</title>
<path fill="none" stroke="midnightblue" d="M63.65,-490.5C54.29,-490.5 45.43,-490.5 38.16,-490.5"/>
<polygon fill="midnightblue" stroke="midnightblue" points="63.94,-494 73.94,-490.5 63.94,-487 63.94,-494"/>
</g>
<!-- Node7&#45;&gt;Node8 -->
<g id="edge7" class="edge">
<title>Node7&#45;&gt;Node8</title>
<path fill="none" stroke="midnightblue" d="M648.85,-451.5C630.64,-451.5 611.88,-451.5 595.61,-451.5"/>
<polygon fill="midnightblue" stroke="midnightblue" points="648.89,-455 658.89,-451.5 648.89,-448 648.89,-455"/>
</g>
<!-- Node8&#45;&gt;Node3 -->
<g id="edge9" class="edge">
<title>Node8&#45;&gt;Node3</title>
<path fill="none" stroke="midnightblue" d="M497.51,-463.45C471.71,-469.68 440.87,-477.13 418.08,-482.63"/>
<polygon fill="midnightblue" stroke="midnightblue" points="498.59,-466.79 507.49,-461.04 496.95,-459.99 498.59,-466.79"/>
</g>
<!-- Node9 -->
<g id="node9" class="node">
<title>Node9</title>
<g id="a_node9"><a xlink:href="../../d2/d5c/class_iface.html#ad724ec2c6a2aa884f61de19193affc6a" target="_top" xlink:title=" ">
<polygon fill="none" stroke="black" points="327,-442 327,-461 442,-461 442,-442 327,-442"/>
<text text-anchor="middle" x="384.5" y="-449" font-family="Helvetica,sans-Serif" font-size="10.00">Iface::requestLEGACY</text>
</a>
</g>
</g>
<!-- Node8&#45;&gt;Node9 -->
<g id="edge8" class="edge">
<title>Node8&#45;&gt;Node9</title>
<path fill="none" stroke="midnightblue" d="M490.25,-451.5C474.65,-451.5 457.73,-451.5 442.13,-451.5"/>
<polygon fill="midnightblue" stroke="midnightblue" points="490.29,-455 500.29,-451.5 490.29,-448 490.29,-455"/>
</g>
<!-- Node12 -->
<g id="node12" class="node">
<title>Node12</title>
<g id="a_node12"><a xlink:href="../../d2/d5c/class_iface.html#a6afe73763b17570a7a884ffeca597c0e" target="_top" xlink:title=" ">
<polygon fill="none" stroke="black" points="500.5,-310 500.5,-329 595.5,-329 595.5,-310 500.5,-310"/>
<text text-anchor="middle" x="548" y="-317" font-family="Helvetica,sans-Serif" font-size="10.00">Iface::initAntiVirus</text>
</a>
</g>
</g>
<!-- Node11&#45;&gt;Node12 -->
<g id="edge12" class="edge">
<title>Node11&#45;&gt;Node12</title>
<path fill="none" stroke="midnightblue" d="M675.66,-319.5C650.22,-319.5 620.05,-319.5 595.55,-319.5"/>
<polygon fill="midnightblue" stroke="midnightblue" points="675.89,-323 685.89,-319.5 675.89,-316 675.89,-323"/>
</g>
<!-- Node13 -->
<g id="node13" class="node">
<title>Node13</title>
<g id="a_node13"><a xlink:href="../../dc/d90/class_anti_virus.html#a3b3aed962d274c4333a8c9ac191816a0" target="_top" xlink:title=" ">
<polygon fill="none" stroke="black" points="333.5,-310 333.5,-329 435.5,-329 435.5,-310 333.5,-310"/>
<text text-anchor="middle" x="384.5" y="-317" font-family="Helvetica,sans-Serif" font-size="10.00">AntiVirus::AntiVirus</text>
</a>
</g>
</g>
<!-- Node12&#45;&gt;Node13 -->
<g id="edge13" class="edge">
<title>Node12&#45;&gt;Node13</title>
<path fill="none" stroke="midnightblue" d="M490.09,-319.5C472.38,-319.5 452.99,-319.5 435.77,-319.5"/>
<polygon fill="midnightblue" stroke="midnightblue" points="490.29,-323 500.29,-319.5 490.29,-316 490.29,-323"/>
</g>
<!-- Node21 -->
<g id="node21" class="node">
<title>Node21</title>
<g id="a_node21"><a xlink:href="../../d7/d8b/class_graphics.html#ac4526fe4a93fbb8b3d24240952cfdfc5" target="_top" xlink:title=" ">
<polygon fill="none" stroke="black" points="486,-0.5 486,-30.5 610,-30.5 610,-0.5 486,-0.5"/>
<text text-anchor="start" x="494" y="-18.5" font-family="Helvetica,sans-Serif" font-size="10.00">Graphics::displayCurrent</text>
<text text-anchor="middle" x="548" y="-7.5" font-family="Helvetica,sans-Serif" font-size="10.00">Round</text>
</a>
</g>
</g>
<!-- Node20&#45;&gt;Node21 -->
<g id="edge22" class="edge">
<title>Node20&#45;&gt;Node21</title>
<path fill="none" stroke="midnightblue" d="M643.66,-15.5C632.38,-15.5 621,-15.5 610.24,-15.5"/>
<polygon fill="midnightblue" stroke="midnightblue" points="643.97,-19 653.97,-15.5 643.97,-12 643.97,-19"/>
</g>
<!-- Node22&#45;&gt;Node15 -->
<g id="edge24" class="edge">
<title>Node22&#45;&gt;Node15</title>
<path fill="none" stroke="midnightblue" d="M676.78,-63.74C668.95,-66.12 661.12,-69.01 654,-72.5 618.27,-90 583.16,-121 563.96,-139.46"/>
<polygon fill="midnightblue" stroke="midnightblue" points="677.96,-67.04 686.65,-60.98 676.07,-60.3 677.96,-67.04"/>
</g>
</g>
</svg>
