<?xml version="1.0" encoding="UTF-8" standalone="no"?>
<!DOCTYPE svg PUBLIC "-//W3C//DTD SVG 1.1//EN"
 "http://www.w3.org/Graphics/SVG/1.1/DTD/svg11.dtd">
<!-- Generated by graphviz version 2.44.1 (20200629.0846)
 -->
<!-- Title: C:/Users/lukac/CLionProjects/virus_real/src/protocol.h Pages: 1 -->
<!--zoomable 543 -->
<svg id="main" version="1.1" xmlns="http://www.w3.org/2000/svg" xmlns:xlink="http://www.w3.org/1999/xlink" xml:space="preserve" onload="init(evt)">
<style type="text/css"><![CDATA[
.edge:hover path { stroke: red; }
.edge:hover polygon { stroke: red; fill: red; }
]]></style>
<script type="text/javascript"><![CDATA[
var edges = document.getElementsByTagName('g');
if (edges && edges.length) {
  for (var i=0;i<edges.length;i++) {
    if (edges[i].id.substr(0,4)=='edge') {
      edges[i].setAttribute('class','edge');
    }
  }
}
]]></script>
        <defs>
                <circle id="rim" cx="0" cy="0" r="7"/>
                <circle id="rim2" cx="0" cy="0" r="3.5"/>
                <g id="zoomPlus">
                        <use xlink:href="#rim" fill="#404040">
                                <set attributeName="fill" to="#808080" begin="zoomplus.mouseover" end="zoomplus.mouseout"/>
                        </use>
                        <path d="M-4,0h8M0,-4v8" fill="none" stroke="white" stroke-width="1.5" pointer-events="none"/>
                </g>
                <g id="zoomMin">
                        <use xlink:href="#rim" fill="#404040">
                                <set attributeName="fill" to="#808080" begin="zoomminus.mouseover" end="zoomminus.mouseout"/>
                        </use>
                        <path d="M-4,0h8" fill="none" stroke="white" stroke-width="1.5" pointer-events="none"/>
                </g>
                <g id="dirArrow">
                        <path fill="none" stroke="white" stroke-width="1.5" d="M0,-3.0v7 M-2.5,-0.5L0,-3.0L2.5,-0.5"/>
                </g>
               <g id="resetDef">
                       <use xlink:href="#rim2" fill="#404040">
                               <set attributeName="fill" to="#808080" begin="reset.mouseover" end="reset.mouseout"/>
                       </use>
               </g>
        </defs>

<script type="text/javascript">
var viewWidth = 743;
var viewHeight = 543;
var sectionId = 'dynsection-0';
</script>
<script xlink:href="../../svgpan.js"/>
<svg id="graph" class="graph">
<g id="viewport">
<title>C:/Users/lukac/CLionProjects/virus_real/src/protocol.h</title>
<!-- Node1 -->
<g id="node1" class="node">
<title>Node1</title>
<g id="a_node1"><a xlink:title=" ">
<polygon fill="#bfbfbf" stroke="black" points="436.5,-504.5 436.5,-534.5 581.5,-534.5 581.5,-504.5 436.5,-504.5"/>
<text text-anchor="start" x="444.5" y="-522.5" font-family="Helvetica,sans-Serif" font-size="10.00">C:/Users/lukac/CLionProjects</text>
<text text-anchor="middle" x="509" y="-511.5" font-family="Helvetica,sans-Serif" font-size="10.00">/virus_real/src/protocol.h</text>
</a>
</g>
</g>
<!-- Node2 -->
<g id="node2" class="node">
<title>Node2</title>
<g id="a_node2"><a xlink:title=" ">
<polygon fill="none" stroke="#bfbfbf" points="649,-112.5 649,-131.5 703,-131.5 703,-112.5 649,-112.5"/>
<text text-anchor="middle" x="676" y="-119.5" font-family="Helvetica,sans-Serif" font-size="10.00">iostream</text>
</a>
</g>
</g>
<!-- Node1&#45;&gt;Node2 -->
<g id="edge1" class="edge">
<title>Node1&#45;&gt;Node2</title>
<path fill="none" stroke="midnightblue" d="M581.75,-511.49C647.82,-500.65 735,-473.06 735,-403 735,-403 735,-403 735,-233 735,-196.02 708.79,-159.47 691.31,-139.21"/>
<polygon fill="midnightblue" stroke="midnightblue" points="693.74,-136.67 684.45,-131.56 688.53,-141.34 693.74,-136.67"/>
</g>
<!-- Node3 -->
<g id="node3" class="node">
<title>Node3</title>
<g id="a_node3"><a xlink:href="../../db/db2/iface_8h.html" target="_top" xlink:title=" ">
<polygon fill="none" stroke="black" points="269.5,-448.5 269.5,-467.5 314.5,-467.5 314.5,-448.5 269.5,-448.5"/>
<text text-anchor="middle" x="292" y="-455.5" font-family="Helvetica,sans-Serif" font-size="10.00">iface.h</text>
</a>
</g>
</g>
<!-- Node1&#45;&gt;Node3 -->
<g id="edge2" class="edge">
<title>Node1&#45;&gt;Node3</title>
<path fill="none" stroke="midnightblue" d="M457.85,-504.47C416.56,-493.15 359.74,-477.57 324.46,-467.9"/>
<polygon fill="midnightblue" stroke="midnightblue" points="325.25,-464.49 314.68,-465.22 323.4,-471.24 325.25,-464.49"/>
</g>
<!-- Node3&#45;&gt;Node3 -->
<g id="edge29" class="edge">
<title>Node3&#45;&gt;Node3</title>
<path fill="none" stroke="midnightblue" d="M309.48,-467.57C321.15,-470.27 332.5,-467.08 332.5,-458 332.5,-451.62 326.89,-448.14 319.5,-447.58"/>
<polygon fill="midnightblue" stroke="midnightblue" points="319.15,-444.1 309.48,-448.43 319.74,-451.07 319.15,-444.1"/>
</g>
<!-- Node4 -->
<g id="node4" class="node">
<title>Node4</title>
<g id="a_node4"><a xlink:href="../../da/d15/grid_8h.html" target="_top" xlink:title=" ">
<polygon fill="none" stroke="black" points="399.5,-224.5 399.5,-243.5 440.5,-243.5 440.5,-224.5 399.5,-224.5"/>
<text text-anchor="middle" x="420" y="-231.5" font-family="Helvetica,sans-Serif" font-size="10.00">grid.h</text>
</a>
</g>
</g>
<!-- Node3&#45;&gt;Node4 -->
<g id="edge3" class="edge">
<title>Node3&#45;&gt;Node4</title>
<path fill="none" stroke="midnightblue" d="M307.74,-448.31C333.91,-433.06 386.33,-398.98 415,-356 434.21,-327.21 436.5,-314.32 432,-280 430.84,-271.18 428.47,-261.63 426.13,-253.61"/>
<polygon fill="midnightblue" stroke="midnightblue" points="429.4,-252.34 423.09,-243.83 422.71,-254.42 429.4,-252.34"/>
</g>
<!-- Node19 -->
<g id="node19" class="node">
<title>Node19</title>
<g id="a_node19"><a xlink:href="../../d3/daa/logic_8h.html" target="_top" xlink:title=" ">
<polygon fill="none" stroke="black" points="194.5,-280.5 194.5,-299.5 239.5,-299.5 239.5,-280.5 194.5,-280.5"/>
<text text-anchor="middle" x="217" y="-287.5" font-family="Helvetica,sans-Serif" font-size="10.00">logic.h</text>
</a>
</g>
</g>
<!-- Node3&#45;&gt;Node19 -->
<g id="edge30" class="edge">
<title>Node3&#45;&gt;Node19</title>
<path fill="none" stroke="midnightblue" d="M272.59,-448.37C258.27,-440.91 239.67,-428.69 230,-412 211.36,-379.82 212.21,-334.68 214.56,-309.62"/>
<polygon fill="midnightblue" stroke="midnightblue" points="218.04,-309.97 215.68,-299.64 211.08,-309.19 218.04,-309.97"/>
</g>
<!-- Node20 -->
<g id="node20" class="node">
<title>Node20</title>
<g id="a_node20"><a xlink:href="../../db/d16/config_8h.html" target="_top" xlink:title=" ">
<polygon fill="none" stroke="black" points="0,-224.5 0,-243.5 50,-243.5 50,-224.5 0,-224.5"/>
<text text-anchor="middle" x="25" y="-231.5" font-family="Helvetica,sans-Serif" font-size="10.00">config.h</text>
</a>
</g>
</g>
<!-- Node3&#45;&gt;Node20 -->
<g id="edge50" class="edge">
<title>Node3&#45;&gt;Node20</title>
<path fill="none" stroke="midnightblue" d="M275.59,-448.43C259.97,-439.98 236.09,-426.29 217,-412 146.07,-358.9 71.54,-283.72 40.24,-251.12"/>
<polygon fill="midnightblue" stroke="midnightblue" points="42.68,-248.6 33.25,-243.78 37.62,-253.44 42.68,-248.6"/>
</g>
<!-- Node21 -->
<g id="node21" class="node">
<title>Node21</title>
<g id="a_node21"><a xlink:href="../../d1/df3/ai_8h.html" target="_top" xlink:title=" ">
<polygon fill="none" stroke="black" points="306,-392.5 306,-411.5 338,-411.5 338,-392.5 306,-392.5"/>
<text text-anchor="middle" x="322" y="-399.5" font-family="Helvetica,sans-Serif" font-size="10.00">ai.h</text>
</a>
</g>
</g>
<!-- Node3&#45;&gt;Node21 -->
<g id="edge39" class="edge">
<title>Node3&#45;&gt;Node21</title>
<path fill="none" stroke="midnightblue" d="M296.95,-448.08C301.1,-440.61 307.15,-429.72 312.27,-420.52"/>
<polygon fill="midnightblue" stroke="midnightblue" points="315.34,-422.19 317.14,-411.75 309.22,-418.79 315.34,-422.19"/>
</g>
<!-- Node23 -->
<g id="node23" class="node">
<title>Node23</title>
<g id="a_node23"><a xlink:title=" ">
<polygon fill="none" stroke="#bfbfbf" points="238.5,-392.5 238.5,-411.5 287.5,-411.5 287.5,-392.5 238.5,-392.5"/>
<text text-anchor="middle" x="263" y="-399.5" font-family="Helvetica,sans-Serif" font-size="10.00">ctype.h</text>
</a>
</g>
</g>
<!-- Node3&#45;&gt;Node23 -->
<g id="edge49" class="edge">
<title>Node3&#45;&gt;Node23</title>
<path fill="none" stroke="midnightblue" d="M287.21,-448.08C283.24,-440.69 277.47,-429.95 272.57,-420.81"/>
<polygon fill="midnightblue" stroke="midnightblue" points="275.51,-418.91 267.7,-411.75 269.35,-422.22 275.51,-418.91"/>
</g>
<!-- Node5 -->
<g id="node5" class="node">
<title>Node5</title>
<g id="a_node5"><a xlink:title=" ">
<polygon fill="none" stroke="#bfbfbf" points="300,-56.5 300,-75.5 342,-75.5 342,-56.5 300,-56.5"/>
<text text-anchor="middle" x="321" y="-63.5" font-family="Helvetica,sans-Serif" font-size="10.00">vector</text>
</a>
</g>
</g>
<!-- Node4&#45;&gt;Node5 -->
<g id="edge4" class="edge">
<title>Node4&#45;&gt;Node5</title>
<path fill="none" stroke="midnightblue" d="M414.68,-224.08C398.89,-197.61 352.14,-119.21 331.26,-84.21"/>
<polygon fill="midnightblue" stroke="midnightblue" points="334.24,-82.36 326.11,-75.57 328.23,-85.95 334.24,-82.36"/>
</g>
<!-- Node6 -->
<g id="node6" class="node">
<title>Node6</title>
<g id="a_node6"><a xlink:title=" ">
<polygon fill="none" stroke="#bfbfbf" points="124.5,-56.5 124.5,-75.5 183.5,-75.5 183.5,-56.5 124.5,-56.5"/>
<text text-anchor="middle" x="154" y="-63.5" font-family="Helvetica,sans-Serif" font-size="10.00">stdexcept</text>
</a>
</g>
</g>
<!-- Node4&#45;&gt;Node6 -->
<g id="edge5" class="edge">
<title>Node4&#45;&gt;Node6</title>
<path fill="none" stroke="midnightblue" d="M399.35,-227.56C358.1,-215.87 264.27,-185.03 203,-132 187.2,-118.32 173.3,-98.76 164.38,-84.67"/>
<polygon fill="midnightblue" stroke="midnightblue" points="167.24,-82.64 159.04,-75.93 161.27,-86.29 167.24,-82.64"/>
</g>
<!-- Node7 -->
<g id="node7" class="node">
<title>Node7</title>
<g id="a_node7"><a xlink:href="../../d5/d5a/field_8h.html" target="_top" xlink:title=" ">
<polygon fill="none" stroke="black" points="566,-56.5 566,-75.5 608,-75.5 608,-56.5 566,-56.5"/>
<text text-anchor="middle" x="587" y="-63.5" font-family="Helvetica,sans-Serif" font-size="10.00">field.h</text>
</a>
</g>
</g>
<!-- Node4&#45;&gt;Node7 -->
<g id="edge6" class="edge">
<title>Node4&#45;&gt;Node7</title>
<path fill="none" stroke="midnightblue" d="M440.65,-227.46C461.85,-220.92 494.8,-208.29 517,-188 548.98,-158.78 570.4,-111.48 580.43,-85.52"/>
<polygon fill="midnightblue" stroke="midnightblue" points="583.83,-86.41 584.03,-75.82 577.27,-83.97 583.83,-86.41"/>
</g>
<!-- Node12 -->
<g id="node12" class="node">
<title>Node12</title>
<g id="a_node12"><a xlink:href="../../d5/d60/utils_8h.html" target="_top" xlink:title=" ">
<polygon fill="none" stroke="black" points="211.5,-112.5 211.5,-131.5 254.5,-131.5 254.5,-112.5 211.5,-112.5"/>
<text text-anchor="middle" x="233" y="-119.5" font-family="Helvetica,sans-Serif" font-size="10.00">utils.h</text>
</a>
</g>
</g>
<!-- Node4&#45;&gt;Node12 -->
<g id="edge11" class="edge">
<title>Node4&#45;&gt;Node12</title>
<path fill="none" stroke="midnightblue" d="M405.33,-224.37C373.1,-205.41 295.9,-160 256.7,-136.94"/>
<polygon fill="midnightblue" stroke="midnightblue" points="258,-133.64 247.61,-131.59 254.45,-139.68 258,-133.64"/>
</g>
<!-- Node14 -->
<g id="node14" class="node">
<title>Node14</title>
<g id="a_node14"><a xlink:href="../../dc/d5f/country_8h.html" target="_top" xlink:title=" ">
<polygon fill="none" stroke="black" points="410.5,-168.5 410.5,-187.5 467.5,-187.5 467.5,-168.5 410.5,-168.5"/>
<text text-anchor="middle" x="439" y="-175.5" font-family="Helvetica,sans-Serif" font-size="10.00">country.h</text>
</a>
</g>
</g>
<!-- Node4&#45;&gt;Node14 -->
<g id="edge15" class="edge">
<title>Node4&#45;&gt;Node14</title>
<path fill="none" stroke="midnightblue" d="M423.14,-224.08C425.68,-216.85 429.36,-206.41 432.53,-197.4"/>
<polygon fill="midnightblue" stroke="midnightblue" points="435.9,-198.35 435.92,-187.75 429.3,-196.02 435.9,-198.35"/>
</g>
<!-- Node17 -->
<g id="node17" class="node">
<title>Node17</title>
<g id="a_node17"><a xlink:href="../../dd/dae/district_8h.html" target="_top" xlink:title=" ">
<polygon fill="none" stroke="black" points="463,-112.5 463,-131.5 517,-131.5 517,-112.5 463,-112.5"/>
<text text-anchor="middle" x="490" y="-119.5" font-family="Helvetica,sans-Serif" font-size="10.00">district.h</text>
</a>
</g>
</g>
<!-- Node4&#45;&gt;Node17 -->
<g id="edge27" class="edge">
<title>Node4&#45;&gt;Node17</title>
<path fill="none" stroke="midnightblue" d="M436.4,-224.38C449.48,-216.63 467.18,-204.02 477,-188 485.55,-174.05 488.61,-155.54 489.65,-141.85"/>
<polygon fill="midnightblue" stroke="midnightblue" points="493.15,-141.83 490.11,-131.68 486.16,-141.51 493.15,-141.83"/>
</g>
<!-- Node18 -->
<g id="node18" class="node">
<title>Node18</title>
<g id="a_node18"><a xlink:title=" ">
<polygon fill="none" stroke="#bfbfbf" points="492,-56.5 492,-75.5 548,-75.5 548,-56.5 492,-56.5"/>
<text text-anchor="middle" x="520" y="-63.5" font-family="Helvetica,sans-Serif" font-size="10.00">algorithm</text>
</a>
</g>
</g>
<!-- Node4&#45;&gt;Node18 -->
<g id="edge28" class="edge">
<title>Node4&#45;&gt;Node18</title>
<path fill="none" stroke="midnightblue" d="M440.45,-224.36C456.76,-216.68 479.39,-204.17 495,-188 520.34,-161.76 528.42,-148.4 526,-112 525.43,-103.34 524.23,-93.81 523.06,-85.75"/>
<polygon fill="midnightblue" stroke="midnightblue" points="526.48,-84.94 521.49,-75.59 519.56,-86.01 526.48,-84.94"/>
</g>
<!-- Node8 -->
<g id="node8" class="node">
<title>Node8</title>
<g id="a_node8"><a xlink:title=" ">
<polygon fill="none" stroke="#bfbfbf" points="569.5,-0.5 569.5,-19.5 604.5,-19.5 604.5,-0.5 569.5,-0.5"/>
<text text-anchor="middle" x="587" y="-7.5" font-family="Helvetica,sans-Serif" font-size="10.00">map</text>
</a>
</g>
</g>
<!-- Node7&#45;&gt;Node8 -->
<g id="edge7" class="edge">
<title>Node7&#45;&gt;Node8</title>
<path fill="none" stroke="midnightblue" d="M587,-56.08C587,-49.01 587,-38.86 587,-29.99"/>
<polygon fill="midnightblue" stroke="midnightblue" points="590.5,-29.75 587,-19.75 583.5,-29.75 590.5,-29.75"/>
</g>
<!-- Node9 -->
<g id="node9" class="node">
<title>Node9</title>
<g id="a_node9"><a xlink:title=" ">
<polygon fill="none" stroke="#bfbfbf" points="622.5,-0.5 622.5,-19.5 665.5,-19.5 665.5,-0.5 622.5,-0.5"/>
<text text-anchor="middle" x="644" y="-7.5" font-family="Helvetica,sans-Serif" font-size="10.00">queue</text>
</a>
</g>
</g>
<!-- Node7&#45;&gt;Node9 -->
<g id="edge8" class="edge">
<title>Node7&#45;&gt;Node9</title>
<path fill="none" stroke="midnightblue" d="M596.16,-56.32C604.5,-48.42 617.03,-36.55 627.18,-26.94"/>
<polygon fill="midnightblue" stroke="midnightblue" points="629.82,-29.25 634.68,-19.83 625.01,-24.17 629.82,-29.25"/>
</g>
<!-- Node10 -->
<g id="node10" class="node">
<title>Node10</title>
<g id="a_node10"><a xlink:title=" ">
<polygon fill="none" stroke="#bfbfbf" points="499,-0.5 499,-19.5 551,-19.5 551,-0.5 499,-0.5"/>
<text text-anchor="middle" x="525" y="-7.5" font-family="Helvetica,sans-Serif" font-size="10.00">sstream</text>
</a>
</g>
</g>
<!-- Node7&#45;&gt;Node10 -->
<g id="edge9" class="edge">
<title>Node7&#45;&gt;Node10</title>
<path fill="none" stroke="midnightblue" d="M577.04,-56.32C567.87,-48.34 554.06,-36.31 542.97,-26.65"/>
<polygon fill="midnightblue" stroke="midnightblue" points="544.98,-23.76 535.14,-19.83 540.38,-29.04 544.98,-23.76"/>
</g>
<!-- Node11 -->
<g id="node11" class="node">
<title>Node11</title>
<g id="a_node11"><a xlink:title=" ">
<polygon fill="none" stroke="#bfbfbf" points="248,-0.5 248,-19.5 292,-19.5 292,-0.5 248,-0.5"/>
<text text-anchor="middle" x="270" y="-7.5" font-family="Helvetica,sans-Serif" font-size="10.00">cmath</text>
</a>
</g>
</g>
<!-- Node7&#45;&gt;Node11 -->
<g id="edge10" class="edge">
<title>Node7&#45;&gt;Node11</title>
<path fill="none" stroke="midnightblue" d="M565.79,-58.25C562.85,-57.43 559.86,-56.65 557,-56 465.67,-35.24 355.82,-20.92 302.38,-14.62"/>
<polygon fill="midnightblue" stroke="midnightblue" points="302.49,-11.11 292.16,-13.43 301.69,-18.06 302.49,-11.11"/>
</g>
<!-- Node12&#45;&gt;Node5 -->
<g id="edge14" class="edge">
<title>Node12&#45;&gt;Node5</title>
<path fill="none" stroke="midnightblue" d="M247.14,-112.32C260.87,-103.9 281.94,-90.97 298.06,-81.07"/>
<polygon fill="midnightblue" stroke="midnightblue" points="300.2,-83.87 306.9,-75.65 296.54,-77.9 300.2,-83.87"/>
</g>
<!-- Node12&#45;&gt;Node6 -->
<g id="edge12" class="edge">
<title>Node12&#45;&gt;Node6</title>
<path fill="none" stroke="midnightblue" d="M220.31,-112.32C208.1,-103.98 189.42,-91.21 175,-81.35"/>
<polygon fill="midnightblue" stroke="midnightblue" points="176.89,-78.41 166.66,-75.65 172.94,-84.19 176.89,-78.41"/>
</g>
<!-- Node13 -->
<g id="node13" class="node">
<title>Node13</title>
<g id="a_node13"><a xlink:title=" ">
<polygon fill="none" stroke="#bfbfbf" points="210.5,-56.5 210.5,-75.5 255.5,-75.5 255.5,-56.5 210.5,-56.5"/>
<text text-anchor="middle" x="233" y="-63.5" font-family="Helvetica,sans-Serif" font-size="10.00">climits</text>
</a>
</g>
</g>
<!-- Node12&#45;&gt;Node13 -->
<g id="edge13" class="edge">
<title>Node12&#45;&gt;Node13</title>
<path fill="none" stroke="midnightblue" d="M233,-112.08C233,-105.01 233,-94.86 233,-85.99"/>
<polygon fill="midnightblue" stroke="midnightblue" points="236.5,-85.75 233,-75.75 229.5,-85.75 236.5,-85.75"/>
</g>
<!-- Node14&#45;&gt;Node2 -->
<g id="edge17" class="edge">
<title>Node14&#45;&gt;Node2</title>
<path fill="none" stroke="midnightblue" d="M467.59,-170.49C510.49,-160.71 591.52,-142.25 638.91,-131.45"/>
<polygon fill="midnightblue" stroke="midnightblue" points="639.8,-134.84 648.78,-129.2 638.25,-128.01 639.8,-134.84"/>
</g>
<!-- Node14&#45;&gt;Node5 -->
<g id="edge16" class="edge">
<title>Node14&#45;&gt;Node5</title>
<path fill="none" stroke="midnightblue" d="M429.74,-168.37C409.84,-149.81 362.74,-105.91 337.56,-82.44"/>
<polygon fill="midnightblue" stroke="midnightblue" points="339.92,-79.85 330.22,-75.59 335.14,-84.97 339.92,-79.85"/>
</g>
<!-- Node14&#45;&gt;Node12 -->
<g id="edge20" class="edge">
<title>Node14&#45;&gt;Node12</title>
<path fill="none" stroke="midnightblue" d="M410.36,-169.49C372.02,-159.44 304.24,-141.67 264.5,-131.26"/>
<polygon fill="midnightblue" stroke="midnightblue" points="265.36,-127.86 254.8,-128.71 263.58,-134.63 265.36,-127.86"/>
</g>
<!-- Node15 -->
<g id="node15" class="node">
<title>Node15</title>
<g id="a_node15"><a xlink:title=" ">
<polygon fill="none" stroke="#bfbfbf" points="444,-56.5 444,-75.5 474,-75.5 474,-56.5 444,-56.5"/>
<text text-anchor="middle" x="459" y="-63.5" font-family="Helvetica,sans-Serif" font-size="10.00">set</text>
</a>
</g>
</g>
<!-- Node14&#45;&gt;Node15 -->
<g id="edge18" class="edge">
<title>Node14&#45;&gt;Node15</title>
<path fill="none" stroke="midnightblue" d="M440.57,-168.37C443.8,-150.62 451.24,-109.67 455.62,-85.6"/>
<polygon fill="midnightblue" stroke="midnightblue" points="459.09,-86.06 457.44,-75.59 452.21,-84.8 459.09,-86.06"/>
</g>
<!-- Node16 -->
<g id="node16" class="node">
<title>Node16</title>
<g id="a_node16"><a xlink:title=" ">
<polygon fill="none" stroke="#bfbfbf" points="368,-56.5 368,-75.5 426,-75.5 426,-56.5 368,-56.5"/>
<text text-anchor="middle" x="397" y="-63.5" font-family="Helvetica,sans-Serif" font-size="10.00">functional</text>
</a>
</g>
</g>
<!-- Node14&#45;&gt;Node16 -->
<g id="edge19" class="edge">
<title>Node14&#45;&gt;Node16</title>
<path fill="none" stroke="midnightblue" d="M435.7,-168.37C428.87,-150.46 413.01,-108.92 403.85,-84.95"/>
<polygon fill="midnightblue" stroke="midnightblue" points="407.12,-83.69 400.28,-75.59 400.58,-86.18 407.12,-83.69"/>
</g>
<!-- Node14&#45;&gt;Node17 -->
<g id="edge21" class="edge">
<title>Node14&#45;&gt;Node17</title>
<path fill="none" stroke="midnightblue" d="M447.42,-168.08C454.85,-160.22 465.85,-148.57 474.81,-139.08"/>
<polygon fill="midnightblue" stroke="midnightblue" points="477.41,-141.42 481.74,-131.75 472.32,-136.62 477.41,-141.42"/>
</g>
<!-- Node17&#45;&gt;Node5 -->
<g id="edge22" class="edge">
<title>Node17&#45;&gt;Node5</title>
<path fill="none" stroke="midnightblue" d="M463.22,-112.44C432.9,-102.76 383.59,-87 351.73,-76.82"/>
<polygon fill="midnightblue" stroke="midnightblue" points="352.64,-73.43 342.05,-73.73 350.51,-80.1 352.64,-73.43"/>
</g>
<!-- Node17&#45;&gt;Node7 -->
<g id="edge23" class="edge">
<title>Node17&#45;&gt;Node7</title>
<path fill="none" stroke="midnightblue" d="M505.58,-112.32C521,-103.74 544.81,-90.49 562.71,-80.52"/>
<polygon fill="midnightblue" stroke="midnightblue" points="564.42,-83.58 571.45,-75.65 561.01,-77.46 564.42,-83.58"/>
</g>
<!-- Node17&#45;&gt;Node15 -->
<g id="edge25" class="edge">
<title>Node17&#45;&gt;Node15</title>
<path fill="none" stroke="midnightblue" d="M484.88,-112.08C480.59,-104.61 474.34,-93.72 469.06,-84.52"/>
<polygon fill="midnightblue" stroke="midnightblue" points="472.04,-82.68 464.02,-75.75 465.97,-86.17 472.04,-82.68"/>
</g>
<!-- Node17&#45;&gt;Node16 -->
<g id="edge26" class="edge">
<title>Node17&#45;&gt;Node16</title>
<path fill="none" stroke="midnightblue" d="M475.06,-112.32C460.41,-103.82 437.87,-90.73 420.76,-80.8"/>
<polygon fill="midnightblue" stroke="midnightblue" points="422.31,-77.65 411.9,-75.65 418.8,-83.7 422.31,-77.65"/>
</g>
<!-- Node17&#45;&gt;Node18 -->
<g id="edge24" class="edge">
<title>Node17&#45;&gt;Node18</title>
<path fill="none" stroke="midnightblue" d="M494.95,-112.08C499.1,-104.61 505.15,-93.72 510.27,-84.52"/>
<polygon fill="midnightblue" stroke="midnightblue" points="513.34,-86.19 515.14,-75.75 507.22,-82.79 513.34,-86.19"/>
</g>
<!-- Node19&#45;&gt;Node2 -->
<g id="edge37" class="edge">
<title>Node19&#45;&gt;Node2</title>
<path fill="none" stroke="midnightblue" d="M239.69,-287.23C324.59,-280.54 619.41,-256.5 635,-244 666.2,-219 673.79,-169.22 675.55,-141.95"/>
<polygon fill="midnightblue" stroke="midnightblue" points="679.05,-141.92 676,-131.77 672.06,-141.61 679.05,-141.92"/>
</g>
<!-- Node19&#45;&gt;Node4 -->
<g id="edge35" class="edge">
<title>Node19&#45;&gt;Node4</title>
<path fill="none" stroke="midnightblue" d="M239.5,-283.01C276.04,-273.29 348.34,-254.06 389.48,-243.12"/>
<polygon fill="midnightblue" stroke="midnightblue" points="390.47,-246.48 399.23,-240.53 388.67,-239.71 390.47,-246.48"/>
</g>
<!-- Node19&#45;&gt;Node5 -->
<g id="edge32" class="edge">
<title>Node19&#45;&gt;Node5</title>
<path fill="none" stroke="midnightblue" d="M221.08,-280.3C236.48,-247.42 291.3,-130.39 312.53,-85.09"/>
<polygon fill="midnightblue" stroke="midnightblue" points="315.77,-86.42 316.84,-75.88 309.43,-83.45 315.77,-86.42"/>
</g>
<!-- Node19&#45;&gt;Node6 -->
<g id="edge33" class="edge">
<title>Node19&#45;&gt;Node6</title>
<path fill="none" stroke="midnightblue" d="M214.53,-280.3C205.24,-247.56 172.27,-131.38 159.3,-85.67"/>
<polygon fill="midnightblue" stroke="midnightblue" points="162.62,-84.55 156.52,-75.88 155.88,-86.46 162.62,-84.55"/>
</g>
<!-- Node19&#45;&gt;Node11 -->
<g id="edge34" class="edge">
<title>Node19&#45;&gt;Node11</title>
<path fill="none" stroke="midnightblue" d="M194.36,-282.6C154.97,-269.91 78,-237.62 78,-179 78,-179 78,-179 78,-121 78,-87.76 88.9,-76.59 115,-56 150.83,-27.73 203.81,-17.22 237.61,-13.31"/>
<polygon fill="midnightblue" stroke="midnightblue" points="238.28,-16.76 247.87,-12.26 237.56,-9.8 238.28,-16.76"/>
</g>
<!-- Node19&#45;&gt;Node12 -->
<g id="edge38" class="edge">
<title>Node19&#45;&gt;Node12</title>
<path fill="none" stroke="midnightblue" d="M215.83,-280.4C213.36,-260.44 208.42,-209.54 216,-168 217.69,-158.76 221.17,-148.95 224.55,-140.85"/>
<polygon fill="midnightblue" stroke="midnightblue" points="227.76,-142.25 228.63,-131.69 221.37,-139.4 227.76,-142.25"/>
</g>
<!-- Node19&#45;&gt;Node18 -->
<g id="edge31" class="edge">
<title>Node19&#45;&gt;Node18</title>
<path fill="none" stroke="midnightblue" d="M239.67,-288.35C282.72,-286.33 378.36,-278.03 450,-244 507.68,-216.6 527.64,-194.65 540,-132 541.72,-123.28 541.85,-120.7 540,-112 538,-102.59 533.9,-92.76 529.93,-84.7"/>
<polygon fill="midnightblue" stroke="midnightblue" points="532.89,-82.81 525.13,-75.59 526.69,-86.07 532.89,-82.81"/>
</g>
<!-- Node19&#45;&gt;Node20 -->
<g id="edge36" class="edge">
<title>Node19&#45;&gt;Node20</title>
<path fill="none" stroke="midnightblue" d="M194.22,-282.59C161.03,-273.26 99.09,-255.84 60.06,-244.86"/>
<polygon fill="midnightblue" stroke="midnightblue" points="60.75,-241.42 50.18,-242.08 58.86,-248.16 60.75,-241.42"/>
</g>
<!-- Node21&#45;&gt;Node4 -->
<g id="edge40" class="edge">
<title>Node21&#45;&gt;Node4</title>
<path fill="none" stroke="midnightblue" d="M338.02,-395.69C355.15,-389.15 381.78,-376.33 396,-356 417.71,-324.95 420.87,-279.03 420.76,-253.62"/>
<polygon fill="midnightblue" stroke="midnightblue" points="424.26,-253.44 420.53,-243.52 417.26,-253.59 424.26,-253.44"/>
</g>
<!-- Node21&#45;&gt;Node12 -->
<g id="edge42" class="edge">
<title>Node21&#45;&gt;Node12</title>
<path fill="none" stroke="midnightblue" d="M331.56,-392.45C340.09,-384.12 351.99,-370.6 357,-356 359.88,-347.59 359.32,-344.58 357,-336 335.2,-255.23 274.36,-173.58 246.84,-139.52"/>
<polygon fill="midnightblue" stroke="midnightblue" points="249.36,-137.07 240.31,-131.56 243.95,-141.51 249.36,-137.07"/>
</g>
<!-- Node21&#45;&gt;Node19 -->
<g id="edge41" class="edge">
<title>Node21&#45;&gt;Node19</title>
<path fill="none" stroke="midnightblue" d="M309.96,-392.42C298.34,-383.85 280.58,-369.99 267,-356 252.5,-341.06 238.25,-321.97 228.69,-308.36"/>
<polygon fill="midnightblue" stroke="midnightblue" points="231.44,-306.17 222.88,-299.92 225.67,-310.14 231.44,-306.17"/>
</g>
<!-- Node21&#45;&gt;Node20 -->
<g id="edge48" class="edge">
<title>Node21&#45;&gt;Node20</title>
<path fill="none" stroke="midnightblue" d="M306.45,-392.31C257.83,-365.14 108.44,-281.64 49.39,-248.63"/>
<polygon fill="midnightblue" stroke="midnightblue" points="50.83,-245.43 40.4,-243.61 47.42,-251.54 50.83,-245.43"/>
</g>
<!-- Node22 -->
<g id="node22" class="node">
<title>Node22</title>
<g id="a_node22"><a xlink:href="../../d2/d3d/graphalgos_8h.html" target="_top" xlink:title=" ">
<polygon fill="none" stroke="black" points="276,-336.5 276,-355.5 348,-355.5 348,-336.5 276,-336.5"/>
<text text-anchor="middle" x="312" y="-343.5" font-family="Helvetica,sans-Serif" font-size="10.00">graphalgos.h</text>
</a>
</g>
</g>
<!-- Node21&#45;&gt;Node22 -->
<g id="edge43" class="edge">
<title>Node21&#45;&gt;Node22</title>
<path fill="none" stroke="midnightblue" d="M320.35,-392.08C319.02,-384.93 317.12,-374.64 315.46,-365.69"/>
<polygon fill="midnightblue" stroke="midnightblue" points="318.88,-364.95 313.62,-355.75 312,-366.22 318.88,-364.95"/>
</g>
<!-- Node22&#45;&gt;Node4 -->
<g id="edge46" class="edge">
<title>Node22&#45;&gt;Node4</title>
<path fill="none" stroke="midnightblue" d="M312.22,-336.41C313,-322.94 316.31,-296.64 330,-280 345.22,-261.51 369.95,-249.92 389.64,-243.14"/>
<polygon fill="midnightblue" stroke="midnightblue" points="390.94,-246.4 399.4,-240.02 388.81,-239.73 390.94,-246.4"/>
</g>
<!-- Node22&#45;&gt;Node7 -->
<g id="edge45" class="edge">
<title>Node22&#45;&gt;Node7</title>
<path fill="none" stroke="midnightblue" d="M348.18,-343.72C416.32,-339.48 565.08,-321.35 657,-244 705.63,-203.08 748.55,-164 712,-112 690.97,-82.08 648.05,-71.96 618.42,-68.59"/>
<polygon fill="midnightblue" stroke="midnightblue" points="618.45,-65.08 608.17,-67.63 617.8,-72.05 618.45,-65.08"/>
</g>
<!-- Node22&#45;&gt;Node12 -->
<g id="edge44" class="edge">
<title>Node22&#45;&gt;Node12</title>
<path fill="none" stroke="midnightblue" d="M308.6,-336.19C299.45,-312.41 273.67,-244.84 254,-188 248.61,-172.42 242.88,-154.58 238.77,-141.54"/>
<polygon fill="midnightblue" stroke="midnightblue" points="242.07,-140.37 235.74,-131.87 235.39,-142.46 242.07,-140.37"/>
</g>
<!-- Node22&#45;&gt;Node19 -->
<g id="edge47" class="edge">
<title>Node22&#45;&gt;Node19</title>
<path fill="none" stroke="midnightblue" d="M296.74,-336.32C281.78,-327.82 258.75,-314.73 241.27,-304.8"/>
<polygon fill="midnightblue" stroke="midnightblue" points="242.65,-301.55 232.23,-299.65 239.19,-307.64 242.65,-301.55"/>
</g>
</g>
</svg>
        <g id="navigator" transform="translate(0 0)" fill="#404254">
                <rect fill="#f2f5e9" fill-opacity="0.5" stroke="#606060" stroke-width=".5" x="0" y="0" width="60" height="60"/>
                <use id="zoomplus" xlink:href="#zoomPlus" x="17" y="9" onmousedown="handleZoom(evt,'in')"/>
                <use id="zoomminus" xlink:href="#zoomMin" x="42" y="9" onmousedown="handleZoom(evt,'out')"/>
                <use id="reset" xlink:href="#resetDef" x="30" y="36" onmousedown="handleReset()"/>
                <g id="arrowUp" xlink:href="#dirArrow" transform="translate(30 24)" onmousedown="handlePan(0,-1)">
                  <use xlink:href="#rim" fill="#404040">
                        <set attributeName="fill" to="#808080" begin="arrowUp.mouseover" end="arrowUp.mouseout"/>
                  </use>
                  <path fill="none" stroke="white" stroke-width="1.5" d="M0,-3.0v7 M-2.5,-0.5L0,-3.0L2.5,-0.5"/>
                </g>
                <g id="arrowRight" xlink:href="#dirArrow" transform="rotate(90) translate(36 -43)" onmousedown="handlePan(1,0)">
                  <use xlink:href="#rim" fill="#404040">
                        <set attributeName="fill" to="#808080" begin="arrowRight.mouseover" end="arrowRight.mouseout"/>
                  </use>
                  <path fill="none" stroke="white" stroke-width="1.5" d="M0,-3.0v7 M-2.5,-0.5L0,-3.0L2.5,-0.5"/>
                </g>
                <g id="arrowDown" xlink:href="#dirArrow" transform="rotate(180) translate(-30 -48)" onmousedown="handlePan(0,1)">
                  <use xlink:href="#rim" fill="#404040">
                        <set attributeName="fill" to="#808080" begin="arrowDown.mouseover" end="arrowDown.mouseout"/>
                  </use>
                  <path fill="none" stroke="white" stroke-width="1.5" d="M0,-3.0v7 M-2.5,-0.5L0,-3.0L2.5,-0.5"/>
                </g>
                <g id="arrowLeft" xlink:href="#dirArrow" transform="rotate(270) translate(-36 17)" onmousedown="handlePan(-1,0)">
                  <use xlink:href="#rim" fill="#404040">
                        <set attributeName="fill" to="#808080" begin="arrowLeft.mouseover" end="arrowLeft.mouseout"/>
                  </use>
                  <path fill="none" stroke="white" stroke-width="1.5" d="M0,-3.0v7 M-2.5,-0.5L0,-3.0L2.5,-0.5"/>
                </g>
        </g>
        <svg viewBox="0 0 15 15" width="100%" height="30px" preserveAspectRatio="xMaxYMin meet">
         <g id="arrow_out" transform="scale(0.3 0.3)">
          <a xlink:href="protocol_8h__incl_org.svg" target="_base">
           <rect id="button" ry="5" rx="5" y="6" x="6" height="38" width="38"
                fill="#f2f5e9" fill-opacity="0.5" stroke="#606060" stroke-width="1.0"/>
           <path id="arrow"
             d="M 11.500037,31.436501 C 11.940474,20.09759 22.043105,11.32322 32.158766,21.979434 L 37.068811,17.246167 C 37.068811,17.246167 37.088388,32 37.088388,32 L 22.160133,31.978069 C 22.160133,31.978069 26.997745,27.140456 26.997745,27.140456 C 18.528582,18.264221 13.291696,25.230495 11.500037,31.436501 z"
             style="fill:#404040;"/>
          </a>
         </g>
        </svg>
</svg>
