<?xml version="1.0" encoding="UTF-8" standalone="no"?>
<!DOCTYPE svg PUBLIC "-//W3C//DTD SVG 1.1//EN"
 "http://www.w3.org/Graphics/SVG/1.1/DTD/svg11.dtd">
<!-- Generated by graphviz version 2.44.1 (20200629.0846)
 -->
<!-- Title: C:/Users/lukac/CLionProjects/virus_real/src/field.h Pages: 1 -->
<svg width="237pt" height="95pt"
 viewBox="0.00 0.00 236.50 95.00" xmlns="http://www.w3.org/2000/svg" xmlns:xlink="http://www.w3.org/1999/xlink">
<g id="graph0" class="graph" transform="scale(1 1) rotate(0) translate(4 91)">
<title>C:/Users/lukac/CLionProjects/virus_real/src/field.h</title>
<!-- Node1 -->
<g id="node1" class="node">
<title>Node1</title>
<g id="a_node1"><a xlink:title=" ">
<polygon fill="#bfbfbf" stroke="black" points="35,-56.5 35,-86.5 180,-86.5 180,-56.5 35,-56.5"/>
<text text-anchor="start" x="43" y="-74.5" font-family="Helvetica,sans-Serif" font-size="10.00">C:/Users/lukac/CLionProjects</text>
<text text-anchor="middle" x="107.5" y="-63.5" font-family="Helvetica,sans-Serif" font-size="10.00">/virus_real/src/field.h</text>
</a>
</g>
</g>
<!-- Node2 -->
<g id="node2" class="node">
<title>Node2</title>
<g id="a_node2"><a xlink:title=" ">
<polygon fill="none" stroke="#bfbfbf" points="0,-0.5 0,-19.5 35,-19.5 35,-0.5 0,-0.5"/>
<text text-anchor="middle" x="17.5" y="-7.5" font-family="Helvetica,sans-Serif" font-size="10.00">map</text>
</a>
</g>
</g>
<!-- Node1&#45;&gt;Node2 -->
<g id="edge1" class="edge">
<title>Node1&#45;&gt;Node2</title>
<path fill="none" stroke="midnightblue" d="M86.17,-56.4C72.01,-47.04 53.49,-34.79 39.25,-25.38"/>
<polygon fill="midnightblue" stroke="midnightblue" points="40.87,-22.25 30.6,-19.66 37.01,-28.09 40.87,-22.25"/>
</g>
<!-- Node3 -->
<g id="node3" class="node">
<title>Node3</title>
<g id="a_node3"><a xlink:title=" ">
<polygon fill="none" stroke="#bfbfbf" points="53,-0.5 53,-19.5 96,-19.5 96,-0.5 53,-0.5"/>
<text text-anchor="middle" x="74.5" y="-7.5" font-family="Helvetica,sans-Serif" font-size="10.00">queue</text>
</a>
</g>
</g>
<!-- Node1&#45;&gt;Node3 -->
<g id="edge2" class="edge">
<title>Node1&#45;&gt;Node3</title>
<path fill="none" stroke="midnightblue" d="M99.68,-56.4C95.03,-48.02 89.1,-37.33 84.16,-28.42"/>
<polygon fill="midnightblue" stroke="midnightblue" points="87.21,-26.71 79.3,-19.66 81.09,-30.1 87.21,-26.71"/>
</g>
<!-- Node4 -->
<g id="node4" class="node">
<title>Node4</title>
<g id="a_node4"><a xlink:title=" ">
<polygon fill="none" stroke="#bfbfbf" points="114.5,-0.5 114.5,-19.5 166.5,-19.5 166.5,-0.5 114.5,-0.5"/>
<text text-anchor="middle" x="140.5" y="-7.5" font-family="Helvetica,sans-Serif" font-size="10.00">sstream</text>
</a>
</g>
</g>
<!-- Node1&#45;&gt;Node4 -->
<g id="edge3" class="edge">
<title>Node1&#45;&gt;Node4</title>
<path fill="none" stroke="midnightblue" d="M115.32,-56.4C119.97,-48.02 125.9,-37.33 130.84,-28.42"/>
<polygon fill="midnightblue" stroke="midnightblue" points="133.91,-30.1 135.7,-19.66 127.79,-26.71 133.91,-30.1"/>
</g>
<!-- Node5 -->
<g id="node5" class="node">
<title>Node5</title>
<g id="a_node5"><a xlink:title=" ">
<polygon fill="none" stroke="#bfbfbf" points="184.5,-0.5 184.5,-19.5 228.5,-19.5 228.5,-0.5 184.5,-0.5"/>
<text text-anchor="middle" x="206.5" y="-7.5" font-family="Helvetica,sans-Serif" font-size="10.00">cmath</text>
</a>
</g>
</g>
<!-- Node1&#45;&gt;Node5 -->
<g id="edge4" class="edge">
<title>Node1&#45;&gt;Node5</title>
<path fill="none" stroke="midnightblue" d="M130.96,-56.4C146.83,-46.86 167.69,-34.32 183.47,-24.84"/>
<polygon fill="midnightblue" stroke="midnightblue" points="185.33,-27.81 192.09,-19.66 181.72,-21.81 185.33,-27.81"/>
</g>
</g>
</svg>
