<?xml version="1.0" encoding="UTF-8" standalone="no"?>
<!DOCTYPE svg PUBLIC "-//W3C//DTD SVG 1.1//EN"
 "http://www.w3.org/Graphics/SVG/1.1/DTD/svg11.dtd">
<!-- Generated by graphviz version 2.44.1 (20200629.0846)
 -->
<!-- Title: C:/Users/lukac/CLionProjects/virus_real/src/district.h Pages: 1 -->
<svg width="335pt" height="151pt"
 viewBox="0.00 0.00 334.50 151.00" xmlns="http://www.w3.org/2000/svg" xmlns:xlink="http://www.w3.org/1999/xlink">
<g id="graph0" class="graph" transform="scale(1 1) rotate(0) translate(4 147)">
<title>C:/Users/lukac/CLionProjects/virus_real/src/district.h</title>
<!-- Node1 -->
<g id="node1" class="node">
<title>Node1</title>
<g id="a_node1"><a xlink:title=" ">
<polygon fill="#bfbfbf" stroke="black" points="102,-112.5 102,-142.5 247,-142.5 247,-112.5 102,-112.5"/>
<text text-anchor="start" x="110" y="-130.5" font-family="Helvetica,sans-Serif" font-size="10.00">C:/Users/lukac/CLionProjects</text>
<text text-anchor="middle" x="174.5" y="-119.5" font-family="Helvetica,sans-Serif" font-size="10.00">/virus_real/src/district.h</text>
</a>
</g>
</g>
<!-- Node2 -->
<g id="node2" class="node">
<title>Node2</title>
<g id="a_node2"><a xlink:title=" ">
<polygon fill="none" stroke="#bfbfbf" points="26.5,-56.5 26.5,-75.5 68.5,-75.5 68.5,-56.5 26.5,-56.5"/>
<text text-anchor="middle" x="47.5" y="-63.5" font-family="Helvetica,sans-Serif" font-size="10.00">vector</text>
</a>
</g>
</g>
<!-- Node1&#45;&gt;Node2 -->
<g id="edge1" class="edge">
<title>Node1&#45;&gt;Node2</title>
<path fill="none" stroke="midnightblue" d="M144.4,-112.4C123.38,-102.55 95.53,-89.5 75.08,-79.92"/>
<polygon fill="midnightblue" stroke="midnightblue" points="76.52,-76.73 65.98,-75.66 73.55,-83.07 76.52,-76.73"/>
</g>
<!-- Node3 -->
<g id="node3" class="node">
<title>Node3</title>
<g id="a_node3"><a xlink:href="../../d5/d5a/field_8h.html" target="_top" xlink:title=" ">
<polygon fill="none" stroke="black" points="86.5,-56.5 86.5,-75.5 128.5,-75.5 128.5,-56.5 86.5,-56.5"/>
<text text-anchor="middle" x="107.5" y="-63.5" font-family="Helvetica,sans-Serif" font-size="10.00">field.h</text>
</a>
</g>
</g>
<!-- Node1&#45;&gt;Node3 -->
<g id="edge2" class="edge">
<title>Node1&#45;&gt;Node3</title>
<path fill="none" stroke="midnightblue" d="M158.62,-112.4C148.48,-103.4 135.34,-91.72 124.91,-82.47"/>
<polygon fill="midnightblue" stroke="midnightblue" points="127.05,-79.68 117.25,-75.66 122.4,-84.92 127.05,-79.68"/>
</g>
<!-- Node8 -->
<g id="node8" class="node">
<title>Node8</title>
<g id="a_node8"><a xlink:title=" ">
<polygon fill="none" stroke="#bfbfbf" points="146.5,-56.5 146.5,-75.5 202.5,-75.5 202.5,-56.5 146.5,-56.5"/>
<text text-anchor="middle" x="174.5" y="-63.5" font-family="Helvetica,sans-Serif" font-size="10.00">algorithm</text>
</a>
</g>
</g>
<!-- Node1&#45;&gt;Node8 -->
<g id="edge7" class="edge">
<title>Node1&#45;&gt;Node8</title>
<path fill="none" stroke="midnightblue" d="M174.5,-112.4C174.5,-104.47 174.5,-94.46 174.5,-85.86"/>
<polygon fill="midnightblue" stroke="midnightblue" points="178,-85.66 174.5,-75.66 171,-85.66 178,-85.66"/>
</g>
<!-- Node9 -->
<g id="node9" class="node">
<title>Node9</title>
<g id="a_node9"><a xlink:title=" ">
<polygon fill="none" stroke="#bfbfbf" points="220.5,-56.5 220.5,-75.5 250.5,-75.5 250.5,-56.5 220.5,-56.5"/>
<text text-anchor="middle" x="235.5" y="-63.5" font-family="Helvetica,sans-Serif" font-size="10.00">set</text>
</a>
</g>
</g>
<!-- Node1&#45;&gt;Node9 -->
<g id="edge8" class="edge">
<title>Node1&#45;&gt;Node9</title>
<path fill="none" stroke="midnightblue" d="M188.96,-112.4C198.09,-103.49 209.92,-91.95 219.36,-82.74"/>
<polygon fill="midnightblue" stroke="midnightblue" points="221.91,-85.15 226.62,-75.66 217.02,-80.13 221.91,-85.15"/>
</g>
<!-- Node10 -->
<g id="node10" class="node">
<title>Node10</title>
<g id="a_node10"><a xlink:title=" ">
<polygon fill="none" stroke="#bfbfbf" points="268.5,-56.5 268.5,-75.5 326.5,-75.5 326.5,-56.5 268.5,-56.5"/>
<text text-anchor="middle" x="297.5" y="-63.5" font-family="Helvetica,sans-Serif" font-size="10.00">functional</text>
</a>
</g>
</g>
<!-- Node1&#45;&gt;Node10 -->
<g id="edge9" class="edge">
<title>Node1&#45;&gt;Node10</title>
<path fill="none" stroke="midnightblue" d="M203.65,-112.4C223.92,-102.59 250.74,-89.62 270.52,-80.05"/>
<polygon fill="midnightblue" stroke="midnightblue" points="272.12,-83.16 279.6,-75.66 269.08,-76.86 272.12,-83.16"/>
</g>
<!-- Node4 -->
<g id="node4" class="node">
<title>Node4</title>
<g id="a_node4"><a xlink:title=" ">
<polygon fill="none" stroke="#bfbfbf" points="0,-0.5 0,-19.5 35,-19.5 35,-0.5 0,-0.5"/>
<text text-anchor="middle" x="17.5" y="-7.5" font-family="Helvetica,sans-Serif" font-size="10.00">map</text>
</a>
</g>
</g>
<!-- Node3&#45;&gt;Node4 -->
<g id="edge3" class="edge">
<title>Node3&#45;&gt;Node4</title>
<path fill="none" stroke="midnightblue" d="M93.04,-56.32C79,-47.9 57.45,-34.97 40.96,-25.07"/>
<polygon fill="midnightblue" stroke="midnightblue" points="42.3,-21.8 31.92,-19.65 38.7,-27.8 42.3,-21.8"/>
</g>
<!-- Node5 -->
<g id="node5" class="node">
<title>Node5</title>
<g id="a_node5"><a xlink:title=" ">
<polygon fill="none" stroke="#bfbfbf" points="53,-0.5 53,-19.5 96,-19.5 96,-0.5 53,-0.5"/>
<text text-anchor="middle" x="74.5" y="-7.5" font-family="Helvetica,sans-Serif" font-size="10.00">queue</text>
</a>
</g>
</g>
<!-- Node3&#45;&gt;Node5 -->
<g id="edge4" class="edge">
<title>Node3&#45;&gt;Node5</title>
<path fill="none" stroke="midnightblue" d="M102.05,-56.08C97.49,-48.61 90.83,-37.72 85.21,-28.52"/>
<polygon fill="midnightblue" stroke="midnightblue" points="88.05,-26.46 79.85,-19.75 82.08,-30.11 88.05,-26.46"/>
</g>
<!-- Node6 -->
<g id="node6" class="node">
<title>Node6</title>
<g id="a_node6"><a xlink:title=" ">
<polygon fill="none" stroke="#bfbfbf" points="114.5,-0.5 114.5,-19.5 166.5,-19.5 166.5,-0.5 114.5,-0.5"/>
<text text-anchor="middle" x="140.5" y="-7.5" font-family="Helvetica,sans-Serif" font-size="10.00">sstream</text>
</a>
</g>
</g>
<!-- Node3&#45;&gt;Node6 -->
<g id="edge5" class="edge">
<title>Node3&#45;&gt;Node6</title>
<path fill="none" stroke="midnightblue" d="M112.95,-56.08C117.51,-48.61 124.17,-37.72 129.79,-28.52"/>
<polygon fill="midnightblue" stroke="midnightblue" points="132.92,-30.11 135.15,-19.75 126.95,-26.46 132.92,-30.11"/>
</g>
<!-- Node7 -->
<g id="node7" class="node">
<title>Node7</title>
<g id="a_node7"><a xlink:title=" ">
<polygon fill="none" stroke="#bfbfbf" points="184.5,-0.5 184.5,-19.5 228.5,-19.5 228.5,-0.5 184.5,-0.5"/>
<text text-anchor="middle" x="206.5" y="-7.5" font-family="Helvetica,sans-Serif" font-size="10.00">cmath</text>
</a>
</g>
</g>
<!-- Node3&#45;&gt;Node7 -->
<g id="edge6" class="edge">
<title>Node3&#45;&gt;Node7</title>
<path fill="none" stroke="midnightblue" d="M123.41,-56.32C139.14,-47.74 163.44,-34.49 181.71,-24.52"/>
<polygon fill="midnightblue" stroke="midnightblue" points="183.53,-27.52 190.63,-19.65 180.18,-21.37 183.53,-27.52"/>
</g>
</g>
</svg>
