<?xml version="1.0" encoding="UTF-8" standalone="no"?>
<!DOCTYPE svg PUBLIC "-//W3C//DTD SVG 1.1//EN"
 "http://www.w3.org/Graphics/SVG/1.1/DTD/svg11.dtd">
<!-- Generated by graphviz version 2.44.1 (20200629.0846)
 -->
<!-- Title: Utils::Point::getGridWidth Pages: 1 -->
<svg width="482pt" height="39pt"
 viewBox="0.00 0.00 482.00 39.00" xmlns="http://www.w3.org/2000/svg" xmlns:xlink="http://www.w3.org/1999/xlink">
<g id="graph0" class="graph" transform="scale(1 1) rotate(0) translate(4 35)">
<title>Utils::Point::getGridWidth</title>
<!-- Node1 -->
<g id="node1" class="node">
<title>Node1</title>
<g id="a_node1"><a xlink:title=" ">
<polygon fill="#bfbfbf" stroke="black" points="346,-6 346,-25 474,-25 474,-6 346,-6"/>
<text text-anchor="middle" x="410" y="-13" font-family="Helvetica,sans-Serif" font-size="10.00">Utils::Point::getGridWidth</text>
</a>
</g>
</g>
<!-- Node2 -->
<g id="node2" class="node">
<title>Node2</title>
<g id="a_node2"><a xlink:href="../../d1/d22/class_utils_1_1_point.html#a917da588000a88cdcc3cfa4a403d7112" target="_top" xlink:title=" ">
<polygon fill="none" stroke="black" points="203,-6 203,-25 310,-25 310,-6 203,-6"/>
<text text-anchor="middle" x="256.5" y="-13" font-family="Helvetica,sans-Serif" font-size="10.00">Utils::Point::isBorder</text>
</a>
</g>
</g>
<!-- Node1&#45;&gt;Node2 -->
<g id="edge1" class="edge">
<title>Node1&#45;&gt;Node2</title>
<path fill="none" stroke="midnightblue" d="M335.57,-15.5C326.96,-15.5 318.31,-15.5 310.07,-15.5"/>
<polygon fill="midnightblue" stroke="midnightblue" points="335.63,-19 345.63,-15.5 335.63,-12 335.63,-19"/>
</g>
<!-- Node3 -->
<g id="node3" class="node">
<title>Node3</title>
<g id="a_node3"><a xlink:href="../../d3/d56/class_country.html#ab68afc64e4255f6f0160fbe68e5c88bb" target="_top" xlink:title=" ">
<polygon fill="none" stroke="black" points="0,-0.5 0,-30.5 167,-30.5 167,-0.5 0,-0.5"/>
<text text-anchor="start" x="8" y="-18.5" font-family="Helvetica,sans-Serif" font-size="10.00">Country::isNeighbourToVaccinated</text>
<text text-anchor="middle" x="83.5" y="-7.5" font-family="Helvetica,sans-Serif" font-size="10.00">Field</text>
</a>
</g>
</g>
<!-- Node2&#45;&gt;Node3 -->
<g id="edge2" class="edge">
<title>Node2&#45;&gt;Node3</title>
<path fill="none" stroke="midnightblue" d="M192.54,-15.5C184.29,-15.5 175.74,-15.5 167.22,-15.5"/>
<polygon fill="midnightblue" stroke="midnightblue" points="192.8,-19 202.8,-15.5 192.8,-12 192.8,-19"/>
</g>
</g>
</svg>
