<?xml version="1.0" encoding="UTF-8" standalone="no"?>
<!DOCTYPE svg PUBLIC "-//W3C//DTD SVG 1.1//EN"
 "http://www.w3.org/Graphics/SVG/1.1/DTD/svg11.dtd">
<!-- Generated by graphviz version 2.44.1 (20200629.0846)
 -->
<!-- Title: Utils::Point::isBorder Pages: 1 -->
<svg width="281pt" height="142pt"
 viewBox="0.00 0.00 281.00 142.00" xmlns="http://www.w3.org/2000/svg" xmlns:xlink="http://www.w3.org/1999/xlink">
<g id="graph0" class="graph" transform="scale(1 1) rotate(0) translate(4 138)">
<title>Utils::Point::isBorder</title>
<!-- Node1 -->
<g id="node1" class="node">
<title>Node1</title>
<g id="a_node1"><a xlink:title=" ">
<polygon fill="#bfbfbf" stroke="black" points="0,-57.5 0,-76.5 107,-76.5 107,-57.5 0,-57.5"/>
<text text-anchor="middle" x="53.5" y="-64.5" font-family="Helvetica,sans-Serif" font-size="10.00">Utils::Point::isBorder</text>
</a>
</g>
</g>
<!-- Node2 -->
<g id="node2" class="node">
<title>Node2</title>
<g id="a_node2"><a xlink:href="../../d1/d22/class_utils_1_1_point.html#a8c221e78e5131f58a6ef0d5cee14c638" target="_top" xlink:title=" ">
<polygon fill="none" stroke="black" points="143,-114.5 143,-133.5 273,-133.5 273,-114.5 143,-114.5"/>
<text text-anchor="middle" x="208" y="-121.5" font-family="Helvetica,sans-Serif" font-size="10.00">Utils::Point::getGridHeight</text>
</a>
</g>
</g>
<!-- Node1&#45;&gt;Node2 -->
<g id="edge1" class="edge">
<title>Node1&#45;&gt;Node2</title>
<path fill="none" stroke="midnightblue" d="M74.97,-76.6C92.73,-84.73 119.26,-96.41 143,-105 149.3,-107.28 156.01,-109.5 162.64,-111.56"/>
<polygon fill="midnightblue" stroke="midnightblue" points="161.63,-114.92 172.22,-114.48 163.67,-108.22 161.63,-114.92"/>
</g>
<!-- Node3 -->
<g id="node3" class="node">
<title>Node3</title>
<g id="a_node3"><a xlink:href="../../d1/d22/class_utils_1_1_point.html#ac4c9e72916dac2eaa4cf5e13c8885a2c" target="_top" xlink:title=" ">
<polygon fill="none" stroke="black" points="144,-76.5 144,-95.5 272,-95.5 272,-76.5 144,-76.5"/>
<text text-anchor="middle" x="208" y="-83.5" font-family="Helvetica,sans-Serif" font-size="10.00">Utils::Point::getGridWidth</text>
</a>
</g>
</g>
<!-- Node1&#45;&gt;Node3 -->
<g id="edge2" class="edge">
<title>Node1&#45;&gt;Node3</title>
<path fill="none" stroke="midnightblue" d="M107.41,-73.59C115.97,-74.66 124.97,-75.78 133.91,-76.89"/>
<polygon fill="midnightblue" stroke="midnightblue" points="133.6,-80.38 143.95,-78.14 134.46,-73.44 133.6,-80.38"/>
</g>
<!-- Node4 -->
<g id="node4" class="node">
<title>Node4</title>
<g id="a_node4"><a xlink:href="../../d1/d22/class_utils_1_1_point.html#a4fd453f573c399f7195a8982268a9f55" target="_top" xlink:title=" ">
<polygon fill="none" stroke="black" points="163.5,-38.5 163.5,-57.5 252.5,-57.5 252.5,-38.5 163.5,-38.5"/>
<text text-anchor="middle" x="208" y="-45.5" font-family="Helvetica,sans-Serif" font-size="10.00">Utils::Point::getX</text>
</a>
</g>
</g>
<!-- Node1&#45;&gt;Node4 -->
<g id="edge3" class="edge">
<title>Node1&#45;&gt;Node4</title>
<path fill="none" stroke="midnightblue" d="M107.41,-60.41C122.23,-58.56 138.35,-56.55 153.22,-54.7"/>
<polygon fill="midnightblue" stroke="midnightblue" points="153.79,-58.16 163.28,-53.45 152.92,-51.21 153.79,-58.16"/>
</g>
<!-- Node5 -->
<g id="node5" class="node">
<title>Node5</title>
<g id="a_node5"><a xlink:href="../../d1/d22/class_utils_1_1_point.html#a62ce3a4ededc21a4f417bf18e357fc8e" target="_top" xlink:title=" ">
<polygon fill="none" stroke="black" points="162.5,-0.5 162.5,-19.5 253.5,-19.5 253.5,-0.5 162.5,-0.5"/>
<text text-anchor="middle" x="208" y="-7.5" font-family="Helvetica,sans-Serif" font-size="10.00">Utils::Point::getY</text>
</a>
</g>
</g>
<!-- Node1&#45;&gt;Node5 -->
<g id="edge4" class="edge">
<title>Node1&#45;&gt;Node5</title>
<path fill="none" stroke="midnightblue" d="M74.97,-57.4C92.73,-49.27 119.26,-37.59 143,-29 149.3,-26.72 156.01,-24.5 162.64,-22.44"/>
<polygon fill="midnightblue" stroke="midnightblue" points="163.67,-25.78 172.22,-19.52 161.63,-19.08 163.67,-25.78"/>
</g>
</g>
</svg>
