<?xml version="1.0" encoding="UTF-8" standalone="no"?>
<!DOCTYPE svg PUBLIC "-//W3C//DTD SVG 1.1//EN"
 "http://www.w3.org/Graphics/SVG/1.1/DTD/svg11.dtd">
<!-- Generated by graphviz version 2.44.1 (20200629.0846)
 -->
<!-- Title: Utils::Point::getNeighbours Pages: 1 -->
<svg width="953pt" height="329pt"
 viewBox="0.00 0.00 953.00 329.00" xmlns="http://www.w3.org/2000/svg" xmlns:xlink="http://www.w3.org/1999/xlink">
<g id="graph0" class="graph" transform="scale(1 1) rotate(0) translate(4 325)">
<title>Utils::Point::getNeighbours</title>
<!-- Node1 -->
<g id="node1" class="node">
<title>Node1</title>
<g id="a_node1"><a xlink:title=" ">
<polygon fill="#bfbfbf" stroke="black" points="812,-156.5 812,-175.5 945,-175.5 945,-156.5 812,-156.5"/>
<text text-anchor="middle" x="878.5" y="-163.5" font-family="Helvetica,sans-Serif" font-size="10.00">Utils::Point::getNeighbours</text>
</a>
</g>
</g>
<!-- Node2 -->
<g id="node2" class="node">
<title>Node2</title>
<g id="a_node2"><a xlink:href="../../da/df6/class_logic.html#a95e67ed4c9141cbf3efdf6a720993e59" target="_top" xlink:title=" ">
<polygon fill="none" stroke="black" points="636,-301.5 636,-320.5 749,-320.5 749,-301.5 636,-301.5"/>
<text text-anchor="middle" x="692.5" y="-308.5" font-family="Helvetica,sans-Serif" font-size="10.00">Logic::calculateBorder</text>
</a>
</g>
</g>
<!-- Node1&#45;&gt;Node2 -->
<g id="edge1" class="edge">
<title>Node1&#45;&gt;Node2</title>
<path fill="none" stroke="midnightblue" d="M867.74,-184.84C852.24,-212.81 819.25,-264.91 776,-292 767.9,-297.07 758.6,-300.79 749.22,-303.52"/>
<polygon fill="midnightblue" stroke="midnightblue" points="870.99,-186.18 872.65,-175.72 864.83,-182.87 870.99,-186.18"/>
</g>
<!-- Node9 -->
<g id="node9" class="node">
<title>Node9</title>
<g id="a_node9"><a xlink:href="../../da/d74/class_grid.html#ae16bf4e418d38191c647ef0220fc8606" target="_top" xlink:title=" ">
<polygon fill="none" stroke="black" points="614,-252 614,-282 771,-282 771,-252 614,-252"/>
<text text-anchor="start" x="622" y="-270" font-family="Helvetica,sans-Serif" font-size="10.00">Grid::calculateDistrictProduction</text>
<text text-anchor="middle" x="692.5" y="-259" font-family="Helvetica,sans-Serif" font-size="10.00">Capacity</text>
</a>
</g>
</g>
<!-- Node1&#45;&gt;Node9 -->
<g id="edge8" class="edge">
<title>Node1&#45;&gt;Node9</title>
<path fill="none" stroke="midnightblue" d="M859.69,-182.42C840.37,-199.45 808,-225.81 776,-242 768.52,-245.78 760.37,-249.11 752.19,-251.99"/>
<polygon fill="midnightblue" stroke="midnightblue" points="862.25,-184.82 867.36,-175.54 857.58,-179.61 862.25,-184.82"/>
</g>
<!-- Node10 -->
<g id="node10" class="node">
<title>Node10</title>
<g id="a_node10"><a xlink:href="../../d2/d5c/class_iface.html#a42712663a207dad0227b8fc592c7046b" target="_top" xlink:title=" ">
<polygon fill="none" stroke="black" points="648.5,-213.5 648.5,-232.5 736.5,-232.5 736.5,-213.5 648.5,-213.5"/>
<text text-anchor="middle" x="692.5" y="-220.5" font-family="Helvetica,sans-Serif" font-size="10.00">Iface::createGrid</text>
</a>
</g>
</g>
<!-- Node1&#45;&gt;Node10 -->
<g id="edge10" class="edge">
<title>Node1&#45;&gt;Node10</title>
<path fill="none" stroke="midnightblue" d="M844.98,-179.43C825.24,-187.26 799.43,-196.95 776,-204 763.33,-207.81 749.38,-211.29 736.6,-214.2"/>
<polygon fill="midnightblue" stroke="midnightblue" points="846.44,-182.61 854.42,-175.64 843.83,-176.11 846.44,-182.61"/>
</g>
<!-- Node13 -->
<g id="node13" class="node">
<title>Node13</title>
<g id="a_node13"><a xlink:href="../../d2/d5b/class_graph_algos.html#af00f038c0816aca536aacf698936a029" target="_top" xlink:title=" ">
<polygon fill="none" stroke="black" points="640,-175.5 640,-194.5 745,-194.5 745,-175.5 640,-175.5"/>
<text text-anchor="middle" x="692.5" y="-182.5" font-family="Helvetica,sans-Serif" font-size="10.00">GraphAlgos::dijkstra</text>
</a>
</g>
</g>
<!-- Node1&#45;&gt;Node13 -->
<g id="edge13" class="edge">
<title>Node1&#45;&gt;Node13</title>
<path fill="none" stroke="midnightblue" d="M801.72,-173.83C782.72,-175.79 762.77,-177.85 745.25,-179.66"/>
<polygon fill="midnightblue" stroke="midnightblue" points="802.26,-177.29 811.85,-172.78 801.54,-170.32 802.26,-177.29"/>
</g>
<!-- Node14 -->
<g id="node14" class="node">
<title>Node14</title>
<g id="a_node14"><a xlink:href="../../da/d74/class_grid.html#ad6a4463d8308549e914b3e244abb716e" target="_top" xlink:title=" ">
<polygon fill="none" stroke="black" points="628.5,-137.5 628.5,-156.5 756.5,-156.5 756.5,-137.5 628.5,-137.5"/>
<text text-anchor="middle" x="692.5" y="-144.5" font-family="Helvetica,sans-Serif" font-size="10.00">Grid::getNeihboursOfField</text>
</a>
</g>
</g>
<!-- Node1&#45;&gt;Node14 -->
<g id="edge14" class="edge">
<title>Node1&#45;&gt;Node14</title>
<path fill="none" stroke="midnightblue" d="M801.62,-158.16C786.67,-156.62 771.13,-155.02 756.66,-153.52"/>
<polygon fill="midnightblue" stroke="midnightblue" points="801.54,-161.68 811.85,-159.22 802.26,-154.71 801.54,-161.68"/>
</g>
<!-- Node15 -->
<g id="node15" class="node">
<title>Node15</title>
<g id="a_node15"><a xlink:href="../../d3/d56/class_country.html#ab68afc64e4255f6f0160fbe68e5c88bb" target="_top" xlink:title=" ">
<polygon fill="none" stroke="black" points="609,-88 609,-118 776,-118 776,-88 609,-88"/>
<text text-anchor="start" x="617" y="-106" font-family="Helvetica,sans-Serif" font-size="10.00">Country::isNeighbourToVaccinated</text>
<text text-anchor="middle" x="692.5" y="-95" font-family="Helvetica,sans-Serif" font-size="10.00">Field</text>
</a>
</g>
</g>
<!-- Node1&#45;&gt;Node15 -->
<g id="edge15" class="edge">
<title>Node1&#45;&gt;Node15</title>
<path fill="none" stroke="midnightblue" d="M843.61,-152.69C823.98,-145.14 798.72,-135.69 776,-128 766.08,-124.64 755.41,-121.25 745.15,-118.1"/>
<polygon fill="midnightblue" stroke="midnightblue" points="842.46,-156 853.05,-156.34 844.98,-149.47 842.46,-156"/>
</g>
<!-- Node16 -->
<g id="node16" class="node">
<title>Node16</title>
<g id="a_node16"><a xlink:href="../../d3/d56/class_country.html#aa022fc627bac32991ea7207cf6d5e60e" target="_top" xlink:title=" ">
<polygon fill="none" stroke="black" points="613,-39 613,-69 772,-69 772,-39 613,-39"/>
<text text-anchor="start" x="621" y="-57" font-family="Helvetica,sans-Serif" font-size="10.00">Country::isNeighbourToWannabe</text>
<text text-anchor="middle" x="692.5" y="-46" font-family="Helvetica,sans-Serif" font-size="10.00">VaccinatedField</text>
</a>
</g>
</g>
<!-- Node1&#45;&gt;Node16 -->
<g id="edge16" class="edge">
<title>Node1&#45;&gt;Node16</title>
<path fill="none" stroke="midnightblue" d="M862.21,-148.86C843.66,-129.07 810.56,-96.82 776,-78 769.71,-74.58 762.88,-71.59 755.93,-69"/>
<polygon fill="midnightblue" stroke="midnightblue" points="859.67,-151.27 869.01,-156.27 864.83,-146.53 859.67,-151.27"/>
</g>
<!-- Node17 -->
<g id="node17" class="node">
<title>Node17</title>
<g id="a_node17"><a xlink:href="../../da/d74/class_grid.html#aec7885d1f815b35b32ec7a605f714acd" target="_top" xlink:title=" ">
<polygon fill="none" stroke="black" points="651.5,-0.5 651.5,-19.5 733.5,-19.5 733.5,-0.5 651.5,-0.5"/>
<text text-anchor="middle" x="692.5" y="-7.5" font-family="Helvetica,sans-Serif" font-size="10.00">Grid::operator=</text>
</a>
</g>
</g>
<!-- Node1&#45;&gt;Node17 -->
<g id="edge17" class="edge">
<title>Node1&#45;&gt;Node17</title>
<path fill="none" stroke="midnightblue" d="M868.81,-146.8C854.16,-116.73 821.63,-58.88 776,-29 763.46,-20.79 747.81,-16.1 733.53,-13.44"/>
<polygon fill="midnightblue" stroke="midnightblue" points="865.8,-148.63 873.23,-156.19 872.13,-145.65 865.8,-148.63"/>
</g>
<!-- Node3 -->
<g id="node3" class="node">
<title>Node3</title>
<g id="a_node3"><a xlink:href="../../da/df6/class_logic.html#a7ebaa13c8a671d82c669431478524784" target="_top" xlink:title=" ">
<polygon fill="none" stroke="black" points="478,-274.5 478,-293.5 573,-293.5 573,-274.5 478,-274.5"/>
<text text-anchor="middle" x="525.5" y="-281.5" font-family="Helvetica,sans-Serif" font-size="10.00">Logic::simulateTO</text>
</a>
</g>
</g>
<!-- Node2&#45;&gt;Node3 -->
<g id="edge2" class="edge">
<title>Node2&#45;&gt;Node3</title>
<path fill="none" stroke="midnightblue" d="M625.48,-300.2C607.99,-297.34 589.47,-294.3 573.24,-291.65"/>
<polygon fill="midnightblue" stroke="midnightblue" points="625.2,-303.7 635.64,-301.86 626.34,-296.79 625.2,-303.7"/>
</g>
<!-- Node4 -->
<g id="node4" class="node">
<title>Node4</title>
<g id="a_node4"><a xlink:href="../../d2/d5c/class_iface.html#ad724ec2c6a2aa884f61de19193affc6a" target="_top" xlink:title=" ">
<polygon fill="none" stroke="black" points="327,-292.5 327,-311.5 442,-311.5 442,-292.5 327,-292.5"/>
<text text-anchor="middle" x="384.5" y="-299.5" font-family="Helvetica,sans-Serif" font-size="10.00">Iface::requestLEGACY</text>
</a>
</g>
</g>
<!-- Node3&#45;&gt;Node4 -->
<g id="edge3" class="edge">
<title>Node3&#45;&gt;Node4</title>
<path fill="none" stroke="midnightblue" d="M467.78,-291.34C459.42,-292.43 450.8,-293.54 442.43,-294.63"/>
<polygon fill="midnightblue" stroke="midnightblue" points="468.36,-294.8 477.83,-290.04 467.46,-287.86 468.36,-294.8"/>
</g>
<!-- Node5 -->
<g id="node5" class="node">
<title>Node5</title>
<g id="a_node5"><a xlink:href="../../d2/d5c/class_iface.html#abae0122b800731a979c9f8e4c3a58176" target="_top" xlink:title=" ">
<polygon fill="none" stroke="black" points="351,-254.5 351,-273.5 418,-273.5 418,-254.5 351,-254.5"/>
<text text-anchor="middle" x="384.5" y="-261.5" font-family="Helvetica,sans-Serif" font-size="10.00">Iface::round</text>
</a>
</g>
</g>
<!-- Node3&#45;&gt;Node5 -->
<g id="edge4" class="edge">
<title>Node3&#45;&gt;Node5</title>
<path fill="none" stroke="midnightblue" d="M467.54,-275.8C450.75,-273.39 432.94,-270.83 418.23,-268.71"/>
<polygon fill="midnightblue" stroke="midnightblue" points="467.43,-279.32 477.83,-277.28 468.43,-272.4 467.43,-279.32"/>
</g>
<!-- Node6 -->
<g id="node6" class="node">
<title>Node6</title>
<g id="a_node6"><a xlink:href="../../d2/d5c/class_iface.html#a44e6d0db22abbce5cb8c132e5f1d4284" target="_top" xlink:title=" ">
<polygon fill="none" stroke="black" points="229,-254.5 229,-273.5 291,-273.5 291,-254.5 229,-254.5"/>
<text text-anchor="middle" x="260" y="-261.5" font-family="Helvetica,sans-Serif" font-size="10.00">Iface::start</text>
</a>
</g>
</g>
<!-- Node5&#45;&gt;Node6 -->
<g id="edge5" class="edge">
<title>Node5&#45;&gt;Node6</title>
<path fill="none" stroke="midnightblue" d="M340.6,-264C324.27,-264 306.03,-264 291.13,-264"/>
<polygon fill="midnightblue" stroke="midnightblue" points="340.99,-267.5 350.99,-264 340.99,-260.5 340.99,-267.5"/>
</g>
<!-- Node7 -->
<g id="node7" class="node">
<title>Node7</title>
<g id="a_node7"><a xlink:href="../../dc/d90/class_anti_virus.html#affe3f62a87b880cc964188d9ddb9d562" target="_top" xlink:title=" ">
<polygon fill="none" stroke="black" points="74,-254.5 74,-273.5 193,-273.5 193,-254.5 74,-254.5"/>
<text text-anchor="middle" x="133.5" y="-261.5" font-family="Helvetica,sans-Serif" font-size="10.00">AntiVirus::startInterface</text>
</a>
</g>
</g>
<!-- Node6&#45;&gt;Node7 -->
<g id="edge6" class="edge">
<title>Node6&#45;&gt;Node7</title>
<path fill="none" stroke="midnightblue" d="M218.83,-264C210.62,-264 201.82,-264 193.12,-264"/>
<polygon fill="midnightblue" stroke="midnightblue" points="218.86,-267.5 228.86,-264 218.86,-260.5 218.86,-267.5"/>
</g>
<!-- Node8 -->
<g id="node8" class="node">
<title>Node8</title>
<g id="a_node8"><a xlink:href="../../df/d0a/main_8cpp.html#ae66f6b31b5ad750f1fe042a706a4e3d4" target="_top" xlink:title=" ">
<polygon fill="none" stroke="black" points="0,-254.5 0,-273.5 38,-273.5 38,-254.5 0,-254.5"/>
<text text-anchor="middle" x="19" y="-261.5" font-family="Helvetica,sans-Serif" font-size="10.00">main</text>
</a>
</g>
</g>
<!-- Node7&#45;&gt;Node8 -->
<g id="edge7" class="edge">
<title>Node7&#45;&gt;Node8</title>
<path fill="none" stroke="midnightblue" d="M63.65,-264C54.29,-264 45.43,-264 38.16,-264"/>
<polygon fill="midnightblue" stroke="midnightblue" points="63.94,-267.5 73.94,-264 63.94,-260.5 63.94,-267.5"/>
</g>
<!-- Node9&#45;&gt;Node3 -->
<g id="edge9" class="edge">
<title>Node9&#45;&gt;Node3</title>
<path fill="none" stroke="midnightblue" d="M603.74,-276.04C593.23,-277.12 582.83,-278.2 573.23,-279.18"/>
<polygon fill="midnightblue" stroke="midnightblue" points="604.24,-279.51 613.83,-275 603.53,-272.55 604.24,-279.51"/>
</g>
<!-- Node11 -->
<g id="node11" class="node">
<title>Node11</title>
<g id="a_node11"><a xlink:href="../../d2/d5c/class_iface.html#a6afe73763b17570a7a884ffeca597c0e" target="_top" xlink:title=" ">
<polygon fill="none" stroke="black" points="478,-213.5 478,-232.5 573,-232.5 573,-213.5 478,-213.5"/>
<text text-anchor="middle" x="525.5" y="-220.5" font-family="Helvetica,sans-Serif" font-size="10.00">Iface::initAntiVirus</text>
</a>
</g>
</g>
<!-- Node10&#45;&gt;Node11 -->
<g id="edge11" class="edge">
<title>Node10&#45;&gt;Node11</title>
<path fill="none" stroke="midnightblue" d="M638.11,-223C617.14,-223 593.29,-223 573.03,-223"/>
<polygon fill="midnightblue" stroke="midnightblue" points="638.15,-226.5 648.15,-223 638.15,-219.5 638.15,-226.5"/>
</g>
<!-- Node12 -->
<g id="node12" class="node">
<title>Node12</title>
<g id="a_node12"><a xlink:href="../../dc/d90/class_anti_virus.html#a3b3aed962d274c4333a8c9ac191816a0" target="_top" xlink:title=" ">
<polygon fill="none" stroke="black" points="333.5,-213.5 333.5,-232.5 435.5,-232.5 435.5,-213.5 333.5,-213.5"/>
<text text-anchor="middle" x="384.5" y="-220.5" font-family="Helvetica,sans-Serif" font-size="10.00">AntiVirus::AntiVirus</text>
</a>
</g>
</g>
<!-- Node11&#45;&gt;Node12 -->
<g id="edge12" class="edge">
<title>Node11&#45;&gt;Node12</title>
<path fill="none" stroke="midnightblue" d="M467.78,-223C457.12,-223 446.06,-223 435.62,-223"/>
<polygon fill="midnightblue" stroke="midnightblue" points="467.83,-226.5 477.83,-223 467.83,-219.5 467.83,-226.5"/>
</g>
</g>
</svg>
