<?xml version="1.0" encoding="UTF-8" standalone="no"?>
<!DOCTYPE svg PUBLIC "-//W3C//DTD SVG 1.1//EN"
 "http://www.w3.org/Graphics/SVG/1.1/DTD/svg11.dtd">
<!-- Generated by graphviz version 2.44.1 (20200629.0846)
 -->
<!-- Title: Utils::Point::withinBounds Pages: 1 -->
<!--zoomable 373 -->
<svg id="main" version="1.1" xmlns="http://www.w3.org/2000/svg" xmlns:xlink="http://www.w3.org/1999/xlink" xml:space="preserve" onload="init(evt)">
<style type="text/css"><![CDATA[
.edge:hover path { stroke: red; }
.edge:hover polygon { stroke: red; fill: red; }
]]></style>
<script type="text/javascript"><![CDATA[
var edges = document.getElementsByTagName('g');
if (edges && edges.length) {
  for (var i=0;i<edges.length;i++) {
    if (edges[i].id.substr(0,4)=='edge') {
      edges[i].setAttribute('class','edge');
    }
  }
}
]]></script>
        <defs>
                <circle id="rim" cx="0" cy="0" r="7"/>
                <circle id="rim2" cx="0" cy="0" r="3.5"/>
                <g id="zoomPlus">
                        <use xlink:href="#rim" fill="#404040">
                                <set attributeName="fill" to="#808080" begin="zoomplus.mouseover" end="zoomplus.mouseout"/>
                        </use>
                        <path d="M-4,0h8M0,-4v8" fill="none" stroke="white" stroke-width="1.5" pointer-events="none"/>
                </g>
                <g id="zoomMin">
                        <use xlink:href="#rim" fill="#404040">
                                <set attributeName="fill" to="#808080" begin="zoomminus.mouseover" end="zoomminus.mouseout"/>
                        </use>
                        <path d="M-4,0h8" fill="none" stroke="white" stroke-width="1.5" pointer-events="none"/>
                </g>
                <g id="dirArrow">
                        <path fill="none" stroke="white" stroke-width="1.5" d="M0,-3.0v7 M-2.5,-0.5L0,-3.0L2.5,-0.5"/>
                </g>
               <g id="resetDef">
                       <use xlink:href="#rim2" fill="#404040">
                               <set attributeName="fill" to="#808080" begin="reset.mouseover" end="reset.mouseout"/>
                       </use>
               </g>
        </defs>

<script type="text/javascript">
var viewWidth = 1162;
var viewHeight = 373;
var sectionId = 'dynsection-14';
</script>
<script xlink:href="../../svgpan.js"/>
<svg id="graph" class="graph">
<g id="viewport">
<title>Utils::Point::withinBounds</title>
<!-- Node1 -->
<g id="node1" class="node">
<title>Node1</title>
<g id="a_node1"><a xlink:title=" ">
<polygon fill="#bfbfbf" stroke="black" points="1026,-94 1026,-113 1154,-113 1154,-94 1026,-94"/>
<text text-anchor="middle" x="1090" y="-101" font-family="Helvetica,sans-Serif" font-size="10.00">Utils::Point::withinBounds</text>
</a>
</g>
</g>
<!-- Node2 -->
<g id="node2" class="node">
<title>Node2</title>
<g id="a_node2"><a xlink:href="../../d1/d22/class_utils_1_1_point.html#adedde8c4c0d9e7efeb415929a10ef8db" target="_top" xlink:title=" ">
<polygon fill="none" stroke="black" points="857,-181 857,-200 990,-200 990,-181 857,-181"/>
<text text-anchor="middle" x="923.5" y="-188" font-family="Helvetica,sans-Serif" font-size="10.00">Utils::Point::getNeighbours</text>
</a>
</g>
</g>
<!-- Node1&#45;&gt;Node2 -->
<g id="edge1" class="edge">
<title>Node1&#45;&gt;Node2</title>
<path fill="none" stroke="midnightblue" d="M1061.9,-117.83C1028.15,-135.68 971.43,-165.68 942.56,-180.95"/>
<polygon fill="midnightblue" stroke="midnightblue" points="1063.56,-120.91 1070.77,-113.14 1060.29,-114.72 1063.56,-120.91"/>
</g>
<!-- Node19 -->
<g id="node19" class="node">
<title>Node19</title>
<g id="a_node19"><a xlink:href="../../d9/dbf/class_window.html#ab5efaea1f6d653d0404cb3f17b0e7e4c" target="_top" xlink:title=" ">
<polygon fill="none" stroke="black" points="869.5,-75 869.5,-94 977.5,-94 977.5,-75 869.5,-75"/>
<text text-anchor="middle" x="923.5" y="-82" font-family="Helvetica,sans-Serif" font-size="10.00">Window::showStatus</text>
</a>
</g>
</g>
<!-- Node1&#45;&gt;Node19 -->
<g id="edge19" class="edge">
<title>Node1&#45;&gt;Node19</title>
<path fill="none" stroke="midnightblue" d="M1015.67,-95.03C1002.84,-93.55 989.72,-92.03 977.57,-90.63"/>
<polygon fill="midnightblue" stroke="midnightblue" points="1015.53,-98.54 1025.87,-96.21 1016.34,-91.58 1015.53,-98.54"/>
</g>
<!-- Node3 -->
<g id="node3" class="node">
<title>Node3</title>
<g id="a_node3"><a xlink:href="../../da/df6/class_logic.html#a95e67ed4c9141cbf3efdf6a720993e59" target="_top" xlink:title=" ">
<polygon fill="none" stroke="black" points="681,-345 681,-364 794,-364 794,-345 681,-345"/>
<text text-anchor="middle" x="737.5" y="-352" font-family="Helvetica,sans-Serif" font-size="10.00">Logic::calculateBorder</text>
</a>
</g>
</g>
<!-- Node2&#45;&gt;Node3 -->
<g id="edge2" class="edge">
<title>Node2&#45;&gt;Node3</title>
<path fill="none" stroke="midnightblue" d="M914.71,-209.49C900.8,-240.9 868.61,-303.4 821,-335.5 812.96,-340.92 803.58,-344.81 794.09,-347.6"/>
<polygon fill="midnightblue" stroke="midnightblue" points="918,-210.68 918.72,-200.11 911.57,-207.93 918,-210.68"/>
</g>
<!-- Node10 -->
<g id="node10" class="node">
<title>Node10</title>
<g id="a_node10"><a xlink:href="../../da/d74/class_grid.html#ae16bf4e418d38191c647ef0220fc8606" target="_top" xlink:title=" ">
<polygon fill="none" stroke="black" points="659,-295.5 659,-325.5 816,-325.5 816,-295.5 659,-295.5"/>
<text text-anchor="start" x="667" y="-313.5" font-family="Helvetica,sans-Serif" font-size="10.00">Grid::calculateDistrictProduction</text>
<text text-anchor="middle" x="737.5" y="-302.5" font-family="Helvetica,sans-Serif" font-size="10.00">Capacity</text>
</a>
</g>
</g>
<!-- Node2&#45;&gt;Node10 -->
<g id="edge9" class="edge">
<title>Node2&#45;&gt;Node10</title>
<path fill="none" stroke="midnightblue" d="M908.31,-208C890.18,-229.26 856.83,-264.83 821,-285.5 814.39,-289.31 807.14,-292.6 799.76,-295.42"/>
<polygon fill="midnightblue" stroke="midnightblue" points="911.18,-210.02 914.9,-200.11 905.8,-205.54 911.18,-210.02"/>
</g>
<!-- Node11 -->
<g id="node11" class="node">
<title>Node11</title>
<g id="a_node11"><a xlink:href="../../d2/d5c/class_iface.html#a42712663a207dad0227b8fc592c7046b" target="_top" xlink:title=" ">
<polygon fill="none" stroke="black" points="693.5,-257 693.5,-276 781.5,-276 781.5,-257 693.5,-257"/>
<text text-anchor="middle" x="737.5" y="-264" font-family="Helvetica,sans-Serif" font-size="10.00">Iface::createGrid</text>
</a>
</g>
</g>
<!-- Node2&#45;&gt;Node11 -->
<g id="edge11" class="edge">
<title>Node2&#45;&gt;Node11</title>
<path fill="none" stroke="midnightblue" d="M899.95,-205.65C879.96,-218.46 849.61,-236.44 821,-247.5 808.53,-252.32 794.49,-256.12 781.59,-259.01"/>
<polygon fill="midnightblue" stroke="midnightblue" points="901.88,-208.57 908.35,-200.18 898.06,-202.7 901.88,-208.57"/>
</g>
<!-- Node14 -->
<g id="node14" class="node">
<title>Node14</title>
<g id="a_node14"><a xlink:href="../../d2/d5b/class_graph_algos.html#af00f038c0816aca536aacf698936a029" target="_top" xlink:title=" ">
<polygon fill="none" stroke="black" points="685,-219 685,-238 790,-238 790,-219 685,-219"/>
<text text-anchor="middle" x="737.5" y="-226" font-family="Helvetica,sans-Serif" font-size="10.00">GraphAlgos::dijkstra</text>
</a>
</g>
</g>
<!-- Node2&#45;&gt;Node14 -->
<g id="edge14" class="edge">
<title>Node2&#45;&gt;Node14</title>
<path fill="none" stroke="midnightblue" d="M865.94,-202.18C839.85,-207.57 809.26,-213.89 784.6,-218.98"/>
<polygon fill="midnightblue" stroke="midnightblue" points="866.98,-205.54 876.07,-200.09 865.57,-198.68 866.98,-205.54"/>
</g>
<!-- Node15 -->
<g id="node15" class="node">
<title>Node15</title>
<g id="a_node15"><a xlink:href="../../da/d74/class_grid.html#ad6a4463d8308549e914b3e244abb716e" target="_top" xlink:title=" ">
<polygon fill="none" stroke="black" points="673.5,-181 673.5,-200 801.5,-200 801.5,-181 673.5,-181"/>
<text text-anchor="middle" x="737.5" y="-188" font-family="Helvetica,sans-Serif" font-size="10.00">Grid::getNeihboursOfField</text>
</a>
</g>
</g>
<!-- Node2&#45;&gt;Node15 -->
<g id="edge15" class="edge">
<title>Node2&#45;&gt;Node15</title>
<path fill="none" stroke="midnightblue" d="M846.62,-190.5C831.67,-190.5 816.13,-190.5 801.66,-190.5"/>
<polygon fill="midnightblue" stroke="midnightblue" points="846.85,-194 856.85,-190.5 846.85,-187 846.85,-194"/>
</g>
<!-- Node16 -->
<g id="node16" class="node">
<title>Node16</title>
<g id="a_node16"><a xlink:href="../../d3/d56/class_country.html#ab68afc64e4255f6f0160fbe68e5c88bb" target="_top" xlink:title=" ">
<polygon fill="none" stroke="black" points="654,-131.5 654,-161.5 821,-161.5 821,-131.5 654,-131.5"/>
<text text-anchor="start" x="662" y="-149.5" font-family="Helvetica,sans-Serif" font-size="10.00">Country::isNeighbourToVaccinated</text>
<text text-anchor="middle" x="737.5" y="-138.5" font-family="Helvetica,sans-Serif" font-size="10.00">Field</text>
</a>
</g>
</g>
<!-- Node2&#45;&gt;Node16 -->
<g id="edge16" class="edge">
<title>Node2&#45;&gt;Node16</title>
<path fill="none" stroke="midnightblue" d="M872.8,-178.62C850.85,-173.37 824.8,-167.14 801.5,-161.57"/>
<polygon fill="midnightblue" stroke="midnightblue" points="872.03,-182.03 882.57,-180.95 873.66,-175.22 872.03,-182.03"/>
</g>
<!-- Node17 -->
<g id="node17" class="node">
<title>Node17</title>
<g id="a_node17"><a xlink:href="../../d3/d56/class_country.html#aa022fc627bac32991ea7207cf6d5e60e" target="_top" xlink:title=" ">
<polygon fill="none" stroke="black" points="658,-82.5 658,-112.5 817,-112.5 817,-82.5 658,-82.5"/>
<text text-anchor="start" x="666" y="-100.5" font-family="Helvetica,sans-Serif" font-size="10.00">Country::isNeighbourToWannabe</text>
<text text-anchor="middle" x="737.5" y="-89.5" font-family="Helvetica,sans-Serif" font-size="10.00">VaccinatedField</text>
</a>
</g>
</g>
<!-- Node2&#45;&gt;Node17 -->
<g id="edge17" class="edge">
<title>Node2&#45;&gt;Node17</title>
<path fill="none" stroke="midnightblue" d="M902.78,-174.69C883.07,-159.54 851.39,-136.89 821,-122.5 813.15,-118.79 804.63,-115.47 796.14,-112.56"/>
<polygon fill="midnightblue" stroke="midnightblue" points="900.67,-177.49 910.71,-180.88 904.98,-171.97 900.67,-177.49"/>
</g>
<!-- Node18 -->
<g id="node18" class="node">
<title>Node18</title>
<g id="a_node18"><a xlink:href="../../da/d74/class_grid.html#aec7885d1f815b35b32ec7a605f714acd" target="_top" xlink:title=" ">
<polygon fill="none" stroke="black" points="696.5,-44 696.5,-63 778.5,-63 778.5,-44 696.5,-44"/>
<text text-anchor="middle" x="737.5" y="-51" font-family="Helvetica,sans-Serif" font-size="10.00">Grid::operator=</text>
</a>
</g>
</g>
<!-- Node2&#45;&gt;Node18 -->
<g id="edge18" class="edge">
<title>Node2&#45;&gt;Node18</title>
<path fill="none" stroke="midnightblue" d="M909.25,-172.71C887.02,-143.34 842.54,-86.62 821,-73.5 808.29,-65.76 792.76,-61.01 778.63,-58.1"/>
<polygon fill="midnightblue" stroke="midnightblue" points="906.57,-174.98 915.38,-180.87 912.17,-170.78 906.57,-174.98"/>
</g>
<!-- Node4 -->
<g id="node4" class="node">
<title>Node4</title>
<g id="a_node4"><a xlink:href="../../da/df6/class_logic.html#a7ebaa13c8a671d82c669431478524784" target="_top" xlink:title=" ">
<polygon fill="none" stroke="black" points="500.5,-318 500.5,-337 595.5,-337 595.5,-318 500.5,-318"/>
<text text-anchor="middle" x="548" y="-325" font-family="Helvetica,sans-Serif" font-size="10.00">Logic::simulateTO</text>
</a>
</g>
</g>
<!-- Node3&#45;&gt;Node4 -->
<g id="edge3" class="edge">
<title>Node3&#45;&gt;Node4</title>
<path fill="none" stroke="midnightblue" d="M670.7,-345.03C645.95,-341.46 618.34,-337.49 595.68,-334.22"/>
<polygon fill="midnightblue" stroke="midnightblue" points="670.35,-348.51 680.75,-346.47 671.35,-341.58 670.35,-348.51"/>
</g>
<!-- Node5 -->
<g id="node5" class="node">
<title>Node5</title>
<g id="a_node5"><a xlink:href="../../d2/d5c/class_iface.html#ad724ec2c6a2aa884f61de19193affc6a" target="_top" xlink:title=" ">
<polygon fill="none" stroke="black" points="327,-336 327,-355 442,-355 442,-336 327,-336"/>
<text text-anchor="middle" x="384.5" y="-343" font-family="Helvetica,sans-Serif" font-size="10.00">Iface::requestLEGACY</text>
</a>
</g>
</g>
<!-- Node4&#45;&gt;Node5 -->
<g id="edge4" class="edge">
<title>Node4&#45;&gt;Node5</title>
<path fill="none" stroke="midnightblue" d="M490.25,-333.83C474.65,-335.56 457.73,-337.45 442.13,-339.19"/>
<polygon fill="midnightblue" stroke="midnightblue" points="490.74,-337.29 500.29,-332.71 489.96,-330.34 490.74,-337.29"/>
</g>
<!-- Node6 -->
<g id="node6" class="node">
<title>Node6</title>
<g id="a_node6"><a xlink:href="../../d2/d5c/class_iface.html#abae0122b800731a979c9f8e4c3a58176" target="_top" xlink:title=" ">
<polygon fill="none" stroke="black" points="351,-298 351,-317 418,-317 418,-298 351,-298"/>
<text text-anchor="middle" x="384.5" y="-305" font-family="Helvetica,sans-Serif" font-size="10.00">Iface::round</text>
</a>
</g>
</g>
<!-- Node4&#45;&gt;Node6 -->
<g id="edge5" class="edge">
<title>Node4&#45;&gt;Node6</title>
<path fill="none" stroke="midnightblue" d="M490.15,-320.46C465.99,-317.47 438.68,-314.09 418.03,-311.53"/>
<polygon fill="midnightblue" stroke="midnightblue" points="489.93,-323.96 500.29,-321.72 490.79,-317.01 489.93,-323.96"/>
</g>
<!-- Node7 -->
<g id="node7" class="node">
<title>Node7</title>
<g id="a_node7"><a xlink:href="../../d2/d5c/class_iface.html#a44e6d0db22abbce5cb8c132e5f1d4284" target="_top" xlink:title=" ">
<polygon fill="none" stroke="black" points="229,-298 229,-317 291,-317 291,-298 229,-298"/>
<text text-anchor="middle" x="260" y="-305" font-family="Helvetica,sans-Serif" font-size="10.00">Iface::start</text>
</a>
</g>
</g>
<!-- Node6&#45;&gt;Node7 -->
<g id="edge6" class="edge">
<title>Node6&#45;&gt;Node7</title>
<path fill="none" stroke="midnightblue" d="M340.6,-307.5C324.27,-307.5 306.03,-307.5 291.13,-307.5"/>
<polygon fill="midnightblue" stroke="midnightblue" points="340.99,-311 350.99,-307.5 340.99,-304 340.99,-311"/>
</g>
<!-- Node8 -->
<g id="node8" class="node">
<title>Node8</title>
<g id="a_node8"><a xlink:href="../../dc/d90/class_anti_virus.html#affe3f62a87b880cc964188d9ddb9d562" target="_top" xlink:title=" ">
<polygon fill="none" stroke="black" points="74,-298 74,-317 193,-317 193,-298 74,-298"/>
<text text-anchor="middle" x="133.5" y="-305" font-family="Helvetica,sans-Serif" font-size="10.00">AntiVirus::startInterface</text>
</a>
</g>
</g>
<!-- Node7&#45;&gt;Node8 -->
<g id="edge7" class="edge">
<title>Node7&#45;&gt;Node8</title>
<path fill="none" stroke="midnightblue" d="M218.83,-307.5C210.62,-307.5 201.82,-307.5 193.12,-307.5"/>
<polygon fill="midnightblue" stroke="midnightblue" points="218.86,-311 228.86,-307.5 218.86,-304 218.86,-311"/>
</g>
<!-- Node9 -->
<g id="node9" class="node">
<title>Node9</title>
<g id="a_node9"><a xlink:href="../../df/d0a/main_8cpp.html#ae66f6b31b5ad750f1fe042a706a4e3d4" target="_top" xlink:title=" ">
<polygon fill="none" stroke="black" points="0,-298 0,-317 38,-317 38,-298 0,-298"/>
<text text-anchor="middle" x="19" y="-305" font-family="Helvetica,sans-Serif" font-size="10.00">main</text>
</a>
</g>
</g>
<!-- Node8&#45;&gt;Node9 -->
<g id="edge8" class="edge">
<title>Node8&#45;&gt;Node9</title>
<path fill="none" stroke="midnightblue" d="M63.65,-307.5C54.29,-307.5 45.43,-307.5 38.16,-307.5"/>
<polygon fill="midnightblue" stroke="midnightblue" points="63.94,-311 73.94,-307.5 63.94,-304 63.94,-311"/>
</g>
<!-- Node10&#45;&gt;Node4 -->
<g id="edge10" class="edge">
<title>Node10&#45;&gt;Node4</title>
<path fill="none" stroke="midnightblue" d="M648.76,-318.46C630.44,-320.12 611.82,-321.8 595.7,-323.27"/>
<polygon fill="midnightblue" stroke="midnightblue" points="649.24,-321.93 658.88,-317.54 648.61,-314.95 649.24,-321.93"/>
</g>
<!-- Node12 -->
<g id="node12" class="node">
<title>Node12</title>
<g id="a_node12"><a xlink:href="../../d2/d5c/class_iface.html#a6afe73763b17570a7a884ffeca597c0e" target="_top" xlink:title=" ">
<polygon fill="none" stroke="black" points="500.5,-257 500.5,-276 595.5,-276 595.5,-257 500.5,-257"/>
<text text-anchor="middle" x="548" y="-264" font-family="Helvetica,sans-Serif" font-size="10.00">Iface::initAntiVirus</text>
</a>
</g>
</g>
<!-- Node11&#45;&gt;Node12 -->
<g id="edge12" class="edge">
<title>Node11&#45;&gt;Node12</title>
<path fill="none" stroke="midnightblue" d="M683.23,-266.5C655.66,-266.5 622.32,-266.5 595.76,-266.5"/>
<polygon fill="midnightblue" stroke="midnightblue" points="683.48,-270 693.48,-266.5 683.48,-263 683.48,-270"/>
</g>
<!-- Node13 -->
<g id="node13" class="node">
<title>Node13</title>
<g id="a_node13"><a xlink:href="../../dc/d90/class_anti_virus.html#a3b3aed962d274c4333a8c9ac191816a0" target="_top" xlink:title=" ">
<polygon fill="none" stroke="black" points="333.5,-257 333.5,-276 435.5,-276 435.5,-257 333.5,-257"/>
<text text-anchor="middle" x="384.5" y="-264" font-family="Helvetica,sans-Serif" font-size="10.00">AntiVirus::AntiVirus</text>
</a>
</g>
</g>
<!-- Node12&#45;&gt;Node13 -->
<g id="edge13" class="edge">
<title>Node12&#45;&gt;Node13</title>
<path fill="none" stroke="midnightblue" d="M490.09,-266.5C472.38,-266.5 452.99,-266.5 435.77,-266.5"/>
<polygon fill="midnightblue" stroke="midnightblue" points="490.29,-270 500.29,-266.5 490.29,-263 490.29,-270"/>
</g>
<!-- Node20 -->
<g id="node20" class="node">
<title>Node20</title>
<g id="a_node20"><a xlink:href="../../d9/dbf/class_window.html#a59515fc5a56e86d5a46d771595daac55" target="_top" xlink:title=" ">
<polygon fill="none" stroke="black" points="694.5,-6 694.5,-25 780.5,-25 780.5,-6 694.5,-6"/>
<text text-anchor="middle" x="737.5" y="-13" font-family="Helvetica,sans-Serif" font-size="10.00">Window::update</text>
</a>
</g>
</g>
<!-- Node19&#45;&gt;Node20 -->
<g id="edge20" class="edge">
<title>Node19&#45;&gt;Node20</title>
<path fill="none" stroke="midnightblue" d="M897.31,-70.04C877.19,-59.01 848,-44.11 821,-34.5 808.12,-29.92 793.71,-26.15 780.59,-23.22"/>
<polygon fill="midnightblue" stroke="midnightblue" points="895.7,-73.15 906.14,-74.96 899.1,-67.04 895.7,-73.15"/>
</g>
<!-- Node21 -->
<g id="node21" class="node">
<title>Node21</title>
<g id="a_node21"><a xlink:href="../../d0/d85/class_visualization.html#a83a40506ae13f42fefad3449d644909a" target="_top" xlink:title=" ">
<polygon fill="none" stroke="black" points="478,-0.5 478,-30.5 618,-30.5 618,-0.5 478,-0.5"/>
<text text-anchor="start" x="486" y="-18.5" font-family="Helvetica,sans-Serif" font-size="10.00">Visualization::displayCurrent</text>
<text text-anchor="middle" x="548" y="-7.5" font-family="Helvetica,sans-Serif" font-size="10.00">Round</text>
</a>
</g>
</g>
<!-- Node20&#45;&gt;Node21 -->
<g id="edge21" class="edge">
<title>Node20&#45;&gt;Node21</title>
<path fill="none" stroke="midnightblue" d="M684.35,-15.5C663.86,-15.5 640.05,-15.5 618.17,-15.5"/>
<polygon fill="midnightblue" stroke="midnightblue" points="684.42,-19 694.42,-15.5 684.42,-12 684.42,-19"/>
</g>
</g>
</svg>
        <g id="navigator" transform="translate(0 0)" fill="#404254">
                <rect fill="#f2f5e9" fill-opacity="0.5" stroke="#606060" stroke-width=".5" x="0" y="0" width="60" height="60"/>
                <use id="zoomplus" xlink:href="#zoomPlus" x="17" y="9" onmousedown="handleZoom(evt,'in')"/>
                <use id="zoomminus" xlink:href="#zoomMin" x="42" y="9" onmousedown="handleZoom(evt,'out')"/>
                <use id="reset" xlink:href="#resetDef" x="30" y="36" onmousedown="handleReset()"/>
                <g id="arrowUp" xlink:href="#dirArrow" transform="translate(30 24)" onmousedown="handlePan(0,-1)">
                  <use xlink:href="#rim" fill="#404040">
                        <set attributeName="fill" to="#808080" begin="arrowUp.mouseover" end="arrowUp.mouseout"/>
                  </use>
                  <path fill="none" stroke="white" stroke-width="1.5" d="M0,-3.0v7 M-2.5,-0.5L0,-3.0L2.5,-0.5"/>
                </g>
                <g id="arrowRight" xlink:href="#dirArrow" transform="rotate(90) translate(36 -43)" onmousedown="handlePan(1,0)">
                  <use xlink:href="#rim" fill="#404040">
                        <set attributeName="fill" to="#808080" begin="arrowRight.mouseover" end="arrowRight.mouseout"/>
                  </use>
                  <path fill="none" stroke="white" stroke-width="1.5" d="M0,-3.0v7 M-2.5,-0.5L0,-3.0L2.5,-0.5"/>
                </g>
                <g id="arrowDown" xlink:href="#dirArrow" transform="rotate(180) translate(-30 -48)" onmousedown="handlePan(0,1)">
                  <use xlink:href="#rim" fill="#404040">
                        <set attributeName="fill" to="#808080" begin="arrowDown.mouseover" end="arrowDown.mouseout"/>
                  </use>
                  <path fill="none" stroke="white" stroke-width="1.5" d="M0,-3.0v7 M-2.5,-0.5L0,-3.0L2.5,-0.5"/>
                </g>
                <g id="arrowLeft" xlink:href="#dirArrow" transform="rotate(270) translate(-36 17)" onmousedown="handlePan(-1,0)">
                  <use xlink:href="#rim" fill="#404040">
                        <set attributeName="fill" to="#808080" begin="arrowLeft.mouseover" end="arrowLeft.mouseout"/>
                  </use>
                  <path fill="none" stroke="white" stroke-width="1.5" d="M0,-3.0v7 M-2.5,-0.5L0,-3.0L2.5,-0.5"/>
                </g>
        </g>
        <svg viewBox="0 0 15 15" width="100%" height="30px" preserveAspectRatio="xMaxYMin meet">
         <g id="arrow_out" transform="scale(0.3 0.3)">
          <a xlink:href="class_utils_1_1_point_a1563d88d568349cd8e76904c25671594_icgraph_org.svg" target="_base">
           <rect id="button" ry="5" rx="5" y="6" x="6" height="38" width="38"
                fill="#f2f5e9" fill-opacity="0.5" stroke="#606060" stroke-width="1.0"/>
           <path id="arrow"
             d="M 11.500037,31.436501 C 11.940474,20.09759 22.043105,11.32322 32.158766,21.979434 L 37.068811,17.246167 C 37.068811,17.246167 37.088388,32 37.088388,32 L 22.160133,31.978069 C 22.160133,31.978069 26.997745,27.140456 26.997745,27.140456 C 18.528582,18.264221 13.291696,25.230495 11.500037,31.436501 z"
             style="fill:#404040;"/>
          </a>
         </g>
        </svg>
</svg>
