<?xml version="1.0" encoding="UTF-8" standalone="no"?>
<!DOCTYPE svg PUBLIC "-//W3C//DTD SVG 1.1//EN"
 "http://www.w3.org/Graphics/SVG/1.1/DTD/svg11.dtd">
<!-- Generated by graphviz version 2.44.1 (20200629.0846)
 -->
<!-- Title: C:/Users/lukac/CLionProjects/virus_real/src/protocol.cpp Pages: 1 -->
<svg width="791pt" height="599pt"
 viewBox="0.00 0.00 791.00 599.00" xmlns="http://www.w3.org/2000/svg" xmlns:xlink="http://www.w3.org/1999/xlink">
<g id="graph0" class="graph" transform="scale(1 1) rotate(0) translate(4 595)">
<title>C:/Users/lukac/CLionProjects/virus_real/src/protocol.cpp</title>
<!-- Node1 -->
<g id="node1" class="node">
<title>Node1</title>
<g id="a_node1"><a xlink:title=" ">
<polygon fill="#bfbfbf" stroke="black" points="162.5,-560.5 162.5,-590.5 307.5,-590.5 307.5,-560.5 162.5,-560.5"/>
<text text-anchor="start" x="170.5" y="-578.5" font-family="Helvetica,sans-Serif" font-size="10.00">C:/Users/lukac/CLionProjects</text>
<text text-anchor="middle" x="235" y="-567.5" font-family="Helvetica,sans-Serif" font-size="10.00">/virus_real/src/protocol.cpp</text>
</a>
</g>
</g>
<!-- Node2 -->
<g id="node2" class="node">
<title>Node2</title>
<g id="a_node2"><a xlink:href="../../d2/d5e/protocol_8h.html" target="_top" xlink:title=" ">
<polygon fill="none" stroke="black" points="205.5,-504.5 205.5,-523.5 264.5,-523.5 264.5,-504.5 205.5,-504.5"/>
<text text-anchor="middle" x="235" y="-511.5" font-family="Helvetica,sans-Serif" font-size="10.00">protocol.h</text>
</a>
</g>
</g>
<!-- Node1&#45;&gt;Node2 -->
<g id="edge1" class="edge">
<title>Node1&#45;&gt;Node2</title>
<path fill="none" stroke="midnightblue" d="M235,-560.4C235,-552.47 235,-542.46 235,-533.86"/>
<polygon fill="midnightblue" stroke="midnightblue" points="238.5,-533.66 235,-523.66 231.5,-533.66 238.5,-533.66"/>
</g>
<!-- Node12 -->
<g id="node12" class="node">
<title>Node12</title>
<g id="a_node12"><a xlink:title=" ">
<polygon fill="none" stroke="#bfbfbf" points="554,-0.5 554,-19.5 598,-19.5 598,-0.5 554,-0.5"/>
<text text-anchor="middle" x="576" y="-7.5" font-family="Helvetica,sans-Serif" font-size="10.00">cmath</text>
</a>
</g>
</g>
<!-- Node1&#45;&gt;Node12 -->
<g id="edge53" class="edge">
<title>Node1&#45;&gt;Node12</title>
<path fill="none" stroke="midnightblue" d="M307.6,-571.03C436.06,-562.89 690,-536.93 690,-459 690,-459 690,-459 690,-233 690,-147.92 622.93,-62.75 591.68,-27.68"/>
<polygon fill="midnightblue" stroke="midnightblue" points="593.89,-24.91 584.57,-19.88 588.72,-29.62 593.89,-24.91"/>
</g>
<!-- Node20 -->
<g id="node20" class="node">
<title>Node20</title>
<g id="a_node20"><a xlink:href="../../d3/daa/logic_8h.html" target="_top" xlink:title=" ">
<polygon fill="none" stroke="black" points="196.5,-280.5 196.5,-299.5 241.5,-299.5 241.5,-280.5 196.5,-280.5"/>
<text text-anchor="middle" x="219" y="-287.5" font-family="Helvetica,sans-Serif" font-size="10.00">logic.h</text>
</a>
</g>
</g>
<!-- Node1&#45;&gt;Node20 -->
<g id="edge52" class="edge">
<title>Node1&#45;&gt;Node20</title>
<path fill="none" stroke="midnightblue" d="M170.49,-560.45C119.55,-545.11 57,-514.9 57,-459 57,-459 57,-459 57,-401 57,-338.92 139.42,-309.44 186.69,-297.63"/>
<polygon fill="midnightblue" stroke="midnightblue" points="187.55,-301.03 196.47,-295.31 185.94,-294.21 187.55,-301.03"/>
</g>
<!-- Node3 -->
<g id="node3" class="node">
<title>Node3</title>
<g id="a_node3"><a xlink:title=" ">
<polygon fill="none" stroke="#bfbfbf" points="125,-112.5 125,-131.5 179,-131.5 179,-112.5 125,-112.5"/>
<text text-anchor="middle" x="152" y="-119.5" font-family="Helvetica,sans-Serif" font-size="10.00">iostream</text>
</a>
</g>
</g>
<!-- Node2&#45;&gt;Node3 -->
<g id="edge2" class="edge">
<title>Node2&#45;&gt;Node3</title>
<path fill="none" stroke="midnightblue" d="M205.65,-504.5C164.6,-490.59 95,-458.79 95,-403 95,-403 95,-403 95,-289 95,-232.06 125.37,-169.79 141.78,-140.32"/>
<polygon fill="midnightblue" stroke="midnightblue" points="144.82,-142.05 146.74,-131.63 138.74,-138.58 144.82,-142.05"/>
</g>
<!-- Node4 -->
<g id="node4" class="node">
<title>Node4</title>
<g id="a_node4"><a xlink:href="../../db/db2/iface_8h.html" target="_top" xlink:title=" ">
<polygon fill="none" stroke="black" points="312.5,-448.5 312.5,-467.5 357.5,-467.5 357.5,-448.5 312.5,-448.5"/>
<text text-anchor="middle" x="335" y="-455.5" font-family="Helvetica,sans-Serif" font-size="10.00">iface.h</text>
</a>
</g>
</g>
<!-- Node2&#45;&gt;Node4 -->
<g id="edge3" class="edge">
<title>Node2&#45;&gt;Node4</title>
<path fill="none" stroke="midnightblue" d="M251.07,-504.32C266.96,-495.74 291.51,-482.49 309.96,-472.52"/>
<polygon fill="midnightblue" stroke="midnightblue" points="311.84,-475.49 318.97,-467.65 308.51,-469.33 311.84,-475.49"/>
</g>
<!-- Node4&#45;&gt;Node4 -->
<g id="edge30" class="edge">
<title>Node4&#45;&gt;Node4</title>
<path fill="none" stroke="midnightblue" d="M352.48,-467.57C364.15,-470.27 375.5,-467.08 375.5,-458 375.5,-451.62 369.89,-448.14 362.5,-447.58"/>
<polygon fill="midnightblue" stroke="midnightblue" points="362.15,-444.1 352.48,-448.43 362.74,-451.07 362.15,-444.1"/>
</g>
<!-- Node5 -->
<g id="node5" class="node">
<title>Node5</title>
<g id="a_node5"><a xlink:href="../../da/d15/grid_8h.html" target="_top" xlink:title=" ">
<polygon fill="none" stroke="black" points="410.5,-224.5 410.5,-243.5 451.5,-243.5 451.5,-224.5 410.5,-224.5"/>
<text text-anchor="middle" x="431" y="-231.5" font-family="Helvetica,sans-Serif" font-size="10.00">grid.h</text>
</a>
</g>
</g>
<!-- Node4&#45;&gt;Node5 -->
<g id="edge4" class="edge">
<title>Node4&#45;&gt;Node5</title>
<path fill="none" stroke="midnightblue" d="M354.06,-448.38C368.44,-440.86 387.45,-428.55 398,-412 430.01,-361.78 432.65,-288.26 431.91,-253.95"/>
<polygon fill="midnightblue" stroke="midnightblue" points="435.39,-253.42 431.55,-243.55 428.4,-253.67 435.39,-253.42"/>
</g>
<!-- Node4&#45;&gt;Node20 -->
<g id="edge31" class="edge">
<title>Node4&#45;&gt;Node20</title>
<path fill="none" stroke="midnightblue" d="M322.32,-448.27C310.57,-439.81 292.99,-426.2 280,-412 259.7,-389.8 255.57,-382.84 242,-356 234.4,-340.98 228.21,-322.85 224.18,-309.55"/>
<polygon fill="midnightblue" stroke="midnightblue" points="227.46,-308.32 221.31,-299.7 220.74,-310.28 227.46,-308.32"/>
</g>
<!-- Node21 -->
<g id="node21" class="node">
<title>Node21</title>
<g id="a_node21"><a xlink:href="../../db/d16/config_8h.html" target="_top" xlink:title=" ">
<polygon fill="none" stroke="black" points="508,-224.5 508,-243.5 558,-243.5 558,-224.5 508,-224.5"/>
<text text-anchor="middle" x="533" y="-231.5" font-family="Helvetica,sans-Serif" font-size="10.00">config.h</text>
</a>
</g>
</g>
<!-- Node4&#45;&gt;Node21 -->
<g id="edge51" class="edge">
<title>Node4&#45;&gt;Node21</title>
<path fill="none" stroke="midnightblue" d="M357.05,-448.44C374.7,-440.81 399.35,-428.32 417,-412 469.07,-363.85 508.57,-287.68 524.85,-253.12"/>
<polygon fill="midnightblue" stroke="midnightblue" points="528.13,-254.35 529.14,-243.81 521.78,-251.42 528.13,-254.35"/>
</g>
<!-- Node22 -->
<g id="node22" class="node">
<title>Node22</title>
<g id="a_node22"><a xlink:href="../../d1/df3/ai_8h.html" target="_top" xlink:title=" ">
<polygon fill="none" stroke="black" points="289,-392.5 289,-411.5 321,-411.5 321,-392.5 289,-392.5"/>
<text text-anchor="middle" x="305" y="-399.5" font-family="Helvetica,sans-Serif" font-size="10.00">ai.h</text>
</a>
</g>
</g>
<!-- Node4&#45;&gt;Node22 -->
<g id="edge40" class="edge">
<title>Node4&#45;&gt;Node22</title>
<path fill="none" stroke="midnightblue" d="M330.05,-448.08C325.9,-440.61 319.85,-429.72 314.73,-420.52"/>
<polygon fill="midnightblue" stroke="midnightblue" points="317.78,-418.79 309.86,-411.75 311.66,-422.19 317.78,-418.79"/>
</g>
<!-- Node24 -->
<g id="node24" class="node">
<title>Node24</title>
<g id="a_node24"><a xlink:title=" ">
<polygon fill="none" stroke="#bfbfbf" points="339.5,-392.5 339.5,-411.5 388.5,-411.5 388.5,-392.5 339.5,-392.5"/>
<text text-anchor="middle" x="364" y="-399.5" font-family="Helvetica,sans-Serif" font-size="10.00">ctype.h</text>
</a>
</g>
</g>
<!-- Node4&#45;&gt;Node24 -->
<g id="edge50" class="edge">
<title>Node4&#45;&gt;Node24</title>
<path fill="none" stroke="midnightblue" d="M339.79,-448.08C343.76,-440.69 349.53,-429.95 354.43,-420.81"/>
<polygon fill="midnightblue" stroke="midnightblue" points="357.65,-422.22 359.3,-411.75 351.49,-418.91 357.65,-422.22"/>
</g>
<!-- Node6 -->
<g id="node6" class="node">
<title>Node6</title>
<g id="a_node6"><a xlink:title=" ">
<polygon fill="none" stroke="#bfbfbf" points="293,-56.5 293,-75.5 335,-75.5 335,-56.5 293,-56.5"/>
<text text-anchor="middle" x="314" y="-63.5" font-family="Helvetica,sans-Serif" font-size="10.00">vector</text>
</a>
</g>
</g>
<!-- Node5&#45;&gt;Node6 -->
<g id="edge5" class="edge">
<title>Node5&#45;&gt;Node6</title>
<path fill="none" stroke="midnightblue" d="M424.71,-224.08C405.97,-197.49 350.32,-118.54 325.82,-83.76"/>
<polygon fill="midnightblue" stroke="midnightblue" points="328.66,-81.73 320.04,-75.57 322.94,-85.76 328.66,-81.73"/>
</g>
<!-- Node7 -->
<g id="node7" class="node">
<title>Node7</title>
<g id="a_node7"><a xlink:title=" ">
<polygon fill="none" stroke="#bfbfbf" points="139.5,-56.5 139.5,-75.5 198.5,-75.5 198.5,-56.5 139.5,-56.5"/>
<text text-anchor="middle" x="169" y="-63.5" font-family="Helvetica,sans-Serif" font-size="10.00">stdexcept</text>
</a>
</g>
</g>
<!-- Node5&#45;&gt;Node7 -->
<g id="edge6" class="edge">
<title>Node5&#45;&gt;Node7</title>
<path fill="none" stroke="midnightblue" d="M419.55,-224.22C392.23,-203.46 320.74,-150.22 257,-112 237.38,-100.24 214.33,-88.52 196.74,-79.99"/>
<polygon fill="midnightblue" stroke="midnightblue" points="198.12,-76.77 187.59,-75.6 195.1,-83.08 198.12,-76.77"/>
</g>
<!-- Node8 -->
<g id="node8" class="node">
<title>Node8</title>
<g id="a_node8"><a xlink:href="../../d5/d5a/field_8h.html" target="_top" xlink:title=" ">
<polygon fill="none" stroke="black" points="642,-56.5 642,-75.5 684,-75.5 684,-56.5 642,-56.5"/>
<text text-anchor="middle" x="663" y="-63.5" font-family="Helvetica,sans-Serif" font-size="10.00">field.h</text>
</a>
</g>
</g>
<!-- Node5&#45;&gt;Node8 -->
<g id="edge7" class="edge">
<title>Node5&#45;&gt;Node8</title>
<path fill="none" stroke="midnightblue" d="M451.58,-227.81C484.91,-219.16 548.88,-201.4 568,-188 607.76,-160.14 638.95,-110.84 653.7,-84.59"/>
<polygon fill="midnightblue" stroke="midnightblue" points="656.8,-86.21 658.53,-75.75 650.66,-82.85 656.8,-86.21"/>
</g>
<!-- Node13 -->
<g id="node13" class="node">
<title>Node13</title>
<g id="a_node13"><a xlink:href="../../d5/d60/utils_8h.html" target="_top" xlink:title=" ">
<polygon fill="none" stroke="black" points="204.5,-112.5 204.5,-131.5 247.5,-131.5 247.5,-112.5 204.5,-112.5"/>
<text text-anchor="middle" x="226" y="-119.5" font-family="Helvetica,sans-Serif" font-size="10.00">utils.h</text>
</a>
</g>
</g>
<!-- Node5&#45;&gt;Node13 -->
<g id="edge12" class="edge">
<title>Node5&#45;&gt;Node13</title>
<path fill="none" stroke="midnightblue" d="M410.43,-225.11C389.32,-216.76 355.73,-202.78 328,-188 298.75,-172.41 266.8,-151.34 246.59,-137.47"/>
<polygon fill="midnightblue" stroke="midnightblue" points="248.4,-134.46 238.19,-131.65 244.42,-140.22 248.4,-134.46"/>
</g>
<!-- Node15 -->
<g id="node15" class="node">
<title>Node15</title>
<g id="a_node15"><a xlink:href="../../dc/d5f/country_8h.html" target="_top" xlink:title=" ">
<polygon fill="none" stroke="black" points="408.5,-168.5 408.5,-187.5 465.5,-187.5 465.5,-168.5 408.5,-168.5"/>
<text text-anchor="middle" x="437" y="-175.5" font-family="Helvetica,sans-Serif" font-size="10.00">country.h</text>
</a>
</g>
</g>
<!-- Node5&#45;&gt;Node15 -->
<g id="edge16" class="edge">
<title>Node5&#45;&gt;Node15</title>
<path fill="none" stroke="midnightblue" d="M431.99,-224.08C432.79,-216.93 433.93,-206.64 434.92,-197.69"/>
<polygon fill="midnightblue" stroke="midnightblue" points="438.4,-198.08 436.03,-187.75 431.44,-197.3 438.4,-198.08"/>
</g>
<!-- Node18 -->
<g id="node18" class="node">
<title>Node18</title>
<g id="a_node18"><a xlink:href="../../dd/dae/district_8h.html" target="_top" xlink:title=" ">
<polygon fill="none" stroke="black" points="456,-112.5 456,-131.5 510,-131.5 510,-112.5 456,-112.5"/>
<text text-anchor="middle" x="483" y="-119.5" font-family="Helvetica,sans-Serif" font-size="10.00">district.h</text>
</a>
</g>
</g>
<!-- Node5&#45;&gt;Node18 -->
<g id="edge28" class="edge">
<title>Node5&#45;&gt;Node18</title>
<path fill="none" stroke="midnightblue" d="M442.92,-224.48C453.27,-216.37 467.71,-203.16 475,-188 481.93,-173.59 483.66,-155.4 483.81,-141.93"/>
<polygon fill="midnightblue" stroke="midnightblue" points="487.31,-141.85 483.65,-131.91 480.31,-141.96 487.31,-141.85"/>
</g>
<!-- Node19 -->
<g id="node19" class="node">
<title>Node19</title>
<g id="a_node19"><a xlink:title=" ">
<polygon fill="none" stroke="#bfbfbf" points="510,-56.5 510,-75.5 566,-75.5 566,-56.5 510,-56.5"/>
<text text-anchor="middle" x="538" y="-63.5" font-family="Helvetica,sans-Serif" font-size="10.00">algorithm</text>
</a>
</g>
</g>
<!-- Node5&#45;&gt;Node19 -->
<g id="edge29" class="edge">
<title>Node5&#45;&gt;Node19</title>
<path fill="none" stroke="midnightblue" d="M451.75,-226.53C484.23,-216.21 544.03,-196.32 550,-188 572.07,-157.25 557.34,-110.22 546.53,-84.8"/>
<polygon fill="midnightblue" stroke="midnightblue" points="549.69,-83.3 542.39,-75.62 543.31,-86.17 549.69,-83.3"/>
</g>
<!-- Node9 -->
<g id="node9" class="node">
<title>Node9</title>
<g id="a_node9"><a xlink:title=" ">
<polygon fill="none" stroke="#bfbfbf" points="616.5,-0.5 616.5,-19.5 651.5,-19.5 651.5,-0.5 616.5,-0.5"/>
<text text-anchor="middle" x="634" y="-7.5" font-family="Helvetica,sans-Serif" font-size="10.00">map</text>
</a>
</g>
</g>
<!-- Node8&#45;&gt;Node9 -->
<g id="edge8" class="edge">
<title>Node8&#45;&gt;Node9</title>
<path fill="none" stroke="midnightblue" d="M658.21,-56.08C654.24,-48.69 648.47,-37.95 643.57,-28.81"/>
<polygon fill="midnightblue" stroke="midnightblue" points="646.51,-26.91 638.7,-19.75 640.35,-30.22 646.51,-26.91"/>
</g>
<!-- Node10 -->
<g id="node10" class="node">
<title>Node10</title>
<g id="a_node10"><a xlink:title=" ">
<polygon fill="none" stroke="#bfbfbf" points="669.5,-0.5 669.5,-19.5 712.5,-19.5 712.5,-0.5 669.5,-0.5"/>
<text text-anchor="middle" x="691" y="-7.5" font-family="Helvetica,sans-Serif" font-size="10.00">queue</text>
</a>
</g>
</g>
<!-- Node8&#45;&gt;Node10 -->
<g id="edge9" class="edge">
<title>Node8&#45;&gt;Node10</title>
<path fill="none" stroke="midnightblue" d="M667.62,-56.08C671.46,-48.69 677.02,-37.95 681.76,-28.81"/>
<polygon fill="midnightblue" stroke="midnightblue" points="684.97,-30.24 686.46,-19.75 678.75,-27.02 684.97,-30.24"/>
</g>
<!-- Node11 -->
<g id="node11" class="node">
<title>Node11</title>
<g id="a_node11"><a xlink:title=" ">
<polygon fill="none" stroke="#bfbfbf" points="731,-0.5 731,-19.5 783,-19.5 783,-0.5 731,-0.5"/>
<text text-anchor="middle" x="757" y="-7.5" font-family="Helvetica,sans-Serif" font-size="10.00">sstream</text>
</a>
</g>
</g>
<!-- Node8&#45;&gt;Node11 -->
<g id="edge10" class="edge">
<title>Node8&#45;&gt;Node11</title>
<path fill="none" stroke="midnightblue" d="M678.1,-56.32C692.9,-47.82 715.69,-34.73 732.98,-24.8"/>
<polygon fill="midnightblue" stroke="midnightblue" points="735.01,-27.67 741.93,-19.65 731.52,-21.6 735.01,-27.67"/>
</g>
<!-- Node8&#45;&gt;Node12 -->
<g id="edge11" class="edge">
<title>Node8&#45;&gt;Node12</title>
<path fill="none" stroke="midnightblue" d="M649.02,-56.32C635.45,-47.9 614.62,-34.97 598.68,-25.07"/>
<polygon fill="midnightblue" stroke="midnightblue" points="600.29,-21.95 589.94,-19.65 596.59,-27.9 600.29,-21.95"/>
</g>
<!-- Node13&#45;&gt;Node6 -->
<g id="edge15" class="edge">
<title>Node13&#45;&gt;Node6</title>
<path fill="none" stroke="midnightblue" d="M240.14,-112.32C253.87,-103.9 274.94,-90.97 291.06,-81.07"/>
<polygon fill="midnightblue" stroke="midnightblue" points="293.2,-83.87 299.9,-75.65 289.54,-77.9 293.2,-83.87"/>
</g>
<!-- Node13&#45;&gt;Node7 -->
<g id="edge13" class="edge">
<title>Node13&#45;&gt;Node7</title>
<path fill="none" stroke="midnightblue" d="M216.84,-112.32C208.5,-104.42 195.97,-92.55 185.82,-82.94"/>
<polygon fill="midnightblue" stroke="midnightblue" points="187.99,-80.17 178.32,-75.83 183.18,-85.25 187.99,-80.17"/>
</g>
<!-- Node14 -->
<g id="node14" class="node">
<title>Node14</title>
<g id="a_node14"><a xlink:title=" ">
<polygon fill="none" stroke="#bfbfbf" points="216.5,-56.5 216.5,-75.5 261.5,-75.5 261.5,-56.5 216.5,-56.5"/>
<text text-anchor="middle" x="239" y="-63.5" font-family="Helvetica,sans-Serif" font-size="10.00">climits</text>
</a>
</g>
</g>
<!-- Node13&#45;&gt;Node14 -->
<g id="edge14" class="edge">
<title>Node13&#45;&gt;Node14</title>
<path fill="none" stroke="midnightblue" d="M228.15,-112.08C229.87,-104.93 232.35,-94.64 234.5,-85.69"/>
<polygon fill="midnightblue" stroke="midnightblue" points="237.96,-86.29 236.89,-75.75 231.15,-84.65 237.96,-86.29"/>
</g>
<!-- Node15&#45;&gt;Node3 -->
<g id="edge18" class="edge">
<title>Node15&#45;&gt;Node3</title>
<path fill="none" stroke="midnightblue" d="M408.4,-171.82C363.24,-163.61 272.65,-146.99 196,-132 193.82,-131.57 191.59,-131.13 189.33,-130.68"/>
<polygon fill="midnightblue" stroke="midnightblue" points="189.94,-127.23 179.45,-128.69 188.56,-134.1 189.94,-127.23"/>
</g>
<!-- Node15&#45;&gt;Node6 -->
<g id="edge17" class="edge">
<title>Node15&#45;&gt;Node6</title>
<path fill="none" stroke="midnightblue" d="M427.35,-168.37C406.6,-149.81 357.51,-105.91 331.26,-82.44"/>
<polygon fill="midnightblue" stroke="midnightblue" points="333.39,-79.65 323.61,-75.59 328.73,-84.87 333.39,-79.65"/>
</g>
<!-- Node15&#45;&gt;Node13 -->
<g id="edge21" class="edge">
<title>Node15&#45;&gt;Node13</title>
<path fill="none" stroke="midnightblue" d="M408.1,-169.6C368.65,-159.51 298.18,-141.47 257.44,-131.05"/>
<polygon fill="midnightblue" stroke="midnightblue" points="258.07,-127.6 247.52,-128.51 256.34,-134.38 258.07,-127.6"/>
</g>
<!-- Node16 -->
<g id="node16" class="node">
<title>Node16</title>
<g id="a_node16"><a xlink:title=" ">
<polygon fill="none" stroke="#bfbfbf" points="378,-56.5 378,-75.5 408,-75.5 408,-56.5 378,-56.5"/>
<text text-anchor="middle" x="393" y="-63.5" font-family="Helvetica,sans-Serif" font-size="10.00">set</text>
</a>
</g>
</g>
<!-- Node15&#45;&gt;Node16 -->
<g id="edge19" class="edge">
<title>Node15&#45;&gt;Node16</title>
<path fill="none" stroke="midnightblue" d="M433.55,-168.37C426.38,-150.46 409.77,-108.92 400.18,-84.95"/>
<polygon fill="midnightblue" stroke="midnightblue" points="403.4,-83.58 396.44,-75.59 396.9,-86.18 403.4,-83.58"/>
</g>
<!-- Node17 -->
<g id="node17" class="node">
<title>Node17</title>
<g id="a_node17"><a xlink:title=" ">
<polygon fill="none" stroke="#bfbfbf" points="431,-56.5 431,-75.5 489,-75.5 489,-56.5 431,-56.5"/>
<text text-anchor="middle" x="460" y="-63.5" font-family="Helvetica,sans-Serif" font-size="10.00">functional</text>
</a>
</g>
</g>
<!-- Node15&#45;&gt;Node17 -->
<g id="edge20" class="edge">
<title>Node15&#45;&gt;Node17</title>
<path fill="none" stroke="midnightblue" d="M438,-168.1C439.5,-155.52 442.63,-131.85 447,-112 448.97,-103.05 451.73,-93.27 454.19,-85.11"/>
<polygon fill="midnightblue" stroke="midnightblue" points="457.54,-86.13 457.18,-75.54 450.86,-84.05 457.54,-86.13"/>
</g>
<!-- Node15&#45;&gt;Node18 -->
<g id="edge22" class="edge">
<title>Node15&#45;&gt;Node18</title>
<path fill="none" stroke="midnightblue" d="M444.6,-168.08C451.23,-160.3 461.02,-148.8 469.06,-139.37"/>
<polygon fill="midnightblue" stroke="midnightblue" points="471.73,-141.63 475.55,-131.75 466.4,-137.09 471.73,-141.63"/>
</g>
<!-- Node18&#45;&gt;Node6 -->
<g id="edge23" class="edge">
<title>Node18&#45;&gt;Node6</title>
<path fill="none" stroke="midnightblue" d="M456.22,-112.44C425.9,-102.76 376.59,-87 344.73,-76.82"/>
<polygon fill="midnightblue" stroke="midnightblue" points="345.64,-73.43 335.05,-73.73 343.51,-80.1 345.64,-73.43"/>
</g>
<!-- Node18&#45;&gt;Node8 -->
<g id="edge24" class="edge">
<title>Node18&#45;&gt;Node8</title>
<path fill="none" stroke="midnightblue" d="M510.34,-112.8C543.05,-102.99 597.68,-86.6 631.95,-76.31"/>
<polygon fill="midnightblue" stroke="midnightblue" points="633.31,-79.56 641.89,-73.33 631.3,-72.85 633.31,-79.56"/>
</g>
<!-- Node18&#45;&gt;Node16 -->
<g id="edge26" class="edge">
<title>Node18&#45;&gt;Node16</title>
<path fill="none" stroke="midnightblue" d="M468.54,-112.32C454.5,-103.9 432.95,-90.97 416.46,-81.07"/>
<polygon fill="midnightblue" stroke="midnightblue" points="417.8,-77.8 407.42,-75.65 414.2,-83.8 417.8,-77.8"/>
</g>
<!-- Node18&#45;&gt;Node17 -->
<g id="edge27" class="edge">
<title>Node18&#45;&gt;Node17</title>
<path fill="none" stroke="midnightblue" d="M479.2,-112.08C476.09,-104.77 471.58,-94.18 467.71,-85.1"/>
<polygon fill="midnightblue" stroke="midnightblue" points="470.87,-83.58 463.73,-75.75 464.43,-86.32 470.87,-83.58"/>
</g>
<!-- Node18&#45;&gt;Node19 -->
<g id="edge25" class="edge">
<title>Node18&#45;&gt;Node19</title>
<path fill="none" stroke="midnightblue" d="M492.08,-112.08C500.17,-104.14 512.2,-92.34 521.91,-82.8"/>
<polygon fill="midnightblue" stroke="midnightblue" points="524.4,-85.25 529.09,-75.75 519.5,-80.26 524.4,-85.25"/>
</g>
<!-- Node20&#45;&gt;Node3 -->
<g id="edge38" class="edge">
<title>Node20&#45;&gt;Node3</title>
<path fill="none" stroke="midnightblue" d="M215.4,-280.08C204.81,-253.83 173.61,-176.55 159.31,-141.12"/>
<polygon fill="midnightblue" stroke="midnightblue" points="162.45,-139.53 155.46,-131.57 155.96,-142.15 162.45,-139.53"/>
</g>
<!-- Node20&#45;&gt;Node5 -->
<g id="edge36" class="edge">
<title>Node20&#45;&gt;Node5</title>
<path fill="none" stroke="midnightblue" d="M241.64,-283.27C275.3,-274.73 340.55,-258.18 396,-244 397.44,-243.63 398.92,-243.25 400.41,-242.87"/>
<polygon fill="midnightblue" stroke="midnightblue" points="401.46,-246.22 410.27,-240.34 399.72,-239.44 401.46,-246.22"/>
</g>
<!-- Node20&#45;&gt;Node6 -->
<g id="edge33" class="edge">
<title>Node20&#45;&gt;Node6</title>
<path fill="none" stroke="midnightblue" d="M206.75,-280.33C170.47,-253.63 68.98,-170.91 116,-112 118.63,-108.71 227.75,-85.24 282.85,-73.56"/>
<polygon fill="midnightblue" stroke="midnightblue" points="283.73,-76.95 292.79,-71.46 282.28,-70.1 283.73,-76.95"/>
</g>
<!-- Node20&#45;&gt;Node7 -->
<g id="edge34" class="edge">
<title>Node20&#45;&gt;Node7</title>
<path fill="none" stroke="midnightblue" d="M196.39,-282.25C160.3,-270.1 90.8,-240.77 62,-188 45.82,-158.35 43.31,-140.14 62,-112 76.93,-89.53 105.5,-78.25 129.37,-72.61"/>
<polygon fill="midnightblue" stroke="midnightblue" points="130.2,-76.01 139.26,-70.52 128.75,-69.16 130.2,-76.01"/>
</g>
<!-- Node20&#45;&gt;Node12 -->
<g id="edge35" class="edge">
<title>Node20&#45;&gt;Node12</title>
<path fill="none" stroke="midnightblue" d="M196.39,-288.03C140.43,-284.29 0,-266.22 0,-179 0,-179 0,-179 0,-121 0,-56.4 67.96,-73.98 130,-56 279.97,-12.53 468.81,-9.56 543.48,-10.3"/>
<polygon fill="midnightblue" stroke="midnightblue" points="543.61,-13.81 553.65,-10.44 543.7,-6.81 543.61,-13.81"/>
</g>
<!-- Node20&#45;&gt;Node13 -->
<g id="edge39" class="edge">
<title>Node20&#45;&gt;Node13</title>
<path fill="none" stroke="midnightblue" d="M219.93,-280.39C220.87,-271.34 222.28,-256.69 223,-244 225.06,-207.76 225.7,-165.34 225.91,-141.57"/>
<polygon fill="midnightblue" stroke="midnightblue" points="229.41,-141.54 225.98,-131.52 222.41,-141.49 229.41,-141.54"/>
</g>
<!-- Node20&#45;&gt;Node19 -->
<g id="edge32" class="edge">
<title>Node20&#45;&gt;Node19</title>
<path fill="none" stroke="midnightblue" d="M241.79,-280.78C300.78,-259.42 455.22,-202.74 475,-188 500.38,-169.09 504.52,-160.15 519,-132 526.56,-117.3 531.55,-99.13 534.51,-85.75"/>
<polygon fill="midnightblue" stroke="midnightblue" points="537.97,-86.31 536.53,-75.81 531.11,-84.91 537.97,-86.31"/>
</g>
<!-- Node20&#45;&gt;Node21 -->
<g id="edge37" class="edge">
<title>Node20&#45;&gt;Node21</title>
<path fill="none" stroke="midnightblue" d="M241.58,-285.12C295.53,-275.84 432.25,-252.33 497.41,-241.12"/>
<polygon fill="midnightblue" stroke="midnightblue" points="498.34,-244.51 507.6,-239.37 497.15,-237.61 498.34,-244.51"/>
</g>
<!-- Node22&#45;&gt;Node5 -->
<g id="edge41" class="edge">
<title>Node22&#45;&gt;Node5</title>
<path fill="none" stroke="midnightblue" d="M314.86,-392.2C324.38,-383.47 338.92,-369.49 350,-356 378.49,-321.32 406.42,-276.55 420.87,-252.36"/>
<polygon fill="midnightblue" stroke="midnightblue" points="423.96,-254 426.03,-243.61 417.93,-250.44 423.96,-254"/>
</g>
<!-- Node22&#45;&gt;Node13 -->
<g id="edge43" class="edge">
<title>Node22&#45;&gt;Node13</title>
<path fill="none" stroke="midnightblue" d="M288.62,-393.31C261.13,-379.32 206.88,-346.78 188,-300 165.51,-244.27 197.82,-173.04 215.61,-140.56"/>
<polygon fill="midnightblue" stroke="midnightblue" points="218.7,-142.21 220.59,-131.78 212.61,-138.75 218.7,-142.21"/>
</g>
<!-- Node22&#45;&gt;Node20 -->
<g id="edge42" class="edge">
<title>Node22&#45;&gt;Node20</title>
<path fill="none" stroke="midnightblue" d="M295.06,-392.26C285.48,-383.58 270.9,-369.64 260,-356 247.94,-340.9 236.4,-322.08 228.65,-308.58"/>
<polygon fill="midnightblue" stroke="midnightblue" points="231.68,-306.83 223.73,-299.82 225.58,-310.26 231.68,-306.83"/>
</g>
<!-- Node22&#45;&gt;Node21 -->
<g id="edge49" class="edge">
<title>Node22&#45;&gt;Node21</title>
<path fill="none" stroke="midnightblue" d="M317.55,-392.49C330.7,-383.54 351.93,-368.96 370,-356 422.4,-318.43 483.15,-272.76 513.55,-249.76"/>
<polygon fill="midnightblue" stroke="midnightblue" points="515.78,-252.47 521.63,-243.64 511.55,-246.89 515.78,-252.47"/>
</g>
<!-- Node23 -->
<g id="node23" class="node">
<title>Node23</title>
<g id="a_node23"><a xlink:href="../../d2/d3d/graphalgos_8h.html" target="_top" xlink:title=" ">
<polygon fill="none" stroke="black" points="269,-336.5 269,-355.5 341,-355.5 341,-336.5 269,-336.5"/>
<text text-anchor="middle" x="305" y="-343.5" font-family="Helvetica,sans-Serif" font-size="10.00">graphalgos.h</text>
</a>
</g>
</g>
<!-- Node22&#45;&gt;Node23 -->
<g id="edge44" class="edge">
<title>Node22&#45;&gt;Node23</title>
<path fill="none" stroke="midnightblue" d="M305,-392.08C305,-385.01 305,-374.86 305,-365.99"/>
<polygon fill="midnightblue" stroke="midnightblue" points="308.5,-365.75 305,-355.75 301.5,-365.75 308.5,-365.75"/>
</g>
<!-- Node23&#45;&gt;Node5 -->
<g id="edge47" class="edge">
<title>Node23&#45;&gt;Node5</title>
<path fill="none" stroke="midnightblue" d="M311.2,-336.3C320.87,-323.13 340.54,-297.78 361,-280 374.73,-268.06 391.89,-256.98 405.79,-248.8"/>
<polygon fill="midnightblue" stroke="midnightblue" points="407.87,-251.64 414.8,-243.63 404.39,-245.57 407.87,-251.64"/>
</g>
<!-- Node23&#45;&gt;Node8 -->
<g id="edge46" class="edge">
<title>Node23&#45;&gt;Node8</title>
<path fill="none" stroke="midnightblue" d="M317.23,-336.2C347.14,-314.95 426.86,-259.9 499,-224 539.05,-204.07 556.05,-213.22 593,-188 620.8,-169.02 627.52,-161.35 644,-132 652.09,-117.58 657.03,-99.39 659.83,-85.92"/>
<polygon fill="midnightblue" stroke="midnightblue" points="663.31,-86.38 661.71,-75.91 656.43,-85.09 663.31,-86.38"/>
</g>
<!-- Node23&#45;&gt;Node13 -->
<g id="edge45" class="edge">
<title>Node23&#45;&gt;Node13</title>
<path fill="none" stroke="midnightblue" d="M301.9,-336.3C290.23,-303.49 248.73,-186.88 232.54,-141.38"/>
<polygon fill="midnightblue" stroke="midnightblue" points="235.81,-140.13 229.16,-131.88 229.22,-142.48 235.81,-140.13"/>
</g>
<!-- Node23&#45;&gt;Node20 -->
<g id="edge48" class="edge">
<title>Node23&#45;&gt;Node20</title>
<path fill="none" stroke="midnightblue" d="M291.18,-336.32C277.77,-327.9 257.18,-314.97 241.41,-305.07"/>
<polygon fill="midnightblue" stroke="midnightblue" points="243.11,-302.01 232.78,-299.65 239.39,-307.94 243.11,-302.01"/>
</g>
</g>
</svg>
