<?xml version="1.0" encoding="UTF-8" standalone="no"?>
<!DOCTYPE svg PUBLIC "-//W3C//DTD SVG 1.1//EN"
 "http://www.w3.org/Graphics/SVG/1.1/DTD/svg11.dtd">
<!-- Generated by graphviz version 2.44.1 (20200629.0846)
 -->
<!-- Title: AI::calculatePutVaccines Pages: 1 -->
<svg width="579pt" height="268pt"
 viewBox="0.00 0.00 579.00 267.50" xmlns="http://www.w3.org/2000/svg" xmlns:xlink="http://www.w3.org/1999/xlink">
<g id="graph0" class="graph" transform="scale(1 1) rotate(0) translate(4 263.5)">
<title>AI::calculatePutVaccines</title>
<!-- Node1 -->
<g id="node1" class="node">
<title>Node1</title>
<g id="a_node1"><a xlink:title=" ">
<polygon fill="#bfbfbf" stroke="black" points="0,-114.5 0,-133.5 126,-133.5 126,-114.5 0,-114.5"/>
<text text-anchor="middle" x="63" y="-121.5" font-family="Helvetica,sans-Serif" font-size="10.00">AI::calculatePutVaccines</text>
</a>
</g>
</g>
<!-- Node2 -->
<g id="node2" class="node">
<title>Node2</title>
<g id="a_node2"><a xlink:href="../../d3/d56/class_country.html#af30ce5c6de9f4d0104d22f619f4e940c" target="_top" xlink:title=" ">
<polygon fill="none" stroke="black" points="162,-229 162,-259 293,-259 293,-229 162,-229"/>
<text text-anchor="start" x="170" y="-247" font-family="Helvetica,sans-Serif" font-size="10.00">Country::addToVaccinated</text>
<text text-anchor="middle" x="227.5" y="-236" font-family="Helvetica,sans-Serif" font-size="10.00">Fields</text>
</a>
</g>
</g>
<!-- Node1&#45;&gt;Node2 -->
<g id="edge1" class="edge">
<title>Node1&#45;&gt;Node2</title>
<path fill="none" stroke="midnightblue" d="M71.65,-133.65C86.97,-152.43 123.29,-194.2 162,-219 164.97,-220.9 168.11,-222.7 171.34,-224.39"/>
<polygon fill="midnightblue" stroke="midnightblue" points="170.09,-227.67 180.62,-228.86 173.13,-221.37 170.09,-227.67"/>
</g>
<!-- Node3 -->
<g id="node3" class="node">
<title>Node3</title>
<g id="a_node3"><a xlink:href="../../da/d74/class_grid.html#a122b323349de05dbe68517d602cb2221" target="_top" xlink:title=" ">
<polygon fill="none" stroke="black" points="173,-190.5 173,-209.5 282,-209.5 282,-190.5 173,-190.5"/>
<text text-anchor="middle" x="227.5" y="-197.5" font-family="Helvetica,sans-Serif" font-size="10.00">Grid::getCountryByID</text>
</a>
</g>
</g>
<!-- Node1&#45;&gt;Node3 -->
<g id="edge2" class="edge">
<title>Node1&#45;&gt;Node3</title>
<path fill="none" stroke="midnightblue" d="M78.04,-133.63C96.58,-145.99 130.55,-167.45 162,-181 167.36,-183.31 173.08,-185.44 178.82,-187.37"/>
<polygon fill="midnightblue" stroke="midnightblue" points="177.85,-190.74 188.44,-190.44 179.98,-184.07 177.85,-190.74"/>
</g>
<!-- Node4 -->
<g id="node4" class="node">
<title>Node4</title>
<g id="a_node4"><a xlink:href="../../da/d74/class_grid.html#a258fdb0fb8bc7f13cad6637d40a7f20c" target="_top" xlink:title=" ">
<polygon fill="none" stroke="black" points="168,-152.5 168,-171.5 287,-171.5 287,-152.5 168,-152.5"/>
<text text-anchor="middle" x="227.5" y="-159.5" font-family="Helvetica,sans-Serif" font-size="10.00">Grid::getDistrictByPoint</text>
</a>
</g>
</g>
<!-- Node1&#45;&gt;Node4 -->
<g id="edge3" class="edge">
<title>Node1&#45;&gt;Node4</title>
<path fill="none" stroke="midnightblue" d="M105.01,-133.59C126.55,-138.63 153.13,-144.84 175.94,-150.18"/>
<polygon fill="midnightblue" stroke="midnightblue" points="175.25,-153.61 185.79,-152.48 176.85,-146.79 175.25,-153.61"/>
</g>
<!-- Node10 -->
<g id="node10" class="node">
<title>Node10</title>
<g id="a_node10"><a xlink:href="../../d6/d85/class_district.html#af11816ea48d5c0e7073fcef4af5d504c" target="_top" xlink:title=" ">
<polygon fill="none" stroke="black" points="174,-114.5 174,-133.5 281,-133.5 281,-114.5 174,-114.5"/>
<text text-anchor="middle" x="227.5" y="-121.5" font-family="Helvetica,sans-Serif" font-size="10.00">District::getDistrictID</text>
</a>
</g>
</g>
<!-- Node1&#45;&gt;Node10 -->
<g id="edge9" class="edge">
<title>Node1&#45;&gt;Node10</title>
<path fill="none" stroke="midnightblue" d="M126.36,-124C138.6,-124 151.44,-124 163.69,-124"/>
<polygon fill="midnightblue" stroke="midnightblue" points="163.82,-127.5 173.82,-124 163.82,-120.5 163.82,-127.5"/>
</g>
<!-- Node11 -->
<g id="node11" class="node">
<title>Node11</title>
<g id="a_node11"><a xlink:href="../../da/df6/class_logic.html#a40d196966438d3f99dbf158ae2eead48" target="_top" xlink:title=" ">
<polygon fill="none" stroke="black" points="189,-76.5 189,-95.5 266,-95.5 266,-76.5 189,-76.5"/>
<text text-anchor="middle" x="227.5" y="-83.5" font-family="Helvetica,sans-Serif" font-size="10.00">Logic::getGrid</text>
</a>
</g>
</g>
<!-- Node1&#45;&gt;Node11 -->
<g id="edge10" class="edge">
<title>Node1&#45;&gt;Node11</title>
<path fill="none" stroke="midnightblue" d="M105.01,-114.41C127.55,-109.14 155.62,-102.58 179.1,-97.08"/>
<polygon fill="midnightblue" stroke="midnightblue" points="179.91,-100.49 188.85,-94.8 178.31,-93.67 179.91,-100.49"/>
</g>
<!-- Node12 -->
<g id="node12" class="node">
<title>Node12</title>
<g id="a_node12"><a xlink:href="../../da/d74/class_grid.html#ae7393bc74ab867cc3f4409c70d80351b" target="_top" xlink:title=" ">
<polygon fill="none" stroke="black" points="186.5,-38.5 186.5,-57.5 268.5,-57.5 268.5,-38.5 186.5,-38.5"/>
<text text-anchor="middle" x="227.5" y="-45.5" font-family="Helvetica,sans-Serif" font-size="10.00">Grid::getHeight</text>
</a>
</g>
</g>
<!-- Node1&#45;&gt;Node12 -->
<g id="edge11" class="edge">
<title>Node1&#45;&gt;Node12</title>
<path fill="none" stroke="midnightblue" d="M78.04,-114.37C96.58,-102.01 130.55,-80.55 162,-67 167.36,-64.69 173.08,-62.56 178.82,-60.63"/>
<polygon fill="midnightblue" stroke="midnightblue" points="179.98,-63.93 188.44,-57.56 177.85,-57.26 179.98,-63.93"/>
</g>
<!-- Node13 -->
<g id="node13" class="node">
<title>Node13</title>
<g id="a_node13"><a xlink:href="../../da/d74/class_grid.html#a862cf2f474e31195bea649b08cfb7b46" target="_top" xlink:title=" ">
<polygon fill="none" stroke="black" points="187.5,-0.5 187.5,-19.5 267.5,-19.5 267.5,-0.5 187.5,-0.5"/>
<text text-anchor="middle" x="227.5" y="-7.5" font-family="Helvetica,sans-Serif" font-size="10.00">Grid::getWidth</text>
</a>
</g>
</g>
<!-- Node1&#45;&gt;Node13 -->
<g id="edge12" class="edge">
<title>Node1&#45;&gt;Node13</title>
<path fill="none" stroke="midnightblue" d="M71.24,-114.36C86.12,-95.22 122.09,-52.29 162,-29 166.85,-26.17 172.16,-23.73 177.58,-21.64"/>
<polygon fill="midnightblue" stroke="midnightblue" points="179.08,-24.82 187.38,-18.23 176.79,-18.21 179.08,-24.82"/>
</g>
<!-- Node5 -->
<g id="node5" class="node">
<title>Node5</title>
<g id="a_node5"><a xlink:href="../../da/d74/class_grid.html#af60e6e64cac90b7d38132dc6560b2052" target="_top" xlink:title=" ">
<polygon fill="none" stroke="black" points="331,-171.5 331,-190.5 437,-190.5 437,-171.5 331,-171.5"/>
<text text-anchor="middle" x="384" y="-178.5" font-family="Helvetica,sans-Serif" font-size="10.00">Grid::getDistrictByID</text>
</a>
</g>
</g>
<!-- Node4&#45;&gt;Node5 -->
<g id="edge4" class="edge">
<title>Node4&#45;&gt;Node5</title>
<path fill="none" stroke="midnightblue" d="M287.35,-169.24C298.32,-170.59 309.81,-172 320.88,-173.36"/>
<polygon fill="midnightblue" stroke="midnightblue" points="320.54,-176.84 330.89,-174.59 321.39,-169.9 320.54,-176.84"/>
</g>
<!-- Node6 -->
<g id="node6" class="node">
<title>Node6</title>
<g id="a_node6"><a xlink:href="../../da/d74/class_grid.html#aff3d5bc3ea4e8da08e0a78d7f73f0084" target="_top" xlink:title=" ">
<polygon fill="none" stroke="black" points="329,-133.5 329,-152.5 439,-152.5 439,-133.5 329,-133.5"/>
<text text-anchor="middle" x="384" y="-140.5" font-family="Helvetica,sans-Serif" font-size="10.00">Grid::getFieldByPoint</text>
</a>
</g>
</g>
<!-- Node4&#45;&gt;Node6 -->
<g id="edge5" class="edge">
<title>Node4&#45;&gt;Node6</title>
<path fill="none" stroke="midnightblue" d="M287.35,-154.76C297.58,-153.5 308.27,-152.19 318.65,-150.91"/>
<polygon fill="midnightblue" stroke="midnightblue" points="319.38,-154.35 328.88,-149.66 318.53,-147.4 319.38,-154.35"/>
</g>
<!-- Node7 -->
<g id="node7" class="node">
<title>Node7</title>
<g id="a_node7"><a xlink:href="../../da/d74/class_grid.html#a3618702f7872969eedc6e8817dc26776" target="_top" xlink:title=" ">
<polygon fill="none" stroke="black" points="475,-171.5 475,-190.5 571,-190.5 571,-171.5 475,-171.5"/>
<text text-anchor="middle" x="523" y="-178.5" font-family="Helvetica,sans-Serif" font-size="10.00">Grid::getFieldByID</text>
</a>
</g>
</g>
<!-- Node6&#45;&gt;Node7 -->
<g id="edge6" class="edge">
<title>Node6&#45;&gt;Node7</title>
<path fill="none" stroke="midnightblue" d="M419.57,-152.59C437.18,-157.47 458.78,-163.46 477.6,-168.68"/>
<polygon fill="midnightblue" stroke="midnightblue" points="476.87,-172.11 487.44,-171.41 478.74,-165.37 476.87,-172.11"/>
</g>
<!-- Node8 -->
<g id="node8" class="node">
<title>Node8</title>
<g id="a_node8"><a xlink:href="../../d1/d22/class_utils_1_1_point.html#a4fd453f573c399f7195a8982268a9f55" target="_top" xlink:title=" ">
<polygon fill="none" stroke="black" points="478.5,-133.5 478.5,-152.5 567.5,-152.5 567.5,-133.5 478.5,-133.5"/>
<text text-anchor="middle" x="523" y="-140.5" font-family="Helvetica,sans-Serif" font-size="10.00">Utils::Point::getX</text>
</a>
</g>
</g>
<!-- Node6&#45;&gt;Node8 -->
<g id="edge7" class="edge">
<title>Node6&#45;&gt;Node8</title>
<path fill="none" stroke="midnightblue" d="M439.15,-143C448.7,-143 458.65,-143 468.2,-143"/>
<polygon fill="midnightblue" stroke="midnightblue" points="468.36,-146.5 478.36,-143 468.36,-139.5 468.36,-146.5"/>
</g>
<!-- Node9 -->
<g id="node9" class="node">
<title>Node9</title>
<g id="a_node9"><a xlink:href="../../d1/d22/class_utils_1_1_point.html#a62ce3a4ededc21a4f417bf18e357fc8e" target="_top" xlink:title=" ">
<polygon fill="none" stroke="black" points="477.5,-95.5 477.5,-114.5 568.5,-114.5 568.5,-95.5 477.5,-95.5"/>
<text text-anchor="middle" x="523" y="-102.5" font-family="Helvetica,sans-Serif" font-size="10.00">Utils::Point::getY</text>
</a>
</g>
</g>
<!-- Node6&#45;&gt;Node9 -->
<g id="edge8" class="edge">
<title>Node6&#45;&gt;Node9</title>
<path fill="none" stroke="midnightblue" d="M419.57,-133.41C437.18,-128.53 458.78,-122.54 477.6,-117.32"/>
<polygon fill="midnightblue" stroke="midnightblue" points="478.74,-120.63 487.44,-114.59 476.87,-113.89 478.74,-120.63"/>
</g>
</g>
</svg>
