<?xml version="1.0" encoding="UTF-8" standalone="no"?>
<!DOCTYPE svg PUBLIC "-//W3C//DTD SVG 1.1//EN"
 "http://www.w3.org/Graphics/SVG/1.1/DTD/svg11.dtd">
<!-- Generated by graphviz version 2.44.1 (20200629.0846)
 -->
<!-- Title: C:/Users/lukac/CLionProjects/virus_real/src/logic.h Pages: 1 -->
<!--zoomable 441 -->
<svg id="main" version="1.1" xmlns="http://www.w3.org/2000/svg" xmlns:xlink="http://www.w3.org/1999/xlink" xml:space="preserve" onload="init(evt)">
<style type="text/css"><![CDATA[
.edge:hover path { stroke: red; }
.edge:hover polygon { stroke: red; fill: red; }
]]></style>
<script type="text/javascript"><![CDATA[
var edges = document.getElementsByTagName('g');
if (edges && edges.length) {
  for (var i=0;i<edges.length;i++) {
    if (edges[i].id.substr(0,4)=='edge') {
      edges[i].setAttribute('class','edge');
    }
  }
}
]]></script>
        <defs>
                <circle id="rim" cx="0" cy="0" r="7"/>
                <circle id="rim2" cx="0" cy="0" r="3.5"/>
                <g id="zoomPlus">
                        <use xlink:href="#rim" fill="#404040">
                                <set attributeName="fill" to="#808080" begin="zoomplus.mouseover" end="zoomplus.mouseout"/>
                        </use>
                        <path d="M-4,0h8M0,-4v8" fill="none" stroke="white" stroke-width="1.5" pointer-events="none"/>
                </g>
                <g id="zoomMin">
                        <use xlink:href="#rim" fill="#404040">
                                <set attributeName="fill" to="#808080" begin="zoomminus.mouseover" end="zoomminus.mouseout"/>
                        </use>
                        <path d="M-4,0h8" fill="none" stroke="white" stroke-width="1.5" pointer-events="none"/>
                </g>
                <g id="dirArrow">
                        <path fill="none" stroke="white" stroke-width="1.5" d="M0,-3.0v7 M-2.5,-0.5L0,-3.0L2.5,-0.5"/>
                </g>
               <g id="resetDef">
                       <use xlink:href="#rim2" fill="#404040">
                               <set attributeName="fill" to="#808080" begin="reset.mouseover" end="reset.mouseout"/>
                       </use>
               </g>
        </defs>

<script type="text/javascript">
var viewWidth = 882;
var viewHeight = 441;
var sectionId = 'dynsection-1';
</script>
<script xlink:href="../../svgpan.js"/>
<svg id="graph" class="graph">
<g id="viewport">
<title>C:/Users/lukac/CLionProjects/virus_real/src/logic.h</title>
<!-- Node1 -->
<g id="node1" class="node">
<title>Node1</title>
<g id="a_node1"><a xlink:title=" ">
<polygon fill="#bfbfbf" stroke="black" points="571,-402.5 571,-432.5 716,-432.5 716,-402.5 571,-402.5"/>
<text text-anchor="start" x="579" y="-420.5" font-family="Helvetica,sans-Serif" font-size="10.00">C:/Users/lukac/CLionProjects</text>
<text text-anchor="middle" x="643.5" y="-409.5" font-family="Helvetica,sans-Serif" font-size="10.00">/virus_real/src/logic.h</text>
</a>
</g>
</g>
<!-- Node2 -->
<g id="node2" class="node">
<title>Node2</title>
<g id="a_node2"><a xlink:href="../../d1/df3/ai_8h.html" target="_top" xlink:title=" ">
<polygon fill="none" stroke="black" points="287,-268.5 287,-298.5 432,-298.5 432,-268.5 287,-268.5"/>
<text text-anchor="start" x="295" y="-286.5" font-family="Helvetica,sans-Serif" font-size="10.00">C:/Users/lukac/CLionProjects</text>
<text text-anchor="middle" x="359.5" y="-275.5" font-family="Helvetica,sans-Serif" font-size="10.00">/virus_real/src/ai.h</text>
</a>
</g>
</g>
<!-- Node1&#45;&gt;Node2 -->
<g id="edge1" class="edge">
<title>Node1&#45;&gt;Node2</title>
<path fill="none" stroke="midnightblue" d="M560.79,-405.88C522.97,-398.53 478.65,-386.28 442.5,-366 411.68,-348.71 384.21,-316.97 369.91,-298.62"/>
<polygon fill="midnightblue" stroke="midnightblue" points="560.29,-409.35 570.76,-407.73 561.57,-402.46 560.29,-409.35"/>
</g>
<!-- Node4 -->
<g id="node4" class="node">
<title>Node4</title>
<g id="a_node4"><a xlink:href="../../db/db2/iface_8h.html" target="_top" xlink:title=" ">
<polygon fill="none" stroke="black" points="326,-201.5 326,-231.5 471,-231.5 471,-201.5 326,-201.5"/>
<text text-anchor="start" x="334" y="-219.5" font-family="Helvetica,sans-Serif" font-size="10.00">C:/Users/lukac/CLionProjects</text>
<text text-anchor="middle" x="398.5" y="-208.5" font-family="Helvetica,sans-Serif" font-size="10.00">/virus_real/src/iface.h</text>
</a>
</g>
</g>
<!-- Node1&#45;&gt;Node4 -->
<g id="edge21" class="edge">
<title>Node1&#45;&gt;Node4</title>
<path fill="none" stroke="midnightblue" d="M644.45,-392.26C644.34,-359.43 638.99,-301.12 605.5,-268 586.46,-249.18 522.77,-235.49 471.01,-227.16"/>
<polygon fill="midnightblue" stroke="midnightblue" points="640.95,-392.3 644.32,-402.35 647.94,-392.39 640.95,-392.3"/>
</g>
<!-- Node6 -->
<g id="node6" class="node">
<title>Node6</title>
<g id="a_node6"><a xlink:href="../../d3/d5b/anti_virus_8h.html" target="_top" xlink:title=" ">
<polygon fill="none" stroke="black" points="423,-67.5 423,-97.5 568,-97.5 568,-67.5 423,-67.5"/>
<text text-anchor="start" x="431" y="-85.5" font-family="Helvetica,sans-Serif" font-size="10.00">C:/Users/lukac/CLionProjects</text>
<text text-anchor="middle" x="495.5" y="-74.5" font-family="Helvetica,sans-Serif" font-size="10.00">/virus_real/src/antiVirus.h</text>
</a>
</g>
</g>
<!-- Node1&#45;&gt;Node6 -->
<g id="edge17" class="edge">
<title>Node1&#45;&gt;Node6</title>
<path fill="none" stroke="midnightblue" d="M649.06,-392.49C654.67,-366.15 662.5,-322.55 662.5,-284.5 662.5,-284.5 662.5,-284.5 662.5,-215.5 662.5,-178.31 668.46,-161.58 643.5,-134 624.1,-112.56 595.23,-100.22 568.12,-93.12"/>
<polygon fill="midnightblue" stroke="midnightblue" points="645.63,-391.82 646.9,-402.34 652.46,-393.32 645.63,-391.82"/>
</g>
<!-- Node12 -->
<g id="node12" class="node">
<title>Node12</title>
<g id="a_node12"><a xlink:href="../../d4/d25/protocol_8cpp.html" target="_top" xlink:title=" ">
<polygon fill="none" stroke="black" points="607,-67.5 607,-97.5 752,-97.5 752,-67.5 607,-67.5"/>
<text text-anchor="start" x="615" y="-85.5" font-family="Helvetica,sans-Serif" font-size="10.00">C:/Users/lukac/CLionProjects</text>
<text text-anchor="middle" x="679.5" y="-74.5" font-family="Helvetica,sans-Serif" font-size="10.00">/virus_real/src/protocol.cpp</text>
</a>
</g>
</g>
<!-- Node1&#45;&gt;Node12 -->
<g id="edge23" class="edge">
<title>Node1&#45;&gt;Node12</title>
<path fill="none" stroke="midnightblue" d="M660.06,-393.83C676.89,-368.5 700.5,-325.63 700.5,-284.5 700.5,-284.5 700.5,-284.5 700.5,-215.5 700.5,-172.11 689.29,-121.68 683.25,-97.64"/>
<polygon fill="midnightblue" stroke="midnightblue" points="657,-392.1 654.22,-402.33 662.77,-396.06 657,-392.1"/>
</g>
<!-- Node15 -->
<g id="node15" class="node">
<title>Node15</title>
<g id="a_node15"><a xlink:href="../../d2/d3d/graphalgos_8h.html" target="_top" xlink:title=" ">
<polygon fill="none" stroke="black" points="451,-335.5 451,-365.5 596,-365.5 596,-335.5 451,-335.5"/>
<text text-anchor="start" x="459" y="-353.5" font-family="Helvetica,sans-Serif" font-size="10.00">C:/Users/lukac/CLionProjects</text>
<text text-anchor="middle" x="523.5" y="-342.5" font-family="Helvetica,sans-Serif" font-size="10.00">/virus_real/src/graphalgos.h</text>
</a>
</g>
</g>
<!-- Node1&#45;&gt;Node15 -->
<g id="edge18" class="edge">
<title>Node1&#45;&gt;Node15</title>
<path fill="none" stroke="midnightblue" d="M608.56,-397.57C589.68,-387.35 566.77,-374.94 549.49,-365.58"/>
<polygon fill="midnightblue" stroke="midnightblue" points="607,-400.71 617.46,-402.4 610.34,-394.56 607,-400.71"/>
</g>
<!-- Node17 -->
<g id="node17" class="node">
<title>Node17</title>
<g id="a_node17"><a xlink:href="../../de/d61/logic_8cpp.html" target="_top" xlink:title=" ">
<polygon fill="none" stroke="black" points="729,-335.5 729,-365.5 874,-365.5 874,-335.5 729,-335.5"/>
<text text-anchor="start" x="737" y="-353.5" font-family="Helvetica,sans-Serif" font-size="10.00">C:/Users/lukac/CLionProjects</text>
<text text-anchor="middle" x="801.5" y="-342.5" font-family="Helvetica,sans-Serif" font-size="10.00">/virus_real/src/logic.cpp</text>
</a>
</g>
</g>
<!-- Node1&#45;&gt;Node17 -->
<g id="edge22" class="edge">
<title>Node1&#45;&gt;Node17</title>
<path fill="none" stroke="midnightblue" d="M687.15,-398.54C712.43,-388.14 743.8,-375.24 767.28,-365.58"/>
<polygon fill="midnightblue" stroke="midnightblue" points="685.7,-395.35 677.78,-402.4 688.36,-401.83 685.7,-395.35"/>
</g>
<!-- Node3 -->
<g id="node3" class="node">
<title>Node3</title>
<g id="a_node3"><a xlink:href="../../d1/d4a/ai_8cpp.html" target="_top" xlink:title=" ">
<polygon fill="none" stroke="black" points="163,-201.5 163,-231.5 308,-231.5 308,-201.5 163,-201.5"/>
<text text-anchor="start" x="171" y="-219.5" font-family="Helvetica,sans-Serif" font-size="10.00">C:/Users/lukac/CLionProjects</text>
<text text-anchor="middle" x="235.5" y="-208.5" font-family="Helvetica,sans-Serif" font-size="10.00">/virus_real/src/ai.cpp</text>
</a>
</g>
</g>
<!-- Node2&#45;&gt;Node3 -->
<g id="edge2" class="edge">
<title>Node2&#45;&gt;Node3</title>
<path fill="none" stroke="midnightblue" d="M323.66,-263.71C304.11,-253.46 280.3,-240.98 262.35,-231.58"/>
<polygon fill="midnightblue" stroke="midnightblue" points="322.11,-266.85 332.59,-268.4 325.36,-260.65 322.11,-266.85"/>
</g>
<!-- Node2&#45;&gt;Node4 -->
<g id="edge3" class="edge">
<title>Node2&#45;&gt;Node4</title>
<path fill="none" stroke="midnightblue" d="M373.25,-259.58C378.86,-250.24 385.15,-239.75 390.05,-231.58"/>
<polygon fill="midnightblue" stroke="midnightblue" points="370.11,-258.02 367.96,-268.4 376.11,-261.62 370.11,-258.02"/>
</g>
<!-- Node4&#45;&gt;Node4 -->
<g id="edge10" class="edge">
<title>Node4&#45;&gt;Node4</title>
<path fill="none" stroke="midnightblue" d="M481.19,-225C486.07,-222.97 489,-220.13 489,-216.5 489,-210.83 481.87,-207.11 471.29,-205.33"/>
<polygon fill="midnightblue" stroke="midnightblue" points="480.03,-221.69 471.29,-227.67 481.85,-228.45 480.03,-221.69"/>
</g>
<!-- Node5 -->
<g id="node5" class="node">
<title>Node5</title>
<g id="a_node5"><a xlink:href="../../d7/d04/graphics_8h.html" target="_top" xlink:title=" ">
<polygon fill="none" stroke="black" points="163,-134.5 163,-164.5 308,-164.5 308,-134.5 163,-134.5"/>
<text text-anchor="start" x="171" y="-152.5" font-family="Helvetica,sans-Serif" font-size="10.00">C:/Users/lukac/CLionProjects</text>
<text text-anchor="middle" x="235.5" y="-141.5" font-family="Helvetica,sans-Serif" font-size="10.00">/virus_real/src/graphics.h</text>
</a>
</g>
</g>
<!-- Node4&#45;&gt;Node5 -->
<g id="edge4" class="edge">
<title>Node4&#45;&gt;Node5</title>
<path fill="none" stroke="midnightblue" d="M353.82,-197.68C327.67,-187.26 295.13,-174.28 270.8,-164.58"/>
<polygon fill="midnightblue" stroke="midnightblue" points="352.55,-200.94 363.13,-201.4 355.14,-194.44 352.55,-200.94"/>
</g>
<!-- Node10 -->
<g id="node10" class="node">
<title>Node10</title>
<g id="a_node10"><a xlink:href="../../dc/d59/iface_8cpp.html" target="_top" xlink:title=" ">
<polygon fill="none" stroke="black" points="326,-134.5 326,-164.5 471,-164.5 471,-134.5 326,-134.5"/>
<text text-anchor="start" x="334" y="-152.5" font-family="Helvetica,sans-Serif" font-size="10.00">C:/Users/lukac/CLionProjects</text>
<text text-anchor="middle" x="398.5" y="-141.5" font-family="Helvetica,sans-Serif" font-size="10.00">/virus_real/src/iface.cpp</text>
</a>
</g>
</g>
<!-- Node4&#45;&gt;Node10 -->
<g id="edge9" class="edge">
<title>Node4&#45;&gt;Node10</title>
<path fill="none" stroke="midnightblue" d="M398.5,-191.11C398.5,-182.15 398.5,-172.32 398.5,-164.58"/>
<polygon fill="midnightblue" stroke="midnightblue" points="395,-191.4 398.5,-201.4 402,-191.4 395,-191.4"/>
</g>
<!-- Node11 -->
<g id="node11" class="node">
<title>Node11</title>
<g id="a_node11"><a xlink:href="../../d2/d5e/protocol_8h.html" target="_top" xlink:title=" ">
<polygon fill="none" stroke="black" points="489,-134.5 489,-164.5 634,-164.5 634,-134.5 489,-134.5"/>
<text text-anchor="start" x="497" y="-152.5" font-family="Helvetica,sans-Serif" font-size="10.00">C:/Users/lukac/CLionProjects</text>
<text text-anchor="middle" x="561.5" y="-141.5" font-family="Helvetica,sans-Serif" font-size="10.00">/virus_real/src/protocol.h</text>
</a>
</g>
</g>
<!-- Node4&#45;&gt;Node11 -->
<g id="edge11" class="edge">
<title>Node4&#45;&gt;Node11</title>
<path fill="none" stroke="midnightblue" d="M443.18,-197.68C469.33,-187.26 501.87,-174.28 526.2,-164.58"/>
<polygon fill="midnightblue" stroke="midnightblue" points="441.86,-194.44 433.87,-201.4 444.45,-200.94 441.86,-194.44"/>
</g>
<!-- Node13 -->
<g id="node13" class="node">
<title>Node13</title>
<g id="a_node13"><a xlink:href="../../d2/d02/visualization_8h.html" target="_top" xlink:title=" ">
<polygon fill="none" stroke="black" points="0,-134.5 0,-164.5 145,-164.5 145,-134.5 0,-134.5"/>
<text text-anchor="start" x="8" y="-152.5" font-family="Helvetica,sans-Serif" font-size="10.00">C:/Users/lukac/CLionProjects</text>
<text text-anchor="middle" x="72.5" y="-141.5" font-family="Helvetica,sans-Serif" font-size="10.00">/virus_real/src/visualization.h</text>
</a>
</g>
</g>
<!-- Node4&#45;&gt;Node13 -->
<g id="edge14" class="edge">
<title>Node4&#45;&gt;Node13</title>
<path fill="none" stroke="midnightblue" d="M318.33,-199.52C264.62,-188.81 194.57,-174.84 142.99,-164.55"/>
<polygon fill="midnightblue" stroke="midnightblue" points="317.67,-202.95 328.16,-201.48 319.04,-196.09 317.67,-202.95"/>
</g>
<!-- Node5&#45;&gt;Node6 -->
<g id="edge5" class="edge">
<title>Node5&#45;&gt;Node6</title>
<path fill="none" stroke="midnightblue" d="M301.56,-131.98C344.03,-121.37 398.62,-107.72 439.06,-97.61"/>
<polygon fill="midnightblue" stroke="midnightblue" points="300.45,-128.66 291.6,-134.48 302.15,-135.45 300.45,-128.66"/>
</g>
<!-- Node9 -->
<g id="node9" class="node">
<title>Node9</title>
<g id="a_node9"><a xlink:href="../../d6/d99/graphics_8cpp.html" target="_top" xlink:title=" ">
<polygon fill="none" stroke="black" points="218,-67.5 218,-97.5 363,-97.5 363,-67.5 218,-67.5"/>
<text text-anchor="start" x="226" y="-85.5" font-family="Helvetica,sans-Serif" font-size="10.00">C:/Users/lukac/CLionProjects</text>
<text text-anchor="middle" x="290.5" y="-74.5" font-family="Helvetica,sans-Serif" font-size="10.00">/virus_real/src/graphics.cpp</text>
</a>
</g>
</g>
<!-- Node5&#45;&gt;Node9 -->
<g id="edge8" class="edge">
<title>Node5&#45;&gt;Node9</title>
<path fill="none" stroke="midnightblue" d="M253.92,-126.74C262.05,-117.12 271.39,-106.09 278.59,-97.58"/>
<polygon fill="midnightblue" stroke="midnightblue" points="251.22,-124.5 247.43,-134.4 256.57,-129.02 251.22,-124.5"/>
</g>
<!-- Node7 -->
<g id="node7" class="node">
<title>Node7</title>
<g id="a_node7"><a xlink:href="../../da/d6e/anti_virus_8cpp.html" target="_top" xlink:title=" ">
<polygon fill="none" stroke="black" points="423,-0.5 423,-30.5 568,-30.5 568,-0.5 423,-0.5"/>
<text text-anchor="start" x="431" y="-18.5" font-family="Helvetica,sans-Serif" font-size="10.00">C:/Users/lukac/CLionProjects</text>
<text text-anchor="middle" x="495.5" y="-7.5" font-family="Helvetica,sans-Serif" font-size="10.00">/virus_real/src/antiVirus.cpp</text>
</a>
</g>
</g>
<!-- Node6&#45;&gt;Node7 -->
<g id="edge6" class="edge">
<title>Node6&#45;&gt;Node7</title>
<path fill="none" stroke="midnightblue" d="M495.5,-57.11C495.5,-48.15 495.5,-38.32 495.5,-30.58"/>
<polygon fill="midnightblue" stroke="midnightblue" points="492,-57.4 495.5,-67.4 499,-57.4 492,-57.4"/>
</g>
<!-- Node8 -->
<g id="node8" class="node">
<title>Node8</title>
<g id="a_node8"><a xlink:href="../../df/d0a/main_8cpp.html" target="_top" xlink:title=" ">
<polygon fill="none" stroke="black" points="125,-0.5 125,-30.5 270,-30.5 270,-0.5 125,-0.5"/>
<text text-anchor="start" x="133" y="-18.5" font-family="Helvetica,sans-Serif" font-size="10.00">C:/Users/lukac/CLionProjects</text>
<text text-anchor="middle" x="197.5" y="-7.5" font-family="Helvetica,sans-Serif" font-size="10.00">/virus_real/src/main.cpp</text>
</a>
</g>
</g>
<!-- Node6&#45;&gt;Node8 -->
<g id="edge7" class="edge">
<title>Node6&#45;&gt;Node8</title>
<path fill="none" stroke="midnightblue" d="M421.3,-65.32C372.32,-54.63 308.79,-40.77 261.94,-30.55"/>
<polygon fill="midnightblue" stroke="midnightblue" points="420.69,-68.76 431.21,-67.48 422.18,-61.93 420.69,-68.76"/>
</g>
<!-- Node11&#45;&gt;Node6 -->
<g id="edge12" class="edge">
<title>Node11&#45;&gt;Node6</title>
<path fill="none" stroke="midnightblue" d="M539.99,-127.31C530.09,-117.56 518.61,-106.26 509.79,-97.58"/>
<polygon fill="midnightblue" stroke="midnightblue" points="537.6,-129.87 547.18,-134.4 542.51,-124.89 537.6,-129.87"/>
</g>
<!-- Node11&#45;&gt;Node12 -->
<g id="edge13" class="edge">
<title>Node11&#45;&gt;Node12</title>
<path fill="none" stroke="midnightblue" d="M596.11,-129.44C614.62,-119.24 637.02,-106.9 653.95,-97.58"/>
<polygon fill="midnightblue" stroke="midnightblue" points="594.17,-126.51 587.1,-134.4 597.55,-132.64 594.17,-126.51"/>
</g>
<!-- Node13&#45;&gt;Node8 -->
<g id="edge15" class="edge">
<title>Node13&#45;&gt;Node8</title>
<path fill="none" stroke="midnightblue" d="M52.44,-126.6C39.1,-109.29 26.27,-85.12 39.5,-67 59.11,-40.14 93.19,-27.24 124.69,-21.16"/>
<polygon fill="midnightblue" stroke="midnightblue" points="49.86,-128.97 58.91,-134.48 55.27,-124.53 49.86,-128.97"/>
</g>
<!-- Node14 -->
<g id="node14" class="node">
<title>Node14</title>
<g id="a_node14"><a xlink:href="../../d3/d49/visualization_8cpp.html" target="_top" xlink:title=" ">
<polygon fill="none" stroke="black" points="49,-67.5 49,-97.5 200,-97.5 200,-67.5 49,-67.5"/>
<text text-anchor="start" x="57" y="-85.5" font-family="Helvetica,sans-Serif" font-size="10.00">C:/Users/lukac/CLionProjects</text>
<text text-anchor="middle" x="124.5" y="-74.5" font-family="Helvetica,sans-Serif" font-size="10.00">/virus_real/src/visualization.cpp</text>
</a>
</g>
</g>
<!-- Node13&#45;&gt;Node14 -->
<g id="edge16" class="edge">
<title>Node13&#45;&gt;Node14</title>
<path fill="none" stroke="midnightblue" d="M90.14,-126.45C97.78,-116.9 106.5,-106 113.24,-97.58"/>
<polygon fill="midnightblue" stroke="midnightblue" points="87.3,-124.4 83.78,-134.4 92.76,-128.77 87.3,-124.4"/>
</g>
<!-- Node15&#45;&gt;Node2 -->
<g id="edge19" class="edge">
<title>Node15&#45;&gt;Node2</title>
<path fill="none" stroke="midnightblue" d="M478.54,-331.68C452.24,-321.26 419.5,-308.28 395.02,-298.58"/>
<polygon fill="midnightblue" stroke="midnightblue" points="477.33,-334.97 487.91,-335.4 479.91,-328.46 477.33,-334.97"/>
</g>
<!-- Node16 -->
<g id="node16" class="node">
<title>Node16</title>
<g id="a_node16"><a xlink:href="../../d0/d23/graphalgos_8cpp.html" target="_top" xlink:title=" ">
<polygon fill="none" stroke="black" points="450.5,-268.5 450.5,-298.5 596.5,-298.5 596.5,-268.5 450.5,-268.5"/>
<text text-anchor="start" x="458.5" y="-286.5" font-family="Helvetica,sans-Serif" font-size="10.00">C:/Users/lukac/CLionProjects</text>
<text text-anchor="middle" x="523.5" y="-275.5" font-family="Helvetica,sans-Serif" font-size="10.00">/virus_real/src/graphalgos.cpp</text>
</a>
</g>
</g>
<!-- Node15&#45;&gt;Node16 -->
<g id="edge20" class="edge">
<title>Node15&#45;&gt;Node16</title>
<path fill="none" stroke="midnightblue" d="M523.5,-325.11C523.5,-316.15 523.5,-306.32 523.5,-298.58"/>
<polygon fill="midnightblue" stroke="midnightblue" points="520,-325.4 523.5,-335.4 527,-325.4 520,-325.4"/>
</g>
</g>
</svg>
        <g id="navigator" transform="translate(0 0)" fill="#404254">
                <rect fill="#f2f5e9" fill-opacity="0.5" stroke="#606060" stroke-width=".5" x="0" y="0" width="60" height="60"/>
                <use id="zoomplus" xlink:href="#zoomPlus" x="17" y="9" onmousedown="handleZoom(evt,'in')"/>
                <use id="zoomminus" xlink:href="#zoomMin" x="42" y="9" onmousedown="handleZoom(evt,'out')"/>
                <use id="reset" xlink:href="#resetDef" x="30" y="36" onmousedown="handleReset()"/>
                <g id="arrowUp" xlink:href="#dirArrow" transform="translate(30 24)" onmousedown="handlePan(0,-1)">
                  <use xlink:href="#rim" fill="#404040">
                        <set attributeName="fill" to="#808080" begin="arrowUp.mouseover" end="arrowUp.mouseout"/>
                  </use>
                  <path fill="none" stroke="white" stroke-width="1.5" d="M0,-3.0v7 M-2.5,-0.5L0,-3.0L2.5,-0.5"/>
                </g>
                <g id="arrowRight" xlink:href="#dirArrow" transform="rotate(90) translate(36 -43)" onmousedown="handlePan(1,0)">
                  <use xlink:href="#rim" fill="#404040">
                        <set attributeName="fill" to="#808080" begin="arrowRight.mouseover" end="arrowRight.mouseout"/>
                  </use>
                  <path fill="none" stroke="white" stroke-width="1.5" d="M0,-3.0v7 M-2.5,-0.5L0,-3.0L2.5,-0.5"/>
                </g>
                <g id="arrowDown" xlink:href="#dirArrow" transform="rotate(180) translate(-30 -48)" onmousedown="handlePan(0,1)">
                  <use xlink:href="#rim" fill="#404040">
                        <set attributeName="fill" to="#808080" begin="arrowDown.mouseover" end="arrowDown.mouseout"/>
                  </use>
                  <path fill="none" stroke="white" stroke-width="1.5" d="M0,-3.0v7 M-2.5,-0.5L0,-3.0L2.5,-0.5"/>
                </g>
                <g id="arrowLeft" xlink:href="#dirArrow" transform="rotate(270) translate(-36 17)" onmousedown="handlePan(-1,0)">
                  <use xlink:href="#rim" fill="#404040">
                        <set attributeName="fill" to="#808080" begin="arrowLeft.mouseover" end="arrowLeft.mouseout"/>
                  </use>
                  <path fill="none" stroke="white" stroke-width="1.5" d="M0,-3.0v7 M-2.5,-0.5L0,-3.0L2.5,-0.5"/>
                </g>
        </g>
        <svg viewBox="0 0 15 15" width="100%" height="30px" preserveAspectRatio="xMaxYMin meet">
         <g id="arrow_out" transform="scale(0.3 0.3)">
          <a xlink:href="logic_8h__dep__incl_org.svg" target="_base">
           <rect id="button" ry="5" rx="5" y="6" x="6" height="38" width="38"
                fill="#f2f5e9" fill-opacity="0.5" stroke="#606060" stroke-width="1.0"/>
           <path id="arrow"
             d="M 11.500037,31.436501 C 11.940474,20.09759 22.043105,11.32322 32.158766,21.979434 L 37.068811,17.246167 C 37.068811,17.246167 37.088388,32 37.088388,32 L 22.160133,31.978069 C 22.160133,31.978069 26.997745,27.140456 26.997745,27.140456 C 18.528582,18.264221 13.291696,25.230495 11.500037,31.436501 z"
             style="fill:#404040;"/>
          </a>
         </g>
        </svg>
</svg>
