<?xml version="1.0" encoding="UTF-8" standalone="no"?>
<!DOCTYPE svg PUBLIC "-//W3C//DTD SVG 1.1//EN"
 "http://www.w3.org/Graphics/SVG/1.1/DTD/svg11.dtd">
<!-- Generated by graphviz version 2.44.1 (20200629.0846)
 -->
<!-- Title: C:/Users/lukac/CLionProjects/virus_real/src/ai.h Pages: 1 -->
<svg width="768pt" height="431pt"
 viewBox="0.00 0.00 767.50 431.00" xmlns="http://www.w3.org/2000/svg" xmlns:xlink="http://www.w3.org/1999/xlink">
<g id="graph0" class="graph" transform="scale(1 1) rotate(0) translate(4 427)">
<title>C:/Users/lukac/CLionProjects/virus_real/src/ai.h</title>
<!-- Node1 -->
<g id="node1" class="node">
<title>Node1</title>
<g id="a_node1"><a xlink:title=" ">
<polygon fill="#bfbfbf" stroke="black" points="468,-392.5 468,-422.5 613,-422.5 613,-392.5 468,-392.5"/>
<text text-anchor="start" x="476" y="-410.5" font-family="Helvetica,sans-Serif" font-size="10.00">C:/Users/lukac/CLionProjects</text>
<text text-anchor="middle" x="540.5" y="-399.5" font-family="Helvetica,sans-Serif" font-size="10.00">/virus_real/src/ai.h</text>
</a>
</g>
</g>
<!-- Node2 -->
<g id="node2" class="node">
<title>Node2</title>
<g id="a_node2"><a xlink:href="../../da/d15/grid_8h.html" target="_top" xlink:title=" ">
<polygon fill="none" stroke="black" points="343,-224.5 343,-243.5 384,-243.5 384,-224.5 343,-224.5"/>
<text text-anchor="middle" x="363.5" y="-231.5" font-family="Helvetica,sans-Serif" font-size="10.00">grid.h</text>
</a>
</g>
</g>
<!-- Node1&#45;&gt;Node2 -->
<g id="edge1" class="edge">
<title>Node1&#45;&gt;Node2</title>
<path fill="none" stroke="midnightblue" d="M494.29,-392.45C473.31,-384.33 449.26,-372.43 431.5,-356 399.77,-326.65 379.12,-279.03 369.6,-253.14"/>
<polygon fill="midnightblue" stroke="midnightblue" points="372.83,-251.77 366.2,-243.5 366.22,-254.09 372.83,-251.77"/>
</g>
<!-- Node10 -->
<g id="node10" class="node">
<title>Node10</title>
<g id="a_node10"><a xlink:href="../../d5/d60/utils_8h.html" target="_top" xlink:title=" ">
<polygon fill="none" stroke="black" points="506,-112.5 506,-131.5 549,-131.5 549,-112.5 506,-112.5"/>
<text text-anchor="middle" x="527.5" y="-119.5" font-family="Helvetica,sans-Serif" font-size="10.00">utils.h</text>
</a>
</g>
</g>
<!-- Node1&#45;&gt;Node10 -->
<g id="edge36" class="edge">
<title>Node1&#45;&gt;Node10</title>
<path fill="none" stroke="midnightblue" d="M613.12,-398.37C676.87,-386.73 759.5,-358.59 759.5,-291 759.5,-291 759.5,-291 759.5,-233 759.5,-145.56 623.29,-127.54 559.61,-123.89"/>
<polygon fill="midnightblue" stroke="midnightblue" points="559.48,-120.38 549.33,-123.39 559.14,-127.37 559.48,-120.38"/>
</g>
<!-- Node18 -->
<g id="node18" class="node">
<title>Node18</title>
<g id="a_node18"><a xlink:href="../../d3/daa/logic_8h.html" target="_top" xlink:title=" ">
<polygon fill="none" stroke="black" points="518,-280.5 518,-299.5 563,-299.5 563,-280.5 518,-280.5"/>
<text text-anchor="middle" x="540.5" y="-287.5" font-family="Helvetica,sans-Serif" font-size="10.00">logic.h</text>
</a>
</g>
</g>
<!-- Node1&#45;&gt;Node18 -->
<g id="edge27" class="edge">
<title>Node1&#45;&gt;Node18</title>
<path fill="none" stroke="midnightblue" d="M540.5,-392.34C540.5,-371.62 540.5,-333.02 540.5,-309.9"/>
<polygon fill="midnightblue" stroke="midnightblue" points="544,-309.67 540.5,-299.67 537,-309.67 544,-309.67"/>
</g>
<!-- Node19 -->
<g id="node19" class="node">
<title>Node19</title>
<g id="a_node19"><a xlink:href="../../db/d16/config_8h.html" target="_top" xlink:title=" ">
<polygon fill="none" stroke="black" points="681.5,-224.5 681.5,-243.5 731.5,-243.5 731.5,-224.5 681.5,-224.5"/>
<text text-anchor="middle" x="706.5" y="-231.5" font-family="Helvetica,sans-Serif" font-size="10.00">config.h</text>
</a>
</g>
</g>
<!-- Node1&#45;&gt;Node19 -->
<g id="edge42" class="edge">
<title>Node1&#45;&gt;Node19</title>
<path fill="none" stroke="midnightblue" d="M554.08,-392.47C584.64,-360.9 658.62,-284.47 690.94,-251.07"/>
<polygon fill="midnightblue" stroke="midnightblue" points="693.77,-253.18 698.21,-243.56 688.74,-248.31 693.77,-253.18"/>
</g>
<!-- Node20 -->
<g id="node20" class="node">
<title>Node20</title>
<g id="a_node20"><a xlink:href="../../d2/d3d/graphalgos_8h.html" target="_top" xlink:title=" ">
<polygon fill="none" stroke="black" points="440.5,-336.5 440.5,-355.5 512.5,-355.5 512.5,-336.5 440.5,-336.5"/>
<text text-anchor="middle" x="476.5" y="-343.5" font-family="Helvetica,sans-Serif" font-size="10.00">graphalgos.h</text>
</a>
</g>
</g>
<!-- Node1&#45;&gt;Node20 -->
<g id="edge37" class="edge">
<title>Node1&#45;&gt;Node20</title>
<path fill="none" stroke="midnightblue" d="M525.33,-392.4C515.75,-383.49 503.34,-371.95 493.43,-362.74"/>
<polygon fill="midnightblue" stroke="midnightblue" points="495.52,-359.9 485.81,-355.66 490.75,-365.03 495.52,-359.9"/>
</g>
<!-- Node3 -->
<g id="node3" class="node">
<title>Node3</title>
<g id="a_node3"><a xlink:title=" ">
<polygon fill="none" stroke="#bfbfbf" points="418.5,-56.5 418.5,-75.5 460.5,-75.5 460.5,-56.5 418.5,-56.5"/>
<text text-anchor="middle" x="439.5" y="-63.5" font-family="Helvetica,sans-Serif" font-size="10.00">vector</text>
</a>
</g>
</g>
<!-- Node2&#45;&gt;Node3 -->
<g id="edge2" class="edge">
<title>Node2&#45;&gt;Node3</title>
<path fill="none" stroke="midnightblue" d="M369.24,-224.43C380.41,-207.44 405.32,-167.99 420.5,-132 426.92,-116.77 432.02,-98.65 435.32,-85.42"/>
<polygon fill="midnightblue" stroke="midnightblue" points="438.74,-86.17 437.64,-75.63 431.93,-84.55 438.74,-86.17"/>
</g>
<!-- Node4 -->
<g id="node4" class="node">
<title>Node4</title>
<g id="a_node4"><a xlink:title=" ">
<polygon fill="none" stroke="#bfbfbf" points="557,-56.5 557,-75.5 616,-75.5 616,-56.5 557,-56.5"/>
<text text-anchor="middle" x="586.5" y="-63.5" font-family="Helvetica,sans-Serif" font-size="10.00">stdexcept</text>
</a>
</g>
</g>
<!-- Node2&#45;&gt;Node4 -->
<g id="edge3" class="edge">
<title>Node2&#45;&gt;Node4</title>
<path fill="none" stroke="midnightblue" d="M384.01,-227.44C422.99,-215.91 508.35,-185.85 558.5,-132 570.66,-118.94 578.03,-99.79 582.14,-85.65"/>
<polygon fill="midnightblue" stroke="midnightblue" points="585.62,-86.17 584.76,-75.61 578.85,-84.4 585.62,-86.17"/>
</g>
<!-- Node5 -->
<g id="node5" class="node">
<title>Node5</title>
<g id="a_node5"><a xlink:href="../../d5/d5a/field_8h.html" target="_top" xlink:title=" ">
<polygon fill="none" stroke="black" points="66.5,-56.5 66.5,-75.5 108.5,-75.5 108.5,-56.5 66.5,-56.5"/>
<text text-anchor="middle" x="87.5" y="-63.5" font-family="Helvetica,sans-Serif" font-size="10.00">field.h</text>
</a>
</g>
</g>
<!-- Node2&#45;&gt;Node5 -->
<g id="edge4" class="edge">
<title>Node2&#45;&gt;Node5</title>
<path fill="none" stroke="midnightblue" d="M342.74,-231.62C308.57,-228.52 239.41,-218.66 190.5,-188 147.81,-161.23 113.6,-111.06 97.5,-84.51"/>
<polygon fill="midnightblue" stroke="midnightblue" points="100.34,-82.42 92.24,-75.59 94.31,-85.98 100.34,-82.42"/>
</g>
<!-- Node2&#45;&gt;Node10 -->
<g id="edge9" class="edge">
<title>Node2&#45;&gt;Node10</title>
<path fill="none" stroke="midnightblue" d="M374.05,-224.35C389.96,-211.46 421.26,-186.71 449.5,-168 466.66,-156.63 486.8,-145.05 502.32,-136.49"/>
<polygon fill="midnightblue" stroke="midnightblue" points="504.22,-139.44 511.32,-131.57 500.86,-133.29 504.22,-139.44"/>
</g>
<!-- Node12 -->
<g id="node12" class="node">
<title>Node12</title>
<g id="a_node12"><a xlink:href="../../dc/d5f/country_8h.html" target="_top" xlink:title=" ">
<polygon fill="none" stroke="black" points="264,-168.5 264,-187.5 321,-187.5 321,-168.5 264,-168.5"/>
<text text-anchor="middle" x="292.5" y="-175.5" font-family="Helvetica,sans-Serif" font-size="10.00">country.h</text>
</a>
</g>
</g>
<!-- Node2&#45;&gt;Node12 -->
<g id="edge13" class="edge">
<title>Node2&#45;&gt;Node12</title>
<path fill="none" stroke="midnightblue" d="M352.09,-224.32C341.39,-216.18 325.16,-203.84 312.34,-194.09"/>
<polygon fill="midnightblue" stroke="midnightblue" points="314.19,-191.1 304.11,-187.83 309.96,-196.67 314.19,-191.1"/>
</g>
<!-- Node16 -->
<g id="node16" class="node">
<title>Node16</title>
<g id="a_node16"><a xlink:href="../../dd/dae/district_8h.html" target="_top" xlink:title=" ">
<polygon fill="none" stroke="black" points="171.5,-112.5 171.5,-131.5 225.5,-131.5 225.5,-112.5 171.5,-112.5"/>
<text text-anchor="middle" x="198.5" y="-119.5" font-family="Helvetica,sans-Serif" font-size="10.00">district.h</text>
</a>
</g>
</g>
<!-- Node2&#45;&gt;Node16 -->
<g id="edge25" class="edge">
<title>Node2&#45;&gt;Node16</title>
<path fill="none" stroke="midnightblue" d="M342.77,-227.6C319.7,-220.91 282.05,-207.9 254.5,-188 236.28,-174.83 220.07,-154.6 209.85,-140.21"/>
<polygon fill="midnightblue" stroke="midnightblue" points="212.57,-137.99 204.03,-131.72 206.8,-141.95 212.57,-137.99"/>
</g>
<!-- Node17 -->
<g id="node17" class="node">
<title>Node17</title>
<g id="a_node17"><a xlink:title=" ">
<polygon fill="none" stroke="#bfbfbf" points="126.5,-56.5 126.5,-75.5 182.5,-75.5 182.5,-56.5 126.5,-56.5"/>
<text text-anchor="middle" x="154.5" y="-63.5" font-family="Helvetica,sans-Serif" font-size="10.00">algorithm</text>
</a>
</g>
</g>
<!-- Node2&#45;&gt;Node17 -->
<g id="edge26" class="edge">
<title>Node2&#45;&gt;Node17</title>
<path fill="none" stroke="midnightblue" d="M342.71,-228.45C315.69,-222 267.57,-208.62 230.5,-188 196.28,-168.97 181.34,-166.32 162.5,-132 154.72,-117.83 153.11,-99.35 153.22,-85.72"/>
<polygon fill="midnightblue" stroke="midnightblue" points="156.73,-85.74 153.62,-75.61 149.73,-85.46 156.73,-85.74"/>
</g>
<!-- Node6 -->
<g id="node6" class="node">
<title>Node6</title>
<g id="a_node6"><a xlink:title=" ">
<polygon fill="none" stroke="#bfbfbf" points="132,-0.5 132,-19.5 167,-19.5 167,-0.5 132,-0.5"/>
<text text-anchor="middle" x="149.5" y="-7.5" font-family="Helvetica,sans-Serif" font-size="10.00">map</text>
</a>
</g>
</g>
<!-- Node5&#45;&gt;Node6 -->
<g id="edge5" class="edge">
<title>Node5&#45;&gt;Node6</title>
<path fill="none" stroke="midnightblue" d="M97.46,-56.32C106.63,-48.34 120.44,-36.31 131.53,-26.65"/>
<polygon fill="midnightblue" stroke="midnightblue" points="134.12,-29.04 139.36,-19.83 129.52,-23.76 134.12,-29.04"/>
</g>
<!-- Node7 -->
<g id="node7" class="node">
<title>Node7</title>
<g id="a_node7"><a xlink:title=" ">
<polygon fill="none" stroke="#bfbfbf" points="0,-0.5 0,-19.5 43,-19.5 43,-0.5 0,-0.5"/>
<text text-anchor="middle" x="21.5" y="-7.5" font-family="Helvetica,sans-Serif" font-size="10.00">queue</text>
</a>
</g>
</g>
<!-- Node5&#45;&gt;Node7 -->
<g id="edge6" class="edge">
<title>Node5&#45;&gt;Node7</title>
<path fill="none" stroke="midnightblue" d="M76.9,-56.32C67.04,-48.26 52.15,-36.08 40.28,-26.37"/>
<polygon fill="midnightblue" stroke="midnightblue" points="42.25,-23.46 32.3,-19.83 37.82,-28.88 42.25,-23.46"/>
</g>
<!-- Node8 -->
<g id="node8" class="node">
<title>Node8</title>
<g id="a_node8"><a xlink:title=" ">
<polygon fill="none" stroke="#bfbfbf" points="61.5,-0.5 61.5,-19.5 113.5,-19.5 113.5,-0.5 61.5,-0.5"/>
<text text-anchor="middle" x="87.5" y="-7.5" font-family="Helvetica,sans-Serif" font-size="10.00">sstream</text>
</a>
</g>
</g>
<!-- Node5&#45;&gt;Node8 -->
<g id="edge7" class="edge">
<title>Node5&#45;&gt;Node8</title>
<path fill="none" stroke="midnightblue" d="M87.5,-56.08C87.5,-49.01 87.5,-38.86 87.5,-29.99"/>
<polygon fill="midnightblue" stroke="midnightblue" points="91,-29.75 87.5,-19.75 84,-29.75 91,-29.75"/>
</g>
<!-- Node9 -->
<g id="node9" class="node">
<title>Node9</title>
<g id="a_node9"><a xlink:title=" ">
<polygon fill="none" stroke="#bfbfbf" points="408.5,-0.5 408.5,-19.5 452.5,-19.5 452.5,-0.5 408.5,-0.5"/>
<text text-anchor="middle" x="430.5" y="-7.5" font-family="Helvetica,sans-Serif" font-size="10.00">cmath</text>
</a>
</g>
</g>
<!-- Node5&#45;&gt;Node9 -->
<g id="edge8" class="edge">
<title>Node5&#45;&gt;Node9</title>
<path fill="none" stroke="midnightblue" d="M108.7,-58.21C111.64,-57.4 114.63,-56.63 117.5,-56 218.73,-33.67 340.92,-19.8 398.07,-14.06"/>
<polygon fill="midnightblue" stroke="midnightblue" points="398.68,-17.51 408.29,-13.05 397.99,-10.55 398.68,-17.51"/>
</g>
<!-- Node10&#45;&gt;Node3 -->
<g id="edge12" class="edge">
<title>Node10&#45;&gt;Node3</title>
<path fill="none" stroke="midnightblue" d="M513.36,-112.32C499.63,-103.9 478.56,-90.97 462.44,-81.07"/>
<polygon fill="midnightblue" stroke="midnightblue" points="463.96,-77.9 453.6,-75.65 460.3,-83.87 463.96,-77.9"/>
</g>
<!-- Node10&#45;&gt;Node4 -->
<g id="edge10" class="edge">
<title>Node10&#45;&gt;Node4</title>
<path fill="none" stroke="midnightblue" d="M536.98,-112.32C545.7,-104.34 558.84,-92.31 569.4,-82.65"/>
<polygon fill="midnightblue" stroke="midnightblue" points="571.83,-85.17 576.85,-75.83 567.11,-80 571.83,-85.17"/>
</g>
<!-- Node11 -->
<g id="node11" class="node">
<title>Node11</title>
<g id="a_node11"><a xlink:title=" ">
<polygon fill="none" stroke="#bfbfbf" points="494,-56.5 494,-75.5 539,-75.5 539,-56.5 494,-56.5"/>
<text text-anchor="middle" x="516.5" y="-63.5" font-family="Helvetica,sans-Serif" font-size="10.00">climits</text>
</a>
</g>
</g>
<!-- Node10&#45;&gt;Node11 -->
<g id="edge11" class="edge">
<title>Node10&#45;&gt;Node11</title>
<path fill="none" stroke="midnightblue" d="M525.68,-112.08C524.23,-104.93 522.13,-94.64 520.31,-85.69"/>
<polygon fill="midnightblue" stroke="midnightblue" points="523.71,-84.85 518.28,-75.75 516.85,-86.25 523.71,-84.85"/>
</g>
<!-- Node12&#45;&gt;Node3 -->
<g id="edge14" class="edge">
<title>Node12&#45;&gt;Node3</title>
<path fill="none" stroke="midnightblue" d="M298.16,-168.45C307.39,-155.02 326.84,-128.79 348.5,-112 366.8,-97.81 390.29,-86.33 408.81,-78.52"/>
<polygon fill="midnightblue" stroke="midnightblue" points="410.33,-81.69 418.27,-74.67 407.68,-75.2 410.33,-81.69"/>
</g>
<!-- Node12&#45;&gt;Node10 -->
<g id="edge18" class="edge">
<title>Node12&#45;&gt;Node10</title>
<path fill="none" stroke="midnightblue" d="M321.32,-170.38C365.55,-160.21 449.86,-140.84 495.78,-130.29"/>
<polygon fill="midnightblue" stroke="midnightblue" points="496.81,-133.64 505.77,-127.99 495.24,-126.82 496.81,-133.64"/>
</g>
<!-- Node13 -->
<g id="node13" class="node">
<title>Node13</title>
<g id="a_node13"><a xlink:title=" ">
<polygon fill="none" stroke="#bfbfbf" points="357.5,-112.5 357.5,-131.5 411.5,-131.5 411.5,-112.5 357.5,-112.5"/>
<text text-anchor="middle" x="384.5" y="-119.5" font-family="Helvetica,sans-Serif" font-size="10.00">iostream</text>
</a>
</g>
</g>
<!-- Node12&#45;&gt;Node13 -->
<g id="edge15" class="edge">
<title>Node12&#45;&gt;Node13</title>
<path fill="none" stroke="midnightblue" d="M307.28,-168.32C321.77,-159.82 344.07,-146.73 360.99,-136.8"/>
<polygon fill="midnightblue" stroke="midnightblue" points="362.9,-139.74 369.76,-131.65 359.36,-133.7 362.9,-139.74"/>
</g>
<!-- Node14 -->
<g id="node14" class="node">
<title>Node14</title>
<g id="a_node14"><a xlink:title=" ">
<polygon fill="none" stroke="#bfbfbf" points="276.5,-56.5 276.5,-75.5 306.5,-75.5 306.5,-56.5 276.5,-56.5"/>
<text text-anchor="middle" x="291.5" y="-63.5" font-family="Helvetica,sans-Serif" font-size="10.00">set</text>
</a>
</g>
</g>
<!-- Node12&#45;&gt;Node14 -->
<g id="edge16" class="edge">
<title>Node12&#45;&gt;Node14</title>
<path fill="none" stroke="midnightblue" d="M292.42,-168.37C292.26,-150.62 291.89,-109.67 291.67,-85.6"/>
<polygon fill="midnightblue" stroke="midnightblue" points="295.17,-85.56 291.58,-75.59 288.17,-85.62 295.17,-85.56"/>
</g>
<!-- Node15 -->
<g id="node15" class="node">
<title>Node15</title>
<g id="a_node15"><a xlink:title=" ">
<polygon fill="none" stroke="#bfbfbf" points="200.5,-56.5 200.5,-75.5 258.5,-75.5 258.5,-56.5 200.5,-56.5"/>
<text text-anchor="middle" x="229.5" y="-63.5" font-family="Helvetica,sans-Serif" font-size="10.00">functional</text>
</a>
</g>
</g>
<!-- Node12&#45;&gt;Node15 -->
<g id="edge17" class="edge">
<title>Node12&#45;&gt;Node15</title>
<path fill="none" stroke="midnightblue" d="M287.56,-168.37C277.21,-150.3 253.08,-108.18 239.41,-84.31"/>
<polygon fill="midnightblue" stroke="midnightblue" points="242.43,-82.53 234.42,-75.59 236.35,-86.01 242.43,-82.53"/>
</g>
<!-- Node12&#45;&gt;Node16 -->
<g id="edge19" class="edge">
<title>Node12&#45;&gt;Node16</title>
<path fill="none" stroke="midnightblue" d="M277.4,-168.32C262.6,-159.82 239.81,-146.73 222.52,-136.8"/>
<polygon fill="midnightblue" stroke="midnightblue" points="223.98,-133.6 213.57,-131.65 220.49,-139.67 223.98,-133.6"/>
</g>
<!-- Node16&#45;&gt;Node3 -->
<g id="edge20" class="edge">
<title>Node16&#45;&gt;Node3</title>
<path fill="none" stroke="midnightblue" d="M225.68,-114.91C270.77,-104.81 360.78,-84.64 408.36,-73.98"/>
<polygon fill="midnightblue" stroke="midnightblue" points="409.4,-77.33 418.39,-71.73 407.87,-70.5 409.4,-77.33"/>
</g>
<!-- Node16&#45;&gt;Node5 -->
<g id="edge21" class="edge">
<title>Node16&#45;&gt;Node5</title>
<path fill="none" stroke="midnightblue" d="M180.67,-112.32C162.78,-103.62 135.02,-90.12 114.45,-80.11"/>
<polygon fill="midnightblue" stroke="midnightblue" points="115.81,-76.88 105.29,-75.65 112.75,-83.18 115.81,-76.88"/>
</g>
<!-- Node16&#45;&gt;Node14 -->
<g id="edge23" class="edge">
<title>Node16&#45;&gt;Node14</title>
<path fill="none" stroke="midnightblue" d="M213.44,-112.32C228.09,-103.82 250.63,-90.73 267.74,-80.8"/>
<polygon fill="midnightblue" stroke="midnightblue" points="269.7,-83.7 276.6,-75.65 266.19,-77.65 269.7,-83.7"/>
</g>
<!-- Node16&#45;&gt;Node15 -->
<g id="edge24" class="edge">
<title>Node16&#45;&gt;Node15</title>
<path fill="none" stroke="midnightblue" d="M203.62,-112.08C207.91,-104.61 214.16,-93.72 219.44,-84.52"/>
<polygon fill="midnightblue" stroke="midnightblue" points="222.53,-86.17 224.48,-75.75 216.46,-82.68 222.53,-86.17"/>
</g>
<!-- Node16&#45;&gt;Node17 -->
<g id="edge22" class="edge">
<title>Node16&#45;&gt;Node17</title>
<path fill="none" stroke="midnightblue" d="M191.23,-112.08C184.96,-104.38 175.71,-93.03 168.07,-83.65"/>
<polygon fill="midnightblue" stroke="midnightblue" points="170.66,-81.29 161.63,-75.75 165.23,-85.71 170.66,-81.29"/>
</g>
<!-- Node18&#45;&gt;Node2 -->
<g id="edge32" class="edge">
<title>Node18&#45;&gt;Node2</title>
<path fill="none" stroke="midnightblue" d="M517.72,-282.05C486.2,-272.43 429.17,-255.04 394,-244.3"/>
<polygon fill="midnightblue" stroke="midnightblue" points="394.85,-240.91 384.27,-241.34 392.81,-247.6 394.85,-240.91"/>
</g>
<!-- Node18&#45;&gt;Node3 -->
<g id="edge29" class="edge">
<title>Node18&#45;&gt;Node3</title>
<path fill="none" stroke="midnightblue" d="M536.54,-280.3C521.59,-247.42 468.34,-130.39 447.73,-85.09"/>
<polygon fill="midnightblue" stroke="midnightblue" points="450.87,-83.54 443.54,-75.88 444.5,-86.44 450.87,-83.54"/>
</g>
<!-- Node18&#45;&gt;Node4 -->
<g id="edge30" class="edge">
<title>Node18&#45;&gt;Node4</title>
<path fill="none" stroke="midnightblue" d="M547.6,-280.31C554.24,-271.68 563.8,-257.76 568.5,-244 587.33,-188.83 588.18,-118.79 587.33,-85.81"/>
<polygon fill="midnightblue" stroke="midnightblue" points="590.82,-85.64 586.98,-75.77 583.83,-85.88 590.82,-85.64"/>
</g>
<!-- Node18&#45;&gt;Node9 -->
<g id="edge31" class="edge">
<title>Node18&#45;&gt;Node9</title>
<path fill="none" stroke="midnightblue" d="M560.7,-280.49C593.2,-265.29 653.5,-230.2 653.5,-179 653.5,-179 653.5,-179 653.5,-121 653.5,-89.54 649.65,-76.15 625.5,-56 601.02,-35.57 511.41,-21.31 462.65,-14.87"/>
<polygon fill="midnightblue" stroke="midnightblue" points="462.98,-11.38 452.61,-13.57 462.08,-18.32 462.98,-11.38"/>
</g>
<!-- Node18&#45;&gt;Node10 -->
<g id="edge35" class="edge">
<title>Node18&#45;&gt;Node10</title>
<path fill="none" stroke="midnightblue" d="M543.57,-280.32C550.21,-260.22 564.5,-209.02 553.5,-168 550.85,-158.1 545.43,-148.13 540.23,-140.1"/>
<polygon fill="midnightblue" stroke="midnightblue" points="542.96,-137.91 534.39,-131.68 537.21,-141.89 542.96,-137.91"/>
</g>
<!-- Node18&#45;&gt;Node13 -->
<g id="edge34" class="edge">
<title>Node18&#45;&gt;Node13</title>
<path fill="none" stroke="midnightblue" d="M532.11,-280.08C506.92,-253.27 431.67,-173.19 399.43,-138.89"/>
<polygon fill="midnightblue" stroke="midnightblue" points="401.95,-136.46 392.55,-131.57 396.85,-141.25 401.95,-136.46"/>
</g>
<!-- Node18&#45;&gt;Node17 -->
<g id="edge28" class="edge">
<title>Node18&#45;&gt;Node17</title>
<path fill="none" stroke="midnightblue" d="M517.76,-288.26C457.73,-285.19 292.64,-269.38 190.5,-188 166.98,-169.26 161.33,-160.75 152.5,-132 147.88,-116.98 148.88,-99.07 150.75,-85.86"/>
<polygon fill="midnightblue" stroke="midnightblue" points="154.26,-86.1 152.5,-75.65 147.36,-84.91 154.26,-86.1"/>
</g>
<!-- Node18&#45;&gt;Node19 -->
<g id="edge33" class="edge">
<title>Node18&#45;&gt;Node19</title>
<path fill="none" stroke="midnightblue" d="M563.23,-281.6C591.24,-272.5 639.1,-256.93 671.73,-246.31"/>
<polygon fill="midnightblue" stroke="midnightblue" points="672.9,-249.61 681.33,-243.19 670.74,-242.95 672.9,-249.61"/>
</g>
<!-- Node20&#45;&gt;Node2 -->
<g id="edge40" class="edge">
<title>Node20&#45;&gt;Node2</title>
<path fill="none" stroke="midnightblue" d="M469.74,-336.12C459.68,-323.15 439.86,-298.55 420.5,-280 409.15,-269.13 395.34,-258.17 384.15,-249.79"/>
<polygon fill="midnightblue" stroke="midnightblue" points="385.97,-246.78 375.84,-243.68 381.82,-252.42 385.97,-246.78"/>
</g>
<!-- Node20&#45;&gt;Node5 -->
<g id="edge39" class="edge">
<title>Node20&#45;&gt;Node5</title>
<path fill="none" stroke="midnightblue" d="M440.3,-343.83C333.88,-339.42 29.5,-319.41 29.5,-235 29.5,-235 29.5,-235 29.5,-177 29.5,-140.16 55.27,-103.57 72.45,-83.25"/>
<polygon fill="midnightblue" stroke="midnightblue" points="75.21,-85.41 79.19,-75.59 69.96,-80.79 75.21,-85.41"/>
</g>
<!-- Node20&#45;&gt;Node10 -->
<g id="edge38" class="edge">
<title>Node20&#45;&gt;Node10</title>
<path fill="none" stroke="midnightblue" d="M478.5,-336.3C486.02,-303.56 512.71,-187.38 523.21,-141.67"/>
<polygon fill="midnightblue" stroke="midnightblue" points="526.63,-142.41 525.46,-131.88 519.81,-140.85 526.63,-142.41"/>
</g>
<!-- Node20&#45;&gt;Node18 -->
<g id="edge41" class="edge">
<title>Node20&#45;&gt;Node18</title>
<path fill="none" stroke="midnightblue" d="M486.78,-336.32C496.34,-328.26 510.78,-316.08 522.28,-306.37"/>
<polygon fill="midnightblue" stroke="midnightblue" points="524.64,-308.96 530.03,-299.83 520.13,-303.61 524.64,-308.96"/>
</g>
</g>
</svg>
