<?xml version="1.0" encoding="UTF-8" standalone="no"?>
<!DOCTYPE svg PUBLIC "-//W3C//DTD SVG 1.1//EN"
 "http://www.w3.org/Graphics/SVG/1.1/DTD/svg11.dtd">
<!-- Generated by graphviz version 2.44.1 (20200629.0846)
 -->
<!-- Title: C:/Users/lukac/CLionProjects/virus_real/src/country.h Pages: 1 -->
<svg width="989pt" height="575pt"
 viewBox="0.00 0.00 988.50 575.00" xmlns="http://www.w3.org/2000/svg" xmlns:xlink="http://www.w3.org/1999/xlink">
<g id="graph0" class="graph" transform="scale(1 1) rotate(0) translate(4 571)">
<title>C:/Users/lukac/CLionProjects/virus_real/src/country.h</title>
<!-- Node1 -->
<g id="node1" class="node">
<title>Node1</title>
<g id="a_node1"><a xlink:title=" ">
<polygon fill="#bfbfbf" stroke="black" points="280.5,-536.5 280.5,-566.5 425.5,-566.5 425.5,-536.5 280.5,-536.5"/>
<text text-anchor="start" x="288.5" y="-554.5" font-family="Helvetica,sans-Serif" font-size="10.00">C:/Users/lukac/CLionProjects</text>
<text text-anchor="middle" x="353" y="-543.5" font-family="Helvetica,sans-Serif" font-size="10.00">/virus_real/src/country.h</text>
</a>
</g>
</g>
<!-- Node2 -->
<g id="node2" class="node">
<title>Node2</title>
<g id="a_node2"><a xlink:href="../../d3/d5b/anti_virus_8h.html" target="_top" xlink:title=" ">
<polygon fill="none" stroke="black" points="156.5,-67.5 156.5,-97.5 301.5,-97.5 301.5,-67.5 156.5,-67.5"/>
<text text-anchor="start" x="164.5" y="-85.5" font-family="Helvetica,sans-Serif" font-size="10.00">C:/Users/lukac/CLionProjects</text>
<text text-anchor="middle" x="229" y="-74.5" font-family="Helvetica,sans-Serif" font-size="10.00">/virus_real/src/antiVirus.h</text>
</a>
</g>
</g>
<!-- Node1&#45;&gt;Node2 -->
<g id="edge1" class="edge">
<title>Node1&#45;&gt;Node2</title>
<path fill="none" stroke="midnightblue" d="M270.39,-536.61C166.06,-516.68 0,-475.94 0,-418.5 0,-418.5 0,-418.5 0,-215.5 0,-142.19 89.17,-108.97 156.23,-94.36"/>
<polygon fill="midnightblue" stroke="midnightblue" points="269.81,-540.06 280.29,-538.48 271.11,-533.19 269.81,-540.06"/>
</g>
<!-- Node5 -->
<g id="node5" class="node">
<title>Node5</title>
<g id="a_node5"><a xlink:href="../../df/da4/country_8cpp.html" target="_top" xlink:title=" ">
<polygon fill="none" stroke="black" points="443.5,-469.5 443.5,-499.5 588.5,-499.5 588.5,-469.5 443.5,-469.5"/>
<text text-anchor="start" x="451.5" y="-487.5" font-family="Helvetica,sans-Serif" font-size="10.00">C:/Users/lukac/CLionProjects</text>
<text text-anchor="middle" x="516" y="-476.5" font-family="Helvetica,sans-Serif" font-size="10.00">/virus_real/src/country.cpp</text>
</a>
</g>
</g>
<!-- Node1&#45;&gt;Node5 -->
<g id="edge4" class="edge">
<title>Node1&#45;&gt;Node5</title>
<path fill="none" stroke="midnightblue" d="M397.68,-532.68C423.83,-522.26 456.37,-509.28 480.7,-499.58"/>
<polygon fill="midnightblue" stroke="midnightblue" points="396.36,-529.44 388.37,-536.4 398.95,-535.94 396.36,-529.44"/>
</g>
<!-- Node6 -->
<g id="node6" class="node">
<title>Node6</title>
<g id="a_node6"><a xlink:href="../../da/d15/grid_8h.html" target="_top" xlink:title=" ">
<polygon fill="none" stroke="black" points="280.5,-469.5 280.5,-499.5 425.5,-499.5 425.5,-469.5 280.5,-469.5"/>
<text text-anchor="start" x="288.5" y="-487.5" font-family="Helvetica,sans-Serif" font-size="10.00">C:/Users/lukac/CLionProjects</text>
<text text-anchor="middle" x="353" y="-476.5" font-family="Helvetica,sans-Serif" font-size="10.00">/virus_real/src/grid.h</text>
</a>
</g>
</g>
<!-- Node1&#45;&gt;Node6 -->
<g id="edge5" class="edge">
<title>Node1&#45;&gt;Node6</title>
<path fill="none" stroke="midnightblue" d="M353,-526.11C353,-517.15 353,-507.32 353,-499.58"/>
<polygon fill="midnightblue" stroke="midnightblue" points="349.5,-526.4 353,-536.4 356.5,-526.4 349.5,-526.4"/>
</g>
<!-- Node3 -->
<g id="node3" class="node">
<title>Node3</title>
<g id="a_node3"><a xlink:href="../../da/d6e/anti_virus_8cpp.html" target="_top" xlink:title=" ">
<polygon fill="none" stroke="black" points="156.5,-0.5 156.5,-30.5 301.5,-30.5 301.5,-0.5 156.5,-0.5"/>
<text text-anchor="start" x="164.5" y="-18.5" font-family="Helvetica,sans-Serif" font-size="10.00">C:/Users/lukac/CLionProjects</text>
<text text-anchor="middle" x="229" y="-7.5" font-family="Helvetica,sans-Serif" font-size="10.00">/virus_real/src/antiVirus.cpp</text>
</a>
</g>
</g>
<!-- Node2&#45;&gt;Node3 -->
<g id="edge2" class="edge">
<title>Node2&#45;&gt;Node3</title>
<path fill="none" stroke="midnightblue" d="M229,-57.11C229,-48.15 229,-38.32 229,-30.58"/>
<polygon fill="midnightblue" stroke="midnightblue" points="225.5,-57.4 229,-67.4 232.5,-57.4 225.5,-57.4"/>
</g>
<!-- Node4 -->
<g id="node4" class="node">
<title>Node4</title>
<g id="a_node4"><a xlink:href="../../df/d0a/main_8cpp.html" target="_top" xlink:title=" ">
<polygon fill="none" stroke="black" points="586.5,-0.5 586.5,-30.5 731.5,-30.5 731.5,-0.5 586.5,-0.5"/>
<text text-anchor="start" x="594.5" y="-18.5" font-family="Helvetica,sans-Serif" font-size="10.00">C:/Users/lukac/CLionProjects</text>
<text text-anchor="middle" x="659" y="-7.5" font-family="Helvetica,sans-Serif" font-size="10.00">/virus_real/src/main.cpp</text>
</a>
</g>
</g>
<!-- Node2&#45;&gt;Node4 -->
<g id="edge3" class="edge">
<title>Node2&#45;&gt;Node4</title>
<path fill="none" stroke="midnightblue" d="M311.86,-66.73C412.41,-50.57 517.98,-35.67 586.37,-26.29"/>
<polygon fill="midnightblue" stroke="midnightblue" points="311.15,-63.29 301.84,-68.34 312.27,-70.21 311.15,-63.29"/>
</g>
<!-- Node6&#45;&gt;Node2 -->
<g id="edge20" class="edge">
<title>Node6&#45;&gt;Node2</title>
<path fill="none" stroke="midnightblue" d="M270.33,-482.95C177,-477.45 38,-452.33 38,-351.5 38,-351.5 38,-351.5 38,-215.5 38,-150.4 114.01,-114.91 170.14,-97.57"/>
<polygon fill="midnightblue" stroke="midnightblue" points="270.17,-486.45 280.34,-483.48 270.53,-479.46 270.17,-486.45"/>
</g>
<!-- Node7 -->
<g id="node7" class="node">
<title>Node7</title>
<g id="a_node7"><a xlink:href="../../d1/df3/ai_8h.html" target="_top" xlink:title=" ">
<polygon fill="none" stroke="black" points="66.5,-268.5 66.5,-298.5 211.5,-298.5 211.5,-268.5 66.5,-268.5"/>
<text text-anchor="start" x="74.5" y="-286.5" font-family="Helvetica,sans-Serif" font-size="10.00">C:/Users/lukac/CLionProjects</text>
<text text-anchor="middle" x="139" y="-275.5" font-family="Helvetica,sans-Serif" font-size="10.00">/virus_real/src/ai.h</text>
</a>
</g>
</g>
<!-- Node6&#45;&gt;Node7 -->
<g id="edge6" class="edge">
<title>Node6&#45;&gt;Node7</title>
<path fill="none" stroke="midnightblue" d="M314.05,-464.55C275.94,-444.42 218.19,-409.53 180,-366 162.14,-345.64 149.85,-316.12 143.65,-298.75"/>
<polygon fill="midnightblue" stroke="midnightblue" points="312.81,-467.85 323.3,-469.34 316.03,-461.63 312.81,-467.85"/>
</g>
<!-- Node9 -->
<g id="node9" class="node">
<title>Node9</title>
<g id="a_node9"><a xlink:href="../../db/db2/iface_8h.html" target="_top" xlink:title=" ">
<polygon fill="none" stroke="black" points="420.5,-201.5 420.5,-231.5 565.5,-231.5 565.5,-201.5 420.5,-201.5"/>
<text text-anchor="start" x="428.5" y="-219.5" font-family="Helvetica,sans-Serif" font-size="10.00">C:/Users/lukac/CLionProjects</text>
<text text-anchor="middle" x="493" y="-208.5" font-family="Helvetica,sans-Serif" font-size="10.00">/virus_real/src/iface.h</text>
</a>
</g>
</g>
<!-- Node6&#45;&gt;Node9 -->
<g id="edge25" class="edge">
<title>Node6&#45;&gt;Node9</title>
<path fill="none" stroke="midnightblue" d="M412.34,-466.47C484.97,-444.25 601.29,-403.76 625,-366 659.58,-310.94 571.67,-256.45 522.9,-231.54"/>
<polygon fill="midnightblue" stroke="midnightblue" points="410.95,-463.23 402.39,-469.48 412.98,-469.93 410.95,-463.23"/>
</g>
<!-- Node17 -->
<g id="node17" class="node">
<title>Node17</title>
<g id="a_node17"><a xlink:href="../../d2/d3d/graphalgos_8h.html" target="_top" xlink:title=" ">
<polygon fill="none" stroke="black" points="230.5,-335.5 230.5,-365.5 375.5,-365.5 375.5,-335.5 230.5,-335.5"/>
<text text-anchor="start" x="238.5" y="-353.5" font-family="Helvetica,sans-Serif" font-size="10.00">C:/Users/lukac/CLionProjects</text>
<text text-anchor="middle" x="303" y="-342.5" font-family="Helvetica,sans-Serif" font-size="10.00">/virus_real/src/graphalgos.h</text>
</a>
</g>
</g>
<!-- Node6&#45;&gt;Node17 -->
<g id="edge21" class="edge">
<title>Node6&#45;&gt;Node17</title>
<path fill="none" stroke="midnightblue" d="M336.83,-460.67C331.48,-452.28 325.9,-442.5 322,-433 312.72,-410.42 307.44,-382.38 304.9,-365.77"/>
<polygon fill="midnightblue" stroke="midnightblue" points="334.01,-462.75 342.46,-469.14 339.84,-458.88 334.01,-462.75"/>
</g>
<!-- Node19 -->
<g id="node19" class="node">
<title>Node19</title>
<g id="a_node19"><a xlink:href="../../d7/d70/grid_8cpp.html" target="_top" xlink:title=" ">
<polygon fill="none" stroke="black" points="672.5,-402.5 672.5,-432.5 817.5,-432.5 817.5,-402.5 672.5,-402.5"/>
<text text-anchor="start" x="680.5" y="-420.5" font-family="Helvetica,sans-Serif" font-size="10.00">C:/Users/lukac/CLionProjects</text>
<text text-anchor="middle" x="745" y="-409.5" font-family="Helvetica,sans-Serif" font-size="10.00">/virus_real/src/grid.cpp</text>
</a>
</g>
</g>
<!-- Node6&#45;&gt;Node19 -->
<g id="edge24" class="edge">
<title>Node6&#45;&gt;Node19</title>
<path fill="none" stroke="midnightblue" d="M435.99,-468.68C535.1,-451.92 561.7,-448.76 658,-433 662.68,-432.23 667.51,-431.44 672.37,-430.64"/>
<polygon fill="midnightblue" stroke="midnightblue" points="435.12,-465.27 425.85,-470.4 436.29,-472.18 435.12,-465.27"/>
</g>
<!-- Node20 -->
<g id="node20" class="node">
<title>Node20</title>
<g id="a_node20"><a xlink:href="../../d3/daa/logic_8h.html" target="_top" xlink:title=" ">
<polygon fill="none" stroke="black" points="331.5,-402.5 331.5,-432.5 476.5,-432.5 476.5,-402.5 331.5,-402.5"/>
<text text-anchor="start" x="339.5" y="-420.5" font-family="Helvetica,sans-Serif" font-size="10.00">C:/Users/lukac/CLionProjects</text>
<text text-anchor="middle" x="404" y="-409.5" font-family="Helvetica,sans-Serif" font-size="10.00">/virus_real/src/logic.h</text>
</a>
</g>
</g>
<!-- Node6&#45;&gt;Node20 -->
<g id="edge26" class="edge">
<title>Node6&#45;&gt;Node20</title>
<path fill="none" stroke="midnightblue" d="M370.3,-461.45C377.79,-451.9 386.34,-441 392.96,-432.58"/>
<polygon fill="midnightblue" stroke="midnightblue" points="367.49,-459.37 364.07,-469.4 372.99,-463.69 367.49,-459.37"/>
</g>
<!-- Node22 -->
<g id="node22" class="node">
<title>Node22</title>
<g id="a_node22"><a xlink:href="../../d3/df1/window_8h.html" target="_top" xlink:title=" ">
<polygon fill="none" stroke="black" points="835.5,-402.5 835.5,-432.5 980.5,-432.5 980.5,-402.5 835.5,-402.5"/>
<text text-anchor="start" x="843.5" y="-420.5" font-family="Helvetica,sans-Serif" font-size="10.00">C:/Users/lukac/CLionProjects</text>
<text text-anchor="middle" x="908" y="-409.5" font-family="Helvetica,sans-Serif" font-size="10.00">/virus_real/src/window.h</text>
</a>
</g>
</g>
<!-- Node6&#45;&gt;Node22 -->
<g id="edge33" class="edge">
<title>Node6&#45;&gt;Node22</title>
<path fill="none" stroke="midnightblue" d="M435.8,-468.83C609.55,-445.92 656.41,-456.04 827,-433 829.69,-432.64 832.43,-432.25 835.19,-431.84"/>
<polygon fill="midnightblue" stroke="midnightblue" points="435.26,-465.37 425.81,-470.16 436.19,-472.31 435.26,-465.37"/>
</g>
<!-- Node8 -->
<g id="node8" class="node">
<title>Node8</title>
<g id="a_node8"><a xlink:href="../../d1/d4a/ai_8cpp.html" target="_top" xlink:title=" ">
<polygon fill="none" stroke="black" points="66.5,-201.5 66.5,-231.5 211.5,-231.5 211.5,-201.5 66.5,-201.5"/>
<text text-anchor="start" x="74.5" y="-219.5" font-family="Helvetica,sans-Serif" font-size="10.00">C:/Users/lukac/CLionProjects</text>
<text text-anchor="middle" x="139" y="-208.5" font-family="Helvetica,sans-Serif" font-size="10.00">/virus_real/src/ai.cpp</text>
</a>
</g>
</g>
<!-- Node7&#45;&gt;Node8 -->
<g id="edge7" class="edge">
<title>Node7&#45;&gt;Node8</title>
<path fill="none" stroke="midnightblue" d="M139,-258.11C139,-249.15 139,-239.32 139,-231.58"/>
<polygon fill="midnightblue" stroke="midnightblue" points="135.5,-258.4 139,-268.4 142.5,-258.4 135.5,-258.4"/>
</g>
<!-- Node7&#45;&gt;Node9 -->
<g id="edge8" class="edge">
<title>Node7&#45;&gt;Node9</title>
<path fill="none" stroke="midnightblue" d="M221.78,-267.3C282.01,-256.24 362.78,-241.41 420.48,-230.82"/>
<polygon fill="midnightblue" stroke="midnightblue" points="221.12,-263.86 211.92,-269.11 222.39,-270.75 221.12,-263.86"/>
</g>
<!-- Node9&#45;&gt;Node9 -->
<g id="edge13" class="edge">
<title>Node9&#45;&gt;Node9</title>
<path fill="none" stroke="midnightblue" d="M575.69,-225C580.57,-222.97 583.5,-220.13 583.5,-216.5 583.5,-210.83 576.37,-207.11 565.79,-205.33"/>
<polygon fill="midnightblue" stroke="midnightblue" points="574.53,-221.69 565.79,-227.67 576.35,-228.45 574.53,-221.69"/>
</g>
<!-- Node10 -->
<g id="node10" class="node">
<title>Node10</title>
<g id="a_node10"><a xlink:href="../../d7/d04/graphics_8h.html" target="_top" xlink:title=" ">
<polygon fill="none" stroke="black" points="257.5,-134.5 257.5,-164.5 402.5,-164.5 402.5,-134.5 257.5,-134.5"/>
<text text-anchor="start" x="265.5" y="-152.5" font-family="Helvetica,sans-Serif" font-size="10.00">C:/Users/lukac/CLionProjects</text>
<text text-anchor="middle" x="330" y="-141.5" font-family="Helvetica,sans-Serif" font-size="10.00">/virus_real/src/graphics.h</text>
</a>
</g>
</g>
<!-- Node9&#45;&gt;Node10 -->
<g id="edge9" class="edge">
<title>Node9&#45;&gt;Node10</title>
<path fill="none" stroke="midnightblue" d="M448.32,-197.68C422.17,-187.26 389.63,-174.28 365.3,-164.58"/>
<polygon fill="midnightblue" stroke="midnightblue" points="447.05,-200.94 457.63,-201.4 449.64,-194.44 447.05,-200.94"/>
</g>
<!-- Node12 -->
<g id="node12" class="node">
<title>Node12</title>
<g id="a_node12"><a xlink:href="../../dc/d59/iface_8cpp.html" target="_top" xlink:title=" ">
<polygon fill="none" stroke="black" points="420.5,-134.5 420.5,-164.5 565.5,-164.5 565.5,-134.5 420.5,-134.5"/>
<text text-anchor="start" x="428.5" y="-152.5" font-family="Helvetica,sans-Serif" font-size="10.00">C:/Users/lukac/CLionProjects</text>
<text text-anchor="middle" x="493" y="-141.5" font-family="Helvetica,sans-Serif" font-size="10.00">/virus_real/src/iface.cpp</text>
</a>
</g>
</g>
<!-- Node9&#45;&gt;Node12 -->
<g id="edge12" class="edge">
<title>Node9&#45;&gt;Node12</title>
<path fill="none" stroke="midnightblue" d="M493,-191.11C493,-182.15 493,-172.32 493,-164.58"/>
<polygon fill="midnightblue" stroke="midnightblue" points="489.5,-191.4 493,-201.4 496.5,-191.4 489.5,-191.4"/>
</g>
<!-- Node13 -->
<g id="node13" class="node">
<title>Node13</title>
<g id="a_node13"><a xlink:href="../../d2/d5e/protocol_8h.html" target="_top" xlink:title=" ">
<polygon fill="none" stroke="black" points="583.5,-134.5 583.5,-164.5 728.5,-164.5 728.5,-134.5 583.5,-134.5"/>
<text text-anchor="start" x="591.5" y="-152.5" font-family="Helvetica,sans-Serif" font-size="10.00">C:/Users/lukac/CLionProjects</text>
<text text-anchor="middle" x="656" y="-141.5" font-family="Helvetica,sans-Serif" font-size="10.00">/virus_real/src/protocol.h</text>
</a>
</g>
</g>
<!-- Node9&#45;&gt;Node13 -->
<g id="edge14" class="edge">
<title>Node9&#45;&gt;Node13</title>
<path fill="none" stroke="midnightblue" d="M537.68,-197.68C563.83,-187.26 596.37,-174.28 620.7,-164.58"/>
<polygon fill="midnightblue" stroke="midnightblue" points="536.36,-194.44 528.37,-201.4 538.95,-200.94 536.36,-194.44"/>
</g>
<!-- Node15 -->
<g id="node15" class="node">
<title>Node15</title>
<g id="a_node15"><a xlink:href="../../d2/d02/visualization_8h.html" target="_top" xlink:title=" ">
<polygon fill="none" stroke="black" points="819.5,-134.5 819.5,-164.5 964.5,-164.5 964.5,-134.5 819.5,-134.5"/>
<text text-anchor="start" x="827.5" y="-152.5" font-family="Helvetica,sans-Serif" font-size="10.00">C:/Users/lukac/CLionProjects</text>
<text text-anchor="middle" x="892" y="-141.5" font-family="Helvetica,sans-Serif" font-size="10.00">/virus_real/src/visualization.h</text>
</a>
</g>
</g>
<!-- Node9&#45;&gt;Node15 -->
<g id="edge17" class="edge">
<title>Node9&#45;&gt;Node15</title>
<path fill="none" stroke="midnightblue" d="M575.65,-202.04C647.54,-190.32 750.69,-173.52 819.44,-162.32"/>
<polygon fill="midnightblue" stroke="midnightblue" points="575.03,-198.59 565.72,-203.65 576.15,-205.5 575.03,-198.59"/>
</g>
<!-- Node10&#45;&gt;Node2 -->
<g id="edge10" class="edge">
<title>Node10&#45;&gt;Node2</title>
<path fill="none" stroke="midnightblue" d="M299.29,-128.73C283.66,-118.68 265.03,-106.68 250.87,-97.58"/>
<polygon fill="midnightblue" stroke="midnightblue" points="297.78,-131.93 308.08,-134.4 301.57,-126.04 297.78,-131.93"/>
</g>
<!-- Node11 -->
<g id="node11" class="node">
<title>Node11</title>
<g id="a_node11"><a xlink:href="../../d6/d99/graphics_8cpp.html" target="_top" xlink:title=" ">
<polygon fill="none" stroke="black" points="319.5,-67.5 319.5,-97.5 464.5,-97.5 464.5,-67.5 319.5,-67.5"/>
<text text-anchor="start" x="327.5" y="-85.5" font-family="Helvetica,sans-Serif" font-size="10.00">C:/Users/lukac/CLionProjects</text>
<text text-anchor="middle" x="392" y="-74.5" font-family="Helvetica,sans-Serif" font-size="10.00">/virus_real/src/graphics.cpp</text>
</a>
</g>
</g>
<!-- Node10&#45;&gt;Node11 -->
<g id="edge11" class="edge">
<title>Node10&#45;&gt;Node11</title>
<path fill="none" stroke="midnightblue" d="M350.48,-127.02C359.72,-117.34 370.37,-106.17 378.57,-97.58"/>
<polygon fill="midnightblue" stroke="midnightblue" points="347.82,-124.74 343.45,-134.4 352.89,-129.58 347.82,-124.74"/>
</g>
<!-- Node13&#45;&gt;Node2 -->
<g id="edge15" class="edge">
<title>Node13&#45;&gt;Node2</title>
<path fill="none" stroke="midnightblue" d="M573.08,-133.74C455.87,-115.56 424.2,-115.97 310,-98 307.32,-97.58 304.59,-97.14 301.83,-96.69"/>
<polygon fill="midnightblue" stroke="midnightblue" points="572.75,-137.23 583.17,-135.31 573.83,-130.31 572.75,-137.23"/>
</g>
<!-- Node14 -->
<g id="node14" class="node">
<title>Node14</title>
<g id="a_node14"><a xlink:href="../../d4/d25/protocol_8cpp.html" target="_top" xlink:title=" ">
<polygon fill="none" stroke="black" points="583.5,-67.5 583.5,-97.5 728.5,-97.5 728.5,-67.5 583.5,-67.5"/>
<text text-anchor="start" x="591.5" y="-85.5" font-family="Helvetica,sans-Serif" font-size="10.00">C:/Users/lukac/CLionProjects</text>
<text text-anchor="middle" x="656" y="-74.5" font-family="Helvetica,sans-Serif" font-size="10.00">/virus_real/src/protocol.cpp</text>
</a>
</g>
</g>
<!-- Node13&#45;&gt;Node14 -->
<g id="edge16" class="edge">
<title>Node13&#45;&gt;Node14</title>
<path fill="none" stroke="midnightblue" d="M656,-124.11C656,-115.15 656,-105.32 656,-97.58"/>
<polygon fill="midnightblue" stroke="midnightblue" points="652.5,-124.4 656,-134.4 659.5,-124.4 652.5,-124.4"/>
</g>
<!-- Node15&#45;&gt;Node4 -->
<g id="edge18" class="edge">
<title>Node15&#45;&gt;Node4</title>
<path fill="none" stroke="midnightblue" d="M905.29,-125.29C913.54,-107.48 920.29,-83.26 907,-67 885.18,-40.29 796.85,-27.35 731.79,-21.33"/>
<polygon fill="midnightblue" stroke="midnightblue" points="902.06,-123.93 900.67,-134.43 908.31,-127.09 902.06,-123.93"/>
</g>
<!-- Node16 -->
<g id="node16" class="node">
<title>Node16</title>
<g id="a_node16"><a xlink:href="../../d3/d49/visualization_8cpp.html" target="_top" xlink:title=" ">
<polygon fill="none" stroke="black" points="746.5,-67.5 746.5,-97.5 897.5,-97.5 897.5,-67.5 746.5,-67.5"/>
<text text-anchor="start" x="754.5" y="-85.5" font-family="Helvetica,sans-Serif" font-size="10.00">C:/Users/lukac/CLionProjects</text>
<text text-anchor="middle" x="822" y="-74.5" font-family="Helvetica,sans-Serif" font-size="10.00">/virus_real/src/visualization.cpp</text>
</a>
</g>
</g>
<!-- Node15&#45;&gt;Node16 -->
<g id="edge19" class="edge">
<title>Node15&#45;&gt;Node16</title>
<path fill="none" stroke="midnightblue" d="M869.18,-127.31C858.68,-117.56 846.51,-106.26 837.16,-97.58"/>
<polygon fill="midnightblue" stroke="midnightblue" points="867.1,-130.16 876.81,-134.4 871.86,-125.03 867.1,-130.16"/>
</g>
<!-- Node17&#45;&gt;Node7 -->
<g id="edge22" class="edge">
<title>Node17&#45;&gt;Node7</title>
<path fill="none" stroke="midnightblue" d="M258.04,-331.68C231.74,-321.26 199,-308.28 174.52,-298.58"/>
<polygon fill="midnightblue" stroke="midnightblue" points="256.83,-334.97 267.41,-335.4 259.41,-328.46 256.83,-334.97"/>
</g>
<!-- Node18 -->
<g id="node18" class="node">
<title>Node18</title>
<g id="a_node18"><a xlink:href="../../d0/d23/graphalgos_8cpp.html" target="_top" xlink:title=" ">
<polygon fill="none" stroke="black" points="230,-268.5 230,-298.5 376,-298.5 376,-268.5 230,-268.5"/>
<text text-anchor="start" x="238" y="-286.5" font-family="Helvetica,sans-Serif" font-size="10.00">C:/Users/lukac/CLionProjects</text>
<text text-anchor="middle" x="303" y="-275.5" font-family="Helvetica,sans-Serif" font-size="10.00">/virus_real/src/graphalgos.cpp</text>
</a>
</g>
</g>
<!-- Node17&#45;&gt;Node18 -->
<g id="edge23" class="edge">
<title>Node17&#45;&gt;Node18</title>
<path fill="none" stroke="midnightblue" d="M303,-325.11C303,-316.15 303,-306.32 303,-298.58"/>
<polygon fill="midnightblue" stroke="midnightblue" points="299.5,-325.4 303,-335.4 306.5,-325.4 299.5,-325.4"/>
</g>
<!-- Node20&#45;&gt;Node2 -->
<g id="edge28" class="edge">
<title>Node20&#45;&gt;Node2</title>
<path fill="none" stroke="midnightblue" d="M406.44,-391.93C408.33,-360.89 407.57,-306.82 385,-268 346.71,-202.15 289.59,-228.82 248,-165 234.44,-144.19 230.51,-114.81 229.41,-97.6"/>
<polygon fill="midnightblue" stroke="midnightblue" points="402.92,-392.02 405.66,-402.26 409.9,-392.55 402.92,-392.02"/>
</g>
<!-- Node20&#45;&gt;Node7 -->
<g id="edge27" class="edge">
<title>Node20&#45;&gt;Node7</title>
<path fill="none" stroke="midnightblue" d="M321.13,-403.07C288.43,-395.41 251.48,-383.69 221,-366 190.62,-348.37 163.46,-316.76 149.31,-298.52"/>
<polygon fill="midnightblue" stroke="midnightblue" points="320.6,-406.54 331.12,-405.31 322.13,-399.71 320.6,-406.54"/>
</g>
<!-- Node20&#45;&gt;Node9 -->
<g id="edge30" class="edge">
<title>Node20&#45;&gt;Node9</title>
<path fill="none" stroke="midnightblue" d="M414.6,-392.8C433.29,-351.01 471.55,-265.47 486.66,-231.68"/>
<polygon fill="midnightblue" stroke="midnightblue" points="411.29,-391.63 410.4,-402.19 417.68,-394.49 411.29,-391.63"/>
</g>
<!-- Node20&#45;&gt;Node14 -->
<g id="edge32" class="edge">
<title>Node20&#45;&gt;Node14</title>
<path fill="none" stroke="midnightblue" d="M486.61,-402.61C590.94,-382.68 757,-341.94 757,-284.5 757,-284.5 757,-284.5 757,-215.5 757,-178.31 759.73,-164.19 738,-134 726.38,-117.85 707.84,-105.81 691.33,-97.54"/>
<polygon fill="midnightblue" stroke="midnightblue" points="485.89,-399.19 476.71,-404.48 487.19,-406.06 485.89,-399.19"/>
</g>
<!-- Node20&#45;&gt;Node17 -->
<g id="edge29" class="edge">
<title>Node20&#45;&gt;Node17</title>
<path fill="none" stroke="midnightblue" d="M373.29,-396.73C357.66,-386.68 339.03,-374.68 324.87,-365.58"/>
<polygon fill="midnightblue" stroke="midnightblue" points="371.78,-399.93 382.08,-402.4 375.57,-394.04 371.78,-399.93"/>
</g>
<!-- Node21 -->
<g id="node21" class="node">
<title>Node21</title>
<g id="a_node21"><a xlink:href="../../de/d61/logic_8cpp.html" target="_top" xlink:title=" ">
<polygon fill="none" stroke="black" points="470.5,-335.5 470.5,-365.5 615.5,-365.5 615.5,-335.5 470.5,-335.5"/>
<text text-anchor="start" x="478.5" y="-353.5" font-family="Helvetica,sans-Serif" font-size="10.00">C:/Users/lukac/CLionProjects</text>
<text text-anchor="middle" x="543" y="-342.5" font-family="Helvetica,sans-Serif" font-size="10.00">/virus_real/src/logic.cpp</text>
</a>
</g>
</g>
<!-- Node20&#45;&gt;Node21 -->
<g id="edge31" class="edge">
<title>Node20&#45;&gt;Node21</title>
<path fill="none" stroke="midnightblue" d="M443.28,-398.13C465.37,-387.8 492.51,-375.11 512.9,-365.58"/>
<polygon fill="midnightblue" stroke="midnightblue" points="441.74,-394.99 434.16,-402.4 444.7,-401.33 441.74,-394.99"/>
</g>
<!-- Node22&#45;&gt;Node15 -->
<g id="edge34" class="edge">
<title>Node22&#45;&gt;Node15</title>
<path fill="none" stroke="midnightblue" d="M926.21,-393.8C931.77,-385.54 937.15,-375.81 940,-366 943.84,-352.77 941.75,-348.67 940,-335 931.68,-270 907.52,-195.18 896.99,-164.61"/>
<polygon fill="midnightblue" stroke="midnightblue" points="923.23,-391.96 920.24,-402.12 928.91,-396.05 923.23,-391.96"/>
</g>
<!-- Node23 -->
<g id="node23" class="node">
<title>Node23</title>
<g id="a_node23"><a xlink:href="../../d8/d8e/window_8cpp.html" target="_top" xlink:title=" ">
<polygon fill="none" stroke="black" points="785.5,-335.5 785.5,-365.5 930.5,-365.5 930.5,-335.5 785.5,-335.5"/>
<text text-anchor="start" x="793.5" y="-353.5" font-family="Helvetica,sans-Serif" font-size="10.00">C:/Users/lukac/CLionProjects</text>
<text text-anchor="middle" x="858" y="-342.5" font-family="Helvetica,sans-Serif" font-size="10.00">/virus_real/src/window.cpp</text>
</a>
</g>
</g>
<!-- Node22&#45;&gt;Node23 -->
<g id="edge35" class="edge">
<title>Node22&#45;&gt;Node23</title>
<path fill="none" stroke="midnightblue" d="M891.04,-394.45C883.69,-384.9 875.31,-374 868.83,-365.58"/>
<polygon fill="midnightblue" stroke="midnightblue" points="888.28,-396.6 897.15,-402.4 893.83,-392.34 888.28,-396.6"/>
</g>
</g>
</svg>
