<?xml version="1.0" encoding="UTF-8" standalone="no"?>
<!DOCTYPE svg PUBLIC "-//W3C//DTD SVG 1.1//EN"
 "http://www.w3.org/Graphics/SVG/1.1/DTD/svg11.dtd">
<!-- Generated by graphviz version 2.44.1 (20200629.0846)
 -->
<!-- Title: GraphAlgos::dijkstra Pages: 1 -->
<svg width="636pt" height="456pt"
 viewBox="0.00 0.00 636.00 456.00" xmlns="http://www.w3.org/2000/svg" xmlns:xlink="http://www.w3.org/1999/xlink">
<g id="graph0" class="graph" transform="scale(1 1) rotate(0) translate(4 452)">
<title>GraphAlgos::dijkstra</title>
<!-- Node1 -->
<g id="node1" class="node">
<title>Node1</title>
<g id="a_node1"><a xlink:title=" ">
<polygon fill="#bfbfbf" stroke="black" points="0,-133.5 0,-152.5 105,-152.5 105,-133.5 0,-133.5"/>
<text text-anchor="middle" x="52.5" y="-140.5" font-family="Helvetica,sans-Serif" font-size="10.00">GraphAlgos::dijkstra</text>
</a>
</g>
</g>
<!-- Node2 -->
<g id="node2" class="node">
<title>Node2</title>
<g id="a_node2"><a xlink:href="../../d2/d5b/class_graph_algos.html#a05980a7c241d7f0c6d4356e6210df1e2" target="_top" xlink:title=" ">
<polygon fill="none" stroke="black" points="151.5,-200.5 151.5,-219.5 263.5,-219.5 263.5,-200.5 151.5,-200.5"/>
<text text-anchor="middle" x="207.5" y="-207.5" font-family="Helvetica,sans-Serif" font-size="10.00">GraphAlgos::calcPath</text>
</a>
</g>
</g>
<!-- Node1&#45;&gt;Node2 -->
<g id="edge1" class="edge">
<title>Node1&#45;&gt;Node2</title>
<path fill="none" stroke="midnightblue" d="M75.42,-152.6C101.55,-164.04 145.41,-183.25 175.13,-196.26"/>
<polygon fill="midnightblue" stroke="midnightblue" points="174.06,-199.61 184.62,-200.42 176.86,-193.2 174.06,-199.61"/>
</g>
<!-- Node5 -->
<g id="node5" class="node">
<title>Node5</title>
<g id="a_node5"><a xlink:href="../../dc/d67/class_field.html#a4e827e77d4d643af74e873ba5c75add2" target="_top" xlink:title=" ">
<polygon fill="none" stroke="black" points="310,-151 310,-181 452,-181 452,-151 310,-151"/>
<text text-anchor="start" x="318" y="-169" font-family="Helvetica,sans-Serif" font-size="10.00">Field::vaccinesToPutForTotal</text>
<text text-anchor="middle" x="381" y="-158" font-family="Helvetica,sans-Serif" font-size="10.00">Healing</text>
</a>
</g>
</g>
<!-- Node1&#45;&gt;Node5 -->
<g id="edge19" class="edge">
<title>Node1&#45;&gt;Node5</title>
<path fill="none" stroke="midnightblue" d="M105.23,-146.64C157.5,-150.33 238.99,-156.07 299.66,-160.34"/>
<polygon fill="midnightblue" stroke="midnightblue" points="299.76,-163.86 309.98,-161.07 300.25,-156.87 299.76,-163.86"/>
</g>
<!-- Node6 -->
<g id="node6" class="node">
<title>Node6</title>
<g id="a_node6"><a xlink:href="../../dc/d67/class_field.html#ac9823a5988356e6d2f6aa8cf232c16c5" target="_top" xlink:title=" ">
<polygon fill="none" stroke="black" points="488,-156.5 488,-175.5 628,-175.5 628,-156.5 488,-156.5"/>
<text text-anchor="middle" x="558" y="-163.5" font-family="Helvetica,sans-Serif" font-size="10.00">Field::vaccinesToPutMinimal</text>
</a>
</g>
</g>
<!-- Node1&#45;&gt;Node6 -->
<g id="edge20" class="edge">
<title>Node1&#45;&gt;Node6</title>
<path fill="none" stroke="midnightblue" d="M105.29,-139.1C181.51,-134.2 328.25,-128.04 452,-142 472.63,-144.33 495.12,-149.15 513.98,-153.87"/>
<polygon fill="midnightblue" stroke="midnightblue" points="513.2,-157.28 523.76,-156.39 514.94,-150.5 513.2,-157.28"/>
</g>
<!-- Node7 -->
<g id="node7" class="node">
<title>Node7</title>
<g id="a_node7"><a xlink:href="../../da/d74/class_grid.html#aff3d5bc3ea4e8da08e0a78d7f73f0084" target="_top" xlink:title=" ">
<polygon fill="none" stroke="black" points="152.5,-295.5 152.5,-314.5 262.5,-314.5 262.5,-295.5 152.5,-295.5"/>
<text text-anchor="middle" x="207.5" y="-302.5" font-family="Helvetica,sans-Serif" font-size="10.00">Grid::getFieldByPoint</text>
</a>
</g>
</g>
<!-- Node1&#45;&gt;Node7 -->
<g id="edge7" class="edge">
<title>Node1&#45;&gt;Node7</title>
<path fill="none" stroke="midnightblue" d="M62.61,-152.65C87.75,-179.26 158.3,-253.97 190.33,-287.87"/>
<polygon fill="midnightblue" stroke="midnightblue" points="187.83,-290.33 197.24,-295.2 192.92,-285.52 187.83,-290.33"/>
</g>
<!-- Node10 -->
<g id="node10" class="node">
<title>Node10</title>
<g id="a_node10"><a xlink:href="../../dc/d67/class_field.html#a4e295a0d910540d277822150f6a8cb66" target="_top" xlink:title=" ">
<polygon fill="none" stroke="black" points="164,-76.5 164,-95.5 251,-95.5 251,-76.5 164,-76.5"/>
<text text-anchor="middle" x="207.5" y="-83.5" font-family="Helvetica,sans-Serif" font-size="10.00">Field::getFieldID</text>
</a>
</g>
</g>
<!-- Node1&#45;&gt;Node10 -->
<g id="edge11" class="edge">
<title>Node1&#45;&gt;Node10</title>
<path fill="none" stroke="midnightblue" d="M78.75,-133.41C96.21,-126.79 120,-117.81 141,-110 150.6,-106.43 161.02,-102.6 170.65,-99.07"/>
<polygon fill="midnightblue" stroke="midnightblue" points="172.15,-102.24 180.34,-95.52 169.75,-95.67 172.15,-102.24"/>
</g>
<!-- Node11 -->
<g id="node11" class="node">
<title>Node11</title>
<g id="a_node11"><a xlink:href="../../da/d74/class_grid.html#ae7393bc74ab867cc3f4409c70d80351b" target="_top" xlink:title=" ">
<polygon fill="none" stroke="black" points="166.5,-38.5 166.5,-57.5 248.5,-57.5 248.5,-38.5 166.5,-38.5"/>
<text text-anchor="middle" x="207.5" y="-45.5" font-family="Helvetica,sans-Serif" font-size="10.00">Grid::getHeight</text>
</a>
</g>
</g>
<!-- Node1&#45;&gt;Node11 -->
<g id="edge12" class="edge">
<title>Node1&#45;&gt;Node11</title>
<path fill="none" stroke="midnightblue" d="M61.94,-133.34C76.5,-117.25 107.96,-85 141,-67 145.87,-64.35 151.16,-62.03 156.54,-60.01"/>
<polygon fill="midnightblue" stroke="midnightblue" points="157.93,-63.23 166.27,-56.69 155.67,-56.61 157.93,-63.23"/>
</g>
<!-- Node12 -->
<g id="node12" class="node">
<title>Node12</title>
<g id="a_node12"><a xlink:href="../../d1/d22/class_utils_1_1_point.html#adedde8c4c0d9e7efeb415929a10ef8db" target="_top" xlink:title=" ">
<polygon fill="none" stroke="black" points="141,-390.5 141,-409.5 274,-409.5 274,-390.5 141,-390.5"/>
<text text-anchor="middle" x="207.5" y="-397.5" font-family="Helvetica,sans-Serif" font-size="10.00">Utils::Point::getNeighbours</text>
</a>
</g>
</g>
<!-- Node1&#45;&gt;Node12 -->
<g id="edge13" class="edge">
<title>Node1&#45;&gt;Node12</title>
<path fill="none" stroke="midnightblue" d="M57.22,-152.9C67.98,-180.97 100.97,-263.02 141,-324 155.35,-345.87 175.41,-368.24 189.54,-382.99"/>
<polygon fill="midnightblue" stroke="midnightblue" points="187.22,-385.63 196.7,-390.35 192.24,-380.74 187.22,-385.63"/>
</g>
<!-- Node15 -->
<g id="node15" class="node">
<title>Node15</title>
<g id="a_node15"><a xlink:href="../../da/d74/class_grid.html#a862cf2f474e31195bea649b08cfb7b46" target="_top" xlink:title=" ">
<polygon fill="none" stroke="black" points="167.5,-0.5 167.5,-19.5 247.5,-19.5 247.5,-0.5 167.5,-0.5"/>
<text text-anchor="middle" x="207.5" y="-7.5" font-family="Helvetica,sans-Serif" font-size="10.00">Grid::getWidth</text>
</a>
</g>
</g>
<!-- Node1&#45;&gt;Node15 -->
<g id="edge18" class="edge">
<title>Node1&#45;&gt;Node15</title>
<path fill="none" stroke="midnightblue" d="M58.15,-133.39C69.27,-111.43 99.59,-57.28 141,-29 146.01,-25.58 151.64,-22.76 157.44,-20.45"/>
<polygon fill="midnightblue" stroke="midnightblue" points="158.99,-23.62 167.28,-17.02 156.69,-17.01 158.99,-23.62"/>
</g>
<!-- Node3 -->
<g id="node3" class="node">
<title>Node3</title>
<g id="a_node3"><a xlink:href="../../da/d74/class_grid.html#a3618702f7872969eedc6e8817dc26776" target="_top" xlink:title=" ">
<polygon fill="none" stroke="black" points="333,-276.5 333,-295.5 429,-295.5 429,-276.5 333,-276.5"/>
<text text-anchor="middle" x="381" y="-283.5" font-family="Helvetica,sans-Serif" font-size="10.00">Grid::getFieldByID</text>
</a>
</g>
</g>
<!-- Node2&#45;&gt;Node3 -->
<g id="edge2" class="edge">
<title>Node2&#45;&gt;Node3</title>
<path fill="none" stroke="midnightblue" d="M223.05,-219.7C242.26,-232.14 277.45,-253.68 310,-267 315.81,-269.38 322.02,-271.55 328.24,-273.51"/>
<polygon fill="midnightblue" stroke="midnightblue" points="327.4,-276.91 337.98,-276.4 329.39,-270.2 327.4,-276.91"/>
</g>
<!-- Node4 -->
<g id="node4" class="node">
<title>Node4</title>
<g id="a_node4"><a xlink:href="../../da/d74/class_grid.html#a01226c7da17f429e10f78721fd8773f3" target="_top" xlink:title=" ">
<polygon fill="none" stroke="black" points="321.5,-238.5 321.5,-257.5 440.5,-257.5 440.5,-238.5 321.5,-238.5"/>
<text text-anchor="middle" x="381" y="-245.5" font-family="Helvetica,sans-Serif" font-size="10.00">Grid::getPointByFieldID</text>
</a>
</g>
</g>
<!-- Node2&#45;&gt;Node4 -->
<g id="edge3" class="edge">
<title>Node2&#45;&gt;Node4</title>
<path fill="none" stroke="midnightblue" d="M251.78,-219.59C274.61,-224.65 302.82,-230.9 326.96,-236.25"/>
<polygon fill="midnightblue" stroke="midnightblue" points="326.51,-239.73 337.03,-238.48 328.03,-232.9 326.51,-239.73"/>
</g>
<!-- Node2&#45;&gt;Node5 -->
<g id="edge4" class="edge">
<title>Node2&#45;&gt;Node5</title>
<path fill="none" stroke="midnightblue" d="M245.71,-200.45C264.94,-195.52 289.01,-189.34 311.45,-183.59"/>
<polygon fill="midnightblue" stroke="midnightblue" points="312.46,-186.94 321.28,-181.07 310.72,-180.16 312.46,-186.94"/>
</g>
<!-- Node2&#45;&gt;Node6 -->
<g id="edge6" class="edge">
<title>Node2&#45;&gt;Node6</title>
<path fill="none" stroke="midnightblue" d="M263.91,-208.14C313.45,-205.89 387.91,-201.07 452,-191 472.24,-187.82 494.35,-182.8 513.03,-178.08"/>
<polygon fill="midnightblue" stroke="midnightblue" points="513.93,-181.47 522.75,-175.58 512.19,-174.69 513.93,-181.47"/>
</g>
<!-- Node5&#45;&gt;Node6 -->
<g id="edge5" class="edge">
<title>Node5&#45;&gt;Node6</title>
<path fill="none" stroke="midnightblue" d="M452.17,-166C460.65,-166 469.35,-166 477.94,-166"/>
<polygon fill="midnightblue" stroke="midnightblue" points="477.95,-169.5 487.95,-166 477.95,-162.5 477.95,-169.5"/>
</g>
<!-- Node7&#45;&gt;Node3 -->
<g id="edge8" class="edge">
<title>Node7&#45;&gt;Node3</title>
<path fill="none" stroke="midnightblue" d="M262.76,-298.99C281.81,-296.88 303.27,-294.5 322.57,-292.36"/>
<polygon fill="midnightblue" stroke="midnightblue" points="323.19,-295.82 332.74,-291.24 322.42,-288.86 323.19,-295.82"/>
</g>
<!-- Node8 -->
<g id="node8" class="node">
<title>Node8</title>
<g id="a_node8"><a xlink:href="../../d1/d22/class_utils_1_1_point.html#a4fd453f573c399f7195a8982268a9f55" target="_top" xlink:title=" ">
<polygon fill="none" stroke="black" points="513.5,-380.5 513.5,-399.5 602.5,-399.5 602.5,-380.5 513.5,-380.5"/>
<text text-anchor="middle" x="558" y="-387.5" font-family="Helvetica,sans-Serif" font-size="10.00">Utils::Point::getX</text>
</a>
</g>
</g>
<!-- Node7&#45;&gt;Node8 -->
<g id="edge9" class="edge">
<title>Node7&#45;&gt;Node8</title>
<path fill="none" stroke="midnightblue" d="M243.66,-314.63C263.17,-319.9 287.89,-326.46 310,-332 376.96,-348.76 454.49,-366.74 504.57,-378.16"/>
<polygon fill="midnightblue" stroke="midnightblue" points="503.99,-381.61 514.51,-380.42 505.54,-374.79 503.99,-381.61"/>
</g>
<!-- Node9 -->
<g id="node9" class="node">
<title>Node9</title>
<g id="a_node9"><a xlink:href="../../d1/d22/class_utils_1_1_point.html#a62ce3a4ededc21a4f417bf18e357fc8e" target="_top" xlink:title=" ">
<polygon fill="none" stroke="black" points="512.5,-323.5 512.5,-342.5 603.5,-342.5 603.5,-323.5 512.5,-323.5"/>
<text text-anchor="middle" x="558" y="-330.5" font-family="Helvetica,sans-Serif" font-size="10.00">Utils::Point::getY</text>
</a>
</g>
</g>
<!-- Node7&#45;&gt;Node9 -->
<g id="edge10" class="edge">
<title>Node7&#45;&gt;Node9</title>
<path fill="none" stroke="midnightblue" d="M262.57,-309.34C327.81,-314.59 436.88,-323.35 502.37,-328.61"/>
<polygon fill="midnightblue" stroke="midnightblue" points="502.24,-332.11 512.49,-329.42 502.8,-325.13 502.24,-332.11"/>
</g>
<!-- Node13 -->
<g id="node13" class="node">
<title>Node13</title>
<g id="a_node13"><a xlink:href="../../d1/d22/class_utils_1_1_point.html#ac6478449387ca5e2f34511ad421785d7" target="_top" xlink:title=" ">
<polygon fill="none" stroke="black" points="334.5,-428.5 334.5,-447.5 427.5,-447.5 427.5,-428.5 334.5,-428.5"/>
<text text-anchor="middle" x="381" y="-435.5" font-family="Helvetica,sans-Serif" font-size="10.00">Utils::Point::Point</text>
</a>
</g>
</g>
<!-- Node12&#45;&gt;Node13 -->
<g id="edge14" class="edge">
<title>Node12&#45;&gt;Node13</title>
<path fill="none" stroke="midnightblue" d="M251.78,-409.59C274.61,-414.65 302.82,-420.9 326.96,-426.25"/>
<polygon fill="midnightblue" stroke="midnightblue" points="326.51,-429.73 337.03,-428.48 328.03,-422.9 326.51,-429.73"/>
</g>
<!-- Node14 -->
<g id="node14" class="node">
<title>Node14</title>
<g id="a_node14"><a xlink:href="../../d1/d22/class_utils_1_1_point.html#a1563d88d568349cd8e76904c25671594" target="_top" xlink:title=" ">
<polygon fill="none" stroke="black" points="317,-390.5 317,-409.5 445,-409.5 445,-390.5 317,-390.5"/>
<text text-anchor="middle" x="381" y="-397.5" font-family="Helvetica,sans-Serif" font-size="10.00">Utils::Point::withinBounds</text>
</a>
</g>
</g>
<!-- Node12&#45;&gt;Node14 -->
<g id="edge15" class="edge">
<title>Node12&#45;&gt;Node14</title>
<path fill="none" stroke="midnightblue" d="M274.32,-400C284.91,-400 295.93,-400 306.69,-400"/>
<polygon fill="midnightblue" stroke="midnightblue" points="306.9,-403.5 316.9,-400 306.9,-396.5 306.9,-403.5"/>
</g>
<!-- Node14&#45;&gt;Node8 -->
<g id="edge16" class="edge">
<title>Node14&#45;&gt;Node8</title>
<path fill="none" stroke="midnightblue" d="M445.18,-396.39C464.17,-395.3 484.83,-394.12 503.16,-393.08"/>
<polygon fill="midnightblue" stroke="midnightblue" points="503.58,-396.56 513.36,-392.49 503.18,-389.57 503.58,-396.56"/>
</g>
<!-- Node14&#45;&gt;Node9 -->
<g id="edge17" class="edge">
<title>Node14&#45;&gt;Node9</title>
<path fill="none" stroke="midnightblue" d="M407.07,-390.4C437.35,-378.81 488.44,-359.25 522.44,-346.23"/>
<polygon fill="midnightblue" stroke="midnightblue" points="523.89,-349.43 531.97,-342.58 521.38,-342.89 523.89,-349.43"/>
</g>
</g>
</svg>
