<?xml version="1.0" encoding="UTF-8" standalone="no"?>
<!DOCTYPE svg PUBLIC "-//W3C//DTD SVG 1.1//EN"
 "http://www.w3.org/Graphics/SVG/1.1/DTD/svg11.dtd">
<!-- Generated by graphviz version 2.44.1 (20200629.0846)
 -->
<!-- Title: GraphAlgos::calcPath Pages: 1 -->
<svg width="474pt" height="135pt"
 viewBox="0.00 0.00 474.00 135.42" xmlns="http://www.w3.org/2000/svg" xmlns:xlink="http://www.w3.org/1999/xlink">
<g id="graph0" class="graph" transform="scale(1 1) rotate(0) translate(4 131.42)">
<title>GraphAlgos::calcPath</title>
<!-- Node1 -->
<g id="node1" class="node">
<title>Node1</title>
<g id="a_node1"><a xlink:title=" ">
<polygon fill="#bfbfbf" stroke="black" points="0,-47.92 0,-66.92 112,-66.92 112,-47.92 0,-47.92"/>
<text text-anchor="middle" x="56" y="-54.92" font-family="Helvetica,sans-Serif" font-size="10.00">GraphAlgos::calcPath</text>
</a>
</g>
</g>
<!-- Node2 -->
<g id="node2" class="node">
<title>Node2</title>
<g id="a_node2"><a xlink:href="../../da/d74/class_grid.html#a3618702f7872969eedc6e8817dc26776" target="_top" xlink:title=" ">
<polygon fill="none" stroke="black" points="171,-107.92 171,-126.92 267,-126.92 267,-107.92 171,-107.92"/>
<text text-anchor="middle" x="219" y="-114.92" font-family="Helvetica,sans-Serif" font-size="10.00">Grid::getFieldByID</text>
</a>
</g>
</g>
<!-- Node1&#45;&gt;Node2 -->
<g id="edge1" class="edge">
<title>Node1&#45;&gt;Node2</title>
<path fill="none" stroke="midnightblue" d="M75.81,-66.96C93.97,-75.9 122.39,-89.24 148,-98.42 154.53,-100.76 161.49,-102.98 168.4,-105.01"/>
<polygon fill="midnightblue" stroke="midnightblue" points="167.84,-108.49 178.42,-107.85 169.75,-101.76 167.84,-108.49"/>
</g>
<!-- Node3 -->
<g id="node3" class="node">
<title>Node3</title>
<g id="a_node3"><a xlink:href="../../da/d74/class_grid.html#a01226c7da17f429e10f78721fd8773f3" target="_top" xlink:title=" ">
<polygon fill="none" stroke="black" points="159.5,-69.92 159.5,-88.92 278.5,-88.92 278.5,-69.92 159.5,-69.92"/>
<text text-anchor="middle" x="219" y="-76.92" font-family="Helvetica,sans-Serif" font-size="10.00">Grid::getPointByFieldID</text>
</a>
</g>
</g>
<!-- Node1&#45;&gt;Node3 -->
<g id="edge2" class="edge">
<title>Node1&#45;&gt;Node3</title>
<path fill="none" stroke="midnightblue" d="M112.41,-64.99C124.27,-66.62 136.95,-68.35 149.25,-70.03"/>
<polygon fill="midnightblue" stroke="midnightblue" points="149.09,-73.54 159.47,-71.43 150.04,-66.6 149.09,-73.54"/>
</g>
<!-- Node4 -->
<g id="node4" class="node">
<title>Node4</title>
<g id="a_node4"><a xlink:href="../../dc/d67/class_field.html#a4e827e77d4d643af74e873ba5c75add2" target="_top" xlink:title=" ">
<polygon fill="none" stroke="black" points="148,-20.42 148,-50.42 290,-50.42 290,-20.42 148,-20.42"/>
<text text-anchor="start" x="156" y="-38.42" font-family="Helvetica,sans-Serif" font-size="10.00">Field::vaccinesToPutForTotal</text>
<text text-anchor="middle" x="219" y="-27.42" font-family="Helvetica,sans-Serif" font-size="10.00">Healing</text>
</a>
</g>
</g>
<!-- Node1&#45;&gt;Node4 -->
<g id="edge3" class="edge">
<title>Node1&#45;&gt;Node4</title>
<path fill="none" stroke="midnightblue" d="M112.41,-49.85C120.64,-48.73 129.27,-47.55 137.89,-46.37"/>
<polygon fill="midnightblue" stroke="midnightblue" points="138.55,-49.81 147.99,-44.99 137.6,-42.88 138.55,-49.81"/>
</g>
<!-- Node5 -->
<g id="node5" class="node">
<title>Node5</title>
<g id="a_node5"><a xlink:href="../../dc/d67/class_field.html#ac9823a5988356e6d2f6aa8cf232c16c5" target="_top" xlink:title=" ">
<polygon fill="none" stroke="black" points="326,-3.92 326,-22.92 466,-22.92 466,-3.92 326,-3.92"/>
<text text-anchor="middle" x="396" y="-10.92" font-family="Helvetica,sans-Serif" font-size="10.00">Field::vaccinesToPutMinimal</text>
</a>
</g>
</g>
<!-- Node1&#45;&gt;Node5 -->
<g id="edge5" class="edge">
<title>Node1&#45;&gt;Node5</title>
<path fill="none" stroke="midnightblue" d="M70.7,-47.9C87.84,-36.61 118.55,-18.44 148,-11.42 202.91,1.67 266.66,0.77 315.64,-3.2"/>
<polygon fill="midnightblue" stroke="midnightblue" points="315.59,-6.71 325.86,-4.09 316.2,0.27 315.59,-6.71"/>
</g>
<!-- Node4&#45;&gt;Node5 -->
<g id="edge4" class="edge">
<title>Node4&#45;&gt;Node5</title>
<path fill="none" stroke="midnightblue" d="M290.17,-26.6C298.65,-25.54 307.35,-24.44 315.94,-23.36"/>
<polygon fill="midnightblue" stroke="midnightblue" points="316.47,-26.82 325.95,-22.1 315.59,-19.88 316.47,-26.82"/>
</g>
</g>
</svg>
