<?xml version="1.0" encoding="UTF-8" standalone="no"?>
<!DOCTYPE svg PUBLIC "-//W3C//DTD SVG 1.1//EN"
 "http://www.w3.org/Graphics/SVG/1.1/DTD/svg11.dtd">
<!-- Generated by graphviz version 2.44.1 (20200629.0846)
 -->
<!-- Title: C:/Users/lukac/CLionProjects/virus_real/src/main.cpp Pages: 1 -->
<svg width="1435pt" height="655pt"
 viewBox="0.00 0.00 1435.46 655.00" xmlns="http://www.w3.org/2000/svg" xmlns:xlink="http://www.w3.org/1999/xlink">
<g id="graph0" class="graph" transform="scale(1 1) rotate(0) translate(4 651)">
<title>C:/Users/lukac/CLionProjects/virus_real/src/main.cpp</title>
<!-- Node1 -->
<g id="node1" class="node">
<title>Node1</title>
<g id="a_node1"><a xlink:title=" ">
<polygon fill="#bfbfbf" stroke="black" points="773.5,-616.5 773.5,-646.5 918.5,-646.5 918.5,-616.5 773.5,-616.5"/>
<text text-anchor="start" x="781.5" y="-634.5" font-family="Helvetica,sans-Serif" font-size="10.00">C:/Users/lukac/CLionProjects</text>
<text text-anchor="middle" x="846" y="-623.5" font-family="Helvetica,sans-Serif" font-size="10.00">/virus_real/src/main.cpp</text>
</a>
</g>
</g>
<!-- Node2 -->
<g id="node2" class="node">
<title>Node2</title>
<g id="a_node2"><a xlink:title=" ">
<polygon fill="none" stroke="#bfbfbf" points="809,-112.5 809,-131.5 863,-131.5 863,-112.5 809,-112.5"/>
<text text-anchor="middle" x="836" y="-119.5" font-family="Helvetica,sans-Serif" font-size="10.00">iostream</text>
</a>
</g>
</g>
<!-- Node1&#45;&gt;Node2 -->
<g id="edge1" class="edge">
<title>Node1&#45;&gt;Node2</title>
<path fill="none" stroke="midnightblue" d="M854.74,-616.36C866.4,-596.57 886.46,-559.1 894,-524 915.84,-422.38 874,-394.94 874,-291 874,-291 874,-291 874,-233 874,-198.81 857.4,-161.76 846.14,-140.57"/>
<polygon fill="midnightblue" stroke="midnightblue" points="849.18,-138.83 841.28,-131.77 843.05,-142.22 849.18,-138.83"/>
</g>
<!-- Node3 -->
<g id="node3" class="node">
<title>Node3</title>
<g id="a_node3"><a xlink:href="../../db/d16/config_8h.html" target="_top" xlink:title=" ">
<polygon fill="none" stroke="black" points="63,-224.5 63,-243.5 113,-243.5 113,-224.5 63,-224.5"/>
<text text-anchor="middle" x="88" y="-231.5" font-family="Helvetica,sans-Serif" font-size="10.00">config.h</text>
</a>
</g>
</g>
<!-- Node1&#45;&gt;Node3 -->
<g id="edge2" class="edge">
<title>Node1&#45;&gt;Node3</title>
<path fill="none" stroke="midnightblue" d="M773.14,-628.16C567.93,-620.62 0,-592.73 0,-515 0,-515 0,-515 0,-457 0,-375.56 51.82,-288.38 75.93,-252.23"/>
<polygon fill="midnightblue" stroke="midnightblue" points="78.93,-254.04 81.67,-243.8 73.15,-250.09 78.93,-254.04"/>
</g>
<!-- Node4 -->
<g id="node4" class="node">
<title>Node4</title>
<g id="a_node4"><a xlink:href="../../d3/d5b/anti_virus_8h.html" target="_top" xlink:title=" ">
<polygon fill="none" stroke="black" points="623.5,-560.5 623.5,-579.5 686.5,-579.5 686.5,-560.5 623.5,-560.5"/>
<text text-anchor="middle" x="655" y="-567.5" font-family="Helvetica,sans-Serif" font-size="10.00">antiVirus.h</text>
</a>
</g>
</g>
<!-- Node1&#45;&gt;Node4 -->
<g id="edge3" class="edge">
<title>Node1&#45;&gt;Node4</title>
<path fill="none" stroke="midnightblue" d="M800.74,-616.4C767.59,-606.07 723.15,-592.23 692.1,-582.56"/>
<polygon fill="midnightblue" stroke="midnightblue" points="693.1,-579.2 682.51,-579.57 691.02,-585.89 693.1,-579.2"/>
</g>
<!-- Node27 -->
<g id="node27" class="node">
<title>Node27</title>
<g id="a_node27"><a xlink:href="../../d2/d02/visualization_8h.html" target="_top" xlink:title=" ">
<polygon fill="none" stroke="black" points="807.5,-504.5 807.5,-523.5 884.5,-523.5 884.5,-504.5 807.5,-504.5"/>
<text text-anchor="middle" x="846" y="-511.5" font-family="Helvetica,sans-Serif" font-size="10.00">visualization.h</text>
</a>
</g>
</g>
<!-- Node1&#45;&gt;Node27 -->
<g id="edge62" class="edge">
<title>Node1&#45;&gt;Node27</title>
<path fill="none" stroke="midnightblue" d="M846,-616.34C846,-595.62 846,-557.02 846,-533.9"/>
<polygon fill="midnightblue" stroke="midnightblue" points="849.5,-533.67 846,-523.67 842.5,-533.67 849.5,-533.67"/>
</g>
<!-- Node34 -->
<g id="node34" class="node">
<title>Node34</title>
<g id="a_node34"><a xlink:title=" ">
<polygon fill="none" stroke="#bfbfbf" points="941.5,-560.5 941.5,-579.5 990.5,-579.5 990.5,-560.5 941.5,-560.5"/>
<text text-anchor="middle" x="966" y="-567.5" font-family="Helvetica,sans-Serif" font-size="10.00">fstream</text>
</a>
</g>
</g>
<!-- Node1&#45;&gt;Node34 -->
<g id="edge74" class="edge">
<title>Node1&#45;&gt;Node34</title>
<path fill="none" stroke="midnightblue" d="M874.44,-616.4C894.12,-606.64 920.14,-593.74 939.41,-584.18"/>
<polygon fill="midnightblue" stroke="midnightblue" points="941.13,-587.24 948.54,-579.66 938.02,-580.96 941.13,-587.24"/>
</g>
<!-- Node5 -->
<g id="node5" class="node">
<title>Node5</title>
<g id="a_node5"><a xlink:title=" ">
<polygon fill="none" stroke="#bfbfbf" points="710,-56.5 710,-75.5 752,-75.5 752,-56.5 710,-56.5"/>
<text text-anchor="middle" x="731" y="-63.5" font-family="Helvetica,sans-Serif" font-size="10.00">vector</text>
</a>
</g>
</g>
<!-- Node4&#45;&gt;Node5 -->
<g id="edge4" class="edge">
<title>Node4&#45;&gt;Node5</title>
<path fill="none" stroke="midnightblue" d="M670.07,-560.43C683.49,-552.28 703.1,-539.05 717,-524 815.92,-416.87 848.53,-384.37 888,-244 899.34,-203.69 913.54,-161.12 872,-112 844.95,-80 795.15,-70.51 762.56,-67.84"/>
<polygon fill="midnightblue" stroke="midnightblue" points="762.43,-64.32 752.22,-67.17 761.98,-71.3 762.43,-64.32"/>
</g>
<!-- Node6 -->
<g id="node6" class="node">
<title>Node6</title>
<g id="a_node6"><a xlink:title=" ">
<polygon fill="none" stroke="#bfbfbf" points="203.5,-56.5 203.5,-75.5 262.5,-75.5 262.5,-56.5 203.5,-56.5"/>
<text text-anchor="middle" x="233" y="-63.5" font-family="Helvetica,sans-Serif" font-size="10.00">stdexcept</text>
</a>
</g>
</g>
<!-- Node4&#45;&gt;Node6 -->
<g id="edge5" class="edge">
<title>Node4&#45;&gt;Node6</title>
<path fill="none" stroke="midnightblue" d="M623.41,-562.85C492.57,-536.48 0,-428.12 0,-291 0,-291 0,-291 0,-177 0,-92.5 126.86,-72.81 193.36,-68.29"/>
<polygon fill="midnightblue" stroke="midnightblue" points="193.72,-71.78 203.49,-67.69 193.3,-64.79 193.72,-71.78"/>
</g>
<!-- Node7 -->
<g id="node7" class="node">
<title>Node7</title>
<g id="a_node7"><a xlink:href="../../da/d15/grid_8h.html" target="_top" xlink:title=" ">
<polygon fill="none" stroke="black" points="549.5,-224.5 549.5,-243.5 590.5,-243.5 590.5,-224.5 549.5,-224.5"/>
<text text-anchor="middle" x="570" y="-231.5" font-family="Helvetica,sans-Serif" font-size="10.00">grid.h</text>
</a>
</g>
</g>
<!-- Node4&#45;&gt;Node7 -->
<g id="edge6" class="edge">
<title>Node4&#45;&gt;Node7</title>
<path fill="none" stroke="midnightblue" d="M658.91,-560.36C666.83,-542.07 684,-497.91 684,-459 684,-459 684,-459 684,-401 684,-335.21 622.4,-276.44 589.76,-249.92"/>
<polygon fill="midnightblue" stroke="midnightblue" points="591.79,-247.06 581.77,-243.61 587.44,-252.55 591.79,-247.06"/>
</g>
<!-- Node15 -->
<g id="node15" class="node">
<title>Node15</title>
<g id="a_node15"><a xlink:href="../../dc/d5f/country_8h.html" target="_top" xlink:title=" ">
<polygon fill="none" stroke="black" points="636.5,-168.5 636.5,-187.5 693.5,-187.5 693.5,-168.5 636.5,-168.5"/>
<text text-anchor="middle" x="665" y="-175.5" font-family="Helvetica,sans-Serif" font-size="10.00">country.h</text>
</a>
</g>
</g>
<!-- Node4&#45;&gt;Node15 -->
<g id="edge32" class="edge">
<title>Node4&#45;&gt;Node15</title>
<path fill="none" stroke="midnightblue" d="M664.89,-560.4C683.52,-543.18 722,-502.38 722,-459 722,-459 722,-459 722,-289 722,-252.3 696.68,-215.66 679.79,-195.3"/>
<polygon fill="midnightblue" stroke="midnightblue" points="682.35,-192.9 673.17,-187.62 677.05,-197.48 682.35,-192.9"/>
</g>
<!-- Node20 -->
<g id="node20" class="node">
<title>Node20</title>
<g id="a_node20"><a xlink:href="../../d3/daa/logic_8h.html" target="_top" xlink:title=" ">
<polygon fill="none" stroke="black" points="334.5,-280.5 334.5,-299.5 379.5,-299.5 379.5,-280.5 334.5,-280.5"/>
<text text-anchor="middle" x="357" y="-287.5" font-family="Helvetica,sans-Serif" font-size="10.00">logic.h</text>
</a>
</g>
</g>
<!-- Node4&#45;&gt;Node20 -->
<g id="edge33" class="edge">
<title>Node4&#45;&gt;Node20</title>
<path fill="none" stroke="midnightblue" d="M623.24,-565.62C567.98,-557.8 460,-533.05 460,-459 460,-459 460,-459 460,-401 460,-356.43 414.38,-322.46 383.86,-304.73"/>
<polygon fill="midnightblue" stroke="midnightblue" points="385.38,-301.57 374.94,-299.75 381.97,-307.68 385.38,-301.57"/>
</g>
<!-- Node21 -->
<g id="node21" class="node">
<title>Node21</title>
<g id="a_node21"><a xlink:href="../../d7/d04/graphics_8h.html" target="_top" xlink:title=" ">
<polygon fill="none" stroke="black" points="516,-504.5 516,-523.5 578,-523.5 578,-504.5 516,-504.5"/>
<text text-anchor="middle" x="547" y="-511.5" font-family="Helvetica,sans-Serif" font-size="10.00">graphics.h</text>
</a>
</g>
</g>
<!-- Node4&#45;&gt;Node21 -->
<g id="edge42" class="edge">
<title>Node4&#45;&gt;Node21</title>
<path fill="none" stroke="midnightblue" d="M637.65,-560.32C620.33,-551.66 593.48,-538.24 573.5,-528.25"/>
<polygon fill="midnightblue" stroke="midnightblue" points="574.82,-525 564.31,-523.65 571.69,-531.26 574.82,-525"/>
</g>
<!-- Node26 -->
<g id="node26" class="node">
<title>Node26</title>
<g id="a_node26"><a xlink:href="../../d2/d5e/protocol_8h.html" target="_top" xlink:title=" ">
<polygon fill="none" stroke="black" points="596.5,-504.5 596.5,-523.5 655.5,-523.5 655.5,-504.5 596.5,-504.5"/>
<text text-anchor="middle" x="626" y="-511.5" font-family="Helvetica,sans-Serif" font-size="10.00">protocol.h</text>
</a>
</g>
</g>
<!-- Node4&#45;&gt;Node26 -->
<g id="edge59" class="edge">
<title>Node4&#45;&gt;Node26</title>
<path fill="none" stroke="midnightblue" d="M650.21,-560.08C646.24,-552.69 640.47,-541.95 635.57,-532.81"/>
<polygon fill="midnightblue" stroke="midnightblue" points="638.51,-530.91 630.7,-523.75 632.35,-534.22 638.51,-530.91"/>
</g>
<!-- Node7&#45;&gt;Node5 -->
<g id="edge7" class="edge">
<title>Node7&#45;&gt;Node5</title>
<path fill="none" stroke="midnightblue" d="M590.91,-232.01C620.35,-229.46 673.71,-220.34 703,-188 728.85,-159.46 732.26,-111.86 731.96,-85.68"/>
<polygon fill="midnightblue" stroke="midnightblue" points="735.45,-85.48 731.64,-75.59 728.46,-85.7 735.45,-85.48"/>
</g>
<!-- Node7&#45;&gt;Node6 -->
<g id="edge8" class="edge">
<title>Node7&#45;&gt;Node6</title>
<path fill="none" stroke="midnightblue" d="M549.31,-230.4C515.46,-225.57 446.75,-213.31 394,-188 335.43,-159.9 277.08,-108.86 249.48,-82.97"/>
<polygon fill="midnightblue" stroke="midnightblue" points="251.59,-80.15 241.93,-75.8 246.77,-85.23 251.59,-80.15"/>
</g>
<!-- Node8 -->
<g id="node8" class="node">
<title>Node8</title>
<g id="a_node8"><a xlink:href="../../d5/d5a/field_8h.html" target="_top" xlink:title=" ">
<polygon fill="none" stroke="black" points="297,-56.5 297,-75.5 339,-75.5 339,-56.5 297,-56.5"/>
<text text-anchor="middle" x="318" y="-63.5" font-family="Helvetica,sans-Serif" font-size="10.00">field.h</text>
</a>
</g>
</g>
<!-- Node7&#45;&gt;Node8 -->
<g id="edge9" class="edge">
<title>Node7&#45;&gt;Node8</title>
<path fill="none" stroke="midnightblue" d="M549.18,-228.78C506.32,-219.09 407.44,-191.34 350,-132 337.17,-118.75 328.54,-99.35 323.51,-85.2"/>
<polygon fill="midnightblue" stroke="midnightblue" points="326.8,-83.99 320.35,-75.59 320.15,-86.18 326.8,-83.99"/>
</g>
<!-- Node13 -->
<g id="node13" class="node">
<title>Node13</title>
<g id="a_node13"><a xlink:href="../../d5/d60/utils_8h.html" target="_top" xlink:title=" ">
<polygon fill="none" stroke="black" points="359.5,-112.5 359.5,-131.5 402.5,-131.5 402.5,-112.5 359.5,-112.5"/>
<text text-anchor="middle" x="381" y="-119.5" font-family="Helvetica,sans-Serif" font-size="10.00">utils.h</text>
</a>
</g>
</g>
<!-- Node7&#45;&gt;Node13 -->
<g id="edge14" class="edge">
<title>Node7&#45;&gt;Node13</title>
<path fill="none" stroke="midnightblue" d="M555.17,-224.37C522.46,-205.33 443.91,-159.62 404.45,-136.65"/>
<polygon fill="midnightblue" stroke="midnightblue" points="406.16,-133.6 395.76,-131.59 402.64,-139.65 406.16,-133.6"/>
</g>
<!-- Node7&#45;&gt;Node15 -->
<g id="edge18" class="edge">
<title>Node7&#45;&gt;Node15</title>
<path fill="none" stroke="midnightblue" d="M585.26,-224.32C600.22,-215.82 623.25,-202.73 640.73,-192.8"/>
<polygon fill="midnightblue" stroke="midnightblue" points="642.81,-195.64 649.77,-187.65 639.35,-189.55 642.81,-195.64"/>
</g>
<!-- Node18 -->
<g id="node18" class="node">
<title>Node18</title>
<g id="a_node18"><a xlink:href="../../dd/dae/district_8h.html" target="_top" xlink:title=" ">
<polygon fill="none" stroke="black" points="535,-112.5 535,-131.5 589,-131.5 589,-112.5 535,-112.5"/>
<text text-anchor="middle" x="562" y="-119.5" font-family="Helvetica,sans-Serif" font-size="10.00">district.h</text>
</a>
</g>
</g>
<!-- Node7&#45;&gt;Node18 -->
<g id="edge30" class="edge">
<title>Node7&#45;&gt;Node18</title>
<path fill="none" stroke="midnightblue" d="M574.4,-224.15C580.05,-211.62 588.63,-188.02 584,-168 581.77,-158.36 577.18,-148.41 572.76,-140.31"/>
<polygon fill="midnightblue" stroke="midnightblue" points="575.7,-138.4 567.64,-131.52 569.65,-141.92 575.7,-138.4"/>
</g>
<!-- Node19 -->
<g id="node19" class="node">
<title>Node19</title>
<g id="a_node19"><a xlink:title=" ">
<polygon fill="none" stroke="#bfbfbf" points="479,-56.5 479,-75.5 535,-75.5 535,-56.5 479,-56.5"/>
<text text-anchor="middle" x="507" y="-63.5" font-family="Helvetica,sans-Serif" font-size="10.00">algorithm</text>
</a>
</g>
</g>
<!-- Node7&#45;&gt;Node19 -->
<g id="edge31" class="edge">
<title>Node7&#45;&gt;Node19</title>
<path fill="none" stroke="midnightblue" d="M565.73,-224.24C557.39,-206.9 538.64,-166.89 526,-132 520.37,-116.46 515.19,-98.38 511.67,-85.24"/>
<polygon fill="midnightblue" stroke="midnightblue" points="515.04,-84.31 509.12,-75.52 508.27,-86.08 515.04,-84.31"/>
</g>
<!-- Node9 -->
<g id="node9" class="node">
<title>Node9</title>
<g id="a_node9"><a xlink:title=" ">
<polygon fill="none" stroke="#bfbfbf" points="355.5,-0.5 355.5,-19.5 390.5,-19.5 390.5,-0.5 355.5,-0.5"/>
<text text-anchor="middle" x="373" y="-7.5" font-family="Helvetica,sans-Serif" font-size="10.00">map</text>
</a>
</g>
</g>
<!-- Node8&#45;&gt;Node9 -->
<g id="edge10" class="edge">
<title>Node8&#45;&gt;Node9</title>
<path fill="none" stroke="midnightblue" d="M327.08,-56.08C335.17,-48.14 347.2,-36.34 356.91,-26.8"/>
<polygon fill="midnightblue" stroke="midnightblue" points="359.4,-29.25 364.09,-19.75 354.5,-24.26 359.4,-29.25"/>
</g>
<!-- Node10 -->
<g id="node10" class="node">
<title>Node10</title>
<g id="a_node10"><a xlink:title=" ">
<polygon fill="none" stroke="#bfbfbf" points="223.5,-0.5 223.5,-19.5 266.5,-19.5 266.5,-0.5 223.5,-0.5"/>
<text text-anchor="middle" x="245" y="-7.5" font-family="Helvetica,sans-Serif" font-size="10.00">queue</text>
</a>
</g>
</g>
<!-- Node8&#45;&gt;Node10 -->
<g id="edge11" class="edge">
<title>Node8&#45;&gt;Node10</title>
<path fill="none" stroke="midnightblue" d="M306.27,-56.32C295.16,-48.11 278.26,-35.6 265.02,-25.81"/>
<polygon fill="midnightblue" stroke="midnightblue" points="267.06,-22.97 256.94,-19.83 262.9,-28.59 267.06,-22.97"/>
</g>
<!-- Node11 -->
<g id="node11" class="node">
<title>Node11</title>
<g id="a_node11"><a xlink:title=" ">
<polygon fill="none" stroke="#bfbfbf" points="285,-0.5 285,-19.5 337,-19.5 337,-0.5 285,-0.5"/>
<text text-anchor="middle" x="311" y="-7.5" font-family="Helvetica,sans-Serif" font-size="10.00">sstream</text>
</a>
</g>
</g>
<!-- Node8&#45;&gt;Node11 -->
<g id="edge12" class="edge">
<title>Node8&#45;&gt;Node11</title>
<path fill="none" stroke="midnightblue" d="M316.84,-56.08C315.92,-48.93 314.58,-38.64 313.42,-29.69"/>
<polygon fill="midnightblue" stroke="midnightblue" points="316.89,-29.22 312.13,-19.75 309.95,-30.12 316.89,-29.22"/>
</g>
<!-- Node12 -->
<g id="node12" class="node">
<title>Node12</title>
<g id="a_node12"><a xlink:title=" ">
<polygon fill="none" stroke="#bfbfbf" points="409,-0.5 409,-19.5 453,-19.5 453,-0.5 409,-0.5"/>
<text text-anchor="middle" x="431" y="-7.5" font-family="Helvetica,sans-Serif" font-size="10.00">cmath</text>
</a>
</g>
</g>
<!-- Node8&#45;&gt;Node12 -->
<g id="edge13" class="edge">
<title>Node8&#45;&gt;Node12</title>
<path fill="none" stroke="midnightblue" d="M335.91,-56.44C354.25,-47.68 383.01,-33.94 404.09,-23.86"/>
<polygon fill="midnightblue" stroke="midnightblue" points="405.67,-26.99 413.18,-19.52 402.65,-20.67 405.67,-26.99"/>
</g>
<!-- Node13&#45;&gt;Node5 -->
<g id="edge17" class="edge">
<title>Node13&#45;&gt;Node5</title>
<path fill="none" stroke="midnightblue" d="M402.87,-117.94C452.43,-110.97 577.07,-93.14 681,-76 687.02,-75.01 693.44,-73.89 699.6,-72.8"/>
<polygon fill="midnightblue" stroke="midnightblue" points="700.39,-76.21 709.61,-70.99 699.15,-69.32 700.39,-76.21"/>
</g>
<!-- Node13&#45;&gt;Node6 -->
<g id="edge15" class="edge">
<title>Node13&#45;&gt;Node6</title>
<path fill="none" stroke="midnightblue" d="M359.48,-113.15C334.95,-104.2 294.58,-89.47 266.05,-79.06"/>
<polygon fill="midnightblue" stroke="midnightblue" points="267.1,-75.72 256.5,-75.58 264.7,-82.29 267.1,-75.72"/>
</g>
<!-- Node14 -->
<g id="node14" class="node">
<title>Node14</title>
<g id="a_node14"><a xlink:title=" ">
<polygon fill="none" stroke="#bfbfbf" points="357.5,-56.5 357.5,-75.5 402.5,-75.5 402.5,-56.5 357.5,-56.5"/>
<text text-anchor="middle" x="380" y="-63.5" font-family="Helvetica,sans-Serif" font-size="10.00">climits</text>
</a>
</g>
</g>
<!-- Node13&#45;&gt;Node14 -->
<g id="edge16" class="edge">
<title>Node13&#45;&gt;Node14</title>
<path fill="none" stroke="midnightblue" d="M380.83,-112.08C380.7,-105.01 380.52,-94.86 380.35,-85.99"/>
<polygon fill="midnightblue" stroke="midnightblue" points="383.85,-85.68 380.16,-75.75 376.85,-85.81 383.85,-85.68"/>
</g>
<!-- Node15&#45;&gt;Node2 -->
<g id="edge20" class="edge">
<title>Node15&#45;&gt;Node2</title>
<path fill="none" stroke="midnightblue" d="M692.1,-168.44C720.99,-159.32 766.92,-144.81 799.11,-134.65"/>
<polygon fill="midnightblue" stroke="midnightblue" points="800.55,-137.87 809.03,-131.52 798.44,-131.19 800.55,-137.87"/>
</g>
<!-- Node15&#45;&gt;Node5 -->
<g id="edge19" class="edge">
<title>Node15&#45;&gt;Node5</title>
<path fill="none" stroke="midnightblue" d="M670.18,-168.37C681.02,-150.3 706.29,-108.18 720.62,-84.31"/>
<polygon fill="midnightblue" stroke="midnightblue" points="723.7,-85.97 725.85,-75.59 717.7,-82.37 723.7,-85.97"/>
</g>
<!-- Node15&#45;&gt;Node13 -->
<g id="edge23" class="edge">
<title>Node15&#45;&gt;Node13</title>
<path fill="none" stroke="midnightblue" d="M636.47,-171.58C583.08,-161.42 468.46,-139.63 412.73,-129.03"/>
<polygon fill="midnightblue" stroke="midnightblue" points="413.2,-125.56 402.72,-127.13 411.89,-132.44 413.2,-125.56"/>
</g>
<!-- Node16 -->
<g id="node16" class="node">
<title>Node16</title>
<g id="a_node16"><a xlink:title=" ">
<polygon fill="none" stroke="#bfbfbf" points="560,-56.5 560,-75.5 590,-75.5 590,-56.5 560,-56.5"/>
<text text-anchor="middle" x="575" y="-63.5" font-family="Helvetica,sans-Serif" font-size="10.00">set</text>
</a>
</g>
</g>
<!-- Node15&#45;&gt;Node16 -->
<g id="edge21" class="edge">
<title>Node15&#45;&gt;Node16</title>
<path fill="none" stroke="midnightblue" d="M657.94,-168.37C642.95,-150.05 607.77,-107.05 588.39,-83.36"/>
<polygon fill="midnightblue" stroke="midnightblue" points="591.07,-81.11 582.03,-75.59 585.65,-85.55 591.07,-81.11"/>
</g>
<!-- Node17 -->
<g id="node17" class="node">
<title>Node17</title>
<g id="a_node17"><a xlink:title=" ">
<polygon fill="none" stroke="#bfbfbf" points="614,-56.5 614,-75.5 672,-75.5 672,-56.5 614,-56.5"/>
<text text-anchor="middle" x="643" y="-63.5" font-family="Helvetica,sans-Serif" font-size="10.00">functional</text>
</a>
</g>
</g>
<!-- Node15&#45;&gt;Node17 -->
<g id="edge22" class="edge">
<title>Node15&#45;&gt;Node17</title>
<path fill="none" stroke="midnightblue" d="M663.27,-168.37C659.72,-150.62 651.53,-109.67 646.72,-85.6"/>
<polygon fill="midnightblue" stroke="midnightblue" points="650.11,-84.71 644.72,-75.59 643.25,-86.08 650.11,-84.71"/>
</g>
<!-- Node15&#45;&gt;Node18 -->
<g id="edge24" class="edge">
<title>Node15&#45;&gt;Node18</title>
<path fill="none" stroke="midnightblue" d="M648.45,-168.32C632.01,-159.7 606.57,-146.36 587.53,-136.39"/>
<polygon fill="midnightblue" stroke="midnightblue" points="588.99,-133.2 578.51,-131.65 585.74,-139.4 588.99,-133.2"/>
</g>
<!-- Node18&#45;&gt;Node5 -->
<g id="edge25" class="edge">
<title>Node18&#45;&gt;Node5</title>
<path fill="none" stroke="midnightblue" d="M588.78,-112.44C619.1,-102.76 668.41,-87 700.27,-76.82"/>
<polygon fill="midnightblue" stroke="midnightblue" points="701.49,-80.1 709.95,-73.73 699.36,-73.43 701.49,-80.1"/>
</g>
<!-- Node18&#45;&gt;Node8 -->
<g id="edge26" class="edge">
<title>Node18&#45;&gt;Node8</title>
<path fill="none" stroke="midnightblue" d="M534.81,-116.04C495.75,-108.76 421.34,-94.27 348.98,-76.09"/>
<polygon fill="midnightblue" stroke="midnightblue" points="349.8,-72.68 339.24,-73.61 348.07,-79.47 349.8,-72.68"/>
</g>
<!-- Node18&#45;&gt;Node16 -->
<g id="edge28" class="edge">
<title>Node18&#45;&gt;Node16</title>
<path fill="none" stroke="midnightblue" d="M564.15,-112.08C565.87,-104.93 568.35,-94.64 570.5,-85.69"/>
<polygon fill="midnightblue" stroke="midnightblue" points="573.96,-86.29 572.89,-75.75 567.15,-84.65 573.96,-86.29"/>
</g>
<!-- Node18&#45;&gt;Node17 -->
<g id="edge29" class="edge">
<title>Node18&#45;&gt;Node17</title>
<path fill="none" stroke="midnightblue" d="M575.01,-112.32C587.53,-103.98 606.68,-91.21 621.47,-81.35"/>
<polygon fill="midnightblue" stroke="midnightblue" points="623.64,-84.11 630.02,-75.65 619.76,-78.29 623.64,-84.11"/>
</g>
<!-- Node18&#45;&gt;Node19 -->
<g id="edge27" class="edge">
<title>Node18&#45;&gt;Node19</title>
<path fill="none" stroke="midnightblue" d="M552.92,-112.08C544.83,-104.14 532.8,-92.34 523.09,-82.8"/>
<polygon fill="midnightblue" stroke="midnightblue" points="525.5,-80.26 515.91,-75.75 520.6,-85.25 525.5,-80.26"/>
</g>
<!-- Node20&#45;&gt;Node2 -->
<g id="edge40" class="edge">
<title>Node20&#45;&gt;Node2</title>
<path fill="none" stroke="midnightblue" d="M379.96,-287.47C446.72,-282.78 639.71,-267.49 698,-244 753.47,-221.64 801.78,-167.03 823.61,-139.47"/>
<polygon fill="midnightblue" stroke="midnightblue" points="826.39,-141.6 829.75,-131.55 820.86,-137.32 826.39,-141.6"/>
</g>
<!-- Node20&#45;&gt;Node3 -->
<g id="edge39" class="edge">
<title>Node20&#45;&gt;Node3</title>
<path fill="none" stroke="midnightblue" d="M334.07,-284.4C286.94,-274.94 178.95,-253.26 123.02,-242.03"/>
<polygon fill="midnightblue" stroke="midnightblue" points="123.7,-238.6 113.21,-240.06 122.32,-245.46 123.7,-238.6"/>
</g>
<!-- Node20&#45;&gt;Node5 -->
<g id="edge35" class="edge">
<title>Node20&#45;&gt;Node5</title>
<path fill="none" stroke="midnightblue" d="M379.79,-286.61C423.23,-281.66 520.51,-268.63 599,-244 656.7,-225.9 682.01,-232.46 723,-188 746.68,-162.32 747.54,-146.63 743,-112 741.84,-103.18 739.47,-93.63 737.13,-85.61"/>
<polygon fill="midnightblue" stroke="midnightblue" points="740.4,-84.34 734.09,-75.83 733.71,-86.42 740.4,-84.34"/>
</g>
<!-- Node20&#45;&gt;Node6 -->
<g id="edge36" class="edge">
<title>Node20&#45;&gt;Node6</title>
<path fill="none" stroke="midnightblue" d="M352.14,-280.3C333.74,-247.36 268.13,-129.9 242.95,-84.81"/>
<polygon fill="midnightblue" stroke="midnightblue" points="245.89,-82.91 237.96,-75.88 239.78,-86.32 245.89,-82.91"/>
</g>
<!-- Node20&#45;&gt;Node7 -->
<g id="edge38" class="edge">
<title>Node20&#45;&gt;Node7</title>
<path fill="none" stroke="midnightblue" d="M379.79,-283.22C418.26,-273.47 496.09,-253.74 539.32,-242.78"/>
<polygon fill="midnightblue" stroke="midnightblue" points="540.43,-246.11 549.26,-240.26 538.71,-239.32 540.43,-246.11"/>
</g>
<!-- Node20&#45;&gt;Node12 -->
<g id="edge37" class="edge">
<title>Node20&#45;&gt;Node12</title>
<path fill="none" stroke="midnightblue" d="M360.57,-280.3C370.1,-256.79 396.38,-189.85 411,-132 420.01,-96.34 425.97,-53.72 428.89,-29.76"/>
<polygon fill="midnightblue" stroke="midnightblue" points="432.39,-29.95 430.08,-19.61 425.44,-29.13 432.39,-29.95"/>
</g>
<!-- Node20&#45;&gt;Node13 -->
<g id="edge41" class="edge">
<title>Node20&#45;&gt;Node13</title>
<path fill="none" stroke="midnightblue" d="M356.91,-280.39C356.87,-260.43 357.67,-209.51 366,-168 367.8,-159.02 370.87,-149.34 373.76,-141.28"/>
<polygon fill="midnightblue" stroke="midnightblue" points="377.09,-142.38 377.35,-131.79 370.54,-139.91 377.09,-142.38"/>
</g>
<!-- Node20&#45;&gt;Node19 -->
<g id="edge34" class="edge">
<title>Node20&#45;&gt;Node19</title>
<path fill="none" stroke="midnightblue" d="M364.69,-280.29C372.41,-271.4 384.49,-257.09 394,-244 434.97,-187.59 477.78,-116.7 496.82,-84.43"/>
<polygon fill="midnightblue" stroke="midnightblue" points="499.9,-86.11 501.94,-75.72 493.86,-82.57 499.9,-86.11"/>
</g>
<!-- Node22 -->
<g id="node22" class="node">
<title>Node22</title>
<g id="a_node22"><a xlink:href="../../db/db2/iface_8h.html" target="_top" xlink:title=" ">
<polygon fill="none" stroke="black" points="526.5,-448.5 526.5,-467.5 571.5,-467.5 571.5,-448.5 526.5,-448.5"/>
<text text-anchor="middle" x="549" y="-455.5" font-family="Helvetica,sans-Serif" font-size="10.00">iface.h</text>
</a>
</g>
</g>
<!-- Node21&#45;&gt;Node22 -->
<g id="edge43" class="edge">
<title>Node21&#45;&gt;Node22</title>
<path fill="none" stroke="midnightblue" d="M547.33,-504.08C547.59,-497.01 547.97,-486.86 548.3,-477.99"/>
<polygon fill="midnightblue" stroke="midnightblue" points="551.8,-477.87 548.68,-467.75 544.81,-477.61 551.8,-477.87"/>
</g>
<!-- Node22&#45;&gt;Node3 -->
<g id="edge58" class="edge">
<title>Node22&#45;&gt;Node3</title>
<path fill="none" stroke="midnightblue" d="M526.39,-454.53C446.7,-445.41 180.43,-411.28 118,-356 88.79,-330.14 85.84,-280.71 86.65,-253.72"/>
<polygon fill="midnightblue" stroke="midnightblue" points="90.15,-253.83 87.17,-243.66 83.16,-253.47 90.15,-253.83"/>
</g>
<!-- Node22&#45;&gt;Node7 -->
<g id="edge44" class="edge">
<title>Node22&#45;&gt;Node7</title>
<path fill="none" stroke="midnightblue" d="M558.56,-448.45C567.09,-440.12 578.99,-426.6 584,-412 602.96,-356.73 586.17,-286.26 576.17,-253.4"/>
<polygon fill="midnightblue" stroke="midnightblue" points="579.47,-252.25 573.1,-243.78 572.8,-254.37 579.47,-252.25"/>
</g>
<!-- Node22&#45;&gt;Node20 -->
<g id="edge46" class="edge">
<title>Node22&#45;&gt;Node20</title>
<path fill="none" stroke="midnightblue" d="M542.35,-448.22C535.67,-439.28 525.23,-424.94 517,-412 496.17,-379.25 503.39,-361.34 474,-336 449.81,-315.14 414.9,-303.41 389.51,-297.19"/>
<polygon fill="midnightblue" stroke="midnightblue" points="390.14,-293.75 379.61,-294.93 388.58,-300.57 390.14,-293.75"/>
</g>
<!-- Node22&#45;&gt;Node22 -->
<g id="edge45" class="edge">
<title>Node22&#45;&gt;Node22</title>
<path fill="none" stroke="midnightblue" d="M566.48,-467.57C578.15,-470.27 589.5,-467.08 589.5,-458 589.5,-451.62 583.89,-448.14 576.5,-447.58"/>
<polygon fill="midnightblue" stroke="midnightblue" points="576.15,-444.1 566.48,-448.43 576.74,-451.07 576.15,-444.1"/>
</g>
<!-- Node23 -->
<g id="node23" class="node">
<title>Node23</title>
<g id="a_node23"><a xlink:href="../../d1/df3/ai_8h.html" target="_top" xlink:title=" ">
<polygon fill="none" stroke="black" points="309,-392.5 309,-411.5 341,-411.5 341,-392.5 309,-392.5"/>
<text text-anchor="middle" x="325" y="-399.5" font-family="Helvetica,sans-Serif" font-size="10.00">ai.h</text>
</a>
</g>
</g>
<!-- Node22&#45;&gt;Node23 -->
<g id="edge47" class="edge">
<title>Node22&#45;&gt;Node23</title>
<path fill="none" stroke="midnightblue" d="M526.29,-451.53C484.47,-441.44 395.52,-420 351.21,-409.32"/>
<polygon fill="midnightblue" stroke="midnightblue" points="351.75,-405.85 341.21,-406.91 350.11,-412.65 351.75,-405.85"/>
</g>
<!-- Node25 -->
<g id="node25" class="node">
<title>Node25</title>
<g id="a_node25"><a xlink:title=" ">
<polygon fill="none" stroke="#bfbfbf" points="526.5,-392.5 526.5,-411.5 575.5,-411.5 575.5,-392.5 526.5,-392.5"/>
<text text-anchor="middle" x="551" y="-399.5" font-family="Helvetica,sans-Serif" font-size="10.00">ctype.h</text>
</a>
</g>
</g>
<!-- Node22&#45;&gt;Node25 -->
<g id="edge57" class="edge">
<title>Node22&#45;&gt;Node25</title>
<path fill="none" stroke="midnightblue" d="M549.33,-448.08C549.59,-441.01 549.97,-430.86 550.3,-421.99"/>
<polygon fill="midnightblue" stroke="midnightblue" points="553.8,-421.87 550.68,-411.75 546.81,-421.61 553.8,-421.87"/>
</g>
<!-- Node23&#45;&gt;Node3 -->
<g id="edge56" class="edge">
<title>Node23&#45;&gt;Node3</title>
<path fill="none" stroke="midnightblue" d="M308.83,-401.72C273.49,-402.43 188.5,-399.19 138,-356 106.86,-329.37 94.79,-280.25 90.36,-253.52"/>
<polygon fill="midnightblue" stroke="midnightblue" points="93.82,-252.95 88.9,-243.56 86.89,-253.96 93.82,-252.95"/>
</g>
<!-- Node23&#45;&gt;Node7 -->
<g id="edge48" class="edge">
<title>Node23&#45;&gt;Node7</title>
<path fill="none" stroke="midnightblue" d="M337.83,-392.31C377.68,-365.3 499.65,-282.67 548.97,-249.25"/>
<polygon fill="midnightblue" stroke="midnightblue" points="550.98,-252.11 557.3,-243.61 547.06,-246.32 550.98,-252.11"/>
</g>
<!-- Node23&#45;&gt;Node13 -->
<g id="edge50" class="edge">
<title>Node23&#45;&gt;Node13</title>
<path fill="none" stroke="midnightblue" d="M308.88,-396.8C290.41,-391.04 261.02,-378.7 248,-356 243.58,-348.29 245.64,-344.57 248,-336 270.6,-253.85 336.21,-172.99 365.99,-139.33"/>
<polygon fill="midnightblue" stroke="midnightblue" points="368.66,-141.59 372.74,-131.82 363.45,-136.92 368.66,-141.59"/>
</g>
<!-- Node23&#45;&gt;Node20 -->
<g id="edge49" class="edge">
<title>Node23&#45;&gt;Node20</title>
<path fill="none" stroke="midnightblue" d="M327.51,-392.37C332.7,-374.54 344.7,-333.3 351.68,-309.27"/>
<polygon fill="midnightblue" stroke="midnightblue" points="355.07,-310.17 354.5,-299.59 348.35,-308.22 355.07,-310.17"/>
</g>
<!-- Node24 -->
<g id="node24" class="node">
<title>Node24</title>
<g id="a_node24"><a xlink:href="../../d2/d3d/graphalgos_8h.html" target="_top" xlink:title=" ">
<polygon fill="none" stroke="black" points="257,-336.5 257,-355.5 329,-355.5 329,-336.5 257,-336.5"/>
<text text-anchor="middle" x="293" y="-343.5" font-family="Helvetica,sans-Serif" font-size="10.00">graphalgos.h</text>
</a>
</g>
</g>
<!-- Node23&#45;&gt;Node24 -->
<g id="edge51" class="edge">
<title>Node23&#45;&gt;Node24</title>
<path fill="none" stroke="midnightblue" d="M319.72,-392.08C315.29,-384.61 308.84,-373.72 303.38,-364.52"/>
<polygon fill="midnightblue" stroke="midnightblue" points="306.29,-362.57 298.19,-355.75 300.27,-366.14 306.29,-362.57"/>
</g>
<!-- Node24&#45;&gt;Node7 -->
<g id="edge54" class="edge">
<title>Node24&#45;&gt;Node7</title>
<path fill="none" stroke="midnightblue" d="M311.13,-336.37C345.97,-319.81 419.95,-284.76 432,-280 468.32,-265.65 511.24,-252.18 539.45,-243.79"/>
<polygon fill="midnightblue" stroke="midnightblue" points="540.54,-247.12 549.15,-240.93 538.56,-240.4 540.54,-247.12"/>
</g>
<!-- Node24&#45;&gt;Node8 -->
<g id="edge53" class="edge">
<title>Node24&#45;&gt;Node8</title>
<path fill="none" stroke="midnightblue" d="M293.78,-336.38C297.25,-297.78 311.39,-140.45 316.31,-85.81"/>
<polygon fill="midnightblue" stroke="midnightblue" points="319.82,-85.8 317.23,-75.52 312.85,-85.17 319.82,-85.8"/>
</g>
<!-- Node24&#45;&gt;Node13 -->
<g id="edge52" class="edge">
<title>Node24&#45;&gt;Node13</title>
<path fill="none" stroke="midnightblue" d="M295.87,-336.41C304.56,-310.59 331.68,-231.58 359,-168 362.95,-158.8 367.8,-148.77 371.94,-140.52"/>
<polygon fill="midnightblue" stroke="midnightblue" points="375.11,-142.01 376.53,-131.51 368.87,-138.83 375.11,-142.01"/>
</g>
<!-- Node24&#45;&gt;Node20 -->
<g id="edge55" class="edge">
<title>Node24&#45;&gt;Node20</title>
<path fill="none" stroke="midnightblue" d="M303.28,-336.32C312.84,-328.26 327.28,-316.08 338.78,-306.37"/>
<polygon fill="midnightblue" stroke="midnightblue" points="341.14,-308.96 346.53,-299.83 336.63,-303.61 341.14,-308.96"/>
</g>
<!-- Node26&#45;&gt;Node2 -->
<g id="edge60" class="edge">
<title>Node26&#45;&gt;Node2</title>
<path fill="none" stroke="midnightblue" d="M630.88,-504.26C651.88,-466.62 736.45,-314.52 803,-188 811.28,-172.27 820.4,-154.23 826.96,-141.16"/>
<polygon fill="midnightblue" stroke="midnightblue" points="830.26,-142.38 831.6,-131.87 824,-139.25 830.26,-142.38"/>
</g>
<!-- Node26&#45;&gt;Node22 -->
<g id="edge61" class="edge">
<title>Node26&#45;&gt;Node22</title>
<path fill="none" stroke="midnightblue" d="M613.63,-504.32C601.84,-496.06 583.87,-483.45 569.86,-473.63"/>
<polygon fill="midnightblue" stroke="midnightblue" points="571.54,-470.53 561.34,-467.65 567.52,-476.26 571.54,-470.53"/>
</g>
<!-- Node27&#45;&gt;Node22 -->
<g id="edge63" class="edge">
<title>Node27&#45;&gt;Node22</title>
<path fill="none" stroke="midnightblue" d="M807.48,-506C748.5,-495.27 636.86,-474.97 581.63,-464.93"/>
<polygon fill="midnightblue" stroke="midnightblue" points="582.15,-461.47 571.68,-463.12 580.89,-468.36 582.15,-461.47"/>
</g>
<!-- Node28 -->
<g id="node28" class="node">
<title>Node28</title>
<g id="a_node28"><a xlink:href="../../d3/df1/window_8h.html" target="_top" xlink:title=" ">
<polygon fill="none" stroke="black" points="1034,-280.5 1034,-299.5 1090,-299.5 1090,-280.5 1034,-280.5"/>
<text text-anchor="middle" x="1062" y="-287.5" font-family="Helvetica,sans-Serif" font-size="10.00">window.h</text>
</a>
</g>
</g>
<!-- Node27&#45;&gt;Node28 -->
<g id="edge64" class="edge">
<title>Node27&#45;&gt;Node28</title>
<path fill="none" stroke="midnightblue" d="M854.47,-504.3C886.92,-470.94 1003.7,-350.92 1046.3,-307.13"/>
<polygon fill="midnightblue" stroke="midnightblue" points="1048.89,-309.49 1053.36,-299.88 1043.87,-304.61 1048.89,-309.49"/>
</g>
<!-- Node28&#45;&gt;Node2 -->
<g id="edge65" class="edge">
<title>Node28&#45;&gt;Node2</title>
<path fill="none" stroke="midnightblue" d="M1040.2,-280.48C1020.91,-272.46 992.43,-259.39 970,-244 929.02,-215.89 925.01,-201.15 888,-168 876.74,-157.92 863.91,-146.81 853.81,-138.15"/>
<polygon fill="midnightblue" stroke="midnightblue" points="855.93,-135.36 846.06,-131.53 851.39,-140.68 855.93,-135.36"/>
</g>
<!-- Node28&#45;&gt;Node5 -->
<g id="edge71" class="edge">
<title>Node28&#45;&gt;Node5</title>
<path fill="none" stroke="midnightblue" d="M1090.07,-288.68C1181.92,-287.09 1465.28,-277.84 1423,-224 1339.17,-117.26 886.97,-77.95 762.65,-69.08"/>
<polygon fill="midnightblue" stroke="midnightblue" points="762.52,-65.56 752.3,-68.35 762.04,-72.54 762.52,-65.56"/>
</g>
<!-- Node28&#45;&gt;Node7 -->
<g id="edge72" class="edge">
<title>Node28&#45;&gt;Node7</title>
<path fill="none" stroke="midnightblue" d="M1033.78,-285.9C947.84,-276.47 689.79,-248.15 600.67,-238.37"/>
<polygon fill="midnightblue" stroke="midnightblue" points="600.98,-234.88 590.66,-237.27 600.22,-241.84 600.98,-234.88"/>
</g>
<!-- Node28&#45;&gt;Node13 -->
<g id="edge73" class="edge">
<title>Node28&#45;&gt;Node13</title>
<path fill="none" stroke="midnightblue" d="M1033.94,-282.79C964.68,-267.41 780.13,-226 627,-188 549.67,-168.81 459.2,-144.4 412.49,-131.65"/>
<polygon fill="midnightblue" stroke="midnightblue" points="413.23,-128.22 402.66,-128.96 411.39,-134.97 413.23,-128.22"/>
</g>
<!-- Node29 -->
<g id="node29" class="node">
<title>Node29</title>
<g id="a_node29"><a xlink:title=" ">
<polygon fill="none" stroke="#bfbfbf" points="978.5,-224.5 978.5,-243.5 1049.5,-243.5 1049.5,-224.5 978.5,-224.5"/>
<text text-anchor="middle" x="1014" y="-231.5" font-family="Helvetica,sans-Serif" font-size="10.00">SDL2/SDL.h</text>
</a>
</g>
</g>
<!-- Node28&#45;&gt;Node29 -->
<g id="edge66" class="edge">
<title>Node28&#45;&gt;Node29</title>
<path fill="none" stroke="midnightblue" d="M1054.07,-280.08C1047.15,-272.3 1036.93,-260.8 1028.55,-251.37"/>
<polygon fill="midnightblue" stroke="midnightblue" points="1031.04,-248.9 1021.78,-243.75 1025.81,-253.55 1031.04,-248.9"/>
</g>
<!-- Node30 -->
<g id="node30" class="node">
<title>Node30</title>
<g id="a_node30"><a xlink:title=" ">
<polygon fill="none" stroke="#bfbfbf" points="1068,-224.5 1068,-243.5 1152,-243.5 1152,-224.5 1068,-224.5"/>
<text text-anchor="middle" x="1110" y="-231.5" font-family="Helvetica,sans-Serif" font-size="10.00">SDL2/SDL_ttf.h</text>
</a>
</g>
</g>
<!-- Node28&#45;&gt;Node30 -->
<g id="edge67" class="edge">
<title>Node28&#45;&gt;Node30</title>
<path fill="none" stroke="midnightblue" d="M1069.93,-280.08C1076.85,-272.3 1087.07,-260.8 1095.45,-251.37"/>
<polygon fill="midnightblue" stroke="midnightblue" points="1098.19,-253.55 1102.22,-243.75 1092.96,-248.9 1098.19,-253.55"/>
</g>
<!-- Node31 -->
<g id="node31" class="node">
<title>Node31</title>
<g id="a_node31"><a xlink:title=" ">
<polygon fill="none" stroke="#bfbfbf" points="1170.5,-224.5 1170.5,-243.5 1227.5,-243.5 1227.5,-224.5 1170.5,-224.5"/>
<text text-anchor="middle" x="1199" y="-231.5" font-family="Helvetica,sans-Serif" font-size="10.00">SDL_ttf.h</text>
</a>
</g>
</g>
<!-- Node28&#45;&gt;Node31 -->
<g id="edge68" class="edge">
<title>Node28&#45;&gt;Node31</title>
<path fill="none" stroke="midnightblue" d="M1083.71,-280.44C1106.35,-271.52 1142.07,-257.44 1167.75,-247.32"/>
<polygon fill="midnightblue" stroke="midnightblue" points="1169.37,-250.44 1177.39,-243.52 1166.81,-243.93 1169.37,-250.44"/>
</g>
<!-- Node32 -->
<g id="node32" class="node">
<title>Node32</title>
<g id="a_node32"><a xlink:title=" ">
<polygon fill="none" stroke="#bfbfbf" points="1246,-224.5 1246,-243.5 1290,-243.5 1290,-224.5 1246,-224.5"/>
<text text-anchor="middle" x="1268" y="-231.5" font-family="Helvetica,sans-Serif" font-size="10.00">SDL.h</text>
</a>
</g>
</g>
<!-- Node28&#45;&gt;Node32 -->
<g id="edge69" class="edge">
<title>Node28&#45;&gt;Node32</title>
<path fill="none" stroke="midnightblue" d="M1090.26,-282.02C1123.02,-273.86 1178.87,-259.77 1235.79,-244.27"/>
<polygon fill="midnightblue" stroke="midnightblue" points="1236.95,-247.58 1245.67,-241.57 1235.1,-240.83 1236.95,-247.58"/>
</g>
<!-- Node33 -->
<g id="node33" class="node">
<title>Node33</title>
<g id="a_node33"><a xlink:title=" ">
<polygon fill="none" stroke="#bfbfbf" points="1308.5,-224.5 1308.5,-243.5 1413.5,-243.5 1413.5,-224.5 1308.5,-224.5"/>
<text text-anchor="middle" x="1361" y="-231.5" font-family="Helvetica,sans-Serif" font-size="10.00">SDL2/SDL_mouse.h</text>
</a>
</g>
</g>
<!-- Node28&#45;&gt;Node33 -->
<g id="edge70" class="edge">
<title>Node28&#45;&gt;Node33</title>
<path fill="none" stroke="midnightblue" d="M1090.13,-283.92C1138.84,-275.12 1239.81,-256.89 1303.77,-245.34"/>
<polygon fill="midnightblue" stroke="midnightblue" points="1304.49,-248.76 1313.7,-243.54 1303.24,-241.87 1304.49,-248.76"/>
</g>
</g>
</svg>
