<?xml version="1.0" encoding="UTF-8" standalone="no"?>
<!DOCTYPE svg PUBLIC "-//W3C//DTD SVG 1.1//EN"
 "http://www.w3.org/Graphics/SVG/1.1/DTD/svg11.dtd">
<!-- Generated by graphviz version 2.44.1 (20200629.0846)
 -->
<!-- Title: C:/Users/lukac/CLionProjects/virus_real/src/config.h Pages: 1 -->
<!--zoomable 508 -->
<svg id="main" version="1.1" xmlns="http://www.w3.org/2000/svg" xmlns:xlink="http://www.w3.org/1999/xlink" xml:space="preserve" onload="init(evt)">
<style type="text/css"><![CDATA[
.edge:hover path { stroke: red; }
.edge:hover polygon { stroke: red; fill: red; }
]]></style>
<script type="text/javascript"><![CDATA[
var edges = document.getElementsByTagName('g');
if (edges && edges.length) {
  for (var i=0;i<edges.length;i++) {
    if (edges[i].id.substr(0,4)=='edge') {
      edges[i].setAttribute('class','edge');
    }
  }
}
]]></script>
        <defs>
                <circle id="rim" cx="0" cy="0" r="7"/>
                <circle id="rim2" cx="0" cy="0" r="3.5"/>
                <g id="zoomPlus">
                        <use xlink:href="#rim" fill="#404040">
                                <set attributeName="fill" to="#808080" begin="zoomplus.mouseover" end="zoomplus.mouseout"/>
                        </use>
                        <path d="M-4,0h8M0,-4v8" fill="none" stroke="white" stroke-width="1.5" pointer-events="none"/>
                </g>
                <g id="zoomMin">
                        <use xlink:href="#rim" fill="#404040">
                                <set attributeName="fill" to="#808080" begin="zoomminus.mouseover" end="zoomminus.mouseout"/>
                        </use>
                        <path d="M-4,0h8" fill="none" stroke="white" stroke-width="1.5" pointer-events="none"/>
                </g>
                <g id="dirArrow">
                        <path fill="none" stroke="white" stroke-width="1.5" d="M0,-3.0v7 M-2.5,-0.5L0,-3.0L2.5,-0.5"/>
                </g>
               <g id="resetDef">
                       <use xlink:href="#rim2" fill="#404040">
                               <set attributeName="fill" to="#808080" begin="reset.mouseover" end="reset.mouseout"/>
                       </use>
               </g>
        </defs>

<script type="text/javascript">
var viewWidth = 904;
var viewHeight = 508;
var sectionId = 'dynsection-0';
</script>
<script xlink:href="../../svgpan.js"/>
<svg id="graph" class="graph">
<g id="viewport">
<title>C:/Users/lukac/CLionProjects/virus_real/src/config.h</title>
<!-- Node1 -->
<g id="node1" class="node">
<title>Node1</title>
<g id="a_node1"><a xlink:title=" ">
<polygon fill="#bfbfbf" stroke="black" points="233.5,-469.5 233.5,-499.5 378.5,-499.5 378.5,-469.5 233.5,-469.5"/>
<text text-anchor="start" x="241.5" y="-487.5" font-family="Helvetica,sans-Serif" font-size="10.00">C:/Users/lukac/CLionProjects</text>
<text text-anchor="middle" x="306" y="-476.5" font-family="Helvetica,sans-Serif" font-size="10.00">/virus_real/src/config.h</text>
</a>
</g>
</g>
<!-- Node2 -->
<g id="node2" class="node">
<title>Node2</title>
<g id="a_node2"><a xlink:href="../../d1/df3/ai_8h.html" target="_top" xlink:title=" ">
<polygon fill="none" stroke="black" points="315.5,-268.5 315.5,-298.5 460.5,-298.5 460.5,-268.5 315.5,-268.5"/>
<text text-anchor="start" x="323.5" y="-286.5" font-family="Helvetica,sans-Serif" font-size="10.00">C:/Users/lukac/CLionProjects</text>
<text text-anchor="middle" x="388" y="-275.5" font-family="Helvetica,sans-Serif" font-size="10.00">/virus_real/src/ai.h</text>
</a>
</g>
</g>
<!-- Node1&#45;&gt;Node2 -->
<g id="edge1" class="edge">
<title>Node1&#45;&gt;Node2</title>
<path fill="none" stroke="midnightblue" d="M315.77,-459.8C332.98,-418.01 368.23,-332.47 382.16,-298.68"/>
<polygon fill="midnightblue" stroke="midnightblue" points="312.47,-458.61 311.9,-469.19 318.94,-461.28 312.47,-458.61"/>
</g>
<!-- Node4 -->
<g id="node4" class="node">
<title>Node4</title>
<g id="a_node4"><a xlink:href="../../db/db2/iface_8h.html" target="_top" xlink:title=" ">
<polygon fill="none" stroke="black" points="264.5,-201.5 264.5,-231.5 409.5,-231.5 409.5,-201.5 264.5,-201.5"/>
<text text-anchor="start" x="272.5" y="-219.5" font-family="Helvetica,sans-Serif" font-size="10.00">C:/Users/lukac/CLionProjects</text>
<text text-anchor="middle" x="337" y="-208.5" font-family="Helvetica,sans-Serif" font-size="10.00">/virus_real/src/iface.h</text>
</a>
</g>
</g>
<!-- Node1&#45;&gt;Node4 -->
<g id="edge17" class="edge">
<title>Node1&#45;&gt;Node4</title>
<path fill="none" stroke="midnightblue" d="M302.05,-459.28C296.34,-418.8 288.37,-335.21 307,-268 310.7,-254.63 318.94,-241.22 325.85,-231.58"/>
<polygon fill="midnightblue" stroke="midnightblue" points="298.61,-459.91 303.54,-469.28 305.53,-458.88 298.61,-459.91"/>
</g>
<!-- Node8 -->
<g id="node8" class="node">
<title>Node8</title>
<g id="a_node8"><a xlink:href="../../df/d0a/main_8cpp.html" target="_top" xlink:title=" ">
<polygon fill="none" stroke="black" points="84.5,-0.5 84.5,-30.5 229.5,-30.5 229.5,-0.5 84.5,-0.5"/>
<text text-anchor="start" x="92.5" y="-18.5" font-family="Helvetica,sans-Serif" font-size="10.00">C:/Users/lukac/CLionProjects</text>
<text text-anchor="middle" x="157" y="-7.5" font-family="Helvetica,sans-Serif" font-size="10.00">/virus_real/src/main.cpp</text>
</a>
</g>
</g>
<!-- Node1&#45;&gt;Node8 -->
<g id="edge27" class="edge">
<title>Node1&#45;&gt;Node8</title>
<path fill="none" stroke="midnightblue" d="M223.48,-481.97C132.85,-475.38 0,-449.09 0,-351.5 0,-351.5 0,-351.5 0,-148.5 0,-87.78 69.64,-49.39 116.16,-30.52"/>
<polygon fill="midnightblue" stroke="midnightblue" points="223.27,-485.46 233.48,-482.63 223.73,-478.48 223.27,-485.46"/>
</g>
<!-- Node15 -->
<g id="node15" class="node">
<title>Node15</title>
<g id="a_node15"><a xlink:href="../../d3/daa/logic_8h.html" target="_top" xlink:title=" ">
<polygon fill="none" stroke="black" points="580.5,-402.5 580.5,-432.5 725.5,-432.5 725.5,-402.5 580.5,-402.5"/>
<text text-anchor="start" x="588.5" y="-420.5" font-family="Helvetica,sans-Serif" font-size="10.00">C:/Users/lukac/CLionProjects</text>
<text text-anchor="middle" x="653" y="-409.5" font-family="Helvetica,sans-Serif" font-size="10.00">/virus_real/src/logic.h</text>
</a>
</g>
</g>
<!-- Node1&#45;&gt;Node15 -->
<g id="edge18" class="edge">
<title>Node1&#45;&gt;Node15</title>
<path fill="none" stroke="midnightblue" d="M388.67,-468.02C446.99,-457.09 524.39,-442.59 580.35,-432.11"/>
<polygon fill="midnightblue" stroke="midnightblue" points="387.93,-464.59 378.74,-469.87 389.22,-471.47 387.93,-464.59"/>
</g>
<!-- Node3 -->
<g id="node3" class="node">
<title>Node3</title>
<g id="a_node3"><a xlink:href="../../d1/d4a/ai_8cpp.html" target="_top" xlink:title=" ">
<polygon fill="none" stroke="black" points="445.5,-201.5 445.5,-231.5 590.5,-231.5 590.5,-201.5 445.5,-201.5"/>
<text text-anchor="start" x="453.5" y="-219.5" font-family="Helvetica,sans-Serif" font-size="10.00">C:/Users/lukac/CLionProjects</text>
<text text-anchor="middle" x="518" y="-208.5" font-family="Helvetica,sans-Serif" font-size="10.00">/virus_real/src/ai.cpp</text>
</a>
</g>
</g>
<!-- Node2&#45;&gt;Node3 -->
<g id="edge2" class="edge">
<title>Node2&#45;&gt;Node3</title>
<path fill="none" stroke="midnightblue" d="M425.29,-263.85C445.85,-253.58 470.95,-241.03 489.85,-231.58"/>
<polygon fill="midnightblue" stroke="midnightblue" points="423.59,-260.79 416.21,-268.4 426.72,-267.05 423.59,-260.79"/>
</g>
<!-- Node2&#45;&gt;Node4 -->
<g id="edge3" class="edge">
<title>Node2&#45;&gt;Node4</title>
<path fill="none" stroke="midnightblue" d="M370.7,-260.45C363.21,-250.9 354.66,-240 348.04,-231.58"/>
<polygon fill="midnightblue" stroke="midnightblue" points="368.01,-262.69 376.93,-268.4 373.51,-258.37 368.01,-262.69"/>
</g>
<!-- Node4&#45;&gt;Node4 -->
<g id="edge10" class="edge">
<title>Node4&#45;&gt;Node4</title>
<path fill="none" stroke="midnightblue" d="M419.69,-225C424.57,-222.97 427.5,-220.13 427.5,-216.5 427.5,-210.83 420.37,-207.11 409.79,-205.33"/>
<polygon fill="midnightblue" stroke="midnightblue" points="418.53,-221.69 409.79,-227.67 420.35,-228.45 418.53,-221.69"/>
</g>
<!-- Node5 -->
<g id="node5" class="node">
<title>Node5</title>
<g id="a_node5"><a xlink:href="../../d7/d04/graphics_8h.html" target="_top" xlink:title=" ">
<polygon fill="none" stroke="black" points="354.5,-134.5 354.5,-164.5 499.5,-164.5 499.5,-134.5 354.5,-134.5"/>
<text text-anchor="start" x="362.5" y="-152.5" font-family="Helvetica,sans-Serif" font-size="10.00">C:/Users/lukac/CLionProjects</text>
<text text-anchor="middle" x="427" y="-141.5" font-family="Helvetica,sans-Serif" font-size="10.00">/virus_real/src/graphics.h</text>
</a>
</g>
</g>
<!-- Node4&#45;&gt;Node5 -->
<g id="edge4" class="edge">
<title>Node4&#45;&gt;Node5</title>
<path fill="none" stroke="midnightblue" d="M364.76,-195.45C378.61,-185.45 395.02,-173.6 407.51,-164.58"/>
<polygon fill="midnightblue" stroke="midnightblue" points="362.59,-192.7 356.53,-201.4 366.68,-198.38 362.59,-192.7"/>
</g>
<!-- Node10 -->
<g id="node10" class="node">
<title>Node10</title>
<g id="a_node10"><a xlink:href="../../dc/d59/iface_8cpp.html" target="_top" xlink:title=" ">
<polygon fill="none" stroke="black" points="28.5,-134.5 28.5,-164.5 173.5,-164.5 173.5,-134.5 28.5,-134.5"/>
<text text-anchor="start" x="36.5" y="-152.5" font-family="Helvetica,sans-Serif" font-size="10.00">C:/Users/lukac/CLionProjects</text>
<text text-anchor="middle" x="101" y="-141.5" font-family="Helvetica,sans-Serif" font-size="10.00">/virus_real/src/iface.cpp</text>
</a>
</g>
</g>
<!-- Node4&#45;&gt;Node10 -->
<g id="edge9" class="edge">
<title>Node4&#45;&gt;Node10</title>
<path fill="none" stroke="midnightblue" d="M276.06,-198.71C237.65,-188.14 188.63,-174.63 152.23,-164.61"/>
<polygon fill="midnightblue" stroke="midnightblue" points="275.51,-202.19 286.08,-201.48 277.37,-195.45 275.51,-202.19"/>
</g>
<!-- Node11 -->
<g id="node11" class="node">
<title>Node11</title>
<g id="a_node11"><a xlink:href="../../d2/d5e/protocol_8h.html" target="_top" xlink:title=" ">
<polygon fill="none" stroke="black" points="517.5,-134.5 517.5,-164.5 662.5,-164.5 662.5,-134.5 517.5,-134.5"/>
<text text-anchor="start" x="525.5" y="-152.5" font-family="Helvetica,sans-Serif" font-size="10.00">C:/Users/lukac/CLionProjects</text>
<text text-anchor="middle" x="590" y="-141.5" font-family="Helvetica,sans-Serif" font-size="10.00">/virus_real/src/protocol.h</text>
</a>
</g>
</g>
<!-- Node4&#45;&gt;Node11 -->
<g id="edge11" class="edge">
<title>Node4&#45;&gt;Node11</title>
<path fill="none" stroke="midnightblue" d="M401.28,-198.98C442.61,-188.37 495.73,-174.72 535.08,-164.61"/>
<polygon fill="midnightblue" stroke="midnightblue" points="400.4,-195.6 391.59,-201.48 402.14,-202.38 400.4,-195.6"/>
</g>
<!-- Node13 -->
<g id="node13" class="node">
<title>Node13</title>
<g id="a_node13"><a xlink:href="../../d2/d02/visualization_8h.html" target="_top" xlink:title=" ">
<polygon fill="none" stroke="black" points="191.5,-134.5 191.5,-164.5 336.5,-164.5 336.5,-134.5 191.5,-134.5"/>
<text text-anchor="start" x="199.5" y="-152.5" font-family="Helvetica,sans-Serif" font-size="10.00">C:/Users/lukac/CLionProjects</text>
<text text-anchor="middle" x="264" y="-141.5" font-family="Helvetica,sans-Serif" font-size="10.00">/virus_real/src/visualization.h</text>
</a>
</g>
</g>
<!-- Node4&#45;&gt;Node13 -->
<g id="edge14" class="edge">
<title>Node4&#45;&gt;Node13</title>
<path fill="none" stroke="midnightblue" d="M313.53,-194.6C302.5,-184.78 289.66,-173.34 279.81,-164.58"/>
<polygon fill="midnightblue" stroke="midnightblue" points="311.36,-197.36 321.16,-201.4 316.02,-192.13 311.36,-197.36"/>
</g>
<!-- Node6 -->
<g id="node6" class="node">
<title>Node6</title>
<g id="a_node6"><a xlink:href="../../d3/d5b/anti_virus_8h.html" target="_top" xlink:title=" ">
<polygon fill="none" stroke="black" points="517.5,-67.5 517.5,-97.5 662.5,-97.5 662.5,-67.5 517.5,-67.5"/>
<text text-anchor="start" x="525.5" y="-85.5" font-family="Helvetica,sans-Serif" font-size="10.00">C:/Users/lukac/CLionProjects</text>
<text text-anchor="middle" x="590" y="-74.5" font-family="Helvetica,sans-Serif" font-size="10.00">/virus_real/src/antiVirus.h</text>
</a>
</g>
</g>
<!-- Node5&#45;&gt;Node6 -->
<g id="edge5" class="edge">
<title>Node5&#45;&gt;Node6</title>
<path fill="none" stroke="midnightblue" d="M471.68,-130.68C497.83,-120.26 530.37,-107.28 554.7,-97.58"/>
<polygon fill="midnightblue" stroke="midnightblue" points="470.36,-127.44 462.37,-134.4 472.95,-133.94 470.36,-127.44"/>
</g>
<!-- Node9 -->
<g id="node9" class="node">
<title>Node9</title>
<g id="a_node9"><a xlink:href="../../d6/d99/graphics_8cpp.html" target="_top" xlink:title=" ">
<polygon fill="none" stroke="black" points="354.5,-67.5 354.5,-97.5 499.5,-97.5 499.5,-67.5 354.5,-67.5"/>
<text text-anchor="start" x="362.5" y="-85.5" font-family="Helvetica,sans-Serif" font-size="10.00">C:/Users/lukac/CLionProjects</text>
<text text-anchor="middle" x="427" y="-74.5" font-family="Helvetica,sans-Serif" font-size="10.00">/virus_real/src/graphics.cpp</text>
</a>
</g>
</g>
<!-- Node5&#45;&gt;Node9 -->
<g id="edge8" class="edge">
<title>Node5&#45;&gt;Node9</title>
<path fill="none" stroke="midnightblue" d="M427,-124.11C427,-115.15 427,-105.32 427,-97.58"/>
<polygon fill="midnightblue" stroke="midnightblue" points="423.5,-124.4 427,-134.4 430.5,-124.4 423.5,-124.4"/>
</g>
<!-- Node7 -->
<g id="node7" class="node">
<title>Node7</title>
<g id="a_node7"><a xlink:href="../../da/d6e/anti_virus_8cpp.html" target="_top" xlink:title=" ">
<polygon fill="none" stroke="black" points="517.5,-0.5 517.5,-30.5 662.5,-30.5 662.5,-0.5 517.5,-0.5"/>
<text text-anchor="start" x="525.5" y="-18.5" font-family="Helvetica,sans-Serif" font-size="10.00">C:/Users/lukac/CLionProjects</text>
<text text-anchor="middle" x="590" y="-7.5" font-family="Helvetica,sans-Serif" font-size="10.00">/virus_real/src/antiVirus.cpp</text>
</a>
</g>
</g>
<!-- Node6&#45;&gt;Node7 -->
<g id="edge6" class="edge">
<title>Node6&#45;&gt;Node7</title>
<path fill="none" stroke="midnightblue" d="M590,-57.11C590,-48.15 590,-38.32 590,-30.58"/>
<polygon fill="midnightblue" stroke="midnightblue" points="586.5,-57.4 590,-67.4 593.5,-57.4 586.5,-57.4"/>
</g>
<!-- Node6&#45;&gt;Node8 -->
<g id="edge7" class="edge">
<title>Node6&#45;&gt;Node8</title>
<path fill="none" stroke="midnightblue" d="M507.03,-66.71C405.39,-50.45 298.54,-35.52 229.58,-26.17"/>
<polygon fill="midnightblue" stroke="midnightblue" points="506.73,-70.21 517.16,-68.34 507.84,-63.3 506.73,-70.21"/>
</g>
<!-- Node11&#45;&gt;Node6 -->
<g id="edge12" class="edge">
<title>Node11&#45;&gt;Node6</title>
<path fill="none" stroke="midnightblue" d="M590,-124.11C590,-115.15 590,-105.32 590,-97.58"/>
<polygon fill="midnightblue" stroke="midnightblue" points="586.5,-124.4 590,-134.4 593.5,-124.4 586.5,-124.4"/>
</g>
<!-- Node12 -->
<g id="node12" class="node">
<title>Node12</title>
<g id="a_node12"><a xlink:href="../../d4/d25/protocol_8cpp.html" target="_top" xlink:title=" ">
<polygon fill="none" stroke="black" points="750.5,-67.5 750.5,-97.5 895.5,-97.5 895.5,-67.5 750.5,-67.5"/>
<text text-anchor="start" x="758.5" y="-85.5" font-family="Helvetica,sans-Serif" font-size="10.00">C:/Users/lukac/CLionProjects</text>
<text text-anchor="middle" x="823" y="-74.5" font-family="Helvetica,sans-Serif" font-size="10.00">/virus_real/src/protocol.cpp</text>
</a>
</g>
</g>
<!-- Node11&#45;&gt;Node12 -->
<g id="edge13" class="edge">
<title>Node11&#45;&gt;Node12</title>
<path fill="none" stroke="midnightblue" d="M650.17,-131.71C688.08,-121.14 736.49,-107.63 772.42,-97.61"/>
<polygon fill="midnightblue" stroke="midnightblue" points="648.96,-128.42 640.27,-134.48 650.84,-135.16 648.96,-128.42"/>
</g>
<!-- Node13&#45;&gt;Node8 -->
<g id="edge15" class="edge">
<title>Node13&#45;&gt;Node8</title>
<path fill="none" stroke="midnightblue" d="M215.7,-129.9C201.01,-122.08 186.1,-111.58 176,-98 161.09,-77.95 157.64,-48.05 156.98,-30.59"/>
<polygon fill="midnightblue" stroke="midnightblue" points="214.26,-133.09 224.77,-134.42 217.38,-126.83 214.26,-133.09"/>
</g>
<!-- Node14 -->
<g id="node14" class="node">
<title>Node14</title>
<g id="a_node14"><a xlink:href="../../d3/d49/visualization_8cpp.html" target="_top" xlink:title=" ">
<polygon fill="none" stroke="black" points="185.5,-67.5 185.5,-97.5 336.5,-97.5 336.5,-67.5 185.5,-67.5"/>
<text text-anchor="start" x="193.5" y="-85.5" font-family="Helvetica,sans-Serif" font-size="10.00">C:/Users/lukac/CLionProjects</text>
<text text-anchor="middle" x="261" y="-74.5" font-family="Helvetica,sans-Serif" font-size="10.00">/virus_real/src/visualization.cpp</text>
</a>
</g>
</g>
<!-- Node13&#45;&gt;Node14 -->
<g id="edge16" class="edge">
<title>Node13&#45;&gt;Node14</title>
<path fill="none" stroke="midnightblue" d="M262.89,-124.4C262.47,-115.37 262.01,-105.41 261.65,-97.58"/>
<polygon fill="midnightblue" stroke="midnightblue" points="259.39,-124.57 263.35,-134.4 266.38,-124.25 259.39,-124.57"/>
</g>
<!-- Node15&#45;&gt;Node2 -->
<g id="edge19" class="edge">
<title>Node15&#45;&gt;Node2</title>
<path fill="none" stroke="midnightblue" d="M570.22,-402.81C537.81,-395.13 501.24,-383.45 471,-366 440.39,-348.33 412.84,-316.74 398.48,-298.51"/>
<polygon fill="midnightblue" stroke="midnightblue" points="569.6,-406.25 580.13,-405.06 571.16,-399.43 569.6,-406.25"/>
</g>
<!-- Node15&#45;&gt;Node4 -->
<g id="edge24" class="edge">
<title>Node15&#45;&gt;Node4</title>
<path fill="none" stroke="midnightblue" d="M657.79,-392.28C662.74,-359.47 665.85,-301.19 634,-268 630.09,-263.93 496.21,-242.35 409.56,-228.76"/>
<polygon fill="midnightblue" stroke="midnightblue" points="654.3,-391.92 656.09,-402.36 661.2,-393.08 654.3,-391.92"/>
</g>
<!-- Node15&#45;&gt;Node6 -->
<g id="edge20" class="edge">
<title>Node15&#45;&gt;Node6</title>
<path fill="none" stroke="midnightblue" d="M664.15,-392.86C675.37,-366.89 691,-323.66 691,-284.5 691,-284.5 691,-284.5 691,-215.5 691,-178.31 693.73,-164.19 672,-134 660.38,-117.85 641.84,-105.81 625.33,-97.54"/>
<polygon fill="midnightblue" stroke="midnightblue" points="660.85,-391.68 659.97,-402.24 667.24,-394.53 660.85,-391.68"/>
</g>
<!-- Node15&#45;&gt;Node12 -->
<g id="edge26" class="edge">
<title>Node15&#45;&gt;Node12</title>
<path fill="none" stroke="midnightblue" d="M735.67,-406.81C789.96,-398.77 854.44,-385.48 874,-366 900.36,-339.76 893,-321.69 893,-284.5 893,-284.5 893,-284.5 893,-215.5 893,-167.77 856.84,-120.46 836.5,-97.62"/>
<polygon fill="midnightblue" stroke="midnightblue" points="735.06,-403.36 725.66,-408.25 736.06,-410.29 735.06,-403.36"/>
</g>
<!-- Node16 -->
<g id="node16" class="node">
<title>Node16</title>
<g id="a_node16"><a xlink:href="../../d2/d3d/graphalgos_8h.html" target="_top" xlink:title=" ">
<polygon fill="none" stroke="black" points="479.5,-335.5 479.5,-365.5 624.5,-365.5 624.5,-335.5 479.5,-335.5"/>
<text text-anchor="start" x="487.5" y="-353.5" font-family="Helvetica,sans-Serif" font-size="10.00">C:/Users/lukac/CLionProjects</text>
<text text-anchor="middle" x="552" y="-342.5" font-family="Helvetica,sans-Serif" font-size="10.00">/virus_real/src/graphalgos.h</text>
</a>
</g>
</g>
<!-- Node15&#45;&gt;Node16 -->
<g id="edge21" class="edge">
<title>Node15&#45;&gt;Node16</title>
<path fill="none" stroke="midnightblue" d="M622.29,-396.73C606.66,-386.68 588.03,-374.68 573.87,-365.58"/>
<polygon fill="midnightblue" stroke="midnightblue" points="620.78,-399.93 631.08,-402.4 624.57,-394.04 620.78,-399.93"/>
</g>
<!-- Node18 -->
<g id="node18" class="node">
<title>Node18</title>
<g id="a_node18"><a xlink:href="../../de/d61/logic_8cpp.html" target="_top" xlink:title=" ">
<polygon fill="none" stroke="black" points="719.5,-335.5 719.5,-365.5 864.5,-365.5 864.5,-335.5 719.5,-335.5"/>
<text text-anchor="start" x="727.5" y="-353.5" font-family="Helvetica,sans-Serif" font-size="10.00">C:/Users/lukac/CLionProjects</text>
<text text-anchor="middle" x="792" y="-342.5" font-family="Helvetica,sans-Serif" font-size="10.00">/virus_real/src/logic.cpp</text>
</a>
</g>
</g>
<!-- Node15&#45;&gt;Node18 -->
<g id="edge25" class="edge">
<title>Node15&#45;&gt;Node18</title>
<path fill="none" stroke="midnightblue" d="M692.28,-398.13C714.37,-387.8 741.51,-375.11 761.9,-365.58"/>
<polygon fill="midnightblue" stroke="midnightblue" points="690.74,-394.99 683.16,-402.4 693.7,-401.33 690.74,-394.99"/>
</g>
<!-- Node16&#45;&gt;Node2 -->
<g id="edge22" class="edge">
<title>Node16&#45;&gt;Node2</title>
<path fill="none" stroke="midnightblue" d="M507.04,-331.68C480.74,-321.26 448,-308.28 423.52,-298.58"/>
<polygon fill="midnightblue" stroke="midnightblue" points="505.83,-334.97 516.41,-335.4 508.41,-328.46 505.83,-334.97"/>
</g>
<!-- Node17 -->
<g id="node17" class="node">
<title>Node17</title>
<g id="a_node17"><a xlink:href="../../d0/d23/graphalgos_8cpp.html" target="_top" xlink:title=" ">
<polygon fill="none" stroke="black" points="479,-268.5 479,-298.5 625,-298.5 625,-268.5 479,-268.5"/>
<text text-anchor="start" x="487" y="-286.5" font-family="Helvetica,sans-Serif" font-size="10.00">C:/Users/lukac/CLionProjects</text>
<text text-anchor="middle" x="552" y="-275.5" font-family="Helvetica,sans-Serif" font-size="10.00">/virus_real/src/graphalgos.cpp</text>
</a>
</g>
</g>
<!-- Node16&#45;&gt;Node17 -->
<g id="edge23" class="edge">
<title>Node16&#45;&gt;Node17</title>
<path fill="none" stroke="midnightblue" d="M552,-325.11C552,-316.15 552,-306.32 552,-298.58"/>
<polygon fill="midnightblue" stroke="midnightblue" points="548.5,-325.4 552,-335.4 555.5,-325.4 548.5,-325.4"/>
</g>
</g>
</svg>
        <g id="navigator" transform="translate(0 0)" fill="#404254">
                <rect fill="#f2f5e9" fill-opacity="0.5" stroke="#606060" stroke-width=".5" x="0" y="0" width="60" height="60"/>
                <use id="zoomplus" xlink:href="#zoomPlus" x="17" y="9" onmousedown="handleZoom(evt,'in')"/>
                <use id="zoomminus" xlink:href="#zoomMin" x="42" y="9" onmousedown="handleZoom(evt,'out')"/>
                <use id="reset" xlink:href="#resetDef" x="30" y="36" onmousedown="handleReset()"/>
                <g id="arrowUp" xlink:href="#dirArrow" transform="translate(30 24)" onmousedown="handlePan(0,-1)">
                  <use xlink:href="#rim" fill="#404040">
                        <set attributeName="fill" to="#808080" begin="arrowUp.mouseover" end="arrowUp.mouseout"/>
                  </use>
                  <path fill="none" stroke="white" stroke-width="1.5" d="M0,-3.0v7 M-2.5,-0.5L0,-3.0L2.5,-0.5"/>
                </g>
                <g id="arrowRight" xlink:href="#dirArrow" transform="rotate(90) translate(36 -43)" onmousedown="handlePan(1,0)">
                  <use xlink:href="#rim" fill="#404040">
                        <set attributeName="fill" to="#808080" begin="arrowRight.mouseover" end="arrowRight.mouseout"/>
                  </use>
                  <path fill="none" stroke="white" stroke-width="1.5" d="M0,-3.0v7 M-2.5,-0.5L0,-3.0L2.5,-0.5"/>
                </g>
                <g id="arrowDown" xlink:href="#dirArrow" transform="rotate(180) translate(-30 -48)" onmousedown="handlePan(0,1)">
                  <use xlink:href="#rim" fill="#404040">
                        <set attributeName="fill" to="#808080" begin="arrowDown.mouseover" end="arrowDown.mouseout"/>
                  </use>
                  <path fill="none" stroke="white" stroke-width="1.5" d="M0,-3.0v7 M-2.5,-0.5L0,-3.0L2.5,-0.5"/>
                </g>
                <g id="arrowLeft" xlink:href="#dirArrow" transform="rotate(270) translate(-36 17)" onmousedown="handlePan(-1,0)">
                  <use xlink:href="#rim" fill="#404040">
                        <set attributeName="fill" to="#808080" begin="arrowLeft.mouseover" end="arrowLeft.mouseout"/>
                  </use>
                  <path fill="none" stroke="white" stroke-width="1.5" d="M0,-3.0v7 M-2.5,-0.5L0,-3.0L2.5,-0.5"/>
                </g>
        </g>
        <svg viewBox="0 0 15 15" width="100%" height="30px" preserveAspectRatio="xMaxYMin meet">
         <g id="arrow_out" transform="scale(0.3 0.3)">
          <a xlink:href="config_8h__dep__incl_org.svg" target="_base">
           <rect id="button" ry="5" rx="5" y="6" x="6" height="38" width="38"
                fill="#f2f5e9" fill-opacity="0.5" stroke="#606060" stroke-width="1.0"/>
           <path id="arrow"
             d="M 11.500037,31.436501 C 11.940474,20.09759 22.043105,11.32322 32.158766,21.979434 L 37.068811,17.246167 C 37.068811,17.246167 37.088388,32 37.088388,32 L 22.160133,31.978069 C 22.160133,31.978069 26.997745,27.140456 26.997745,27.140456 C 18.528582,18.264221 13.291696,25.230495 11.500037,31.436501 z"
             style="fill:#404040;"/>
          </a>
         </g>
        </svg>
</svg>
