<?xml version="1.0" encoding="UTF-8" standalone="no"?>
<!DOCTYPE svg PUBLIC "-//W3C//DTD SVG 1.1//EN"
 "http://www.w3.org/Graphics/SVG/1.1/DTD/svg11.dtd">
<!-- Generated by graphviz version 2.44.1 (20200629.0846)
 -->
<!-- Title: C:/Users/lukac/CLionProjects/virus_real/src/utils.h Pages: 1 -->
<svg width="191pt" height="95pt"
 viewBox="0.00 0.00 190.50 95.00" xmlns="http://www.w3.org/2000/svg" xmlns:xlink="http://www.w3.org/1999/xlink">
<g id="graph0" class="graph" transform="scale(1 1) rotate(0) translate(4 91)">
<title>C:/Users/lukac/CLionProjects/virus_real/src/utils.h</title>
<!-- Node1 -->
<g id="node1" class="node">
<title>Node1</title>
<g id="a_node1"><a xlink:title=" ">
<polygon fill="#bfbfbf" stroke="black" points="27,-56.5 27,-86.5 172,-86.5 172,-56.5 27,-56.5"/>
<text text-anchor="start" x="35" y="-74.5" font-family="Helvetica,sans-Serif" font-size="10.00">C:/Users/lukac/CLionProjects</text>
<text text-anchor="middle" x="99.5" y="-63.5" font-family="Helvetica,sans-Serif" font-size="10.00">/virus_real/src/utils.h</text>
</a>
</g>
</g>
<!-- Node2 -->
<g id="node2" class="node">
<title>Node2</title>
<g id="a_node2"><a xlink:title=" ">
<polygon fill="none" stroke="#bfbfbf" points="0,-0.5 0,-19.5 59,-19.5 59,-0.5 0,-0.5"/>
<text text-anchor="middle" x="29.5" y="-7.5" font-family="Helvetica,sans-Serif" font-size="10.00">stdexcept</text>
</a>
</g>
</g>
<!-- Node1&#45;&gt;Node2 -->
<g id="edge1" class="edge">
<title>Node1&#45;&gt;Node2</title>
<path fill="none" stroke="midnightblue" d="M82.91,-56.4C72.21,-47.31 58.31,-35.49 47.37,-26.19"/>
<polygon fill="midnightblue" stroke="midnightblue" points="49.57,-23.47 39.69,-19.66 45.04,-28.8 49.57,-23.47"/>
</g>
<!-- Node3 -->
<g id="node3" class="node">
<title>Node3</title>
<g id="a_node3"><a xlink:title=" ">
<polygon fill="none" stroke="#bfbfbf" points="77,-0.5 77,-19.5 122,-19.5 122,-0.5 77,-0.5"/>
<text text-anchor="middle" x="99.5" y="-7.5" font-family="Helvetica,sans-Serif" font-size="10.00">climits</text>
</a>
</g>
</g>
<!-- Node1&#45;&gt;Node3 -->
<g id="edge2" class="edge">
<title>Node1&#45;&gt;Node3</title>
<path fill="none" stroke="midnightblue" d="M99.5,-56.4C99.5,-48.47 99.5,-38.46 99.5,-29.86"/>
<polygon fill="midnightblue" stroke="midnightblue" points="103,-29.66 99.5,-19.66 96,-29.66 103,-29.66"/>
</g>
<!-- Node4 -->
<g id="node4" class="node">
<title>Node4</title>
<g id="a_node4"><a xlink:title=" ">
<polygon fill="none" stroke="#bfbfbf" points="140.5,-0.5 140.5,-19.5 182.5,-19.5 182.5,-0.5 140.5,-0.5"/>
<text text-anchor="middle" x="161.5" y="-7.5" font-family="Helvetica,sans-Serif" font-size="10.00">vector</text>
</a>
</g>
</g>
<!-- Node1&#45;&gt;Node4 -->
<g id="edge3" class="edge">
<title>Node1&#45;&gt;Node4</title>
<path fill="none" stroke="midnightblue" d="M114.19,-56.4C123.48,-47.49 135.5,-35.95 145.1,-26.74"/>
<polygon fill="midnightblue" stroke="midnightblue" points="147.69,-29.11 152.48,-19.66 142.84,-24.06 147.69,-29.11"/>
</g>
</g>
</svg>
