<?xml version="1.0" encoding="UTF-8" standalone="no"?>
<!DOCTYPE svg PUBLIC "-//W3C//DTD SVG 1.1//EN"
 "http://www.w3.org/Graphics/SVG/1.1/DTD/svg11.dtd">
<!-- Generated by graphviz version 2.44.1 (20200629.0846)
 -->
<!-- Title: C:/Users/lukac/CLionProjects/virus_real/src/logic.h Pages: 1 -->
<!--zoomable 319 -->
<svg id="main" version="1.1" xmlns="http://www.w3.org/2000/svg" xmlns:xlink="http://www.w3.org/1999/xlink" xml:space="preserve" onload="init(evt)">
<style type="text/css"><![CDATA[
.edge:hover path { stroke: red; }
.edge:hover polygon { stroke: red; fill: red; }
]]></style>
<script type="text/javascript"><![CDATA[
var edges = document.getElementsByTagName('g');
if (edges && edges.length) {
  for (var i=0;i<edges.length;i++) {
    if (edges[i].id.substr(0,4)=='edge') {
      edges[i].setAttribute('class','edge');
    }
  }
}
]]></script>
        <defs>
                <circle id="rim" cx="0" cy="0" r="7"/>
                <circle id="rim2" cx="0" cy="0" r="3.5"/>
                <g id="zoomPlus">
                        <use xlink:href="#rim" fill="#404040">
                                <set attributeName="fill" to="#808080" begin="zoomplus.mouseover" end="zoomplus.mouseout"/>
                        </use>
                        <path d="M-4,0h8M0,-4v8" fill="none" stroke="white" stroke-width="1.5" pointer-events="none"/>
                </g>
                <g id="zoomMin">
                        <use xlink:href="#rim" fill="#404040">
                                <set attributeName="fill" to="#808080" begin="zoomminus.mouseover" end="zoomminus.mouseout"/>
                        </use>
                        <path d="M-4,0h8" fill="none" stroke="white" stroke-width="1.5" pointer-events="none"/>
                </g>
                <g id="dirArrow">
                        <path fill="none" stroke="white" stroke-width="1.5" d="M0,-3.0v7 M-2.5,-0.5L0,-3.0L2.5,-0.5"/>
                </g>
               <g id="resetDef">
                       <use xlink:href="#rim2" fill="#404040">
                               <set attributeName="fill" to="#808080" begin="reset.mouseover" end="reset.mouseout"/>
                       </use>
               </g>
        </defs>

<script type="text/javascript">
var viewWidth = 674;
var viewHeight = 319;
var sectionId = 'dynsection-0';
</script>
<script xlink:href="../../svgpan.js"/>
<svg id="graph" class="graph">
<g id="viewport">
<title>C:/Users/lukac/CLionProjects/virus_real/src/logic.h</title>
<!-- Node1 -->
<g id="node1" class="node">
<title>Node1</title>
<g id="a_node1"><a xlink:title=" ">
<polygon fill="#bfbfbf" stroke="black" points="356,-280.5 356,-310.5 501,-310.5 501,-280.5 356,-280.5"/>
<text text-anchor="start" x="364" y="-298.5" font-family="Helvetica,sans-Serif" font-size="10.00">C:/Users/lukac/CLionProjects</text>
<text text-anchor="middle" x="428.5" y="-287.5" font-family="Helvetica,sans-Serif" font-size="10.00">/virus_real/src/logic.h</text>
</a>
</g>
</g>
<!-- Node2 -->
<g id="node2" class="node">
<title>Node2</title>
<g id="a_node2"><a xlink:title=" ">
<polygon fill="none" stroke="#bfbfbf" points="489.5,-56.5 489.5,-75.5 545.5,-75.5 545.5,-56.5 489.5,-56.5"/>
<text text-anchor="middle" x="517.5" y="-63.5" font-family="Helvetica,sans-Serif" font-size="10.00">algorithm</text>
</a>
</g>
</g>
<!-- Node1&#45;&gt;Node2 -->
<g id="edge1" class="edge">
<title>Node1&#45;&gt;Node2</title>
<path fill="none" stroke="midnightblue" d="M435.65,-280.47C449.58,-252.69 480.74,-188.51 500.5,-132 505.86,-116.67 510.42,-98.79 513.46,-85.67"/>
<polygon fill="midnightblue" stroke="midnightblue" points="516.96,-86.07 515.73,-75.54 510.13,-84.54 516.96,-86.07"/>
</g>
<!-- Node3 -->
<g id="node3" class="node">
<title>Node3</title>
<g id="a_node3"><a xlink:title=" ">
<polygon fill="none" stroke="#bfbfbf" points="156.5,-56.5 156.5,-75.5 198.5,-75.5 198.5,-56.5 156.5,-56.5"/>
<text text-anchor="middle" x="177.5" y="-63.5" font-family="Helvetica,sans-Serif" font-size="10.00">vector</text>
</a>
</g>
</g>
<!-- Node1&#45;&gt;Node3 -->
<g id="edge2" class="edge">
<title>Node1&#45;&gt;Node3</title>
<path fill="none" stroke="midnightblue" d="M371.66,-280.4C344.86,-272.23 313.2,-260.28 287.5,-244 233.08,-209.53 221.81,-190.8 195.5,-132 188.77,-116.97 184.01,-98.84 181.07,-85.55"/>
<polygon fill="midnightblue" stroke="midnightblue" points="184.49,-84.78 179.04,-75.7 177.64,-86.2 184.49,-84.78"/>
</g>
<!-- Node4 -->
<g id="node4" class="node">
<title>Node4</title>
<g id="a_node4"><a xlink:title=" ">
<polygon fill="none" stroke="#bfbfbf" points="0,-56.5 0,-75.5 59,-75.5 59,-56.5 0,-56.5"/>
<text text-anchor="middle" x="29.5" y="-63.5" font-family="Helvetica,sans-Serif" font-size="10.00">stdexcept</text>
</a>
</g>
</g>
<!-- Node1&#45;&gt;Node4 -->
<g id="edge3" class="edge">
<title>Node1&#45;&gt;Node4</title>
<path fill="none" stroke="midnightblue" d="M355.88,-290.32C273.65,-284.37 145.96,-271.01 106.5,-244 52.37,-206.95 36,-123.07 31.29,-85.64"/>
<polygon fill="midnightblue" stroke="midnightblue" points="34.76,-85.17 30.18,-75.62 27.8,-85.94 34.76,-85.17"/>
</g>
<!-- Node5 -->
<g id="node5" class="node">
<title>Node5</title>
<g id="a_node5"><a xlink:title=" ">
<polygon fill="none" stroke="#bfbfbf" points="559.5,-0.5 559.5,-19.5 603.5,-19.5 603.5,-0.5 559.5,-0.5"/>
<text text-anchor="middle" x="581.5" y="-7.5" font-family="Helvetica,sans-Serif" font-size="10.00">cmath</text>
</a>
</g>
</g>
<!-- Node1&#45;&gt;Node5 -->
<g id="edge4" class="edge">
<title>Node1&#45;&gt;Node5</title>
<path fill="none" stroke="midnightblue" d="M480.56,-280.38C526.93,-264.27 587.5,-232.91 587.5,-179 587.5,-179 587.5,-179 587.5,-121 587.5,-88.9 584.92,-51.61 583.14,-29.73"/>
<polygon fill="midnightblue" stroke="midnightblue" points="586.61,-29.22 582.28,-19.55 579.64,-29.81 586.61,-29.22"/>
</g>
<!-- Node6 -->
<g id="node6" class="node">
<title>Node6</title>
<g id="a_node6"><a xlink:href="../../da/d15/grid_8h.html" target="_top" xlink:title=" ">
<polygon fill="none" stroke="black" points="297,-224.5 297,-243.5 338,-243.5 338,-224.5 297,-224.5"/>
<text text-anchor="middle" x="317.5" y="-231.5" font-family="Helvetica,sans-Serif" font-size="10.00">grid.h</text>
</a>
</g>
</g>
<!-- Node1&#45;&gt;Node6 -->
<g id="edge5" class="edge">
<title>Node1&#45;&gt;Node6</title>
<path fill="none" stroke="midnightblue" d="M402.19,-280.4C384.24,-270.77 360.58,-258.09 342.83,-248.58"/>
<polygon fill="midnightblue" stroke="midnightblue" points="344.12,-245.3 333.65,-243.66 340.81,-251.47 344.12,-245.3"/>
</g>
<!-- Node11 -->
<g id="node11" class="node">
<title>Node11</title>
<g id="a_node11"><a xlink:href="../../d5/d60/utils_8h.html" target="_top" xlink:title=" ">
<polygon fill="none" stroke="black" points="68,-112.5 68,-131.5 111,-131.5 111,-112.5 68,-112.5"/>
<text text-anchor="middle" x="89.5" y="-119.5" font-family="Helvetica,sans-Serif" font-size="10.00">utils.h</text>
</a>
</g>
</g>
<!-- Node1&#45;&gt;Node11 -->
<g id="edge33" class="edge">
<title>Node1&#45;&gt;Node11</title>
<path fill="none" stroke="midnightblue" d="M355.85,-291.1C277.3,-285.95 158.83,-273.43 125.5,-244 95.89,-217.85 90.13,-168.54 89.31,-141.64"/>
<polygon fill="midnightblue" stroke="midnightblue" points="92.81,-141.59 89.21,-131.62 85.81,-141.66 92.81,-141.59"/>
</g>
<!-- Node14 -->
<g id="node14" class="node">
<title>Node14</title>
<g id="a_node14"><a xlink:title=" ">
<polygon fill="none" stroke="#bfbfbf" points="391.5,-112.5 391.5,-131.5 445.5,-131.5 445.5,-112.5 391.5,-112.5"/>
<text text-anchor="middle" x="418.5" y="-119.5" font-family="Helvetica,sans-Serif" font-size="10.00">iostream</text>
</a>
</g>
</g>
<!-- Node1&#45;&gt;Node14 -->
<g id="edge32" class="edge">
<title>Node1&#45;&gt;Node14</title>
<path fill="none" stroke="midnightblue" d="M427.68,-280.47C425.89,-249.7 421.61,-176.33 419.59,-141.7"/>
<polygon fill="midnightblue" stroke="midnightblue" points="423.08,-141.34 419,-131.56 416.09,-141.75 423.08,-141.34"/>
</g>
<!-- Node18 -->
<g id="node18" class="node">
<title>Node18</title>
<g id="a_node18"><a xlink:href="../../db/d16/config_8h.html" target="_top" xlink:title=" ">
<polygon fill="none" stroke="black" points="615.5,-224.5 615.5,-243.5 665.5,-243.5 665.5,-224.5 615.5,-224.5"/>
<text text-anchor="middle" x="640.5" y="-231.5" font-family="Helvetica,sans-Serif" font-size="10.00">config.h</text>
</a>
</g>
</g>
<!-- Node1&#45;&gt;Node18 -->
<g id="edge31" class="edge">
<title>Node1&#45;&gt;Node18</title>
<path fill="none" stroke="midnightblue" d="M478.47,-280.47C517.58,-269.5 570.97,-254.52 605.59,-244.8"/>
<polygon fill="midnightblue" stroke="midnightblue" points="606.58,-248.16 615.26,-242.08 604.68,-241.42 606.58,-248.16"/>
</g>
<!-- Node6&#45;&gt;Node2 -->
<g id="edge30" class="edge">
<title>Node6&#45;&gt;Node2</title>
<path fill="none" stroke="midnightblue" d="M338.25,-228.36C362.15,-222.23 401.7,-209.6 429.5,-188 466.62,-159.16 495.24,-110.63 508.82,-84.65"/>
<polygon fill="midnightblue" stroke="midnightblue" points="512.01,-86.1 513.42,-75.6 505.77,-82.93 512.01,-86.1"/>
</g>
<!-- Node6&#45;&gt;Node3 -->
<g id="edge6" class="edge">
<title>Node6&#45;&gt;Node3</title>
<path fill="none" stroke="midnightblue" d="M301.15,-224.47C286.85,-216.44 266.13,-203.37 251.5,-188 221.35,-156.32 197.41,-110.35 185.58,-85.17"/>
<polygon fill="midnightblue" stroke="midnightblue" points="188.62,-83.39 181.27,-75.76 182.25,-86.3 188.62,-83.39"/>
</g>
<!-- Node6&#45;&gt;Node4 -->
<g id="edge7" class="edge">
<title>Node6&#45;&gt;Node4</title>
<path fill="none" stroke="midnightblue" d="M296.97,-231.03C248.23,-225.25 124.7,-203.9 58.5,-132 46.35,-118.8 38.65,-99.67 34.27,-85.57"/>
<polygon fill="midnightblue" stroke="midnightblue" points="37.52,-84.23 31.44,-75.56 30.79,-86.14 37.52,-84.23"/>
</g>
<!-- Node7 -->
<g id="node7" class="node">
<title>Node7</title>
<g id="a_node7"><a xlink:href="../../d5/d5a/field_8h.html" target="_top" xlink:title=" ">
<polygon fill="none" stroke="black" points="429.5,-56.5 429.5,-75.5 471.5,-75.5 471.5,-56.5 429.5,-56.5"/>
<text text-anchor="middle" x="450.5" y="-63.5" font-family="Helvetica,sans-Serif" font-size="10.00">field.h</text>
</a>
</g>
</g>
<!-- Node6&#45;&gt;Node7 -->
<g id="edge8" class="edge">
<title>Node6&#45;&gt;Node7</title>
<path fill="none" stroke="midnightblue" d="M338.1,-225.04C369.94,-211.48 429.98,-180.53 454.5,-132 461.82,-117.51 459.67,-98.82 456.37,-85.2"/>
<polygon fill="midnightblue" stroke="midnightblue" points="459.73,-84.22 453.64,-75.55 452.99,-86.13 459.73,-84.22"/>
</g>
<!-- Node6&#45;&gt;Node11 -->
<g id="edge13" class="edge">
<title>Node6&#45;&gt;Node11</title>
<path fill="none" stroke="midnightblue" d="M296.98,-226.13C273.47,-218.01 234.01,-203.62 201.5,-188 169.23,-172.49 133.77,-151.13 111.57,-137.19"/>
<polygon fill="midnightblue" stroke="midnightblue" points="113.24,-134.1 102.92,-131.71 109.5,-140.02 113.24,-134.1"/>
</g>
<!-- Node13 -->
<g id="node13" class="node">
<title>Node13</title>
<g id="a_node13"><a xlink:href="../../dc/d5f/country_8h.html" target="_top" xlink:title=" ">
<polygon fill="none" stroke="black" points="261,-168.5 261,-187.5 318,-187.5 318,-168.5 261,-168.5"/>
<text text-anchor="middle" x="289.5" y="-175.5" font-family="Helvetica,sans-Serif" font-size="10.00">country.h</text>
</a>
</g>
</g>
<!-- Node6&#45;&gt;Node13 -->
<g id="edge17" class="edge">
<title>Node6&#45;&gt;Node13</title>
<path fill="none" stroke="midnightblue" d="M312.88,-224.08C309.04,-216.69 303.48,-205.95 298.74,-196.81"/>
<polygon fill="midnightblue" stroke="midnightblue" points="301.75,-195.02 294.04,-187.75 295.53,-198.24 301.75,-195.02"/>
</g>
<!-- Node17 -->
<g id="node17" class="node">
<title>Node17</title>
<g id="a_node17"><a xlink:href="../../dd/dae/district_8h.html" target="_top" xlink:title=" ">
<polygon fill="none" stroke="black" points="319.5,-112.5 319.5,-131.5 373.5,-131.5 373.5,-112.5 319.5,-112.5"/>
<text text-anchor="middle" x="346.5" y="-119.5" font-family="Helvetica,sans-Serif" font-size="10.00">district.h</text>
</a>
</g>
</g>
<!-- Node6&#45;&gt;Node17 -->
<g id="edge29" class="edge">
<title>Node6&#45;&gt;Node17</title>
<path fill="none" stroke="midnightblue" d="M319.78,-224.37C324.48,-206.54 335.35,-165.3 341.68,-141.27"/>
<polygon fill="midnightblue" stroke="midnightblue" points="345.07,-142.15 344.23,-131.59 338.3,-140.37 345.07,-142.15"/>
</g>
<!-- Node7&#45;&gt;Node5 -->
<g id="edge12" class="edge">
<title>Node7&#45;&gt;Node5</title>
<path fill="none" stroke="midnightblue" d="M471.26,-56.44C492.82,-47.56 526.76,-33.56 551.29,-23.45"/>
<polygon fill="midnightblue" stroke="midnightblue" points="552.93,-26.56 560.84,-19.52 550.26,-20.09 552.93,-26.56"/>
</g>
<!-- Node8 -->
<g id="node8" class="node">
<title>Node8</title>
<g id="a_node8"><a xlink:title=" ">
<polygon fill="none" stroke="#bfbfbf" points="495,-0.5 495,-19.5 530,-19.5 530,-0.5 495,-0.5"/>
<text text-anchor="middle" x="512.5" y="-7.5" font-family="Helvetica,sans-Serif" font-size="10.00">map</text>
</a>
</g>
</g>
<!-- Node7&#45;&gt;Node8 -->
<g id="edge9" class="edge">
<title>Node7&#45;&gt;Node8</title>
<path fill="none" stroke="midnightblue" d="M460.46,-56.32C469.63,-48.34 483.44,-36.31 494.53,-26.65"/>
<polygon fill="midnightblue" stroke="midnightblue" points="497.12,-29.04 502.36,-19.83 492.52,-23.76 497.12,-29.04"/>
</g>
<!-- Node9 -->
<g id="node9" class="node">
<title>Node9</title>
<g id="a_node9"><a xlink:title=" ">
<polygon fill="none" stroke="#bfbfbf" points="363,-0.5 363,-19.5 406,-19.5 406,-0.5 363,-0.5"/>
<text text-anchor="middle" x="384.5" y="-7.5" font-family="Helvetica,sans-Serif" font-size="10.00">queue</text>
</a>
</g>
</g>
<!-- Node7&#45;&gt;Node9 -->
<g id="edge10" class="edge">
<title>Node7&#45;&gt;Node9</title>
<path fill="none" stroke="midnightblue" d="M439.9,-56.32C430.04,-48.26 415.15,-36.08 403.28,-26.37"/>
<polygon fill="midnightblue" stroke="midnightblue" points="405.25,-23.46 395.3,-19.83 400.82,-28.88 405.25,-23.46"/>
</g>
<!-- Node10 -->
<g id="node10" class="node">
<title>Node10</title>
<g id="a_node10"><a xlink:title=" ">
<polygon fill="none" stroke="#bfbfbf" points="424.5,-0.5 424.5,-19.5 476.5,-19.5 476.5,-0.5 424.5,-0.5"/>
<text text-anchor="middle" x="450.5" y="-7.5" font-family="Helvetica,sans-Serif" font-size="10.00">sstream</text>
</a>
</g>
</g>
<!-- Node7&#45;&gt;Node10 -->
<g id="edge11" class="edge">
<title>Node7&#45;&gt;Node10</title>
<path fill="none" stroke="midnightblue" d="M450.5,-56.08C450.5,-49.01 450.5,-38.86 450.5,-29.99"/>
<polygon fill="midnightblue" stroke="midnightblue" points="454,-29.75 450.5,-19.75 447,-29.75 454,-29.75"/>
</g>
<!-- Node11&#45;&gt;Node3 -->
<g id="edge16" class="edge">
<title>Node11&#45;&gt;Node3</title>
<path fill="none" stroke="midnightblue" d="M103.64,-112.32C117.37,-103.9 138.44,-90.97 154.56,-81.07"/>
<polygon fill="midnightblue" stroke="midnightblue" points="156.7,-83.87 163.4,-75.65 153.04,-77.9 156.7,-83.87"/>
</g>
<!-- Node11&#45;&gt;Node4 -->
<g id="edge14" class="edge">
<title>Node11&#45;&gt;Node4</title>
<path fill="none" stroke="midnightblue" d="M79.86,-112.32C70.99,-104.34 57.63,-92.31 46.89,-82.65"/>
<polygon fill="midnightblue" stroke="midnightblue" points="49.09,-79.92 39.32,-75.83 44.41,-85.13 49.09,-79.92"/>
</g>
<!-- Node12 -->
<g id="node12" class="node">
<title>Node12</title>
<g id="a_node12"><a xlink:title=" ">
<polygon fill="none" stroke="#bfbfbf" points="77,-56.5 77,-75.5 122,-75.5 122,-56.5 77,-56.5"/>
<text text-anchor="middle" x="99.5" y="-63.5" font-family="Helvetica,sans-Serif" font-size="10.00">climits</text>
</a>
</g>
</g>
<!-- Node11&#45;&gt;Node12 -->
<g id="edge15" class="edge">
<title>Node11&#45;&gt;Node12</title>
<path fill="none" stroke="midnightblue" d="M91.15,-112.08C92.48,-104.93 94.38,-94.64 96.04,-85.69"/>
<polygon fill="midnightblue" stroke="midnightblue" points="99.5,-86.22 97.88,-75.75 92.62,-84.95 99.5,-86.22"/>
</g>
<!-- Node13&#45;&gt;Node3 -->
<g id="edge18" class="edge">
<title>Node13&#45;&gt;Node3</title>
<path fill="none" stroke="midnightblue" d="M280.71,-168.37C261.9,-149.89 217.51,-106.29 193.53,-82.74"/>
<polygon fill="midnightblue" stroke="midnightblue" points="195.83,-80.1 186.25,-75.59 190.93,-85.1 195.83,-80.1"/>
</g>
<!-- Node13&#45;&gt;Node11 -->
<g id="edge22" class="edge">
<title>Node13&#45;&gt;Node11</title>
<path fill="none" stroke="midnightblue" d="M260.84,-169.26C223.82,-159.27 159.57,-141.92 121.15,-131.54"/>
<polygon fill="midnightblue" stroke="midnightblue" points="121.61,-128.04 111.04,-128.82 119.78,-134.8 121.61,-128.04"/>
</g>
<!-- Node13&#45;&gt;Node14 -->
<g id="edge19" class="edge">
<title>Node13&#45;&gt;Node14</title>
<path fill="none" stroke="midnightblue" d="M309.94,-168.44C331.17,-159.56 364.6,-145.56 388.75,-135.45"/>
<polygon fill="midnightblue" stroke="midnightblue" points="390.28,-138.61 398.16,-131.52 387.58,-132.15 390.28,-138.61"/>
</g>
<!-- Node15 -->
<g id="node15" class="node">
<title>Node15</title>
<g id="a_node15"><a xlink:title=" ">
<polygon fill="none" stroke="#bfbfbf" points="246.5,-56.5 246.5,-75.5 276.5,-75.5 276.5,-56.5 246.5,-56.5"/>
<text text-anchor="middle" x="261.5" y="-63.5" font-family="Helvetica,sans-Serif" font-size="10.00">set</text>
</a>
</g>
</g>
<!-- Node13&#45;&gt;Node15 -->
<g id="edge20" class="edge">
<title>Node13&#45;&gt;Node15</title>
<path fill="none" stroke="midnightblue" d="M287.15,-168.39C284.69,-159.34 280.75,-144.69 277.5,-132 273.53,-116.5 269.2,-98.87 266.05,-85.89"/>
<polygon fill="midnightblue" stroke="midnightblue" points="269.37,-84.74 263.62,-75.84 262.57,-86.39 269.37,-84.74"/>
</g>
<!-- Node16 -->
<g id="node16" class="node">
<title>Node16</title>
<g id="a_node16"><a xlink:title=" ">
<polygon fill="none" stroke="#bfbfbf" points="302.5,-56.5 302.5,-75.5 360.5,-75.5 360.5,-56.5 302.5,-56.5"/>
<text text-anchor="middle" x="331.5" y="-63.5" font-family="Helvetica,sans-Serif" font-size="10.00">functional</text>
</a>
</g>
</g>
<!-- Node13&#45;&gt;Node16 -->
<g id="edge21" class="edge">
<title>Node13&#45;&gt;Node16</title>
<path fill="none" stroke="midnightblue" d="M291.89,-168.47C295.48,-155.93 302.69,-131.87 310.5,-112 314.05,-102.97 318.53,-93.19 322.45,-85.06"/>
<polygon fill="midnightblue" stroke="midnightblue" points="325.72,-86.34 326.98,-75.82 319.43,-83.25 325.72,-86.34"/>
</g>
<!-- Node13&#45;&gt;Node17 -->
<g id="edge23" class="edge">
<title>Node13&#45;&gt;Node17</title>
<path fill="none" stroke="midnightblue" d="M298.66,-168.32C307,-160.42 319.53,-148.55 329.68,-138.94"/>
<polygon fill="midnightblue" stroke="midnightblue" points="332.32,-141.25 337.18,-131.83 327.51,-136.17 332.32,-141.25"/>
</g>
<!-- Node17&#45;&gt;Node2 -->
<g id="edge26" class="edge">
<title>Node17&#45;&gt;Node2</title>
<path fill="none" stroke="midnightblue" d="M373.6,-112.44C402.49,-103.32 448.42,-88.81 480.61,-78.65"/>
<polygon fill="midnightblue" stroke="midnightblue" points="482.05,-81.87 490.53,-75.52 479.94,-75.19 482.05,-81.87"/>
</g>
<!-- Node17&#45;&gt;Node3 -->
<g id="edge24" class="edge">
<title>Node17&#45;&gt;Node3</title>
<path fill="none" stroke="midnightblue" d="M319.72,-112.44C289.4,-102.76 240.09,-87 208.23,-76.82"/>
<polygon fill="midnightblue" stroke="midnightblue" points="209.14,-73.43 198.55,-73.73 207.01,-80.1 209.14,-73.43"/>
</g>
<!-- Node17&#45;&gt;Node7 -->
<g id="edge25" class="edge">
<title>Node17&#45;&gt;Node7</title>
<path fill="none" stroke="midnightblue" d="M363.21,-112.32C379.81,-103.7 405.5,-90.36 424.72,-80.39"/>
<polygon fill="midnightblue" stroke="midnightblue" points="426.57,-83.37 433.83,-75.65 423.34,-77.16 426.57,-83.37"/>
</g>
<!-- Node17&#45;&gt;Node15 -->
<g id="edge27" class="edge">
<title>Node17&#45;&gt;Node15</title>
<path fill="none" stroke="midnightblue" d="M332.84,-112.32C319.58,-103.9 299.23,-90.97 283.65,-81.07"/>
<polygon fill="midnightblue" stroke="midnightblue" points="285.44,-78.06 275.12,-75.65 281.69,-83.97 285.44,-78.06"/>
</g>
<!-- Node17&#45;&gt;Node16 -->
<g id="edge28" class="edge">
<title>Node17&#45;&gt;Node16</title>
<path fill="none" stroke="midnightblue" d="M344.02,-112.08C342.01,-104.85 339.11,-94.41 336.61,-85.4"/>
<polygon fill="midnightblue" stroke="midnightblue" points="339.98,-84.45 333.93,-75.75 333.24,-86.32 339.98,-84.45"/>
</g>
</g>
</svg>
        <g id="navigator" transform="translate(0 0)" fill="#404254">
                <rect fill="#f2f5e9" fill-opacity="0.5" stroke="#606060" stroke-width=".5" x="0" y="0" width="60" height="60"/>
                <use id="zoomplus" xlink:href="#zoomPlus" x="17" y="9" onmousedown="handleZoom(evt,'in')"/>
                <use id="zoomminus" xlink:href="#zoomMin" x="42" y="9" onmousedown="handleZoom(evt,'out')"/>
                <use id="reset" xlink:href="#resetDef" x="30" y="36" onmousedown="handleReset()"/>
                <g id="arrowUp" xlink:href="#dirArrow" transform="translate(30 24)" onmousedown="handlePan(0,-1)">
                  <use xlink:href="#rim" fill="#404040">
                        <set attributeName="fill" to="#808080" begin="arrowUp.mouseover" end="arrowUp.mouseout"/>
                  </use>
                  <path fill="none" stroke="white" stroke-width="1.5" d="M0,-3.0v7 M-2.5,-0.5L0,-3.0L2.5,-0.5"/>
                </g>
                <g id="arrowRight" xlink:href="#dirArrow" transform="rotate(90) translate(36 -43)" onmousedown="handlePan(1,0)">
                  <use xlink:href="#rim" fill="#404040">
                        <set attributeName="fill" to="#808080" begin="arrowRight.mouseover" end="arrowRight.mouseout"/>
                  </use>
                  <path fill="none" stroke="white" stroke-width="1.5" d="M0,-3.0v7 M-2.5,-0.5L0,-3.0L2.5,-0.5"/>
                </g>
                <g id="arrowDown" xlink:href="#dirArrow" transform="rotate(180) translate(-30 -48)" onmousedown="handlePan(0,1)">
                  <use xlink:href="#rim" fill="#404040">
                        <set attributeName="fill" to="#808080" begin="arrowDown.mouseover" end="arrowDown.mouseout"/>
                  </use>
                  <path fill="none" stroke="white" stroke-width="1.5" d="M0,-3.0v7 M-2.5,-0.5L0,-3.0L2.5,-0.5"/>
                </g>
                <g id="arrowLeft" xlink:href="#dirArrow" transform="rotate(270) translate(-36 17)" onmousedown="handlePan(-1,0)">
                  <use xlink:href="#rim" fill="#404040">
                        <set attributeName="fill" to="#808080" begin="arrowLeft.mouseover" end="arrowLeft.mouseout"/>
                  </use>
                  <path fill="none" stroke="white" stroke-width="1.5" d="M0,-3.0v7 M-2.5,-0.5L0,-3.0L2.5,-0.5"/>
                </g>
        </g>
        <svg viewBox="0 0 15 15" width="100%" height="30px" preserveAspectRatio="xMaxYMin meet">
         <g id="arrow_out" transform="scale(0.3 0.3)">
          <a xlink:href="logic_8h__incl_org.svg" target="_base">
           <rect id="button" ry="5" rx="5" y="6" x="6" height="38" width="38"
                fill="#f2f5e9" fill-opacity="0.5" stroke="#606060" stroke-width="1.0"/>
           <path id="arrow"
             d="M 11.500037,31.436501 C 11.940474,20.09759 22.043105,11.32322 32.158766,21.979434 L 37.068811,17.246167 C 37.068811,17.246167 37.088388,32 37.088388,32 L 22.160133,31.978069 C 22.160133,31.978069 26.997745,27.140456 26.997745,27.140456 C 18.528582,18.264221 13.291696,25.230495 11.500037,31.436501 z"
             style="fill:#404040;"/>
          </a>
         </g>
        </svg>
</svg>
