<?xml version="1.0" encoding="UTF-8" standalone="no"?>
<!DOCTYPE svg PUBLIC "-//W3C//DTD SVG 1.1//EN"
 "http://www.w3.org/Graphics/SVG/1.1/DTD/svg11.dtd">
<!-- Generated by graphviz version 2.44.1 (20200629.0846)
 -->
<!-- Title: C:/Users/lukac/CLionProjects/virus_real/src/graphalgos.h Pages: 1 -->
<svg width="687pt" height="374pt"
 viewBox="0.00 0.00 687.00 374.00" xmlns="http://www.w3.org/2000/svg" xmlns:xlink="http://www.w3.org/1999/xlink">
<g id="graph0" class="graph" transform="scale(1 1) rotate(0) translate(4 370)">
<title>C:/Users/lukac/CLionProjects/virus_real/src/graphalgos.h</title>
<!-- Node1 -->
<g id="node1" class="node">
<title>Node1</title>
<g id="a_node1"><a xlink:title=" ">
<polygon fill="#bfbfbf" stroke="black" points="244,-335.5 244,-365.5 389,-365.5 389,-335.5 244,-335.5"/>
<text text-anchor="start" x="252" y="-353.5" font-family="Helvetica,sans-Serif" font-size="10.00">C:/Users/lukac/CLionProjects</text>
<text text-anchor="middle" x="316.5" y="-342.5" font-family="Helvetica,sans-Serif" font-size="10.00">/virus_real/src/graphalgos.h</text>
</a>
</g>
</g>
<!-- Node2 -->
<g id="node2" class="node">
<title>Node2</title>
<g id="a_node2"><a xlink:href="../../d1/df3/ai_8h.html" target="_top" xlink:title=" ">
<polygon fill="none" stroke="black" points="162,-268.5 162,-298.5 307,-298.5 307,-268.5 162,-268.5"/>
<text text-anchor="start" x="170" y="-286.5" font-family="Helvetica,sans-Serif" font-size="10.00">C:/Users/lukac/CLionProjects</text>
<text text-anchor="middle" x="234.5" y="-275.5" font-family="Helvetica,sans-Serif" font-size="10.00">/virus_real/src/ai.h</text>
</a>
</g>
</g>
<!-- Node1&#45;&gt;Node2 -->
<g id="edge1" class="edge">
<title>Node1&#45;&gt;Node2</title>
<path fill="none" stroke="midnightblue" d="M290.85,-329.17C278.31,-319.23 263.53,-307.51 252.26,-298.58"/>
<polygon fill="midnightblue" stroke="midnightblue" points="288.7,-331.93 298.71,-335.4 293.04,-326.44 288.7,-331.93"/>
</g>
<!-- Node15 -->
<g id="node15" class="node">
<title>Node15</title>
<g id="a_node15"><a xlink:href="../../d0/d23/graphalgos_8cpp.html" target="_top" xlink:title=" ">
<polygon fill="none" stroke="black" points="325.5,-268.5 325.5,-298.5 471.5,-298.5 471.5,-268.5 325.5,-268.5"/>
<text text-anchor="start" x="333.5" y="-286.5" font-family="Helvetica,sans-Serif" font-size="10.00">C:/Users/lukac/CLionProjects</text>
<text text-anchor="middle" x="398.5" y="-275.5" font-family="Helvetica,sans-Serif" font-size="10.00">/virus_real/src/graphalgos.cpp</text>
</a>
</g>
</g>
<!-- Node1&#45;&gt;Node15 -->
<g id="edge17" class="edge">
<title>Node1&#45;&gt;Node15</title>
<path fill="none" stroke="midnightblue" d="M342.15,-329.17C354.69,-319.23 369.47,-307.51 380.74,-298.58"/>
<polygon fill="midnightblue" stroke="midnightblue" points="339.96,-326.44 334.29,-335.4 344.3,-331.93 339.96,-326.44"/>
</g>
<!-- Node3 -->
<g id="node3" class="node">
<title>Node3</title>
<g id="a_node3"><a xlink:href="../../d1/d4a/ai_8cpp.html" target="_top" xlink:title=" ">
<polygon fill="none" stroke="black" points="81,-201.5 81,-231.5 226,-231.5 226,-201.5 81,-201.5"/>
<text text-anchor="start" x="89" y="-219.5" font-family="Helvetica,sans-Serif" font-size="10.00">C:/Users/lukac/CLionProjects</text>
<text text-anchor="middle" x="153.5" y="-208.5" font-family="Helvetica,sans-Serif" font-size="10.00">/virus_real/src/ai.cpp</text>
</a>
</g>
</g>
<!-- Node2&#45;&gt;Node3 -->
<g id="edge2" class="edge">
<title>Node2&#45;&gt;Node3</title>
<path fill="none" stroke="midnightblue" d="M208.81,-261.88C196.5,-252.01 182.07,-240.43 171.04,-231.58"/>
<polygon fill="midnightblue" stroke="midnightblue" points="206.93,-264.87 216.92,-268.4 211.32,-259.41 206.93,-264.87"/>
</g>
<!-- Node4 -->
<g id="node4" class="node">
<title>Node4</title>
<g id="a_node4"><a xlink:href="../../db/db2/iface_8h.html" target="_top" xlink:title=" ">
<polygon fill="none" stroke="black" points="244,-201.5 244,-231.5 389,-231.5 389,-201.5 244,-201.5"/>
<text text-anchor="start" x="252" y="-219.5" font-family="Helvetica,sans-Serif" font-size="10.00">C:/Users/lukac/CLionProjects</text>
<text text-anchor="middle" x="316.5" y="-208.5" font-family="Helvetica,sans-Serif" font-size="10.00">/virus_real/src/iface.h</text>
</a>
</g>
</g>
<!-- Node2&#45;&gt;Node4 -->
<g id="edge3" class="edge">
<title>Node2&#45;&gt;Node4</title>
<path fill="none" stroke="midnightblue" d="M260.15,-262.17C272.69,-252.23 287.47,-240.51 298.74,-231.58"/>
<polygon fill="midnightblue" stroke="midnightblue" points="257.96,-259.44 252.29,-268.4 262.3,-264.93 257.96,-259.44"/>
</g>
<!-- Node4&#45;&gt;Node4 -->
<g id="edge10" class="edge">
<title>Node4&#45;&gt;Node4</title>
<path fill="none" stroke="midnightblue" d="M399.19,-225C404.07,-222.97 407,-220.13 407,-216.5 407,-210.83 399.87,-207.11 389.29,-205.33"/>
<polygon fill="midnightblue" stroke="midnightblue" points="398.03,-221.69 389.29,-227.67 399.85,-228.45 398.03,-221.69"/>
</g>
<!-- Node5 -->
<g id="node5" class="node">
<title>Node5</title>
<g id="a_node5"><a xlink:href="../../d7/d04/graphics_8h.html" target="_top" xlink:title=" ">
<polygon fill="none" stroke="black" points="0,-134.5 0,-164.5 145,-164.5 145,-134.5 0,-134.5"/>
<text text-anchor="start" x="8" y="-152.5" font-family="Helvetica,sans-Serif" font-size="10.00">C:/Users/lukac/CLionProjects</text>
<text text-anchor="middle" x="72.5" y="-141.5" font-family="Helvetica,sans-Serif" font-size="10.00">/virus_real/src/graphics.h</text>
</a>
</g>
</g>
<!-- Node4&#45;&gt;Node5 -->
<g id="edge4" class="edge">
<title>Node4&#45;&gt;Node5</title>
<path fill="none" stroke="midnightblue" d="M254,-198.85C214.22,-188.25 163.26,-174.68 125.47,-164.61"/>
<polygon fill="midnightblue" stroke="midnightblue" points="253.29,-202.28 263.86,-201.48 255.09,-195.52 253.29,-202.28"/>
</g>
<!-- Node10 -->
<g id="node10" class="node">
<title>Node10</title>
<g id="a_node10"><a xlink:href="../../dc/d59/iface_8cpp.html" target="_top" xlink:title=" ">
<polygon fill="none" stroke="black" points="163,-134.5 163,-164.5 308,-164.5 308,-134.5 163,-134.5"/>
<text text-anchor="start" x="171" y="-152.5" font-family="Helvetica,sans-Serif" font-size="10.00">C:/Users/lukac/CLionProjects</text>
<text text-anchor="middle" x="235.5" y="-141.5" font-family="Helvetica,sans-Serif" font-size="10.00">/virus_real/src/iface.cpp</text>
</a>
</g>
</g>
<!-- Node4&#45;&gt;Node10 -->
<g id="edge9" class="edge">
<title>Node4&#45;&gt;Node10</title>
<path fill="none" stroke="midnightblue" d="M290.81,-194.88C278.5,-185.01 264.07,-173.43 253.04,-164.58"/>
<polygon fill="midnightblue" stroke="midnightblue" points="288.93,-197.87 298.92,-201.4 293.32,-192.41 288.93,-197.87"/>
</g>
<!-- Node11 -->
<g id="node11" class="node">
<title>Node11</title>
<g id="a_node11"><a xlink:href="../../d2/d5e/protocol_8h.html" target="_top" xlink:title=" ">
<polygon fill="none" stroke="black" points="326,-134.5 326,-164.5 471,-164.5 471,-134.5 326,-134.5"/>
<text text-anchor="start" x="334" y="-152.5" font-family="Helvetica,sans-Serif" font-size="10.00">C:/Users/lukac/CLionProjects</text>
<text text-anchor="middle" x="398.5" y="-141.5" font-family="Helvetica,sans-Serif" font-size="10.00">/virus_real/src/protocol.h</text>
</a>
</g>
</g>
<!-- Node4&#45;&gt;Node11 -->
<g id="edge11" class="edge">
<title>Node4&#45;&gt;Node11</title>
<path fill="none" stroke="midnightblue" d="M342.15,-195.17C354.69,-185.23 369.47,-173.51 380.74,-164.58"/>
<polygon fill="midnightblue" stroke="midnightblue" points="339.96,-192.44 334.29,-201.4 344.3,-197.93 339.96,-192.44"/>
</g>
<!-- Node13 -->
<g id="node13" class="node">
<title>Node13</title>
<g id="a_node13"><a xlink:href="../../d2/d02/visualization_8h.html" target="_top" xlink:title=" ">
<polygon fill="none" stroke="black" points="489,-134.5 489,-164.5 634,-164.5 634,-134.5 489,-134.5"/>
<text text-anchor="start" x="497" y="-152.5" font-family="Helvetica,sans-Serif" font-size="10.00">C:/Users/lukac/CLionProjects</text>
<text text-anchor="middle" x="561.5" y="-141.5" font-family="Helvetica,sans-Serif" font-size="10.00">/virus_real/src/visualization.h</text>
</a>
</g>
</g>
<!-- Node4&#45;&gt;Node13 -->
<g id="edge14" class="edge">
<title>Node4&#45;&gt;Node13</title>
<path fill="none" stroke="midnightblue" d="M379.26,-198.85C419.2,-188.25 470.37,-174.68 508.31,-164.61"/>
<polygon fill="midnightblue" stroke="midnightblue" points="378.13,-195.53 369.36,-201.48 379.92,-202.29 378.13,-195.53"/>
</g>
<!-- Node6 -->
<g id="node6" class="node">
<title>Node6</title>
<g id="a_node6"><a xlink:href="../../d3/d5b/anti_virus_8h.html" target="_top" xlink:title=" ">
<polygon fill="none" stroke="black" points="163,-67.5 163,-97.5 308,-97.5 308,-67.5 163,-67.5"/>
<text text-anchor="start" x="171" y="-85.5" font-family="Helvetica,sans-Serif" font-size="10.00">C:/Users/lukac/CLionProjects</text>
<text text-anchor="middle" x="235.5" y="-74.5" font-family="Helvetica,sans-Serif" font-size="10.00">/virus_real/src/antiVirus.h</text>
</a>
</g>
</g>
<!-- Node5&#45;&gt;Node6 -->
<g id="edge5" class="edge">
<title>Node5&#45;&gt;Node6</title>
<path fill="none" stroke="midnightblue" d="M117.18,-130.68C143.33,-120.26 175.87,-107.28 200.2,-97.58"/>
<polygon fill="midnightblue" stroke="midnightblue" points="115.86,-127.44 107.87,-134.4 118.45,-133.94 115.86,-127.44"/>
</g>
<!-- Node9 -->
<g id="node9" class="node">
<title>Node9</title>
<g id="a_node9"><a xlink:href="../../d6/d99/graphics_8cpp.html" target="_top" xlink:title=" ">
<polygon fill="none" stroke="black" points="0,-67.5 0,-97.5 145,-97.5 145,-67.5 0,-67.5"/>
<text text-anchor="start" x="8" y="-85.5" font-family="Helvetica,sans-Serif" font-size="10.00">C:/Users/lukac/CLionProjects</text>
<text text-anchor="middle" x="72.5" y="-74.5" font-family="Helvetica,sans-Serif" font-size="10.00">/virus_real/src/graphics.cpp</text>
</a>
</g>
</g>
<!-- Node5&#45;&gt;Node9 -->
<g id="edge8" class="edge">
<title>Node5&#45;&gt;Node9</title>
<path fill="none" stroke="midnightblue" d="M72.5,-124.11C72.5,-115.15 72.5,-105.32 72.5,-97.58"/>
<polygon fill="midnightblue" stroke="midnightblue" points="69,-124.4 72.5,-134.4 76,-124.4 69,-124.4"/>
</g>
<!-- Node7 -->
<g id="node7" class="node">
<title>Node7</title>
<g id="a_node7"><a xlink:href="../../da/d6e/anti_virus_8cpp.html" target="_top" xlink:title=" ">
<polygon fill="none" stroke="black" points="163,-0.5 163,-30.5 308,-30.5 308,-0.5 163,-0.5"/>
<text text-anchor="start" x="171" y="-18.5" font-family="Helvetica,sans-Serif" font-size="10.00">C:/Users/lukac/CLionProjects</text>
<text text-anchor="middle" x="235.5" y="-7.5" font-family="Helvetica,sans-Serif" font-size="10.00">/virus_real/src/antiVirus.cpp</text>
</a>
</g>
</g>
<!-- Node6&#45;&gt;Node7 -->
<g id="edge6" class="edge">
<title>Node6&#45;&gt;Node7</title>
<path fill="none" stroke="midnightblue" d="M235.5,-57.11C235.5,-48.15 235.5,-38.32 235.5,-30.58"/>
<polygon fill="midnightblue" stroke="midnightblue" points="232,-57.4 235.5,-67.4 239,-57.4 232,-57.4"/>
</g>
<!-- Node8 -->
<g id="node8" class="node">
<title>Node8</title>
<g id="a_node8"><a xlink:href="../../df/d0a/main_8cpp.html" target="_top" xlink:title=" ">
<polygon fill="none" stroke="black" points="376,-0.5 376,-30.5 521,-30.5 521,-0.5 376,-0.5"/>
<text text-anchor="start" x="384" y="-18.5" font-family="Helvetica,sans-Serif" font-size="10.00">C:/Users/lukac/CLionProjects</text>
<text text-anchor="middle" x="448.5" y="-7.5" font-family="Helvetica,sans-Serif" font-size="10.00">/virus_real/src/main.cpp</text>
</a>
</g>
</g>
<!-- Node6&#45;&gt;Node8 -->
<g id="edge7" class="edge">
<title>Node6&#45;&gt;Node8</title>
<path fill="none" stroke="midnightblue" d="M291.39,-64.44C325.92,-53.91 369.69,-40.55 402.26,-30.61"/>
<polygon fill="midnightblue" stroke="midnightblue" points="290,-61.21 281.46,-67.48 292.04,-67.9 290,-61.21"/>
</g>
<!-- Node11&#45;&gt;Node6 -->
<g id="edge12" class="edge">
<title>Node11&#45;&gt;Node6</title>
<path fill="none" stroke="midnightblue" d="M353.82,-130.68C327.67,-120.26 295.13,-107.28 270.8,-97.58"/>
<polygon fill="midnightblue" stroke="midnightblue" points="352.55,-133.94 363.13,-134.4 355.14,-127.44 352.55,-133.94"/>
</g>
<!-- Node12 -->
<g id="node12" class="node">
<title>Node12</title>
<g id="a_node12"><a xlink:href="../../d4/d25/protocol_8cpp.html" target="_top" xlink:title=" ">
<polygon fill="none" stroke="black" points="326,-67.5 326,-97.5 471,-97.5 471,-67.5 326,-67.5"/>
<text text-anchor="start" x="334" y="-85.5" font-family="Helvetica,sans-Serif" font-size="10.00">C:/Users/lukac/CLionProjects</text>
<text text-anchor="middle" x="398.5" y="-74.5" font-family="Helvetica,sans-Serif" font-size="10.00">/virus_real/src/protocol.cpp</text>
</a>
</g>
</g>
<!-- Node11&#45;&gt;Node12 -->
<g id="edge13" class="edge">
<title>Node11&#45;&gt;Node12</title>
<path fill="none" stroke="midnightblue" d="M398.5,-124.11C398.5,-115.15 398.5,-105.32 398.5,-97.58"/>
<polygon fill="midnightblue" stroke="midnightblue" points="395,-124.4 398.5,-134.4 402,-124.4 395,-124.4"/>
</g>
<!-- Node13&#45;&gt;Node8 -->
<g id="edge15" class="edge">
<title>Node13&#45;&gt;Node8</title>
<path fill="none" stroke="midnightblue" d="M542.7,-126.54C519.34,-99.25 480.16,-53.48 460.51,-30.52"/>
<polygon fill="midnightblue" stroke="midnightblue" points="540.24,-129.05 549.41,-134.37 545.56,-124.5 540.24,-129.05"/>
</g>
<!-- Node14 -->
<g id="node14" class="node">
<title>Node14</title>
<g id="a_node14"><a xlink:href="../../d3/d49/visualization_8cpp.html" target="_top" xlink:title=" ">
<polygon fill="none" stroke="black" points="528,-67.5 528,-97.5 679,-97.5 679,-67.5 528,-67.5"/>
<text text-anchor="start" x="536" y="-85.5" font-family="Helvetica,sans-Serif" font-size="10.00">C:/Users/lukac/CLionProjects</text>
<text text-anchor="middle" x="603.5" y="-74.5" font-family="Helvetica,sans-Serif" font-size="10.00">/virus_real/src/visualization.cpp</text>
</a>
</g>
</g>
<!-- Node13&#45;&gt;Node14 -->
<g id="edge16" class="edge">
<title>Node13&#45;&gt;Node14</title>
<path fill="none" stroke="midnightblue" d="M576.12,-125.87C582.2,-116.46 589.07,-105.83 594.4,-97.58"/>
<polygon fill="midnightblue" stroke="midnightblue" points="573.1,-124.1 570.61,-134.4 578.98,-127.9 573.1,-124.1"/>
</g>
</g>
</svg>
