<?xml version="1.0" encoding="UTF-8" standalone="no"?>
<!DOCTYPE svg PUBLIC "-//W3C//DTD SVG 1.1//EN"
 "http://www.w3.org/Graphics/SVG/1.1/DTD/svg11.dtd">
<!-- Generated by graphviz version 2.44.1 (20200629.0846)
 -->
<!-- Title: Utils::Random::getFactor Pages: 1 -->
<svg width="920pt" height="225pt"
 viewBox="0.00 0.00 920.00 224.50" xmlns="http://www.w3.org/2000/svg" xmlns:xlink="http://www.w3.org/1999/xlink">
<g id="graph0" class="graph" transform="scale(1 1) rotate(0) translate(4 220.5)">
<title>Utils::Random::getFactor</title>
<!-- Node1 -->
<g id="node1" class="node">
<title>Node1</title>
<g id="a_node1"><a xlink:title=" ">
<polygon fill="#bfbfbf" stroke="black" points="787,-93.5 787,-112.5 912,-112.5 912,-93.5 787,-93.5"/>
<text text-anchor="middle" x="849.5" y="-100.5" font-family="Helvetica,sans-Serif" font-size="10.00">Utils::Random::getFactor</text>
</a>
</g>
</g>
<!-- Node2 -->
<g id="node2" class="node">
<title>Node2</title>
<g id="a_node2"><a xlink:href="../../da/df6/class_logic.html#acf435c045c675cb3ad14f7bf8732940e" target="_top" xlink:title=" ">
<polygon fill="none" stroke="black" points="609,-186 609,-216 751,-216 751,-186 609,-186"/>
<text text-anchor="start" x="617" y="-204" font-family="Helvetica,sans-Serif" font-size="10.00">Logic::calculateSpontaneous</text>
<text text-anchor="middle" x="680" y="-193" font-family="Helvetica,sans-Serif" font-size="10.00">Healing</text>
</a>
</g>
</g>
<!-- Node1&#45;&gt;Node2 -->
<g id="edge1" class="edge">
<title>Node1&#45;&gt;Node2</title>
<path fill="none" stroke="midnightblue" d="M830.46,-119.53C811.75,-135.96 781.08,-160.96 751,-177 744.76,-180.32 737.98,-183.33 731.16,-185.99"/>
<polygon fill="midnightblue" stroke="midnightblue" points="833.04,-121.92 838.17,-112.65 828.38,-116.7 833.04,-121.92"/>
</g>
<!-- Node9 -->
<g id="node9" class="node">
<title>Node9</title>
<g id="a_node9"><a xlink:href="../../da/df6/class_logic.html#a1a2ddbd7540b8ede1bcc7976d31f9836" target="_top" xlink:title=" ">
<polygon fill="none" stroke="black" points="609,-137 609,-167 751,-167 751,-137 609,-137"/>
<text text-anchor="start" x="617" y="-155" font-family="Helvetica,sans-Serif" font-size="10.00">Logic::calculateSpontaneous</text>
<text text-anchor="middle" x="680" y="-144" font-family="Helvetica,sans-Serif" font-size="10.00">HealingLEGACY</text>
</a>
</g>
</g>
<!-- Node1&#45;&gt;Node9 -->
<g id="edge8" class="edge">
<title>Node1&#45;&gt;Node9</title>
<path fill="none" stroke="midnightblue" d="M805.93,-115.45C783.55,-122 755.96,-130.07 732.4,-136.96"/>
<polygon fill="midnightblue" stroke="midnightblue" points="807.19,-118.73 815.81,-112.56 805.23,-112.01 807.19,-118.73"/>
</g>
<!-- Node10 -->
<g id="node10" class="node">
<title>Node10</title>
<g id="a_node10"><a xlink:href="../../da/df6/class_logic.html#a7399ce3a312128bf723035825d466d89" target="_top" xlink:title=" ">
<polygon fill="none" stroke="black" points="609,-88 609,-118 751,-118 751,-88 609,-88"/>
<text text-anchor="start" x="617" y="-106" font-family="Helvetica,sans-Serif" font-size="10.00">Logic::calculateSpontaneous</text>
<text text-anchor="middle" x="680" y="-95" font-family="Helvetica,sans-Serif" font-size="10.00">Infection</text>
</a>
</g>
</g>
<!-- Node1&#45;&gt;Node10 -->
<g id="edge9" class="edge">
<title>Node1&#45;&gt;Node10</title>
<path fill="none" stroke="midnightblue" d="M776.46,-103C768.05,-103 759.49,-103 751.11,-103"/>
<polygon fill="midnightblue" stroke="midnightblue" points="776.61,-106.5 786.61,-103 776.61,-99.5 776.61,-106.5"/>
</g>
<!-- Node11 -->
<g id="node11" class="node">
<title>Node11</title>
<g id="a_node11"><a xlink:href="../../da/df6/class_logic.html#a7ff7fb2511045df5fe201656025da085" target="_top" xlink:title=" ">
<polygon fill="none" stroke="black" points="609,-39 609,-69 751,-69 751,-39 609,-39"/>
<text text-anchor="start" x="617" y="-57" font-family="Helvetica,sans-Serif" font-size="10.00">Logic::calculateSpontaneous</text>
<text text-anchor="middle" x="680" y="-46" font-family="Helvetica,sans-Serif" font-size="10.00">InfectionLEGACY</text>
</a>
</g>
</g>
<!-- Node1&#45;&gt;Node11 -->
<g id="edge11" class="edge">
<title>Node1&#45;&gt;Node11</title>
<path fill="none" stroke="midnightblue" d="M805.93,-90.55C783.55,-84 755.96,-75.93 732.4,-69.04"/>
<polygon fill="midnightblue" stroke="midnightblue" points="805.23,-93.99 815.81,-93.44 807.19,-87.27 805.23,-93.99"/>
</g>
<!-- Node12 -->
<g id="node12" class="node">
<title>Node12</title>
<g id="a_node12"><a xlink:href="../../db/d16/debug_8h.html#a0d0105433f9c65c14928027b3f0966b7" target="_top" xlink:title=" ">
<polygon fill="none" stroke="black" points="658.5,-0.5 658.5,-19.5 701.5,-19.5 701.5,-0.5 658.5,-0.5"/>
<text text-anchor="middle" x="680" y="-7.5" font-family="Helvetica,sans-Serif" font-size="10.00">debug</text>
</a>
</g>
</g>
<!-- Node1&#45;&gt;Node12 -->
<g id="edge12" class="edge">
<title>Node1&#45;&gt;Node12</title>
<path fill="none" stroke="midnightblue" d="M830.59,-86.38C811.98,-69.92 781.39,-45.08 751,-30 735.26,-22.19 715.98,-16.97 701.64,-13.82"/>
<polygon fill="midnightblue" stroke="midnightblue" points="828.48,-89.19 838.25,-93.28 833.16,-83.99 828.48,-89.19"/>
</g>
<!-- Node3 -->
<g id="node3" class="node">
<title>Node3</title>
<g id="a_node3"><a xlink:href="../../da/df6/class_logic.html#a7ebaa13c8a671d82c669431478524784" target="_top" xlink:title=" ">
<polygon fill="none" stroke="black" points="478,-142.5 478,-161.5 573,-161.5 573,-142.5 478,-142.5"/>
<text text-anchor="middle" x="525.5" y="-149.5" font-family="Helvetica,sans-Serif" font-size="10.00">Logic::simulateTO</text>
</a>
</g>
</g>
<!-- Node2&#45;&gt;Node3 -->
<g id="edge2" class="edge">
<title>Node2&#45;&gt;Node3</title>
<path fill="none" stroke="midnightblue" d="M622.24,-182.76C599.85,-175.57 575.05,-167.6 556.3,-161.58"/>
<polygon fill="midnightblue" stroke="midnightblue" points="621.41,-186.17 632,-185.9 623.55,-179.51 621.41,-186.17"/>
</g>
<!-- Node4 -->
<g id="node4" class="node">
<title>Node4</title>
<g id="a_node4"><a xlink:href="../../d2/d5c/class_iface.html#ad724ec2c6a2aa884f61de19193affc6a" target="_top" xlink:title=" ">
<polygon fill="none" stroke="black" points="327,-161.5 327,-180.5 442,-180.5 442,-161.5 327,-161.5"/>
<text text-anchor="middle" x="384.5" y="-168.5" font-family="Helvetica,sans-Serif" font-size="10.00">Iface::requestLEGACY</text>
</a>
</g>
</g>
<!-- Node3&#45;&gt;Node4 -->
<g id="edge3" class="edge">
<title>Node3&#45;&gt;Node4</title>
<path fill="none" stroke="midnightblue" d="M467.78,-159.75C459.42,-160.9 450.8,-162.07 442.43,-163.22"/>
<polygon fill="midnightblue" stroke="midnightblue" points="468.39,-163.2 477.83,-158.38 467.45,-156.27 468.39,-163.2"/>
</g>
<!-- Node5 -->
<g id="node5" class="node">
<title>Node5</title>
<g id="a_node5"><a xlink:href="../../d2/d5c/class_iface.html#abae0122b800731a979c9f8e4c3a58176" target="_top" xlink:title=" ">
<polygon fill="none" stroke="black" points="351,-123.5 351,-142.5 418,-142.5 418,-123.5 351,-123.5"/>
<text text-anchor="middle" x="384.5" y="-130.5" font-family="Helvetica,sans-Serif" font-size="10.00">Iface::round</text>
</a>
</g>
</g>
<!-- Node3&#45;&gt;Node5 -->
<g id="edge4" class="edge">
<title>Node3&#45;&gt;Node5</title>
<path fill="none" stroke="midnightblue" d="M467.54,-144.21C450.75,-141.92 432.94,-139.48 418.23,-137.47"/>
<polygon fill="midnightblue" stroke="midnightblue" points="467.45,-147.73 477.83,-145.62 468.39,-140.8 467.45,-147.73"/>
</g>
<!-- Node6 -->
<g id="node6" class="node">
<title>Node6</title>
<g id="a_node6"><a xlink:href="../../d2/d5c/class_iface.html#a44e6d0db22abbce5cb8c132e5f1d4284" target="_top" xlink:title=" ">
<polygon fill="none" stroke="black" points="229,-123.5 229,-142.5 291,-142.5 291,-123.5 229,-123.5"/>
<text text-anchor="middle" x="260" y="-130.5" font-family="Helvetica,sans-Serif" font-size="10.00">Iface::start</text>
</a>
</g>
</g>
<!-- Node5&#45;&gt;Node6 -->
<g id="edge5" class="edge">
<title>Node5&#45;&gt;Node6</title>
<path fill="none" stroke="midnightblue" d="M340.6,-133C324.27,-133 306.03,-133 291.13,-133"/>
<polygon fill="midnightblue" stroke="midnightblue" points="340.99,-136.5 350.99,-133 340.99,-129.5 340.99,-136.5"/>
</g>
<!-- Node7 -->
<g id="node7" class="node">
<title>Node7</title>
<g id="a_node7"><a xlink:href="../../dc/d90/class_anti_virus.html#affe3f62a87b880cc964188d9ddb9d562" target="_top" xlink:title=" ">
<polygon fill="none" stroke="black" points="74,-123.5 74,-142.5 193,-142.5 193,-123.5 74,-123.5"/>
<text text-anchor="middle" x="133.5" y="-130.5" font-family="Helvetica,sans-Serif" font-size="10.00">AntiVirus::startInterface</text>
</a>
</g>
</g>
<!-- Node6&#45;&gt;Node7 -->
<g id="edge6" class="edge">
<title>Node6&#45;&gt;Node7</title>
<path fill="none" stroke="midnightblue" d="M218.83,-133C210.62,-133 201.82,-133 193.12,-133"/>
<polygon fill="midnightblue" stroke="midnightblue" points="218.86,-136.5 228.86,-133 218.86,-129.5 218.86,-136.5"/>
</g>
<!-- Node8 -->
<g id="node8" class="node">
<title>Node8</title>
<g id="a_node8"><a xlink:href="../../df/d0a/main_8cpp.html#ae66f6b31b5ad750f1fe042a706a4e3d4" target="_top" xlink:title=" ">
<polygon fill="none" stroke="black" points="0,-123.5 0,-142.5 38,-142.5 38,-123.5 0,-123.5"/>
<text text-anchor="middle" x="19" y="-130.5" font-family="Helvetica,sans-Serif" font-size="10.00">main</text>
</a>
</g>
</g>
<!-- Node7&#45;&gt;Node8 -->
<g id="edge7" class="edge">
<title>Node7&#45;&gt;Node8</title>
<path fill="none" stroke="midnightblue" d="M63.65,-133C54.29,-133 45.43,-133 38.16,-133"/>
<polygon fill="midnightblue" stroke="midnightblue" points="63.94,-136.5 73.94,-133 63.94,-129.5 63.94,-136.5"/>
</g>
<!-- Node10&#45;&gt;Node3 -->
<g id="edge10" class="edge">
<title>Node10&#45;&gt;Node3</title>
<path fill="none" stroke="midnightblue" d="M622.24,-121.24C599.85,-128.43 575.05,-136.4 556.3,-142.42"/>
<polygon fill="midnightblue" stroke="midnightblue" points="623.55,-124.49 632,-118.1 621.41,-117.83 623.55,-124.49"/>
</g>
</g>
</svg>
