<?xml version="1.0" encoding="UTF-8" standalone="no"?>
<!DOCTYPE svg PUBLIC "-//W3C//DTD SVG 1.1//EN"
 "http://www.w3.org/Graphics/SVG/1.1/DTD/svg11.dtd">
<!-- Generated by graphviz version 2.44.1 (20200629.0846)
 -->
<!-- Title: Utils::Random::next Pages: 1 -->
<!--zoomable 158 -->
<svg id="main" version="1.1" xmlns="http://www.w3.org/2000/svg" xmlns:xlink="http://www.w3.org/1999/xlink" xml:space="preserve" onload="init(evt)">
<style type="text/css"><![CDATA[
.edge:hover path { stroke: red; }
.edge:hover polygon { stroke: red; fill: red; }
]]></style>
<script type="text/javascript"><![CDATA[
var edges = document.getElementsByTagName('g');
if (edges && edges.length) {
  for (var i=0;i<edges.length;i++) {
    if (edges[i].id.substr(0,4)=='edge') {
      edges[i].setAttribute('class','edge');
    }
  }
}
]]></script>
        <defs>
                <circle id="rim" cx="0" cy="0" r="7"/>
                <circle id="rim2" cx="0" cy="0" r="3.5"/>
                <g id="zoomPlus">
                        <use xlink:href="#rim" fill="#404040">
                                <set attributeName="fill" to="#808080" begin="zoomplus.mouseover" end="zoomplus.mouseout"/>
                        </use>
                        <path d="M-4,0h8M0,-4v8" fill="none" stroke="white" stroke-width="1.5" pointer-events="none"/>
                </g>
                <g id="zoomMin">
                        <use xlink:href="#rim" fill="#404040">
                                <set attributeName="fill" to="#808080" begin="zoomminus.mouseover" end="zoomminus.mouseout"/>
                        </use>
                        <path d="M-4,0h8" fill="none" stroke="white" stroke-width="1.5" pointer-events="none"/>
                </g>
                <g id="dirArrow">
                        <path fill="none" stroke="white" stroke-width="1.5" d="M0,-3.0v7 M-2.5,-0.5L0,-3.0L2.5,-0.5"/>
                </g>
               <g id="resetDef">
                       <use xlink:href="#rim2" fill="#404040">
                               <set attributeName="fill" to="#808080" begin="reset.mouseover" end="reset.mouseout"/>
                       </use>
               </g>
        </defs>

<script type="text/javascript">
var viewWidth = 1076;
var viewHeight = 158;
var sectionId = 'dynsection-2';
</script>
<script xlink:href="../../svgpan.js"/>
<svg id="graph" class="graph">
<g id="viewport">
<title>Utils::Random::next</title>
<!-- Node1 -->
<g id="node1" class="node">
<title>Node1</title>
<g id="a_node1"><a xlink:title=" ">
<polygon fill="#bfbfbf" stroke="black" points="965,-66 965,-85 1068,-85 1068,-66 965,-66"/>
<text text-anchor="middle" x="1016.5" y="-73" font-family="Helvetica,sans-Serif" font-size="10.00">Utils::Random::next</text>
</a>
</g>
</g>
<!-- Node2 -->
<g id="node2" class="node">
<title>Node2</title>
<g id="a_node2"><a xlink:href="../../da/df6/class_logic.html#acf435c045c675cb3ad14f7bf8732940e" target="_top" xlink:title=" ">
<polygon fill="none" stroke="black" points="609,-119.5 609,-149.5 751,-149.5 751,-119.5 609,-119.5"/>
<text text-anchor="start" x="617" y="-137.5" font-family="Helvetica,sans-Serif" font-size="10.00">Logic::calculateSpontaneous</text>
<text text-anchor="middle" x="680" y="-126.5" font-family="Helvetica,sans-Serif" font-size="10.00">Healing</text>
</a>
</g>
</g>
<!-- Node1&#45;&gt;Node2 -->
<g id="edge1" class="edge">
<title>Node1&#45;&gt;Node2</title>
<path fill="none" stroke="midnightblue" d="M993.73,-90.94C976.92,-101.93 952.61,-115.89 929,-122.5 870.58,-138.86 801.43,-140.86 751.01,-139.34"/>
<polygon fill="midnightblue" stroke="midnightblue" points="995.91,-93.69 1002.25,-85.2 992,-87.88 995.91,-93.69"/>
</g>
<!-- Node9 -->
<g id="node9" class="node">
<title>Node9</title>
<g id="a_node9"><a xlink:href="../../da/df6/class_logic.html#a1a2ddbd7540b8ede1bcc7976d31f9836" target="_top" xlink:title=" ">
<polygon fill="none" stroke="black" points="787,-82.5 787,-112.5 929,-112.5 929,-82.5 787,-82.5"/>
<text text-anchor="start" x="795" y="-100.5" font-family="Helvetica,sans-Serif" font-size="10.00">Logic::calculateSpontaneous</text>
<text text-anchor="middle" x="858" y="-89.5" font-family="Helvetica,sans-Serif" font-size="10.00">HealingLEGACY</text>
</a>
</g>
</g>
<!-- Node1&#45;&gt;Node9 -->
<g id="edge8" class="edge">
<title>Node1&#45;&gt;Node9</title>
<path fill="none" stroke="midnightblue" d="M954.67,-84.05C946.31,-85.23 937.68,-86.44 929.18,-87.63"/>
<polygon fill="midnightblue" stroke="midnightblue" points="955.27,-87.5 964.69,-82.64 954.3,-80.57 955.27,-87.5"/>
</g>
<!-- Node10 -->
<g id="node10" class="node">
<title>Node10</title>
<g id="a_node10"><a xlink:href="../../db/d16/debug_8h.html#a0d0105433f9c65c14928027b3f0966b7" target="_top" xlink:title=" ">
<polygon fill="none" stroke="black" points="836.5,-44 836.5,-63 879.5,-63 879.5,-44 836.5,-44"/>
<text text-anchor="middle" x="858" y="-51" font-family="Helvetica,sans-Serif" font-size="10.00">debug</text>
</a>
</g>
</g>
<!-- Node1&#45;&gt;Node10 -->
<g id="edge9" class="edge">
<title>Node1&#45;&gt;Node10</title>
<path fill="none" stroke="midnightblue" d="M954.67,-66.95C928.09,-63.21 898.69,-59.08 879.59,-56.39"/>
<polygon fill="midnightblue" stroke="midnightblue" points="954.3,-70.43 964.69,-68.36 955.27,-63.5 954.3,-70.43"/>
</g>
<!-- Node11 -->
<g id="node11" class="node">
<title>Node11</title>
<g id="a_node11"><a xlink:href="../../da/df6/class_logic.html#a30152d112cacf98f17a849d9769ab6ef" target="_top" xlink:title=" ">
<polygon fill="none" stroke="black" points="803,-6 803,-25 913,-25 913,-6 803,-6"/>
<text text-anchor="middle" x="858" y="-13" font-family="Helvetica,sans-Serif" font-size="10.00">Logic::shiftFactor2to4</text>
</a>
</g>
</g>
<!-- Node1&#45;&gt;Node11 -->
<g id="edge10" class="edge">
<title>Node1&#45;&gt;Node11</title>
<path fill="none" stroke="midnightblue" d="M988.47,-61.16C971.68,-52.64 949.46,-42.06 929,-34.5 919.43,-30.97 908.91,-27.77 899,-25.04"/>
<polygon fill="midnightblue" stroke="midnightblue" points="987.18,-64.44 997.68,-65.9 990.39,-58.21 987.18,-64.44"/>
</g>
<!-- Node3 -->
<g id="node3" class="node">
<title>Node3</title>
<g id="a_node3"><a xlink:href="../../da/df6/class_logic.html#a7ebaa13c8a671d82c669431478524784" target="_top" xlink:title=" ">
<polygon fill="none" stroke="black" points="478,-97 478,-116 573,-116 573,-97 478,-97"/>
<text text-anchor="middle" x="525.5" y="-104" font-family="Helvetica,sans-Serif" font-size="10.00">Logic::simulateTO</text>
</a>
</g>
</g>
<!-- Node2&#45;&gt;Node3 -->
<g id="edge2" class="edge">
<title>Node2&#45;&gt;Node3</title>
<path fill="none" stroke="midnightblue" d="M599.08,-119.83C590.31,-118.22 581.59,-116.62 573.41,-115.11"/>
<polygon fill="midnightblue" stroke="midnightblue" points="598.53,-123.28 609,-121.65 599.8,-116.4 598.53,-123.28"/>
</g>
<!-- Node4 -->
<g id="node4" class="node">
<title>Node4</title>
<g id="a_node4"><a xlink:href="../../d2/d5c/class_iface.html#ad724ec2c6a2aa884f61de19193affc6a" target="_top" xlink:title=" ">
<polygon fill="none" stroke="black" points="327,-116 327,-135 442,-135 442,-116 327,-116"/>
<text text-anchor="middle" x="384.5" y="-123" font-family="Helvetica,sans-Serif" font-size="10.00">Iface::requestLEGACY</text>
</a>
</g>
</g>
<!-- Node3&#45;&gt;Node4 -->
<g id="edge3" class="edge">
<title>Node3&#45;&gt;Node4</title>
<path fill="none" stroke="midnightblue" d="M467.78,-114.25C459.42,-115.4 450.8,-116.57 442.43,-117.72"/>
<polygon fill="midnightblue" stroke="midnightblue" points="468.39,-117.7 477.83,-112.88 467.45,-110.77 468.39,-117.7"/>
</g>
<!-- Node5 -->
<g id="node5" class="node">
<title>Node5</title>
<g id="a_node5"><a xlink:href="../../d2/d5c/class_iface.html#abae0122b800731a979c9f8e4c3a58176" target="_top" xlink:title=" ">
<polygon fill="none" stroke="black" points="351,-78 351,-97 418,-97 418,-78 351,-78"/>
<text text-anchor="middle" x="384.5" y="-85" font-family="Helvetica,sans-Serif" font-size="10.00">Iface::round</text>
</a>
</g>
</g>
<!-- Node3&#45;&gt;Node5 -->
<g id="edge4" class="edge">
<title>Node3&#45;&gt;Node5</title>
<path fill="none" stroke="midnightblue" d="M467.54,-98.71C450.75,-96.42 432.94,-93.98 418.23,-91.97"/>
<polygon fill="midnightblue" stroke="midnightblue" points="467.45,-102.23 477.83,-100.12 468.39,-95.3 467.45,-102.23"/>
</g>
<!-- Node6 -->
<g id="node6" class="node">
<title>Node6</title>
<g id="a_node6"><a xlink:href="../../d2/d5c/class_iface.html#a44e6d0db22abbce5cb8c132e5f1d4284" target="_top" xlink:title=" ">
<polygon fill="none" stroke="black" points="229,-78 229,-97 291,-97 291,-78 229,-78"/>
<text text-anchor="middle" x="260" y="-85" font-family="Helvetica,sans-Serif" font-size="10.00">Iface::start</text>
</a>
</g>
</g>
<!-- Node5&#45;&gt;Node6 -->
<g id="edge5" class="edge">
<title>Node5&#45;&gt;Node6</title>
<path fill="none" stroke="midnightblue" d="M340.6,-87.5C324.27,-87.5 306.03,-87.5 291.13,-87.5"/>
<polygon fill="midnightblue" stroke="midnightblue" points="340.99,-91 350.99,-87.5 340.99,-84 340.99,-91"/>
</g>
<!-- Node7 -->
<g id="node7" class="node">
<title>Node7</title>
<g id="a_node7"><a xlink:href="../../dc/d90/class_anti_virus.html#affe3f62a87b880cc964188d9ddb9d562" target="_top" xlink:title=" ">
<polygon fill="none" stroke="black" points="74,-78 74,-97 193,-97 193,-78 74,-78"/>
<text text-anchor="middle" x="133.5" y="-85" font-family="Helvetica,sans-Serif" font-size="10.00">AntiVirus::startInterface</text>
</a>
</g>
</g>
<!-- Node6&#45;&gt;Node7 -->
<g id="edge6" class="edge">
<title>Node6&#45;&gt;Node7</title>
<path fill="none" stroke="midnightblue" d="M218.83,-87.5C210.62,-87.5 201.82,-87.5 193.12,-87.5"/>
<polygon fill="midnightblue" stroke="midnightblue" points="218.86,-91 228.86,-87.5 218.86,-84 218.86,-91"/>
</g>
<!-- Node8 -->
<g id="node8" class="node">
<title>Node8</title>
<g id="a_node8"><a xlink:href="../../df/d0a/main_8cpp.html#ae66f6b31b5ad750f1fe042a706a4e3d4" target="_top" xlink:title=" ">
<polygon fill="none" stroke="black" points="0,-78 0,-97 38,-97 38,-78 0,-78"/>
<text text-anchor="middle" x="19" y="-85" font-family="Helvetica,sans-Serif" font-size="10.00">main</text>
</a>
</g>
</g>
<!-- Node7&#45;&gt;Node8 -->
<g id="edge7" class="edge">
<title>Node7&#45;&gt;Node8</title>
<path fill="none" stroke="midnightblue" d="M63.65,-87.5C54.29,-87.5 45.43,-87.5 38.16,-87.5"/>
<polygon fill="midnightblue" stroke="midnightblue" points="63.94,-91 73.94,-87.5 63.94,-84 63.94,-91"/>
</g>
<!-- Node12 -->
<g id="node12" class="node">
<title>Node12</title>
<g id="a_node12"><a xlink:href="../../da/df6/class_logic.html#a7399ce3a312128bf723035825d466d89" target="_top" xlink:title=" ">
<polygon fill="none" stroke="black" points="609,-63.5 609,-93.5 751,-93.5 751,-63.5 609,-63.5"/>
<text text-anchor="start" x="617" y="-81.5" font-family="Helvetica,sans-Serif" font-size="10.00">Logic::calculateSpontaneous</text>
<text text-anchor="middle" x="680" y="-70.5" font-family="Helvetica,sans-Serif" font-size="10.00">Infection</text>
</a>
</g>
</g>
<!-- Node11&#45;&gt;Node12 -->
<g id="edge11" class="edge">
<title>Node11&#45;&gt;Node12</title>
<path fill="none" stroke="midnightblue" d="M808.46,-27.81C801.22,-29.89 793.88,-32.15 787,-34.5 762.3,-42.94 735.12,-54.26 714.47,-63.31"/>
<polygon fill="midnightblue" stroke="midnightblue" points="809.53,-31.14 818.22,-25.07 807.65,-24.4 809.53,-31.14"/>
</g>
<!-- Node13 -->
<g id="node13" class="node">
<title>Node13</title>
<g id="a_node13"><a xlink:href="../../da/df6/class_logic.html#a7ff7fb2511045df5fe201656025da085" target="_top" xlink:title=" ">
<polygon fill="none" stroke="black" points="609,-0.5 609,-30.5 751,-30.5 751,-0.5 609,-0.5"/>
<text text-anchor="start" x="617" y="-18.5" font-family="Helvetica,sans-Serif" font-size="10.00">Logic::calculateSpontaneous</text>
<text text-anchor="middle" x="680" y="-7.5" font-family="Helvetica,sans-Serif" font-size="10.00">InfectionLEGACY</text>
</a>
</g>
</g>
<!-- Node11&#45;&gt;Node13 -->
<g id="edge13" class="edge">
<title>Node11&#45;&gt;Node13</title>
<path fill="none" stroke="midnightblue" d="M792.65,-15.5C779.19,-15.5 764.94,-15.5 751.28,-15.5"/>
<polygon fill="midnightblue" stroke="midnightblue" points="792.76,-19 802.76,-15.5 792.76,-12 792.76,-19"/>
</g>
<!-- Node12&#45;&gt;Node3 -->
<g id="edge12" class="edge">
<title>Node12&#45;&gt;Node3</title>
<path fill="none" stroke="midnightblue" d="M599.08,-93.17C590.31,-94.78 581.59,-96.38 573.41,-97.89"/>
<polygon fill="midnightblue" stroke="midnightblue" points="599.8,-96.6 609,-91.35 598.53,-89.72 599.8,-96.6"/>
</g>
</g>
</svg>
        <g id="navigator" transform="translate(0 0)" fill="#404254">
                <rect fill="#f2f5e9" fill-opacity="0.5" stroke="#606060" stroke-width=".5" x="0" y="0" width="60" height="60"/>
                <use id="zoomplus" xlink:href="#zoomPlus" x="17" y="9" onmousedown="handleZoom(evt,'in')"/>
                <use id="zoomminus" xlink:href="#zoomMin" x="42" y="9" onmousedown="handleZoom(evt,'out')"/>
                <use id="reset" xlink:href="#resetDef" x="30" y="36" onmousedown="handleReset()"/>
                <g id="arrowUp" xlink:href="#dirArrow" transform="translate(30 24)" onmousedown="handlePan(0,-1)">
                  <use xlink:href="#rim" fill="#404040">
                        <set attributeName="fill" to="#808080" begin="arrowUp.mouseover" end="arrowUp.mouseout"/>
                  </use>
                  <path fill="none" stroke="white" stroke-width="1.5" d="M0,-3.0v7 M-2.5,-0.5L0,-3.0L2.5,-0.5"/>
                </g>
                <g id="arrowRight" xlink:href="#dirArrow" transform="rotate(90) translate(36 -43)" onmousedown="handlePan(1,0)">
                  <use xlink:href="#rim" fill="#404040">
                        <set attributeName="fill" to="#808080" begin="arrowRight.mouseover" end="arrowRight.mouseout"/>
                  </use>
                  <path fill="none" stroke="white" stroke-width="1.5" d="M0,-3.0v7 M-2.5,-0.5L0,-3.0L2.5,-0.5"/>
                </g>
                <g id="arrowDown" xlink:href="#dirArrow" transform="rotate(180) translate(-30 -48)" onmousedown="handlePan(0,1)">
                  <use xlink:href="#rim" fill="#404040">
                        <set attributeName="fill" to="#808080" begin="arrowDown.mouseover" end="arrowDown.mouseout"/>
                  </use>
                  <path fill="none" stroke="white" stroke-width="1.5" d="M0,-3.0v7 M-2.5,-0.5L0,-3.0L2.5,-0.5"/>
                </g>
                <g id="arrowLeft" xlink:href="#dirArrow" transform="rotate(270) translate(-36 17)" onmousedown="handlePan(-1,0)">
                  <use xlink:href="#rim" fill="#404040">
                        <set attributeName="fill" to="#808080" begin="arrowLeft.mouseover" end="arrowLeft.mouseout"/>
                  </use>
                  <path fill="none" stroke="white" stroke-width="1.5" d="M0,-3.0v7 M-2.5,-0.5L0,-3.0L2.5,-0.5"/>
                </g>
        </g>
        <svg viewBox="0 0 15 15" width="100%" height="30px" preserveAspectRatio="xMaxYMin meet">
         <g id="arrow_out" transform="scale(0.3 0.3)">
          <a xlink:href="class_utils_1_1_random_a8e32d199a5e6c46b317b4f594793f48e_icgraph_org.svg" target="_base">
           <rect id="button" ry="5" rx="5" y="6" x="6" height="38" width="38"
                fill="#f2f5e9" fill-opacity="0.5" stroke="#606060" stroke-width="1.0"/>
           <path id="arrow"
             d="M 11.500037,31.436501 C 11.940474,20.09759 22.043105,11.32322 32.158766,21.979434 L 37.068811,17.246167 C 37.068811,17.246167 37.088388,32 37.088388,32 L 22.160133,31.978069 C 22.160133,31.978069 26.997745,27.140456 26.997745,27.140456 C 18.528582,18.264221 13.291696,25.230495 11.500037,31.436501 z"
             style="fill:#404040;"/>
          </a>
         </g>
        </svg>
</svg>
