<?xml version="1.0" encoding="UTF-8" standalone="no"?>
<!DOCTYPE svg PUBLIC "-//W3C//DTD SVG 1.1//EN"
 "http://www.w3.org/Graphics/SVG/1.1/DTD/svg11.dtd">
<!-- Generated by graphviz version 2.44.1 (20200629.0846)
 -->
<!-- Title: C:/Users/lukac/CLionProjects/virus_real/src/district.cpp Pages: 1 -->
<svg width="335pt" height="207pt"
 viewBox="0.00 0.00 334.50 207.00" xmlns="http://www.w3.org/2000/svg" xmlns:xlink="http://www.w3.org/1999/xlink">
<g id="graph0" class="graph" transform="scale(1 1) rotate(0) translate(4 203)">
<title>C:/Users/lukac/CLionProjects/virus_real/src/district.cpp</title>
<!-- Node1 -->
<g id="node1" class="node">
<title>Node1</title>
<g id="a_node1"><a xlink:title=" ">
<polygon fill="#bfbfbf" stroke="black" points="102,-168.5 102,-198.5 247,-198.5 247,-168.5 102,-168.5"/>
<text text-anchor="start" x="110" y="-186.5" font-family="Helvetica,sans-Serif" font-size="10.00">C:/Users/lukac/CLionProjects</text>
<text text-anchor="middle" x="174.5" y="-175.5" font-family="Helvetica,sans-Serif" font-size="10.00">/virus_real/src/district.cpp</text>
</a>
</g>
</g>
<!-- Node2 -->
<g id="node2" class="node">
<title>Node2</title>
<g id="a_node2"><a xlink:href="../../dd/dae/district_8h.html" target="_top" xlink:title=" ">
<polygon fill="none" stroke="black" points="147.5,-112.5 147.5,-131.5 201.5,-131.5 201.5,-112.5 147.5,-112.5"/>
<text text-anchor="middle" x="174.5" y="-119.5" font-family="Helvetica,sans-Serif" font-size="10.00">district.h</text>
</a>
</g>
</g>
<!-- Node1&#45;&gt;Node2 -->
<g id="edge1" class="edge">
<title>Node1&#45;&gt;Node2</title>
<path fill="none" stroke="midnightblue" d="M174.5,-168.4C174.5,-160.47 174.5,-150.46 174.5,-141.86"/>
<polygon fill="midnightblue" stroke="midnightblue" points="178,-141.66 174.5,-131.66 171,-141.66 178,-141.66"/>
</g>
<!-- Node3 -->
<g id="node3" class="node">
<title>Node3</title>
<g id="a_node3"><a xlink:title=" ">
<polygon fill="none" stroke="#bfbfbf" points="26.5,-56.5 26.5,-75.5 68.5,-75.5 68.5,-56.5 26.5,-56.5"/>
<text text-anchor="middle" x="47.5" y="-63.5" font-family="Helvetica,sans-Serif" font-size="10.00">vector</text>
</a>
</g>
</g>
<!-- Node2&#45;&gt;Node3 -->
<g id="edge2" class="edge">
<title>Node2&#45;&gt;Node3</title>
<path fill="none" stroke="midnightblue" d="M154.38,-112.44C133.48,-103.56 100.57,-89.56 76.78,-79.45"/>
<polygon fill="midnightblue" stroke="midnightblue" points="78.1,-76.21 67.53,-75.52 75.36,-82.65 78.1,-76.21"/>
</g>
<!-- Node4 -->
<g id="node4" class="node">
<title>Node4</title>
<g id="a_node4"><a xlink:href="../../d5/d5a/field_8h.html" target="_top" xlink:title=" ">
<polygon fill="none" stroke="black" points="86.5,-56.5 86.5,-75.5 128.5,-75.5 128.5,-56.5 86.5,-56.5"/>
<text text-anchor="middle" x="107.5" y="-63.5" font-family="Helvetica,sans-Serif" font-size="10.00">field.h</text>
</a>
</g>
</g>
<!-- Node2&#45;&gt;Node4 -->
<g id="edge3" class="edge">
<title>Node2&#45;&gt;Node4</title>
<path fill="none" stroke="midnightblue" d="M163.74,-112.32C153.73,-104.26 138.61,-92.08 126.57,-82.37"/>
<polygon fill="midnightblue" stroke="midnightblue" points="128.44,-79.38 118.46,-75.83 124.05,-84.83 128.44,-79.38"/>
</g>
<!-- Node9 -->
<g id="node9" class="node">
<title>Node9</title>
<g id="a_node9"><a xlink:title=" ">
<polygon fill="none" stroke="#bfbfbf" points="146.5,-56.5 146.5,-75.5 202.5,-75.5 202.5,-56.5 146.5,-56.5"/>
<text text-anchor="middle" x="174.5" y="-63.5" font-family="Helvetica,sans-Serif" font-size="10.00">algorithm</text>
</a>
</g>
</g>
<!-- Node2&#45;&gt;Node9 -->
<g id="edge8" class="edge">
<title>Node2&#45;&gt;Node9</title>
<path fill="none" stroke="midnightblue" d="M174.5,-112.08C174.5,-105.01 174.5,-94.86 174.5,-85.99"/>
<polygon fill="midnightblue" stroke="midnightblue" points="178,-85.75 174.5,-75.75 171,-85.75 178,-85.75"/>
</g>
<!-- Node10 -->
<g id="node10" class="node">
<title>Node10</title>
<g id="a_node10"><a xlink:title=" ">
<polygon fill="none" stroke="#bfbfbf" points="220.5,-56.5 220.5,-75.5 250.5,-75.5 250.5,-56.5 220.5,-56.5"/>
<text text-anchor="middle" x="235.5" y="-63.5" font-family="Helvetica,sans-Serif" font-size="10.00">set</text>
</a>
</g>
</g>
<!-- Node2&#45;&gt;Node10 -->
<g id="edge9" class="edge">
<title>Node2&#45;&gt;Node10</title>
<path fill="none" stroke="midnightblue" d="M184.3,-112.32C193.32,-104.34 206.91,-92.31 217.82,-82.65"/>
<polygon fill="midnightblue" stroke="midnightblue" points="220.35,-85.08 225.52,-75.83 215.71,-79.84 220.35,-85.08"/>
</g>
<!-- Node11 -->
<g id="node11" class="node">
<title>Node11</title>
<g id="a_node11"><a xlink:title=" ">
<polygon fill="none" stroke="#bfbfbf" points="268.5,-56.5 268.5,-75.5 326.5,-75.5 326.5,-56.5 268.5,-56.5"/>
<text text-anchor="middle" x="297.5" y="-63.5" font-family="Helvetica,sans-Serif" font-size="10.00">functional</text>
</a>
</g>
</g>
<!-- Node2&#45;&gt;Node11 -->
<g id="edge10" class="edge">
<title>Node2&#45;&gt;Node11</title>
<path fill="none" stroke="midnightblue" d="M193.99,-112.44C214.14,-103.6 245.82,-89.69 268.83,-79.59"/>
<polygon fill="midnightblue" stroke="midnightblue" points="270.35,-82.74 278.1,-75.52 267.54,-76.33 270.35,-82.74"/>
</g>
<!-- Node5 -->
<g id="node5" class="node">
<title>Node5</title>
<g id="a_node5"><a xlink:title=" ">
<polygon fill="none" stroke="#bfbfbf" points="0,-0.5 0,-19.5 35,-19.5 35,-0.5 0,-0.5"/>
<text text-anchor="middle" x="17.5" y="-7.5" font-family="Helvetica,sans-Serif" font-size="10.00">map</text>
</a>
</g>
</g>
<!-- Node4&#45;&gt;Node5 -->
<g id="edge4" class="edge">
<title>Node4&#45;&gt;Node5</title>
<path fill="none" stroke="midnightblue" d="M93.04,-56.32C79,-47.9 57.45,-34.97 40.96,-25.07"/>
<polygon fill="midnightblue" stroke="midnightblue" points="42.3,-21.8 31.92,-19.65 38.7,-27.8 42.3,-21.8"/>
</g>
<!-- Node6 -->
<g id="node6" class="node">
<title>Node6</title>
<g id="a_node6"><a xlink:title=" ">
<polygon fill="none" stroke="#bfbfbf" points="53,-0.5 53,-19.5 96,-19.5 96,-0.5 53,-0.5"/>
<text text-anchor="middle" x="74.5" y="-7.5" font-family="Helvetica,sans-Serif" font-size="10.00">queue</text>
</a>
</g>
</g>
<!-- Node4&#45;&gt;Node6 -->
<g id="edge5" class="edge">
<title>Node4&#45;&gt;Node6</title>
<path fill="none" stroke="midnightblue" d="M102.05,-56.08C97.49,-48.61 90.83,-37.72 85.21,-28.52"/>
<polygon fill="midnightblue" stroke="midnightblue" points="88.05,-26.46 79.85,-19.75 82.08,-30.11 88.05,-26.46"/>
</g>
<!-- Node7 -->
<g id="node7" class="node">
<title>Node7</title>
<g id="a_node7"><a xlink:title=" ">
<polygon fill="none" stroke="#bfbfbf" points="114.5,-0.5 114.5,-19.5 166.5,-19.5 166.5,-0.5 114.5,-0.5"/>
<text text-anchor="middle" x="140.5" y="-7.5" font-family="Helvetica,sans-Serif" font-size="10.00">sstream</text>
</a>
</g>
</g>
<!-- Node4&#45;&gt;Node7 -->
<g id="edge6" class="edge">
<title>Node4&#45;&gt;Node7</title>
<path fill="none" stroke="midnightblue" d="M112.95,-56.08C117.51,-48.61 124.17,-37.72 129.79,-28.52"/>
<polygon fill="midnightblue" stroke="midnightblue" points="132.92,-30.11 135.15,-19.75 126.95,-26.46 132.92,-30.11"/>
</g>
<!-- Node8 -->
<g id="node8" class="node">
<title>Node8</title>
<g id="a_node8"><a xlink:title=" ">
<polygon fill="none" stroke="#bfbfbf" points="184.5,-0.5 184.5,-19.5 228.5,-19.5 228.5,-0.5 184.5,-0.5"/>
<text text-anchor="middle" x="206.5" y="-7.5" font-family="Helvetica,sans-Serif" font-size="10.00">cmath</text>
</a>
</g>
</g>
<!-- Node4&#45;&gt;Node8 -->
<g id="edge7" class="edge">
<title>Node4&#45;&gt;Node8</title>
<path fill="none" stroke="midnightblue" d="M123.41,-56.32C139.14,-47.74 163.44,-34.49 181.71,-24.52"/>
<polygon fill="midnightblue" stroke="midnightblue" points="183.53,-27.52 190.63,-19.65 180.18,-21.37 183.53,-27.52"/>
</g>
</g>
</svg>
