<?xml version="1.0" encoding="UTF-8" standalone="no"?>
<!DOCTYPE svg PUBLIC "-//W3C//DTD SVG 1.1//EN"
 "http://www.w3.org/Graphics/SVG/1.1/DTD/svg11.dtd">
<!-- Generated by graphviz version 2.44.1 (20200629.0846)
 -->
<!-- Title: debug Pages: 1 -->
<svg width="212pt" height="66pt"
 viewBox="0.00 0.00 212.00 66.00" xmlns="http://www.w3.org/2000/svg" xmlns:xlink="http://www.w3.org/1999/xlink">
<g id="graph0" class="graph" transform="scale(1 1) rotate(0) translate(4 62)">
<title>debug</title>
<!-- Node1 -->
<g id="node1" class="node">
<title>Node1</title>
<g id="a_node1"><a xlink:title=" ">
<polygon fill="#bfbfbf" stroke="black" points="0,-19.5 0,-38.5 43,-38.5 43,-19.5 0,-19.5"/>
<text text-anchor="middle" x="21.5" y="-26.5" font-family="Helvetica,sans-Serif" font-size="10.00">debug</text>
</a>
</g>
</g>
<!-- Node2 -->
<g id="node2" class="node">
<title>Node2</title>
<g id="a_node2"><a xlink:href="../../dc/d64/class_utils_1_1_random.html#a8b6fde0d9c07b7205894eef230c89811" target="_top" xlink:title=" ">
<polygon fill="none" stroke="black" points="79,-38.5 79,-57.5 204,-57.5 204,-38.5 79,-38.5"/>
<text text-anchor="middle" x="141.5" y="-45.5" font-family="Helvetica,sans-Serif" font-size="10.00">Utils::Random::getFactor</text>
</a>
</g>
</g>
<!-- Node1&#45;&gt;Node2 -->
<g id="edge1" class="edge">
<title>Node1&#45;&gt;Node2</title>
<path fill="none" stroke="midnightblue" d="M43.05,-32.31C51.21,-33.62 61.1,-35.22 71.42,-36.88"/>
<polygon fill="midnightblue" stroke="midnightblue" points="70.97,-40.35 81.4,-38.48 72.08,-33.44 70.97,-40.35"/>
</g>
<!-- Node3 -->
<g id="node3" class="node">
<title>Node3</title>
<g id="a_node3"><a xlink:href="../../dc/d64/class_utils_1_1_random.html#a8e32d199a5e6c46b317b4f594793f48e" target="_top" xlink:title=" ">
<polygon fill="none" stroke="black" points="90,-0.5 90,-19.5 193,-19.5 193,-0.5 90,-0.5"/>
<text text-anchor="middle" x="141.5" y="-7.5" font-family="Helvetica,sans-Serif" font-size="10.00">Utils::Random::next</text>
</a>
</g>
</g>
<!-- Node1&#45;&gt;Node3 -->
<g id="edge2" class="edge">
<title>Node1&#45;&gt;Node3</title>
<path fill="none" stroke="midnightblue" d="M43.05,-25.69C53.37,-24.03 66.46,-21.92 79.67,-19.79"/>
<polygon fill="midnightblue" stroke="midnightblue" points="80.43,-23.22 89.75,-18.17 79.32,-16.31 80.43,-23.22"/>
</g>
</g>
</svg>
