<?xml version="1.0" encoding="UTF-8" standalone="no"?>
<!DOCTYPE svg PUBLIC "-//W3C//DTD SVG 1.1//EN"
 "http://www.w3.org/Graphics/SVG/1.1/DTD/svg11.dtd">
<!-- Generated by graphviz version 2.44.1 (20200629.0846)
 -->
<!-- Title: Graphics::terminalGraphicsRun Pages: 1 -->
<svg width="341pt" height="180pt"
 viewBox="0.00 0.00 341.00 180.00" xmlns="http://www.w3.org/2000/svg" xmlns:xlink="http://www.w3.org/1999/xlink">
<g id="graph0" class="graph" transform="scale(1 1) rotate(0) translate(4 176)">
<title>Graphics::terminalGraphicsRun</title>
<!-- Node1 -->
<g id="node1" class="node">
<title>Node1</title>
<g id="a_node1"><a xlink:title=" ">
<polygon fill="#bfbfbf" stroke="black" points="0,-76.5 0,-95.5 152,-95.5 152,-76.5 0,-76.5"/>
<text text-anchor="middle" x="76" y="-83.5" font-family="Helvetica,sans-Serif" font-size="10.00">Graphics::terminalGraphicsRun</text>
</a>
</g>
</g>
<!-- Node2 -->
<g id="node2" class="node">
<title>Node2</title>
<g id="a_node2"><a xlink:href="../../dc/d67/class_field.html#a3ceb497dd33f97896974a2367fedc3c4" target="_top" xlink:title=" ">
<polygon fill="none" stroke="black" points="188,-152.5 188,-171.5 333,-171.5 333,-152.5 188,-152.5"/>
<text text-anchor="middle" x="260.5" y="-159.5" font-family="Helvetica,sans-Serif" font-size="10.00">Field::getCurrentInfectionRate</text>
</a>
</g>
</g>
<!-- Node1&#45;&gt;Node2 -->
<g id="edge1" class="edge">
<title>Node1&#45;&gt;Node2</title>
<path fill="none" stroke="midnightblue" d="M93.04,-95.63C114.18,-108 152.82,-129.47 188,-143 194.28,-145.42 200.99,-147.64 207.68,-149.65"/>
<polygon fill="midnightblue" stroke="midnightblue" points="206.85,-153.05 217.43,-152.43 208.78,-146.32 206.85,-153.05"/>
</g>
<!-- Node3 -->
<g id="node3" class="node">
<title>Node3</title>
<g id="a_node3"><a xlink:href="../../da/d74/class_grid.html#a3618702f7872969eedc6e8817dc26776" target="_top" xlink:title=" ">
<polygon fill="none" stroke="black" points="212.5,-114.5 212.5,-133.5 308.5,-133.5 308.5,-114.5 212.5,-114.5"/>
<text text-anchor="middle" x="260.5" y="-121.5" font-family="Helvetica,sans-Serif" font-size="10.00">Grid::getFieldByID</text>
</a>
</g>
</g>
<!-- Node1&#45;&gt;Node3 -->
<g id="edge2" class="edge">
<title>Node1&#45;&gt;Node3</title>
<path fill="none" stroke="midnightblue" d="M123.05,-95.59C147.57,-100.69 177.91,-107.01 203.75,-112.39"/>
<polygon fill="midnightblue" stroke="midnightblue" points="203.28,-115.87 213.78,-114.48 204.7,-109.01 203.28,-115.87"/>
</g>
<!-- Node4 -->
<g id="node4" class="node">
<title>Node4</title>
<g id="a_node4"><a xlink:href="../../da/d74/class_grid.html#ae7393bc74ab867cc3f4409c70d80351b" target="_top" xlink:title=" ">
<polygon fill="none" stroke="black" points="219.5,-76.5 219.5,-95.5 301.5,-95.5 301.5,-76.5 219.5,-76.5"/>
<text text-anchor="middle" x="260.5" y="-83.5" font-family="Helvetica,sans-Serif" font-size="10.00">Grid::getHeight</text>
</a>
</g>
</g>
<!-- Node1&#45;&gt;Node4 -->
<g id="edge3" class="edge">
<title>Node1&#45;&gt;Node4</title>
<path fill="none" stroke="midnightblue" d="M152.02,-86C171.33,-86 191.65,-86 209.35,-86"/>
<polygon fill="midnightblue" stroke="midnightblue" points="209.45,-89.5 219.45,-86 209.45,-82.5 209.45,-89.5"/>
</g>
<!-- Node5 -->
<g id="node5" class="node">
<title>Node5</title>
<g id="a_node5"><a xlink:href="../../dc/d67/class_field.html#a011a230ef7a76d38f04f742941e241c0" target="_top" xlink:title=" ">
<polygon fill="none" stroke="black" points="196.5,-38.5 196.5,-57.5 324.5,-57.5 324.5,-38.5 196.5,-38.5"/>
<text text-anchor="middle" x="260.5" y="-45.5" font-family="Helvetica,sans-Serif" font-size="10.00">Field::getVaccinationRate</text>
</a>
</g>
</g>
<!-- Node1&#45;&gt;Node5 -->
<g id="edge4" class="edge">
<title>Node1&#45;&gt;Node5</title>
<path fill="none" stroke="midnightblue" d="M123.05,-76.41C147.57,-71.31 177.91,-64.99 203.75,-59.61"/>
<polygon fill="midnightblue" stroke="midnightblue" points="204.7,-62.99 213.78,-57.52 203.28,-56.13 204.7,-62.99"/>
</g>
<!-- Node6 -->
<g id="node6" class="node">
<title>Node6</title>
<g id="a_node6"><a xlink:href="../../da/d74/class_grid.html#a862cf2f474e31195bea649b08cfb7b46" target="_top" xlink:title=" ">
<polygon fill="none" stroke="black" points="220.5,-0.5 220.5,-19.5 300.5,-19.5 300.5,-0.5 220.5,-0.5"/>
<text text-anchor="middle" x="260.5" y="-7.5" font-family="Helvetica,sans-Serif" font-size="10.00">Grid::getWidth</text>
</a>
</g>
</g>
<!-- Node1&#45;&gt;Node6 -->
<g id="edge5" class="edge">
<title>Node1&#45;&gt;Node6</title>
<path fill="none" stroke="midnightblue" d="M93.04,-76.37C114.18,-64 152.82,-42.53 188,-29 195.25,-26.21 203.06,-23.68 210.77,-21.44"/>
<polygon fill="midnightblue" stroke="midnightblue" points="211.73,-24.81 220.43,-18.76 209.85,-18.06 211.73,-24.81"/>
</g>
</g>
</svg>
