<?xml version="1.0" encoding="UTF-8" standalone="no"?>
<!DOCTYPE svg PUBLIC "-//W3C//DTD SVG 1.1//EN"
 "http://www.w3.org/Graphics/SVG/1.1/DTD/svg11.dtd">
<!-- Generated by graphviz version 2.44.1 (20200629.0846)
 -->
<!-- Title: Graphics::displayCurrentRound Pages: 1 -->
<svg width="501pt" height="180pt"
 viewBox="0.00 0.00 501.00 180.00" xmlns="http://www.w3.org/2000/svg" xmlns:xlink="http://www.w3.org/1999/xlink">
<g id="graph0" class="graph" transform="scale(1 1) rotate(0) translate(4 176)">
<title>Graphics::displayCurrentRound</title>
<!-- Node1 -->
<g id="node1" class="node">
<title>Node1</title>
<g id="a_node1"><a xlink:title=" ">
<polygon fill="#bfbfbf" stroke="black" points="0,-71 0,-101 124,-101 124,-71 0,-71"/>
<text text-anchor="start" x="8" y="-89" font-family="Helvetica,sans-Serif" font-size="10.00">Graphics::displayCurrent</text>
<text text-anchor="middle" x="62" y="-78" font-family="Helvetica,sans-Serif" font-size="10.00">Round</text>
</a>
</g>
</g>
<!-- Node2 -->
<g id="node2" class="node">
<title>Node2</title>
<g id="a_node2"><a xlink:href="../../d7/d8b/class_graphics.html#ac8f2a0735ce7724a2b76718029201269" target="_top" xlink:title=" ">
<polygon fill="none" stroke="black" points="160,-76.5 160,-95.5 312,-95.5 312,-76.5 160,-76.5"/>
<text text-anchor="middle" x="236" y="-83.5" font-family="Helvetica,sans-Serif" font-size="10.00">Graphics::terminalGraphicsRun</text>
</a>
</g>
</g>
<!-- Node1&#45;&gt;Node2 -->
<g id="edge1" class="edge">
<title>Node1&#45;&gt;Node2</title>
<path fill="none" stroke="midnightblue" d="M124.13,-86C132.45,-86 141.12,-86 149.78,-86"/>
<polygon fill="midnightblue" stroke="midnightblue" points="149.92,-89.5 159.92,-86 149.92,-82.5 149.92,-89.5"/>
</g>
<!-- Node3 -->
<g id="node3" class="node">
<title>Node3</title>
<g id="a_node3"><a xlink:href="../../dc/d67/class_field.html#a3ceb497dd33f97896974a2367fedc3c4" target="_top" xlink:title=" ">
<polygon fill="none" stroke="black" points="348,-152.5 348,-171.5 493,-171.5 493,-152.5 348,-152.5"/>
<text text-anchor="middle" x="420.5" y="-159.5" font-family="Helvetica,sans-Serif" font-size="10.00">Field::getCurrentInfectionRate</text>
</a>
</g>
</g>
<!-- Node2&#45;&gt;Node3 -->
<g id="edge2" class="edge">
<title>Node2&#45;&gt;Node3</title>
<path fill="none" stroke="midnightblue" d="M253.04,-95.63C274.18,-108 312.82,-129.47 348,-143 354.28,-145.42 360.99,-147.64 367.68,-149.65"/>
<polygon fill="midnightblue" stroke="midnightblue" points="366.85,-153.05 377.43,-152.43 368.78,-146.32 366.85,-153.05"/>
</g>
<!-- Node4 -->
<g id="node4" class="node">
<title>Node4</title>
<g id="a_node4"><a xlink:href="../../da/d74/class_grid.html#a3618702f7872969eedc6e8817dc26776" target="_top" xlink:title=" ">
<polygon fill="none" stroke="black" points="372.5,-114.5 372.5,-133.5 468.5,-133.5 468.5,-114.5 372.5,-114.5"/>
<text text-anchor="middle" x="420.5" y="-121.5" font-family="Helvetica,sans-Serif" font-size="10.00">Grid::getFieldByID</text>
</a>
</g>
</g>
<!-- Node2&#45;&gt;Node4 -->
<g id="edge3" class="edge">
<title>Node2&#45;&gt;Node4</title>
<path fill="none" stroke="midnightblue" d="M283.05,-95.59C307.57,-100.69 337.91,-107.01 363.75,-112.39"/>
<polygon fill="midnightblue" stroke="midnightblue" points="363.28,-115.87 373.78,-114.48 364.7,-109.01 363.28,-115.87"/>
</g>
<!-- Node5 -->
<g id="node5" class="node">
<title>Node5</title>
<g id="a_node5"><a xlink:href="../../da/d74/class_grid.html#ae7393bc74ab867cc3f4409c70d80351b" target="_top" xlink:title=" ">
<polygon fill="none" stroke="black" points="379.5,-76.5 379.5,-95.5 461.5,-95.5 461.5,-76.5 379.5,-76.5"/>
<text text-anchor="middle" x="420.5" y="-83.5" font-family="Helvetica,sans-Serif" font-size="10.00">Grid::getHeight</text>
</a>
</g>
</g>
<!-- Node2&#45;&gt;Node5 -->
<g id="edge4" class="edge">
<title>Node2&#45;&gt;Node5</title>
<path fill="none" stroke="midnightblue" d="M312.02,-86C331.33,-86 351.65,-86 369.35,-86"/>
<polygon fill="midnightblue" stroke="midnightblue" points="369.45,-89.5 379.45,-86 369.45,-82.5 369.45,-89.5"/>
</g>
<!-- Node6 -->
<g id="node6" class="node">
<title>Node6</title>
<g id="a_node6"><a xlink:href="../../dc/d67/class_field.html#a011a230ef7a76d38f04f742941e241c0" target="_top" xlink:title=" ">
<polygon fill="none" stroke="black" points="356.5,-38.5 356.5,-57.5 484.5,-57.5 484.5,-38.5 356.5,-38.5"/>
<text text-anchor="middle" x="420.5" y="-45.5" font-family="Helvetica,sans-Serif" font-size="10.00">Field::getVaccinationRate</text>
</a>
</g>
</g>
<!-- Node2&#45;&gt;Node6 -->
<g id="edge5" class="edge">
<title>Node2&#45;&gt;Node6</title>
<path fill="none" stroke="midnightblue" d="M283.05,-76.41C307.57,-71.31 337.91,-64.99 363.75,-59.61"/>
<polygon fill="midnightblue" stroke="midnightblue" points="364.7,-62.99 373.78,-57.52 363.28,-56.13 364.7,-62.99"/>
</g>
<!-- Node7 -->
<g id="node7" class="node">
<title>Node7</title>
<g id="a_node7"><a xlink:href="../../da/d74/class_grid.html#a862cf2f474e31195bea649b08cfb7b46" target="_top" xlink:title=" ">
<polygon fill="none" stroke="black" points="380.5,-0.5 380.5,-19.5 460.5,-19.5 460.5,-0.5 380.5,-0.5"/>
<text text-anchor="middle" x="420.5" y="-7.5" font-family="Helvetica,sans-Serif" font-size="10.00">Grid::getWidth</text>
</a>
</g>
</g>
<!-- Node2&#45;&gt;Node7 -->
<g id="edge6" class="edge">
<title>Node2&#45;&gt;Node7</title>
<path fill="none" stroke="midnightblue" d="M253.04,-76.37C274.18,-64 312.82,-42.53 348,-29 355.25,-26.21 363.06,-23.68 370.77,-21.44"/>
<polygon fill="midnightblue" stroke="midnightblue" points="371.73,-24.81 380.43,-18.76 369.85,-18.06 371.73,-24.81"/>
</g>
</g>
</svg>
