<?xml version="1.0" encoding="UTF-8" standalone="no"?>
<!DOCTYPE svg PUBLIC "-//W3C//DTD SVG 1.1//EN"
 "http://www.w3.org/Graphics/SVG/1.1/DTD/svg11.dtd">
<!-- Generated by graphviz version 2.44.1 (20200629.0846)
 -->
<!-- Title: Field::getPopulationDensity Pages: 1 -->
<svg width="1023pt" height="114pt"
 viewBox="0.00 0.00 1023.00 113.50" xmlns="http://www.w3.org/2000/svg" xmlns:xlink="http://www.w3.org/1999/xlink">
<g id="graph0" class="graph" transform="scale(1 1) rotate(0) translate(4 109.5)">
<title>Field::getPopulationDensity</title>
<!-- Node1 -->
<g id="node1" class="node">
<title>Node1</title>
<g id="a_node1"><a xlink:title=" ">
<polygon fill="#bfbfbf" stroke="black" points="879,-29 879,-48 1015,-48 1015,-29 879,-29"/>
<text text-anchor="middle" x="947" y="-36" font-family="Helvetica,sans-Serif" font-size="10.00">Field::getPopulationDensity</text>
</a>
</g>
</g>
<!-- Node2 -->
<g id="node2" class="node">
<title>Node2</title>
<g id="a_node2"><a xlink:href="../../da/df6/class_logic.html#ac8b8a4faa67a5f1868371796c9d5f3c2" target="_top" xlink:title=" ">
<polygon fill="none" stroke="black" points="700.5,-48 700.5,-67 836.5,-67 836.5,-48 700.5,-48"/>
<text text-anchor="middle" x="768.5" y="-55" font-family="Helvetica,sans-Serif" font-size="10.00">Logic::calculateVaccination</text>
</a>
</g>
</g>
<!-- Node1&#45;&gt;Node2 -->
<g id="edge1" class="edge">
<title>Node1&#45;&gt;Node2</title>
<path fill="none" stroke="midnightblue" d="M868.61,-46.83C857.92,-47.98 847.02,-49.15 836.54,-50.28"/>
<polygon fill="midnightblue" stroke="midnightblue" points="869.2,-50.29 878.77,-45.74 868.45,-43.33 869.2,-50.29"/>
</g>
<!-- Node9 -->
<g id="node9" class="node">
<title>Node9</title>
<g id="a_node9"><a xlink:href="../../d9/dbf/class_window.html#ad7e1d8bae4995cbd51eff71c283e6945" target="_top" xlink:title=" ">
<polygon fill="none" stroke="black" points="694,-10 694,-29 843,-29 843,-10 694,-10"/>
<text text-anchor="middle" x="768.5" y="-17" font-family="Helvetica,sans-Serif" font-size="10.00">Window::createPopulationMap</text>
</a>
</g>
</g>
<!-- Node1&#45;&gt;Node9 -->
<g id="edge8" class="edge">
<title>Node1&#45;&gt;Node9</title>
<path fill="none" stroke="midnightblue" d="M868.8,-30.19C860.24,-29.27 851.53,-28.33 843.02,-27.41"/>
<polygon fill="midnightblue" stroke="midnightblue" points="868.45,-33.67 878.77,-31.26 869.2,-26.71 868.45,-33.67"/>
</g>
<!-- Node3 -->
<g id="node3" class="node">
<title>Node3</title>
<g id="a_node3"><a xlink:href="../../da/df6/class_logic.html#a7ebaa13c8a671d82c669431478524784" target="_top" xlink:title=" ">
<polygon fill="none" stroke="black" points="559.5,-48 559.5,-67 654.5,-67 654.5,-48 559.5,-48"/>
<text text-anchor="middle" x="607" y="-55" font-family="Helvetica,sans-Serif" font-size="10.00">Logic::simulateTO</text>
</a>
</g>
</g>
<!-- Node2&#45;&gt;Node3 -->
<g id="edge2" class="edge">
<title>Node2&#45;&gt;Node3</title>
<path fill="none" stroke="midnightblue" d="M690.2,-57.5C678.09,-57.5 665.92,-57.5 654.78,-57.5"/>
<polygon fill="midnightblue" stroke="midnightblue" points="690.32,-61 700.32,-57.5 690.32,-54 690.32,-61"/>
</g>
<!-- Node4 -->
<g id="node4" class="node">
<title>Node4</title>
<g id="a_node4"><a xlink:href="../../d2/d5c/class_iface.html#ad724ec2c6a2aa884f61de19193affc6a" target="_top" xlink:title=" ">
<polygon fill="none" stroke="black" points="405,-86 405,-105 520,-105 520,-86 405,-86"/>
<text text-anchor="middle" x="462.5" y="-93" font-family="Helvetica,sans-Serif" font-size="10.00">Iface::requestLEGACY</text>
</a>
</g>
</g>
<!-- Node3&#45;&gt;Node4 -->
<g id="edge3" class="edge">
<title>Node3&#45;&gt;Node4</title>
<path fill="none" stroke="midnightblue" d="M560.35,-69.67C540.64,-74.93 517.93,-80.99 499.45,-85.91"/>
<polygon fill="midnightblue" stroke="midnightblue" points="561.28,-73.05 570.04,-67.09 559.48,-66.28 561.28,-73.05"/>
</g>
<!-- Node5 -->
<g id="node5" class="node">
<title>Node5</title>
<g id="a_node5"><a xlink:href="../../d2/d5c/class_iface.html#abae0122b800731a979c9f8e4c3a58176" target="_top" xlink:title=" ">
<polygon fill="none" stroke="black" points="429,-48 429,-67 496,-67 496,-48 429,-48"/>
<text text-anchor="middle" x="462.5" y="-55" font-family="Helvetica,sans-Serif" font-size="10.00">Iface::round</text>
</a>
</g>
</g>
<!-- Node3&#45;&gt;Node5 -->
<g id="edge4" class="edge">
<title>Node3&#45;&gt;Node5</title>
<path fill="none" stroke="midnightblue" d="M549.23,-57.5C531.25,-57.5 511.98,-57.5 496.28,-57.5"/>
<polygon fill="midnightblue" stroke="midnightblue" points="549.34,-61 559.34,-57.5 549.34,-54 549.34,-61"/>
</g>
<!-- Node6 -->
<g id="node6" class="node">
<title>Node6</title>
<g id="a_node6"><a xlink:href="../../d2/d5c/class_iface.html#a44e6d0db22abbce5cb8c132e5f1d4284" target="_top" xlink:title=" ">
<polygon fill="none" stroke="black" points="268,-50 268,-69 330,-69 330,-50 268,-50"/>
<text text-anchor="middle" x="299" y="-57" font-family="Helvetica,sans-Serif" font-size="10.00">Iface::start</text>
</a>
</g>
</g>
<!-- Node5&#45;&gt;Node6 -->
<g id="edge5" class="edge">
<title>Node5&#45;&gt;Node6</title>
<path fill="none" stroke="midnightblue" d="M418.56,-58.03C390.69,-58.38 355.07,-58.82 330.18,-59.13"/>
<polygon fill="midnightblue" stroke="midnightblue" points="418.86,-61.53 428.82,-57.9 418.78,-54.53 418.86,-61.53"/>
</g>
<!-- Node7 -->
<g id="node7" class="node">
<title>Node7</title>
<g id="a_node7"><a xlink:href="../../dc/d90/class_anti_virus.html#affe3f62a87b880cc964188d9ddb9d562" target="_top" xlink:title=" ">
<polygon fill="none" stroke="black" points="74,-50 74,-69 193,-69 193,-50 74,-50"/>
<text text-anchor="middle" x="133.5" y="-57" font-family="Helvetica,sans-Serif" font-size="10.00">AntiVirus::startInterface</text>
</a>
</g>
</g>
<!-- Node6&#45;&gt;Node7 -->
<g id="edge6" class="edge">
<title>Node6&#45;&gt;Node7</title>
<path fill="none" stroke="midnightblue" d="M257.61,-59.5C238.18,-59.5 214.54,-59.5 193.18,-59.5"/>
<polygon fill="midnightblue" stroke="midnightblue" points="257.63,-63 267.63,-59.5 257.63,-56 257.63,-63"/>
</g>
<!-- Node8 -->
<g id="node8" class="node">
<title>Node8</title>
<g id="a_node8"><a xlink:href="../../df/d0a/main_8cpp.html#ae66f6b31b5ad750f1fe042a706a4e3d4" target="_top" xlink:title=" ">
<polygon fill="none" stroke="black" points="0,-50 0,-69 38,-69 38,-50 0,-50"/>
<text text-anchor="middle" x="19" y="-57" font-family="Helvetica,sans-Serif" font-size="10.00">main</text>
</a>
</g>
</g>
<!-- Node7&#45;&gt;Node8 -->
<g id="edge7" class="edge">
<title>Node7&#45;&gt;Node8</title>
<path fill="none" stroke="midnightblue" d="M63.65,-59.5C54.29,-59.5 45.43,-59.5 38.16,-59.5"/>
<polygon fill="midnightblue" stroke="midnightblue" points="63.94,-63 73.94,-59.5 63.94,-56 63.94,-63"/>
</g>
<!-- Node10 -->
<g id="node10" class="node">
<title>Node10</title>
<g id="a_node10"><a xlink:href="../../d9/dbf/class_window.html#a613473425472a8fa471f2cbd4926aa2e" target="_top" xlink:title=" ">
<polygon fill="none" stroke="black" points="556,-10 556,-29 658,-29 658,-10 556,-10"/>
<text text-anchor="middle" x="607" y="-17" font-family="Helvetica,sans-Serif" font-size="10.00">Window::createGrid</text>
</a>
</g>
</g>
<!-- Node9&#45;&gt;Node10 -->
<g id="edge9" class="edge">
<title>Node9&#45;&gt;Node10</title>
<path fill="none" stroke="midnightblue" d="M683.61,-19.5C674.91,-19.5 666.28,-19.5 658.14,-19.5"/>
<polygon fill="midnightblue" stroke="midnightblue" points="683.82,-23 693.82,-19.5 683.82,-16 683.82,-23"/>
</g>
<!-- Node11 -->
<g id="node11" class="node">
<title>Node11</title>
<g id="a_node11"><a xlink:href="../../d9/dbf/class_window.html#a59515fc5a56e86d5a46d771595daac55" target="_top" xlink:title=" ">
<polygon fill="none" stroke="black" points="419.5,-9 419.5,-28 505.5,-28 505.5,-9 419.5,-9"/>
<text text-anchor="middle" x="462.5" y="-16" font-family="Helvetica,sans-Serif" font-size="10.00">Window::update</text>
</a>
</g>
</g>
<!-- Node10&#45;&gt;Node11 -->
<g id="edge10" class="edge">
<title>Node10&#45;&gt;Node11</title>
<path fill="none" stroke="midnightblue" d="M545.63,-19.08C532.21,-18.98 518.26,-18.88 505.75,-18.8"/>
<polygon fill="midnightblue" stroke="midnightblue" points="545.74,-22.58 555.76,-19.15 545.78,-15.58 545.74,-22.58"/>
</g>
<!-- Node12 -->
<g id="node12" class="node">
<title>Node12</title>
<g id="a_node12"><a xlink:href="../../d0/d85/class_visualization.html#a83a40506ae13f42fefad3449d644909a" target="_top" xlink:title=" ">
<polygon fill="none" stroke="black" points="229,-0.5 229,-30.5 369,-30.5 369,-0.5 229,-0.5"/>
<text text-anchor="start" x="237" y="-18.5" font-family="Helvetica,sans-Serif" font-size="10.00">Visualization::displayCurrent</text>
<text text-anchor="middle" x="299" y="-7.5" font-family="Helvetica,sans-Serif" font-size="10.00">Round</text>
</a>
</g>
</g>
<!-- Node11&#45;&gt;Node12 -->
<g id="edge11" class="edge">
<title>Node11&#45;&gt;Node12</title>
<path fill="none" stroke="midnightblue" d="M409.43,-17.53C396.55,-17.29 382.56,-17.03 369.01,-16.78"/>
<polygon fill="midnightblue" stroke="midnightblue" points="409.43,-21.03 419.49,-17.72 409.56,-14.03 409.43,-21.03"/>
</g>
</g>
</svg>
