<?xml version="1.0" encoding="UTF-8" standalone="no"?>
<!DOCTYPE svg PUBLIC "-//W3C//DTD SVG 1.1//EN"
 "http://www.w3.org/Graphics/SVG/1.1/DTD/svg11.dtd">
<!-- Generated by graphviz version 2.44.1 (20200629.0846)
 -->
<!-- Title: Field::getLastInfectionRates Pages: 1 -->
<svg width="932pt" height="102pt"
 viewBox="0.00 0.00 932.00 101.50" xmlns="http://www.w3.org/2000/svg" xmlns:xlink="http://www.w3.org/1999/xlink">
<g id="graph0" class="graph" transform="scale(1 1) rotate(0) translate(4 97.5)">
<title>Field::getLastInfectionRates</title>
<!-- Node1 -->
<g id="node1" class="node">
<title>Node1</title>
<g id="a_node1"><a xlink:title=" ">
<polygon fill="#bfbfbf" stroke="black" points="787,-30 787,-49 924,-49 924,-30 787,-30"/>
<text text-anchor="middle" x="855.5" y="-37" font-family="Helvetica,sans-Serif" font-size="10.00">Field::getLastInfectionRates</text>
</a>
</g>
</g>
<!-- Node2 -->
<g id="node2" class="node">
<title>Node2</title>
<g id="a_node2"><a xlink:href="../../da/df6/class_logic.html#acf435c045c675cb3ad14f7bf8732940e" target="_top" xlink:title=" ">
<polygon fill="none" stroke="black" points="609,-49.5 609,-79.5 751,-79.5 751,-49.5 609,-49.5"/>
<text text-anchor="start" x="617" y="-67.5" font-family="Helvetica,sans-Serif" font-size="10.00">Logic::calculateSpontaneous</text>
<text text-anchor="middle" x="680" y="-56.5" font-family="Helvetica,sans-Serif" font-size="10.00">Healing</text>
</a>
</g>
</g>
<!-- Node1&#45;&gt;Node2 -->
<g id="edge1" class="edge">
<title>Node1&#45;&gt;Node2</title>
<path fill="none" stroke="midnightblue" d="M778.33,-50.48C769.32,-51.77 760.16,-53.09 751.23,-54.38"/>
<polygon fill="midnightblue" stroke="midnightblue" points="779.01,-53.91 788.41,-49.02 778.02,-46.98 779.01,-53.91"/>
</g>
<!-- Node9 -->
<g id="node9" class="node">
<title>Node9</title>
<g id="a_node9"><a xlink:href="../../da/df6/class_logic.html#a1a2ddbd7540b8ede1bcc7976d31f9836" target="_top" xlink:title=" ">
<polygon fill="none" stroke="black" points="609,-0.5 609,-30.5 751,-30.5 751,-0.5 609,-0.5"/>
<text text-anchor="start" x="617" y="-18.5" font-family="Helvetica,sans-Serif" font-size="10.00">Logic::calculateSpontaneous</text>
<text text-anchor="middle" x="680" y="-7.5" font-family="Helvetica,sans-Serif" font-size="10.00">HealingLEGACY</text>
</a>
</g>
</g>
<!-- Node1&#45;&gt;Node9 -->
<g id="edge8" class="edge">
<title>Node1&#45;&gt;Node9</title>
<path fill="none" stroke="midnightblue" d="M776.95,-28.77C768.39,-27.59 759.72,-26.39 751.25,-25.22"/>
<polygon fill="midnightblue" stroke="midnightblue" points="776.54,-32.25 786.92,-30.15 777.5,-25.31 776.54,-32.25"/>
</g>
<!-- Node3 -->
<g id="node3" class="node">
<title>Node3</title>
<g id="a_node3"><a xlink:href="../../da/df6/class_logic.html#a7ebaa13c8a671d82c669431478524784" target="_top" xlink:title=" ">
<polygon fill="none" stroke="black" points="478,-55 478,-74 573,-74 573,-55 478,-55"/>
<text text-anchor="middle" x="525.5" y="-62" font-family="Helvetica,sans-Serif" font-size="10.00">Logic::simulateTO</text>
</a>
</g>
</g>
<!-- Node2&#45;&gt;Node3 -->
<g id="edge2" class="edge">
<title>Node2&#45;&gt;Node3</title>
<path fill="none" stroke="midnightblue" d="M598.8,-64.5C590.12,-64.5 581.51,-64.5 573.41,-64.5"/>
<polygon fill="midnightblue" stroke="midnightblue" points="599,-68 609,-64.5 599,-61 599,-68"/>
</g>
<!-- Node4 -->
<g id="node4" class="node">
<title>Node4</title>
<g id="a_node4"><a xlink:href="../../d2/d5c/class_iface.html#ad724ec2c6a2aa884f61de19193affc6a" target="_top" xlink:title=" ">
<polygon fill="none" stroke="black" points="327,-74 327,-93 442,-93 442,-74 327,-74"/>
<text text-anchor="middle" x="384.5" y="-81" font-family="Helvetica,sans-Serif" font-size="10.00">Iface::requestLEGACY</text>
</a>
</g>
</g>
<!-- Node3&#45;&gt;Node4 -->
<g id="edge3" class="edge">
<title>Node3&#45;&gt;Node4</title>
<path fill="none" stroke="midnightblue" d="M467.78,-72.25C459.42,-73.4 450.8,-74.57 442.43,-75.72"/>
<polygon fill="midnightblue" stroke="midnightblue" points="468.39,-75.7 477.83,-70.88 467.45,-68.77 468.39,-75.7"/>
</g>
<!-- Node5 -->
<g id="node5" class="node">
<title>Node5</title>
<g id="a_node5"><a xlink:href="../../d2/d5c/class_iface.html#abae0122b800731a979c9f8e4c3a58176" target="_top" xlink:title=" ">
<polygon fill="none" stroke="black" points="351,-36 351,-55 418,-55 418,-36 351,-36"/>
<text text-anchor="middle" x="384.5" y="-43" font-family="Helvetica,sans-Serif" font-size="10.00">Iface::round</text>
</a>
</g>
</g>
<!-- Node3&#45;&gt;Node5 -->
<g id="edge4" class="edge">
<title>Node3&#45;&gt;Node5</title>
<path fill="none" stroke="midnightblue" d="M467.54,-56.71C450.75,-54.42 432.94,-51.98 418.23,-49.97"/>
<polygon fill="midnightblue" stroke="midnightblue" points="467.45,-60.23 477.83,-58.12 468.39,-53.3 467.45,-60.23"/>
</g>
<!-- Node6 -->
<g id="node6" class="node">
<title>Node6</title>
<g id="a_node6"><a xlink:href="../../d2/d5c/class_iface.html#a44e6d0db22abbce5cb8c132e5f1d4284" target="_top" xlink:title=" ">
<polygon fill="none" stroke="black" points="229,-36 229,-55 291,-55 291,-36 229,-36"/>
<text text-anchor="middle" x="260" y="-43" font-family="Helvetica,sans-Serif" font-size="10.00">Iface::start</text>
</a>
</g>
</g>
<!-- Node5&#45;&gt;Node6 -->
<g id="edge5" class="edge">
<title>Node5&#45;&gt;Node6</title>
<path fill="none" stroke="midnightblue" d="M340.6,-45.5C324.27,-45.5 306.03,-45.5 291.13,-45.5"/>
<polygon fill="midnightblue" stroke="midnightblue" points="340.99,-49 350.99,-45.5 340.99,-42 340.99,-49"/>
</g>
<!-- Node7 -->
<g id="node7" class="node">
<title>Node7</title>
<g id="a_node7"><a xlink:href="../../dc/d90/class_anti_virus.html#affe3f62a87b880cc964188d9ddb9d562" target="_top" xlink:title=" ">
<polygon fill="none" stroke="black" points="74,-36 74,-55 193,-55 193,-36 74,-36"/>
<text text-anchor="middle" x="133.5" y="-43" font-family="Helvetica,sans-Serif" font-size="10.00">AntiVirus::startInterface</text>
</a>
</g>
</g>
<!-- Node6&#45;&gt;Node7 -->
<g id="edge6" class="edge">
<title>Node6&#45;&gt;Node7</title>
<path fill="none" stroke="midnightblue" d="M218.83,-45.5C210.62,-45.5 201.82,-45.5 193.12,-45.5"/>
<polygon fill="midnightblue" stroke="midnightblue" points="218.86,-49 228.86,-45.5 218.86,-42 218.86,-49"/>
</g>
<!-- Node8 -->
<g id="node8" class="node">
<title>Node8</title>
<g id="a_node8"><a xlink:href="../../df/d0a/main_8cpp.html#ae66f6b31b5ad750f1fe042a706a4e3d4" target="_top" xlink:title=" ">
<polygon fill="none" stroke="black" points="0,-36 0,-55 38,-55 38,-36 0,-36"/>
<text text-anchor="middle" x="19" y="-43" font-family="Helvetica,sans-Serif" font-size="10.00">main</text>
</a>
</g>
</g>
<!-- Node7&#45;&gt;Node8 -->
<g id="edge7" class="edge">
<title>Node7&#45;&gt;Node8</title>
<path fill="none" stroke="midnightblue" d="M63.65,-45.5C54.29,-45.5 45.43,-45.5 38.16,-45.5"/>
<polygon fill="midnightblue" stroke="midnightblue" points="63.94,-49 73.94,-45.5 63.94,-42 63.94,-49"/>
</g>
</g>
</svg>
