<?xml version="1.0" encoding="UTF-8" standalone="no"?>
<!DOCTYPE svg PUBLIC "-//W3C//DTD SVG 1.1//EN"
 "http://www.w3.org/Graphics/SVG/1.1/DTD/svg11.dtd">
<!-- Generated by graphviz version 2.44.1 (20200629.0846)
 -->
<!-- Title: Field::vaccinesToPutForTotalHealing Pages: 1 -->
<svg width="439pt" height="53pt"
 viewBox="0.00 0.00 439.00 52.50" xmlns="http://www.w3.org/2000/svg" xmlns:xlink="http://www.w3.org/1999/xlink">
<g id="graph0" class="graph" transform="scale(1 1) rotate(0) translate(4 48.5)">
<title>Field::vaccinesToPutForTotalHealing</title>
<!-- Node1 -->
<g id="node1" class="node">
<title>Node1</title>
<g id="a_node1"><a xlink:title=" ">
<polygon fill="#bfbfbf" stroke="black" points="289,-0.5 289,-30.5 431,-30.5 431,-0.5 289,-0.5"/>
<text text-anchor="start" x="297" y="-18.5" font-family="Helvetica,sans-Serif" font-size="10.00">Field::vaccinesToPutForTotal</text>
<text text-anchor="middle" x="360" y="-7.5" font-family="Helvetica,sans-Serif" font-size="10.00">Healing</text>
</a>
</g>
</g>
<!-- Node2 -->
<g id="node2" class="node">
<title>Node2</title>
<g id="a_node2"><a xlink:href="../../d2/d5b/class_graph_algos.html#a05980a7c241d7f0c6d4356e6210df1e2" target="_top" xlink:title=" ">
<polygon fill="none" stroke="black" points="141,-25 141,-44 253,-44 253,-25 141,-25"/>
<text text-anchor="middle" x="197" y="-32" font-family="Helvetica,sans-Serif" font-size="10.00">GraphAlgos::calcPath</text>
</a>
</g>
</g>
<!-- Node1&#45;&gt;Node2 -->
<g id="edge1" class="edge">
<title>Node1&#45;&gt;Node2</title>
<path fill="none" stroke="midnightblue" d="M278.79,-24.97C270.2,-25.98 261.61,-26.99 253.4,-27.96"/>
<polygon fill="midnightblue" stroke="midnightblue" points="279.33,-28.43 288.85,-23.78 278.51,-21.47 279.33,-28.43"/>
</g>
<!-- Node3 -->
<g id="node3" class="node">
<title>Node3</title>
<g id="a_node3"><a xlink:href="../../d2/d5b/class_graph_algos.html#af00f038c0816aca536aacf698936a029" target="_top" xlink:title=" ">
<polygon fill="none" stroke="black" points="0,-6 0,-25 105,-25 105,-6 0,-6"/>
<text text-anchor="middle" x="52.5" y="-13" font-family="Helvetica,sans-Serif" font-size="10.00">GraphAlgos::dijkstra</text>
</a>
</g>
</g>
<!-- Node1&#45;&gt;Node3 -->
<g id="edge3" class="edge">
<title>Node1&#45;&gt;Node3</title>
<path fill="none" stroke="midnightblue" d="M278.86,-15.5C223.93,-15.5 152.69,-15.5 105.15,-15.5"/>
<polygon fill="midnightblue" stroke="midnightblue" points="278.91,-19 288.91,-15.5 278.91,-12 278.91,-19"/>
</g>
<!-- Node2&#45;&gt;Node3 -->
<g id="edge2" class="edge">
<title>Node2&#45;&gt;Node3</title>
<path fill="none" stroke="midnightblue" d="M130.88,-25.82C122.26,-24.67 113.52,-23.5 105.18,-22.39"/>
<polygon fill="midnightblue" stroke="midnightblue" points="130.53,-29.3 140.91,-27.15 131.46,-22.36 130.53,-29.3"/>
</g>
</g>
</svg>
