<?xml version="1.0" encoding="UTF-8" standalone="no"?>
<!DOCTYPE svg PUBLIC "-//W3C//DTD SVG 1.1//EN"
 "http://www.w3.org/Graphics/SVG/1.1/DTD/svg11.dtd">
<!-- Generated by graphviz version 2.44.1 (20200629.0846)
 -->
<!-- Title: Field::vaccinesToPutMinimal Pages: 1 -->
<svg width="837pt" height="183pt"
 viewBox="0.00 0.00 837.00 182.60" xmlns="http://www.w3.org/2000/svg" xmlns:xlink="http://www.w3.org/1999/xlink">
<g id="graph0" class="graph" transform="scale(1 1) rotate(0) translate(4 178.6)">
<title>Field::vaccinesToPutMinimal</title>
<!-- Node1 -->
<g id="node1" class="node">
<title>Node1</title>
<g id="a_node1"><a xlink:title=" ">
<polygon fill="#bfbfbf" stroke="black" points="689,-76.5 689,-95.5 829,-95.5 829,-76.5 689,-76.5"/>
<text text-anchor="middle" x="759" y="-83.5" font-family="Helvetica,sans-Serif" font-size="10.00">Field::vaccinesToPutMinimal</text>
</a>
</g>
</g>
<!-- Node2 -->
<g id="node2" class="node">
<title>Node2</title>
<g id="a_node2"><a xlink:href="../../d2/d5b/class_graph_algos.html#a05980a7c241d7f0c6d4356e6210df1e2" target="_top" xlink:title=" ">
<polygon fill="none" stroke="black" points="317,-85.5 317,-104.5 429,-104.5 429,-85.5 317,-85.5"/>
<text text-anchor="middle" x="373" y="-92.5" font-family="Helvetica,sans-Serif" font-size="10.00">GraphAlgos::calcPath</text>
</a>
</g>
</g>
<!-- Node1&#45;&gt;Node2 -->
<g id="edge1" class="edge">
<title>Node1&#45;&gt;Node2</title>
<path fill="none" stroke="midnightblue" d="M678.63,-87.86C604.12,-89.61 494.59,-92.17 429.17,-93.71"/>
<polygon fill="midnightblue" stroke="midnightblue" points="678.99,-91.35 688.91,-87.62 678.83,-84.35 678.99,-91.35"/>
</g>
<!-- Node3 -->
<g id="node3" class="node">
<title>Node3</title>
<g id="a_node3"><a xlink:href="../../d2/d5b/class_graph_algos.html#af00f038c0816aca536aacf698936a029" target="_top" xlink:title=" ">
<polygon fill="none" stroke="black" points="176,-123.5 176,-142.5 281,-142.5 281,-123.5 176,-123.5"/>
<text text-anchor="middle" x="228.5" y="-130.5" font-family="Helvetica,sans-Serif" font-size="10.00">GraphAlgos::dijkstra</text>
</a>
</g>
</g>
<!-- Node1&#45;&gt;Node3 -->
<g id="edge9" class="edge">
<title>Node1&#45;&gt;Node3</title>
<path fill="none" stroke="midnightblue" d="M740.52,-102.2C720.93,-119.16 687.38,-144.72 653,-155 513.87,-196.62 337.72,-161.04 264.19,-142.52"/>
<polygon fill="midnightblue" stroke="midnightblue" points="742.88,-104.79 748.03,-95.53 738.23,-99.56 742.88,-104.79"/>
</g>
<!-- Node4 -->
<g id="node4" class="node">
<title>Node4</title>
<g id="a_node4"><a xlink:href="../../d9/dbf/class_window.html#a3d7f68f2fe4c1e7d787353b056090ea4" target="_top" xlink:title=" ">
<polygon fill="none" stroke="black" points="470.5,-38.5 470.5,-57.5 647.5,-57.5 647.5,-38.5 470.5,-38.5"/>
<text text-anchor="middle" x="559" y="-45.5" font-family="Helvetica,sans-Serif" font-size="10.00">Window::createAcquiredDistrictsMap</text>
</a>
</g>
</g>
<!-- Node1&#45;&gt;Node4 -->
<g id="edge3" class="edge">
<title>Node1&#45;&gt;Node4</title>
<path fill="none" stroke="midnightblue" d="M698.13,-74.51C669.88,-69.09 636.56,-62.69 609.73,-57.54"/>
<polygon fill="midnightblue" stroke="midnightblue" points="697.81,-78.01 708.29,-76.46 699.13,-71.14 697.81,-78.01"/>
</g>
<!-- Node8 -->
<g id="node8" class="node">
<title>Node8</title>
<g id="a_node8"><a xlink:href="../../d9/dbf/class_window.html#a559be400478ab10fd0c147c3e88710be" target="_top" xlink:title=" ">
<polygon fill="none" stroke="black" points="465,-0.5 465,-19.5 653,-19.5 653,-0.5 465,-0.5"/>
<text text-anchor="middle" x="559" y="-7.5" font-family="Helvetica,sans-Serif" font-size="10.00">Window::createMinimalVaccinationMap</text>
</a>
</g>
</g>
<!-- Node1&#45;&gt;Node8 -->
<g id="edge7" class="edge">
<title>Node1&#45;&gt;Node8</title>
<path fill="none" stroke="midnightblue" d="M735.01,-70.92C714.34,-58.01 682.74,-39.84 653,-29 642.63,-25.22 631.31,-22.12 620.26,-19.6"/>
<polygon fill="midnightblue" stroke="midnightblue" points="733.38,-74.03 743.7,-76.44 737.13,-68.12 733.38,-74.03"/>
</g>
<!-- Node9 -->
<g id="node9" class="node">
<title>Node9</title>
<g id="a_node9"><a xlink:href="../../dc/d67/class_field.html#a4e827e77d4d643af74e873ba5c75add2" target="_top" xlink:title=" ">
<polygon fill="none" stroke="black" points="488,-115 488,-145 630,-145 630,-115 488,-115"/>
<text text-anchor="start" x="496" y="-133" font-family="Helvetica,sans-Serif" font-size="10.00">Field::vaccinesToPutForTotal</text>
<text text-anchor="middle" x="559" y="-122" font-family="Helvetica,sans-Serif" font-size="10.00">Healing</text>
</a>
</g>
</g>
<!-- Node1&#45;&gt;Node9 -->
<g id="edge10" class="edge">
<title>Node1&#45;&gt;Node9</title>
<path fill="none" stroke="midnightblue" d="M705.16,-97.74C681.41,-103.02 653.09,-109.31 627.79,-114.93"/>
<polygon fill="midnightblue" stroke="midnightblue" points="706.03,-101.13 715.04,-95.55 704.52,-94.3 706.03,-101.13"/>
</g>
<!-- Node2&#45;&gt;Node3 -->
<g id="edge2" class="edge">
<title>Node2&#45;&gt;Node3</title>
<path fill="none" stroke="midnightblue" d="M326.35,-107.17C306.64,-112.43 283.93,-118.49 265.45,-123.41"/>
<polygon fill="midnightblue" stroke="midnightblue" points="327.28,-110.55 336.04,-104.59 325.48,-103.78 327.28,-110.55"/>
</g>
<!-- Node5 -->
<g id="node5" class="node">
<title>Node5</title>
<g id="a_node5"><a xlink:href="../../d9/dbf/class_window.html#a613473425472a8fa471f2cbd4926aa2e" target="_top" xlink:title=" ">
<polygon fill="none" stroke="black" points="322,-19.5 322,-38.5 424,-38.5 424,-19.5 322,-19.5"/>
<text text-anchor="middle" x="373" y="-26.5" font-family="Helvetica,sans-Serif" font-size="10.00">Window::createGrid</text>
</a>
</g>
</g>
<!-- Node4&#45;&gt;Node5 -->
<g id="edge4" class="edge">
<title>Node4&#45;&gt;Node5</title>
<path fill="none" stroke="midnightblue" d="M460.29,-37.91C447.81,-36.62 435.47,-35.35 424.2,-34.18"/>
<polygon fill="midnightblue" stroke="midnightblue" points="460,-41.4 470.31,-38.95 460.72,-34.44 460,-41.4"/>
</g>
<!-- Node6 -->
<g id="node6" class="node">
<title>Node6</title>
<g id="a_node6"><a xlink:href="../../d9/dbf/class_window.html#a59515fc5a56e86d5a46d771595daac55" target="_top" xlink:title=" ">
<polygon fill="none" stroke="black" points="185.5,-19.5 185.5,-38.5 271.5,-38.5 271.5,-19.5 185.5,-19.5"/>
<text text-anchor="middle" x="228.5" y="-26.5" font-family="Helvetica,sans-Serif" font-size="10.00">Window::update</text>
</a>
</g>
</g>
<!-- Node5&#45;&gt;Node6 -->
<g id="edge5" class="edge">
<title>Node5&#45;&gt;Node6</title>
<path fill="none" stroke="midnightblue" d="M311.63,-29C298.21,-29 284.26,-29 271.75,-29"/>
<polygon fill="midnightblue" stroke="midnightblue" points="311.76,-32.5 321.76,-29 311.76,-25.5 311.76,-32.5"/>
</g>
<!-- Node7 -->
<g id="node7" class="node">
<title>Node7</title>
<g id="a_node7"><a xlink:href="../../d0/d85/class_visualization.html#a83a40506ae13f42fefad3449d644909a" target="_top" xlink:title=" ">
<polygon fill="none" stroke="black" points="0,-14 0,-44 140,-44 140,-14 0,-14"/>
<text text-anchor="start" x="8" y="-32" font-family="Helvetica,sans-Serif" font-size="10.00">Visualization::displayCurrent</text>
<text text-anchor="middle" x="70" y="-21" font-family="Helvetica,sans-Serif" font-size="10.00">Round</text>
</a>
</g>
</g>
<!-- Node6&#45;&gt;Node7 -->
<g id="edge6" class="edge">
<title>Node6&#45;&gt;Node7</title>
<path fill="none" stroke="midnightblue" d="M175.13,-29C163.93,-29 151.95,-29 140.23,-29"/>
<polygon fill="midnightblue" stroke="midnightblue" points="175.15,-32.5 185.15,-29 175.15,-25.5 175.15,-32.5"/>
</g>
<!-- Node8&#45;&gt;Node5 -->
<g id="edge8" class="edge">
<title>Node8&#45;&gt;Node5</title>
<path fill="none" stroke="midnightblue" d="M455.66,-20.57C444.74,-21.7 434.01,-22.8 424.11,-23.83"/>
<polygon fill="midnightblue" stroke="midnightblue" points="456.14,-24.04 465.73,-19.53 455.42,-17.07 456.14,-24.04"/>
</g>
<!-- Node9&#45;&gt;Node2 -->
<g id="edge11" class="edge">
<title>Node9&#45;&gt;Node2</title>
<path fill="none" stroke="midnightblue" d="M477.86,-114.76C459.62,-111.29 440.74,-107.69 424.16,-104.54"/>
<polygon fill="midnightblue" stroke="midnightblue" points="477.43,-118.24 487.91,-116.67 478.74,-111.36 477.43,-118.24"/>
</g>
<!-- Node9&#45;&gt;Node3 -->
<g id="edge12" class="edge">
<title>Node9&#45;&gt;Node3</title>
<path fill="none" stroke="midnightblue" d="M477.91,-130.73C416.64,-131.29 333.97,-132.05 281.18,-132.53"/>
<polygon fill="midnightblue" stroke="midnightblue" points="477.96,-134.23 487.93,-130.64 477.9,-127.23 477.96,-134.23"/>
</g>
</g>
</svg>
