<?xml version="1.0" encoding="UTF-8" standalone="no"?>
<!DOCTYPE svg PUBLIC "-//W3C//DTD SVG 1.1//EN"
 "http://www.w3.org/Graphics/SVG/1.1/DTD/svg11.dtd">
<!-- Generated by graphviz version 2.44.1 (20200629.0846)
 -->
<!-- Title: Field::getCurrentInfectionRate Pages: 1 -->
<!--zoomable 322 -->
<svg id="main" version="1.1" xmlns="http://www.w3.org/2000/svg" xmlns:xlink="http://www.w3.org/1999/xlink" xml:space="preserve" onload="init(evt)">
<style type="text/css"><![CDATA[
.edge:hover path { stroke: red; }
.edge:hover polygon { stroke: red; fill: red; }
]]></style>
<script type="text/javascript"><![CDATA[
var edges = document.getElementsByTagName('g');
if (edges && edges.length) {
  for (var i=0;i<edges.length;i++) {
    if (edges[i].id.substr(0,4)=='edge') {
      edges[i].setAttribute('class','edge');
    }
  }
}
]]></script>
        <defs>
                <circle id="rim" cx="0" cy="0" r="7"/>
                <circle id="rim2" cx="0" cy="0" r="3.5"/>
                <g id="zoomPlus">
                        <use xlink:href="#rim" fill="#404040">
                                <set attributeName="fill" to="#808080" begin="zoomplus.mouseover" end="zoomplus.mouseout"/>
                        </use>
                        <path d="M-4,0h8M0,-4v8" fill="none" stroke="white" stroke-width="1.5" pointer-events="none"/>
                </g>
                <g id="zoomMin">
                        <use xlink:href="#rim" fill="#404040">
                                <set attributeName="fill" to="#808080" begin="zoomminus.mouseover" end="zoomminus.mouseout"/>
                        </use>
                        <path d="M-4,0h8" fill="none" stroke="white" stroke-width="1.5" pointer-events="none"/>
                </g>
                <g id="dirArrow">
                        <path fill="none" stroke="white" stroke-width="1.5" d="M0,-3.0v7 M-2.5,-0.5L0,-3.0L2.5,-0.5"/>
                </g>
               <g id="resetDef">
                       <use xlink:href="#rim2" fill="#404040">
                               <set attributeName="fill" to="#808080" begin="reset.mouseover" end="reset.mouseout"/>
                       </use>
               </g>
        </defs>

<script type="text/javascript">
var viewWidth = 1064;
var viewHeight = 322;
var sectionId = 'dynsection-3';
</script>
<script xlink:href="../../svgpan.js"/>
<svg id="graph" class="graph">
<g id="viewport">
<title>Field::getCurrentInfectionRate</title>
<!-- Node1 -->
<g id="node1" class="node">
<title>Node1</title>
<g id="a_node1"><a xlink:title=" ">
<polygon fill="#bfbfbf" stroke="black" points="911,-139 911,-158 1056,-158 1056,-139 911,-139"/>
<text text-anchor="middle" x="983.5" y="-146" font-family="Helvetica,sans-Serif" font-size="10.00">Field::getCurrentInfectionRate</text>
</a>
</g>
</g>
<!-- Node2 -->
<g id="node2" class="node">
<title>Node2</title>
<g id="a_node2"><a xlink:href="../../da/df6/class_logic.html#acf435c045c675cb3ad14f7bf8732940e" target="_top" xlink:title=" ">
<polygon fill="none" stroke="black" points="724.5,-283.5 724.5,-313.5 866.5,-313.5 866.5,-283.5 724.5,-283.5"/>
<text text-anchor="start" x="732.5" y="-301.5" font-family="Helvetica,sans-Serif" font-size="10.00">Logic::calculateSpontaneous</text>
<text text-anchor="middle" x="795.5" y="-290.5" font-family="Helvetica,sans-Serif" font-size="10.00">Healing</text>
</a>
</g>
</g>
<!-- Node1&#45;&gt;Node2 -->
<g id="edge1" class="edge">
<title>Node1&#45;&gt;Node2</title>
<path fill="none" stroke="midnightblue" d="M971.85,-166.58C954.82,-193.95 918.87,-245.72 875,-274.5 869.76,-277.94 864,-280.91 858.05,-283.46"/>
<polygon fill="midnightblue" stroke="midnightblue" points="974.86,-168.36 977.07,-158 968.88,-164.73 974.86,-168.36"/>
</g>
<!-- Node9 -->
<g id="node9" class="node">
<title>Node9</title>
<g id="a_node9"><a xlink:href="../../da/df6/class_logic.html#a1a2ddbd7540b8ede1bcc7976d31f9836" target="_top" xlink:title=" ">
<polygon fill="none" stroke="black" points="724.5,-234.5 724.5,-264.5 866.5,-264.5 866.5,-234.5 724.5,-234.5"/>
<text text-anchor="start" x="732.5" y="-252.5" font-family="Helvetica,sans-Serif" font-size="10.00">Logic::calculateSpontaneous</text>
<text text-anchor="middle" x="795.5" y="-241.5" font-family="Helvetica,sans-Serif" font-size="10.00">HealingLEGACY</text>
</a>
</g>
</g>
<!-- Node1&#45;&gt;Node9 -->
<g id="edge8" class="edge">
<title>Node1&#45;&gt;Node9</title>
<path fill="none" stroke="midnightblue" d="M963.36,-164.81C942.71,-181.71 908.3,-207.92 875,-224.5 867.57,-228.2 859.48,-231.5 851.41,-234.4"/>
<polygon fill="midnightblue" stroke="midnightblue" points="965.87,-167.27 971.32,-158.19 961.39,-161.89 965.87,-167.27"/>
</g>
<!-- Node10 -->
<g id="node10" class="node">
<title>Node10</title>
<g id="a_node10"><a xlink:href="../../da/df6/class_logic.html#ac8b8a4faa67a5f1868371796c9d5f3c2" target="_top" xlink:title=" ">
<polygon fill="none" stroke="black" points="727.5,-196 727.5,-215 863.5,-215 863.5,-196 727.5,-196"/>
<text text-anchor="middle" x="795.5" y="-203" font-family="Helvetica,sans-Serif" font-size="10.00">Logic::calculateVaccination</text>
</a>
</g>
</g>
<!-- Node1&#45;&gt;Node10 -->
<g id="edge9" class="edge">
<title>Node1&#45;&gt;Node10</title>
<path fill="none" stroke="midnightblue" d="M948.11,-161.67C927.15,-169.44 899.74,-179.16 875,-186.5 863.57,-189.89 851.08,-193.13 839.49,-195.93"/>
<polygon fill="midnightblue" stroke="midnightblue" points="949.4,-164.92 957.54,-158.14 946.95,-158.36 949.4,-164.92"/>
</g>
<!-- Node11 -->
<g id="node11" class="node">
<title>Node11</title>
<g id="a_node11"><a xlink:href="../../d9/dbf/class_window.html#a3cf04a74c49b1871b64436ef60fedc87" target="_top" xlink:title=" ">
<polygon fill="none" stroke="black" points="730,-158 730,-177 861,-177 861,-158 730,-158"/>
<text text-anchor="middle" x="795.5" y="-165" font-family="Helvetica,sans-Serif" font-size="10.00">Window::createDistrictCell</text>
</a>
</g>
</g>
<!-- Node1&#45;&gt;Node11 -->
<g id="edge11" class="edge">
<title>Node1&#45;&gt;Node11</title>
<path fill="none" stroke="midnightblue" d="M900.78,-156.85C887.5,-158.2 873.91,-159.59 861.11,-160.9"/>
<polygon fill="midnightblue" stroke="midnightblue" points="901.26,-160.32 910.85,-155.82 900.55,-153.35 901.26,-160.32"/>
</g>
<!-- Node14 -->
<g id="node14" class="node">
<title>Node14</title>
<g id="a_node14"><a xlink:href="../../d0/d85/class_visualization.html#a83a40506ae13f42fefad3449d644909a" target="_top" xlink:title=" ">
<polygon fill="none" stroke="black" points="229,-104.5 229,-134.5 369,-134.5 369,-104.5 229,-104.5"/>
<text text-anchor="start" x="237" y="-122.5" font-family="Helvetica,sans-Serif" font-size="10.00">Visualization::displayCurrent</text>
<text text-anchor="middle" x="299" y="-111.5" font-family="Helvetica,sans-Serif" font-size="10.00">Round</text>
</a>
</g>
</g>
<!-- Node1&#45;&gt;Node14 -->
<g id="edge17" class="edge">
<title>Node1&#45;&gt;Node14</title>
<path fill="none" stroke="midnightblue" d="M952.65,-134.86C931.48,-125.95 902.12,-115.15 875,-110.5 694.68,-79.57 477.88,-97.53 369.23,-110.24"/>
<polygon fill="midnightblue" stroke="midnightblue" points="951.48,-138.16 962.05,-138.91 954.26,-131.74 951.48,-138.16"/>
</g>
<!-- Node15 -->
<g id="node15" class="node">
<title>Node15</title>
<g id="a_node15"><a xlink:href="../../d9/dbf/class_window.html#a64c006506fe02aaabd214abef651d87d" target="_top" xlink:title=" ">
<polygon fill="none" stroke="black" points="716,-120 716,-139 875,-139 875,-120 716,-120"/>
<text text-anchor="middle" x="795.5" y="-127" font-family="Helvetica,sans-Serif" font-size="10.00">Window::createInfectionHeatMap</text>
</a>
</g>
</g>
<!-- Node1&#45;&gt;Node15 -->
<g id="edge15" class="edge">
<title>Node1&#45;&gt;Node15</title>
<path fill="none" stroke="midnightblue" d="M900.64,-140.14C892.19,-139.28 883.63,-138.4 875.22,-137.54"/>
<polygon fill="midnightblue" stroke="midnightblue" points="900.55,-143.65 910.85,-141.18 901.26,-136.68 900.55,-143.65"/>
</g>
<!-- Node16 -->
<g id="node16" class="node">
<title>Node16</title>
<g id="a_node16"><a xlink:href="../../d6/dcc/class_protocol.html#aa1fc30a5134e08b800865f53a14708a6" target="_top" xlink:title=" ">
<polygon fill="none" stroke="black" points="737,-44 737,-63 854,-63 854,-44 737,-44"/>
<text text-anchor="middle" x="795.5" y="-51" font-family="Helvetica,sans-Serif" font-size="10.00">Protocol::displayResult</text>
</a>
</g>
</g>
<!-- Node1&#45;&gt;Node16 -->
<g id="edge18" class="edge">
<title>Node1&#45;&gt;Node16</title>
<path fill="none" stroke="midnightblue" d="M962.53,-132.76C941.7,-116.97 907.58,-92.84 875,-77.5 862.62,-71.67 848.49,-66.84 835.66,-63.07"/>
<polygon fill="midnightblue" stroke="midnightblue" points="960.55,-135.65 970.61,-138.97 964.81,-130.1 960.55,-135.65"/>
</g>
<!-- Node17 -->
<g id="node17" class="node">
<title>Node17</title>
<g id="a_node17"><a xlink:href="../../d7/d8b/class_graphics.html#ac8f2a0735ce7724a2b76718029201269" target="_top" xlink:title=" ">
<polygon fill="none" stroke="black" points="719.5,-6 719.5,-25 871.5,-25 871.5,-6 719.5,-6"/>
<text text-anchor="middle" x="795.5" y="-13" font-family="Helvetica,sans-Serif" font-size="10.00">Graphics::terminalGraphicsRun</text>
</a>
</g>
</g>
<!-- Node1&#45;&gt;Node17 -->
<g id="edge19" class="edge">
<title>Node1&#45;&gt;Node17</title>
<path fill="none" stroke="midnightblue" d="M970.61,-130.41C952.9,-104.95 917.11,-58.95 875,-34.5 868.33,-30.63 860.9,-27.54 853.35,-25.08"/>
<polygon fill="midnightblue" stroke="midnightblue" points="967.78,-132.47 976.29,-138.78 973.57,-128.54 967.78,-132.47"/>
</g>
<!-- Node3 -->
<g id="node3" class="node">
<title>Node3</title>
<g id="a_node3"><a xlink:href="../../da/df6/class_logic.html#a7ebaa13c8a671d82c669431478524784" target="_top" xlink:title=" ">
<polygon fill="none" stroke="black" points="570.5,-206 570.5,-225 665.5,-225 665.5,-206 570.5,-206"/>
<text text-anchor="middle" x="618" y="-213" font-family="Helvetica,sans-Serif" font-size="10.00">Logic::simulateTO</text>
</a>
</g>
</g>
<!-- Node2&#45;&gt;Node3 -->
<g id="edge2" class="edge">
<title>Node2&#45;&gt;Node3</title>
<path fill="none" stroke="midnightblue" d="M729.45,-280.01C724.85,-278.28 720.32,-276.44 716,-274.5 684.35,-260.3 650.37,-237.74 632.22,-225.03"/>
<polygon fill="midnightblue" stroke="midnightblue" points="728.36,-283.34 738.96,-283.42 730.73,-276.75 728.36,-283.34"/>
</g>
<!-- Node4 -->
<g id="node4" class="node">
<title>Node4</title>
<g id="a_node4"><a xlink:href="../../d2/d5c/class_iface.html#ad724ec2c6a2aa884f61de19193affc6a" target="_top" xlink:title=" ">
<polygon fill="none" stroke="black" points="405,-209 405,-228 520,-228 520,-209 405,-209"/>
<text text-anchor="middle" x="462.5" y="-216" font-family="Helvetica,sans-Serif" font-size="10.00">Iface::requestLEGACY</text>
</a>
</g>
</g>
<!-- Node3&#45;&gt;Node4 -->
<g id="edge3" class="edge">
<title>Node3&#45;&gt;Node4</title>
<path fill="none" stroke="midnightblue" d="M559.89,-216.62C546.89,-216.87 533.08,-217.14 520.1,-217.39"/>
<polygon fill="midnightblue" stroke="midnightblue" points="560.18,-220.11 570.11,-216.42 560.04,-213.11 560.18,-220.11"/>
</g>
<!-- Node5 -->
<g id="node5" class="node">
<title>Node5</title>
<g id="a_node5"><a xlink:href="../../d2/d5c/class_iface.html#abae0122b800731a979c9f8e4c3a58176" target="_top" xlink:title=" ">
<polygon fill="none" stroke="black" points="429,-171 429,-190 496,-190 496,-171 429,-171"/>
<text text-anchor="middle" x="462.5" y="-178" font-family="Helvetica,sans-Serif" font-size="10.00">Iface::round</text>
</a>
</g>
</g>
<!-- Node3&#45;&gt;Node5 -->
<g id="edge4" class="edge">
<title>Node3&#45;&gt;Node5</title>
<path fill="none" stroke="midnightblue" d="M565.17,-203.68C542.33,-198.48 516.2,-192.52 496.15,-187.94"/>
<polygon fill="midnightblue" stroke="midnightblue" points="564.53,-207.13 575.06,-205.94 566.08,-200.3 564.53,-207.13"/>
</g>
<!-- Node6 -->
<g id="node6" class="node">
<title>Node6</title>
<g id="a_node6"><a xlink:href="../../d2/d5c/class_iface.html#a44e6d0db22abbce5cb8c132e5f1d4284" target="_top" xlink:title=" ">
<polygon fill="none" stroke="black" points="268,-171 268,-190 330,-190 330,-171 268,-171"/>
<text text-anchor="middle" x="299" y="-178" font-family="Helvetica,sans-Serif" font-size="10.00">Iface::start</text>
</a>
</g>
</g>
<!-- Node5&#45;&gt;Node6 -->
<g id="edge5" class="edge">
<title>Node5&#45;&gt;Node6</title>
<path fill="none" stroke="midnightblue" d="M418.56,-180.5C390.69,-180.5 355.07,-180.5 330.18,-180.5"/>
<polygon fill="midnightblue" stroke="midnightblue" points="418.82,-184 428.82,-180.5 418.82,-177 418.82,-184"/>
</g>
<!-- Node7 -->
<g id="node7" class="node">
<title>Node7</title>
<g id="a_node7"><a xlink:href="../../dc/d90/class_anti_virus.html#affe3f62a87b880cc964188d9ddb9d562" target="_top" xlink:title=" ">
<polygon fill="none" stroke="black" points="74,-171 74,-190 193,-190 193,-171 74,-171"/>
<text text-anchor="middle" x="133.5" y="-178" font-family="Helvetica,sans-Serif" font-size="10.00">AntiVirus::startInterface</text>
</a>
</g>
</g>
<!-- Node6&#45;&gt;Node7 -->
<g id="edge6" class="edge">
<title>Node6&#45;&gt;Node7</title>
<path fill="none" stroke="midnightblue" d="M257.61,-180.5C238.18,-180.5 214.54,-180.5 193.18,-180.5"/>
<polygon fill="midnightblue" stroke="midnightblue" points="257.63,-184 267.63,-180.5 257.63,-177 257.63,-184"/>
</g>
<!-- Node8 -->
<g id="node8" class="node">
<title>Node8</title>
<g id="a_node8"><a xlink:href="../../df/d0a/main_8cpp.html#ae66f6b31b5ad750f1fe042a706a4e3d4" target="_top" xlink:title=" ">
<polygon fill="none" stroke="black" points="0,-171 0,-190 38,-190 38,-171 0,-171"/>
<text text-anchor="middle" x="19" y="-178" font-family="Helvetica,sans-Serif" font-size="10.00">main</text>
</a>
</g>
</g>
<!-- Node7&#45;&gt;Node8 -->
<g id="edge7" class="edge">
<title>Node7&#45;&gt;Node8</title>
<path fill="none" stroke="midnightblue" d="M63.65,-180.5C54.29,-180.5 45.43,-180.5 38.16,-180.5"/>
<polygon fill="midnightblue" stroke="midnightblue" points="63.94,-184 73.94,-180.5 63.94,-177 63.94,-184"/>
</g>
<!-- Node10&#45;&gt;Node3 -->
<g id="edge10" class="edge">
<title>Node10&#45;&gt;Node3</title>
<path fill="none" stroke="midnightblue" d="M717.15,-209.91C699.59,-210.91 681.46,-211.94 665.64,-212.84"/>
<polygon fill="midnightblue" stroke="midnightblue" points="717.62,-213.39 727.4,-209.32 717.22,-206.4 717.62,-213.39"/>
</g>
<!-- Node12 -->
<g id="node12" class="node">
<title>Node12</title>
<g id="a_node12"><a xlink:href="../../d9/dbf/class_window.html#a613473425472a8fa471f2cbd4926aa2e" target="_top" xlink:title=" ">
<polygon fill="none" stroke="black" points="567,-120 567,-139 669,-139 669,-120 567,-120"/>
<text text-anchor="middle" x="618" y="-127" font-family="Helvetica,sans-Serif" font-size="10.00">Window::createGrid</text>
</a>
</g>
</g>
<!-- Node11&#45;&gt;Node12 -->
<g id="edge12" class="edge">
<title>Node11&#45;&gt;Node12</title>
<path fill="none" stroke="midnightblue" d="M740.22,-155.75C715.41,-150.37 686.39,-144.09 662.97,-139.02"/>
<polygon fill="midnightblue" stroke="midnightblue" points="739.7,-159.22 750.21,-157.91 741.18,-152.37 739.7,-159.22"/>
</g>
<!-- Node13 -->
<g id="node13" class="node">
<title>Node13</title>
<g id="a_node13"><a xlink:href="../../d9/dbf/class_window.html#a59515fc5a56e86d5a46d771595daac55" target="_top" xlink:title=" ">
<polygon fill="none" stroke="black" points="419.5,-120 419.5,-139 505.5,-139 505.5,-120 419.5,-120"/>
<text text-anchor="middle" x="462.5" y="-127" font-family="Helvetica,sans-Serif" font-size="10.00">Window::update</text>
</a>
</g>
</g>
<!-- Node12&#45;&gt;Node13 -->
<g id="edge13" class="edge">
<title>Node12&#45;&gt;Node13</title>
<path fill="none" stroke="midnightblue" d="M556.34,-129.5C539.37,-129.5 521.3,-129.5 505.65,-129.5"/>
<polygon fill="midnightblue" stroke="midnightblue" points="556.74,-133 566.74,-129.5 556.74,-126 556.74,-133"/>
</g>
<!-- Node13&#45;&gt;Node14 -->
<g id="edge14" class="edge">
<title>Node13&#45;&gt;Node14</title>
<path fill="none" stroke="midnightblue" d="M409.43,-126.28C396.55,-125.48 382.56,-124.61 369.01,-123.77"/>
<polygon fill="midnightblue" stroke="midnightblue" points="409.29,-129.77 419.49,-126.9 409.72,-122.79 409.29,-129.77"/>
</g>
<!-- Node15&#45;&gt;Node12 -->
<g id="edge16" class="edge">
<title>Node15&#45;&gt;Node12</title>
<path fill="none" stroke="midnightblue" d="M705.91,-129.5C693.31,-129.5 680.74,-129.5 669.24,-129.5"/>
<polygon fill="midnightblue" stroke="midnightblue" points="705.99,-133 715.99,-129.5 705.99,-126 705.99,-133"/>
</g>
<!-- Node18 -->
<g id="node18" class="node">
<title>Node18</title>
<g id="a_node18"><a xlink:href="../../d7/d8b/class_graphics.html#ac4526fe4a93fbb8b3d24240952cfdfc5" target="_top" xlink:title=" ">
<polygon fill="none" stroke="black" points="556,-0.5 556,-30.5 680,-30.5 680,-0.5 556,-0.5"/>
<text text-anchor="start" x="564" y="-18.5" font-family="Helvetica,sans-Serif" font-size="10.00">Graphics::displayCurrent</text>
<text text-anchor="middle" x="618" y="-7.5" font-family="Helvetica,sans-Serif" font-size="10.00">Round</text>
</a>
</g>
</g>
<!-- Node17&#45;&gt;Node18 -->
<g id="edge20" class="edge">
<title>Node17&#45;&gt;Node18</title>
<path fill="none" stroke="midnightblue" d="M709.11,-15.5C699.28,-15.5 689.42,-15.5 680.01,-15.5"/>
<polygon fill="midnightblue" stroke="midnightblue" points="709.31,-19 719.31,-15.5 709.31,-12 709.31,-19"/>
</g>
</g>
</svg>
        <g id="navigator" transform="translate(0 0)" fill="#404254">
                <rect fill="#f2f5e9" fill-opacity="0.5" stroke="#606060" stroke-width=".5" x="0" y="0" width="60" height="60"/>
                <use id="zoomplus" xlink:href="#zoomPlus" x="17" y="9" onmousedown="handleZoom(evt,'in')"/>
                <use id="zoomminus" xlink:href="#zoomMin" x="42" y="9" onmousedown="handleZoom(evt,'out')"/>
                <use id="reset" xlink:href="#resetDef" x="30" y="36" onmousedown="handleReset()"/>
                <g id="arrowUp" xlink:href="#dirArrow" transform="translate(30 24)" onmousedown="handlePan(0,-1)">
                  <use xlink:href="#rim" fill="#404040">
                        <set attributeName="fill" to="#808080" begin="arrowUp.mouseover" end="arrowUp.mouseout"/>
                  </use>
                  <path fill="none" stroke="white" stroke-width="1.5" d="M0,-3.0v7 M-2.5,-0.5L0,-3.0L2.5,-0.5"/>
                </g>
                <g id="arrowRight" xlink:href="#dirArrow" transform="rotate(90) translate(36 -43)" onmousedown="handlePan(1,0)">
                  <use xlink:href="#rim" fill="#404040">
                        <set attributeName="fill" to="#808080" begin="arrowRight.mouseover" end="arrowRight.mouseout"/>
                  </use>
                  <path fill="none" stroke="white" stroke-width="1.5" d="M0,-3.0v7 M-2.5,-0.5L0,-3.0L2.5,-0.5"/>
                </g>
                <g id="arrowDown" xlink:href="#dirArrow" transform="rotate(180) translate(-30 -48)" onmousedown="handlePan(0,1)">
                  <use xlink:href="#rim" fill="#404040">
                        <set attributeName="fill" to="#808080" begin="arrowDown.mouseover" end="arrowDown.mouseout"/>
                  </use>
                  <path fill="none" stroke="white" stroke-width="1.5" d="M0,-3.0v7 M-2.5,-0.5L0,-3.0L2.5,-0.5"/>
                </g>
                <g id="arrowLeft" xlink:href="#dirArrow" transform="rotate(270) translate(-36 17)" onmousedown="handlePan(-1,0)">
                  <use xlink:href="#rim" fill="#404040">
                        <set attributeName="fill" to="#808080" begin="arrowLeft.mouseover" end="arrowLeft.mouseout"/>
                  </use>
                  <path fill="none" stroke="white" stroke-width="1.5" d="M0,-3.0v7 M-2.5,-0.5L0,-3.0L2.5,-0.5"/>
                </g>
        </g>
        <svg viewBox="0 0 15 15" width="100%" height="30px" preserveAspectRatio="xMaxYMin meet">
         <g id="arrow_out" transform="scale(0.3 0.3)">
          <a xlink:href="class_field_a3ceb497dd33f97896974a2367fedc3c4_icgraph_org.svg" target="_base">
           <rect id="button" ry="5" rx="5" y="6" x="6" height="38" width="38"
                fill="#f2f5e9" fill-opacity="0.5" stroke="#606060" stroke-width="1.0"/>
           <path id="arrow"
             d="M 11.500037,31.436501 C 11.940474,20.09759 22.043105,11.32322 32.158766,21.979434 L 37.068811,17.246167 C 37.068811,17.246167 37.088388,32 37.088388,32 L 22.160133,31.978069 C 22.160133,31.978069 26.997745,27.140456 26.997745,27.140456 C 18.528582,18.264221 13.291696,25.230495 11.500037,31.436501 z"
             style="fill:#404040;"/>
          </a>
         </g>
        </svg>
</svg>
