<?xml version="1.0" encoding="UTF-8" standalone="no"?>
<!DOCTYPE svg PUBLIC "-//W3C//DTD SVG 1.1//EN"
 "http://www.w3.org/Graphics/SVG/1.1/DTD/svg11.dtd">
<!-- Generated by graphviz version 2.44.1 (20200629.0846)
 -->
<!-- Title: C:/Users/lukac/CLionProjects/virus_real/src/antiVirus.h Pages: 1 -->
<svg width="823pt" height="599pt"
 viewBox="0.00 0.00 823.00 599.00" xmlns="http://www.w3.org/2000/svg" xmlns:xlink="http://www.w3.org/1999/xlink">
<g id="graph0" class="graph" transform="scale(1 1) rotate(0) translate(4 595)">
<title>C:/Users/lukac/CLionProjects/virus_real/src/antiVirus.h</title>
<!-- Node1 -->
<g id="node1" class="node">
<title>Node1</title>
<g id="a_node1"><a xlink:title=" ">
<polygon fill="#bfbfbf" stroke="black" points="349.5,-560.5 349.5,-590.5 494.5,-590.5 494.5,-560.5 349.5,-560.5"/>
<text text-anchor="start" x="357.5" y="-578.5" font-family="Helvetica,sans-Serif" font-size="10.00">C:/Users/lukac/CLionProjects</text>
<text text-anchor="middle" x="422" y="-567.5" font-family="Helvetica,sans-Serif" font-size="10.00">/virus_real/src/antiVirus.h</text>
</a>
</g>
</g>
<!-- Node2 -->
<g id="node2" class="node">
<title>Node2</title>
<g id="a_node2"><a xlink:title=" ">
<polygon fill="none" stroke="#bfbfbf" points="374,-56.5 374,-75.5 416,-75.5 416,-56.5 374,-56.5"/>
<text text-anchor="middle" x="395" y="-63.5" font-family="Helvetica,sans-Serif" font-size="10.00">vector</text>
</a>
</g>
</g>
<!-- Node1&#45;&gt;Node2 -->
<g id="edge1" class="edge">
<title>Node1&#45;&gt;Node2</title>
<path fill="none" stroke="midnightblue" d="M349.2,-572.92C257,-569.49 104.94,-558.6 62,-524 38.02,-504.68 38,-489.8 38,-459 38,-459 38,-459 38,-289 38,-252.55 62.3,-249.84 88,-224 116.59,-195.26 125.09,-188.62 160,-168 229.14,-127.17 317.85,-93.63 363.99,-77.45"/>
<polygon fill="midnightblue" stroke="midnightblue" points="365.4,-80.67 373.71,-74.08 363.11,-74.05 365.4,-80.67"/>
</g>
<!-- Node3 -->
<g id="node3" class="node">
<title>Node3</title>
<g id="a_node3"><a xlink:title=" ">
<polygon fill="none" stroke="#bfbfbf" points="177.5,-56.5 177.5,-75.5 236.5,-75.5 236.5,-56.5 177.5,-56.5"/>
<text text-anchor="middle" x="207" y="-63.5" font-family="Helvetica,sans-Serif" font-size="10.00">stdexcept</text>
</a>
</g>
</g>
<!-- Node1&#45;&gt;Node3 -->
<g id="edge2" class="edge">
<title>Node1&#45;&gt;Node3</title>
<path fill="none" stroke="midnightblue" d="M349.47,-565.2C248.01,-550.13 76,-516.15 76,-459 76,-459 76,-459 76,-401 76,-319.86 0,-316.14 0,-235 0,-235 0,-235 0,-177 0,-102.14 106.88,-78.06 167.04,-70.44"/>
<polygon fill="midnightblue" stroke="midnightblue" points="167.82,-73.88 177.34,-69.24 167,-66.93 167.82,-73.88"/>
</g>
<!-- Node4 -->
<g id="node4" class="node">
<title>Node4</title>
<g id="a_node4"><a xlink:href="../../da/d15/grid_8h.html" target="_top" xlink:title=" ">
<polygon fill="none" stroke="black" points="465.5,-224.5 465.5,-243.5 506.5,-243.5 506.5,-224.5 465.5,-224.5"/>
<text text-anchor="middle" x="486" y="-231.5" font-family="Helvetica,sans-Serif" font-size="10.00">grid.h</text>
</a>
</g>
</g>
<!-- Node1&#45;&gt;Node4 -->
<g id="edge3" class="edge">
<title>Node1&#45;&gt;Node4</title>
<path fill="none" stroke="midnightblue" d="M465.19,-560.38C483.76,-552.34 504.29,-540.52 518,-524 537.3,-500.74 538,-489.23 538,-459 538,-459 538,-459 538,-345 538,-309.12 515.11,-272.42 499.7,-251.79"/>
<polygon fill="midnightblue" stroke="midnightblue" points="502.35,-249.5 493.45,-243.74 496.82,-253.79 502.35,-249.5"/>
</g>
<!-- Node12 -->
<g id="node12" class="node">
<title>Node12</title>
<g id="a_node12"><a xlink:href="../../dc/d5f/country_8h.html" target="_top" xlink:title=" ">
<polygon fill="none" stroke="black" points="666.5,-168.5 666.5,-187.5 723.5,-187.5 723.5,-168.5 666.5,-168.5"/>
<text text-anchor="middle" x="695" y="-175.5" font-family="Helvetica,sans-Serif" font-size="10.00">country.h</text>
</a>
</g>
</g>
<!-- Node1&#45;&gt;Node12 -->
<g id="edge29" class="edge">
<title>Node1&#45;&gt;Node12</title>
<path fill="none" stroke="midnightblue" d="M494.55,-560.74C581.03,-542.22 714,-506.09 714,-459 714,-459 714,-459 714,-289 714,-256.49 705.84,-219.35 700.22,-197.61"/>
<polygon fill="midnightblue" stroke="midnightblue" points="703.54,-196.5 697.56,-187.75 696.78,-198.32 703.54,-196.5"/>
</g>
<!-- Node18 -->
<g id="node18" class="node">
<title>Node18</title>
<g id="a_node18"><a xlink:href="../../d3/daa/logic_8h.html" target="_top" xlink:title=" ">
<polygon fill="none" stroke="black" points="266.5,-280.5 266.5,-299.5 311.5,-299.5 311.5,-280.5 266.5,-280.5"/>
<text text-anchor="middle" x="289" y="-287.5" font-family="Helvetica,sans-Serif" font-size="10.00">logic.h</text>
</a>
</g>
</g>
<!-- Node1&#45;&gt;Node18 -->
<g id="edge30" class="edge">
<title>Node1&#45;&gt;Node18</title>
<path fill="none" stroke="midnightblue" d="M419.79,-560.37C414.35,-528.52 398.27,-449.45 365,-392 359.89,-383.17 322.09,-333.87 301.8,-307.55"/>
<polygon fill="midnightblue" stroke="midnightblue" points="304.54,-305.38 295.66,-299.6 299,-309.66 304.54,-305.38"/>
</g>
<!-- Node20 -->
<g id="node20" class="node">
<title>Node20</title>
<g id="a_node20"><a xlink:href="../../d7/d04/graphics_8h.html" target="_top" xlink:title=" ">
<polygon fill="none" stroke="black" points="320,-504.5 320,-523.5 382,-523.5 382,-504.5 320,-504.5"/>
<text text-anchor="middle" x="351" y="-511.5" font-family="Helvetica,sans-Serif" font-size="10.00">graphics.h</text>
</a>
</g>
</g>
<!-- Node1&#45;&gt;Node20 -->
<g id="edge39" class="edge">
<title>Node1&#45;&gt;Node20</title>
<path fill="none" stroke="midnightblue" d="M405.17,-560.4C394.33,-551.31 380.22,-539.49 369.13,-530.19"/>
<polygon fill="midnightblue" stroke="midnightblue" points="371.24,-527.4 361.33,-523.66 366.75,-532.76 371.24,-527.4"/>
</g>
<!-- Node25 -->
<g id="node25" class="node">
<title>Node25</title>
<g id="a_node25"><a xlink:href="../../d2/d5e/protocol_8h.html" target="_top" xlink:title=" ">
<polygon fill="none" stroke="black" points="450.5,-504.5 450.5,-523.5 509.5,-523.5 509.5,-504.5 450.5,-504.5"/>
<text text-anchor="middle" x="480" y="-511.5" font-family="Helvetica,sans-Serif" font-size="10.00">protocol.h</text>
</a>
</g>
</g>
<!-- Node1&#45;&gt;Node25 -->
<g id="edge56" class="edge">
<title>Node1&#45;&gt;Node25</title>
<path fill="none" stroke="midnightblue" d="M435.75,-560.4C444.35,-551.58 455.45,-540.18 464.39,-531.02"/>
<polygon fill="midnightblue" stroke="midnightblue" points="467.09,-533.26 471.56,-523.66 462.07,-528.38 467.09,-533.26"/>
</g>
<!-- Node4&#45;&gt;Node2 -->
<g id="edge4" class="edge">
<title>Node4&#45;&gt;Node2</title>
<path fill="none" stroke="midnightblue" d="M481.11,-224.08C466.66,-197.72 423.99,-119.88 404.68,-84.66"/>
<polygon fill="midnightblue" stroke="midnightblue" points="407.57,-82.65 399.7,-75.57 401.43,-86.02 407.57,-82.65"/>
</g>
<!-- Node4&#45;&gt;Node3 -->
<g id="edge5" class="edge">
<title>Node4&#45;&gt;Node3</title>
<path fill="none" stroke="midnightblue" d="M467.44,-224.41C449.04,-215.73 420.17,-201.69 396,-188 333.13,-152.4 262.18,-104.89 227.84,-81.4"/>
<polygon fill="midnightblue" stroke="midnightblue" points="229.76,-78.48 219.54,-75.7 225.8,-84.25 229.76,-78.48"/>
</g>
<!-- Node5 -->
<g id="node5" class="node">
<title>Node5</title>
<g id="a_node5"><a xlink:href="../../d5/d5a/field_8h.html" target="_top" xlink:title=" ">
<polygon fill="none" stroke="black" points="568,-56.5 568,-75.5 610,-75.5 610,-56.5 568,-56.5"/>
<text text-anchor="middle" x="589" y="-63.5" font-family="Helvetica,sans-Serif" font-size="10.00">field.h</text>
</a>
</g>
</g>
<!-- Node4&#45;&gt;Node5 -->
<g id="edge6" class="edge">
<title>Node4&#45;&gt;Node5</title>
<path fill="none" stroke="midnightblue" d="M491.87,-224.45C498,-215.45 507.85,-200.84 516,-188 539.12,-151.57 564.93,-108.08 578.82,-84.43"/>
<polygon fill="midnightblue" stroke="midnightblue" points="581.96,-85.99 584,-75.59 575.92,-82.45 581.96,-85.99"/>
</g>
<!-- Node10 -->
<g id="node10" class="node">
<title>Node10</title>
<g id="a_node10"><a xlink:href="../../d5/d60/utils_8h.html" target="_top" xlink:title=" ">
<polygon fill="none" stroke="black" points="317.5,-112.5 317.5,-131.5 360.5,-131.5 360.5,-112.5 317.5,-112.5"/>
<text text-anchor="middle" x="339" y="-119.5" font-family="Helvetica,sans-Serif" font-size="10.00">utils.h</text>
</a>
</g>
</g>
<!-- Node4&#45;&gt;Node10 -->
<g id="edge11" class="edge">
<title>Node4&#45;&gt;Node10</title>
<path fill="none" stroke="midnightblue" d="M474.47,-224.37C449.45,-205.65 389.98,-161.15 358.82,-137.83"/>
<polygon fill="midnightblue" stroke="midnightblue" points="360.58,-134.78 350.48,-131.59 356.39,-140.39 360.58,-134.78"/>
</g>
<!-- Node4&#45;&gt;Node12 -->
<g id="edge15" class="edge">
<title>Node4&#45;&gt;Node12</title>
<path fill="none" stroke="midnightblue" d="M506.8,-227.62C541.67,-218.62 612.41,-200.34 656.54,-188.94"/>
<polygon fill="midnightblue" stroke="midnightblue" points="657.53,-192.3 666.34,-186.41 655.78,-185.52 657.53,-192.3"/>
</g>
<!-- Node16 -->
<g id="node16" class="node">
<title>Node16</title>
<g id="a_node16"><a xlink:href="../../dd/dae/district_8h.html" target="_top" xlink:title=" ">
<polygon fill="none" stroke="black" points="575,-112.5 575,-131.5 629,-131.5 629,-112.5 575,-112.5"/>
<text text-anchor="middle" x="602" y="-119.5" font-family="Helvetica,sans-Serif" font-size="10.00">district.h</text>
</a>
</g>
</g>
<!-- Node4&#45;&gt;Node16 -->
<g id="edge27" class="edge">
<title>Node4&#45;&gt;Node16</title>
<path fill="none" stroke="midnightblue" d="M506.87,-227.32C527.03,-220.85 557.19,-208.44 576,-188 587.95,-175.01 594.71,-155.85 598.32,-141.69"/>
<polygon fill="midnightblue" stroke="midnightblue" points="601.8,-142.15 600.58,-131.63 594.97,-140.62 601.8,-142.15"/>
</g>
<!-- Node17 -->
<g id="node17" class="node">
<title>Node17</title>
<g id="a_node17"><a xlink:title=" ">
<polygon fill="none" stroke="#bfbfbf" points="481,-56.5 481,-75.5 537,-75.5 537,-56.5 481,-56.5"/>
<text text-anchor="middle" x="509" y="-63.5" font-family="Helvetica,sans-Serif" font-size="10.00">algorithm</text>
</a>
</g>
</g>
<!-- Node4&#45;&gt;Node17 -->
<g id="edge28" class="edge">
<title>Node4&#45;&gt;Node17</title>
<path fill="none" stroke="midnightblue" d="M489.4,-224.19C492.7,-215.22 497.55,-200.86 500,-188 506.8,-152.25 508.52,-109.66 508.92,-85.73"/>
<polygon fill="midnightblue" stroke="midnightblue" points="512.42,-85.63 509.03,-75.6 505.42,-85.56 512.42,-85.63"/>
</g>
<!-- Node6 -->
<g id="node6" class="node">
<title>Node6</title>
<g id="a_node6"><a xlink:title=" ">
<polygon fill="none" stroke="#bfbfbf" points="633.5,-0.5 633.5,-19.5 668.5,-19.5 668.5,-0.5 633.5,-0.5"/>
<text text-anchor="middle" x="651" y="-7.5" font-family="Helvetica,sans-Serif" font-size="10.00">map</text>
</a>
</g>
</g>
<!-- Node5&#45;&gt;Node6 -->
<g id="edge7" class="edge">
<title>Node5&#45;&gt;Node6</title>
<path fill="none" stroke="midnightblue" d="M598.96,-56.32C608.13,-48.34 621.94,-36.31 633.03,-26.65"/>
<polygon fill="midnightblue" stroke="midnightblue" points="635.62,-29.04 640.86,-19.83 631.02,-23.76 635.62,-29.04"/>
</g>
<!-- Node7 -->
<g id="node7" class="node">
<title>Node7</title>
<g id="a_node7"><a xlink:title=" ">
<polygon fill="none" stroke="#bfbfbf" points="501.5,-0.5 501.5,-19.5 544.5,-19.5 544.5,-0.5 501.5,-0.5"/>
<text text-anchor="middle" x="523" y="-7.5" font-family="Helvetica,sans-Serif" font-size="10.00">queue</text>
</a>
</g>
</g>
<!-- Node5&#45;&gt;Node7 -->
<g id="edge8" class="edge">
<title>Node5&#45;&gt;Node7</title>
<path fill="none" stroke="midnightblue" d="M578.4,-56.32C568.54,-48.26 553.65,-36.08 541.78,-26.37"/>
<polygon fill="midnightblue" stroke="midnightblue" points="543.75,-23.46 533.8,-19.83 539.32,-28.88 543.75,-23.46"/>
</g>
<!-- Node8 -->
<g id="node8" class="node">
<title>Node8</title>
<g id="a_node8"><a xlink:title=" ">
<polygon fill="none" stroke="#bfbfbf" points="563,-0.5 563,-19.5 615,-19.5 615,-0.5 563,-0.5"/>
<text text-anchor="middle" x="589" y="-7.5" font-family="Helvetica,sans-Serif" font-size="10.00">sstream</text>
</a>
</g>
</g>
<!-- Node5&#45;&gt;Node8 -->
<g id="edge9" class="edge">
<title>Node5&#45;&gt;Node8</title>
<path fill="none" stroke="midnightblue" d="M589,-56.08C589,-49.01 589,-38.86 589,-29.99"/>
<polygon fill="midnightblue" stroke="midnightblue" points="592.5,-29.75 589,-19.75 585.5,-29.75 592.5,-29.75"/>
</g>
<!-- Node9 -->
<g id="node9" class="node">
<title>Node9</title>
<g id="a_node9"><a xlink:title=" ">
<polygon fill="none" stroke="#bfbfbf" points="262,-0.5 262,-19.5 306,-19.5 306,-0.5 262,-0.5"/>
<text text-anchor="middle" x="284" y="-7.5" font-family="Helvetica,sans-Serif" font-size="10.00">cmath</text>
</a>
</g>
</g>
<!-- Node5&#45;&gt;Node9 -->
<g id="edge10" class="edge">
<title>Node5&#45;&gt;Node9</title>
<path fill="none" stroke="midnightblue" d="M567.6,-60.36C560.71,-58.91 553.04,-57.34 546,-56 463.42,-40.27 365.73,-24.15 316.23,-16.15"/>
<polygon fill="midnightblue" stroke="midnightblue" points="316.56,-12.66 306.13,-14.52 315.45,-19.57 316.56,-12.66"/>
</g>
<!-- Node10&#45;&gt;Node2 -->
<g id="edge14" class="edge">
<title>Node10&#45;&gt;Node2</title>
<path fill="none" stroke="midnightblue" d="M348,-112.32C356.19,-104.42 368.51,-92.55 378.47,-82.94"/>
<polygon fill="midnightblue" stroke="midnightblue" points="381.07,-85.29 385.84,-75.83 376.21,-80.26 381.07,-85.29"/>
</g>
<!-- Node10&#45;&gt;Node3 -->
<g id="edge12" class="edge">
<title>Node10&#45;&gt;Node3</title>
<path fill="none" stroke="midnightblue" d="M318.08,-112.44C296.26,-103.52 261.85,-89.44 237.11,-79.32"/>
<polygon fill="midnightblue" stroke="midnightblue" points="238.4,-76.06 227.82,-75.52 235.75,-82.54 238.4,-76.06"/>
</g>
<!-- Node11 -->
<g id="node11" class="node">
<title>Node11</title>
<g id="a_node11"><a xlink:title=" ">
<polygon fill="none" stroke="#bfbfbf" points="310.5,-56.5 310.5,-75.5 355.5,-75.5 355.5,-56.5 310.5,-56.5"/>
<text text-anchor="middle" x="333" y="-63.5" font-family="Helvetica,sans-Serif" font-size="10.00">climits</text>
</a>
</g>
</g>
<!-- Node10&#45;&gt;Node11 -->
<g id="edge13" class="edge">
<title>Node10&#45;&gt;Node11</title>
<path fill="none" stroke="midnightblue" d="M338.01,-112.08C337.21,-104.93 336.07,-94.64 335.08,-85.69"/>
<polygon fill="midnightblue" stroke="midnightblue" points="338.56,-85.3 333.97,-75.75 331.6,-86.08 338.56,-85.3"/>
</g>
<!-- Node12&#45;&gt;Node2 -->
<g id="edge16" class="edge">
<title>Node12&#45;&gt;Node2</title>
<path fill="none" stroke="midnightblue" d="M669.71,-168.41C643.65,-159.5 601.88,-145.07 566,-132 516.71,-114.04 459.83,-92.19 425.68,-78.95"/>
<polygon fill="midnightblue" stroke="midnightblue" points="426.85,-75.65 416.26,-75.3 424.31,-82.18 426.85,-75.65"/>
</g>
<!-- Node12&#45;&gt;Node10 -->
<g id="edge20" class="edge">
<title>Node12&#45;&gt;Node10</title>
<path fill="none" stroke="midnightblue" d="M666.47,-172.67C600.85,-162.72 439.57,-138.26 370.85,-127.83"/>
<polygon fill="midnightblue" stroke="midnightblue" points="371.06,-124.32 360.65,-126.28 370.01,-131.24 371.06,-124.32"/>
</g>
<!-- Node13 -->
<g id="node13" class="node">
<title>Node13</title>
<g id="a_node13"><a xlink:title=" ">
<polygon fill="none" stroke="#bfbfbf" points="761,-112.5 761,-131.5 815,-131.5 815,-112.5 761,-112.5"/>
<text text-anchor="middle" x="788" y="-119.5" font-family="Helvetica,sans-Serif" font-size="10.00">iostream</text>
</a>
</g>
</g>
<!-- Node12&#45;&gt;Node13 -->
<g id="edge17" class="edge">
<title>Node12&#45;&gt;Node13</title>
<path fill="none" stroke="midnightblue" d="M709.94,-168.32C724.59,-159.82 747.13,-146.73 764.24,-136.8"/>
<polygon fill="midnightblue" stroke="midnightblue" points="766.2,-139.7 773.1,-131.65 762.69,-133.65 766.2,-139.7"/>
</g>
<!-- Node14 -->
<g id="node14" class="node">
<title>Node14</title>
<g id="a_node14"><a xlink:title=" ">
<polygon fill="none" stroke="#bfbfbf" points="642,-56.5 642,-75.5 672,-75.5 672,-56.5 642,-56.5"/>
<text text-anchor="middle" x="657" y="-63.5" font-family="Helvetica,sans-Serif" font-size="10.00">set</text>
</a>
</g>
</g>
<!-- Node12&#45;&gt;Node14 -->
<g id="edge18" class="edge">
<title>Node12&#45;&gt;Node14</title>
<path fill="none" stroke="midnightblue" d="M692.02,-168.37C685.86,-150.54 671.61,-109.3 663.31,-85.27"/>
<polygon fill="midnightblue" stroke="midnightblue" points="666.54,-83.9 659.97,-75.59 659.93,-86.19 666.54,-83.9"/>
</g>
<!-- Node15 -->
<g id="node15" class="node">
<title>Node15</title>
<g id="a_node15"><a xlink:title=" ">
<polygon fill="none" stroke="#bfbfbf" points="697,-56.5 697,-75.5 755,-75.5 755,-56.5 697,-56.5"/>
<text text-anchor="middle" x="726" y="-63.5" font-family="Helvetica,sans-Serif" font-size="10.00">functional</text>
</a>
</g>
</g>
<!-- Node12&#45;&gt;Node15 -->
<g id="edge19" class="edge">
<title>Node12&#45;&gt;Node15</title>
<path fill="none" stroke="midnightblue" d="M697.8,-168.41C700.72,-159.38 705.35,-144.74 709,-132 713.42,-116.56 718,-98.93 721.29,-85.93"/>
<polygon fill="midnightblue" stroke="midnightblue" points="724.78,-86.42 723.82,-75.87 717.99,-84.71 724.78,-86.42"/>
</g>
<!-- Node12&#45;&gt;Node16 -->
<g id="edge21" class="edge">
<title>Node12&#45;&gt;Node16</title>
<path fill="none" stroke="midnightblue" d="M680.06,-168.32C665.41,-159.82 642.87,-146.73 625.76,-136.8"/>
<polygon fill="midnightblue" stroke="midnightblue" points="627.31,-133.65 616.9,-131.65 623.8,-139.7 627.31,-133.65"/>
</g>
<!-- Node16&#45;&gt;Node2 -->
<g id="edge22" class="edge">
<title>Node16&#45;&gt;Node2</title>
<path fill="none" stroke="midnightblue" d="M574.94,-113.94C536.53,-103.92 466.38,-85.62 425.95,-75.07"/>
<polygon fill="midnightblue" stroke="midnightblue" points="426.67,-71.64 416.11,-72.51 424.9,-78.42 426.67,-71.64"/>
</g>
<!-- Node16&#45;&gt;Node5 -->
<g id="edge23" class="edge">
<title>Node16&#45;&gt;Node5</title>
<path fill="none" stroke="midnightblue" d="M599.85,-112.08C598.13,-104.93 595.65,-94.64 593.5,-85.69"/>
<polygon fill="midnightblue" stroke="midnightblue" points="596.85,-84.65 591.11,-75.75 590.04,-86.29 596.85,-84.65"/>
</g>
<!-- Node16&#45;&gt;Node14 -->
<g id="edge25" class="edge">
<title>Node16&#45;&gt;Node14</title>
<path fill="none" stroke="midnightblue" d="M611.08,-112.08C619.17,-104.14 631.2,-92.34 640.91,-82.8"/>
<polygon fill="midnightblue" stroke="midnightblue" points="643.4,-85.25 648.09,-75.75 638.5,-80.26 643.4,-85.25"/>
</g>
<!-- Node16&#45;&gt;Node15 -->
<g id="edge26" class="edge">
<title>Node16&#45;&gt;Node15</title>
<path fill="none" stroke="midnightblue" d="M621.65,-112.44C641.96,-103.6 673.9,-89.69 697.1,-79.59"/>
<polygon fill="midnightblue" stroke="midnightblue" points="698.67,-82.72 706.44,-75.52 695.88,-76.3 698.67,-82.72"/>
</g>
<!-- Node16&#45;&gt;Node17 -->
<g id="edge24" class="edge">
<title>Node16&#45;&gt;Node17</title>
<path fill="none" stroke="midnightblue" d="M587.06,-112.32C572.41,-103.82 549.87,-90.73 532.76,-80.8"/>
<polygon fill="midnightblue" stroke="midnightblue" points="534.31,-77.65 523.9,-75.65 530.8,-83.7 534.31,-77.65"/>
</g>
<!-- Node18&#45;&gt;Node2 -->
<g id="edge32" class="edge">
<title>Node18&#45;&gt;Node2</title>
<path fill="none" stroke="midnightblue" d="M287.28,-280.29C282.36,-252.78 270.82,-166.32 308,-112 314.99,-101.79 342.13,-88.66 364.26,-79.21"/>
<polygon fill="midnightblue" stroke="midnightblue" points="365.79,-82.37 373.67,-75.29 363.1,-75.91 365.79,-82.37"/>
</g>
<!-- Node18&#45;&gt;Node3 -->
<g id="edge33" class="edge">
<title>Node18&#45;&gt;Node3</title>
<path fill="none" stroke="midnightblue" d="M277.12,-280.39C266.73,-272.21 252.09,-258.97 244,-244 215.68,-191.63 209.01,-119.72 207.46,-85.96"/>
<polygon fill="midnightblue" stroke="midnightblue" points="210.95,-85.57 207.1,-75.7 203.95,-85.82 210.95,-85.57"/>
</g>
<!-- Node18&#45;&gt;Node4 -->
<g id="edge35" class="edge">
<title>Node18&#45;&gt;Node4</title>
<path fill="none" stroke="midnightblue" d="M311.6,-282.81C347.11,-273.07 416.03,-254.18 455.77,-243.29"/>
<polygon fill="midnightblue" stroke="midnightblue" points="456.73,-246.65 465.45,-240.63 454.88,-239.9 456.73,-246.65"/>
</g>
<!-- Node18&#45;&gt;Node9 -->
<g id="edge34" class="edge">
<title>Node18&#45;&gt;Node9</title>
<path fill="none" stroke="midnightblue" d="M273.75,-280.48C260.78,-272.54 242.49,-259.6 231,-244 183.71,-179.79 182.23,-154.46 168,-76 166.41,-67.25 162.98,-63.33 168,-56 186.72,-28.66 224.66,-17.93 252.06,-13.72"/>
<polygon fill="midnightblue" stroke="midnightblue" points="252.53,-17.18 261.98,-12.4 251.61,-10.24 252.53,-17.18"/>
</g>
<!-- Node18&#45;&gt;Node10 -->
<g id="edge38" class="edge">
<title>Node18&#45;&gt;Node10</title>
<path fill="none" stroke="midnightblue" d="M291.69,-280.08C299.56,-253.95 322.67,-177.21 333.4,-141.58"/>
<polygon fill="midnightblue" stroke="midnightblue" points="336.89,-142.15 336.42,-131.57 330.18,-140.13 336.89,-142.15"/>
</g>
<!-- Node18&#45;&gt;Node13 -->
<g id="edge37" class="edge">
<title>Node18&#45;&gt;Node13</title>
<path fill="none" stroke="midnightblue" d="M311.74,-288.96C380.69,-287.81 591.34,-276.81 733,-188 752.11,-176.02 767.98,-155.23 777.68,-140.39"/>
<polygon fill="midnightblue" stroke="midnightblue" points="780.81,-141.98 783.14,-131.65 774.87,-138.28 780.81,-141.98"/>
</g>
<!-- Node18&#45;&gt;Node17 -->
<g id="edge31" class="edge">
<title>Node18&#45;&gt;Node17</title>
<path fill="none" stroke="midnightblue" d="M297.62,-280.3C330.68,-246.94 449.62,-126.92 493.01,-83.13"/>
<polygon fill="midnightblue" stroke="midnightblue" points="495.64,-85.45 500.2,-75.88 490.67,-80.52 495.64,-85.45"/>
</g>
<!-- Node19 -->
<g id="node19" class="node">
<title>Node19</title>
<g id="a_node19"><a xlink:href="../../db/d16/config_8h.html" target="_top" xlink:title=" ">
<polygon fill="none" stroke="black" points="104,-224.5 104,-243.5 154,-243.5 154,-224.5 104,-224.5"/>
<text text-anchor="middle" x="129" y="-231.5" font-family="Helvetica,sans-Serif" font-size="10.00">config.h</text>
</a>
</g>
</g>
<!-- Node18&#45;&gt;Node19 -->
<g id="edge36" class="edge">
<title>Node18&#45;&gt;Node19</title>
<path fill="none" stroke="midnightblue" d="M266.42,-281.38C239.68,-272.35 194.85,-257.22 163.7,-246.71"/>
<polygon fill="midnightblue" stroke="midnightblue" points="164.7,-243.35 154.1,-243.47 162.46,-249.99 164.7,-243.35"/>
</g>
<!-- Node21 -->
<g id="node21" class="node">
<title>Node21</title>
<g id="a_node21"><a xlink:href="../../db/db2/iface_8h.html" target="_top" xlink:title=" ">
<polygon fill="none" stroke="black" points="317.5,-448.5 317.5,-467.5 362.5,-467.5 362.5,-448.5 317.5,-448.5"/>
<text text-anchor="middle" x="340" y="-455.5" font-family="Helvetica,sans-Serif" font-size="10.00">iface.h</text>
</a>
</g>
</g>
<!-- Node20&#45;&gt;Node21 -->
<g id="edge40" class="edge">
<title>Node20&#45;&gt;Node21</title>
<path fill="none" stroke="midnightblue" d="M349.18,-504.08C347.73,-496.93 345.63,-486.64 343.81,-477.69"/>
<polygon fill="midnightblue" stroke="midnightblue" points="347.21,-476.85 341.78,-467.75 340.35,-478.25 347.21,-476.85"/>
</g>
<!-- Node21&#45;&gt;Node4 -->
<g id="edge41" class="edge">
<title>Node21&#45;&gt;Node4</title>
<path fill="none" stroke="midnightblue" d="M352.61,-448.42C375.04,-432.58 422.14,-396.62 450,-356 471.82,-324.18 480.66,-278.91 484.04,-253.73"/>
<polygon fill="midnightblue" stroke="midnightblue" points="487.53,-254.04 485.25,-243.69 480.58,-253.21 487.53,-254.04"/>
</g>
<!-- Node21&#45;&gt;Node18 -->
<g id="edge43" class="edge">
<title>Node21&#45;&gt;Node18</title>
<path fill="none" stroke="midnightblue" d="M317.42,-453.12C295.17,-447.96 262.34,-436.47 247,-412 225.75,-378.11 255.11,-332.09 274.44,-307.73"/>
<polygon fill="midnightblue" stroke="midnightblue" points="277.32,-309.74 281,-299.8 271.93,-305.28 277.32,-309.74"/>
</g>
<!-- Node21&#45;&gt;Node19 -->
<g id="edge55" class="edge">
<title>Node21&#45;&gt;Node19</title>
<path fill="none" stroke="midnightblue" d="M317.34,-451.42C294.88,-444.97 260.53,-432.53 237,-412 184.4,-366.1 149.51,-288.16 135.69,-253.07"/>
<polygon fill="midnightblue" stroke="midnightblue" points="138.92,-251.73 132.08,-243.64 132.39,-254.23 138.92,-251.73"/>
</g>
<!-- Node21&#45;&gt;Node21 -->
<g id="edge42" class="edge">
<title>Node21&#45;&gt;Node21</title>
<path fill="none" stroke="midnightblue" d="M357.48,-467.57C369.15,-470.27 380.5,-467.08 380.5,-458 380.5,-451.62 374.89,-448.14 367.5,-447.58"/>
<polygon fill="midnightblue" stroke="midnightblue" points="367.15,-444.1 357.48,-448.43 367.74,-451.07 367.15,-444.1"/>
</g>
<!-- Node22 -->
<g id="node22" class="node">
<title>Node22</title>
<g id="a_node22"><a xlink:href="../../d1/df3/ai_8h.html" target="_top" xlink:title=" ">
<polygon fill="none" stroke="black" points="324,-392.5 324,-411.5 356,-411.5 356,-392.5 324,-392.5"/>
<text text-anchor="middle" x="340" y="-399.5" font-family="Helvetica,sans-Serif" font-size="10.00">ai.h</text>
</a>
</g>
</g>
<!-- Node21&#45;&gt;Node22 -->
<g id="edge44" class="edge">
<title>Node21&#45;&gt;Node22</title>
<path fill="none" stroke="midnightblue" d="M340,-448.08C340,-441.01 340,-430.86 340,-421.99"/>
<polygon fill="midnightblue" stroke="midnightblue" points="343.5,-421.75 340,-411.75 336.5,-421.75 343.5,-421.75"/>
</g>
<!-- Node24 -->
<g id="node24" class="node">
<title>Node24</title>
<g id="a_node24"><a xlink:title=" ">
<polygon fill="none" stroke="#bfbfbf" points="256.5,-392.5 256.5,-411.5 305.5,-411.5 305.5,-392.5 256.5,-392.5"/>
<text text-anchor="middle" x="281" y="-399.5" font-family="Helvetica,sans-Serif" font-size="10.00">ctype.h</text>
</a>
</g>
</g>
<!-- Node21&#45;&gt;Node24 -->
<g id="edge54" class="edge">
<title>Node21&#45;&gt;Node24</title>
<path fill="none" stroke="midnightblue" d="M330.52,-448.32C321.8,-440.34 308.66,-428.31 298.1,-418.65"/>
<polygon fill="midnightblue" stroke="midnightblue" points="300.39,-416 290.65,-411.83 295.67,-421.17 300.39,-416"/>
</g>
<!-- Node22&#45;&gt;Node4 -->
<g id="edge45" class="edge">
<title>Node22&#45;&gt;Node4</title>
<path fill="none" stroke="midnightblue" d="M356.09,-396.43C375.58,-390.17 408.36,-377.23 429,-356 444.14,-340.43 467.58,-283.03 479.11,-253.23"/>
<polygon fill="midnightblue" stroke="midnightblue" points="482.48,-254.21 482.79,-243.62 475.95,-251.71 482.48,-254.21"/>
</g>
<!-- Node22&#45;&gt;Node10 -->
<g id="edge47" class="edge">
<title>Node22&#45;&gt;Node10</title>
<path fill="none" stroke="midnightblue" d="M323.72,-393.79C264.15,-366.91 63.14,-271.66 95,-224 107.52,-205.27 244.66,-155.76 307.67,-133.78"/>
<polygon fill="midnightblue" stroke="midnightblue" points="309.17,-136.96 317.47,-130.37 306.87,-130.35 309.17,-136.96"/>
</g>
<!-- Node22&#45;&gt;Node18 -->
<g id="edge46" class="edge">
<title>Node22&#45;&gt;Node18</title>
<path fill="none" stroke="midnightblue" d="M331.83,-392.39C324.12,-383.8 312.75,-369.92 306,-356 298.84,-341.24 294.42,-323.08 291.89,-309.71"/>
<polygon fill="midnightblue" stroke="midnightblue" points="295.32,-309.05 290.18,-299.79 288.42,-310.24 295.32,-309.05"/>
</g>
<!-- Node22&#45;&gt;Node19 -->
<g id="edge53" class="edge">
<title>Node22&#45;&gt;Node19</title>
<path fill="none" stroke="midnightblue" d="M328.95,-392.31C294.84,-365.47 190.89,-283.69 147.91,-249.88"/>
<polygon fill="midnightblue" stroke="midnightblue" points="149.96,-247.04 139.94,-243.61 145.63,-252.54 149.96,-247.04"/>
</g>
<!-- Node23 -->
<g id="node23" class="node">
<title>Node23</title>
<g id="a_node23"><a xlink:href="../../d2/d3d/graphalgos_8h.html" target="_top" xlink:title=" ">
<polygon fill="none" stroke="black" points="348,-336.5 348,-355.5 420,-355.5 420,-336.5 348,-336.5"/>
<text text-anchor="middle" x="384" y="-343.5" font-family="Helvetica,sans-Serif" font-size="10.00">graphalgos.h</text>
</a>
</g>
</g>
<!-- Node22&#45;&gt;Node23 -->
<g id="edge48" class="edge">
<title>Node22&#45;&gt;Node23</title>
<path fill="none" stroke="midnightblue" d="M347.27,-392.08C353.54,-384.38 362.79,-373.03 370.43,-363.65"/>
<polygon fill="midnightblue" stroke="midnightblue" points="373.27,-365.71 376.87,-355.75 367.84,-361.29 373.27,-365.71"/>
</g>
<!-- Node23&#45;&gt;Node4 -->
<g id="edge51" class="edge">
<title>Node23&#45;&gt;Node4</title>
<path fill="none" stroke="midnightblue" d="M389.95,-336.14C398.84,-323.2 416.41,-298.64 434,-280 444.12,-269.28 456.57,-258.44 466.75,-250.08"/>
<polygon fill="midnightblue" stroke="midnightblue" points="469.07,-252.7 474.67,-243.7 464.68,-247.25 469.07,-252.7"/>
</g>
<!-- Node23&#45;&gt;Node5 -->
<g id="edge50" class="edge">
<title>Node23&#45;&gt;Node5</title>
<path fill="none" stroke="midnightblue" d="M405.78,-336.33C460.26,-313.18 600.69,-243.92 638,-132 640.81,-123.57 641.58,-120.14 638,-112 632.61,-99.73 622.04,-89.34 612.1,-81.65"/>
<polygon fill="midnightblue" stroke="midnightblue" points="613.83,-78.58 603.66,-75.6 609.75,-84.27 613.83,-78.58"/>
</g>
<!-- Node23&#45;&gt;Node10 -->
<g id="edge49" class="edge">
<title>Node23&#45;&gt;Node10</title>
<path fill="none" stroke="midnightblue" d="M382.24,-336.3C375.61,-303.63 352.15,-187.87 342.84,-141.96"/>
<polygon fill="midnightblue" stroke="midnightblue" points="346.22,-140.99 340.8,-131.88 339.36,-142.38 346.22,-140.99"/>
</g>
<!-- Node23&#45;&gt;Node18 -->
<g id="edge52" class="edge">
<title>Node23&#45;&gt;Node18</title>
<path fill="none" stroke="midnightblue" d="M368.74,-336.32C353.78,-327.82 330.75,-314.73 313.27,-304.8"/>
<polygon fill="midnightblue" stroke="midnightblue" points="314.65,-301.55 304.23,-299.65 311.19,-307.64 314.65,-301.55"/>
</g>
<!-- Node25&#45;&gt;Node13 -->
<g id="edge57" class="edge">
<title>Node25&#45;&gt;Node13</title>
<path fill="none" stroke="midnightblue" d="M494.68,-504.41C537.14,-478.83 661.29,-398.77 728,-300 762.59,-248.79 778.92,-175.8 785.02,-141.79"/>
<polygon fill="midnightblue" stroke="midnightblue" points="788.48,-142.28 786.7,-131.84 781.58,-141.11 788.48,-142.28"/>
</g>
<!-- Node25&#45;&gt;Node21 -->
<g id="edge58" class="edge">
<title>Node25&#45;&gt;Node21</title>
<path fill="none" stroke="midnightblue" d="M457.82,-504.44C434.57,-495.48 397.85,-481.31 371.58,-471.18"/>
<polygon fill="midnightblue" stroke="midnightblue" points="372.67,-467.85 362.08,-467.52 370.15,-474.38 372.67,-467.85"/>
</g>
</g>
</svg>
