<?xml version="1.0" encoding="UTF-8" standalone="no"?>
<!DOCTYPE svg PUBLIC "-//W3C//DTD SVG 1.1//EN"
 "http://www.w3.org/Graphics/SVG/1.1/DTD/svg11.dtd">
<!-- Generated by graphviz version 2.44.1 (20200629.0846)
 -->
<!-- Title: C:/Users/lukac/CLionProjects/virus_real/src/country.cpp Pages: 1 -->
<svg width="473pt" height="263pt"
 viewBox="0.00 0.00 472.50 263.00" xmlns="http://www.w3.org/2000/svg" xmlns:xlink="http://www.w3.org/1999/xlink">
<g id="graph0" class="graph" transform="scale(1 1) rotate(0) translate(4 259)">
<title>C:/Users/lukac/CLionProjects/virus_real/src/country.cpp</title>
<!-- Node1 -->
<g id="node1" class="node">
<title>Node1</title>
<g id="a_node1"><a xlink:title=" ">
<polygon fill="#bfbfbf" stroke="black" points="170,-224.5 170,-254.5 315,-254.5 315,-224.5 170,-224.5"/>
<text text-anchor="start" x="178" y="-242.5" font-family="Helvetica,sans-Serif" font-size="10.00">C:/Users/lukac/CLionProjects</text>
<text text-anchor="middle" x="242.5" y="-231.5" font-family="Helvetica,sans-Serif" font-size="10.00">/virus_real/src/country.cpp</text>
</a>
</g>
</g>
<!-- Node2 -->
<g id="node2" class="node">
<title>Node2</title>
<g id="a_node2"><a xlink:href="../../dc/d5f/country_8h.html" target="_top" xlink:title=" ">
<polygon fill="none" stroke="black" points="214,-168.5 214,-187.5 271,-187.5 271,-168.5 214,-168.5"/>
<text text-anchor="middle" x="242.5" y="-175.5" font-family="Helvetica,sans-Serif" font-size="10.00">country.h</text>
</a>
</g>
</g>
<!-- Node1&#45;&gt;Node2 -->
<g id="edge1" class="edge">
<title>Node1&#45;&gt;Node2</title>
<path fill="none" stroke="midnightblue" d="M242.5,-224.4C242.5,-216.47 242.5,-206.46 242.5,-197.86"/>
<polygon fill="midnightblue" stroke="midnightblue" points="246,-197.66 242.5,-187.66 239,-197.66 246,-197.66"/>
</g>
<!-- Node3 -->
<g id="node3" class="node">
<title>Node3</title>
<g id="a_node3"><a xlink:title=" ">
<polygon fill="none" stroke="#bfbfbf" points="140.5,-56.5 140.5,-75.5 182.5,-75.5 182.5,-56.5 140.5,-56.5"/>
<text text-anchor="middle" x="161.5" y="-63.5" font-family="Helvetica,sans-Serif" font-size="10.00">vector</text>
</a>
</g>
</g>
<!-- Node2&#45;&gt;Node3 -->
<g id="edge2" class="edge">
<title>Node2&#45;&gt;Node3</title>
<path fill="none" stroke="midnightblue" d="M236.14,-168.37C222.72,-150.14 191.27,-107.43 173.78,-83.68"/>
<polygon fill="midnightblue" stroke="midnightblue" points="176.57,-81.57 167.83,-75.59 170.94,-85.72 176.57,-81.57"/>
</g>
<!-- Node4 -->
<g id="node4" class="node">
<title>Node4</title>
<g id="a_node4"><a xlink:title=" ">
<polygon fill="none" stroke="#bfbfbf" points="353.5,-112.5 353.5,-131.5 407.5,-131.5 407.5,-112.5 353.5,-112.5"/>
<text text-anchor="middle" x="380.5" y="-119.5" font-family="Helvetica,sans-Serif" font-size="10.00">iostream</text>
</a>
</g>
</g>
<!-- Node2&#45;&gt;Node4 -->
<g id="edge3" class="edge">
<title>Node2&#45;&gt;Node4</title>
<path fill="none" stroke="midnightblue" d="M264.37,-168.44C287.28,-159.48 323.48,-145.31 349.37,-135.18"/>
<polygon fill="midnightblue" stroke="midnightblue" points="350.7,-138.42 358.74,-131.52 348.15,-131.9 350.7,-138.42"/>
</g>
<!-- Node5 -->
<g id="node5" class="node">
<title>Node5</title>
<g id="a_node5"><a xlink:title=" ">
<polygon fill="none" stroke="#bfbfbf" points="200.5,-56.5 200.5,-75.5 230.5,-75.5 230.5,-56.5 200.5,-56.5"/>
<text text-anchor="middle" x="215.5" y="-63.5" font-family="Helvetica,sans-Serif" font-size="10.00">set</text>
</a>
</g>
</g>
<!-- Node2&#45;&gt;Node5 -->
<g id="edge4" class="edge">
<title>Node2&#45;&gt;Node5</title>
<path fill="none" stroke="midnightblue" d="M240.38,-168.37C236.02,-150.62 225.97,-109.67 220.06,-85.6"/>
<polygon fill="midnightblue" stroke="midnightblue" points="223.39,-84.47 217.61,-75.59 216.59,-86.14 223.39,-84.47"/>
</g>
<!-- Node6 -->
<g id="node6" class="node">
<title>Node6</title>
<g id="a_node6"><a xlink:title=" ">
<polygon fill="none" stroke="#bfbfbf" points="382.5,-56.5 382.5,-75.5 440.5,-75.5 440.5,-56.5 382.5,-56.5"/>
<text text-anchor="middle" x="411.5" y="-63.5" font-family="Helvetica,sans-Serif" font-size="10.00">functional</text>
</a>
</g>
</g>
<!-- Node2&#45;&gt;Node6 -->
<g id="edge5" class="edge">
<title>Node2&#45;&gt;Node6</title>
<path fill="none" stroke="midnightblue" d="M255.76,-168.37C284.76,-149.49 354.06,-104.38 389.63,-81.24"/>
<polygon fill="midnightblue" stroke="midnightblue" points="391.83,-83.98 398.3,-75.59 388.01,-78.11 391.83,-83.98"/>
</g>
<!-- Node7 -->
<g id="node7" class="node">
<title>Node7</title>
<g id="a_node7"><a xlink:href="../../d5/d60/utils_8h.html" target="_top" xlink:title=" ">
<polygon fill="none" stroke="black" points="92,-112.5 92,-131.5 135,-131.5 135,-112.5 92,-112.5"/>
<text text-anchor="middle" x="113.5" y="-119.5" font-family="Helvetica,sans-Serif" font-size="10.00">utils.h</text>
</a>
</g>
</g>
<!-- Node2&#45;&gt;Node7 -->
<g id="edge6" class="edge">
<title>Node2&#45;&gt;Node7</title>
<path fill="none" stroke="midnightblue" d="M222.06,-168.44C200.83,-159.56 167.4,-145.56 143.25,-135.45"/>
<polygon fill="midnightblue" stroke="midnightblue" points="144.42,-132.15 133.84,-131.52 141.72,-138.61 144.42,-132.15"/>
</g>
<!-- Node10 -->
<g id="node10" class="node">
<title>Node10</title>
<g id="a_node10"><a xlink:href="../../dd/dae/district_8h.html" target="_top" xlink:title=" ">
<polygon fill="none" stroke="black" points="243.5,-112.5 243.5,-131.5 297.5,-131.5 297.5,-112.5 243.5,-112.5"/>
<text text-anchor="middle" x="270.5" y="-119.5" font-family="Helvetica,sans-Serif" font-size="10.00">district.h</text>
</a>
</g>
</g>
<!-- Node2&#45;&gt;Node10 -->
<g id="edge10" class="edge">
<title>Node2&#45;&gt;Node10</title>
<path fill="none" stroke="midnightblue" d="M247.12,-168.08C250.96,-160.69 256.52,-149.95 261.26,-140.81"/>
<polygon fill="midnightblue" stroke="midnightblue" points="264.47,-142.24 265.96,-131.75 258.25,-139.02 264.47,-142.24"/>
</g>
<!-- Node7&#45;&gt;Node3 -->
<g id="edge9" class="edge">
<title>Node7&#45;&gt;Node3</title>
<path fill="none" stroke="midnightblue" d="M121.43,-112.08C128.35,-104.3 138.57,-92.8 146.95,-83.37"/>
<polygon fill="midnightblue" stroke="midnightblue" points="149.69,-85.55 153.72,-75.75 144.46,-80.9 149.69,-85.55"/>
</g>
<!-- Node8 -->
<g id="node8" class="node">
<title>Node8</title>
<g id="a_node8"><a xlink:title=" ">
<polygon fill="none" stroke="#bfbfbf" points="0,-56.5 0,-75.5 59,-75.5 59,-56.5 0,-56.5"/>
<text text-anchor="middle" x="29.5" y="-63.5" font-family="Helvetica,sans-Serif" font-size="10.00">stdexcept</text>
</a>
</g>
</g>
<!-- Node7&#45;&gt;Node8 -->
<g id="edge7" class="edge">
<title>Node7&#45;&gt;Node8</title>
<path fill="none" stroke="midnightblue" d="M100,-112.32C86.9,-103.9 66.79,-90.97 51.39,-81.07"/>
<polygon fill="midnightblue" stroke="midnightblue" points="53.27,-78.12 42.96,-75.65 49.48,-84.01 53.27,-78.12"/>
</g>
<!-- Node9 -->
<g id="node9" class="node">
<title>Node9</title>
<g id="a_node9"><a xlink:title=" ">
<polygon fill="none" stroke="#bfbfbf" points="77,-56.5 77,-75.5 122,-75.5 122,-56.5 77,-56.5"/>
<text text-anchor="middle" x="99.5" y="-63.5" font-family="Helvetica,sans-Serif" font-size="10.00">climits</text>
</a>
</g>
</g>
<!-- Node7&#45;&gt;Node9 -->
<g id="edge8" class="edge">
<title>Node7&#45;&gt;Node9</title>
<path fill="none" stroke="midnightblue" d="M111.19,-112.08C109.33,-104.93 106.66,-94.64 104.35,-85.69"/>
<polygon fill="midnightblue" stroke="midnightblue" points="107.67,-84.55 101.77,-75.75 100.89,-86.31 107.67,-84.55"/>
</g>
<!-- Node10&#45;&gt;Node3 -->
<g id="edge11" class="edge">
<title>Node10&#45;&gt;Node3</title>
<path fill="none" stroke="midnightblue" d="M252.99,-112.32C235.43,-103.62 208.17,-90.12 187.97,-80.11"/>
<polygon fill="midnightblue" stroke="midnightblue" points="189.48,-76.96 178.97,-75.65 186.38,-83.23 189.48,-76.96"/>
</g>
<!-- Node10&#45;&gt;Node5 -->
<g id="edge18" class="edge">
<title>Node10&#45;&gt;Node5</title>
<path fill="none" stroke="midnightblue" d="M261.42,-112.08C253.33,-104.14 241.3,-92.34 231.59,-82.8"/>
<polygon fill="midnightblue" stroke="midnightblue" points="234,-80.26 224.41,-75.75 229.1,-85.25 234,-80.26"/>
</g>
<!-- Node10&#45;&gt;Node6 -->
<g id="edge19" class="edge">
<title>Node10&#45;&gt;Node6</title>
<path fill="none" stroke="midnightblue" d="M292.84,-112.44C316.25,-103.48 353.24,-89.31 379.69,-79.18"/>
<polygon fill="midnightblue" stroke="midnightblue" points="381.18,-82.36 389.26,-75.52 378.67,-75.82 381.18,-82.36"/>
</g>
<!-- Node11 -->
<g id="node11" class="node">
<title>Node11</title>
<g id="a_node11"><a xlink:href="../../d5/d5a/field_8h.html" target="_top" xlink:title=" ">
<polygon fill="none" stroke="black" points="322.5,-56.5 322.5,-75.5 364.5,-75.5 364.5,-56.5 322.5,-56.5"/>
<text text-anchor="middle" x="343.5" y="-63.5" font-family="Helvetica,sans-Serif" font-size="10.00">field.h</text>
</a>
</g>
</g>
<!-- Node10&#45;&gt;Node11 -->
<g id="edge12" class="edge">
<title>Node10&#45;&gt;Node11</title>
<path fill="none" stroke="midnightblue" d="M282.23,-112.32C293.34,-104.11 310.24,-91.6 323.48,-81.81"/>
<polygon fill="midnightblue" stroke="midnightblue" points="325.6,-84.59 331.56,-75.83 321.44,-78.97 325.6,-84.59"/>
</g>
<!-- Node16 -->
<g id="node16" class="node">
<title>Node16</title>
<g id="a_node16"><a xlink:title=" ">
<polygon fill="none" stroke="#bfbfbf" points="248.5,-56.5 248.5,-75.5 304.5,-75.5 304.5,-56.5 248.5,-56.5"/>
<text text-anchor="middle" x="276.5" y="-63.5" font-family="Helvetica,sans-Serif" font-size="10.00">algorithm</text>
</a>
</g>
</g>
<!-- Node10&#45;&gt;Node16 -->
<g id="edge17" class="edge">
<title>Node10&#45;&gt;Node16</title>
<path fill="none" stroke="midnightblue" d="M271.49,-112.08C272.29,-104.93 273.43,-94.64 274.42,-85.69"/>
<polygon fill="midnightblue" stroke="midnightblue" points="277.9,-86.08 275.53,-75.75 270.94,-85.3 277.9,-86.08"/>
</g>
<!-- Node12 -->
<g id="node12" class="node">
<title>Node12</title>
<g id="a_node12"><a xlink:title=" ">
<polygon fill="none" stroke="#bfbfbf" points="236,-0.5 236,-19.5 271,-19.5 271,-0.5 236,-0.5"/>
<text text-anchor="middle" x="253.5" y="-7.5" font-family="Helvetica,sans-Serif" font-size="10.00">map</text>
</a>
</g>
</g>
<!-- Node11&#45;&gt;Node12 -->
<g id="edge13" class="edge">
<title>Node11&#45;&gt;Node12</title>
<path fill="none" stroke="midnightblue" d="M329.04,-56.32C315,-47.9 293.45,-34.97 276.96,-25.07"/>
<polygon fill="midnightblue" stroke="midnightblue" points="278.3,-21.8 267.92,-19.65 274.7,-27.8 278.3,-21.8"/>
</g>
<!-- Node13 -->
<g id="node13" class="node">
<title>Node13</title>
<g id="a_node13"><a xlink:title=" ">
<polygon fill="none" stroke="#bfbfbf" points="289,-0.5 289,-19.5 332,-19.5 332,-0.5 289,-0.5"/>
<text text-anchor="middle" x="310.5" y="-7.5" font-family="Helvetica,sans-Serif" font-size="10.00">queue</text>
</a>
</g>
</g>
<!-- Node11&#45;&gt;Node13 -->
<g id="edge14" class="edge">
<title>Node11&#45;&gt;Node13</title>
<path fill="none" stroke="midnightblue" d="M338.05,-56.08C333.49,-48.61 326.83,-37.72 321.21,-28.52"/>
<polygon fill="midnightblue" stroke="midnightblue" points="324.05,-26.46 315.85,-19.75 318.08,-30.11 324.05,-26.46"/>
</g>
<!-- Node14 -->
<g id="node14" class="node">
<title>Node14</title>
<g id="a_node14"><a xlink:title=" ">
<polygon fill="none" stroke="#bfbfbf" points="350.5,-0.5 350.5,-19.5 402.5,-19.5 402.5,-0.5 350.5,-0.5"/>
<text text-anchor="middle" x="376.5" y="-7.5" font-family="Helvetica,sans-Serif" font-size="10.00">sstream</text>
</a>
</g>
</g>
<!-- Node11&#45;&gt;Node14 -->
<g id="edge15" class="edge">
<title>Node11&#45;&gt;Node14</title>
<path fill="none" stroke="midnightblue" d="M348.95,-56.08C353.51,-48.61 360.17,-37.72 365.79,-28.52"/>
<polygon fill="midnightblue" stroke="midnightblue" points="368.92,-30.11 371.15,-19.75 362.95,-26.46 368.92,-30.11"/>
</g>
<!-- Node15 -->
<g id="node15" class="node">
<title>Node15</title>
<g id="a_node15"><a xlink:title=" ">
<polygon fill="none" stroke="#bfbfbf" points="420.5,-0.5 420.5,-19.5 464.5,-19.5 464.5,-0.5 420.5,-0.5"/>
<text text-anchor="middle" x="442.5" y="-7.5" font-family="Helvetica,sans-Serif" font-size="10.00">cmath</text>
</a>
</g>
</g>
<!-- Node11&#45;&gt;Node15 -->
<g id="edge16" class="edge">
<title>Node11&#45;&gt;Node15</title>
<path fill="none" stroke="midnightblue" d="M359.41,-56.32C375.14,-47.74 399.44,-34.49 417.71,-24.52"/>
<polygon fill="midnightblue" stroke="midnightblue" points="419.53,-27.52 426.63,-19.65 416.18,-21.37 419.53,-27.52"/>
</g>
</g>
</svg>
