<?xml version="1.0" encoding="UTF-8" standalone="no"?>
<!DOCTYPE svg PUBLIC "-//W3C//DTD SVG 1.1//EN"
 "http://www.w3.org/Graphics/SVG/1.1/DTD/svg11.dtd">
<!-- Generated by graphviz version 2.44.1 (20200629.0846)
 -->
<!-- Title: District::getDistrictID Pages: 1 -->
<svg width="867pt" height="218pt"
 viewBox="0.00 0.00 867.00 217.57" xmlns="http://www.w3.org/2000/svg" xmlns:xlink="http://www.w3.org/1999/xlink">
<g id="graph0" class="graph" transform="scale(1 1) rotate(0) translate(4 213.57)">
<title>District::getDistrictID</title>
<!-- Node1 -->
<g id="node1" class="node">
<title>Node1</title>
<g id="a_node1"><a xlink:title=" ">
<polygon fill="#bfbfbf" stroke="black" points="752,-95.5 752,-114.5 859,-114.5 859,-95.5 752,-95.5"/>
<text text-anchor="middle" x="805.5" y="-102.5" font-family="Helvetica,sans-Serif" font-size="10.00">District::getDistrictID</text>
</a>
</g>
</g>
<!-- Node2 -->
<g id="node2" class="node">
<title>Node2</title>
<g id="a_node2"><a xlink:href="../../d9/d64/class_a_i.html#a6afa7ebeca7011cfffbc5a0df60c112f" target="_top" xlink:title=" ">
<polygon fill="none" stroke="black" points="564.5,-76.5 564.5,-95.5 690.5,-95.5 690.5,-76.5 564.5,-76.5"/>
<text text-anchor="middle" x="627.5" y="-83.5" font-family="Helvetica,sans-Serif" font-size="10.00">AI::calculatePutVaccines</text>
</a>
</g>
</g>
<!-- Node1&#45;&gt;Node2 -->
<g id="edge1" class="edge">
<title>Node1&#45;&gt;Node2</title>
<path fill="none" stroke="midnightblue" d="M741.56,-98.21C724.98,-96.42 707.1,-94.49 690.56,-92.7"/>
<polygon fill="midnightblue" stroke="midnightblue" points="741.38,-101.71 751.69,-99.3 742.13,-94.75 741.38,-101.71"/>
</g>
<!-- Node7 -->
<g id="node7" class="node">
<title>Node7</title>
<g id="a_node7"><a xlink:href="../../d9/dbf/class_window.html#a3d7f68f2fe4c1e7d787353b056090ea4" target="_top" xlink:title=" ">
<polygon fill="none" stroke="black" points="539,-114.5 539,-133.5 716,-133.5 716,-114.5 539,-114.5"/>
<text text-anchor="middle" x="627.5" y="-121.5" font-family="Helvetica,sans-Serif" font-size="10.00">Window::createAcquiredDistrictsMap</text>
</a>
</g>
</g>
<!-- Node1&#45;&gt;Node7 -->
<g id="edge6" class="edge">
<title>Node1&#45;&gt;Node7</title>
<path fill="none" stroke="midnightblue" d="M741.74,-111.78C733.43,-112.67 724.79,-113.61 716.15,-114.54"/>
<polygon fill="midnightblue" stroke="midnightblue" points="742.13,-115.25 751.69,-110.7 741.38,-108.29 742.13,-115.25"/>
</g>
<!-- Node9 -->
<g id="node9" class="node">
<title>Node9</title>
<g id="a_node9"><a xlink:href="../../d9/dbf/class_window.html#a59515fc5a56e86d5a46d771595daac55" target="_top" xlink:title=" ">
<polygon fill="none" stroke="black" points="258,-171.5 258,-190.5 344,-190.5 344,-171.5 258,-171.5"/>
<text text-anchor="middle" x="301" y="-178.5" font-family="Helvetica,sans-Serif" font-size="10.00">Window::update</text>
</a>
</g>
</g>
<!-- Node1&#45;&gt;Node9 -->
<g id="edge18" class="edge">
<title>Node1&#45;&gt;Node9</title>
<path fill="none" stroke="midnightblue" d="M790.96,-122.37C775.25,-140.96 747.46,-169.35 716,-181 587.61,-228.56 421.05,-205.34 344.22,-190.34"/>
<polygon fill="midnightblue" stroke="midnightblue" points="793.68,-124.57 797.3,-114.61 788.26,-120.14 793.68,-124.57"/>
</g>
<!-- Node11 -->
<g id="node11" class="node">
<title>Node11</title>
<g id="a_node11"><a xlink:href="../../d9/dbf/class_window.html#a3cf04a74c49b1871b64436ef60fedc87" target="_top" xlink:title=" ">
<polygon fill="none" stroke="black" points="562,-152.5 562,-171.5 693,-171.5 693,-152.5 562,-152.5"/>
<text text-anchor="middle" x="627.5" y="-159.5" font-family="Helvetica,sans-Serif" font-size="10.00">Window::createDistrictCell</text>
</a>
</g>
</g>
<!-- Node1&#45;&gt;Node11 -->
<g id="edge10" class="edge">
<title>Node1&#45;&gt;Node11</title>
<path fill="none" stroke="midnightblue" d="M775.83,-118.97C758.76,-126.87 736.5,-136.44 716,-143 704.6,-146.65 692.14,-149.82 680.29,-152.47"/>
<polygon fill="midnightblue" stroke="midnightblue" points="777.67,-121.98 785.23,-114.55 774.69,-115.64 777.67,-121.98"/>
</g>
<!-- Node12 -->
<g id="node12" class="node">
<title>Node12</title>
<g id="a_node12"><a xlink:href="../../d2/d5c/class_iface.html#a42712663a207dad0227b8fc592c7046b" target="_top" xlink:title=" ">
<polygon fill="none" stroke="black" points="583.5,-0.5 583.5,-19.5 671.5,-19.5 671.5,-0.5 583.5,-0.5"/>
<text text-anchor="middle" x="627.5" y="-7.5" font-family="Helvetica,sans-Serif" font-size="10.00">Iface::createGrid</text>
</a>
</g>
</g>
<!-- Node1&#45;&gt;Node12 -->
<g id="edge12" class="edge">
<title>Node1&#45;&gt;Node12</title>
<path fill="none" stroke="midnightblue" d="M789.21,-87.55C772.86,-70.02 745.29,-43.58 716,-29 702.36,-22.21 686.34,-17.84 671.76,-15.02"/>
<polygon fill="midnightblue" stroke="midnightblue" points="786.98,-90.3 796.3,-95.35 792.17,-85.6 786.98,-90.3"/>
</g>
<!-- Node15 -->
<g id="node15" class="node">
<title>Node15</title>
<g id="a_node15"><a xlink:href="../../da/df6/class_logic.html#a7ebaa13c8a671d82c669431478524784" target="_top" xlink:title=" ">
<polygon fill="none" stroke="black" points="580,-38.5 580,-57.5 675,-57.5 675,-38.5 580,-38.5"/>
<text text-anchor="middle" x="627.5" y="-45.5" font-family="Helvetica,sans-Serif" font-size="10.00">Logic::simulateTO</text>
</a>
</g>
</g>
<!-- Node1&#45;&gt;Node15 -->
<g id="edge15" class="edge">
<title>Node1&#45;&gt;Node15</title>
<path fill="none" stroke="midnightblue" d="M775.83,-91.03C758.76,-83.13 736.5,-73.56 716,-67 702.97,-62.83 688.56,-59.28 675.26,-56.42"/>
<polygon fill="midnightblue" stroke="midnightblue" points="774.69,-94.36 785.23,-95.45 777.67,-88.02 774.69,-94.36"/>
</g>
<!-- Node3 -->
<g id="node3" class="node">
<title>Node3</title>
<g id="a_node3"><a xlink:href="../../d2/d5c/class_iface.html#abae0122b800731a979c9f8e4c3a58176" target="_top" xlink:title=" ">
<polygon fill="none" stroke="black" points="412,-76.5 412,-95.5 479,-95.5 479,-76.5 412,-76.5"/>
<text text-anchor="middle" x="445.5" y="-83.5" font-family="Helvetica,sans-Serif" font-size="10.00">Iface::round</text>
</a>
</g>
</g>
<!-- Node2&#45;&gt;Node3 -->
<g id="edge2" class="edge">
<title>Node2&#45;&gt;Node3</title>
<path fill="none" stroke="midnightblue" d="M554.08,-86C528.08,-86 500.04,-86 479.11,-86"/>
<polygon fill="midnightblue" stroke="midnightblue" points="554.3,-89.5 564.3,-86 554.3,-82.5 554.3,-89.5"/>
</g>
<!-- Node4 -->
<g id="node4" class="node">
<title>Node4</title>
<g id="a_node4"><a xlink:href="../../d2/d5c/class_iface.html#a44e6d0db22abbce5cb8c132e5f1d4284" target="_top" xlink:title=" ">
<polygon fill="none" stroke="black" points="270,-76.5 270,-95.5 332,-95.5 332,-76.5 270,-76.5"/>
<text text-anchor="middle" x="301" y="-83.5" font-family="Helvetica,sans-Serif" font-size="10.00">Iface::start</text>
</a>
</g>
</g>
<!-- Node3&#45;&gt;Node4 -->
<g id="edge3" class="edge">
<title>Node3&#45;&gt;Node4</title>
<path fill="none" stroke="midnightblue" d="M401.54,-86C379.14,-86 352.28,-86 332.11,-86"/>
<polygon fill="midnightblue" stroke="midnightblue" points="401.81,-89.5 411.81,-86 401.81,-82.5 401.81,-89.5"/>
</g>
<!-- Node5 -->
<g id="node5" class="node">
<title>Node5</title>
<g id="a_node5"><a xlink:href="../../dc/d90/class_anti_virus.html#affe3f62a87b880cc964188d9ddb9d562" target="_top" xlink:title=" ">
<polygon fill="none" stroke="black" points="84.5,-76.5 84.5,-95.5 203.5,-95.5 203.5,-76.5 84.5,-76.5"/>
<text text-anchor="middle" x="144" y="-83.5" font-family="Helvetica,sans-Serif" font-size="10.00">AntiVirus::startInterface</text>
</a>
</g>
</g>
<!-- Node4&#45;&gt;Node5 -->
<g id="edge4" class="edge">
<title>Node4&#45;&gt;Node5</title>
<path fill="none" stroke="midnightblue" d="M259.58,-86C242.54,-86 222.37,-86 203.74,-86"/>
<polygon fill="midnightblue" stroke="midnightblue" points="259.75,-89.5 269.75,-86 259.75,-82.5 259.75,-89.5"/>
</g>
<!-- Node6 -->
<g id="node6" class="node">
<title>Node6</title>
<g id="a_node6"><a xlink:href="../../df/d0a/main_8cpp.html#ae66f6b31b5ad750f1fe042a706a4e3d4" target="_top" xlink:title=" ">
<polygon fill="none" stroke="black" points="0,-76.5 0,-95.5 38,-95.5 38,-76.5 0,-76.5"/>
<text text-anchor="middle" x="19" y="-83.5" font-family="Helvetica,sans-Serif" font-size="10.00">main</text>
</a>
</g>
</g>
<!-- Node5&#45;&gt;Node6 -->
<g id="edge5" class="edge">
<title>Node5&#45;&gt;Node6</title>
<path fill="none" stroke="midnightblue" d="M74.13,-86C60.79,-86 47.92,-86 38.08,-86"/>
<polygon fill="midnightblue" stroke="midnightblue" points="74.38,-89.5 84.38,-86 74.38,-82.5 74.38,-89.5"/>
</g>
<!-- Node8 -->
<g id="node8" class="node">
<title>Node8</title>
<g id="a_node8"><a xlink:href="../../d9/dbf/class_window.html#a613473425472a8fa471f2cbd4926aa2e" target="_top" xlink:title=" ">
<polygon fill="none" stroke="black" points="394.5,-152.5 394.5,-171.5 496.5,-171.5 496.5,-152.5 394.5,-152.5"/>
<text text-anchor="middle" x="445.5" y="-159.5" font-family="Helvetica,sans-Serif" font-size="10.00">Window::createGrid</text>
</a>
</g>
</g>
<!-- Node7&#45;&gt;Node8 -->
<g id="edge7" class="edge">
<title>Node7&#45;&gt;Node8</title>
<path fill="none" stroke="midnightblue" d="M571.17,-135.68C545.64,-141.07 515.72,-147.39 491.59,-152.48"/>
<polygon fill="midnightblue" stroke="midnightblue" points="572.02,-139.08 581.08,-133.59 570.57,-132.23 572.02,-139.08"/>
</g>
<!-- Node8&#45;&gt;Node9 -->
<g id="edge8" class="edge">
<title>Node8&#45;&gt;Node9</title>
<path fill="none" stroke="midnightblue" d="M384.13,-170.05C370.71,-171.84 356.76,-173.7 344.25,-175.37"/>
<polygon fill="midnightblue" stroke="midnightblue" points="384.81,-173.49 394.26,-168.7 383.88,-166.55 384.81,-173.49"/>
</g>
<!-- Node10 -->
<g id="node10" class="node">
<title>Node10</title>
<g id="a_node10"><a xlink:href="../../d0/d85/class_visualization.html#a83a40506ae13f42fefad3449d644909a" target="_top" xlink:title=" ">
<polygon fill="none" stroke="black" points="74,-166 74,-196 214,-196 214,-166 74,-166"/>
<text text-anchor="start" x="82" y="-184" font-family="Helvetica,sans-Serif" font-size="10.00">Visualization::displayCurrent</text>
<text text-anchor="middle" x="144" y="-173" font-family="Helvetica,sans-Serif" font-size="10.00">Round</text>
</a>
</g>
</g>
<!-- Node9&#45;&gt;Node10 -->
<g id="edge9" class="edge">
<title>Node9&#45;&gt;Node10</title>
<path fill="none" stroke="midnightblue" d="M247.59,-181C236.84,-181 225.37,-181 214.14,-181"/>
<polygon fill="midnightblue" stroke="midnightblue" points="247.65,-184.5 257.65,-181 247.65,-177.5 247.65,-184.5"/>
</g>
<!-- Node11&#45;&gt;Node8 -->
<g id="edge11" class="edge">
<title>Node11&#45;&gt;Node8</title>
<path fill="none" stroke="midnightblue" d="M551.57,-162C533.02,-162 513.59,-162 496.56,-162"/>
<polygon fill="midnightblue" stroke="midnightblue" points="551.77,-165.5 561.77,-162 551.77,-158.5 551.77,-165.5"/>
</g>
<!-- Node13 -->
<g id="node13" class="node">
<title>Node13</title>
<g id="a_node13"><a xlink:href="../../d2/d5c/class_iface.html#a6afe73763b17570a7a884ffeca597c0e" target="_top" xlink:title=" ">
<polygon fill="none" stroke="black" points="398,-0.5 398,-19.5 493,-19.5 493,-0.5 398,-0.5"/>
<text text-anchor="middle" x="445.5" y="-7.5" font-family="Helvetica,sans-Serif" font-size="10.00">Iface::initAntiVirus</text>
</a>
</g>
</g>
<!-- Node12&#45;&gt;Node13 -->
<g id="edge13" class="edge">
<title>Node12&#45;&gt;Node13</title>
<path fill="none" stroke="midnightblue" d="M573.16,-10C547.72,-10 517.55,-10 493.05,-10"/>
<polygon fill="midnightblue" stroke="midnightblue" points="573.39,-13.5 583.39,-10 573.39,-6.5 573.39,-13.5"/>
</g>
<!-- Node14 -->
<g id="node14" class="node">
<title>Node14</title>
<g id="a_node14"><a xlink:href="../../dc/d90/class_anti_virus.html#a3b3aed962d274c4333a8c9ac191816a0" target="_top" xlink:title=" ">
<polygon fill="none" stroke="black" points="250,-0.5 250,-19.5 352,-19.5 352,-0.5 250,-0.5"/>
<text text-anchor="middle" x="301" y="-7.5" font-family="Helvetica,sans-Serif" font-size="10.00">AntiVirus::AntiVirus</text>
</a>
</g>
</g>
<!-- Node13&#45;&gt;Node14 -->
<g id="edge14" class="edge">
<title>Node13&#45;&gt;Node14</title>
<path fill="none" stroke="midnightblue" d="M387.7,-10C375.97,-10 363.68,-10 352.2,-10"/>
<polygon fill="midnightblue" stroke="midnightblue" points="387.84,-13.5 397.84,-10 387.84,-6.5 387.84,-13.5"/>
</g>
<!-- Node15&#45;&gt;Node3 -->
<g id="edge17" class="edge">
<title>Node15&#45;&gt;Node3</title>
<path fill="none" stroke="midnightblue" d="M571.12,-59.69C540.98,-66.05 504.74,-73.7 479.13,-79.11"/>
<polygon fill="midnightblue" stroke="midnightblue" points="572.02,-63.08 581.08,-57.59 570.57,-56.23 572.02,-63.08"/>
</g>
<!-- Node16 -->
<g id="node16" class="node">
<title>Node16</title>
<g id="a_node16"><a xlink:href="../../d2/d5c/class_iface.html#ad724ec2c6a2aa884f61de19193affc6a" target="_top" xlink:title=" ">
<polygon fill="none" stroke="black" points="388,-38.5 388,-57.5 503,-57.5 503,-38.5 388,-38.5"/>
<text text-anchor="middle" x="445.5" y="-45.5" font-family="Helvetica,sans-Serif" font-size="10.00">Iface::requestLEGACY</text>
</a>
</g>
</g>
<!-- Node15&#45;&gt;Node16 -->
<g id="edge16" class="edge">
<title>Node15&#45;&gt;Node16</title>
<path fill="none" stroke="midnightblue" d="M569.51,-48C548.29,-48 524.22,-48 503.03,-48"/>
<polygon fill="midnightblue" stroke="midnightblue" points="569.68,-51.5 579.68,-48 569.68,-44.5 569.68,-51.5"/>
</g>
</g>
</svg>
