<?xml version="1.0" encoding="UTF-8" standalone="no"?>
<!DOCTYPE svg PUBLIC "-//W3C//DTD SVG 1.1//EN"
 "http://www.w3.org/Graphics/SVG/1.1/DTD/svg11.dtd">
<!-- Generated by graphviz version 2.44.1 (20200629.0846)
 -->
<!-- Title: District::isClear Pages: 1 -->
<svg width="893pt" height="214pt"
 viewBox="0.00 0.00 893.00 214.00" xmlns="http://www.w3.org/2000/svg" xmlns:xlink="http://www.w3.org/1999/xlink">
<g id="graph0" class="graph" transform="scale(1 1) rotate(0) translate(4 210)">
<title>District::isClear</title>
<!-- Node1 -->
<g id="node1" class="node">
<title>Node1</title>
<g id="a_node1"><a xlink:title=" ">
<polygon fill="#bfbfbf" stroke="black" points="802,-93.5 802,-112.5 885,-112.5 885,-93.5 802,-93.5"/>
<text text-anchor="middle" x="843.5" y="-100.5" font-family="Helvetica,sans-Serif" font-size="10.00">District::isClear</text>
</a>
</g>
</g>
<!-- Node2 -->
<g id="node2" class="node">
<title>Node2</title>
<g id="a_node2"><a xlink:href="../../da/df6/class_logic.html#a95e67ed4c9141cbf3efdf6a720993e59" target="_top" xlink:title=" ">
<polygon fill="none" stroke="black" points="631,-186.5 631,-205.5 744,-205.5 744,-186.5 631,-186.5"/>
<text text-anchor="middle" x="687.5" y="-193.5" font-family="Helvetica,sans-Serif" font-size="10.00">Logic::calculateBorder</text>
</a>
</g>
</g>
<!-- Node1&#45;&gt;Node2 -->
<g id="edge1" class="edge">
<title>Node1&#45;&gt;Node2</title>
<path fill="none" stroke="midnightblue" d="M829.01,-120.63C815.07,-137.61 791.76,-162.77 766,-177 758.97,-180.88 751.14,-183.98 743.25,-186.46"/>
<polygon fill="midnightblue" stroke="midnightblue" points="831.92,-122.59 835.42,-112.59 826.45,-118.23 831.92,-122.59"/>
</g>
<!-- Node9 -->
<g id="node9" class="node">
<title>Node9</title>
<g id="a_node9"><a xlink:href="../../da/d74/class_grid.html#ae16bf4e418d38191c647ef0220fc8606" target="_top" xlink:title=" ">
<polygon fill="none" stroke="black" points="609,-137 609,-167 766,-167 766,-137 609,-137"/>
<text text-anchor="start" x="617" y="-155" font-family="Helvetica,sans-Serif" font-size="10.00">Grid::calculateDistrictProduction</text>
<text text-anchor="middle" x="687.5" y="-144" font-family="Helvetica,sans-Serif" font-size="10.00">Capacity</text>
</a>
</g>
</g>
<!-- Node1&#45;&gt;Node9 -->
<g id="edge8" class="edge">
<title>Node1&#45;&gt;Node9</title>
<path fill="none" stroke="midnightblue" d="M803.69,-115.81C791.63,-119.76 778.27,-124.09 766,-128 756.87,-130.9 747.13,-133.96 737.73,-136.88"/>
<polygon fill="midnightblue" stroke="midnightblue" points="805.06,-119.05 813.47,-112.6 802.88,-112.39 805.06,-119.05"/>
</g>
<!-- Node10 -->
<g id="node10" class="node">
<title>Node10</title>
<g id="a_node10"><a xlink:href="../../da/df6/class_logic.html#a7399ce3a312128bf723035825d466d89" target="_top" xlink:title=" ">
<polygon fill="none" stroke="black" points="616.5,-88 616.5,-118 758.5,-118 758.5,-88 616.5,-88"/>
<text text-anchor="start" x="624.5" y="-106" font-family="Helvetica,sans-Serif" font-size="10.00">Logic::calculateSpontaneous</text>
<text text-anchor="middle" x="687.5" y="-95" font-family="Helvetica,sans-Serif" font-size="10.00">Infection</text>
</a>
</g>
</g>
<!-- Node1&#45;&gt;Node10 -->
<g id="edge10" class="edge">
<title>Node1&#45;&gt;Node10</title>
<path fill="none" stroke="midnightblue" d="M791.43,-103C780.96,-103 769.76,-103 758.74,-103"/>
<polygon fill="midnightblue" stroke="midnightblue" points="791.64,-106.5 801.64,-103 791.64,-99.5 791.64,-106.5"/>
</g>
<!-- Node11 -->
<g id="node11" class="node">
<title>Node11</title>
<g id="a_node11"><a xlink:href="../../da/df6/class_logic.html#a7ff7fb2511045df5fe201656025da085" target="_top" xlink:title=" ">
<polygon fill="none" stroke="black" points="616.5,-39 616.5,-69 758.5,-69 758.5,-39 616.5,-39"/>
<text text-anchor="start" x="624.5" y="-57" font-family="Helvetica,sans-Serif" font-size="10.00">Logic::calculateSpontaneous</text>
<text text-anchor="middle" x="687.5" y="-46" font-family="Helvetica,sans-Serif" font-size="10.00">InfectionLEGACY</text>
</a>
</g>
</g>
<!-- Node1&#45;&gt;Node11 -->
<g id="edge12" class="edge">
<title>Node1&#45;&gt;Node11</title>
<path fill="none" stroke="midnightblue" d="M802.8,-90.37C782.33,-83.86 757.22,-75.87 735.76,-69.04"/>
<polygon fill="midnightblue" stroke="midnightblue" points="801.85,-93.74 812.44,-93.44 803.97,-87.07 801.85,-93.74"/>
</g>
<!-- Node12 -->
<g id="node12" class="node">
<title>Node12</title>
<g id="a_node12"><a xlink:href="../../d6/d85/class_district.html#a74e60ed7cb27324dcfdd564039e64a13" target="_top" xlink:title=" ">
<polygon fill="none" stroke="black" points="631,-0.5 631,-19.5 744,-19.5 744,-0.5 631,-0.5"/>
<text text-anchor="middle" x="687.5" y="-7.5" font-family="Helvetica,sans-Serif" font-size="10.00">District::updateIsClear</text>
</a>
</g>
</g>
<!-- Node1&#45;&gt;Node12 -->
<g id="edge13" class="edge">
<title>Node1&#45;&gt;Node12</title>
<path fill="none" stroke="midnightblue" d="M828.7,-85.42C814.67,-68.72 791.42,-44.13 766,-30 758.23,-25.68 749.5,-22.27 740.77,-19.58"/>
<polygon fill="midnightblue" stroke="midnightblue" points="826.13,-87.8 835.16,-93.33 831.55,-83.37 826.13,-87.8"/>
</g>
<!-- Node3 -->
<g id="node3" class="node">
<title>Node3</title>
<g id="a_node3"><a xlink:href="../../da/df6/class_logic.html#a7ebaa13c8a671d82c669431478524784" target="_top" xlink:title=" ">
<polygon fill="none" stroke="black" points="478,-117.5 478,-136.5 573,-136.5 573,-117.5 478,-117.5"/>
<text text-anchor="middle" x="525.5" y="-124.5" font-family="Helvetica,sans-Serif" font-size="10.00">Logic::simulateTO</text>
</a>
</g>
</g>
<!-- Node2&#45;&gt;Node3 -->
<g id="edge2" class="edge">
<title>Node2&#45;&gt;Node3</title>
<path fill="none" stroke="midnightblue" d="M627.74,-183.62C621.32,-181.67 614.96,-179.47 609,-177 582.85,-166.17 555.27,-147.85 539.55,-136.65"/>
<polygon fill="midnightblue" stroke="midnightblue" points="627.24,-187.11 637.81,-186.47 629.15,-180.38 627.24,-187.11"/>
</g>
<!-- Node4 -->
<g id="node4" class="node">
<title>Node4</title>
<g id="a_node4"><a xlink:href="../../d2/d5c/class_iface.html#ad724ec2c6a2aa884f61de19193affc6a" target="_top" xlink:title=" ">
<polygon fill="none" stroke="black" points="327,-136.5 327,-155.5 442,-155.5 442,-136.5 327,-136.5"/>
<text text-anchor="middle" x="384.5" y="-143.5" font-family="Helvetica,sans-Serif" font-size="10.00">Iface::requestLEGACY</text>
</a>
</g>
</g>
<!-- Node3&#45;&gt;Node4 -->
<g id="edge3" class="edge">
<title>Node3&#45;&gt;Node4</title>
<path fill="none" stroke="midnightblue" d="M467.78,-134.75C459.42,-135.9 450.8,-137.07 442.43,-138.22"/>
<polygon fill="midnightblue" stroke="midnightblue" points="468.39,-138.2 477.83,-133.38 467.45,-131.27 468.39,-138.2"/>
</g>
<!-- Node5 -->
<g id="node5" class="node">
<title>Node5</title>
<g id="a_node5"><a xlink:href="../../d2/d5c/class_iface.html#abae0122b800731a979c9f8e4c3a58176" target="_top" xlink:title=" ">
<polygon fill="none" stroke="black" points="351,-98.5 351,-117.5 418,-117.5 418,-98.5 351,-98.5"/>
<text text-anchor="middle" x="384.5" y="-105.5" font-family="Helvetica,sans-Serif" font-size="10.00">Iface::round</text>
</a>
</g>
</g>
<!-- Node3&#45;&gt;Node5 -->
<g id="edge4" class="edge">
<title>Node3&#45;&gt;Node5</title>
<path fill="none" stroke="midnightblue" d="M467.54,-119.21C450.75,-116.92 432.94,-114.48 418.23,-112.47"/>
<polygon fill="midnightblue" stroke="midnightblue" points="467.45,-122.73 477.83,-120.62 468.39,-115.8 467.45,-122.73"/>
</g>
<!-- Node6 -->
<g id="node6" class="node">
<title>Node6</title>
<g id="a_node6"><a xlink:href="../../d2/d5c/class_iface.html#a44e6d0db22abbce5cb8c132e5f1d4284" target="_top" xlink:title=" ">
<polygon fill="none" stroke="black" points="229,-98.5 229,-117.5 291,-117.5 291,-98.5 229,-98.5"/>
<text text-anchor="middle" x="260" y="-105.5" font-family="Helvetica,sans-Serif" font-size="10.00">Iface::start</text>
</a>
</g>
</g>
<!-- Node5&#45;&gt;Node6 -->
<g id="edge5" class="edge">
<title>Node5&#45;&gt;Node6</title>
<path fill="none" stroke="midnightblue" d="M340.6,-108C324.27,-108 306.03,-108 291.13,-108"/>
<polygon fill="midnightblue" stroke="midnightblue" points="340.99,-111.5 350.99,-108 340.99,-104.5 340.99,-111.5"/>
</g>
<!-- Node7 -->
<g id="node7" class="node">
<title>Node7</title>
<g id="a_node7"><a xlink:href="../../dc/d90/class_anti_virus.html#affe3f62a87b880cc964188d9ddb9d562" target="_top" xlink:title=" ">
<polygon fill="none" stroke="black" points="74,-98.5 74,-117.5 193,-117.5 193,-98.5 74,-98.5"/>
<text text-anchor="middle" x="133.5" y="-105.5" font-family="Helvetica,sans-Serif" font-size="10.00">AntiVirus::startInterface</text>
</a>
</g>
</g>
<!-- Node6&#45;&gt;Node7 -->
<g id="edge6" class="edge">
<title>Node6&#45;&gt;Node7</title>
<path fill="none" stroke="midnightblue" d="M218.83,-108C210.62,-108 201.82,-108 193.12,-108"/>
<polygon fill="midnightblue" stroke="midnightblue" points="218.86,-111.5 228.86,-108 218.86,-104.5 218.86,-111.5"/>
</g>
<!-- Node8 -->
<g id="node8" class="node">
<title>Node8</title>
<g id="a_node8"><a xlink:href="../../df/d0a/main_8cpp.html#ae66f6b31b5ad750f1fe042a706a4e3d4" target="_top" xlink:title=" ">
<polygon fill="none" stroke="black" points="0,-98.5 0,-117.5 38,-117.5 38,-98.5 0,-98.5"/>
<text text-anchor="middle" x="19" y="-105.5" font-family="Helvetica,sans-Serif" font-size="10.00">main</text>
</a>
</g>
</g>
<!-- Node7&#45;&gt;Node8 -->
<g id="edge7" class="edge">
<title>Node7&#45;&gt;Node8</title>
<path fill="none" stroke="midnightblue" d="M63.65,-108C54.29,-108 45.43,-108 38.16,-108"/>
<polygon fill="midnightblue" stroke="midnightblue" points="63.94,-111.5 73.94,-108 63.94,-104.5 63.94,-111.5"/>
</g>
<!-- Node9&#45;&gt;Node3 -->
<g id="edge9" class="edge">
<title>Node9&#45;&gt;Node3</title>
<path fill="none" stroke="midnightblue" d="M598.92,-138.32C590.16,-136.95 581.52,-135.6 573.43,-134.33"/>
<polygon fill="midnightblue" stroke="midnightblue" points="598.42,-141.78 608.84,-139.87 599.5,-134.86 598.42,-141.78"/>
</g>
<!-- Node10&#45;&gt;Node3 -->
<g id="edge11" class="edge">
<title>Node10&#45;&gt;Node3</title>
<path fill="none" stroke="midnightblue" d="M606.35,-115.02C594.97,-116.73 583.6,-118.44 573.15,-120"/>
<polygon fill="midnightblue" stroke="midnightblue" points="606.95,-118.47 616.32,-113.53 605.91,-111.55 606.95,-118.47"/>
</g>
<!-- Node12&#45;&gt;Node3 -->
<g id="edge14" class="edge">
<title>Node12&#45;&gt;Node3</title>
<path fill="none" stroke="midnightblue" d="M622.18,-23.21C617.57,-25.17 613.13,-27.42 609,-30 572.27,-52.99 543.42,-97.64 531.92,-117.3"/>
<polygon fill="midnightblue" stroke="midnightblue" points="623.68,-26.38 631.8,-19.57 621.21,-19.83 623.68,-26.38"/>
</g>
</g>
</svg>
