<?xml version="1.0" encoding="UTF-8" standalone="no"?>
<!DOCTYPE svg PUBLIC "-//W3C//DTD SVG 1.1//EN"
 "http://www.w3.org/Graphics/SVG/1.1/DTD/svg11.dtd">
<!-- Generated by graphviz version 2.44.1 (20200629.0846)
 -->
<!-- Title: District::getAssignedFields Pages: 1 -->
<svg width="944pt" height="78pt"
 viewBox="0.00 0.00 944.00 77.50" xmlns="http://www.w3.org/2000/svg" xmlns:xlink="http://www.w3.org/1999/xlink">
<g id="graph0" class="graph" transform="scale(1 1) rotate(0) translate(4 73.5)">
<title>District::getAssignedFields</title>
<!-- Node1 -->
<g id="node1" class="node">
<title>Node1</title>
<g id="a_node1"><a xlink:title=" ">
<polygon fill="#bfbfbf" stroke="black" points="802,-28 802,-47 936,-47 936,-28 802,-28"/>
<text text-anchor="middle" x="869" y="-35" font-family="Helvetica,sans-Serif" font-size="10.00">District::getAssignedFields</text>
</a>
</g>
</g>
<!-- Node2 -->
<g id="node2" class="node">
<title>Node2</title>
<g id="a_node2"><a xlink:href="../../da/df6/class_logic.html#a95e67ed4c9141cbf3efdf6a720993e59" target="_top" xlink:title=" ">
<polygon fill="none" stroke="black" points="631,-50 631,-69 744,-69 744,-50 631,-50"/>
<text text-anchor="middle" x="687.5" y="-57" font-family="Helvetica,sans-Serif" font-size="10.00">Logic::calculateBorder</text>
</a>
</g>
</g>
<!-- Node1&#45;&gt;Node2 -->
<g id="edge1" class="edge">
<title>Node1&#45;&gt;Node2</title>
<path fill="none" stroke="midnightblue" d="M791.56,-46.87C775.63,-48.82 759.13,-50.84 744.12,-52.68"/>
<polygon fill="midnightblue" stroke="midnightblue" points="792.43,-50.29 801.93,-45.6 791.57,-43.34 792.43,-50.29"/>
</g>
<!-- Node9 -->
<g id="node9" class="node">
<title>Node9</title>
<g id="a_node9"><a xlink:href="../../da/d74/class_grid.html#ae16bf4e418d38191c647ef0220fc8606" target="_top" xlink:title=" ">
<polygon fill="none" stroke="black" points="609,-0.5 609,-30.5 766,-30.5 766,-0.5 609,-0.5"/>
<text text-anchor="start" x="617" y="-18.5" font-family="Helvetica,sans-Serif" font-size="10.00">Grid::calculateDistrictProduction</text>
<text text-anchor="middle" x="687.5" y="-7.5" font-family="Helvetica,sans-Serif" font-size="10.00">Capacity</text>
</a>
</g>
</g>
<!-- Node1&#45;&gt;Node9 -->
<g id="edge8" class="edge">
<title>Node1&#45;&gt;Node9</title>
<path fill="none" stroke="midnightblue" d="M791.75,-28.15C783.32,-27.12 774.73,-26.07 766.29,-25.03"/>
<polygon fill="midnightblue" stroke="midnightblue" points="791.57,-31.66 801.93,-29.4 792.43,-24.71 791.57,-31.66"/>
</g>
<!-- Node3 -->
<g id="node3" class="node">
<title>Node3</title>
<g id="a_node3"><a xlink:href="../../da/df6/class_logic.html#a7ebaa13c8a671d82c669431478524784" target="_top" xlink:title=" ">
<polygon fill="none" stroke="black" points="478,-28 478,-47 573,-47 573,-28 478,-28"/>
<text text-anchor="middle" x="525.5" y="-35" font-family="Helvetica,sans-Serif" font-size="10.00">Logic::simulateTO</text>
</a>
</g>
</g>
<!-- Node2&#45;&gt;Node3 -->
<g id="edge2" class="edge">
<title>Node2&#45;&gt;Node3</title>
<path fill="none" stroke="midnightblue" d="M620.65,-50.45C604.71,-48.25 588,-45.96 573.15,-43.91"/>
<polygon fill="midnightblue" stroke="midnightblue" points="620.61,-53.97 630.99,-51.87 621.56,-47.04 620.61,-53.97"/>
</g>
<!-- Node4 -->
<g id="node4" class="node">
<title>Node4</title>
<g id="a_node4"><a xlink:href="../../d2/d5c/class_iface.html#ad724ec2c6a2aa884f61de19193affc6a" target="_top" xlink:title=" ">
<polygon fill="none" stroke="black" points="327,-47 327,-66 442,-66 442,-47 327,-47"/>
<text text-anchor="middle" x="384.5" y="-54" font-family="Helvetica,sans-Serif" font-size="10.00">Iface::requestLEGACY</text>
</a>
</g>
</g>
<!-- Node3&#45;&gt;Node4 -->
<g id="edge3" class="edge">
<title>Node3&#45;&gt;Node4</title>
<path fill="none" stroke="midnightblue" d="M467.78,-45.25C459.42,-46.4 450.8,-47.57 442.43,-48.72"/>
<polygon fill="midnightblue" stroke="midnightblue" points="468.39,-48.7 477.83,-43.88 467.45,-41.77 468.39,-48.7"/>
</g>
<!-- Node5 -->
<g id="node5" class="node">
<title>Node5</title>
<g id="a_node5"><a xlink:href="../../d2/d5c/class_iface.html#abae0122b800731a979c9f8e4c3a58176" target="_top" xlink:title=" ">
<polygon fill="none" stroke="black" points="351,-9 351,-28 418,-28 418,-9 351,-9"/>
<text text-anchor="middle" x="384.5" y="-16" font-family="Helvetica,sans-Serif" font-size="10.00">Iface::round</text>
</a>
</g>
</g>
<!-- Node3&#45;&gt;Node5 -->
<g id="edge4" class="edge">
<title>Node3&#45;&gt;Node5</title>
<path fill="none" stroke="midnightblue" d="M467.54,-29.71C450.75,-27.42 432.94,-24.98 418.23,-22.97"/>
<polygon fill="midnightblue" stroke="midnightblue" points="467.45,-33.23 477.83,-31.12 468.39,-26.3 467.45,-33.23"/>
</g>
<!-- Node6 -->
<g id="node6" class="node">
<title>Node6</title>
<g id="a_node6"><a xlink:href="../../d2/d5c/class_iface.html#a44e6d0db22abbce5cb8c132e5f1d4284" target="_top" xlink:title=" ">
<polygon fill="none" stroke="black" points="229,-9 229,-28 291,-28 291,-9 229,-9"/>
<text text-anchor="middle" x="260" y="-16" font-family="Helvetica,sans-Serif" font-size="10.00">Iface::start</text>
</a>
</g>
</g>
<!-- Node5&#45;&gt;Node6 -->
<g id="edge5" class="edge">
<title>Node5&#45;&gt;Node6</title>
<path fill="none" stroke="midnightblue" d="M340.6,-18.5C324.27,-18.5 306.03,-18.5 291.13,-18.5"/>
<polygon fill="midnightblue" stroke="midnightblue" points="340.99,-22 350.99,-18.5 340.99,-15 340.99,-22"/>
</g>
<!-- Node7 -->
<g id="node7" class="node">
<title>Node7</title>
<g id="a_node7"><a xlink:href="../../dc/d90/class_anti_virus.html#affe3f62a87b880cc964188d9ddb9d562" target="_top" xlink:title=" ">
<polygon fill="none" stroke="black" points="74,-9 74,-28 193,-28 193,-9 74,-9"/>
<text text-anchor="middle" x="133.5" y="-16" font-family="Helvetica,sans-Serif" font-size="10.00">AntiVirus::startInterface</text>
</a>
</g>
</g>
<!-- Node6&#45;&gt;Node7 -->
<g id="edge6" class="edge">
<title>Node6&#45;&gt;Node7</title>
<path fill="none" stroke="midnightblue" d="M218.83,-18.5C210.62,-18.5 201.82,-18.5 193.12,-18.5"/>
<polygon fill="midnightblue" stroke="midnightblue" points="218.86,-22 228.86,-18.5 218.86,-15 218.86,-22"/>
</g>
<!-- Node8 -->
<g id="node8" class="node">
<title>Node8</title>
<g id="a_node8"><a xlink:href="../../df/d0a/main_8cpp.html#ae66f6b31b5ad750f1fe042a706a4e3d4" target="_top" xlink:title=" ">
<polygon fill="none" stroke="black" points="0,-9 0,-28 38,-28 38,-9 0,-9"/>
<text text-anchor="middle" x="19" y="-16" font-family="Helvetica,sans-Serif" font-size="10.00">main</text>
</a>
</g>
</g>
<!-- Node7&#45;&gt;Node8 -->
<g id="edge7" class="edge">
<title>Node7&#45;&gt;Node8</title>
<path fill="none" stroke="midnightblue" d="M63.65,-18.5C54.29,-18.5 45.43,-18.5 38.16,-18.5"/>
<polygon fill="midnightblue" stroke="midnightblue" points="63.94,-22 73.94,-18.5 63.94,-15 63.94,-22"/>
</g>
<!-- Node9&#45;&gt;Node3 -->
<g id="edge9" class="edge">
<title>Node9&#45;&gt;Node3</title>
<path fill="none" stroke="midnightblue" d="M598.92,-27.54C590.16,-28.75 581.52,-29.93 573.43,-31.05"/>
<polygon fill="midnightblue" stroke="midnightblue" points="599.41,-31.01 608.84,-26.18 598.46,-24.07 599.41,-31.01"/>
</g>
</g>
</svg>
