<?xml version="1.0" encoding="UTF-8" standalone="no"?>
<!DOCTYPE svg PUBLIC "-//W3C//DTD SVG 1.1//EN"
 "http://www.w3.org/Graphics/SVG/1.1/DTD/svg11.dtd">
<!-- Generated by graphviz version 2.44.1 (20200629.0846)
 -->
<!-- Title: operator&lt;&lt; Pages: 1 -->
<svg width="190pt" height="66pt"
 viewBox="0.00 0.00 190.00 66.00" xmlns="http://www.w3.org/2000/svg" xmlns:xlink="http://www.w3.org/1999/xlink">
<g id="graph0" class="graph" transform="scale(1 1) rotate(0) translate(4 62)">
<title>operator&lt;&lt;</title>
<!-- Node1 -->
<g id="node1" class="node">
<title>Node1</title>
<g id="a_node1"><a xlink:title=" ">
<polygon fill="#bfbfbf" stroke="black" points="0,-19.5 0,-38.5 64,-38.5 64,-19.5 0,-19.5"/>
<text text-anchor="middle" x="32" y="-26.5" font-family="Helvetica,sans-Serif" font-size="10.00">operator&lt;&lt;</text>
</a>
</g>
</g>
<!-- Node2 -->
<g id="node2" class="node">
<title>Node2</title>
<g id="a_node2"><a xlink:href="../../da/d74/class_grid.html#ae7393bc74ab867cc3f4409c70d80351b" target="_top" xlink:title=" ">
<polygon fill="none" stroke="black" points="100,-38.5 100,-57.5 182,-57.5 182,-38.5 100,-38.5"/>
<text text-anchor="middle" x="141" y="-45.5" font-family="Helvetica,sans-Serif" font-size="10.00">Grid::getHeight</text>
</a>
</g>
</g>
<!-- Node1&#45;&gt;Node2 -->
<g id="edge1" class="edge">
<title>Node1&#45;&gt;Node2</title>
<path fill="none" stroke="midnightblue" d="M64.24,-34.55C72.22,-35.96 81,-37.52 89.67,-39.06"/>
<polygon fill="midnightblue" stroke="midnightblue" points="89.29,-42.55 99.75,-40.85 90.52,-35.66 89.29,-42.55"/>
</g>
<!-- Node3 -->
<g id="node3" class="node">
<title>Node3</title>
<g id="a_node3"><a xlink:href="../../da/d74/class_grid.html#a862cf2f474e31195bea649b08cfb7b46" target="_top" xlink:title=" ">
<polygon fill="none" stroke="black" points="101,-0.5 101,-19.5 181,-19.5 181,-0.5 101,-0.5"/>
<text text-anchor="middle" x="141" y="-7.5" font-family="Helvetica,sans-Serif" font-size="10.00">Grid::getWidth</text>
</a>
</g>
</g>
<!-- Node1&#45;&gt;Node3 -->
<g id="edge2" class="edge">
<title>Node1&#45;&gt;Node3</title>
<path fill="none" stroke="midnightblue" d="M64.24,-23.45C72.57,-21.97 81.79,-20.34 90.83,-18.73"/>
<polygon fill="midnightblue" stroke="midnightblue" points="91.69,-22.13 100.92,-16.94 90.46,-15.24 91.69,-22.13"/>
</g>
</g>
</svg>
