<?xml version="1.0" encoding="UTF-8" standalone="no"?>
<!DOCTYPE svg PUBLIC "-//W3C//DTD SVG 1.1//EN"
 "http://www.w3.org/Graphics/SVG/1.1/DTD/svg11.dtd">
<!-- Generated by graphviz version 2.44.1 (20200629.0846)
 -->
<!-- Title: Iface::initAntiVirus Pages: 1 -->
<!--zoomable 473 -->
<svg id="main" version="1.1" xmlns="http://www.w3.org/2000/svg" xmlns:xlink="http://www.w3.org/1999/xlink" xml:space="preserve" onload="init(evt)">
<style type="text/css"><![CDATA[
.edge:hover path { stroke: red; }
.edge:hover polygon { stroke: red; fill: red; }
]]></style>
<script type="text/javascript"><![CDATA[
var edges = document.getElementsByTagName('g');
if (edges && edges.length) {
  for (var i=0;i<edges.length;i++) {
    if (edges[i].id.substr(0,4)=='edge') {
      edges[i].setAttribute('class','edge');
    }
  }
}
]]></script>
        <defs>
                <circle id="rim" cx="0" cy="0" r="7"/>
                <circle id="rim2" cx="0" cy="0" r="3.5"/>
                <g id="zoomPlus">
                        <use xlink:href="#rim" fill="#404040">
                                <set attributeName="fill" to="#808080" begin="zoomplus.mouseover" end="zoomplus.mouseout"/>
                        </use>
                        <path d="M-4,0h8M0,-4v8" fill="none" stroke="white" stroke-width="1.5" pointer-events="none"/>
                </g>
                <g id="zoomMin">
                        <use xlink:href="#rim" fill="#404040">
                                <set attributeName="fill" to="#808080" begin="zoomminus.mouseover" end="zoomminus.mouseout"/>
                        </use>
                        <path d="M-4,0h8" fill="none" stroke="white" stroke-width="1.5" pointer-events="none"/>
                </g>
                <g id="dirArrow">
                        <path fill="none" stroke="white" stroke-width="1.5" d="M0,-3.0v7 M-2.5,-0.5L0,-3.0L2.5,-0.5"/>
                </g>
               <g id="resetDef">
                       <use xlink:href="#rim2" fill="#404040">
                               <set attributeName="fill" to="#808080" begin="reset.mouseover" end="reset.mouseout"/>
                       </use>
               </g>
        </defs>

<script type="text/javascript">
var viewWidth = 702;
var viewHeight = 473;
var sectionId = 'dynsection-7';
</script>
<script xlink:href="../../svgpan.js"/>
<svg id="graph" class="graph">
<g id="viewport">
<title>Iface::initAntiVirus</title>
<!-- Node1 -->
<g id="node1" class="node">
<title>Node1</title>
<g id="a_node1"><a xlink:title=" ">
<polygon fill="#bfbfbf" stroke="black" points="0,-228.5 0,-247.5 95,-247.5 95,-228.5 0,-228.5"/>
<text text-anchor="middle" x="47.5" y="-235.5" font-family="Helvetica,sans-Serif" font-size="10.00">Iface::initAntiVirus</text>
</a>
</g>
</g>
<!-- Node2 -->
<g id="node2" class="node">
<title>Node2</title>
<g id="a_node2"><a xlink:href="../../d2/d5c/class_iface.html#a42712663a207dad0227b8fc592c7046b" target="_top" xlink:title=" ">
<polygon fill="none" stroke="black" points="131,-228.5 131,-247.5 219,-247.5 219,-228.5 131,-228.5"/>
<text text-anchor="middle" x="175" y="-235.5" font-family="Helvetica,sans-Serif" font-size="10.00">Iface::createGrid</text>
</a>
</g>
</g>
<!-- Node1&#45;&gt;Node2 -->
<g id="edge1" class="edge">
<title>Node1&#45;&gt;Node2</title>
<path fill="none" stroke="midnightblue" d="M95.23,-238C103.56,-238 112.28,-238 120.77,-238"/>
<polygon fill="midnightblue" stroke="midnightblue" points="120.96,-241.5 130.96,-238 120.96,-234.5 120.96,-241.5"/>
</g>
<!-- Node20 -->
<g id="node20" class="node">
<title>Node20</title>
<g id="a_node20"><a xlink:href="../../da/df6/class_logic.html#ad75934b1d5b2304e6999be5e6c708ee9" target="_top" xlink:title=" ">
<polygon fill="none" stroke="black" points="459.5,-342.5 459.5,-361.5 536.5,-361.5 536.5,-342.5 459.5,-342.5"/>
<text text-anchor="middle" x="498" y="-349.5" font-family="Helvetica,sans-Serif" font-size="10.00">Logic::setGrid</text>
</a>
</g>
</g>
<!-- Node1&#45;&gt;Node20 -->
<g id="edge25" class="edge">
<title>Node1&#45;&gt;Node20</title>
<path fill="none" stroke="midnightblue" d="M54.02,-247.61C74.79,-282.72 152.39,-404.14 255,-447 313.64,-471.5 339.03,-470.72 398,-447 436.46,-431.53 468.38,-393.19 484.88,-370.23"/>
<polygon fill="midnightblue" stroke="midnightblue" points="487.96,-371.92 490.8,-361.71 482.22,-367.92 487.96,-371.92"/>
</g>
<!-- Node22 -->
<g id="node22" class="node">
<title>Node22</title>
<g id="a_node22"><a xlink:href="../../d2/d5c/class_iface.html#a80a0218c178e79abcdf8b2a62785460e" target="_top" xlink:title=" ">
<polygon fill="none" stroke="black" points="143.5,-190.5 143.5,-209.5 206.5,-209.5 206.5,-190.5 143.5,-190.5"/>
<text text-anchor="middle" x="175" y="-197.5" font-family="Helvetica,sans-Serif" font-size="10.00">Iface::login</text>
</a>
</g>
</g>
<!-- Node1&#45;&gt;Node22 -->
<g id="edge24" class="edge">
<title>Node1&#45;&gt;Node22</title>
<path fill="none" stroke="midnightblue" d="M80.17,-228.41C96.32,-223.52 116.13,-217.52 133.39,-212.3"/>
<polygon fill="midnightblue" stroke="midnightblue" points="134.65,-215.57 143.21,-209.32 132.62,-208.87 134.65,-215.57"/>
</g>
<!-- Node3 -->
<g id="node3" class="node">
<title>Node3</title>
<g id="a_node3"><a xlink:href="../../d6/d85/class_district.html#a9f7a3cbb12d5136cb3f4d4b73b34a02c" target="_top" xlink:title=" ">
<polygon fill="none" stroke="black" points="261,-380.5 261,-399.5 392,-399.5 392,-380.5 261,-380.5"/>
<text text-anchor="middle" x="326.5" y="-387.5" font-family="Helvetica,sans-Serif" font-size="10.00">District::addAssignedField</text>
</a>
</g>
</g>
<!-- Node2&#45;&gt;Node3 -->
<g id="edge2" class="edge">
<title>Node2&#45;&gt;Node3</title>
<path fill="none" stroke="midnightblue" d="M178.93,-247.77C186.87,-272.46 211.14,-337.72 255,-371 257.49,-372.89 260.16,-374.6 262.95,-376.13"/>
<polygon fill="midnightblue" stroke="midnightblue" points="261.65,-379.39 272.19,-380.48 264.63,-373.05 261.65,-379.39"/>
</g>
<!-- Node4 -->
<g id="node4" class="node">
<title>Node4</title>
<g id="a_node4"><a xlink:href="../../da/d74/class_grid.html#abdd458bd78d4706e78808fb63a6170a7" target="_top" xlink:title=" ">
<polygon fill="none" stroke="black" points="283,-342.5 283,-361.5 370,-361.5 370,-342.5 283,-342.5"/>
<text text-anchor="middle" x="326.5" y="-349.5" font-family="Helvetica,sans-Serif" font-size="10.00">Grid::addDistrict</text>
</a>
</g>
</g>
<!-- Node2&#45;&gt;Node4 -->
<g id="edge3" class="edge">
<title>Node2&#45;&gt;Node4</title>
<path fill="none" stroke="midnightblue" d="M181.32,-247.77C192.38,-267.12 219.79,-310.42 255,-333 260.46,-336.5 266.56,-339.36 272.82,-341.7"/>
<polygon fill="midnightblue" stroke="midnightblue" points="272.13,-345.16 282.72,-344.96 274.31,-338.51 272.13,-345.16"/>
</g>
<!-- Node5 -->
<g id="node5" class="node">
<title>Node5</title>
<g id="a_node5"><a xlink:href="../../da/d74/class_grid.html#ad9cadb90346ea7b7414fb8acd93c30e1" target="_top" xlink:title=" ">
<polygon fill="none" stroke="black" points="288,-304.5 288,-323.5 365,-323.5 365,-304.5 288,-304.5"/>
<text text-anchor="middle" x="326.5" y="-311.5" font-family="Helvetica,sans-Serif" font-size="10.00">Grid::addField</text>
</a>
</g>
</g>
<!-- Node2&#45;&gt;Node5 -->
<g id="edge4" class="edge">
<title>Node2&#45;&gt;Node5</title>
<path fill="none" stroke="midnightblue" d="M186.7,-247.69C201.17,-260.32 228.27,-282.28 255,-295 262.16,-298.41 270.04,-301.29 277.85,-303.69"/>
<polygon fill="midnightblue" stroke="midnightblue" points="277.07,-307.11 287.64,-306.48 278.99,-300.37 277.07,-307.11"/>
</g>
<!-- Node6 -->
<g id="node6" class="node">
<title>Node6</title>
<g id="a_node6"><a xlink:href="../../d6/d85/class_district.html#ade42602c645580a72e6d9e2c034905da" target="_top" xlink:title=" ">
<polygon fill="none" stroke="black" points="255,-266.5 255,-285.5 398,-285.5 398,-266.5 255,-266.5"/>
<text text-anchor="middle" x="326.5" y="-273.5" font-family="Helvetica,sans-Serif" font-size="10.00">District::addNeighbourDistrict</text>
</a>
</g>
</g>
<!-- Node2&#45;&gt;Node6 -->
<g id="edge5" class="edge">
<title>Node2&#45;&gt;Node6</title>
<path fill="none" stroke="midnightblue" d="M213.73,-247.59C233.28,-252.56 257.35,-258.68 278.14,-263.96"/>
<polygon fill="midnightblue" stroke="midnightblue" points="277.49,-267.41 288.05,-266.48 279.22,-260.62 277.49,-267.41"/>
</g>
<!-- Node7 -->
<g id="node7" class="node">
<title>Node7</title>
<g id="a_node7"><a xlink:href="../../da/d74/class_grid.html#a258fdb0fb8bc7f13cad6637d40a7f20c" target="_top" xlink:title=" ">
<polygon fill="none" stroke="black" points="267,-190.5 267,-209.5 386,-209.5 386,-190.5 267,-190.5"/>
<text text-anchor="middle" x="326.5" y="-197.5" font-family="Helvetica,sans-Serif" font-size="10.00">Grid::getDistrictByPoint</text>
</a>
</g>
</g>
<!-- Node2&#45;&gt;Node7 -->
<g id="edge6" class="edge">
<title>Node2&#45;&gt;Node7</title>
<path fill="none" stroke="midnightblue" d="M213.73,-228.41C233.28,-223.44 257.35,-217.32 278.14,-212.04"/>
<polygon fill="midnightblue" stroke="midnightblue" points="279.22,-215.38 288.05,-209.52 277.49,-208.59 279.22,-215.38"/>
</g>
<!-- Node9 -->
<g id="node9" class="node">
<title>Node9</title>
<g id="a_node9"><a xlink:href="../../da/d74/class_grid.html#aff3d5bc3ea4e8da08e0a78d7f73f0084" target="_top" xlink:title=" ">
<polygon fill="none" stroke="black" points="443,-147.5 443,-166.5 553,-166.5 553,-147.5 443,-147.5"/>
<text text-anchor="middle" x="498" y="-154.5" font-family="Helvetica,sans-Serif" font-size="10.00">Grid::getFieldByPoint</text>
</a>
</g>
</g>
<!-- Node2&#45;&gt;Node9 -->
<g id="edge13" class="edge">
<title>Node2&#45;&gt;Node9</title>
<path fill="none" stroke="midnightblue" d="M202.36,-228.33C208.08,-225.7 213.93,-222.57 219,-219 238.01,-205.59 234.11,-191.24 255,-181 310.51,-153.8 381.68,-149.86 432.44,-151.48"/>
<polygon fill="midnightblue" stroke="midnightblue" points="432.5,-154.98 442.63,-151.88 432.78,-147.99 432.5,-154.98"/>
</g>
<!-- Node13 -->
<g id="node13" class="node">
<title>Node13</title>
<g id="a_node13"><a xlink:href="../../d6/d85/class_district.html#af11816ea48d5c0e7073fcef4af5d504c" target="_top" xlink:title=" ">
<polygon fill="none" stroke="black" points="273,-114.5 273,-133.5 380,-133.5 380,-114.5 273,-114.5"/>
<text text-anchor="middle" x="326.5" y="-121.5" font-family="Helvetica,sans-Serif" font-size="10.00">District::getDistrictID</text>
</a>
</g>
</g>
<!-- Node2&#45;&gt;Node13 -->
<g id="edge12" class="edge">
<title>Node2&#45;&gt;Node13</title>
<path fill="none" stroke="midnightblue" d="M204.99,-228.49C210.05,-225.95 214.97,-222.82 219,-219 244.67,-194.66 228.28,-171.19 255,-148 259.74,-143.88 265.22,-140.47 270.99,-137.63"/>
<polygon fill="midnightblue" stroke="midnightblue" points="272.44,-140.82 280.22,-133.63 269.66,-134.39 272.44,-140.82"/>
</g>
<!-- Node14 -->
<g id="node14" class="node">
<title>Node14</title>
<g id="a_node14"><a xlink:href="../../da/d74/class_grid.html#ae7393bc74ab867cc3f4409c70d80351b" target="_top" xlink:title=" ">
<polygon fill="none" stroke="black" points="285.5,-76.5 285.5,-95.5 367.5,-95.5 367.5,-76.5 285.5,-76.5"/>
<text text-anchor="middle" x="326.5" y="-83.5" font-family="Helvetica,sans-Serif" font-size="10.00">Grid::getHeight</text>
</a>
</g>
</g>
<!-- Node2&#45;&gt;Node14 -->
<g id="edge14" class="edge">
<title>Node2&#45;&gt;Node14</title>
<path fill="none" stroke="midnightblue" d="M206.84,-228.3C211.36,-225.83 215.62,-222.77 219,-219 254.44,-179.42 216.64,-141.76 255,-105 260.79,-99.45 268.03,-95.48 275.64,-92.66"/>
<polygon fill="midnightblue" stroke="midnightblue" points="276.88,-95.94 285.4,-89.65 274.82,-89.25 276.88,-95.94"/>
</g>
<!-- Node15 -->
<g id="node15" class="node">
<title>Node15</title>
<g id="a_node15"><a xlink:href="../../d1/d22/class_utils_1_1_point.html#adedde8c4c0d9e7efeb415929a10ef8db" target="_top" xlink:title=" ">
<polygon fill="none" stroke="black" points="260,-0.5 260,-19.5 393,-19.5 393,-0.5 260,-0.5"/>
<text text-anchor="middle" x="326.5" y="-7.5" font-family="Helvetica,sans-Serif" font-size="10.00">Utils::Point::getNeighbours</text>
</a>
</g>
</g>
<!-- Node2&#45;&gt;Node15 -->
<g id="edge15" class="edge">
<title>Node2&#45;&gt;Node15</title>
<path fill="none" stroke="midnightblue" d="M207.67,-228.39C211.98,-225.92 215.96,-222.84 219,-219 272.44,-151.69 196.58,-92.04 255,-29 256.21,-27.69 257.51,-26.47 258.87,-25.32"/>
<polygon fill="midnightblue" stroke="midnightblue" points="260.98,-28.12 267.32,-19.63 257.07,-22.31 260.98,-28.12"/>
</g>
<!-- Node18 -->
<g id="node18" class="node">
<title>Node18</title>
<g id="a_node18"><a xlink:href="../../da/d74/class_grid.html#a862cf2f474e31195bea649b08cfb7b46" target="_top" xlink:title=" ">
<polygon fill="none" stroke="black" points="286.5,-38.5 286.5,-57.5 366.5,-57.5 366.5,-38.5 286.5,-38.5"/>
<text text-anchor="middle" x="326.5" y="-45.5" font-family="Helvetica,sans-Serif" font-size="10.00">Grid::getWidth</text>
</a>
</g>
</g>
<!-- Node2&#45;&gt;Node18 -->
<g id="edge20" class="edge">
<title>Node2&#45;&gt;Node18</title>
<path fill="none" stroke="midnightblue" d="M207.52,-228.26C211.84,-225.81 215.87,-222.77 219,-219 263.39,-165.62 206.67,-116.84 255,-67 260.83,-60.98 268.36,-56.81 276.31,-53.92"/>
<polygon fill="midnightblue" stroke="midnightblue" points="277.54,-57.21 286.13,-51.01 275.55,-50.5 277.54,-57.21"/>
</g>
<!-- Node19 -->
<g id="node19" class="node">
<title>Node19</title>
<g id="a_node19"><a xlink:href="../../d2/d5c/class_iface.html#aa5b85524eb9b9430432f3705fa7de007" target="_top" xlink:title=" ">
<polygon fill="none" stroke="black" points="289.5,-228.5 289.5,-247.5 363.5,-247.5 363.5,-228.5 289.5,-228.5"/>
<text text-anchor="middle" x="326.5" y="-235.5" font-family="Helvetica,sans-Serif" font-size="10.00">Iface::setGrid</text>
</a>
</g>
</g>
<!-- Node2&#45;&gt;Node19 -->
<g id="edge21" class="edge">
<title>Node2&#45;&gt;Node19</title>
<path fill="none" stroke="midnightblue" d="M219.24,-238C238.1,-238 260.24,-238 279.41,-238"/>
<polygon fill="midnightblue" stroke="midnightblue" points="279.42,-241.5 289.42,-238 279.42,-234.5 279.42,-241.5"/>
</g>
<!-- Node21 -->
<g id="node21" class="node">
<title>Node21</title>
<g id="a_node21"><a xlink:href="../../da/d74/class_grid.html#ab01d308d002c421f7d3502e9af78a1d8" target="_top" xlink:title=" ">
<polygon fill="none" stroke="black" points="275.5,-418.5 275.5,-437.5 377.5,-437.5 377.5,-418.5 275.5,-418.5"/>
<text text-anchor="middle" x="326.5" y="-425.5" font-family="Helvetica,sans-Serif" font-size="10.00">Grid::setGridFieldID</text>
</a>
</g>
</g>
<!-- Node2&#45;&gt;Node21 -->
<g id="edge23" class="edge">
<title>Node2&#45;&gt;Node21</title>
<path fill="none" stroke="midnightblue" d="M177.58,-247.87C182.79,-277.19 202.25,-364.51 255,-409 258.32,-411.8 262.03,-414.2 265.94,-416.24"/>
<polygon fill="midnightblue" stroke="midnightblue" points="264.83,-419.58 275.39,-420.4 267.65,-413.17 264.83,-419.58"/>
</g>
<!-- Node8 -->
<g id="node8" class="node">
<title>Node8</title>
<g id="a_node8"><a xlink:href="../../da/d74/class_grid.html#af60e6e64cac90b7d38132dc6560b2052" target="_top" xlink:title=" ">
<polygon fill="none" stroke="black" points="445,-190.5 445,-209.5 551,-209.5 551,-190.5 445,-190.5"/>
<text text-anchor="middle" x="498" y="-197.5" font-family="Helvetica,sans-Serif" font-size="10.00">Grid::getDistrictByID</text>
</a>
</g>
</g>
<!-- Node7&#45;&gt;Node8 -->
<g id="edge7" class="edge">
<title>Node7&#45;&gt;Node8</title>
<path fill="none" stroke="midnightblue" d="M386.31,-200C401.92,-200 418.82,-200 434.62,-200"/>
<polygon fill="midnightblue" stroke="midnightblue" points="434.81,-203.5 444.81,-200 434.81,-196.5 434.81,-203.5"/>
</g>
<!-- Node7&#45;&gt;Node9 -->
<g id="edge8" class="edge">
<title>Node7&#45;&gt;Node9</title>
<path fill="none" stroke="midnightblue" d="M365.12,-190.46C390.02,-184.14 422.9,-175.8 449.59,-169.03"/>
<polygon fill="midnightblue" stroke="midnightblue" points="450.66,-172.37 459.49,-166.52 448.93,-165.58 450.66,-172.37"/>
</g>
<!-- Node10 -->
<g id="node10" class="node">
<title>Node10</title>
<g id="a_node10"><a xlink:href="../../da/d74/class_grid.html#a3618702f7872969eedc6e8817dc26776" target="_top" xlink:title=" ">
<polygon fill="none" stroke="black" points="598,-147.5 598,-166.5 694,-166.5 694,-147.5 598,-147.5"/>
<text text-anchor="middle" x="646" y="-154.5" font-family="Helvetica,sans-Serif" font-size="10.00">Grid::getFieldByID</text>
</a>
</g>
</g>
<!-- Node9&#45;&gt;Node10 -->
<g id="edge9" class="edge">
<title>Node9&#45;&gt;Node10</title>
<path fill="none" stroke="midnightblue" d="M553.37,-157C564.54,-157 576.34,-157 587.61,-157"/>
<polygon fill="midnightblue" stroke="midnightblue" points="587.79,-160.5 597.79,-157 587.79,-153.5 587.79,-160.5"/>
</g>
<!-- Node11 -->
<g id="node11" class="node">
<title>Node11</title>
<g id="a_node11"><a xlink:href="../../d1/d22/class_utils_1_1_point.html#a4fd453f573c399f7195a8982268a9f55" target="_top" xlink:title=" ">
<polygon fill="none" stroke="black" points="601.5,-100.5 601.5,-119.5 690.5,-119.5 690.5,-100.5 601.5,-100.5"/>
<text text-anchor="middle" x="646" y="-107.5" font-family="Helvetica,sans-Serif" font-size="10.00">Utils::Point::getX</text>
</a>
</g>
</g>
<!-- Node9&#45;&gt;Node11 -->
<g id="edge10" class="edge">
<title>Node9&#45;&gt;Node11</title>
<path fill="none" stroke="midnightblue" d="M528.55,-147.49C550.74,-140.35 581.35,-130.49 605.62,-122.68"/>
<polygon fill="midnightblue" stroke="midnightblue" points="606.8,-125.97 615.25,-119.58 604.66,-119.31 606.8,-125.97"/>
</g>
<!-- Node12 -->
<g id="node12" class="node">
<title>Node12</title>
<g id="a_node12"><a xlink:href="../../d1/d22/class_utils_1_1_point.html#a62ce3a4ededc21a4f417bf18e357fc8e" target="_top" xlink:title=" ">
<polygon fill="none" stroke="black" points="600.5,-43.5 600.5,-62.5 691.5,-62.5 691.5,-43.5 600.5,-43.5"/>
<text text-anchor="middle" x="646" y="-50.5" font-family="Helvetica,sans-Serif" font-size="10.00">Utils::Point::getY</text>
</a>
</g>
</g>
<!-- Node9&#45;&gt;Node12 -->
<g id="edge11" class="edge">
<title>Node9&#45;&gt;Node12</title>
<path fill="none" stroke="midnightblue" d="M512.47,-147.4C537.79,-129.37 592.65,-90.29 623.26,-68.49"/>
<polygon fill="midnightblue" stroke="midnightblue" points="625.44,-71.23 631.56,-62.57 621.38,-65.53 625.44,-71.23"/>
</g>
<!-- Node16 -->
<g id="node16" class="node">
<title>Node16</title>
<g id="a_node16"><a xlink:href="../../d1/d22/class_utils_1_1_point.html#ac6478449387ca5e2f34511ad421785d7" target="_top" xlink:title=" ">
<polygon fill="none" stroke="black" points="451.5,-43.5 451.5,-62.5 544.5,-62.5 544.5,-43.5 451.5,-43.5"/>
<text text-anchor="middle" x="498" y="-50.5" font-family="Helvetica,sans-Serif" font-size="10.00">Utils::Point::Point</text>
</a>
</g>
</g>
<!-- Node15&#45;&gt;Node16 -->
<g id="edge16" class="edge">
<title>Node15&#45;&gt;Node16</title>
<path fill="none" stroke="midnightblue" d="M365.12,-19.54C390.02,-25.86 422.9,-34.2 449.59,-40.97"/>
<polygon fill="midnightblue" stroke="midnightblue" points="448.93,-44.42 459.49,-43.48 450.66,-37.63 448.93,-44.42"/>
</g>
<!-- Node17 -->
<g id="node17" class="node">
<title>Node17</title>
<g id="a_node17"><a xlink:href="../../d1/d22/class_utils_1_1_point.html#a1563d88d568349cd8e76904c25671594" target="_top" xlink:title=" ">
<polygon fill="none" stroke="black" points="434,-5.5 434,-24.5 562,-24.5 562,-5.5 434,-5.5"/>
<text text-anchor="middle" x="498" y="-12.5" font-family="Helvetica,sans-Serif" font-size="10.00">Utils::Point::withinBounds</text>
</a>
</g>
</g>
<!-- Node15&#45;&gt;Node17 -->
<g id="edge17" class="edge">
<title>Node15&#45;&gt;Node17</title>
<path fill="none" stroke="midnightblue" d="M393.03,-11.93C403.09,-12.23 413.54,-12.54 423.75,-12.84"/>
<polygon fill="midnightblue" stroke="midnightblue" points="423.77,-16.34 433.87,-13.14 423.98,-9.34 423.77,-16.34"/>
</g>
<!-- Node17&#45;&gt;Node11 -->
<g id="edge18" class="edge">
<title>Node17&#45;&gt;Node11</title>
<path fill="none" stroke="midnightblue" d="M541.66,-24.55C548.73,-27.06 555.78,-30.16 562,-34 581.8,-46.21 580.92,-56.21 598,-72 606.23,-79.61 615.79,-87.49 624.12,-94.09"/>
<polygon fill="midnightblue" stroke="midnightblue" points="622.22,-97.04 632.25,-100.43 626.52,-91.52 622.22,-97.04"/>
</g>
<!-- Node17&#45;&gt;Node12 -->
<g id="edge19" class="edge">
<title>Node17&#45;&gt;Node12</title>
<path fill="none" stroke="midnightblue" d="M535.84,-24.59C554.85,-29.54 578.23,-35.62 598.47,-40.89"/>
<polygon fill="midnightblue" stroke="midnightblue" points="597.86,-44.35 608.42,-43.48 599.63,-37.57 597.86,-44.35"/>
</g>
<!-- Node19&#45;&gt;Node20 -->
<g id="edge22" class="edge">
<title>Node19&#45;&gt;Node20</title>
<path fill="none" stroke="midnightblue" d="M363.64,-244.07C375.1,-246.94 387.51,-251.08 398,-257 433.55,-277.07 465.87,-312.85 483.35,-334.3"/>
<polygon fill="midnightblue" stroke="midnightblue" points="480.74,-336.64 489.71,-342.28 486.21,-332.28 480.74,-336.64"/>
</g>
</g>
</svg>
        <g id="navigator" transform="translate(0 0)" fill="#404254">
                <rect fill="#f2f5e9" fill-opacity="0.5" stroke="#606060" stroke-width=".5" x="0" y="0" width="60" height="60"/>
                <use id="zoomplus" xlink:href="#zoomPlus" x="17" y="9" onmousedown="handleZoom(evt,'in')"/>
                <use id="zoomminus" xlink:href="#zoomMin" x="42" y="9" onmousedown="handleZoom(evt,'out')"/>
                <use id="reset" xlink:href="#resetDef" x="30" y="36" onmousedown="handleReset()"/>
                <g id="arrowUp" xlink:href="#dirArrow" transform="translate(30 24)" onmousedown="handlePan(0,-1)">
                  <use xlink:href="#rim" fill="#404040">
                        <set attributeName="fill" to="#808080" begin="arrowUp.mouseover" end="arrowUp.mouseout"/>
                  </use>
                  <path fill="none" stroke="white" stroke-width="1.5" d="M0,-3.0v7 M-2.5,-0.5L0,-3.0L2.5,-0.5"/>
                </g>
                <g id="arrowRight" xlink:href="#dirArrow" transform="rotate(90) translate(36 -43)" onmousedown="handlePan(1,0)">
                  <use xlink:href="#rim" fill="#404040">
                        <set attributeName="fill" to="#808080" begin="arrowRight.mouseover" end="arrowRight.mouseout"/>
                  </use>
                  <path fill="none" stroke="white" stroke-width="1.5" d="M0,-3.0v7 M-2.5,-0.5L0,-3.0L2.5,-0.5"/>
                </g>
                <g id="arrowDown" xlink:href="#dirArrow" transform="rotate(180) translate(-30 -48)" onmousedown="handlePan(0,1)">
                  <use xlink:href="#rim" fill="#404040">
                        <set attributeName="fill" to="#808080" begin="arrowDown.mouseover" end="arrowDown.mouseout"/>
                  </use>
                  <path fill="none" stroke="white" stroke-width="1.5" d="M0,-3.0v7 M-2.5,-0.5L0,-3.0L2.5,-0.5"/>
                </g>
                <g id="arrowLeft" xlink:href="#dirArrow" transform="rotate(270) translate(-36 17)" onmousedown="handlePan(-1,0)">
                  <use xlink:href="#rim" fill="#404040">
                        <set attributeName="fill" to="#808080" begin="arrowLeft.mouseover" end="arrowLeft.mouseout"/>
                  </use>
                  <path fill="none" stroke="white" stroke-width="1.5" d="M0,-3.0v7 M-2.5,-0.5L0,-3.0L2.5,-0.5"/>
                </g>
        </g>
        <svg viewBox="0 0 15 15" width="100%" height="30px" preserveAspectRatio="xMaxYMin meet">
         <g id="arrow_out" transform="scale(0.3 0.3)">
          <a xlink:href="class_iface_a6afe73763b17570a7a884ffeca597c0e_cgraph_org.svg" target="_base">
           <rect id="button" ry="5" rx="5" y="6" x="6" height="38" width="38"
                fill="#f2f5e9" fill-opacity="0.5" stroke="#606060" stroke-width="1.0"/>
           <path id="arrow"
             d="M 11.500037,31.436501 C 11.940474,20.09759 22.043105,11.32322 32.158766,21.979434 L 37.068811,17.246167 C 37.068811,17.246167 37.088388,32 37.088388,32 L 22.160133,31.978069 C 22.160133,31.978069 26.997745,27.140456 26.997745,27.140456 C 18.528582,18.264221 13.291696,25.230495 11.500037,31.436501 z"
             style="fill:#404040;"/>
          </a>
         </g>
        </svg>
</svg>
