<?xml version="1.0" encoding="UTF-8" standalone="no"?>
<!DOCTYPE svg PUBLIC "-//W3C//DTD SVG 1.1//EN"
 "http://www.w3.org/Graphics/SVG/1.1/DTD/svg11.dtd">
<!-- Generated by graphviz version 2.44.1 (20200629.0846)
 -->
<!-- Title: Iface::createGrid Pages: 1 -->
<!--zoomable 446 -->
<svg id="main" version="1.1" xmlns="http://www.w3.org/2000/svg" xmlns:xlink="http://www.w3.org/1999/xlink" xml:space="preserve" onload="init(evt)">
<style type="text/css"><![CDATA[
.edge:hover path { stroke: red; }
.edge:hover polygon { stroke: red; fill: red; }
]]></style>
<script type="text/javascript"><![CDATA[
var edges = document.getElementsByTagName('g');
if (edges && edges.length) {
  for (var i=0;i<edges.length;i++) {
    if (edges[i].id.substr(0,4)=='edge') {
      edges[i].setAttribute('class','edge');
    }
  }
}
]]></script>
        <defs>
                <circle id="rim" cx="0" cy="0" r="7"/>
                <circle id="rim2" cx="0" cy="0" r="3.5"/>
                <g id="zoomPlus">
                        <use xlink:href="#rim" fill="#404040">
                                <set attributeName="fill" to="#808080" begin="zoomplus.mouseover" end="zoomplus.mouseout"/>
                        </use>
                        <path d="M-4,0h8M0,-4v8" fill="none" stroke="white" stroke-width="1.5" pointer-events="none"/>
                </g>
                <g id="zoomMin">
                        <use xlink:href="#rim" fill="#404040">
                                <set attributeName="fill" to="#808080" begin="zoomminus.mouseover" end="zoomminus.mouseout"/>
                        </use>
                        <path d="M-4,0h8" fill="none" stroke="white" stroke-width="1.5" pointer-events="none"/>
                </g>
                <g id="dirArrow">
                        <path fill="none" stroke="white" stroke-width="1.5" d="M0,-3.0v7 M-2.5,-0.5L0,-3.0L2.5,-0.5"/>
                </g>
               <g id="resetDef">
                       <use xlink:href="#rim2" fill="#404040">
                               <set attributeName="fill" to="#808080" begin="reset.mouseover" end="reset.mouseout"/>
                       </use>
               </g>
        </defs>

<script type="text/javascript">
var viewWidth = 571;
var viewHeight = 446;
var sectionId = 'dynsection-3';
</script>
<script xlink:href="../../svgpan.js"/>
<svg id="graph" class="graph">
<g id="viewport">
<title>Iface::createGrid</title>
<!-- Node1 -->
<g id="node1" class="node">
<title>Node1</title>
<g id="a_node1"><a xlink:title=" ">
<polygon fill="#bfbfbf" stroke="black" points="0,-209.5 0,-228.5 88,-228.5 88,-209.5 0,-209.5"/>
<text text-anchor="middle" x="44" y="-216.5" font-family="Helvetica,sans-Serif" font-size="10.00">Iface::createGrid</text>
</a>
</g>
</g>
<!-- Node2 -->
<g id="node2" class="node">
<title>Node2</title>
<g id="a_node2"><a xlink:href="../../d6/d85/class_district.html#a9f7a3cbb12d5136cb3f4d4b73b34a02c" target="_top" xlink:title=" ">
<polygon fill="none" stroke="black" points="130,-418.5 130,-437.5 261,-437.5 261,-418.5 130,-418.5"/>
<text text-anchor="middle" x="195.5" y="-425.5" font-family="Helvetica,sans-Serif" font-size="10.00">District::addAssignedField</text>
</a>
</g>
</g>
<!-- Node1&#45;&gt;Node2 -->
<g id="edge1" class="edge">
<title>Node1&#45;&gt;Node2</title>
<path fill="none" stroke="midnightblue" d="M46.04,-228.59C49.94,-259.69 66.53,-358.59 124,-409 125.78,-410.56 127.68,-412 129.66,-413.32"/>
<polygon fill="midnightblue" stroke="midnightblue" points="128.41,-416.62 138.86,-418.38 131.79,-410.49 128.41,-416.62"/>
</g>
<!-- Node3 -->
<g id="node3" class="node">
<title>Node3</title>
<g id="a_node3"><a xlink:href="../../da/d74/class_grid.html#abdd458bd78d4706e78808fb63a6170a7" target="_top" xlink:title=" ">
<polygon fill="none" stroke="black" points="152,-380.5 152,-399.5 239,-399.5 239,-380.5 152,-380.5"/>
<text text-anchor="middle" x="195.5" y="-387.5" font-family="Helvetica,sans-Serif" font-size="10.00">Grid::addDistrict</text>
</a>
</g>
</g>
<!-- Node1&#45;&gt;Node3 -->
<g id="edge2" class="edge">
<title>Node1&#45;&gt;Node3</title>
<path fill="none" stroke="midnightblue" d="M47.11,-228.55C53.56,-255.38 75.57,-332.04 124,-371 129.38,-375.32 135.65,-378.67 142.2,-381.25"/>
<polygon fill="midnightblue" stroke="midnightblue" points="141.33,-384.65 151.92,-384.52 143.56,-378.02 141.33,-384.65"/>
</g>
<!-- Node4 -->
<g id="node4" class="node">
<title>Node4</title>
<g id="a_node4"><a xlink:href="../../da/d74/class_grid.html#ad9cadb90346ea7b7414fb8acd93c30e1" target="_top" xlink:title=" ">
<polygon fill="none" stroke="black" points="157,-342.5 157,-361.5 234,-361.5 234,-342.5 157,-342.5"/>
<text text-anchor="middle" x="195.5" y="-349.5" font-family="Helvetica,sans-Serif" font-size="10.00">Grid::addField</text>
</a>
</g>
</g>
<!-- Node1&#45;&gt;Node4 -->
<g id="edge3" class="edge">
<title>Node1&#45;&gt;Node4</title>
<path fill="none" stroke="midnightblue" d="M48.89,-228.66C58.3,-250.74 84.44,-305.11 124,-333 130.93,-337.88 139.04,-341.51 147.25,-344.21"/>
<polygon fill="midnightblue" stroke="midnightblue" points="146.29,-347.57 156.87,-346.96 148.22,-340.84 146.29,-347.57"/>
</g>
<!-- Node5 -->
<g id="node5" class="node">
<title>Node5</title>
<g id="a_node5"><a xlink:href="../../d6/d85/class_district.html#ade42602c645580a72e6d9e2c034905da" target="_top" xlink:title=" ">
<polygon fill="none" stroke="black" points="124,-304.5 124,-323.5 267,-323.5 267,-304.5 124,-304.5"/>
<text text-anchor="middle" x="195.5" y="-311.5" font-family="Helvetica,sans-Serif" font-size="10.00">District::addNeighbourDistrict</text>
</a>
</g>
</g>
<!-- Node1&#45;&gt;Node5 -->
<g id="edge4" class="edge">
<title>Node1&#45;&gt;Node5</title>
<path fill="none" stroke="midnightblue" d="M52.17,-228.51C64.85,-244.66 92.86,-277.39 124,-295 127.96,-297.24 132.18,-299.22 136.53,-300.98"/>
<polygon fill="midnightblue" stroke="midnightblue" points="135.59,-304.36 146.19,-304.47 137.98,-297.77 135.59,-304.36"/>
</g>
<!-- Node6 -->
<g id="node6" class="node">
<title>Node6</title>
<g id="a_node6"><a xlink:href="../../da/d74/class_grid.html#a258fdb0fb8bc7f13cad6637d40a7f20c" target="_top" xlink:title=" ">
<polygon fill="none" stroke="black" points="136,-266.5 136,-285.5 255,-285.5 255,-266.5 136,-266.5"/>
<text text-anchor="middle" x="195.5" y="-273.5" font-family="Helvetica,sans-Serif" font-size="10.00">Grid::getDistrictByPoint</text>
</a>
</g>
</g>
<!-- Node1&#45;&gt;Node6 -->
<g id="edge5" class="edge">
<title>Node1&#45;&gt;Node6</title>
<path fill="none" stroke="midnightblue" d="M66.64,-228.5C82.42,-235.32 104.4,-244.58 124,-252 134.08,-255.82 145.07,-259.69 155.31,-263.18"/>
<polygon fill="midnightblue" stroke="midnightblue" points="154.25,-266.52 164.84,-266.4 156.49,-259.89 154.25,-266.52"/>
</g>
<!-- Node8 -->
<g id="node8" class="node">
<title>Node8</title>
<g id="a_node8"><a xlink:href="../../da/d74/class_grid.html#aff3d5bc3ea4e8da08e0a78d7f73f0084" target="_top" xlink:title=" ">
<polygon fill="none" stroke="black" points="312,-228.5 312,-247.5 422,-247.5 422,-228.5 312,-228.5"/>
<text text-anchor="middle" x="367" y="-235.5" font-family="Helvetica,sans-Serif" font-size="10.00">Grid::getFieldByPoint</text>
</a>
</g>
</g>
<!-- Node1&#45;&gt;Node8 -->
<g id="edge12" class="edge">
<title>Node1&#45;&gt;Node8</title>
<path fill="none" stroke="midnightblue" d="M88.29,-221.56C143.16,-224.81 238.23,-230.44 301.62,-234.19"/>
<polygon fill="midnightblue" stroke="midnightblue" points="301.71,-237.7 311.9,-234.8 302.12,-230.71 301.71,-237.7"/>
</g>
<!-- Node12 -->
<g id="node12" class="node">
<title>Node12</title>
<g id="a_node12"><a xlink:href="../../d6/d85/class_district.html#af11816ea48d5c0e7073fcef4af5d504c" target="_top" xlink:title=" ">
<polygon fill="none" stroke="black" points="142,-152.5 142,-171.5 249,-171.5 249,-152.5 142,-152.5"/>
<text text-anchor="middle" x="195.5" y="-159.5" font-family="Helvetica,sans-Serif" font-size="10.00">District::getDistrictID</text>
</a>
</g>
</g>
<!-- Node1&#45;&gt;Node12 -->
<g id="edge11" class="edge">
<title>Node1&#45;&gt;Node12</title>
<path fill="none" stroke="midnightblue" d="M62.47,-209.43C78.22,-201.1 102.17,-189.11 124,-181 130.39,-178.63 137.2,-176.41 143.98,-174.39"/>
<polygon fill="midnightblue" stroke="midnightblue" points="145.17,-177.69 153.83,-171.58 143.25,-170.96 145.17,-177.69"/>
</g>
<!-- Node13 -->
<g id="node13" class="node">
<title>Node13</title>
<g id="a_node13"><a xlink:href="../../da/d74/class_grid.html#ae7393bc74ab867cc3f4409c70d80351b" target="_top" xlink:title=" ">
<polygon fill="none" stroke="black" points="154.5,-114.5 154.5,-133.5 236.5,-133.5 236.5,-114.5 154.5,-114.5"/>
<text text-anchor="middle" x="195.5" y="-121.5" font-family="Helvetica,sans-Serif" font-size="10.00">Grid::getHeight</text>
</a>
</g>
</g>
<!-- Node1&#45;&gt;Node13 -->
<g id="edge13" class="edge">
<title>Node1&#45;&gt;Node13</title>
<path fill="none" stroke="midnightblue" d="M52.17,-209.49C64.85,-193.34 92.86,-160.61 124,-143 130.37,-139.4 137.46,-136.45 144.61,-134.05"/>
<polygon fill="midnightblue" stroke="midnightblue" points="145.78,-137.35 154.34,-131.11 143.76,-130.65 145.78,-137.35"/>
</g>
<!-- Node14 -->
<g id="node14" class="node">
<title>Node14</title>
<g id="a_node14"><a xlink:href="../../d1/d22/class_utils_1_1_point.html#adedde8c4c0d9e7efeb415929a10ef8db" target="_top" xlink:title=" ">
<polygon fill="none" stroke="black" points="129,-190.5 129,-209.5 262,-209.5 262,-190.5 129,-190.5"/>
<text text-anchor="middle" x="195.5" y="-197.5" font-family="Helvetica,sans-Serif" font-size="10.00">Utils::Point::getNeighbours</text>
</a>
</g>
</g>
<!-- Node1&#45;&gt;Node14 -->
<g id="edge14" class="edge">
<title>Node1&#45;&gt;Node14</title>
<path fill="none" stroke="midnightblue" d="M88.24,-213.5C97.85,-212.28 108.3,-210.95 118.79,-209.62"/>
<polygon fill="midnightblue" stroke="midnightblue" points="119.34,-213.08 128.82,-208.35 118.46,-206.14 119.34,-213.08"/>
</g>
<!-- Node17 -->
<g id="node17" class="node">
<title>Node17</title>
<g id="a_node17"><a xlink:href="../../da/d74/class_grid.html#a862cf2f474e31195bea649b08cfb7b46" target="_top" xlink:title=" ">
<polygon fill="none" stroke="black" points="155.5,-76.5 155.5,-95.5 235.5,-95.5 235.5,-76.5 155.5,-76.5"/>
<text text-anchor="middle" x="195.5" y="-83.5" font-family="Helvetica,sans-Serif" font-size="10.00">Grid::getWidth</text>
</a>
</g>
</g>
<!-- Node1&#45;&gt;Node17 -->
<g id="edge19" class="edge">
<title>Node1&#45;&gt;Node17</title>
<path fill="none" stroke="midnightblue" d="M48.89,-209.34C58.3,-187.26 84.44,-132.89 124,-105 130.48,-100.43 138.01,-96.96 145.68,-94.32"/>
<polygon fill="midnightblue" stroke="midnightblue" points="146.83,-97.63 155.41,-91.41 144.83,-90.92 146.83,-97.63"/>
</g>
<!-- Node18 -->
<g id="node18" class="node">
<title>Node18</title>
<g id="a_node18"><a xlink:href="../../d2/d5c/class_iface.html#aa5b85524eb9b9430432f3705fa7de007" target="_top" xlink:title=" ">
<polygon fill="none" stroke="black" points="158.5,-38.5 158.5,-57.5 232.5,-57.5 232.5,-38.5 158.5,-38.5"/>
<text text-anchor="middle" x="195.5" y="-45.5" font-family="Helvetica,sans-Serif" font-size="10.00">Iface::setGrid</text>
</a>
</g>
</g>
<!-- Node1&#45;&gt;Node18 -->
<g id="edge20" class="edge">
<title>Node1&#45;&gt;Node18</title>
<path fill="none" stroke="midnightblue" d="M47.11,-209.45C53.56,-182.62 75.57,-105.96 124,-67 131.03,-61.34 139.61,-57.36 148.32,-54.56"/>
<polygon fill="midnightblue" stroke="midnightblue" points="149.42,-57.89 158.15,-51.88 147.58,-51.14 149.42,-57.89"/>
</g>
<!-- Node20 -->
<g id="node20" class="node">
<title>Node20</title>
<g id="a_node20"><a xlink:href="../../da/d74/class_grid.html#ab01d308d002c421f7d3502e9af78a1d8" target="_top" xlink:title=" ">
<polygon fill="none" stroke="black" points="144.5,-0.5 144.5,-19.5 246.5,-19.5 246.5,-0.5 144.5,-0.5"/>
<text text-anchor="middle" x="195.5" y="-7.5" font-family="Helvetica,sans-Serif" font-size="10.00">Grid::setGridFieldID</text>
</a>
</g>
</g>
<!-- Node1&#45;&gt;Node20 -->
<g id="edge22" class="edge">
<title>Node1&#45;&gt;Node20</title>
<path fill="none" stroke="midnightblue" d="M46.04,-209.41C49.94,-178.31 66.53,-79.41 124,-29 127.27,-26.13 130.93,-23.69 134.82,-21.62"/>
<polygon fill="midnightblue" stroke="midnightblue" points="136.52,-24.69 144.22,-17.4 133.66,-18.3 136.52,-24.69"/>
</g>
<!-- Node7 -->
<g id="node7" class="node">
<title>Node7</title>
<g id="a_node7"><a xlink:href="../../da/d74/class_grid.html#af60e6e64cac90b7d38132dc6560b2052" target="_top" xlink:title=" ">
<polygon fill="none" stroke="black" points="314,-266.5 314,-285.5 420,-285.5 420,-266.5 314,-266.5"/>
<text text-anchor="middle" x="367" y="-273.5" font-family="Helvetica,sans-Serif" font-size="10.00">Grid::getDistrictByID</text>
</a>
</g>
</g>
<!-- Node6&#45;&gt;Node7 -->
<g id="edge6" class="edge">
<title>Node6&#45;&gt;Node7</title>
<path fill="none" stroke="midnightblue" d="M255.31,-276C270.92,-276 287.82,-276 303.62,-276"/>
<polygon fill="midnightblue" stroke="midnightblue" points="303.81,-279.5 313.81,-276 303.81,-272.5 303.81,-279.5"/>
</g>
<!-- Node6&#45;&gt;Node8 -->
<g id="edge7" class="edge">
<title>Node6&#45;&gt;Node8</title>
<path fill="none" stroke="midnightblue" d="M239.27,-266.41C261.84,-261.35 289.72,-255.1 313.58,-249.75"/>
<polygon fill="midnightblue" stroke="midnightblue" points="314.54,-253.12 323.54,-247.52 313.01,-246.29 314.54,-253.12"/>
</g>
<!-- Node9 -->
<g id="node9" class="node">
<title>Node9</title>
<g id="a_node9"><a xlink:href="../../da/d74/class_grid.html#a3618702f7872969eedc6e8817dc26776" target="_top" xlink:title=" ">
<polygon fill="none" stroke="black" points="467,-228.5 467,-247.5 563,-247.5 563,-228.5 467,-228.5"/>
<text text-anchor="middle" x="515" y="-235.5" font-family="Helvetica,sans-Serif" font-size="10.00">Grid::getFieldByID</text>
</a>
</g>
</g>
<!-- Node8&#45;&gt;Node9 -->
<g id="edge8" class="edge">
<title>Node8&#45;&gt;Node9</title>
<path fill="none" stroke="midnightblue" d="M422.37,-238C433.54,-238 445.34,-238 456.61,-238"/>
<polygon fill="midnightblue" stroke="midnightblue" points="456.79,-241.5 466.79,-238 456.79,-234.5 456.79,-241.5"/>
</g>
<!-- Node10 -->
<g id="node10" class="node">
<title>Node10</title>
<g id="a_node10"><a xlink:href="../../d1/d22/class_utils_1_1_point.html#a4fd453f573c399f7195a8982268a9f55" target="_top" xlink:title=" ">
<polygon fill="none" stroke="black" points="470.5,-152.5 470.5,-171.5 559.5,-171.5 559.5,-152.5 470.5,-152.5"/>
<text text-anchor="middle" x="515" y="-159.5" font-family="Helvetica,sans-Serif" font-size="10.00">Utils::Point::getX</text>
</a>
</g>
</g>
<!-- Node8&#45;&gt;Node10 -->
<g id="edge9" class="edge">
<title>Node8&#45;&gt;Node10</title>
<path fill="none" stroke="midnightblue" d="M410.66,-228.45C417.73,-225.94 424.78,-222.84 431,-219 450.8,-206.79 447.78,-194.1 467,-181 469.69,-179.17 472.59,-177.46 475.57,-175.9"/>
<polygon fill="midnightblue" stroke="midnightblue" points="477.13,-179.03 484.67,-171.59 474.13,-172.7 477.13,-179.03"/>
</g>
<!-- Node11 -->
<g id="node11" class="node">
<title>Node11</title>
<g id="a_node11"><a xlink:href="../../d1/d22/class_utils_1_1_point.html#a62ce3a4ededc21a4f417bf18e357fc8e" target="_top" xlink:title=" ">
<polygon fill="none" stroke="black" points="469.5,-190.5 469.5,-209.5 560.5,-209.5 560.5,-190.5 469.5,-190.5"/>
<text text-anchor="middle" x="515" y="-197.5" font-family="Helvetica,sans-Serif" font-size="10.00">Utils::Point::getY</text>
</a>
</g>
</g>
<!-- Node8&#45;&gt;Node11 -->
<g id="edge10" class="edge">
<title>Node8&#45;&gt;Node11</title>
<path fill="none" stroke="midnightblue" d="M404.84,-228.41C423.85,-223.46 447.23,-217.38 467.47,-212.11"/>
<polygon fill="midnightblue" stroke="midnightblue" points="468.63,-215.43 477.42,-209.52 466.86,-208.65 468.63,-215.43"/>
</g>
<!-- Node15 -->
<g id="node15" class="node">
<title>Node15</title>
<g id="a_node15"><a xlink:href="../../d1/d22/class_utils_1_1_point.html#ac6478449387ca5e2f34511ad421785d7" target="_top" xlink:title=" ">
<polygon fill="none" stroke="black" points="320.5,-190.5 320.5,-209.5 413.5,-209.5 413.5,-190.5 320.5,-190.5"/>
<text text-anchor="middle" x="367" y="-197.5" font-family="Helvetica,sans-Serif" font-size="10.00">Utils::Point::Point</text>
</a>
</g>
</g>
<!-- Node14&#45;&gt;Node15 -->
<g id="edge15" class="edge">
<title>Node14&#45;&gt;Node15</title>
<path fill="none" stroke="midnightblue" d="M262.03,-200C277.85,-200 294.62,-200 309.95,-200"/>
<polygon fill="midnightblue" stroke="midnightblue" points="310.32,-203.5 320.32,-200 310.32,-196.5 310.32,-203.5"/>
</g>
<!-- Node16 -->
<g id="node16" class="node">
<title>Node16</title>
<g id="a_node16"><a xlink:href="../../d1/d22/class_utils_1_1_point.html#a1563d88d568349cd8e76904c25671594" target="_top" xlink:title=" ">
<polygon fill="none" stroke="black" points="303,-152.5 303,-171.5 431,-171.5 431,-152.5 303,-152.5"/>
<text text-anchor="middle" x="367" y="-159.5" font-family="Helvetica,sans-Serif" font-size="10.00">Utils::Point::withinBounds</text>
</a>
</g>
</g>
<!-- Node14&#45;&gt;Node16 -->
<g id="edge16" class="edge">
<title>Node14&#45;&gt;Node16</title>
<path fill="none" stroke="midnightblue" d="M239.27,-190.41C261.84,-185.35 289.72,-179.1 313.58,-173.75"/>
<polygon fill="midnightblue" stroke="midnightblue" points="314.54,-177.12 323.54,-171.52 313.01,-170.29 314.54,-177.12"/>
</g>
<!-- Node16&#45;&gt;Node10 -->
<g id="edge17" class="edge">
<title>Node16&#45;&gt;Node10</title>
<path fill="none" stroke="midnightblue" d="M431.19,-162C440.92,-162 450.89,-162 460.39,-162"/>
<polygon fill="midnightblue" stroke="midnightblue" points="460.48,-165.5 470.48,-162 460.48,-158.5 460.48,-165.5"/>
</g>
<!-- Node16&#45;&gt;Node11 -->
<g id="edge18" class="edge">
<title>Node16&#45;&gt;Node11</title>
<path fill="none" stroke="midnightblue" d="M404.84,-171.59C423.85,-176.54 447.23,-182.62 467.47,-187.89"/>
<polygon fill="midnightblue" stroke="midnightblue" points="466.86,-191.35 477.42,-190.48 468.63,-184.57 466.86,-191.35"/>
</g>
<!-- Node19 -->
<g id="node19" class="node">
<title>Node19</title>
<g id="a_node19"><a xlink:href="../../da/df6/class_logic.html#ad75934b1d5b2304e6999be5e6c708ee9" target="_top" xlink:title=" ">
<polygon fill="none" stroke="black" points="328.5,-38.5 328.5,-57.5 405.5,-57.5 405.5,-38.5 328.5,-38.5"/>
<text text-anchor="middle" x="367" y="-45.5" font-family="Helvetica,sans-Serif" font-size="10.00">Logic::setGrid</text>
</a>
</g>
</g>
<!-- Node18&#45;&gt;Node19 -->
<g id="edge21" class="edge">
<title>Node18&#45;&gt;Node19</title>
<path fill="none" stroke="midnightblue" d="M232.86,-48C257.79,-48 291.12,-48 318.19,-48"/>
<polygon fill="midnightblue" stroke="midnightblue" points="318.23,-51.5 328.23,-48 318.23,-44.5 318.23,-51.5"/>
</g>
</g>
</svg>
        <g id="navigator" transform="translate(0 0)" fill="#404254">
                <rect fill="#f2f5e9" fill-opacity="0.5" stroke="#606060" stroke-width=".5" x="0" y="0" width="60" height="60"/>
                <use id="zoomplus" xlink:href="#zoomPlus" x="17" y="9" onmousedown="handleZoom(evt,'in')"/>
                <use id="zoomminus" xlink:href="#zoomMin" x="42" y="9" onmousedown="handleZoom(evt,'out')"/>
                <use id="reset" xlink:href="#resetDef" x="30" y="36" onmousedown="handleReset()"/>
                <g id="arrowUp" xlink:href="#dirArrow" transform="translate(30 24)" onmousedown="handlePan(0,-1)">
                  <use xlink:href="#rim" fill="#404040">
                        <set attributeName="fill" to="#808080" begin="arrowUp.mouseover" end="arrowUp.mouseout"/>
                  </use>
                  <path fill="none" stroke="white" stroke-width="1.5" d="M0,-3.0v7 M-2.5,-0.5L0,-3.0L2.5,-0.5"/>
                </g>
                <g id="arrowRight" xlink:href="#dirArrow" transform="rotate(90) translate(36 -43)" onmousedown="handlePan(1,0)">
                  <use xlink:href="#rim" fill="#404040">
                        <set attributeName="fill" to="#808080" begin="arrowRight.mouseover" end="arrowRight.mouseout"/>
                  </use>
                  <path fill="none" stroke="white" stroke-width="1.5" d="M0,-3.0v7 M-2.5,-0.5L0,-3.0L2.5,-0.5"/>
                </g>
                <g id="arrowDown" xlink:href="#dirArrow" transform="rotate(180) translate(-30 -48)" onmousedown="handlePan(0,1)">
                  <use xlink:href="#rim" fill="#404040">
                        <set attributeName="fill" to="#808080" begin="arrowDown.mouseover" end="arrowDown.mouseout"/>
                  </use>
                  <path fill="none" stroke="white" stroke-width="1.5" d="M0,-3.0v7 M-2.5,-0.5L0,-3.0L2.5,-0.5"/>
                </g>
                <g id="arrowLeft" xlink:href="#dirArrow" transform="rotate(270) translate(-36 17)" onmousedown="handlePan(-1,0)">
                  <use xlink:href="#rim" fill="#404040">
                        <set attributeName="fill" to="#808080" begin="arrowLeft.mouseover" end="arrowLeft.mouseout"/>
                  </use>
                  <path fill="none" stroke="white" stroke-width="1.5" d="M0,-3.0v7 M-2.5,-0.5L0,-3.0L2.5,-0.5"/>
                </g>
        </g>
        <svg viewBox="0 0 15 15" width="100%" height="30px" preserveAspectRatio="xMaxYMin meet">
         <g id="arrow_out" transform="scale(0.3 0.3)">
          <a xlink:href="class_iface_a42712663a207dad0227b8fc592c7046b_cgraph_org.svg" target="_base">
           <rect id="button" ry="5" rx="5" y="6" x="6" height="38" width="38"
                fill="#f2f5e9" fill-opacity="0.5" stroke="#606060" stroke-width="1.0"/>
           <path id="arrow"
             d="M 11.500037,31.436501 C 11.940474,20.09759 22.043105,11.32322 32.158766,21.979434 L 37.068811,17.246167 C 37.068811,17.246167 37.088388,32 37.088388,32 L 22.160133,31.978069 C 22.160133,31.978069 26.997745,27.140456 26.997745,27.140456 C 18.528582,18.264221 13.291696,25.230495 11.500037,31.436501 z"
             style="fill:#404040;"/>
          </a>
         </g>
        </svg>
</svg>
