<?xml version="1.0" encoding="UTF-8" standalone="no"?>
<!DOCTYPE svg PUBLIC "-//W3C//DTD SVG 1.1//EN"
 "http://www.w3.org/Graphics/SVG/1.1/DTD/svg11.dtd">
<!-- Generated by graphviz version 2.44.1 (20200629.0846)
 -->
<!-- Title: C:/Users/lukac/CLionProjects/virus_real/src/visualization.cpp Pages: 1 -->
<!--zoomable 599 -->
<svg id="main" version="1.1" xmlns="http://www.w3.org/2000/svg" xmlns:xlink="http://www.w3.org/1999/xlink" xml:space="preserve" onload="init(evt)">
<style type="text/css"><![CDATA[
.edge:hover path { stroke: red; }
.edge:hover polygon { stroke: red; fill: red; }
]]></style>
<script type="text/javascript"><![CDATA[
var edges = document.getElementsByTagName('g');
if (edges && edges.length) {
  for (var i=0;i<edges.length;i++) {
    if (edges[i].id.substr(0,4)=='edge') {
      edges[i].setAttribute('class','edge');
    }
  }
}
]]></script>
        <defs>
                <circle id="rim" cx="0" cy="0" r="7"/>
                <circle id="rim2" cx="0" cy="0" r="3.5"/>
                <g id="zoomPlus">
                        <use xlink:href="#rim" fill="#404040">
                                <set attributeName="fill" to="#808080" begin="zoomplus.mouseover" end="zoomplus.mouseout"/>
                        </use>
                        <path d="M-4,0h8M0,-4v8" fill="none" stroke="white" stroke-width="1.5" pointer-events="none"/>
                </g>
                <g id="zoomMin">
                        <use xlink:href="#rim" fill="#404040">
                                <set attributeName="fill" to="#808080" begin="zoomminus.mouseover" end="zoomminus.mouseout"/>
                        </use>
                        <path d="M-4,0h8" fill="none" stroke="white" stroke-width="1.5" pointer-events="none"/>
                </g>
                <g id="dirArrow">
                        <path fill="none" stroke="white" stroke-width="1.5" d="M0,-3.0v7 M-2.5,-0.5L0,-3.0L2.5,-0.5"/>
                </g>
               <g id="resetDef">
                       <use xlink:href="#rim2" fill="#404040">
                               <set attributeName="fill" to="#808080" begin="reset.mouseover" end="reset.mouseout"/>
                       </use>
               </g>
        </defs>

<script type="text/javascript">
var viewWidth = 1274;
var viewHeight = 599;
var sectionId = 'dynsection-0';
</script>
<script xlink:href="../../svgpan.js"/>
<svg id="graph" class="graph">
<g id="viewport">
<title>C:/Users/lukac/CLionProjects/virus_real/src/visualization.cpp</title>
<!-- Node1 -->
<g id="node1" class="node">
<title>Node1</title>
<g id="a_node1"><a xlink:title=" ">
<polygon fill="#bfbfbf" stroke="black" points="528.5,-560.5 528.5,-590.5 679.5,-590.5 679.5,-560.5 528.5,-560.5"/>
<text text-anchor="start" x="536.5" y="-578.5" font-family="Helvetica,sans-Serif" font-size="10.00">C:/Users/lukac/CLionProjects</text>
<text text-anchor="middle" x="604" y="-567.5" font-family="Helvetica,sans-Serif" font-size="10.00">/virus_real/src/visualization.cpp</text>
</a>
</g>
</g>
<!-- Node2 -->
<g id="node2" class="node">
<title>Node2</title>
<g id="a_node2"><a xlink:href="../../d2/d02/visualization_8h.html" target="_top" xlink:title=" ">
<polygon fill="none" stroke="black" points="565.5,-504.5 565.5,-523.5 642.5,-523.5 642.5,-504.5 565.5,-504.5"/>
<text text-anchor="middle" x="604" y="-511.5" font-family="Helvetica,sans-Serif" font-size="10.00">visualization.h</text>
</a>
</g>
</g>
<!-- Node1&#45;&gt;Node2 -->
<g id="edge1" class="edge">
<title>Node1&#45;&gt;Node2</title>
<path fill="none" stroke="midnightblue" d="M604,-560.4C604,-552.47 604,-542.46 604,-533.86"/>
<polygon fill="midnightblue" stroke="midnightblue" points="607.5,-533.66 604,-523.66 600.5,-533.66 607.5,-533.66"/>
</g>
<!-- Node3 -->
<g id="node3" class="node">
<title>Node3</title>
<g id="a_node3"><a xlink:href="../../db/db2/iface_8h.html" target="_top" xlink:title=" ">
<polygon fill="none" stroke="black" points="502.5,-448.5 502.5,-467.5 547.5,-467.5 547.5,-448.5 502.5,-448.5"/>
<text text-anchor="middle" x="525" y="-455.5" font-family="Helvetica,sans-Serif" font-size="10.00">iface.h</text>
</a>
</g>
</g>
<!-- Node2&#45;&gt;Node3 -->
<g id="edge2" class="edge">
<title>Node2&#45;&gt;Node3</title>
<path fill="none" stroke="midnightblue" d="M591.31,-504.32C579.1,-495.98 560.42,-483.21 546,-473.35"/>
<polygon fill="midnightblue" stroke="midnightblue" points="547.89,-470.41 537.66,-467.65 543.94,-476.19 547.89,-470.41"/>
</g>
<!-- Node25 -->
<g id="node25" class="node">
<title>Node25</title>
<g id="a_node25"><a xlink:href="../../d3/df1/window_8h.html" target="_top" xlink:title=" ">
<polygon fill="none" stroke="black" points="872,-280.5 872,-299.5 928,-299.5 928,-280.5 872,-280.5"/>
<text text-anchor="middle" x="900" y="-287.5" font-family="Helvetica,sans-Serif" font-size="10.00">window.h</text>
</a>
</g>
</g>
<!-- Node2&#45;&gt;Node25 -->
<g id="edge51" class="edge">
<title>Node2&#45;&gt;Node25</title>
<path fill="none" stroke="midnightblue" d="M615.6,-504.3C660.55,-470.59 823.5,-348.37 880.31,-305.77"/>
<polygon fill="midnightblue" stroke="midnightblue" points="882.58,-308.44 888.48,-299.64 878.38,-302.84 882.58,-308.44"/>
</g>
<!-- Node3&#45;&gt;Node3 -->
<g id="edge29" class="edge">
<title>Node3&#45;&gt;Node3</title>
<path fill="none" stroke="midnightblue" d="M542.48,-467.57C554.15,-470.27 565.5,-467.08 565.5,-458 565.5,-451.62 559.89,-448.14 552.5,-447.58"/>
<polygon fill="midnightblue" stroke="midnightblue" points="552.15,-444.1 542.48,-448.43 552.74,-451.07 552.15,-444.1"/>
</g>
<!-- Node4 -->
<g id="node4" class="node">
<title>Node4</title>
<g id="a_node4"><a xlink:href="../../da/d15/grid_8h.html" target="_top" xlink:title=" ">
<polygon fill="none" stroke="black" points="474.5,-224.5 474.5,-243.5 515.5,-243.5 515.5,-224.5 474.5,-224.5"/>
<text text-anchor="middle" x="495" y="-231.5" font-family="Helvetica,sans-Serif" font-size="10.00">grid.h</text>
</a>
</g>
</g>
<!-- Node3&#45;&gt;Node4 -->
<g id="edge3" class="edge">
<title>Node3&#45;&gt;Node4</title>
<path fill="none" stroke="midnightblue" d="M545.85,-448.43C560.58,-441.13 579.2,-429.09 588,-412 592.07,-404.1 589.55,-400.75 588,-392 578.75,-339.81 577.11,-323.62 547,-280 538.84,-268.18 526.86,-257.53 516.46,-249.56"/>
<polygon fill="midnightblue" stroke="midnightblue" points="518.35,-246.61 508.21,-243.53 514.22,-252.26 518.35,-246.61"/>
</g>
<!-- Node20 -->
<g id="node20" class="node">
<title>Node20</title>
<g id="a_node20"><a xlink:href="../../d3/daa/logic_8h.html" target="_top" xlink:title=" ">
<polygon fill="none" stroke="black" points="370.5,-280.5 370.5,-299.5 415.5,-299.5 415.5,-280.5 370.5,-280.5"/>
<text text-anchor="middle" x="393" y="-287.5" font-family="Helvetica,sans-Serif" font-size="10.00">logic.h</text>
</a>
</g>
</g>
<!-- Node3&#45;&gt;Node20 -->
<g id="edge30" class="edge">
<title>Node3&#45;&gt;Node20</title>
<path fill="none" stroke="midnightblue" d="M512.92,-448.45C501.28,-439.92 483.49,-426.07 470,-412 439.26,-379.93 413.96,-333.79 401.46,-308.77"/>
<polygon fill="midnightblue" stroke="midnightblue" points="404.57,-307.17 397.04,-299.72 398.28,-310.24 404.57,-307.17"/>
</g>
<!-- Node21 -->
<g id="node21" class="node">
<title>Node21</title>
<g id="a_node21"><a xlink:href="../../db/d16/config_8h.html" target="_top" xlink:title=" ">
<polygon fill="none" stroke="black" points="0,-224.5 0,-243.5 50,-243.5 50,-224.5 0,-224.5"/>
<text text-anchor="middle" x="25" y="-231.5" font-family="Helvetica,sans-Serif" font-size="10.00">config.h</text>
</a>
</g>
</g>
<!-- Node3&#45;&gt;Node21 -->
<g id="edge50" class="edge">
<title>Node3&#45;&gt;Node21</title>
<path fill="none" stroke="midnightblue" d="M502.67,-448.46C443.99,-425.86 280.89,-361.96 149,-300 113.85,-283.49 74.27,-262.26 49.48,-248.64"/>
<polygon fill="midnightblue" stroke="midnightblue" points="50.89,-245.42 40.44,-243.65 47.5,-251.55 50.89,-245.42"/>
</g>
<!-- Node22 -->
<g id="node22" class="node">
<title>Node22</title>
<g id="a_node22"><a xlink:href="../../d1/df3/ai_8h.html" target="_top" xlink:title=" ">
<polygon fill="none" stroke="black" points="479,-392.5 479,-411.5 511,-411.5 511,-392.5 479,-392.5"/>
<text text-anchor="middle" x="495" y="-399.5" font-family="Helvetica,sans-Serif" font-size="10.00">ai.h</text>
</a>
</g>
</g>
<!-- Node3&#45;&gt;Node22 -->
<g id="edge39" class="edge">
<title>Node3&#45;&gt;Node22</title>
<path fill="none" stroke="midnightblue" d="M520.05,-448.08C515.9,-440.61 509.85,-429.72 504.73,-420.52"/>
<polygon fill="midnightblue" stroke="midnightblue" points="507.78,-418.79 499.86,-411.75 501.66,-422.19 507.78,-418.79"/>
</g>
<!-- Node24 -->
<g id="node24" class="node">
<title>Node24</title>
<g id="a_node24"><a xlink:title=" ">
<polygon fill="none" stroke="#bfbfbf" points="529.5,-392.5 529.5,-411.5 578.5,-411.5 578.5,-392.5 529.5,-392.5"/>
<text text-anchor="middle" x="554" y="-399.5" font-family="Helvetica,sans-Serif" font-size="10.00">ctype.h</text>
</a>
</g>
</g>
<!-- Node3&#45;&gt;Node24 -->
<g id="edge49" class="edge">
<title>Node3&#45;&gt;Node24</title>
<path fill="none" stroke="midnightblue" d="M529.79,-448.08C533.76,-440.69 539.53,-429.95 544.43,-420.81"/>
<polygon fill="midnightblue" stroke="midnightblue" points="547.65,-422.22 549.3,-411.75 541.49,-418.91 547.65,-422.22"/>
</g>
<!-- Node5 -->
<g id="node5" class="node">
<title>Node5</title>
<g id="a_node5"><a xlink:title=" ">
<polygon fill="none" stroke="#bfbfbf" points="533,-56.5 533,-75.5 575,-75.5 575,-56.5 533,-56.5"/>
<text text-anchor="middle" x="554" y="-63.5" font-family="Helvetica,sans-Serif" font-size="10.00">vector</text>
</a>
</g>
</g>
<!-- Node4&#45;&gt;Node5 -->
<g id="edge4" class="edge">
<title>Node4&#45;&gt;Node5</title>
<path fill="none" stroke="midnightblue" d="M505.13,-224.47C520.08,-211.94 548.96,-187.88 574,-168 594.61,-151.64 609.35,-155.59 621,-132 631.78,-110.16 606.81,-91.56 584.35,-79.92"/>
<polygon fill="midnightblue" stroke="midnightblue" points="585.83,-76.75 575.31,-75.52 582.77,-83.05 585.83,-76.75"/>
</g>
<!-- Node6 -->
<g id="node6" class="node">
<title>Node6</title>
<g id="a_node6"><a xlink:title=" ">
<polygon fill="none" stroke="#bfbfbf" points="124.5,-56.5 124.5,-75.5 183.5,-75.5 183.5,-56.5 124.5,-56.5"/>
<text text-anchor="middle" x="154" y="-63.5" font-family="Helvetica,sans-Serif" font-size="10.00">stdexcept</text>
</a>
</g>
</g>
<!-- Node4&#45;&gt;Node6 -->
<g id="edge5" class="edge">
<title>Node4&#45;&gt;Node6</title>
<path fill="none" stroke="midnightblue" d="M474.43,-229.93C441.78,-224.54 376.63,-211.63 326,-188 264.27,-159.19 201.16,-108.1 171.47,-82.51"/>
<polygon fill="midnightblue" stroke="midnightblue" points="173.52,-79.66 163.68,-75.72 168.92,-84.94 173.52,-79.66"/>
</g>
<!-- Node7 -->
<g id="node7" class="node">
<title>Node7</title>
<g id="a_node7"><a xlink:href="../../d5/d5a/field_8h.html" target="_top" xlink:title=" ">
<polygon fill="none" stroke="black" points="280,-56.5 280,-75.5 322,-75.5 322,-56.5 280,-56.5"/>
<text text-anchor="middle" x="301" y="-63.5" font-family="Helvetica,sans-Serif" font-size="10.00">field.h</text>
</a>
</g>
</g>
<!-- Node4&#45;&gt;Node7 -->
<g id="edge6" class="edge">
<title>Node4&#45;&gt;Node7</title>
<path fill="none" stroke="midnightblue" d="M474.49,-226.6C438.55,-214.29 364.26,-183.87 325,-132 314.57,-118.22 308.29,-99.45 304.79,-85.62"/>
<polygon fill="midnightblue" stroke="midnightblue" points="308.18,-84.75 302.54,-75.78 301.35,-86.31 308.18,-84.75"/>
</g>
<!-- Node12 -->
<g id="node12" class="node">
<title>Node12</title>
<g id="a_node12"><a xlink:href="../../d5/d60/utils_8h.html" target="_top" xlink:title=" ">
<polygon fill="none" stroke="black" points="668.5,-112.5 668.5,-131.5 711.5,-131.5 711.5,-112.5 668.5,-112.5"/>
<text text-anchor="middle" x="690" y="-119.5" font-family="Helvetica,sans-Serif" font-size="10.00">utils.h</text>
</a>
</g>
</g>
<!-- Node4&#45;&gt;Node12 -->
<g id="edge11" class="edge">
<title>Node4&#45;&gt;Node12</title>
<path fill="none" stroke="midnightblue" d="M510.3,-224.37C544.12,-205.29 625.43,-159.42 666.06,-136.51"/>
<polygon fill="midnightblue" stroke="midnightblue" points="667.78,-139.55 674.77,-131.59 664.34,-133.46 667.78,-139.55"/>
</g>
<!-- Node14 -->
<g id="node14" class="node">
<title>Node14</title>
<g id="a_node14"><a xlink:href="../../dc/d5f/country_8h.html" target="_top" xlink:title=" ">
<polygon fill="none" stroke="black" points="436.5,-168.5 436.5,-187.5 493.5,-187.5 493.5,-168.5 436.5,-168.5"/>
<text text-anchor="middle" x="465" y="-175.5" font-family="Helvetica,sans-Serif" font-size="10.00">country.h</text>
</a>
</g>
</g>
<!-- Node4&#45;&gt;Node14 -->
<g id="edge15" class="edge">
<title>Node4&#45;&gt;Node14</title>
<path fill="none" stroke="midnightblue" d="M490.05,-224.08C485.9,-216.61 479.85,-205.72 474.73,-196.52"/>
<polygon fill="midnightblue" stroke="midnightblue" points="477.78,-194.79 469.86,-187.75 471.66,-198.19 477.78,-194.79"/>
</g>
<!-- Node18 -->
<g id="node18" class="node">
<title>Node18</title>
<g id="a_node18"><a xlink:href="../../dd/dae/district_8h.html" target="_top" xlink:title=" ">
<polygon fill="none" stroke="black" points="334,-112.5 334,-131.5 388,-131.5 388,-112.5 334,-112.5"/>
<text text-anchor="middle" x="361" y="-119.5" font-family="Helvetica,sans-Serif" font-size="10.00">district.h</text>
</a>
</g>
</g>
<!-- Node4&#45;&gt;Node18 -->
<g id="edge27" class="edge">
<title>Node4&#45;&gt;Node18</title>
<path fill="none" stroke="midnightblue" d="M480.62,-224.39C466.69,-215.81 445.2,-201.94 428,-188 409.05,-172.65 389.23,-152.89 376.11,-139.21"/>
<polygon fill="midnightblue" stroke="midnightblue" points="378.63,-136.78 369.22,-131.93 373.55,-141.6 378.63,-136.78"/>
</g>
<!-- Node19 -->
<g id="node19" class="node">
<title>Node19</title>
<g id="a_node19"><a xlink:title=" ">
<polygon fill="none" stroke="#bfbfbf" points="202,-56.5 202,-75.5 258,-75.5 258,-56.5 202,-56.5"/>
<text text-anchor="middle" x="230" y="-63.5" font-family="Helvetica,sans-Serif" font-size="10.00">algorithm</text>
</a>
</g>
</g>
<!-- Node4&#45;&gt;Node19 -->
<g id="edge28" class="edge">
<title>Node4&#45;&gt;Node19</title>
<path fill="none" stroke="midnightblue" d="M474.48,-229.12C446.8,-223.25 396.62,-210.37 359,-188 310.39,-159.09 264.95,-109.15 243.29,-83.4"/>
<polygon fill="midnightblue" stroke="midnightblue" points="245.95,-81.13 236.88,-75.66 240.56,-85.6 245.95,-81.13"/>
</g>
<!-- Node8 -->
<g id="node8" class="node">
<title>Node8</title>
<g id="a_node8"><a xlink:title=" ">
<polygon fill="none" stroke="#bfbfbf" points="345.5,-0.5 345.5,-19.5 380.5,-19.5 380.5,-0.5 345.5,-0.5"/>
<text text-anchor="middle" x="363" y="-7.5" font-family="Helvetica,sans-Serif" font-size="10.00">map</text>
</a>
</g>
</g>
<!-- Node7&#45;&gt;Node8 -->
<g id="edge7" class="edge">
<title>Node7&#45;&gt;Node8</title>
<path fill="none" stroke="midnightblue" d="M310.96,-56.32C320.13,-48.34 333.94,-36.31 345.03,-26.65"/>
<polygon fill="midnightblue" stroke="midnightblue" points="347.62,-29.04 352.86,-19.83 343.02,-23.76 347.62,-29.04"/>
</g>
<!-- Node9 -->
<g id="node9" class="node">
<title>Node9</title>
<g id="a_node9"><a xlink:title=" ">
<polygon fill="none" stroke="#bfbfbf" points="213.5,-0.5 213.5,-19.5 256.5,-19.5 256.5,-0.5 213.5,-0.5"/>
<text text-anchor="middle" x="235" y="-7.5" font-family="Helvetica,sans-Serif" font-size="10.00">queue</text>
</a>
</g>
</g>
<!-- Node7&#45;&gt;Node9 -->
<g id="edge8" class="edge">
<title>Node7&#45;&gt;Node9</title>
<path fill="none" stroke="midnightblue" d="M290.4,-56.32C280.54,-48.26 265.65,-36.08 253.78,-26.37"/>
<polygon fill="midnightblue" stroke="midnightblue" points="255.75,-23.46 245.8,-19.83 251.32,-28.88 255.75,-23.46"/>
</g>
<!-- Node10 -->
<g id="node10" class="node">
<title>Node10</title>
<g id="a_node10"><a xlink:title=" ">
<polygon fill="none" stroke="#bfbfbf" points="275,-0.5 275,-19.5 327,-19.5 327,-0.5 275,-0.5"/>
<text text-anchor="middle" x="301" y="-7.5" font-family="Helvetica,sans-Serif" font-size="10.00">sstream</text>
</a>
</g>
</g>
<!-- Node7&#45;&gt;Node10 -->
<g id="edge9" class="edge">
<title>Node7&#45;&gt;Node10</title>
<path fill="none" stroke="midnightblue" d="M301,-56.08C301,-49.01 301,-38.86 301,-29.99"/>
<polygon fill="midnightblue" stroke="midnightblue" points="304.5,-29.75 301,-19.75 297.5,-29.75 304.5,-29.75"/>
</g>
<!-- Node11 -->
<g id="node11" class="node">
<title>Node11</title>
<g id="a_node11"><a xlink:title=" ">
<polygon fill="none" stroke="#bfbfbf" points="104,-0.5 104,-19.5 148,-19.5 148,-0.5 104,-0.5"/>
<text text-anchor="middle" x="126" y="-7.5" font-family="Helvetica,sans-Serif" font-size="10.00">cmath</text>
</a>
</g>
</g>
<!-- Node7&#45;&gt;Node11 -->
<g id="edge10" class="edge">
<title>Node7&#45;&gt;Node11</title>
<path fill="none" stroke="midnightblue" d="M279.89,-58.49C249.53,-49.12 193.28,-31.76 157.85,-20.83"/>
<polygon fill="midnightblue" stroke="midnightblue" points="158.6,-17.4 148.01,-17.79 156.53,-24.08 158.6,-17.4"/>
</g>
<!-- Node12&#45;&gt;Node5 -->
<g id="edge14" class="edge">
<title>Node12&#45;&gt;Node5</title>
<path fill="none" stroke="midnightblue" d="M668.45,-112.44C645.84,-103.46 610.09,-89.27 584.57,-79.14"/>
<polygon fill="midnightblue" stroke="midnightblue" points="585.59,-75.78 575,-75.34 583,-82.28 585.59,-75.78"/>
</g>
<!-- Node12&#45;&gt;Node6 -->
<g id="edge12" class="edge">
<title>Node12&#45;&gt;Node6</title>
<path fill="none" stroke="midnightblue" d="M668.28,-117.91C654.71,-116.04 636.86,-113.7 621,-112 434.44,-92 383.33,-105.07 193.74,-75.88"/>
<polygon fill="midnightblue" stroke="midnightblue" points="194.14,-72.4 183.73,-74.32 193.07,-79.32 194.14,-72.4"/>
</g>
<!-- Node13 -->
<g id="node13" class="node">
<title>Node13</title>
<g id="a_node13"><a xlink:title=" ">
<polygon fill="none" stroke="#bfbfbf" points="667.5,-56.5 667.5,-75.5 712.5,-75.5 712.5,-56.5 667.5,-56.5"/>
<text text-anchor="middle" x="690" y="-63.5" font-family="Helvetica,sans-Serif" font-size="10.00">climits</text>
</a>
</g>
</g>
<!-- Node12&#45;&gt;Node13 -->
<g id="edge13" class="edge">
<title>Node12&#45;&gt;Node13</title>
<path fill="none" stroke="midnightblue" d="M690,-112.08C690,-105.01 690,-94.86 690,-85.99"/>
<polygon fill="midnightblue" stroke="midnightblue" points="693.5,-85.75 690,-75.75 686.5,-85.75 693.5,-85.75"/>
</g>
<!-- Node14&#45;&gt;Node5 -->
<g id="edge16" class="edge">
<title>Node14&#45;&gt;Node5</title>
<path fill="none" stroke="midnightblue" d="M471.98,-168.37C486.74,-150.14 521.29,-107.43 540.51,-83.68"/>
<polygon fill="midnightblue" stroke="midnightblue" points="543.48,-85.57 547.05,-75.59 538.04,-81.16 543.48,-85.57"/>
</g>
<!-- Node14&#45;&gt;Node12 -->
<g id="edge20" class="edge">
<title>Node14&#45;&gt;Node12</title>
<path fill="none" stroke="midnightblue" d="M493.95,-170.05C536.26,-159.9 614.67,-141.08 658.42,-130.58"/>
<polygon fill="midnightblue" stroke="midnightblue" points="659.32,-133.96 668.23,-128.22 657.69,-127.15 659.32,-133.96"/>
</g>
<!-- Node15 -->
<g id="node15" class="node">
<title>Node15</title>
<g id="a_node15"><a xlink:title=" ">
<polygon fill="none" stroke="#bfbfbf" points="558,-112.5 558,-131.5 612,-131.5 612,-112.5 558,-112.5"/>
<text text-anchor="middle" x="585" y="-119.5" font-family="Helvetica,sans-Serif" font-size="10.00">iostream</text>
</a>
</g>
</g>
<!-- Node14&#45;&gt;Node15 -->
<g id="edge17" class="edge">
<title>Node14&#45;&gt;Node15</title>
<path fill="none" stroke="midnightblue" d="M484.01,-168.44C503.59,-159.64 534.31,-145.81 556.73,-135.72"/>
<polygon fill="midnightblue" stroke="midnightblue" points="558.39,-138.81 566.07,-131.52 555.52,-132.43 558.39,-138.81"/>
</g>
<!-- Node16 -->
<g id="node16" class="node">
<title>Node16</title>
<g id="a_node16"><a xlink:title=" ">
<polygon fill="none" stroke="#bfbfbf" points="356,-56.5 356,-75.5 386,-75.5 386,-56.5 356,-56.5"/>
<text text-anchor="middle" x="371" y="-63.5" font-family="Helvetica,sans-Serif" font-size="10.00">set</text>
</a>
</g>
</g>
<!-- Node14&#45;&gt;Node16 -->
<g id="edge18" class="edge">
<title>Node14&#45;&gt;Node16</title>
<path fill="none" stroke="midnightblue" d="M457.62,-168.37C441.97,-150.05 405.22,-107.05 384.98,-83.36"/>
<polygon fill="midnightblue" stroke="midnightblue" points="387.5,-80.92 378.34,-75.59 382.18,-85.47 387.5,-80.92"/>
</g>
<!-- Node17 -->
<g id="node17" class="node">
<title>Node17</title>
<g id="a_node17"><a xlink:title=" ">
<polygon fill="none" stroke="#bfbfbf" points="438,-56.5 438,-75.5 496,-75.5 496,-56.5 438,-56.5"/>
<text text-anchor="middle" x="467" y="-63.5" font-family="Helvetica,sans-Serif" font-size="10.00">functional</text>
</a>
</g>
</g>
<!-- Node14&#45;&gt;Node17 -->
<g id="edge19" class="edge">
<title>Node14&#45;&gt;Node17</title>
<path fill="none" stroke="midnightblue" d="M465.75,-168.38C466.49,-159.33 467.58,-144.68 468,-132 468.52,-116.47 468.19,-98.85 467.77,-85.87"/>
<polygon fill="midnightblue" stroke="midnightblue" points="471.27,-85.7 467.41,-75.83 464.28,-85.95 471.27,-85.7"/>
</g>
<!-- Node14&#45;&gt;Node18 -->
<g id="edge21" class="edge">
<title>Node14&#45;&gt;Node18</title>
<path fill="none" stroke="midnightblue" d="M448.29,-168.32C431.69,-159.7 406,-146.36 386.78,-136.39"/>
<polygon fill="midnightblue" stroke="midnightblue" points="388.16,-133.16 377.67,-131.65 384.93,-139.37 388.16,-133.16"/>
</g>
<!-- Node18&#45;&gt;Node5 -->
<g id="edge22" class="edge">
<title>Node18&#45;&gt;Node5</title>
<path fill="none" stroke="midnightblue" d="M388.24,-113.38C423.76,-103.44 485.75,-86.1 523.02,-75.67"/>
<polygon fill="midnightblue" stroke="midnightblue" points="524.15,-78.99 532.84,-72.92 522.26,-72.25 524.15,-78.99"/>
</g>
<!-- Node18&#45;&gt;Node7 -->
<g id="edge23" class="edge">
<title>Node18&#45;&gt;Node7</title>
<path fill="none" stroke="midnightblue" d="M351.36,-112.32C342.49,-104.34 329.13,-92.31 318.39,-82.65"/>
<polygon fill="midnightblue" stroke="midnightblue" points="320.59,-79.92 310.82,-75.83 315.91,-85.13 320.59,-79.92"/>
</g>
<!-- Node18&#45;&gt;Node16 -->
<g id="edge25" class="edge">
<title>Node18&#45;&gt;Node16</title>
<path fill="none" stroke="midnightblue" d="M362.65,-112.08C363.98,-104.93 365.88,-94.64 367.54,-85.69"/>
<polygon fill="midnightblue" stroke="midnightblue" points="371,-86.22 369.38,-75.75 364.12,-84.95 371,-86.22"/>
</g>
<!-- Node18&#45;&gt;Node17 -->
<g id="edge26" class="edge">
<title>Node18&#45;&gt;Node17</title>
<path fill="none" stroke="midnightblue" d="M378.03,-112.32C395.03,-103.66 421.38,-90.24 440.99,-80.25"/>
<polygon fill="midnightblue" stroke="midnightblue" points="442.69,-83.31 450.01,-75.65 439.51,-77.08 442.69,-83.31"/>
</g>
<!-- Node18&#45;&gt;Node19 -->
<g id="edge24" class="edge">
<title>Node18&#45;&gt;Node19</title>
<path fill="none" stroke="midnightblue" d="M340.24,-112.44C318.68,-103.56 284.74,-89.56 260.21,-79.45"/>
<polygon fill="midnightblue" stroke="midnightblue" points="261.24,-76.09 250.66,-75.52 258.57,-82.56 261.24,-76.09"/>
</g>
<!-- Node20&#45;&gt;Node4 -->
<g id="edge35" class="edge">
<title>Node20&#45;&gt;Node4</title>
<path fill="none" stroke="midnightblue" d="M409.39,-280.32C425.67,-271.7 450.87,-258.36 469.72,-248.39"/>
<polygon fill="midnightblue" stroke="midnightblue" points="471.45,-251.43 478.65,-243.65 468.18,-245.24 471.45,-251.43"/>
</g>
<!-- Node20&#45;&gt;Node5 -->
<g id="edge32" class="edge">
<title>Node20&#45;&gt;Node5</title>
<path fill="none" stroke="midnightblue" d="M393.73,-280.35C395.84,-259.41 403.48,-205 428,-168 454.02,-128.74 500.16,-97.51 528.8,-80.68"/>
<polygon fill="midnightblue" stroke="midnightblue" points="530.85,-83.54 537.79,-75.53 527.37,-77.46 530.85,-83.54"/>
</g>
<!-- Node20&#45;&gt;Node6 -->
<g id="edge33" class="edge">
<title>Node20&#45;&gt;Node6</title>
<path fill="none" stroke="midnightblue" d="M370.31,-287.35C337.34,-283.97 275.5,-273.85 233,-244 179.1,-206.14 161.44,-122.69 156.11,-85.51"/>
<polygon fill="midnightblue" stroke="midnightblue" points="159.58,-85.02 154.83,-75.55 152.64,-85.92 159.58,-85.02"/>
</g>
<!-- Node20&#45;&gt;Node11 -->
<g id="edge34" class="edge">
<title>Node20&#45;&gt;Node11</title>
<path fill="none" stroke="midnightblue" d="M370.35,-286.09C298.12,-276.2 78,-240.98 78,-179 78,-179 78,-179 78,-121 78,-85.58 99.16,-48.71 113.38,-27.92"/>
<polygon fill="midnightblue" stroke="midnightblue" points="116.38,-29.74 119.33,-19.56 110.68,-25.68 116.38,-29.74"/>
</g>
<!-- Node20&#45;&gt;Node12 -->
<g id="edge38" class="edge">
<title>Node20&#45;&gt;Node12</title>
<path fill="none" stroke="midnightblue" d="M415.71,-283.32C442.64,-276.13 488.46,-262.41 525,-244 564.08,-224.31 570.68,-213.85 606,-188 628.81,-171.31 654.42,-151.3 671.3,-137.93"/>
<polygon fill="midnightblue" stroke="midnightblue" points="673.62,-140.56 679.27,-131.6 669.26,-135.08 673.62,-140.56"/>
</g>
<!-- Node20&#45;&gt;Node15 -->
<g id="edge37" class="edge">
<title>Node20&#45;&gt;Node15</title>
<path fill="none" stroke="midnightblue" d="M402.85,-280.09C416.82,-267.5 443.2,-243.82 466,-224 501.52,-193.12 543.61,-157.66 567.01,-138.04"/>
<polygon fill="midnightblue" stroke="midnightblue" points="569.32,-140.67 574.74,-131.57 564.83,-135.3 569.32,-140.67"/>
</g>
<!-- Node20&#45;&gt;Node19 -->
<g id="edge31" class="edge">
<title>Node20&#45;&gt;Node19</title>
<path fill="none" stroke="midnightblue" d="M370.35,-284.71C328.68,-275.45 240.73,-249.27 204,-188 184.2,-154.97 204.86,-108.89 219.04,-84.21"/>
<polygon fill="midnightblue" stroke="midnightblue" points="222.07,-85.97 224.23,-75.6 216.07,-82.36 222.07,-85.97"/>
</g>
<!-- Node20&#45;&gt;Node21 -->
<g id="edge36" class="edge">
<title>Node20&#45;&gt;Node21</title>
<path fill="none" stroke="midnightblue" d="M370.15,-286.6C316.48,-280.8 178.26,-264.95 64,-244 62.73,-243.77 61.44,-243.52 60.14,-243.26"/>
<polygon fill="midnightblue" stroke="midnightblue" points="60.61,-239.79 50.11,-241.15 59.17,-246.64 60.61,-239.79"/>
</g>
<!-- Node22&#45;&gt;Node4 -->
<g id="edge40" class="edge">
<title>Node22&#45;&gt;Node4</title>
<path fill="none" stroke="midnightblue" d="M508.06,-392.44C518.91,-384.47 533.57,-371.52 540,-356 555.29,-319.09 527.48,-274.93 509.17,-251.5"/>
<polygon fill="midnightblue" stroke="midnightblue" points="511.76,-249.13 502.73,-243.59 506.33,-253.56 511.76,-249.13"/>
</g>
<!-- Node22&#45;&gt;Node12 -->
<g id="edge42" class="edge">
<title>Node22&#45;&gt;Node12</title>
<path fill="none" stroke="midnightblue" d="M509.89,-392.44C523.14,-384.3 542.46,-371.08 556,-356 618.52,-286.37 665.32,-182.85 682.66,-141.26"/>
<polygon fill="midnightblue" stroke="midnightblue" points="685.96,-142.45 686.51,-131.87 679.48,-139.8 685.96,-142.45"/>
</g>
<!-- Node22&#45;&gt;Node20 -->
<g id="edge41" class="edge">
<title>Node22&#45;&gt;Node20</title>
<path fill="none" stroke="midnightblue" d="M485.86,-392.2C476.64,-383.25 462.08,-368.9 450,-356 434.85,-339.82 418.21,-320.68 406.85,-307.38"/>
<polygon fill="midnightblue" stroke="midnightblue" points="409.35,-304.92 400.21,-299.57 404.02,-309.46 409.35,-304.92"/>
</g>
<!-- Node22&#45;&gt;Node21 -->
<g id="edge48" class="edge">
<title>Node22&#45;&gt;Node21</title>
<path fill="none" stroke="midnightblue" d="M478.82,-395.29C411.39,-371.47 151.84,-279.8 58.6,-246.87"/>
<polygon fill="midnightblue" stroke="midnightblue" points="59.68,-243.54 49.09,-243.51 57.35,-250.14 59.68,-243.54"/>
</g>
<!-- Node23 -->
<g id="node23" class="node">
<title>Node23</title>
<g id="a_node23"><a xlink:href="../../d2/d3d/graphalgos_8h.html" target="_top" xlink:title=" ">
<polygon fill="none" stroke="black" points="459,-336.5 459,-355.5 531,-355.5 531,-336.5 459,-336.5"/>
<text text-anchor="middle" x="495" y="-343.5" font-family="Helvetica,sans-Serif" font-size="10.00">graphalgos.h</text>
</a>
</g>
</g>
<!-- Node22&#45;&gt;Node23 -->
<g id="edge43" class="edge">
<title>Node22&#45;&gt;Node23</title>
<path fill="none" stroke="midnightblue" d="M495,-392.08C495,-385.01 495,-374.86 495,-365.99"/>
<polygon fill="midnightblue" stroke="midnightblue" points="498.5,-365.75 495,-355.75 491.5,-365.75 498.5,-365.75"/>
</g>
<!-- Node23&#45;&gt;Node4 -->
<g id="edge46" class="edge">
<title>Node23&#45;&gt;Node4</title>
<path fill="none" stroke="midnightblue" d="M495,-336.37C495,-318.62 495,-277.67 495,-253.6"/>
<polygon fill="midnightblue" stroke="midnightblue" points="498.5,-253.59 495,-243.59 491.5,-253.59 498.5,-253.59"/>
</g>
<!-- Node23&#45;&gt;Node7 -->
<g id="edge45" class="edge">
<title>Node23&#45;&gt;Node7</title>
<path fill="none" stroke="midnightblue" d="M486.31,-336.47C452.56,-303.17 331.03,-181.31 309,-132 302.54,-117.55 300.74,-99.59 300.44,-86.22"/>
<polygon fill="midnightblue" stroke="midnightblue" points="303.95,-85.86 300.49,-75.84 296.95,-85.83 303.95,-85.86"/>
</g>
<!-- Node23&#45;&gt;Node12 -->
<g id="edge44" class="edge">
<title>Node23&#45;&gt;Node12</title>
<path fill="none" stroke="midnightblue" d="M502.64,-336.3C531.88,-303.01 636.93,-183.42 675.59,-139.41"/>
<polygon fill="midnightblue" stroke="midnightblue" points="678.23,-141.71 682.2,-131.88 672.97,-137.09 678.23,-141.71"/>
</g>
<!-- Node23&#45;&gt;Node20 -->
<g id="edge47" class="edge">
<title>Node23&#45;&gt;Node20</title>
<path fill="none" stroke="midnightblue" d="M478.61,-336.32C462.33,-327.7 437.13,-314.36 418.28,-304.39"/>
<polygon fill="midnightblue" stroke="midnightblue" points="419.82,-301.24 409.35,-299.65 416.55,-307.43 419.82,-301.24"/>
</g>
<!-- Node25&#45;&gt;Node4 -->
<g id="edge59" class="edge">
<title>Node25&#45;&gt;Node4</title>
<path fill="none" stroke="midnightblue" d="M871.84,-285.25C798.52,-275.47 602.07,-249.28 525.84,-239.11"/>
<polygon fill="midnightblue" stroke="midnightblue" points="526.28,-235.64 515.9,-237.79 525.35,-242.58 526.28,-235.64"/>
</g>
<!-- Node25&#45;&gt;Node5 -->
<g id="edge58" class="edge">
<title>Node25&#45;&gt;Node5</title>
<path fill="none" stroke="midnightblue" d="M928.11,-288.64C1020.1,-286.95 1303.84,-277.4 1261,-224 1217.28,-169.51 716.59,-91.3 585.34,-71.63"/>
<polygon fill="midnightblue" stroke="midnightblue" points="585.57,-68.12 575.17,-70.11 584.54,-75.04 585.57,-68.12"/>
</g>
<!-- Node25&#45;&gt;Node12 -->
<g id="edge60" class="edge">
<title>Node25&#45;&gt;Node12</title>
<path fill="none" stroke="midnightblue" d="M872.5,-280.42C852.75,-273.18 826.47,-261.22 808,-244 779.45,-217.38 791.3,-195.89 764,-168 751.15,-154.87 733.7,-144.01 718.97,-136.26"/>
<polygon fill="midnightblue" stroke="midnightblue" points="720.27,-133 709.76,-131.62 717.12,-139.25 720.27,-133"/>
</g>
<!-- Node25&#45;&gt;Node15 -->
<g id="edge52" class="edge">
<title>Node25&#45;&gt;Node15</title>
<path fill="none" stroke="midnightblue" d="M875.49,-280.41C852.48,-272.04 817.3,-258.51 788,-244 719.48,-210.07 643.15,-161.42 606.69,-137.46"/>
<polygon fill="midnightblue" stroke="midnightblue" points="608.18,-134.25 597.9,-131.66 604.32,-140.09 608.18,-134.25"/>
</g>
<!-- Node26 -->
<g id="node26" class="node">
<title>Node26</title>
<g id="a_node26"><a xlink:title=" ">
<polygon fill="none" stroke="#bfbfbf" points="816.5,-224.5 816.5,-243.5 887.5,-243.5 887.5,-224.5 816.5,-224.5"/>
<text text-anchor="middle" x="852" y="-231.5" font-family="Helvetica,sans-Serif" font-size="10.00">SDL2/SDL.h</text>
</a>
</g>
</g>
<!-- Node25&#45;&gt;Node26 -->
<g id="edge53" class="edge">
<title>Node25&#45;&gt;Node26</title>
<path fill="none" stroke="midnightblue" d="M892.07,-280.08C885.15,-272.3 874.93,-260.8 866.55,-251.37"/>
<polygon fill="midnightblue" stroke="midnightblue" points="869.04,-248.9 859.78,-243.75 863.81,-253.55 869.04,-248.9"/>
</g>
<!-- Node27 -->
<g id="node27" class="node">
<title>Node27</title>
<g id="a_node27"><a xlink:title=" ">
<polygon fill="none" stroke="#bfbfbf" points="906,-224.5 906,-243.5 990,-243.5 990,-224.5 906,-224.5"/>
<text text-anchor="middle" x="948" y="-231.5" font-family="Helvetica,sans-Serif" font-size="10.00">SDL2/SDL_ttf.h</text>
</a>
</g>
</g>
<!-- Node25&#45;&gt;Node27 -->
<g id="edge54" class="edge">
<title>Node25&#45;&gt;Node27</title>
<path fill="none" stroke="midnightblue" d="M907.93,-280.08C914.85,-272.3 925.07,-260.8 933.45,-251.37"/>
<polygon fill="midnightblue" stroke="midnightblue" points="936.19,-253.55 940.22,-243.75 930.96,-248.9 936.19,-253.55"/>
</g>
<!-- Node28 -->
<g id="node28" class="node">
<title>Node28</title>
<g id="a_node28"><a xlink:title=" ">
<polygon fill="none" stroke="#bfbfbf" points="1008.5,-224.5 1008.5,-243.5 1065.5,-243.5 1065.5,-224.5 1008.5,-224.5"/>
<text text-anchor="middle" x="1037" y="-231.5" font-family="Helvetica,sans-Serif" font-size="10.00">SDL_ttf.h</text>
</a>
</g>
</g>
<!-- Node25&#45;&gt;Node28 -->
<g id="edge55" class="edge">
<title>Node25&#45;&gt;Node28</title>
<path fill="none" stroke="midnightblue" d="M921.71,-280.44C944.35,-271.52 980.07,-257.44 1005.75,-247.32"/>
<polygon fill="midnightblue" stroke="midnightblue" points="1007.37,-250.44 1015.39,-243.52 1004.81,-243.93 1007.37,-250.44"/>
</g>
<!-- Node29 -->
<g id="node29" class="node">
<title>Node29</title>
<g id="a_node29"><a xlink:title=" ">
<polygon fill="none" stroke="#bfbfbf" points="1084,-224.5 1084,-243.5 1128,-243.5 1128,-224.5 1084,-224.5"/>
<text text-anchor="middle" x="1106" y="-231.5" font-family="Helvetica,sans-Serif" font-size="10.00">SDL.h</text>
</a>
</g>
</g>
<!-- Node25&#45;&gt;Node29 -->
<g id="edge56" class="edge">
<title>Node25&#45;&gt;Node29</title>
<path fill="none" stroke="midnightblue" d="M928.26,-282.02C961.02,-273.86 1016.87,-259.77 1073.79,-244.27"/>
<polygon fill="midnightblue" stroke="midnightblue" points="1074.95,-247.58 1083.67,-241.57 1073.1,-240.83 1074.95,-247.58"/>
</g>
<!-- Node30 -->
<g id="node30" class="node">
<title>Node30</title>
<g id="a_node30"><a xlink:title=" ">
<polygon fill="none" stroke="#bfbfbf" points="1146.5,-224.5 1146.5,-243.5 1251.5,-243.5 1251.5,-224.5 1146.5,-224.5"/>
<text text-anchor="middle" x="1199" y="-231.5" font-family="Helvetica,sans-Serif" font-size="10.00">SDL2/SDL_mouse.h</text>
</a>
</g>
</g>
<!-- Node25&#45;&gt;Node30 -->
<g id="edge57" class="edge">
<title>Node25&#45;&gt;Node30</title>
<path fill="none" stroke="midnightblue" d="M928.13,-283.92C976.84,-275.12 1077.81,-256.89 1141.77,-245.34"/>
<polygon fill="midnightblue" stroke="midnightblue" points="1142.49,-248.76 1151.7,-243.54 1141.24,-241.87 1142.49,-248.76"/>
</g>
</g>
</svg>
        <g id="navigator" transform="translate(0 0)" fill="#404254">
                <rect fill="#f2f5e9" fill-opacity="0.5" stroke="#606060" stroke-width=".5" x="0" y="0" width="60" height="60"/>
                <use id="zoomplus" xlink:href="#zoomPlus" x="17" y="9" onmousedown="handleZoom(evt,'in')"/>
                <use id="zoomminus" xlink:href="#zoomMin" x="42" y="9" onmousedown="handleZoom(evt,'out')"/>
                <use id="reset" xlink:href="#resetDef" x="30" y="36" onmousedown="handleReset()"/>
                <g id="arrowUp" xlink:href="#dirArrow" transform="translate(30 24)" onmousedown="handlePan(0,-1)">
                  <use xlink:href="#rim" fill="#404040">
                        <set attributeName="fill" to="#808080" begin="arrowUp.mouseover" end="arrowUp.mouseout"/>
                  </use>
                  <path fill="none" stroke="white" stroke-width="1.5" d="M0,-3.0v7 M-2.5,-0.5L0,-3.0L2.5,-0.5"/>
                </g>
                <g id="arrowRight" xlink:href="#dirArrow" transform="rotate(90) translate(36 -43)" onmousedown="handlePan(1,0)">
                  <use xlink:href="#rim" fill="#404040">
                        <set attributeName="fill" to="#808080" begin="arrowRight.mouseover" end="arrowRight.mouseout"/>
                  </use>
                  <path fill="none" stroke="white" stroke-width="1.5" d="M0,-3.0v7 M-2.5,-0.5L0,-3.0L2.5,-0.5"/>
                </g>
                <g id="arrowDown" xlink:href="#dirArrow" transform="rotate(180) translate(-30 -48)" onmousedown="handlePan(0,1)">
                  <use xlink:href="#rim" fill="#404040">
                        <set attributeName="fill" to="#808080" begin="arrowDown.mouseover" end="arrowDown.mouseout"/>
                  </use>
                  <path fill="none" stroke="white" stroke-width="1.5" d="M0,-3.0v7 M-2.5,-0.5L0,-3.0L2.5,-0.5"/>
                </g>
                <g id="arrowLeft" xlink:href="#dirArrow" transform="rotate(270) translate(-36 17)" onmousedown="handlePan(-1,0)">
                  <use xlink:href="#rim" fill="#404040">
                        <set attributeName="fill" to="#808080" begin="arrowLeft.mouseover" end="arrowLeft.mouseout"/>
                  </use>
                  <path fill="none" stroke="white" stroke-width="1.5" d="M0,-3.0v7 M-2.5,-0.5L0,-3.0L2.5,-0.5"/>
                </g>
        </g>
        <svg viewBox="0 0 15 15" width="100%" height="30px" preserveAspectRatio="xMaxYMin meet">
         <g id="arrow_out" transform="scale(0.3 0.3)">
          <a xlink:href="visualization_8cpp__incl_org.svg" target="_base">
           <rect id="button" ry="5" rx="5" y="6" x="6" height="38" width="38"
                fill="#f2f5e9" fill-opacity="0.5" stroke="#606060" stroke-width="1.0"/>
           <path id="arrow"
             d="M 11.500037,31.436501 C 11.940474,20.09759 22.043105,11.32322 32.158766,21.979434 L 37.068811,17.246167 C 37.068811,17.246167 37.088388,32 37.088388,32 L 22.160133,31.978069 C 22.160133,31.978069 26.997745,27.140456 26.997745,27.140456 C 18.528582,18.264221 13.291696,25.230495 11.500037,31.436501 z"
             style="fill:#404040;"/>
          </a>
         </g>
        </svg>
</svg>
