<?xml version="1.0" encoding="UTF-8" standalone="no"?>
<!DOCTYPE svg PUBLIC "-//W3C//DTD SVG 1.1//EN"
 "http://www.w3.org/Graphics/SVG/1.1/DTD/svg11.dtd">
<!-- Generated by graphviz version 2.44.1 (20200629.0846)
 -->
<!-- Title: operator&lt;&lt; Pages: 1 -->
<svg width="253pt" height="78pt"
 viewBox="0.00 0.00 253.00 77.50" xmlns="http://www.w3.org/2000/svg" xmlns:xlink="http://www.w3.org/1999/xlink">
<g id="graph0" class="graph" transform="scale(1 1) rotate(0) translate(4 73.5)">
<title>operator&lt;&lt;</title>
<!-- Node1 -->
<g id="node1" class="node">
<title>Node1</title>
<g id="a_node1"><a xlink:title=" ">
<polygon fill="#bfbfbf" stroke="black" points="0,-28 0,-47 64,-47 64,-28 0,-28"/>
<text text-anchor="middle" x="32" y="-35" font-family="Helvetica,sans-Serif" font-size="10.00">operator&lt;&lt;</text>
</a>
</g>
</g>
<!-- Node2 -->
<g id="node2" class="node">
<title>Node2</title>
<g id="a_node2"><a xlink:href="../../d3/d56/class_country.html#a9a46612a5cee07fe7275552dd4a4bd36" target="_top" xlink:title=" ">
<polygon fill="none" stroke="black" points="100,-50 100,-69 245,-69 245,-50 100,-50"/>
<text text-anchor="middle" x="172.5" y="-57" font-family="Helvetica,sans-Serif" font-size="10.00">Country::getReserveVaccines</text>
</a>
</g>
</g>
<!-- Node1&#45;&gt;Node2 -->
<g id="edge1" class="edge">
<title>Node1&#45;&gt;Node2</title>
<path fill="none" stroke="midnightblue" d="M64.08,-42.44C75.27,-44.21 88.39,-46.3 101.54,-48.39"/>
<polygon fill="midnightblue" stroke="midnightblue" points="101.14,-51.87 111.57,-49.98 102.24,-44.95 101.14,-51.87"/>
</g>
<!-- Node3 -->
<g id="node3" class="node">
<title>Node3</title>
<g id="a_node3"><a xlink:href="../../d3/d56/class_country.html#a4649630394770028c46cb3d2dab48675" target="_top" xlink:title=" ">
<polygon fill="none" stroke="black" points="104,-0.5 104,-30.5 241,-30.5 241,-0.5 104,-0.5"/>
<text text-anchor="start" x="112" y="-18.5" font-family="Helvetica,sans-Serif" font-size="10.00">Country::getTotalProduction</text>
<text text-anchor="middle" x="172.5" y="-7.5" font-family="Helvetica,sans-Serif" font-size="10.00">Capacity</text>
</a>
</g>
</g>
<!-- Node1&#45;&gt;Node3 -->
<g id="edge2" class="edge">
<title>Node1&#45;&gt;Node3</title>
<path fill="none" stroke="midnightblue" d="M64.08,-32.56C73.09,-31.13 83.35,-29.5 93.87,-27.83"/>
<polygon fill="midnightblue" stroke="midnightblue" points="94.67,-31.25 104,-26.22 93.57,-24.33 94.67,-31.25"/>
</g>
</g>
</svg>
