<?xml version="1.0" encoding="UTF-8" standalone="no"?>
<!DOCTYPE svg PUBLIC "-//W3C//DTD SVG 1.1//EN"
 "http://www.w3.org/Graphics/SVG/1.1/DTD/svg11.dtd">
<!-- Generated by graphviz version 2.44.1 (20200629.0846)
 -->
<!-- Title: C:/Users/lukac/CLionProjects/virus_real/src/graphics.cpp Pages: 1 -->
<svg width="780pt" height="599pt"
 viewBox="0.00 0.00 779.50 599.00" xmlns="http://www.w3.org/2000/svg" xmlns:xlink="http://www.w3.org/1999/xlink">
<g id="graph0" class="graph" transform="scale(1 1) rotate(0) translate(4 595)">
<title>C:/Users/lukac/CLionProjects/virus_real/src/graphics.cpp</title>
<!-- Node1 -->
<g id="node1" class="node">
<title>Node1</title>
<g id="a_node1"><a xlink:title=" ">
<polygon fill="#bfbfbf" stroke="black" points="626.5,-560.5 626.5,-590.5 771.5,-590.5 771.5,-560.5 626.5,-560.5"/>
<text text-anchor="start" x="634.5" y="-578.5" font-family="Helvetica,sans-Serif" font-size="10.00">C:/Users/lukac/CLionProjects</text>
<text text-anchor="middle" x="699" y="-567.5" font-family="Helvetica,sans-Serif" font-size="10.00">/virus_real/src/graphics.cpp</text>
</a>
</g>
</g>
<!-- Node2 -->
<g id="node2" class="node">
<title>Node2</title>
<g id="a_node2"><a xlink:href="../../d7/d04/graphics_8h.html" target="_top" xlink:title=" ">
<polygon fill="none" stroke="black" points="578,-504.5 578,-523.5 640,-523.5 640,-504.5 578,-504.5"/>
<text text-anchor="middle" x="609" y="-511.5" font-family="Helvetica,sans-Serif" font-size="10.00">graphics.h</text>
</a>
</g>
</g>
<!-- Node1&#45;&gt;Node2 -->
<g id="edge1" class="edge">
<title>Node1&#45;&gt;Node2</title>
<path fill="none" stroke="midnightblue" d="M677.67,-560.4C663.51,-551.04 644.99,-538.79 630.75,-529.38"/>
<polygon fill="midnightblue" stroke="midnightblue" points="632.37,-526.25 622.1,-523.66 628.51,-532.09 632.37,-526.25"/>
</g>
<!-- Node15 -->
<g id="node15" class="node">
<title>Node15</title>
<g id="a_node15"><a xlink:title=" ">
<polygon fill="none" stroke="#bfbfbf" points="587,-112.5 587,-131.5 641,-131.5 641,-112.5 587,-112.5"/>
<text text-anchor="middle" x="614" y="-119.5" font-family="Helvetica,sans-Serif" font-size="10.00">iostream</text>
</a>
</g>
</g>
<!-- Node1&#45;&gt;Node15 -->
<g id="edge51" class="edge">
<title>Node1&#45;&gt;Node15</title>
<path fill="none" stroke="midnightblue" d="M699,-560.28C699,-538.48 699,-495.49 699,-459 699,-459 699,-459 699,-289 699,-228.26 653.36,-167.4 628.96,-139.21"/>
<polygon fill="midnightblue" stroke="midnightblue" points="631.41,-136.7 622.15,-131.55 626.18,-141.35 631.41,-136.7"/>
</g>
<!-- Node25 -->
<g id="node25" class="node">
<title>Node25</title>
<g id="a_node25"><a xlink:title=" ">
<polygon fill="none" stroke="#bfbfbf" points="727.5,-504.5 727.5,-523.5 768.5,-523.5 768.5,-504.5 727.5,-504.5"/>
<text text-anchor="middle" x="748" y="-511.5" font-family="Helvetica,sans-Serif" font-size="10.00">ctime</text>
</a>
</g>
</g>
<!-- Node1&#45;&gt;Node25 -->
<g id="edge52" class="edge">
<title>Node1&#45;&gt;Node25</title>
<path fill="none" stroke="midnightblue" d="M710.61,-560.4C717.73,-551.75 726.88,-540.64 734.35,-531.58"/>
<polygon fill="midnightblue" stroke="midnightblue" points="737.21,-533.6 740.87,-523.66 731.81,-529.15 737.21,-533.6"/>
</g>
<!-- Node3 -->
<g id="node3" class="node">
<title>Node3</title>
<g id="a_node3"><a xlink:href="../../db/db2/iface_8h.html" target="_top" xlink:title=" ">
<polygon fill="none" stroke="black" points="501.5,-448.5 501.5,-467.5 546.5,-467.5 546.5,-448.5 501.5,-448.5"/>
<text text-anchor="middle" x="524" y="-455.5" font-family="Helvetica,sans-Serif" font-size="10.00">iface.h</text>
</a>
</g>
</g>
<!-- Node2&#45;&gt;Node3 -->
<g id="edge2" class="edge">
<title>Node2&#45;&gt;Node3</title>
<path fill="none" stroke="midnightblue" d="M595.34,-504.32C582.08,-495.9 561.73,-482.97 546.15,-473.07"/>
<polygon fill="midnightblue" stroke="midnightblue" points="547.94,-470.06 537.62,-467.65 544.19,-475.97 547.94,-470.06"/>
</g>
<!-- Node3&#45;&gt;Node3 -->
<g id="edge29" class="edge">
<title>Node3&#45;&gt;Node3</title>
<path fill="none" stroke="midnightblue" d="M541.48,-467.57C553.15,-470.27 564.5,-467.08 564.5,-458 564.5,-451.62 558.89,-448.14 551.5,-447.58"/>
<polygon fill="midnightblue" stroke="midnightblue" points="551.15,-444.1 541.48,-448.43 551.74,-451.07 551.15,-444.1"/>
</g>
<!-- Node4 -->
<g id="node4" class="node">
<title>Node4</title>
<g id="a_node4"><a xlink:href="../../da/d15/grid_8h.html" target="_top" xlink:title=" ">
<polygon fill="none" stroke="black" points="397.5,-224.5 397.5,-243.5 438.5,-243.5 438.5,-224.5 397.5,-224.5"/>
<text text-anchor="middle" x="418" y="-231.5" font-family="Helvetica,sans-Serif" font-size="10.00">grid.h</text>
</a>
</g>
</g>
<!-- Node3&#45;&gt;Node4 -->
<g id="edge3" class="edge">
<title>Node3&#45;&gt;Node4</title>
<path fill="none" stroke="midnightblue" d="M523.69,-448.31C522.29,-420.84 514.72,-334.48 474,-280 465.05,-268.02 452.19,-257.39 441.05,-249.47"/>
<polygon fill="midnightblue" stroke="midnightblue" points="442.84,-246.45 432.6,-243.73 438.91,-252.24 442.84,-246.45"/>
</g>
<!-- Node20 -->
<g id="node20" class="node">
<title>Node20</title>
<g id="a_node20"><a xlink:href="../../d3/daa/logic_8h.html" target="_top" xlink:title=" ">
<polygon fill="none" stroke="black" points="351.5,-280.5 351.5,-299.5 396.5,-299.5 396.5,-280.5 351.5,-280.5"/>
<text text-anchor="middle" x="374" y="-287.5" font-family="Helvetica,sans-Serif" font-size="10.00">logic.h</text>
</a>
</g>
</g>
<!-- Node3&#45;&gt;Node20 -->
<g id="edge30" class="edge">
<title>Node3&#45;&gt;Node20</title>
<path fill="none" stroke="midnightblue" d="M501.36,-449.33C467.12,-436.32 403.44,-406.34 378,-356 370.75,-341.65 370.32,-323.19 371.37,-309.61"/>
<polygon fill="midnightblue" stroke="midnightblue" points="374.86,-309.87 372.48,-299.55 367.9,-309.1 374.86,-309.87"/>
</g>
<!-- Node21 -->
<g id="node21" class="node">
<title>Node21</title>
<g id="a_node21"><a xlink:href="../../db/d16/config_8h.html" target="_top" xlink:title=" ">
<polygon fill="none" stroke="black" points="621,-224.5 621,-243.5 671,-243.5 671,-224.5 621,-224.5"/>
<text text-anchor="middle" x="646" y="-231.5" font-family="Helvetica,sans-Serif" font-size="10.00">config.h</text>
</a>
</g>
</g>
<!-- Node3&#45;&gt;Node21 -->
<g id="edge50" class="edge">
<title>Node3&#45;&gt;Node21</title>
<path fill="none" stroke="midnightblue" d="M528.78,-448.3C546.89,-415.36 611.43,-297.9 636.22,-252.81"/>
<polygon fill="midnightblue" stroke="midnightblue" points="639.37,-254.33 641.12,-243.88 633.23,-250.96 639.37,-254.33"/>
</g>
<!-- Node22 -->
<g id="node22" class="node">
<title>Node22</title>
<g id="a_node22"><a xlink:href="../../d1/df3/ai_8h.html" target="_top" xlink:title=" ">
<polygon fill="none" stroke="black" points="454,-392.5 454,-411.5 486,-411.5 486,-392.5 454,-392.5"/>
<text text-anchor="middle" x="470" y="-399.5" font-family="Helvetica,sans-Serif" font-size="10.00">ai.h</text>
</a>
</g>
</g>
<!-- Node3&#45;&gt;Node22 -->
<g id="edge39" class="edge">
<title>Node3&#45;&gt;Node22</title>
<path fill="none" stroke="midnightblue" d="M515.08,-448.08C507.22,-440.22 495.57,-428.57 486.08,-419.08"/>
<polygon fill="midnightblue" stroke="midnightblue" points="488.3,-416.35 478.75,-411.75 483.35,-421.3 488.3,-416.35"/>
</g>
<!-- Node24 -->
<g id="node24" class="node">
<title>Node24</title>
<g id="a_node24"><a xlink:title=" ">
<polygon fill="none" stroke="#bfbfbf" points="258.5,-392.5 258.5,-411.5 307.5,-411.5 307.5,-392.5 258.5,-392.5"/>
<text text-anchor="middle" x="283" y="-399.5" font-family="Helvetica,sans-Serif" font-size="10.00">ctype.h</text>
</a>
</g>
</g>
<!-- Node3&#45;&gt;Node24 -->
<g id="edge49" class="edge">
<title>Node3&#45;&gt;Node24</title>
<path fill="none" stroke="midnightblue" d="M501.27,-451.99C463.86,-443.75 387,-426.74 322,-412 320.56,-411.67 319.09,-411.34 317.61,-411"/>
<polygon fill="midnightblue" stroke="midnightblue" points="318.28,-407.56 307.75,-408.74 316.72,-414.39 318.28,-407.56"/>
</g>
<!-- Node5 -->
<g id="node5" class="node">
<title>Node5</title>
<g id="a_node5"><a xlink:title=" ">
<polygon fill="none" stroke="#bfbfbf" points="238,-56.5 238,-75.5 280,-75.5 280,-56.5 238,-56.5"/>
<text text-anchor="middle" x="259" y="-63.5" font-family="Helvetica,sans-Serif" font-size="10.00">vector</text>
</a>
</g>
</g>
<!-- Node4&#45;&gt;Node5 -->
<g id="edge4" class="edge">
<title>Node4&#45;&gt;Node5</title>
<path fill="none" stroke="midnightblue" d="M397.48,-227.32C376.82,-220.73 345.07,-208.11 324,-188 293.21,-158.61 273.76,-111.38 264.8,-85.47"/>
<polygon fill="midnightblue" stroke="midnightblue" points="268.06,-84.19 261.6,-75.79 261.41,-86.38 268.06,-84.19"/>
</g>
<!-- Node6 -->
<g id="node6" class="node">
<title>Node6</title>
<g id="a_node6"><a xlink:title=" ">
<polygon fill="none" stroke="#bfbfbf" points="46.5,-56.5 46.5,-75.5 105.5,-75.5 105.5,-56.5 46.5,-56.5"/>
<text text-anchor="middle" x="76" y="-63.5" font-family="Helvetica,sans-Serif" font-size="10.00">stdexcept</text>
</a>
</g>
</g>
<!-- Node4&#45;&gt;Node6 -->
<g id="edge5" class="edge">
<title>Node4&#45;&gt;Node6</title>
<path fill="none" stroke="midnightblue" d="M397.26,-229.28C364.27,-222.99 298.15,-208.87 245,-188 196.14,-168.81 183.12,-163.34 141,-132 121.7,-117.64 102.6,-97.66 90.15,-83.65"/>
<polygon fill="midnightblue" stroke="midnightblue" points="92.52,-81.05 83.31,-75.81 87.24,-85.65 92.52,-81.05"/>
</g>
<!-- Node7 -->
<g id="node7" class="node">
<title>Node7</title>
<g id="a_node7"><a xlink:href="../../d5/d5a/field_8h.html" target="_top" xlink:title=" ">
<polygon fill="none" stroke="black" points="533,-56.5 533,-75.5 575,-75.5 575,-56.5 533,-56.5"/>
<text text-anchor="middle" x="554" y="-63.5" font-family="Helvetica,sans-Serif" font-size="10.00">field.h</text>
</a>
</g>
</g>
<!-- Node4&#45;&gt;Node7 -->
<g id="edge6" class="edge">
<title>Node4&#45;&gt;Node7</title>
<path fill="none" stroke="midnightblue" d="M425.81,-224.5C433.98,-215.54 447.11,-200.97 458,-188 488.74,-151.4 523.21,-107.12 541.32,-83.58"/>
<polygon fill="midnightblue" stroke="midnightblue" points="544.1,-85.7 547.41,-75.64 538.55,-81.44 544.1,-85.7"/>
</g>
<!-- Node12 -->
<g id="node12" class="node">
<title>Node12</title>
<g id="a_node12"><a xlink:href="../../d5/d60/utils_8h.html" target="_top" xlink:title=" ">
<polygon fill="none" stroke="black" points="149.5,-112.5 149.5,-131.5 192.5,-131.5 192.5,-112.5 149.5,-112.5"/>
<text text-anchor="middle" x="171" y="-119.5" font-family="Helvetica,sans-Serif" font-size="10.00">utils.h</text>
</a>
</g>
</g>
<!-- Node4&#45;&gt;Node12 -->
<g id="edge11" class="edge">
<title>Node4&#45;&gt;Node12</title>
<path fill="none" stroke="midnightblue" d="M397.21,-226.83C371.55,-218.96 326.8,-204.39 290,-188 255.41,-172.6 217.31,-150.89 193.77,-136.88"/>
<polygon fill="midnightblue" stroke="midnightblue" points="195.29,-133.71 184.91,-131.57 191.68,-139.71 195.29,-133.71"/>
</g>
<!-- Node14 -->
<g id="node14" class="node">
<title>Node14</title>
<g id="a_node14"><a xlink:href="../../dc/d5f/country_8h.html" target="_top" xlink:title=" ">
<polygon fill="none" stroke="black" points="332.5,-168.5 332.5,-187.5 389.5,-187.5 389.5,-168.5 332.5,-168.5"/>
<text text-anchor="middle" x="361" y="-175.5" font-family="Helvetica,sans-Serif" font-size="10.00">country.h</text>
</a>
</g>
</g>
<!-- Node4&#45;&gt;Node14 -->
<g id="edge15" class="edge">
<title>Node4&#45;&gt;Node14</title>
<path fill="none" stroke="midnightblue" d="M408.84,-224.32C400.5,-216.42 387.97,-204.55 377.82,-194.94"/>
<polygon fill="midnightblue" stroke="midnightblue" points="379.99,-192.17 370.32,-187.83 375.18,-197.25 379.99,-192.17"/>
</g>
<!-- Node18 -->
<g id="node18" class="node">
<title>Node18</title>
<g id="a_node18"><a xlink:href="../../dd/dae/district_8h.html" target="_top" xlink:title=" ">
<polygon fill="none" stroke="black" points="401,-112.5 401,-131.5 455,-131.5 455,-112.5 401,-112.5"/>
<text text-anchor="middle" x="428" y="-119.5" font-family="Helvetica,sans-Serif" font-size="10.00">district.h</text>
</a>
</g>
</g>
<!-- Node4&#45;&gt;Node18 -->
<g id="edge27" class="edge">
<title>Node4&#45;&gt;Node18</title>
<path fill="none" stroke="midnightblue" d="M418.78,-224.37C420.4,-206.62 424.12,-165.67 426.31,-141.6"/>
<polygon fill="midnightblue" stroke="midnightblue" points="429.8,-141.87 427.22,-131.59 422.83,-141.23 429.8,-141.87"/>
</g>
<!-- Node19 -->
<g id="node19" class="node">
<title>Node19</title>
<g id="a_node19"><a xlink:title=" ">
<polygon fill="none" stroke="#bfbfbf" points="455,-56.5 455,-75.5 511,-75.5 511,-56.5 455,-56.5"/>
<text text-anchor="middle" x="483" y="-63.5" font-family="Helvetica,sans-Serif" font-size="10.00">algorithm</text>
</a>
</g>
</g>
<!-- Node4&#45;&gt;Node19 -->
<g id="edge28" class="edge">
<title>Node4&#45;&gt;Node19</title>
<path fill="none" stroke="midnightblue" d="M422.5,-224.26C431.27,-206.97 450.98,-167.04 464,-132 469.76,-116.5 474.93,-98.42 478.41,-85.26"/>
<polygon fill="midnightblue" stroke="midnightblue" points="481.81,-86.1 480.92,-75.54 475.03,-84.35 481.81,-86.1"/>
</g>
<!-- Node8 -->
<g id="node8" class="node">
<title>Node8</title>
<g id="a_node8"><a xlink:title=" ">
<polygon fill="none" stroke="#bfbfbf" points="479.5,-0.5 479.5,-19.5 514.5,-19.5 514.5,-0.5 479.5,-0.5"/>
<text text-anchor="middle" x="497" y="-7.5" font-family="Helvetica,sans-Serif" font-size="10.00">map</text>
</a>
</g>
</g>
<!-- Node7&#45;&gt;Node8 -->
<g id="edge7" class="edge">
<title>Node7&#45;&gt;Node8</title>
<path fill="none" stroke="midnightblue" d="M544.84,-56.32C536.5,-48.42 523.97,-36.55 513.82,-26.94"/>
<polygon fill="midnightblue" stroke="midnightblue" points="515.99,-24.17 506.32,-19.83 511.18,-29.25 515.99,-24.17"/>
</g>
<!-- Node9 -->
<g id="node9" class="node">
<title>Node9</title>
<g id="a_node9"><a xlink:title=" ">
<polygon fill="none" stroke="#bfbfbf" points="532.5,-0.5 532.5,-19.5 575.5,-19.5 575.5,-0.5 532.5,-0.5"/>
<text text-anchor="middle" x="554" y="-7.5" font-family="Helvetica,sans-Serif" font-size="10.00">queue</text>
</a>
</g>
</g>
<!-- Node7&#45;&gt;Node9 -->
<g id="edge8" class="edge">
<title>Node7&#45;&gt;Node9</title>
<path fill="none" stroke="midnightblue" d="M554,-56.08C554,-49.01 554,-38.86 554,-29.99"/>
<polygon fill="midnightblue" stroke="midnightblue" points="557.5,-29.75 554,-19.75 550.5,-29.75 557.5,-29.75"/>
</g>
<!-- Node10 -->
<g id="node10" class="node">
<title>Node10</title>
<g id="a_node10"><a xlink:title=" ">
<polygon fill="none" stroke="#bfbfbf" points="594,-0.5 594,-19.5 646,-19.5 646,-0.5 594,-0.5"/>
<text text-anchor="middle" x="620" y="-7.5" font-family="Helvetica,sans-Serif" font-size="10.00">sstream</text>
</a>
</g>
</g>
<!-- Node7&#45;&gt;Node10 -->
<g id="edge9" class="edge">
<title>Node7&#45;&gt;Node10</title>
<path fill="none" stroke="midnightblue" d="M564.6,-56.32C574.46,-48.26 589.35,-36.08 601.22,-26.37"/>
<polygon fill="midnightblue" stroke="midnightblue" points="603.68,-28.88 609.2,-19.83 599.25,-23.46 603.68,-28.88"/>
</g>
<!-- Node11 -->
<g id="node11" class="node">
<title>Node11</title>
<g id="a_node11"><a xlink:title=" ">
<polygon fill="none" stroke="#bfbfbf" points="203,-0.5 203,-19.5 247,-19.5 247,-0.5 203,-0.5"/>
<text text-anchor="middle" x="225" y="-7.5" font-family="Helvetica,sans-Serif" font-size="10.00">cmath</text>
</a>
</g>
</g>
<!-- Node7&#45;&gt;Node11 -->
<g id="edge10" class="edge">
<title>Node7&#45;&gt;Node11</title>
<path fill="none" stroke="midnightblue" d="M532.86,-59.03C528.62,-57.94 524.18,-56.87 520,-56 425.37,-36.32 311.99,-21.42 257.45,-14.79"/>
<polygon fill="midnightblue" stroke="midnightblue" points="257.7,-11.3 247.35,-13.58 256.86,-18.25 257.7,-11.3"/>
</g>
<!-- Node12&#45;&gt;Node5 -->
<g id="edge14" class="edge">
<title>Node12&#45;&gt;Node5</title>
<path fill="none" stroke="midnightblue" d="M185.14,-112.32C198.87,-103.9 219.94,-90.97 236.06,-81.07"/>
<polygon fill="midnightblue" stroke="midnightblue" points="238.2,-83.87 244.9,-75.65 234.54,-77.9 238.2,-83.87"/>
</g>
<!-- Node12&#45;&gt;Node6 -->
<g id="edge12" class="edge">
<title>Node12&#45;&gt;Node6</title>
<path fill="none" stroke="midnightblue" d="M155.74,-112.32C140.78,-103.82 117.75,-90.73 100.27,-80.8"/>
<polygon fill="midnightblue" stroke="midnightblue" points="101.65,-77.55 91.23,-75.65 98.19,-83.64 101.65,-77.55"/>
</g>
<!-- Node13 -->
<g id="node13" class="node">
<title>Node13</title>
<g id="a_node13"><a xlink:title=" ">
<polygon fill="none" stroke="#bfbfbf" points="148.5,-56.5 148.5,-75.5 193.5,-75.5 193.5,-56.5 148.5,-56.5"/>
<text text-anchor="middle" x="171" y="-63.5" font-family="Helvetica,sans-Serif" font-size="10.00">climits</text>
</a>
</g>
</g>
<!-- Node12&#45;&gt;Node13 -->
<g id="edge13" class="edge">
<title>Node12&#45;&gt;Node13</title>
<path fill="none" stroke="midnightblue" d="M171,-112.08C171,-105.01 171,-94.86 171,-85.99"/>
<polygon fill="midnightblue" stroke="midnightblue" points="174.5,-85.75 171,-75.75 167.5,-85.75 174.5,-85.75"/>
</g>
<!-- Node14&#45;&gt;Node5 -->
<g id="edge16" class="edge">
<title>Node14&#45;&gt;Node5</title>
<path fill="none" stroke="midnightblue" d="M353,-168.37C335.94,-149.97 295.79,-106.67 273.88,-83.05"/>
<polygon fill="midnightblue" stroke="midnightblue" points="276.33,-80.54 266.97,-75.59 271.2,-85.3 276.33,-80.54"/>
</g>
<!-- Node14&#45;&gt;Node12 -->
<g id="edge20" class="edge">
<title>Node14&#45;&gt;Node12</title>
<path fill="none" stroke="midnightblue" d="M332.14,-168.8C297.28,-158.89 238.82,-142.27 202.72,-132.01"/>
<polygon fill="midnightblue" stroke="midnightblue" points="203.3,-128.54 192.72,-129.17 201.39,-135.27 203.3,-128.54"/>
</g>
<!-- Node14&#45;&gt;Node15 -->
<g id="edge17" class="edge">
<title>Node14&#45;&gt;Node15</title>
<path fill="none" stroke="midnightblue" d="M389.53,-170.91C435.47,-161.1 525.84,-141.82 576.78,-130.94"/>
<polygon fill="midnightblue" stroke="midnightblue" points="577.68,-134.33 586.73,-128.82 576.22,-127.49 577.68,-134.33"/>
</g>
<!-- Node16 -->
<g id="node16" class="node">
<title>Node16</title>
<g id="a_node16"><a xlink:title=" ">
<polygon fill="none" stroke="#bfbfbf" points="395,-56.5 395,-75.5 425,-75.5 425,-56.5 395,-56.5"/>
<text text-anchor="middle" x="410" y="-63.5" font-family="Helvetica,sans-Serif" font-size="10.00">set</text>
</a>
</g>
</g>
<!-- Node14&#45;&gt;Node16 -->
<g id="edge18" class="edge">
<title>Node14&#45;&gt;Node16</title>
<path fill="none" stroke="midnightblue" d="M364.84,-168.37C372.82,-150.46 391.33,-108.92 402,-84.95"/>
<polygon fill="midnightblue" stroke="midnightblue" points="405.3,-86.15 406.17,-75.59 398.91,-83.3 405.3,-86.15"/>
</g>
<!-- Node17 -->
<g id="node17" class="node">
<title>Node17</title>
<g id="a_node17"><a xlink:title=" ">
<polygon fill="none" stroke="#bfbfbf" points="312,-56.5 312,-75.5 370,-75.5 370,-56.5 312,-56.5"/>
<text text-anchor="middle" x="341" y="-63.5" font-family="Helvetica,sans-Serif" font-size="10.00">functional</text>
</a>
</g>
</g>
<!-- Node14&#45;&gt;Node17 -->
<g id="edge19" class="edge">
<title>Node14&#45;&gt;Node17</title>
<path fill="none" stroke="midnightblue" d="M359.43,-168.37C356.2,-150.62 348.76,-109.67 344.38,-85.6"/>
<polygon fill="midnightblue" stroke="midnightblue" points="347.79,-84.8 342.56,-75.59 340.91,-86.06 347.79,-84.8"/>
</g>
<!-- Node14&#45;&gt;Node18 -->
<g id="edge21" class="edge">
<title>Node14&#45;&gt;Node18</title>
<path fill="none" stroke="midnightblue" d="M371.76,-168.32C381.77,-160.26 396.89,-148.08 408.93,-138.37"/>
<polygon fill="midnightblue" stroke="midnightblue" points="411.45,-140.83 417.04,-131.83 407.06,-135.38 411.45,-140.83"/>
</g>
<!-- Node18&#45;&gt;Node5 -->
<g id="edge22" class="edge">
<title>Node18&#45;&gt;Node5</title>
<path fill="none" stroke="midnightblue" d="M401.22,-112.44C370.9,-102.76 321.59,-87 289.73,-76.82"/>
<polygon fill="midnightblue" stroke="midnightblue" points="290.64,-73.43 280.05,-73.73 288.51,-80.1 290.64,-73.43"/>
</g>
<!-- Node18&#45;&gt;Node7 -->
<g id="edge23" class="edge">
<title>Node18&#45;&gt;Node7</title>
<path fill="none" stroke="midnightblue" d="M447.97,-112.44C468.61,-103.6 501.06,-89.69 524.63,-79.59"/>
<polygon fill="midnightblue" stroke="midnightblue" points="526.32,-82.67 534.13,-75.52 523.56,-76.24 526.32,-82.67"/>
</g>
<!-- Node18&#45;&gt;Node16 -->
<g id="edge25" class="edge">
<title>Node18&#45;&gt;Node16</title>
<path fill="none" stroke="midnightblue" d="M425.03,-112.08C422.62,-104.85 419.14,-94.41 416.13,-85.4"/>
<polygon fill="midnightblue" stroke="midnightblue" points="419.4,-84.13 412.92,-75.75 412.76,-86.34 419.4,-84.13"/>
</g>
<!-- Node18&#45;&gt;Node17 -->
<g id="edge26" class="edge">
<title>Node18&#45;&gt;Node17</title>
<path fill="none" stroke="midnightblue" d="M414.02,-112.32C400.45,-103.9 379.62,-90.97 363.68,-81.07"/>
<polygon fill="midnightblue" stroke="midnightblue" points="365.29,-77.95 354.94,-75.65 361.59,-83.9 365.29,-77.95"/>
</g>
<!-- Node18&#45;&gt;Node19 -->
<g id="edge24" class="edge">
<title>Node18&#45;&gt;Node19</title>
<path fill="none" stroke="midnightblue" d="M437.08,-112.08C445.17,-104.14 457.2,-92.34 466.91,-82.8"/>
<polygon fill="midnightblue" stroke="midnightblue" points="469.4,-85.25 474.09,-75.75 464.5,-80.26 469.4,-85.25"/>
</g>
<!-- Node20&#45;&gt;Node4 -->
<g id="edge35" class="edge">
<title>Node20&#45;&gt;Node4</title>
<path fill="none" stroke="midnightblue" d="M381.27,-280.08C387.54,-272.38 396.79,-261.03 404.43,-251.65"/>
<polygon fill="midnightblue" stroke="midnightblue" points="407.27,-253.71 410.87,-243.75 401.84,-249.29 407.27,-253.71"/>
</g>
<!-- Node20&#45;&gt;Node5 -->
<g id="edge32" class="edge">
<title>Node20&#45;&gt;Node5</title>
<path fill="none" stroke="midnightblue" d="M366.05,-280.28C346.03,-257.74 293.54,-194.91 271,-132 265.61,-116.96 262.53,-99.06 260.85,-85.85"/>
<polygon fill="midnightblue" stroke="midnightblue" points="264.3,-85.19 259.7,-75.64 257.34,-85.97 264.3,-85.19"/>
</g>
<!-- Node20&#45;&gt;Node6 -->
<g id="edge33" class="edge">
<title>Node20&#45;&gt;Node6</title>
<path fill="none" stroke="midnightblue" d="M351.48,-285.56C321.4,-280.21 267.25,-267.95 227,-244 165.96,-207.68 156.32,-188.29 113,-132 101.64,-117.24 91.4,-98.61 84.58,-85.09"/>
<polygon fill="midnightblue" stroke="midnightblue" points="87.62,-83.33 80.08,-75.89 81.33,-86.41 87.62,-83.33"/>
</g>
<!-- Node20&#45;&gt;Node11 -->
<g id="edge34" class="edge">
<title>Node20&#45;&gt;Node11</title>
<path fill="none" stroke="midnightblue" d="M351.45,-287.3C270.59,-280.6 0,-252.69 0,-179 0,-179 0,-179 0,-121 0,-36.33 130.19,-16.82 192.51,-12.34"/>
<polygon fill="midnightblue" stroke="midnightblue" points="192.84,-15.82 202.6,-11.7 192.4,-8.84 192.84,-15.82"/>
</g>
<!-- Node20&#45;&gt;Node12 -->
<g id="edge38" class="edge">
<title>Node20&#45;&gt;Node12</title>
<path fill="none" stroke="midnightblue" d="M351.23,-285.02C325.03,-279.51 281.8,-267.47 252,-244 216.22,-215.82 190.68,-167.37 178.69,-141.14"/>
<polygon fill="midnightblue" stroke="midnightblue" points="181.75,-139.41 174.52,-131.68 175.35,-142.24 181.75,-139.41"/>
</g>
<!-- Node20&#45;&gt;Node15 -->
<g id="edge37" class="edge">
<title>Node20&#45;&gt;Node15</title>
<path fill="none" stroke="midnightblue" d="M396.62,-287.32C429.13,-283.91 489.71,-273.75 531,-244 568.59,-216.92 594.66,-167.25 606.61,-140.75"/>
<polygon fill="midnightblue" stroke="midnightblue" points="609.84,-142.1 610.61,-131.53 603.42,-139.31 609.84,-142.1"/>
</g>
<!-- Node20&#45;&gt;Node19 -->
<g id="edge31" class="edge">
<title>Node20&#45;&gt;Node19</title>
<path fill="none" stroke="midnightblue" d="M396.52,-280.55C413.04,-273.26 434.8,-261.16 448,-244 484.54,-196.48 486.01,-121.1 484.42,-86.06"/>
<polygon fill="midnightblue" stroke="midnightblue" points="487.9,-85.6 483.81,-75.83 480.91,-86.02 487.9,-85.6"/>
</g>
<!-- Node20&#45;&gt;Node21 -->
<g id="edge36" class="edge">
<title>Node20&#45;&gt;Node21</title>
<path fill="none" stroke="midnightblue" d="M396.72,-284.49C444.2,-275.06 554.2,-253.22 610.87,-241.98"/>
<polygon fill="midnightblue" stroke="midnightblue" points="611.67,-245.38 620.8,-240 610.31,-238.52 611.67,-245.38"/>
</g>
<!-- Node22&#45;&gt;Node4 -->
<g id="edge40" class="edge">
<title>Node22&#45;&gt;Node4</title>
<path fill="none" stroke="midnightblue" d="M474.3,-392.47C480.04,-379.94 488.84,-355.87 483,-336 473.21,-302.69 448.66,-269.99 432.69,-251.19"/>
<polygon fill="midnightblue" stroke="midnightblue" points="435.25,-248.81 426.04,-243.58 429.98,-253.41 435.25,-248.81"/>
</g>
<!-- Node22&#45;&gt;Node12 -->
<g id="edge42" class="edge">
<title>Node22&#45;&gt;Node12</title>
<path fill="none" stroke="midnightblue" d="M453.78,-399.58C384.13,-393.06 114,-363.13 114,-291 114,-291 114,-291 114,-233 114,-196.3 139.32,-159.66 156.21,-139.3"/>
<polygon fill="midnightblue" stroke="midnightblue" points="158.95,-141.48 162.83,-131.62 153.65,-136.9 158.95,-141.48"/>
</g>
<!-- Node22&#45;&gt;Node20 -->
<g id="edge41" class="edge">
<title>Node22&#45;&gt;Node20</title>
<path fill="none" stroke="midnightblue" d="M453.69,-395.62C436.17,-389.01 408.73,-376.13 393,-356 382.61,-342.69 377.89,-323.86 375.76,-309.89"/>
<polygon fill="midnightblue" stroke="midnightblue" points="379.23,-309.43 374.54,-299.93 372.28,-310.28 379.23,-309.43"/>
</g>
<!-- Node22&#45;&gt;Node21 -->
<g id="edge48" class="edge">
<title>Node22&#45;&gt;Node21</title>
<path fill="none" stroke="midnightblue" d="M479.46,-392.08C508.01,-365.15 593.5,-284.51 629.62,-250.45"/>
<polygon fill="midnightblue" stroke="midnightblue" points="632.04,-252.98 636.92,-243.57 627.24,-247.88 632.04,-252.98"/>
</g>
<!-- Node23 -->
<g id="node23" class="node">
<title>Node23</title>
<g id="a_node23"><a xlink:href="../../d2/d3d/graphalgos_8h.html" target="_top" xlink:title=" ">
<polygon fill="none" stroke="black" points="402,-336.5 402,-355.5 474,-355.5 474,-336.5 402,-336.5"/>
<text text-anchor="middle" x="438" y="-343.5" font-family="Helvetica,sans-Serif" font-size="10.00">graphalgos.h</text>
</a>
</g>
</g>
<!-- Node22&#45;&gt;Node23 -->
<g id="edge43" class="edge">
<title>Node22&#45;&gt;Node23</title>
<path fill="none" stroke="midnightblue" d="M464.72,-392.08C460.29,-384.61 453.84,-373.72 448.38,-364.52"/>
<polygon fill="midnightblue" stroke="midnightblue" points="451.29,-362.57 443.19,-355.75 445.27,-366.14 451.29,-362.57"/>
</g>
<!-- Node23&#45;&gt;Node4 -->
<g id="edge46" class="edge">
<title>Node23&#45;&gt;Node4</title>
<path fill="none" stroke="midnightblue" d="M436.43,-336.37C433.2,-318.62 425.76,-277.67 421.38,-253.6"/>
<polygon fill="midnightblue" stroke="midnightblue" points="424.79,-252.8 419.56,-243.59 417.91,-254.06 424.79,-252.8"/>
</g>
<!-- Node23&#45;&gt;Node7 -->
<g id="edge45" class="edge">
<title>Node23&#45;&gt;Node7</title>
<path fill="none" stroke="midnightblue" d="M453.01,-336.45C494.9,-311.56 612.43,-234.37 650,-132 653.06,-123.66 654.77,-119.5 650,-112 635.85,-89.74 607.46,-78.3 585.21,-72.54"/>
<polygon fill="midnightblue" stroke="midnightblue" points="585.71,-69.07 575.18,-70.21 584.12,-75.88 585.71,-69.07"/>
</g>
<!-- Node23&#45;&gt;Node12 -->
<g id="edge44" class="edge">
<title>Node23&#45;&gt;Node12</title>
<path fill="none" stroke="midnightblue" d="M409.04,-336.47C365.7,-322.61 283.09,-291.83 227,-244 203.92,-224.32 200.7,-215.54 188,-188 181.13,-173.1 176.68,-154.96 174.06,-141.63"/>
<polygon fill="midnightblue" stroke="midnightblue" points="177.5,-140.96 172.28,-131.74 170.61,-142.21 177.5,-140.96"/>
</g>
<!-- Node23&#45;&gt;Node20 -->
<g id="edge47" class="edge">
<title>Node23&#45;&gt;Node20</title>
<path fill="none" stroke="midnightblue" d="M427.72,-336.32C418.16,-328.26 403.72,-316.08 392.22,-306.37"/>
<polygon fill="midnightblue" stroke="midnightblue" points="394.37,-303.61 384.47,-299.83 389.86,-308.96 394.37,-303.61"/>
</g>
</g>
</svg>
