<?xml version="1.0" encoding="UTF-8" standalone="no"?>
<!DOCTYPE svg PUBLIC "-//W3C//DTD SVG 1.1//EN"
 "http://www.w3.org/Graphics/SVG/1.1/DTD/svg11.dtd">
<!-- Generated by graphviz version 2.44.1 (20200629.0846)
 -->
<!-- Title: Graphical Class Hierarchy Pages: 1 -->
<svg width="153pt" height="104pt"
 viewBox="0.00 0.00 153.00 104.00" xmlns="http://www.w3.org/2000/svg" xmlns:xlink="http://www.w3.org/1999/xlink">
<g id="graph0" class="graph" transform="scale(1 1) rotate(0) translate(4 100)">
<title>Graphical Class Hierarchy</title>
<!-- Node0 -->
<g id="node1" class="node">
<title>Node0</title>
<g id="a_node1"><a xlink:href="d2/d5c/class_iface.html" target="_top" xlink:title=" ">
<polygon fill="none" stroke="black" points="0,-38.5 0,-57.5 37,-57.5 37,-38.5 0,-38.5"/>
<text text-anchor="middle" x="18.5" y="-45.5" font-family="Helvetica,sans-Serif" font-size="10.00">Iface</text>
</a>
</g>
</g>
<!-- Node1 -->
<g id="node2" class="node">
<title>Node1</title>
<g id="a_node2"><a xlink:href="d7/d8b/class_graphics.html" target="_top" xlink:title=" ">
<polygon fill="none" stroke="black" points="81,-76.5 81,-95.5 137,-95.5 137,-76.5 81,-76.5"/>
<text text-anchor="middle" x="109" y="-83.5" font-family="Helvetica,sans-Serif" font-size="10.00">Graphics</text>
</a>
</g>
</g>
<!-- Node0&#45;&gt;Node1 -->
<g id="edge1" class="edge">
<title>Node0&#45;&gt;Node1</title>
<path fill="none" stroke="midnightblue" d="M46.87,-59.75C59.34,-65.11 73.93,-71.37 85.72,-76.43"/>
<polygon fill="midnightblue" stroke="midnightblue" points="47.98,-56.42 37.41,-55.69 45.22,-62.85 47.98,-56.42"/>
</g>
<!-- Node2 -->
<g id="node3" class="node">
<title>Node2</title>
<g id="a_node3"><a xlink:href="d6/dcc/class_protocol.html" target="_top" xlink:title=" ">
<polygon fill="none" stroke="black" points="82.5,-38.5 82.5,-57.5 135.5,-57.5 135.5,-38.5 82.5,-38.5"/>
<text text-anchor="middle" x="109" y="-45.5" font-family="Helvetica,sans-Serif" font-size="10.00">Protocol</text>
</a>
</g>
</g>
<!-- Node0&#45;&gt;Node2 -->
<g id="edge2" class="edge">
<title>Node0&#45;&gt;Node2</title>
<path fill="none" stroke="midnightblue" d="M47.52,-48C58.7,-48 71.48,-48 82.4,-48"/>
<polygon fill="midnightblue" stroke="midnightblue" points="47.41,-44.5 37.41,-48 47.41,-51.5 47.41,-44.5"/>
</g>
<!-- Node3 -->
<g id="node4" class="node">
<title>Node3</title>
<g id="a_node4"><a xlink:href="d0/d85/class_visualization.html" target="_top" xlink:title=" ">
<polygon fill="none" stroke="black" points="73,-0.5 73,-19.5 145,-19.5 145,-0.5 73,-0.5"/>
<text text-anchor="middle" x="109" y="-7.5" font-family="Helvetica,sans-Serif" font-size="10.00">Visualization</text>
</a>
</g>
</g>
<!-- Node0&#45;&gt;Node3 -->
<g id="edge3" class="edge">
<title>Node0&#45;&gt;Node3</title>
<path fill="none" stroke="midnightblue" d="M46.87,-36.25C59.34,-30.89 73.93,-24.63 85.72,-19.57"/>
<polygon fill="midnightblue" stroke="midnightblue" points="45.22,-33.15 37.41,-40.31 47.98,-39.58 45.22,-33.15"/>
</g>
</g>
</svg>
