<?xml version="1.0" encoding="UTF-8" standalone="no"?>
<!DOCTYPE svg PUBLIC "-//W3C//DTD SVG 1.1//EN"
 "http://www.w3.org/Graphics/SVG/1.1/DTD/svg11.dtd">
<!-- Generated by graphviz version 2.44.1 (20200629.0846)
 -->
<!-- Title: C:/Users/lukac/CLionProjects/virus_real/src/utils.h Pages: 1 -->
<!--zoomable 642 -->
<svg id="main" version="1.1" xmlns="http://www.w3.org/2000/svg" xmlns:xlink="http://www.w3.org/1999/xlink" xml:space="preserve" onload="init(evt)">
<style type="text/css"><![CDATA[
.edge:hover path { stroke: red; }
.edge:hover polygon { stroke: red; fill: red; }
]]></style>
<script type="text/javascript"><![CDATA[
var edges = document.getElementsByTagName('g');
if (edges && edges.length) {
  for (var i=0;i<edges.length;i++) {
    if (edges[i].id.substr(0,4)=='edge') {
      edges[i].setAttribute('class','edge');
    }
  }
}
]]></script>
        <defs>
                <circle id="rim" cx="0" cy="0" r="7"/>
                <circle id="rim2" cx="0" cy="0" r="3.5"/>
                <g id="zoomPlus">
                        <use xlink:href="#rim" fill="#404040">
                                <set attributeName="fill" to="#808080" begin="zoomplus.mouseover" end="zoomplus.mouseout"/>
                        </use>
                        <path d="M-4,0h8M0,-4v8" fill="none" stroke="white" stroke-width="1.5" pointer-events="none"/>
                </g>
                <g id="zoomMin">
                        <use xlink:href="#rim" fill="#404040">
                                <set attributeName="fill" to="#808080" begin="zoomminus.mouseover" end="zoomminus.mouseout"/>
                        </use>
                        <path d="M-4,0h8" fill="none" stroke="white" stroke-width="1.5" pointer-events="none"/>
                </g>
                <g id="dirArrow">
                        <path fill="none" stroke="white" stroke-width="1.5" d="M0,-3.0v7 M-2.5,-0.5L0,-3.0L2.5,-0.5"/>
                </g>
               <g id="resetDef">
                       <use xlink:href="#rim2" fill="#404040">
                               <set attributeName="fill" to="#808080" begin="reset.mouseover" end="reset.mouseout"/>
                       </use>
               </g>
        </defs>

<script type="text/javascript">
var viewWidth = 1126;
var viewHeight = 642;
var sectionId = 'dynsection-1';
</script>
<script xlink:href="../../svgpan.js"/>
<svg id="graph" class="graph">
<g id="viewport">
<title>C:/Users/lukac/CLionProjects/virus_real/src/utils.h</title>
<!-- Node1 -->
<g id="node1" class="node">
<title>Node1</title>
<g id="a_node1"><a xlink:title=" ">
<polygon fill="#bfbfbf" stroke="black" points="512,-603.5 512,-633.5 657,-633.5 657,-603.5 512,-603.5"/>
<text text-anchor="start" x="520" y="-621.5" font-family="Helvetica,sans-Serif" font-size="10.00">C:/Users/lukac/CLionProjects</text>
<text text-anchor="middle" x="584.5" y="-610.5" font-family="Helvetica,sans-Serif" font-size="10.00">/virus_real/src/utils.h</text>
</a>
</g>
</g>
<!-- Node2 -->
<g id="node2" class="node">
<title>Node2</title>
<g id="a_node2"><a xlink:href="../../d1/df3/ai_8h.html" target="_top" xlink:title=" ">
<polygon fill="none" stroke="black" points="278,-268.5 278,-298.5 423,-298.5 423,-268.5 278,-268.5"/>
<text text-anchor="start" x="286" y="-286.5" font-family="Helvetica,sans-Serif" font-size="10.00">C:/Users/lukac/CLionProjects</text>
<text text-anchor="middle" x="350.5" y="-275.5" font-family="Helvetica,sans-Serif" font-size="10.00">/virus_real/src/ai.h</text>
</a>
</g>
</g>
<!-- Node1&#45;&gt;Node2 -->
<g id="edge1" class="edge">
<title>Node1&#45;&gt;Node2</title>
<path fill="none" stroke="midnightblue" d="M501.62,-605.21C391.72,-586.55 211.5,-546.62 211.5,-485.5 211.5,-485.5 211.5,-485.5 211.5,-416.5 211.5,-358.59 275.71,-318.42 316.85,-298.63"/>
<polygon fill="midnightblue" stroke="midnightblue" points="501.26,-608.7 511.7,-606.9 502.41,-601.8 501.26,-608.7"/>
</g>
<!-- Node15 -->
<g id="node15" class="node">
<title>Node15</title>
<g id="a_node15"><a xlink:href="../../dc/d5f/country_8h.html" target="_top" xlink:title=" ">
<polygon fill="none" stroke="black" points="38,-536.5 38,-566.5 183,-566.5 183,-536.5 38,-536.5"/>
<text text-anchor="start" x="46" y="-554.5" font-family="Helvetica,sans-Serif" font-size="10.00">C:/Users/lukac/CLionProjects</text>
<text text-anchor="middle" x="110.5" y="-543.5" font-family="Helvetica,sans-Serif" font-size="10.00">/virus_real/src/country.h</text>
</a>
</g>
</g>
<!-- Node1&#45;&gt;Node15 -->
<g id="edge17" class="edge">
<title>Node1&#45;&gt;Node15</title>
<path fill="none" stroke="midnightblue" d="M501.7,-607.56C423.26,-597.93 302.21,-582.55 197.5,-567 192.8,-566.3 187.97,-565.56 183.1,-564.8"/>
<polygon fill="midnightblue" stroke="midnightblue" points="501.65,-611.08 512,-608.82 502.5,-604.13 501.65,-611.08"/>
</g>
<!-- Node17 -->
<g id="node17" class="node">
<title>Node17</title>
<g id="a_node17"><a xlink:href="../../da/d15/grid_8h.html" target="_top" xlink:title=" ">
<polygon fill="none" stroke="black" points="392,-469.5 392,-499.5 537,-499.5 537,-469.5 392,-469.5"/>
<text text-anchor="start" x="400" y="-487.5" font-family="Helvetica,sans-Serif" font-size="10.00">C:/Users/lukac/CLionProjects</text>
<text text-anchor="middle" x="464.5" y="-476.5" font-family="Helvetica,sans-Serif" font-size="10.00">/virus_real/src/grid.h</text>
</a>
</g>
</g>
<!-- Node1&#45;&gt;Node17 -->
<g id="edge40" class="edge">
<title>Node1&#45;&gt;Node17</title>
<path fill="none" stroke="midnightblue" d="M564.86,-595.9C540.09,-568.65 498.21,-522.58 477.25,-499.52"/>
<polygon fill="midnightblue" stroke="midnightblue" points="562.34,-598.33 571.66,-603.37 567.52,-593.62 562.34,-598.33"/>
</g>
<!-- Node18 -->
<g id="node18" class="node">
<title>Node18</title>
<g id="a_node18"><a xlink:href="../../d2/d3d/graphalgos_8h.html" target="_top" xlink:title=" ">
<polygon fill="none" stroke="black" points="455,-335.5 455,-365.5 600,-365.5 600,-335.5 455,-335.5"/>
<text text-anchor="start" x="463" y="-353.5" font-family="Helvetica,sans-Serif" font-size="10.00">C:/Users/lukac/CLionProjects</text>
<text text-anchor="middle" x="527.5" y="-342.5" font-family="Helvetica,sans-Serif" font-size="10.00">/virus_real/src/graphalgos.h</text>
</a>
</g>
</g>
<!-- Node1&#45;&gt;Node18 -->
<g id="edge39" class="edge">
<title>Node1&#45;&gt;Node18</title>
<path fill="none" stroke="midnightblue" d="M579.34,-593.41C567.7,-539.12 539.74,-408.61 530.51,-365.55"/>
<polygon fill="midnightblue" stroke="midnightblue" points="575.92,-594.15 581.44,-603.2 582.76,-592.69 575.92,-594.15"/>
</g>
<!-- Node21 -->
<g id="node21" class="node">
<title>Node21</title>
<g id="a_node21"><a xlink:href="../../d3/daa/logic_8h.html" target="_top" xlink:title=" ">
<polygon fill="none" stroke="black" points="594,-402.5 594,-432.5 739,-432.5 739,-402.5 594,-402.5"/>
<text text-anchor="start" x="602" y="-420.5" font-family="Helvetica,sans-Serif" font-size="10.00">C:/Users/lukac/CLionProjects</text>
<text text-anchor="middle" x="666.5" y="-409.5" font-family="Helvetica,sans-Serif" font-size="10.00">/virus_real/src/logic.h</text>
</a>
</g>
</g>
<!-- Node1&#45;&gt;Node21 -->
<g id="edge41" class="edge">
<title>Node1&#45;&gt;Node21</title>
<path fill="none" stroke="midnightblue" d="M588.61,-593.27C594.39,-562.98 606.62,-510.14 627.5,-469 634.32,-455.57 644.9,-442.15 653.32,-432.53"/>
<polygon fill="midnightblue" stroke="midnightblue" points="585.13,-592.87 586.77,-603.34 592.01,-594.13 585.13,-592.87"/>
</g>
<!-- Node23 -->
<g id="node23" class="node">
<title>Node23</title>
<g id="a_node23"><a xlink:href="../../d3/df1/window_8h.html" target="_top" xlink:title=" ">
<polygon fill="none" stroke="black" points="814,-402.5 814,-432.5 959,-432.5 959,-402.5 814,-402.5"/>
<text text-anchor="start" x="822" y="-420.5" font-family="Helvetica,sans-Serif" font-size="10.00">C:/Users/lukac/CLionProjects</text>
<text text-anchor="middle" x="886.5" y="-409.5" font-family="Helvetica,sans-Serif" font-size="10.00">/virus_real/src/window.h</text>
</a>
</g>
</g>
<!-- Node1&#45;&gt;Node23 -->
<g id="edge43" class="edge">
<title>Node1&#45;&gt;Node23</title>
<path fill="none" stroke="midnightblue" d="M601.84,-595.43C616.43,-577.84 638.55,-553.36 661.5,-536 722.83,-489.61 805.09,-451.87 851.26,-432.54"/>
<polygon fill="midnightblue" stroke="midnightblue" points="598.9,-593.49 595.31,-603.46 604.33,-597.91 598.9,-593.49"/>
</g>
<!-- Node25 -->
<g id="node25" class="node">
<title>Node25</title>
<g id="a_node25"><a xlink:href="../../db/d16/debug_8h.html" target="_top" xlink:title=" ">
<polygon fill="none" stroke="black" points="670,-536.5 670,-566.5 815,-566.5 815,-536.5 670,-536.5"/>
<text text-anchor="start" x="678" y="-554.5" font-family="Helvetica,sans-Serif" font-size="10.00">C:/Users/lukac/CLionProjects</text>
<text text-anchor="middle" x="742.5" y="-543.5" font-family="Helvetica,sans-Serif" font-size="10.00">/virus_real/src/debug.h</text>
</a>
</g>
</g>
<!-- Node1&#45;&gt;Node25 -->
<g id="edge38" class="edge">
<title>Node1&#45;&gt;Node25</title>
<path fill="none" stroke="midnightblue" d="M628.15,-599.54C653.43,-589.14 684.8,-576.24 708.28,-566.58"/>
<polygon fill="midnightblue" stroke="midnightblue" points="626.7,-596.35 618.78,-603.4 629.36,-602.83 626.7,-596.35"/>
</g>
<!-- Node26 -->
<g id="node26" class="node">
<title>Node26</title>
<g id="a_node26"><a xlink:href="../../de/d06/utils_8cpp.html" target="_top" xlink:title=" ">
<polygon fill="none" stroke="black" points="833,-536.5 833,-566.5 978,-566.5 978,-536.5 833,-536.5"/>
<text text-anchor="start" x="841" y="-554.5" font-family="Helvetica,sans-Serif" font-size="10.00">C:/Users/lukac/CLionProjects</text>
<text text-anchor="middle" x="905.5" y="-543.5" font-family="Helvetica,sans-Serif" font-size="10.00">/virus_real/src/utils.cpp</text>
</a>
</g>
</g>
<!-- Node1&#45;&gt;Node26 -->
<g id="edge42" class="edge">
<title>Node1&#45;&gt;Node26</title>
<path fill="none" stroke="midnightblue" d="M663.77,-601.45C716.61,-590.75 785.41,-576.82 836.09,-566.55"/>
<polygon fill="midnightblue" stroke="midnightblue" points="662.86,-598.06 653.76,-603.48 664.25,-604.92 662.86,-598.06"/>
</g>
<!-- Node3 -->
<g id="node3" class="node">
<title>Node3</title>
<g id="a_node3"><a xlink:href="../../d1/d4a/ai_8cpp.html" target="_top" xlink:title=" ">
<polygon fill="none" stroke="black" points="278,-201.5 278,-231.5 423,-231.5 423,-201.5 278,-201.5"/>
<text text-anchor="start" x="286" y="-219.5" font-family="Helvetica,sans-Serif" font-size="10.00">C:/Users/lukac/CLionProjects</text>
<text text-anchor="middle" x="350.5" y="-208.5" font-family="Helvetica,sans-Serif" font-size="10.00">/virus_real/src/ai.cpp</text>
</a>
</g>
</g>
<!-- Node2&#45;&gt;Node3 -->
<g id="edge2" class="edge">
<title>Node2&#45;&gt;Node3</title>
<path fill="none" stroke="midnightblue" d="M350.5,-258.11C350.5,-249.15 350.5,-239.32 350.5,-231.58"/>
<polygon fill="midnightblue" stroke="midnightblue" points="347,-258.4 350.5,-268.4 354,-258.4 347,-258.4"/>
</g>
<!-- Node4 -->
<g id="node4" class="node">
<title>Node4</title>
<g id="a_node4"><a xlink:href="../../db/db2/iface_8h.html" target="_top" xlink:title=" ">
<polygon fill="none" stroke="black" points="570,-201.5 570,-231.5 715,-231.5 715,-201.5 570,-201.5"/>
<text text-anchor="start" x="578" y="-219.5" font-family="Helvetica,sans-Serif" font-size="10.00">C:/Users/lukac/CLionProjects</text>
<text text-anchor="middle" x="642.5" y="-208.5" font-family="Helvetica,sans-Serif" font-size="10.00">/virus_real/src/iface.h</text>
</a>
</g>
</g>
<!-- Node2&#45;&gt;Node4 -->
<g id="edge3" class="edge">
<title>Node2&#45;&gt;Node4</title>
<path fill="none" stroke="midnightblue" d="M423.51,-266.25C471.45,-255.58 533.55,-241.75 579.36,-231.55"/>
<polygon fill="midnightblue" stroke="midnightblue" points="422.5,-262.89 413.5,-268.48 424.02,-269.72 422.5,-262.89"/>
</g>
<!-- Node4&#45;&gt;Node4 -->
<g id="edge10" class="edge">
<title>Node4&#45;&gt;Node4</title>
<path fill="none" stroke="midnightblue" d="M725.19,-225C730.07,-222.97 733,-220.13 733,-216.5 733,-210.83 725.87,-207.11 715.29,-205.33"/>
<polygon fill="midnightblue" stroke="midnightblue" points="724.03,-221.69 715.29,-227.67 725.85,-228.45 724.03,-221.69"/>
</g>
<!-- Node5 -->
<g id="node5" class="node">
<title>Node5</title>
<g id="a_node5"><a xlink:href="../../d7/d04/graphics_8h.html" target="_top" xlink:title=" ">
<polygon fill="none" stroke="black" points="570,-134.5 570,-164.5 715,-164.5 715,-134.5 570,-134.5"/>
<text text-anchor="start" x="578" y="-152.5" font-family="Helvetica,sans-Serif" font-size="10.00">C:/Users/lukac/CLionProjects</text>
<text text-anchor="middle" x="642.5" y="-141.5" font-family="Helvetica,sans-Serif" font-size="10.00">/virus_real/src/graphics.h</text>
</a>
</g>
</g>
<!-- Node4&#45;&gt;Node5 -->
<g id="edge4" class="edge">
<title>Node4&#45;&gt;Node5</title>
<path fill="none" stroke="midnightblue" d="M642.5,-191.11C642.5,-182.15 642.5,-172.32 642.5,-164.58"/>
<polygon fill="midnightblue" stroke="midnightblue" points="639,-191.4 642.5,-201.4 646,-191.4 639,-191.4"/>
</g>
<!-- Node10 -->
<g id="node10" class="node">
<title>Node10</title>
<g id="a_node10"><a xlink:href="../../dc/d59/iface_8cpp.html" target="_top" xlink:title=" ">
<polygon fill="none" stroke="black" points="407,-134.5 407,-164.5 552,-164.5 552,-134.5 407,-134.5"/>
<text text-anchor="start" x="415" y="-152.5" font-family="Helvetica,sans-Serif" font-size="10.00">C:/Users/lukac/CLionProjects</text>
<text text-anchor="middle" x="479.5" y="-141.5" font-family="Helvetica,sans-Serif" font-size="10.00">/virus_real/src/iface.cpp</text>
</a>
</g>
</g>
<!-- Node4&#45;&gt;Node10 -->
<g id="edge9" class="edge">
<title>Node4&#45;&gt;Node10</title>
<path fill="none" stroke="midnightblue" d="M597.82,-197.68C571.67,-187.26 539.13,-174.28 514.8,-164.58"/>
<polygon fill="midnightblue" stroke="midnightblue" points="596.55,-200.94 607.13,-201.4 599.14,-194.44 596.55,-200.94"/>
</g>
<!-- Node11 -->
<g id="node11" class="node">
<title>Node11</title>
<g id="a_node11"><a xlink:href="../../d2/d5e/protocol_8h.html" target="_top" xlink:title=" ">
<polygon fill="none" stroke="black" points="733,-134.5 733,-164.5 878,-164.5 878,-134.5 733,-134.5"/>
<text text-anchor="start" x="741" y="-152.5" font-family="Helvetica,sans-Serif" font-size="10.00">C:/Users/lukac/CLionProjects</text>
<text text-anchor="middle" x="805.5" y="-141.5" font-family="Helvetica,sans-Serif" font-size="10.00">/virus_real/src/protocol.h</text>
</a>
</g>
</g>
<!-- Node4&#45;&gt;Node11 -->
<g id="edge11" class="edge">
<title>Node4&#45;&gt;Node11</title>
<path fill="none" stroke="midnightblue" d="M687.18,-197.68C713.33,-187.26 745.87,-174.28 770.2,-164.58"/>
<polygon fill="midnightblue" stroke="midnightblue" points="685.86,-194.44 677.87,-201.4 688.45,-200.94 685.86,-194.44"/>
</g>
<!-- Node13 -->
<g id="node13" class="node">
<title>Node13</title>
<g id="a_node13"><a xlink:href="../../d2/d02/visualization_8h.html" target="_top" xlink:title=" ">
<polygon fill="none" stroke="black" points="935,-134.5 935,-164.5 1080,-164.5 1080,-134.5 935,-134.5"/>
<text text-anchor="start" x="943" y="-152.5" font-family="Helvetica,sans-Serif" font-size="10.00">C:/Users/lukac/CLionProjects</text>
<text text-anchor="middle" x="1007.5" y="-141.5" font-family="Helvetica,sans-Serif" font-size="10.00">/virus_real/src/visualization.h</text>
</a>
</g>
</g>
<!-- Node4&#45;&gt;Node13 -->
<g id="edge14" class="edge">
<title>Node4&#45;&gt;Node13</title>
<path fill="none" stroke="midnightblue" d="M724.97,-200.81C788.06,-189.58 874.24,-174.23 934.78,-163.45"/>
<polygon fill="midnightblue" stroke="midnightblue" points="724.28,-197.38 715.05,-202.58 725.51,-204.27 724.28,-197.38"/>
</g>
<!-- Node6 -->
<g id="node6" class="node">
<title>Node6</title>
<g id="a_node6"><a xlink:href="../../d3/d5b/anti_virus_8h.html" target="_top" xlink:title=" ">
<polygon fill="none" stroke="black" points="357,-67.5 357,-97.5 502,-97.5 502,-67.5 357,-67.5"/>
<text text-anchor="start" x="365" y="-85.5" font-family="Helvetica,sans-Serif" font-size="10.00">C:/Users/lukac/CLionProjects</text>
<text text-anchor="middle" x="429.5" y="-74.5" font-family="Helvetica,sans-Serif" font-size="10.00">/virus_real/src/antiVirus.h</text>
</a>
</g>
</g>
<!-- Node5&#45;&gt;Node6 -->
<g id="edge5" class="edge">
<title>Node5&#45;&gt;Node6</title>
<path fill="none" stroke="midnightblue" d="M586.61,-131.44C552.08,-120.91 508.31,-107.55 475.74,-97.61"/>
<polygon fill="midnightblue" stroke="midnightblue" points="585.96,-134.9 596.54,-134.48 588,-128.21 585.96,-134.9"/>
</g>
<!-- Node9 -->
<g id="node9" class="node">
<title>Node9</title>
<g id="a_node9"><a xlink:href="../../d6/d99/graphics_8cpp.html" target="_top" xlink:title=" ">
<polygon fill="none" stroke="black" points="570,-67.5 570,-97.5 715,-97.5 715,-67.5 570,-67.5"/>
<text text-anchor="start" x="578" y="-85.5" font-family="Helvetica,sans-Serif" font-size="10.00">C:/Users/lukac/CLionProjects</text>
<text text-anchor="middle" x="642.5" y="-74.5" font-family="Helvetica,sans-Serif" font-size="10.00">/virus_real/src/graphics.cpp</text>
</a>
</g>
</g>
<!-- Node5&#45;&gt;Node9 -->
<g id="edge8" class="edge">
<title>Node5&#45;&gt;Node9</title>
<path fill="none" stroke="midnightblue" d="M642.5,-124.11C642.5,-115.15 642.5,-105.32 642.5,-97.58"/>
<polygon fill="midnightblue" stroke="midnightblue" points="639,-124.4 642.5,-134.4 646,-124.4 639,-124.4"/>
</g>
<!-- Node7 -->
<g id="node7" class="node">
<title>Node7</title>
<g id="a_node7"><a xlink:href="../../da/d6e/anti_virus_8cpp.html" target="_top" xlink:title=" ">
<polygon fill="none" stroke="black" points="357,-0.5 357,-30.5 502,-30.5 502,-0.5 357,-0.5"/>
<text text-anchor="start" x="365" y="-18.5" font-family="Helvetica,sans-Serif" font-size="10.00">C:/Users/lukac/CLionProjects</text>
<text text-anchor="middle" x="429.5" y="-7.5" font-family="Helvetica,sans-Serif" font-size="10.00">/virus_real/src/antiVirus.cpp</text>
</a>
</g>
</g>
<!-- Node6&#45;&gt;Node7 -->
<g id="edge6" class="edge">
<title>Node6&#45;&gt;Node7</title>
<path fill="none" stroke="midnightblue" d="M429.5,-57.11C429.5,-48.15 429.5,-38.32 429.5,-30.58"/>
<polygon fill="midnightblue" stroke="midnightblue" points="426,-57.4 429.5,-67.4 433,-57.4 426,-57.4"/>
</g>
<!-- Node8 -->
<g id="node8" class="node">
<title>Node8</title>
<g id="a_node8"><a xlink:href="../../df/d0a/main_8cpp.html" target="_top" xlink:title=" ">
<polygon fill="none" stroke="black" points="652,-0.5 652,-30.5 797,-30.5 797,-0.5 652,-0.5"/>
<text text-anchor="start" x="660" y="-18.5" font-family="Helvetica,sans-Serif" font-size="10.00">C:/Users/lukac/CLionProjects</text>
<text text-anchor="middle" x="724.5" y="-7.5" font-family="Helvetica,sans-Serif" font-size="10.00">/virus_real/src/main.cpp</text>
</a>
</g>
</g>
<!-- Node6&#45;&gt;Node8 -->
<g id="edge7" class="edge">
<title>Node6&#45;&gt;Node8</title>
<path fill="none" stroke="midnightblue" d="M502.95,-65.32C551.44,-54.63 614.33,-40.77 660.71,-30.55"/>
<polygon fill="midnightblue" stroke="midnightblue" points="502.16,-61.91 493.15,-67.48 503.67,-68.74 502.16,-61.91"/>
</g>
<!-- Node11&#45;&gt;Node6 -->
<g id="edge12" class="edge">
<title>Node11&#45;&gt;Node6</title>
<path fill="none" stroke="midnightblue" d="M722.31,-133.62C641.68,-119.53 559.54,-105.51 502.27,-95.8"/>
<polygon fill="midnightblue" stroke="midnightblue" points="722.19,-137.16 732.65,-135.43 723.4,-130.26 722.19,-137.16"/>
</g>
<!-- Node12 -->
<g id="node12" class="node">
<title>Node12</title>
<g id="a_node12"><a xlink:href="../../d4/d25/protocol_8cpp.html" target="_top" xlink:title=" ">
<polygon fill="none" stroke="black" points="733,-67.5 733,-97.5 878,-97.5 878,-67.5 733,-67.5"/>
<text text-anchor="start" x="741" y="-85.5" font-family="Helvetica,sans-Serif" font-size="10.00">C:/Users/lukac/CLionProjects</text>
<text text-anchor="middle" x="805.5" y="-74.5" font-family="Helvetica,sans-Serif" font-size="10.00">/virus_real/src/protocol.cpp</text>
</a>
</g>
</g>
<!-- Node11&#45;&gt;Node12 -->
<g id="edge13" class="edge">
<title>Node11&#45;&gt;Node12</title>
<path fill="none" stroke="midnightblue" d="M805.5,-124.11C805.5,-115.15 805.5,-105.32 805.5,-97.58"/>
<polygon fill="midnightblue" stroke="midnightblue" points="802,-124.4 805.5,-134.4 809,-124.4 802,-124.4"/>
</g>
<!-- Node13&#45;&gt;Node8 -->
<g id="edge15" class="edge">
<title>Node13&#45;&gt;Node8</title>
<path fill="none" stroke="midnightblue" d="M974.41,-129.05C959.52,-119.99 941.86,-108.84 926.5,-98 908.41,-85.23 907.08,-77.34 887.5,-67 856.72,-50.74 819.86,-38.77 788.98,-30.57"/>
<polygon fill="midnightblue" stroke="midnightblue" points="972.92,-132.23 983.29,-134.39 976.53,-126.24 972.92,-132.23"/>
</g>
<!-- Node14 -->
<g id="node14" class="node">
<title>Node14</title>
<g id="a_node14"><a xlink:href="../../d3/d49/visualization_8cpp.html" target="_top" xlink:title=" ">
<polygon fill="none" stroke="black" points="935,-67.5 935,-97.5 1086,-97.5 1086,-67.5 935,-67.5"/>
<text text-anchor="start" x="943" y="-85.5" font-family="Helvetica,sans-Serif" font-size="10.00">C:/Users/lukac/CLionProjects</text>
<text text-anchor="middle" x="1010.5" y="-74.5" font-family="Helvetica,sans-Serif" font-size="10.00">/virus_real/src/visualization.cpp</text>
</a>
</g>
</g>
<!-- Node13&#45;&gt;Node14 -->
<g id="edge16" class="edge">
<title>Node13&#45;&gt;Node14</title>
<path fill="none" stroke="midnightblue" d="M1008.61,-124.4C1009.03,-115.37 1009.49,-105.41 1009.85,-97.58"/>
<polygon fill="midnightblue" stroke="midnightblue" points="1005.12,-124.25 1008.15,-134.4 1012.11,-124.57 1005.12,-124.25"/>
</g>
<!-- Node15&#45;&gt;Node6 -->
<g id="edge18" class="edge">
<title>Node15&#45;&gt;Node6</title>
<path fill="none" stroke="midnightblue" d="M133.11,-529.27C140.92,-520.84 149.07,-510.62 154.5,-500 171.44,-466.89 173.5,-455.69 173.5,-418.5 173.5,-418.5 173.5,-418.5 173.5,-215.5 173.5,-132.49 281.14,-101.63 356.83,-90.19"/>
<polygon fill="midnightblue" stroke="midnightblue" points="130.57,-526.86 126.12,-536.48 135.6,-531.74 130.57,-526.86"/>
</g>
<!-- Node16 -->
<g id="node16" class="node">
<title>Node16</title>
<g id="a_node16"><a xlink:href="../../df/da4/country_8cpp.html" target="_top" xlink:title=" ">
<polygon fill="none" stroke="black" points="0,-469.5 0,-499.5 145,-499.5 145,-469.5 0,-469.5"/>
<text text-anchor="start" x="8" y="-487.5" font-family="Helvetica,sans-Serif" font-size="10.00">C:/Users/lukac/CLionProjects</text>
<text text-anchor="middle" x="72.5" y="-476.5" font-family="Helvetica,sans-Serif" font-size="10.00">/virus_real/src/country.cpp</text>
</a>
</g>
</g>
<!-- Node15&#45;&gt;Node16 -->
<g id="edge19" class="edge">
<title>Node15&#45;&gt;Node16</title>
<path fill="none" stroke="midnightblue" d="M97.1,-527.58C91.64,-518.24 85.51,-507.75 80.73,-499.58"/>
<polygon fill="midnightblue" stroke="midnightblue" points="94.19,-529.53 102.25,-536.4 100.23,-526 94.19,-529.53"/>
</g>
<!-- Node15&#45;&gt;Node17 -->
<g id="edge20" class="edge">
<title>Node15&#45;&gt;Node17</title>
<path fill="none" stroke="midnightblue" d="M193.28,-535.3C253.51,-524.24 334.28,-509.41 391.98,-498.82"/>
<polygon fill="midnightblue" stroke="midnightblue" points="192.62,-531.86 183.42,-537.11 193.89,-538.75 192.62,-531.86"/>
</g>
<!-- Node17&#45;&gt;Node2 -->
<g id="edge21" class="edge">
<title>Node17&#45;&gt;Node2</title>
<path fill="none" stroke="midnightblue" d="M381.8,-476.46C353.61,-469.63 324.85,-456.8 307.5,-433 276.67,-390.7 317.76,-326.68 339.09,-298.57"/>
<polygon fill="midnightblue" stroke="midnightblue" points="381.21,-479.91 391.73,-478.63 382.71,-473.08 381.21,-479.91"/>
</g>
<!-- Node17&#45;&gt;Node4 -->
<g id="edge27" class="edge">
<title>Node17&#45;&gt;Node4</title>
<path fill="none" stroke="midnightblue" d="M467.97,-459.24C469,-450.94 469.99,-441.58 470.5,-433 471.31,-419.25 474.49,-415.19 470.5,-402 464.93,-383.6 452.07,-384.4 446.5,-366 433.51,-323.08 437.88,-298.77 470.5,-268 497.21,-242.8 535.85,-230.1 569.73,-223.74"/>
<polygon fill="midnightblue" stroke="midnightblue" points="464.47,-459.02 466.63,-469.39 471.41,-459.94 464.47,-459.02"/>
</g>
<!-- Node17&#45;&gt;Node6 -->
<g id="edge22" class="edge">
<title>Node17&#45;&gt;Node6</title>
<path fill="none" stroke="midnightblue" d="M382.08,-473.13C351.36,-465.93 317.83,-453.71 292.5,-433 260.8,-407.08 249.5,-392.45 249.5,-351.5 249.5,-351.5 249.5,-351.5 249.5,-215.5 249.5,-151.75 323.82,-115.43 376.95,-97.6"/>
<polygon fill="midnightblue" stroke="midnightblue" points="381.43,-476.57 391.94,-475.3 382.93,-469.74 381.43,-476.57"/>
</g>
<!-- Node17&#45;&gt;Node18 -->
<g id="edge23" class="edge">
<title>Node17&#45;&gt;Node18</title>
<path fill="none" stroke="midnightblue" d="M484.28,-461.59C491.13,-453.12 498.36,-443.06 503.5,-433 514.83,-410.8 521.66,-382.39 525,-365.65"/>
<polygon fill="midnightblue" stroke="midnightblue" points="481.42,-459.55 477.66,-469.46 486.78,-464.06 481.42,-459.55"/>
</g>
<!-- Node20 -->
<g id="node20" class="node">
<title>Node20</title>
<g id="a_node20"><a xlink:href="../../d7/d70/grid_8cpp.html" target="_top" xlink:title=" ">
<polygon fill="none" stroke="black" points="316,-402.5 316,-432.5 461,-432.5 461,-402.5 316,-402.5"/>
<text text-anchor="start" x="324" y="-420.5" font-family="Helvetica,sans-Serif" font-size="10.00">C:/Users/lukac/CLionProjects</text>
<text text-anchor="middle" x="388.5" y="-409.5" font-family="Helvetica,sans-Serif" font-size="10.00">/virus_real/src/grid.cpp</text>
</a>
</g>
</g>
<!-- Node17&#45;&gt;Node20 -->
<g id="edge26" class="edge">
<title>Node17&#45;&gt;Node20</title>
<path fill="none" stroke="midnightblue" d="M440.39,-462.88C428.84,-453.01 415.31,-441.43 404.96,-432.58"/>
<polygon fill="midnightblue" stroke="midnightblue" points="438.13,-465.56 448.01,-469.4 442.68,-460.24 438.13,-465.56"/>
</g>
<!-- Node17&#45;&gt;Node21 -->
<g id="edge28" class="edge">
<title>Node17&#45;&gt;Node21</title>
<path fill="none" stroke="midnightblue" d="M518.18,-466.23C550.85,-455.71 592.07,-442.45 622.75,-432.58"/>
<polygon fill="midnightblue" stroke="midnightblue" points="516.78,-463 508.33,-469.4 518.92,-469.66 516.78,-463"/>
</g>
<!-- Node17&#45;&gt;Node23 -->
<g id="edge35" class="edge">
<title>Node17&#45;&gt;Node23</title>
<path fill="none" stroke="midnightblue" d="M547.26,-470.75C624.85,-458.8 739.72,-441.11 813.84,-429.69"/>
<polygon fill="midnightblue" stroke="midnightblue" points="546.39,-467.34 537.04,-472.33 547.46,-474.26 546.39,-467.34"/>
</g>
<!-- Node18&#45;&gt;Node2 -->
<g id="edge24" class="edge">
<title>Node18&#45;&gt;Node2</title>
<path fill="none" stroke="midnightblue" d="M479.35,-331.82C450.9,-321.37 415.37,-308.32 388.83,-298.58"/>
<polygon fill="midnightblue" stroke="midnightblue" points="478.5,-335.23 489.09,-335.4 480.91,-328.66 478.5,-335.23"/>
</g>
<!-- Node19 -->
<g id="node19" class="node">
<title>Node19</title>
<g id="a_node19"><a xlink:href="../../d0/d23/graphalgos_8cpp.html" target="_top" xlink:title=" ">
<polygon fill="none" stroke="black" points="479.5,-268.5 479.5,-298.5 625.5,-298.5 625.5,-268.5 479.5,-268.5"/>
<text text-anchor="start" x="487.5" y="-286.5" font-family="Helvetica,sans-Serif" font-size="10.00">C:/Users/lukac/CLionProjects</text>
<text text-anchor="middle" x="552.5" y="-275.5" font-family="Helvetica,sans-Serif" font-size="10.00">/virus_real/src/graphalgos.cpp</text>
</a>
</g>
</g>
<!-- Node18&#45;&gt;Node19 -->
<g id="edge25" class="edge">
<title>Node18&#45;&gt;Node19</title>
<path fill="none" stroke="midnightblue" d="M536.54,-325.99C540.08,-316.8 544.01,-306.58 547.09,-298.58"/>
<polygon fill="midnightblue" stroke="midnightblue" points="533.25,-324.81 532.92,-335.4 539.78,-327.32 533.25,-324.81"/>
</g>
<!-- Node21&#45;&gt;Node2 -->
<g id="edge29" class="edge">
<title>Node21&#45;&gt;Node2</title>
<path fill="none" stroke="midnightblue" d="M656.42,-393.37C647.02,-374.63 631.2,-349.11 609.5,-335 579.35,-315.4 488.77,-300.84 423.22,-292.52"/>
<polygon fill="midnightblue" stroke="midnightblue" points="653.29,-394.93 660.74,-402.45 659.61,-391.92 653.29,-394.93"/>
</g>
<!-- Node21&#45;&gt;Node4 -->
<g id="edge32" class="edge">
<title>Node21&#45;&gt;Node4</title>
<path fill="none" stroke="midnightblue" d="M749.12,-409.19C809.13,-400.1 875.61,-379.84 849.5,-335 816.96,-279.11 746.84,-247.64 697.26,-231.62"/>
<polygon fill="midnightblue" stroke="midnightblue" points="748.58,-405.74 739.17,-410.61 749.56,-412.67 748.58,-405.74"/>
</g>
<!-- Node21&#45;&gt;Node6 -->
<g id="edge30" class="edge">
<title>Node21&#45;&gt;Node6</title>
<path fill="none" stroke="midnightblue" d="M667.69,-392.22C667.96,-360.21 663.78,-303.79 634.5,-268 616.38,-245.86 414.17,-188.94 398.5,-165 384.4,-143.47 402.7,-114.59 416.58,-97.62"/>
<polygon fill="midnightblue" stroke="midnightblue" points="664.19,-392.36 667.44,-402.44 671.19,-392.53 664.19,-392.36"/>
</g>
<!-- Node21&#45;&gt;Node12 -->
<g id="edge34" class="edge">
<title>Node21&#45;&gt;Node12</title>
<path fill="none" stroke="midnightblue" d="M749.54,-411.18C788.24,-405.01 832.85,-392.22 865.5,-366 897.11,-340.61 906.5,-325.05 906.5,-284.5 906.5,-284.5 906.5,-284.5 906.5,-215.5 906.5,-178.31 909.23,-164.19 887.5,-134 875.88,-117.85 857.34,-105.81 840.83,-97.54"/>
<polygon fill="midnightblue" stroke="midnightblue" points="748.71,-407.76 739.32,-412.68 749.72,-414.69 748.71,-407.76"/>
</g>
<!-- Node21&#45;&gt;Node18 -->
<g id="edge31" class="edge">
<title>Node21&#45;&gt;Node18</title>
<path fill="none" stroke="midnightblue" d="M627.22,-398.13C605.13,-387.8 577.99,-375.11 557.6,-365.58"/>
<polygon fill="midnightblue" stroke="midnightblue" points="625.8,-401.33 636.34,-402.4 628.76,-394.99 625.8,-401.33"/>
</g>
<!-- Node22 -->
<g id="node22" class="node">
<title>Node22</title>
<g id="a_node22"><a xlink:href="../../de/d61/logic_8cpp.html" target="_top" xlink:title=" ">
<polygon fill="none" stroke="black" points="695,-335.5 695,-365.5 840,-365.5 840,-335.5 695,-335.5"/>
<text text-anchor="start" x="703" y="-353.5" font-family="Helvetica,sans-Serif" font-size="10.00">C:/Users/lukac/CLionProjects</text>
<text text-anchor="middle" x="767.5" y="-342.5" font-family="Helvetica,sans-Serif" font-size="10.00">/virus_real/src/logic.cpp</text>
</a>
</g>
</g>
<!-- Node21&#45;&gt;Node22 -->
<g id="edge33" class="edge">
<title>Node21&#45;&gt;Node22</title>
<path fill="none" stroke="midnightblue" d="M697.21,-396.73C712.84,-386.68 731.47,-374.68 745.63,-365.58"/>
<polygon fill="midnightblue" stroke="midnightblue" points="694.93,-394.04 688.42,-402.4 698.72,-399.93 694.93,-394.04"/>
</g>
<!-- Node23&#45;&gt;Node13 -->
<g id="edge36" class="edge">
<title>Node23&#45;&gt;Node13</title>
<path fill="none" stroke="midnightblue" d="M903.05,-394.11C908.97,-385.55 915.42,-375.56 920.5,-366 959.1,-293.3 991.43,-199.62 1002.97,-164.56"/>
<polygon fill="midnightblue" stroke="midnightblue" points="900.08,-392.23 897.15,-402.41 905.79,-396.28 900.08,-392.23"/>
</g>
<!-- Node24 -->
<g id="node24" class="node">
<title>Node24</title>
<g id="a_node24"><a xlink:href="../../d8/d8e/window_8cpp.html" target="_top" xlink:title=" ">
<polygon fill="none" stroke="black" points="973,-335.5 973,-365.5 1118,-365.5 1118,-335.5 973,-335.5"/>
<text text-anchor="start" x="981" y="-353.5" font-family="Helvetica,sans-Serif" font-size="10.00">C:/Users/lukac/CLionProjects</text>
<text text-anchor="middle" x="1045.5" y="-342.5" font-family="Helvetica,sans-Serif" font-size="10.00">/virus_real/src/window.cpp</text>
</a>
</g>
</g>
<!-- Node23&#45;&gt;Node24 -->
<g id="edge37" class="edge">
<title>Node23&#45;&gt;Node24</title>
<path fill="none" stroke="midnightblue" d="M930.42,-398.54C955.87,-388.14 987.43,-375.24 1011.07,-365.58"/>
<polygon fill="midnightblue" stroke="midnightblue" points="928.93,-395.37 921,-402.4 931.58,-401.85 928.93,-395.37"/>
</g>
</g>
</svg>
        <g id="navigator" transform="translate(0 0)" fill="#404254">
                <rect fill="#f2f5e9" fill-opacity="0.5" stroke="#606060" stroke-width=".5" x="0" y="0" width="60" height="60"/>
                <use id="zoomplus" xlink:href="#zoomPlus" x="17" y="9" onmousedown="handleZoom(evt,'in')"/>
                <use id="zoomminus" xlink:href="#zoomMin" x="42" y="9" onmousedown="handleZoom(evt,'out')"/>
                <use id="reset" xlink:href="#resetDef" x="30" y="36" onmousedown="handleReset()"/>
                <g id="arrowUp" xlink:href="#dirArrow" transform="translate(30 24)" onmousedown="handlePan(0,-1)">
                  <use xlink:href="#rim" fill="#404040">
                        <set attributeName="fill" to="#808080" begin="arrowUp.mouseover" end="arrowUp.mouseout"/>
                  </use>
                  <path fill="none" stroke="white" stroke-width="1.5" d="M0,-3.0v7 M-2.5,-0.5L0,-3.0L2.5,-0.5"/>
                </g>
                <g id="arrowRight" xlink:href="#dirArrow" transform="rotate(90) translate(36 -43)" onmousedown="handlePan(1,0)">
                  <use xlink:href="#rim" fill="#404040">
                        <set attributeName="fill" to="#808080" begin="arrowRight.mouseover" end="arrowRight.mouseout"/>
                  </use>
                  <path fill="none" stroke="white" stroke-width="1.5" d="M0,-3.0v7 M-2.5,-0.5L0,-3.0L2.5,-0.5"/>
                </g>
                <g id="arrowDown" xlink:href="#dirArrow" transform="rotate(180) translate(-30 -48)" onmousedown="handlePan(0,1)">
                  <use xlink:href="#rim" fill="#404040">
                        <set attributeName="fill" to="#808080" begin="arrowDown.mouseover" end="arrowDown.mouseout"/>
                  </use>
                  <path fill="none" stroke="white" stroke-width="1.5" d="M0,-3.0v7 M-2.5,-0.5L0,-3.0L2.5,-0.5"/>
                </g>
                <g id="arrowLeft" xlink:href="#dirArrow" transform="rotate(270) translate(-36 17)" onmousedown="handlePan(-1,0)">
                  <use xlink:href="#rim" fill="#404040">
                        <set attributeName="fill" to="#808080" begin="arrowLeft.mouseover" end="arrowLeft.mouseout"/>
                  </use>
                  <path fill="none" stroke="white" stroke-width="1.5" d="M0,-3.0v7 M-2.5,-0.5L0,-3.0L2.5,-0.5"/>
                </g>
        </g>
        <svg viewBox="0 0 15 15" width="100%" height="30px" preserveAspectRatio="xMaxYMin meet">
         <g id="arrow_out" transform="scale(0.3 0.3)">
          <a xlink:href="utils_8h__dep__incl_org.svg" target="_base">
           <rect id="button" ry="5" rx="5" y="6" x="6" height="38" width="38"
                fill="#f2f5e9" fill-opacity="0.5" stroke="#606060" stroke-width="1.0"/>
           <path id="arrow"
             d="M 11.500037,31.436501 C 11.940474,20.09759 22.043105,11.32322 32.158766,21.979434 L 37.068811,17.246167 C 37.068811,17.246167 37.088388,32 37.088388,32 L 22.160133,31.978069 C 22.160133,31.978069 26.997745,27.140456 26.997745,27.140456 C 18.528582,18.264221 13.291696,25.230495 11.500037,31.436501 z"
             style="fill:#404040;"/>
          </a>
         </g>
        </svg>
</svg>
