<?xml version="1.0" encoding="UTF-8" standalone="no"?>
<!DOCTYPE svg PUBLIC "-//W3C//DTD SVG 1.1//EN"
 "http://www.w3.org/Graphics/SVG/1.1/DTD/svg11.dtd">
<!-- Generated by graphviz version 2.44.1 (20200629.0846)
 -->
<!-- Title: AntiVirus::AntiVirus Pages: 1 -->
<!--zoomable 474 -->
<svg id="main" version="1.1" xmlns="http://www.w3.org/2000/svg" xmlns:xlink="http://www.w3.org/1999/xlink" xml:space="preserve" onload="init(evt)">
<style type="text/css"><![CDATA[
.edge:hover path { stroke: red; }
.edge:hover polygon { stroke: red; fill: red; }
]]></style>
<script type="text/javascript"><![CDATA[
var edges = document.getElementsByTagName('g');
if (edges && edges.length) {
  for (var i=0;i<edges.length;i++) {
    if (edges[i].id.substr(0,4)=='edge') {
      edges[i].setAttribute('class','edge');
    }
  }
}
]]></script>
        <defs>
                <circle id="rim" cx="0" cy="0" r="7"/>
                <circle id="rim2" cx="0" cy="0" r="3.5"/>
                <g id="zoomPlus">
                        <use xlink:href="#rim" fill="#404040">
                                <set attributeName="fill" to="#808080" begin="zoomplus.mouseover" end="zoomplus.mouseout"/>
                        </use>
                        <path d="M-4,0h8M0,-4v8" fill="none" stroke="white" stroke-width="1.5" pointer-events="none"/>
                </g>
                <g id="zoomMin">
                        <use xlink:href="#rim" fill="#404040">
                                <set attributeName="fill" to="#808080" begin="zoomminus.mouseover" end="zoomminus.mouseout"/>
                        </use>
                        <path d="M-4,0h8" fill="none" stroke="white" stroke-width="1.5" pointer-events="none"/>
                </g>
                <g id="dirArrow">
                        <path fill="none" stroke="white" stroke-width="1.5" d="M0,-3.0v7 M-2.5,-0.5L0,-3.0L2.5,-0.5"/>
                </g>
               <g id="resetDef">
                       <use xlink:href="#rim2" fill="#404040">
                               <set attributeName="fill" to="#808080" begin="reset.mouseover" end="reset.mouseout"/>
                       </use>
               </g>
        </defs>

<script type="text/javascript">
var viewWidth = 840;
var viewHeight = 474;
var sectionId = 'dynsection-1';
</script>
<script xlink:href="../../svgpan.js"/>
<svg id="graph" class="graph">
<g id="viewport">
<title>AntiVirus::AntiVirus</title>
<!-- Node1 -->
<g id="node1" class="node">
<title>Node1</title>
<g id="a_node1"><a xlink:title=" ">
<polygon fill="#bfbfbf" stroke="black" points="0,-247.5 0,-266.5 102,-266.5 102,-247.5 0,-247.5"/>
<text text-anchor="middle" x="51" y="-254.5" font-family="Helvetica,sans-Serif" font-size="10.00">AntiVirus::AntiVirus</text>
</a>
</g>
</g>
<!-- Node2 -->
<g id="node2" class="node">
<title>Node2</title>
<g id="a_node2"><a xlink:href="../../d2/d5c/class_iface.html#a5f6f4b254dab01b60361f0e4048e985b" target="_top" xlink:title=" ">
<polygon fill="none" stroke="black" points="148.5,-266.5 148.5,-285.5 222.5,-285.5 222.5,-266.5 148.5,-266.5"/>
<text text-anchor="middle" x="185.5" y="-273.5" font-family="Helvetica,sans-Serif" font-size="10.00">Iface::getGrid</text>
</a>
</g>
</g>
<!-- Node1&#45;&gt;Node2 -->
<g id="edge1" class="edge">
<title>Node1&#45;&gt;Node2</title>
<path fill="none" stroke="midnightblue" d="M102.09,-264.18C114,-265.89 126.64,-267.7 138.36,-269.38"/>
<polygon fill="midnightblue" stroke="midnightblue" points="137.98,-272.86 148.37,-270.82 138.97,-265.94 137.98,-272.86"/>
</g>
<!-- Node3 -->
<g id="node3" class="node">
<title>Node3</title>
<g id="a_node3"><a xlink:href="../../d2/d5c/class_iface.html#a6afe73763b17570a7a884ffeca597c0e" target="_top" xlink:title=" ">
<polygon fill="none" stroke="black" points="138,-228.5 138,-247.5 233,-247.5 233,-228.5 138,-228.5"/>
<text text-anchor="middle" x="185.5" y="-235.5" font-family="Helvetica,sans-Serif" font-size="10.00">Iface::initAntiVirus</text>
</a>
</g>
</g>
<!-- Node1&#45;&gt;Node3 -->
<g id="edge2" class="edge">
<title>Node1&#45;&gt;Node3</title>
<path fill="none" stroke="midnightblue" d="M102.09,-249.82C110.52,-248.61 119.32,-247.35 127.9,-246.12"/>
<polygon fill="midnightblue" stroke="midnightblue" points="128.43,-249.58 137.83,-244.69 127.44,-242.65 128.43,-249.58"/>
</g>
<!-- Node4 -->
<g id="node4" class="node">
<title>Node4</title>
<g id="a_node4"><a xlink:href="../../d2/d5c/class_iface.html#a42712663a207dad0227b8fc592c7046b" target="_top" xlink:title=" ">
<polygon fill="none" stroke="black" points="269,-228.5 269,-247.5 357,-247.5 357,-228.5 269,-228.5"/>
<text text-anchor="middle" x="313" y="-235.5" font-family="Helvetica,sans-Serif" font-size="10.00">Iface::createGrid</text>
</a>
</g>
</g>
<!-- Node3&#45;&gt;Node4 -->
<g id="edge3" class="edge">
<title>Node3&#45;&gt;Node4</title>
<path fill="none" stroke="midnightblue" d="M233.23,-238C241.56,-238 250.28,-238 258.77,-238"/>
<polygon fill="midnightblue" stroke="midnightblue" points="258.96,-241.5 268.96,-238 258.96,-234.5 258.96,-241.5"/>
</g>
<!-- Node22 -->
<g id="node22" class="node">
<title>Node22</title>
<g id="a_node22"><a xlink:href="../../da/df6/class_logic.html#ad75934b1d5b2304e6999be5e6c708ee9" target="_top" xlink:title=" ">
<polygon fill="none" stroke="black" points="597.5,-342.5 597.5,-361.5 674.5,-361.5 674.5,-342.5 597.5,-342.5"/>
<text text-anchor="middle" x="636" y="-349.5" font-family="Helvetica,sans-Serif" font-size="10.00">Logic::setGrid</text>
</a>
</g>
</g>
<!-- Node3&#45;&gt;Node22 -->
<g id="edge27" class="edge">
<title>Node3&#45;&gt;Node22</title>
<path fill="none" stroke="midnightblue" d="M216.17,-247.61C222.03,-250.18 227.92,-253.3 233,-257 322.24,-321.99 292.9,-400.43 393,-447 450.62,-473.81 477.03,-470.72 536,-447 574.46,-431.53 606.38,-393.19 622.88,-370.23"/>
<polygon fill="midnightblue" stroke="midnightblue" points="625.96,-371.92 628.8,-361.71 620.22,-367.92 625.96,-371.92"/>
</g>
<!-- Node24 -->
<g id="node24" class="node">
<title>Node24</title>
<g id="a_node24"><a xlink:href="../../d2/d5c/class_iface.html#a80a0218c178e79abcdf8b2a62785460e" target="_top" xlink:title=" ">
<polygon fill="none" stroke="black" points="281.5,-190.5 281.5,-209.5 344.5,-209.5 344.5,-190.5 281.5,-190.5"/>
<text text-anchor="middle" x="313" y="-197.5" font-family="Helvetica,sans-Serif" font-size="10.00">Iface::login</text>
</a>
</g>
</g>
<!-- Node3&#45;&gt;Node24 -->
<g id="edge26" class="edge">
<title>Node3&#45;&gt;Node24</title>
<path fill="none" stroke="midnightblue" d="M218.17,-228.41C234.32,-223.52 254.13,-217.52 271.39,-212.3"/>
<polygon fill="midnightblue" stroke="midnightblue" points="272.65,-215.57 281.21,-209.32 270.62,-208.87 272.65,-215.57"/>
</g>
<!-- Node5 -->
<g id="node5" class="node">
<title>Node5</title>
<g id="a_node5"><a xlink:href="../../d6/d85/class_district.html#a9f7a3cbb12d5136cb3f4d4b73b34a02c" target="_top" xlink:title=" ">
<polygon fill="none" stroke="black" points="399,-380.5 399,-399.5 530,-399.5 530,-380.5 399,-380.5"/>
<text text-anchor="middle" x="464.5" y="-387.5" font-family="Helvetica,sans-Serif" font-size="10.00">District::addAssignedField</text>
</a>
</g>
</g>
<!-- Node4&#45;&gt;Node5 -->
<g id="edge4" class="edge">
<title>Node4&#45;&gt;Node5</title>
<path fill="none" stroke="midnightblue" d="M316.93,-247.77C324.87,-272.46 349.14,-337.72 393,-371 395.49,-372.89 398.16,-374.6 400.95,-376.13"/>
<polygon fill="midnightblue" stroke="midnightblue" points="399.65,-379.39 410.19,-380.48 402.63,-373.05 399.65,-379.39"/>
</g>
<!-- Node6 -->
<g id="node6" class="node">
<title>Node6</title>
<g id="a_node6"><a xlink:href="../../da/d74/class_grid.html#abdd458bd78d4706e78808fb63a6170a7" target="_top" xlink:title=" ">
<polygon fill="none" stroke="black" points="421,-342.5 421,-361.5 508,-361.5 508,-342.5 421,-342.5"/>
<text text-anchor="middle" x="464.5" y="-349.5" font-family="Helvetica,sans-Serif" font-size="10.00">Grid::addDistrict</text>
</a>
</g>
</g>
<!-- Node4&#45;&gt;Node6 -->
<g id="edge5" class="edge">
<title>Node4&#45;&gt;Node6</title>
<path fill="none" stroke="midnightblue" d="M319.32,-247.77C330.38,-267.12 357.79,-310.42 393,-333 398.46,-336.5 404.56,-339.36 410.82,-341.7"/>
<polygon fill="midnightblue" stroke="midnightblue" points="410.13,-345.16 420.72,-344.96 412.31,-338.51 410.13,-345.16"/>
</g>
<!-- Node7 -->
<g id="node7" class="node">
<title>Node7</title>
<g id="a_node7"><a xlink:href="../../da/d74/class_grid.html#ad9cadb90346ea7b7414fb8acd93c30e1" target="_top" xlink:title=" ">
<polygon fill="none" stroke="black" points="426,-304.5 426,-323.5 503,-323.5 503,-304.5 426,-304.5"/>
<text text-anchor="middle" x="464.5" y="-311.5" font-family="Helvetica,sans-Serif" font-size="10.00">Grid::addField</text>
</a>
</g>
</g>
<!-- Node4&#45;&gt;Node7 -->
<g id="edge6" class="edge">
<title>Node4&#45;&gt;Node7</title>
<path fill="none" stroke="midnightblue" d="M324.7,-247.69C339.17,-260.32 366.27,-282.28 393,-295 400.16,-298.41 408.04,-301.29 415.85,-303.69"/>
<polygon fill="midnightblue" stroke="midnightblue" points="415.07,-307.11 425.64,-306.48 416.99,-300.37 415.07,-307.11"/>
</g>
<!-- Node8 -->
<g id="node8" class="node">
<title>Node8</title>
<g id="a_node8"><a xlink:href="../../d6/d85/class_district.html#ade42602c645580a72e6d9e2c034905da" target="_top" xlink:title=" ">
<polygon fill="none" stroke="black" points="393,-266.5 393,-285.5 536,-285.5 536,-266.5 393,-266.5"/>
<text text-anchor="middle" x="464.5" y="-273.5" font-family="Helvetica,sans-Serif" font-size="10.00">District::addNeighbourDistrict</text>
</a>
</g>
</g>
<!-- Node4&#45;&gt;Node8 -->
<g id="edge7" class="edge">
<title>Node4&#45;&gt;Node8</title>
<path fill="none" stroke="midnightblue" d="M351.73,-247.59C371.28,-252.56 395.35,-258.68 416.14,-263.96"/>
<polygon fill="midnightblue" stroke="midnightblue" points="415.49,-267.41 426.05,-266.48 417.22,-260.62 415.49,-267.41"/>
</g>
<!-- Node9 -->
<g id="node9" class="node">
<title>Node9</title>
<g id="a_node9"><a xlink:href="../../da/d74/class_grid.html#a258fdb0fb8bc7f13cad6637d40a7f20c" target="_top" xlink:title=" ">
<polygon fill="none" stroke="black" points="405,-190.5 405,-209.5 524,-209.5 524,-190.5 405,-190.5"/>
<text text-anchor="middle" x="464.5" y="-197.5" font-family="Helvetica,sans-Serif" font-size="10.00">Grid::getDistrictByPoint</text>
</a>
</g>
</g>
<!-- Node4&#45;&gt;Node9 -->
<g id="edge8" class="edge">
<title>Node4&#45;&gt;Node9</title>
<path fill="none" stroke="midnightblue" d="M351.73,-228.41C371.28,-223.44 395.35,-217.32 416.14,-212.04"/>
<polygon fill="midnightblue" stroke="midnightblue" points="417.22,-215.38 426.05,-209.52 415.49,-208.59 417.22,-215.38"/>
</g>
<!-- Node11 -->
<g id="node11" class="node">
<title>Node11</title>
<g id="a_node11"><a xlink:href="../../da/d74/class_grid.html#aff3d5bc3ea4e8da08e0a78d7f73f0084" target="_top" xlink:title=" ">
<polygon fill="none" stroke="black" points="581,-147.5 581,-166.5 691,-166.5 691,-147.5 581,-147.5"/>
<text text-anchor="middle" x="636" y="-154.5" font-family="Helvetica,sans-Serif" font-size="10.00">Grid::getFieldByPoint</text>
</a>
</g>
</g>
<!-- Node4&#45;&gt;Node11 -->
<g id="edge15" class="edge">
<title>Node4&#45;&gt;Node11</title>
<path fill="none" stroke="midnightblue" d="M340.36,-228.33C346.08,-225.7 351.93,-222.57 357,-219 376.01,-205.59 372.11,-191.24 393,-181 448.51,-153.8 519.68,-149.86 570.44,-151.48"/>
<polygon fill="midnightblue" stroke="midnightblue" points="570.5,-154.98 580.63,-151.88 570.78,-147.99 570.5,-154.98"/>
</g>
<!-- Node15 -->
<g id="node15" class="node">
<title>Node15</title>
<g id="a_node15"><a xlink:href="../../d6/d85/class_district.html#af11816ea48d5c0e7073fcef4af5d504c" target="_top" xlink:title=" ">
<polygon fill="none" stroke="black" points="411,-114.5 411,-133.5 518,-133.5 518,-114.5 411,-114.5"/>
<text text-anchor="middle" x="464.5" y="-121.5" font-family="Helvetica,sans-Serif" font-size="10.00">District::getDistrictID</text>
</a>
</g>
</g>
<!-- Node4&#45;&gt;Node15 -->
<g id="edge14" class="edge">
<title>Node4&#45;&gt;Node15</title>
<path fill="none" stroke="midnightblue" d="M342.99,-228.49C348.05,-225.95 352.97,-222.82 357,-219 382.67,-194.66 366.28,-171.19 393,-148 397.74,-143.88 403.22,-140.47 408.99,-137.63"/>
<polygon fill="midnightblue" stroke="midnightblue" points="410.44,-140.82 418.22,-133.63 407.66,-134.39 410.44,-140.82"/>
</g>
<!-- Node16 -->
<g id="node16" class="node">
<title>Node16</title>
<g id="a_node16"><a xlink:href="../../da/d74/class_grid.html#ae7393bc74ab867cc3f4409c70d80351b" target="_top" xlink:title=" ">
<polygon fill="none" stroke="black" points="423.5,-76.5 423.5,-95.5 505.5,-95.5 505.5,-76.5 423.5,-76.5"/>
<text text-anchor="middle" x="464.5" y="-83.5" font-family="Helvetica,sans-Serif" font-size="10.00">Grid::getHeight</text>
</a>
</g>
</g>
<!-- Node4&#45;&gt;Node16 -->
<g id="edge16" class="edge">
<title>Node4&#45;&gt;Node16</title>
<path fill="none" stroke="midnightblue" d="M344.84,-228.3C349.36,-225.83 353.62,-222.77 357,-219 392.44,-179.42 354.64,-141.76 393,-105 398.79,-99.45 406.03,-95.48 413.64,-92.66"/>
<polygon fill="midnightblue" stroke="midnightblue" points="414.88,-95.94 423.4,-89.65 412.82,-89.25 414.88,-95.94"/>
</g>
<!-- Node17 -->
<g id="node17" class="node">
<title>Node17</title>
<g id="a_node17"><a xlink:href="../../d1/d22/class_utils_1_1_point.html#adedde8c4c0d9e7efeb415929a10ef8db" target="_top" xlink:title=" ">
<polygon fill="none" stroke="black" points="398,-0.5 398,-19.5 531,-19.5 531,-0.5 398,-0.5"/>
<text text-anchor="middle" x="464.5" y="-7.5" font-family="Helvetica,sans-Serif" font-size="10.00">Utils::Point::getNeighbours</text>
</a>
</g>
</g>
<!-- Node4&#45;&gt;Node17 -->
<g id="edge17" class="edge">
<title>Node4&#45;&gt;Node17</title>
<path fill="none" stroke="midnightblue" d="M345.67,-228.39C349.98,-225.92 353.96,-222.84 357,-219 410.44,-151.69 334.58,-92.04 393,-29 394.21,-27.69 395.51,-26.47 396.87,-25.32"/>
<polygon fill="midnightblue" stroke="midnightblue" points="398.98,-28.12 405.32,-19.63 395.07,-22.31 398.98,-28.12"/>
</g>
<!-- Node20 -->
<g id="node20" class="node">
<title>Node20</title>
<g id="a_node20"><a xlink:href="../../da/d74/class_grid.html#a862cf2f474e31195bea649b08cfb7b46" target="_top" xlink:title=" ">
<polygon fill="none" stroke="black" points="424.5,-38.5 424.5,-57.5 504.5,-57.5 504.5,-38.5 424.5,-38.5"/>
<text text-anchor="middle" x="464.5" y="-45.5" font-family="Helvetica,sans-Serif" font-size="10.00">Grid::getWidth</text>
</a>
</g>
</g>
<!-- Node4&#45;&gt;Node20 -->
<g id="edge22" class="edge">
<title>Node4&#45;&gt;Node20</title>
<path fill="none" stroke="midnightblue" d="M345.52,-228.26C349.84,-225.81 353.87,-222.77 357,-219 401.39,-165.62 344.67,-116.84 393,-67 398.83,-60.98 406.36,-56.81 414.31,-53.92"/>
<polygon fill="midnightblue" stroke="midnightblue" points="415.54,-57.21 424.13,-51.01 413.55,-50.5 415.54,-57.21"/>
</g>
<!-- Node21 -->
<g id="node21" class="node">
<title>Node21</title>
<g id="a_node21"><a xlink:href="../../d2/d5c/class_iface.html#aa5b85524eb9b9430432f3705fa7de007" target="_top" xlink:title=" ">
<polygon fill="none" stroke="black" points="427.5,-228.5 427.5,-247.5 501.5,-247.5 501.5,-228.5 427.5,-228.5"/>
<text text-anchor="middle" x="464.5" y="-235.5" font-family="Helvetica,sans-Serif" font-size="10.00">Iface::setGrid</text>
</a>
</g>
</g>
<!-- Node4&#45;&gt;Node21 -->
<g id="edge23" class="edge">
<title>Node4&#45;&gt;Node21</title>
<path fill="none" stroke="midnightblue" d="M357.24,-238C376.1,-238 398.24,-238 417.41,-238"/>
<polygon fill="midnightblue" stroke="midnightblue" points="417.42,-241.5 427.42,-238 417.42,-234.5 417.42,-241.5"/>
</g>
<!-- Node23 -->
<g id="node23" class="node">
<title>Node23</title>
<g id="a_node23"><a xlink:href="../../da/d74/class_grid.html#ab01d308d002c421f7d3502e9af78a1d8" target="_top" xlink:title=" ">
<polygon fill="none" stroke="black" points="413.5,-418.5 413.5,-437.5 515.5,-437.5 515.5,-418.5 413.5,-418.5"/>
<text text-anchor="middle" x="464.5" y="-425.5" font-family="Helvetica,sans-Serif" font-size="10.00">Grid::setGridFieldID</text>
</a>
</g>
</g>
<!-- Node4&#45;&gt;Node23 -->
<g id="edge25" class="edge">
<title>Node4&#45;&gt;Node23</title>
<path fill="none" stroke="midnightblue" d="M315.58,-247.87C320.79,-277.19 340.25,-364.51 393,-409 396.32,-411.8 400.03,-414.2 403.94,-416.24"/>
<polygon fill="midnightblue" stroke="midnightblue" points="402.83,-419.58 413.39,-420.4 405.65,-413.17 402.83,-419.58"/>
</g>
<!-- Node10 -->
<g id="node10" class="node">
<title>Node10</title>
<g id="a_node10"><a xlink:href="../../da/d74/class_grid.html#af60e6e64cac90b7d38132dc6560b2052" target="_top" xlink:title=" ">
<polygon fill="none" stroke="black" points="583,-190.5 583,-209.5 689,-209.5 689,-190.5 583,-190.5"/>
<text text-anchor="middle" x="636" y="-197.5" font-family="Helvetica,sans-Serif" font-size="10.00">Grid::getDistrictByID</text>
</a>
</g>
</g>
<!-- Node9&#45;&gt;Node10 -->
<g id="edge9" class="edge">
<title>Node9&#45;&gt;Node10</title>
<path fill="none" stroke="midnightblue" d="M524.31,-200C539.92,-200 556.82,-200 572.62,-200"/>
<polygon fill="midnightblue" stroke="midnightblue" points="572.81,-203.5 582.81,-200 572.81,-196.5 572.81,-203.5"/>
</g>
<!-- Node9&#45;&gt;Node11 -->
<g id="edge10" class="edge">
<title>Node9&#45;&gt;Node11</title>
<path fill="none" stroke="midnightblue" d="M503.12,-190.46C528.02,-184.14 560.9,-175.8 587.59,-169.03"/>
<polygon fill="midnightblue" stroke="midnightblue" points="588.66,-172.37 597.49,-166.52 586.93,-165.58 588.66,-172.37"/>
</g>
<!-- Node12 -->
<g id="node12" class="node">
<title>Node12</title>
<g id="a_node12"><a xlink:href="../../da/d74/class_grid.html#a3618702f7872969eedc6e8817dc26776" target="_top" xlink:title=" ">
<polygon fill="none" stroke="black" points="736,-147.5 736,-166.5 832,-166.5 832,-147.5 736,-147.5"/>
<text text-anchor="middle" x="784" y="-154.5" font-family="Helvetica,sans-Serif" font-size="10.00">Grid::getFieldByID</text>
</a>
</g>
</g>
<!-- Node11&#45;&gt;Node12 -->
<g id="edge11" class="edge">
<title>Node11&#45;&gt;Node12</title>
<path fill="none" stroke="midnightblue" d="M691.37,-157C702.54,-157 714.34,-157 725.61,-157"/>
<polygon fill="midnightblue" stroke="midnightblue" points="725.79,-160.5 735.79,-157 725.79,-153.5 725.79,-160.5"/>
</g>
<!-- Node13 -->
<g id="node13" class="node">
<title>Node13</title>
<g id="a_node13"><a xlink:href="../../d1/d22/class_utils_1_1_point.html#a4fd453f573c399f7195a8982268a9f55" target="_top" xlink:title=" ">
<polygon fill="none" stroke="black" points="739.5,-100.5 739.5,-119.5 828.5,-119.5 828.5,-100.5 739.5,-100.5"/>
<text text-anchor="middle" x="784" y="-107.5" font-family="Helvetica,sans-Serif" font-size="10.00">Utils::Point::getX</text>
</a>
</g>
</g>
<!-- Node11&#45;&gt;Node13 -->
<g id="edge12" class="edge">
<title>Node11&#45;&gt;Node13</title>
<path fill="none" stroke="midnightblue" d="M666.55,-147.49C688.74,-140.35 719.35,-130.49 743.62,-122.68"/>
<polygon fill="midnightblue" stroke="midnightblue" points="744.8,-125.97 753.25,-119.58 742.66,-119.31 744.8,-125.97"/>
</g>
<!-- Node14 -->
<g id="node14" class="node">
<title>Node14</title>
<g id="a_node14"><a xlink:href="../../d1/d22/class_utils_1_1_point.html#a62ce3a4ededc21a4f417bf18e357fc8e" target="_top" xlink:title=" ">
<polygon fill="none" stroke="black" points="738.5,-43.5 738.5,-62.5 829.5,-62.5 829.5,-43.5 738.5,-43.5"/>
<text text-anchor="middle" x="784" y="-50.5" font-family="Helvetica,sans-Serif" font-size="10.00">Utils::Point::getY</text>
</a>
</g>
</g>
<!-- Node11&#45;&gt;Node14 -->
<g id="edge13" class="edge">
<title>Node11&#45;&gt;Node14</title>
<path fill="none" stroke="midnightblue" d="M650.47,-147.4C675.79,-129.37 730.65,-90.29 761.26,-68.49"/>
<polygon fill="midnightblue" stroke="midnightblue" points="763.44,-71.23 769.56,-62.57 759.38,-65.53 763.44,-71.23"/>
</g>
<!-- Node18 -->
<g id="node18" class="node">
<title>Node18</title>
<g id="a_node18"><a xlink:href="../../d1/d22/class_utils_1_1_point.html#ac6478449387ca5e2f34511ad421785d7" target="_top" xlink:title=" ">
<polygon fill="none" stroke="black" points="589.5,-43.5 589.5,-62.5 682.5,-62.5 682.5,-43.5 589.5,-43.5"/>
<text text-anchor="middle" x="636" y="-50.5" font-family="Helvetica,sans-Serif" font-size="10.00">Utils::Point::Point</text>
</a>
</g>
</g>
<!-- Node17&#45;&gt;Node18 -->
<g id="edge18" class="edge">
<title>Node17&#45;&gt;Node18</title>
<path fill="none" stroke="midnightblue" d="M503.12,-19.54C528.02,-25.86 560.9,-34.2 587.59,-40.97"/>
<polygon fill="midnightblue" stroke="midnightblue" points="586.93,-44.42 597.49,-43.48 588.66,-37.63 586.93,-44.42"/>
</g>
<!-- Node19 -->
<g id="node19" class="node">
<title>Node19</title>
<g id="a_node19"><a xlink:href="../../d1/d22/class_utils_1_1_point.html#a1563d88d568349cd8e76904c25671594" target="_top" xlink:title=" ">
<polygon fill="none" stroke="black" points="572,-5.5 572,-24.5 700,-24.5 700,-5.5 572,-5.5"/>
<text text-anchor="middle" x="636" y="-12.5" font-family="Helvetica,sans-Serif" font-size="10.00">Utils::Point::withinBounds</text>
</a>
</g>
</g>
<!-- Node17&#45;&gt;Node19 -->
<g id="edge19" class="edge">
<title>Node17&#45;&gt;Node19</title>
<path fill="none" stroke="midnightblue" d="M531.03,-11.93C541.09,-12.23 551.54,-12.54 561.75,-12.84"/>
<polygon fill="midnightblue" stroke="midnightblue" points="561.77,-16.34 571.87,-13.14 561.98,-9.34 561.77,-16.34"/>
</g>
<!-- Node19&#45;&gt;Node13 -->
<g id="edge20" class="edge">
<title>Node19&#45;&gt;Node13</title>
<path fill="none" stroke="midnightblue" d="M679.66,-24.55C686.73,-27.06 693.78,-30.16 700,-34 719.8,-46.21 718.92,-56.21 736,-72 744.23,-79.61 753.79,-87.49 762.12,-94.09"/>
<polygon fill="midnightblue" stroke="midnightblue" points="760.22,-97.04 770.25,-100.43 764.52,-91.52 760.22,-97.04"/>
</g>
<!-- Node19&#45;&gt;Node14 -->
<g id="edge21" class="edge">
<title>Node19&#45;&gt;Node14</title>
<path fill="none" stroke="midnightblue" d="M673.84,-24.59C692.85,-29.54 716.23,-35.62 736.47,-40.89"/>
<polygon fill="midnightblue" stroke="midnightblue" points="735.86,-44.35 746.42,-43.48 737.63,-37.57 735.86,-44.35"/>
</g>
<!-- Node21&#45;&gt;Node22 -->
<g id="edge24" class="edge">
<title>Node21&#45;&gt;Node22</title>
<path fill="none" stroke="midnightblue" d="M501.64,-244.07C513.1,-246.94 525.51,-251.08 536,-257 571.55,-277.07 603.87,-312.85 621.35,-334.3"/>
<polygon fill="midnightblue" stroke="midnightblue" points="618.74,-336.64 627.71,-342.28 624.21,-332.28 618.74,-336.64"/>
</g>
</g>
</svg>
        <g id="navigator" transform="translate(0 0)" fill="#404254">
                <rect fill="#f2f5e9" fill-opacity="0.5" stroke="#606060" stroke-width=".5" x="0" y="0" width="60" height="60"/>
                <use id="zoomplus" xlink:href="#zoomPlus" x="17" y="9" onmousedown="handleZoom(evt,'in')"/>
                <use id="zoomminus" xlink:href="#zoomMin" x="42" y="9" onmousedown="handleZoom(evt,'out')"/>
                <use id="reset" xlink:href="#resetDef" x="30" y="36" onmousedown="handleReset()"/>
                <g id="arrowUp" xlink:href="#dirArrow" transform="translate(30 24)" onmousedown="handlePan(0,-1)">
                  <use xlink:href="#rim" fill="#404040">
                        <set attributeName="fill" to="#808080" begin="arrowUp.mouseover" end="arrowUp.mouseout"/>
                  </use>
                  <path fill="none" stroke="white" stroke-width="1.5" d="M0,-3.0v7 M-2.5,-0.5L0,-3.0L2.5,-0.5"/>
                </g>
                <g id="arrowRight" xlink:href="#dirArrow" transform="rotate(90) translate(36 -43)" onmousedown="handlePan(1,0)">
                  <use xlink:href="#rim" fill="#404040">
                        <set attributeName="fill" to="#808080" begin="arrowRight.mouseover" end="arrowRight.mouseout"/>
                  </use>
                  <path fill="none" stroke="white" stroke-width="1.5" d="M0,-3.0v7 M-2.5,-0.5L0,-3.0L2.5,-0.5"/>
                </g>
                <g id="arrowDown" xlink:href="#dirArrow" transform="rotate(180) translate(-30 -48)" onmousedown="handlePan(0,1)">
                  <use xlink:href="#rim" fill="#404040">
                        <set attributeName="fill" to="#808080" begin="arrowDown.mouseover" end="arrowDown.mouseout"/>
                  </use>
                  <path fill="none" stroke="white" stroke-width="1.5" d="M0,-3.0v7 M-2.5,-0.5L0,-3.0L2.5,-0.5"/>
                </g>
                <g id="arrowLeft" xlink:href="#dirArrow" transform="rotate(270) translate(-36 17)" onmousedown="handlePan(-1,0)">
                  <use xlink:href="#rim" fill="#404040">
                        <set attributeName="fill" to="#808080" begin="arrowLeft.mouseover" end="arrowLeft.mouseout"/>
                  </use>
                  <path fill="none" stroke="white" stroke-width="1.5" d="M0,-3.0v7 M-2.5,-0.5L0,-3.0L2.5,-0.5"/>
                </g>
        </g>
        <svg viewBox="0 0 15 15" width="100%" height="30px" preserveAspectRatio="xMaxYMin meet">
         <g id="arrow_out" transform="scale(0.3 0.3)">
          <a xlink:href="class_anti_virus_a3b3aed962d274c4333a8c9ac191816a0_cgraph_org.svg" target="_base">
           <rect id="button" ry="5" rx="5" y="6" x="6" height="38" width="38"
                fill="#f2f5e9" fill-opacity="0.5" stroke="#606060" stroke-width="1.0"/>
           <path id="arrow"
             d="M 11.500037,31.436501 C 11.940474,20.09759 22.043105,11.32322 32.158766,21.979434 L 37.068811,17.246167 C 37.068811,17.246167 37.088388,32 37.088388,32 L 22.160133,31.978069 C 22.160133,31.978069 26.997745,27.140456 26.997745,27.140456 C 18.528582,18.264221 13.291696,25.230495 11.500037,31.436501 z"
             style="fill:#404040;"/>
          </a>
         </g>
        </svg>
</svg>
