<?xml version="1.0" encoding="UTF-8" standalone="no"?>
<!DOCTYPE svg PUBLIC "-//W3C//DTD SVG 1.1//EN"
 "http://www.w3.org/Graphics/SVG/1.1/DTD/svg11.dtd">
<!-- Generated by graphviz version 2.44.1 (20200629.0846)
 -->
<!-- Title: Utils::ScoreHolder::getVaccinesNeededForHealing Pages: 1 -->
<svg width="361pt" height="88pt"
 viewBox="0.00 0.00 361.00 88.00" xmlns="http://www.w3.org/2000/svg" xmlns:xlink="http://www.w3.org/1999/xlink">
<g id="graph0" class="graph" transform="scale(1 1) rotate(0) translate(4 84)">
<title>Utils::ScoreHolder::getVaccinesNeededForHealing</title>
<!-- Node1 -->
<g id="node1" class="node">
<title>Node1</title>
<g id="a_node1"><a xlink:title=" ">
<polygon fill="#bfbfbf" stroke="black" points="197,-24.5 197,-54.5 353,-54.5 353,-24.5 197,-24.5"/>
<text text-anchor="start" x="205" y="-42.5" font-family="Helvetica,sans-Serif" font-size="10.00">Utils::ScoreHolder</text>
<text text-anchor="middle" x="275" y="-31.5" font-family="Helvetica,sans-Serif" font-size="10.00">::getVaccinesNeededForHealing</text>
</a>
</g>
</g>
<!-- Node2 -->
<g id="node2" class="node">
<title>Node2</title>
<g id="a_node2"><a xlink:href="../../de/d61/class_utils_1_1_compare_1_1_total_healing.html#a80f52d1e1b56abcd6957da17ec5807fa" target="_top" xlink:title=" ">
<polygon fill="none" stroke="black" points="10.5,-49.5 10.5,-79.5 150.5,-79.5 150.5,-49.5 10.5,-49.5"/>
<text text-anchor="start" x="18.5" y="-67.5" font-family="Helvetica,sans-Serif" font-size="10.00">Utils::Compare::TotalHealing</text>
<text text-anchor="middle" x="80.5" y="-56.5" font-family="Helvetica,sans-Serif" font-size="10.00">::operator()</text>
</a>
</g>
</g>
<!-- Node1&#45;&gt;Node2 -->
<g id="edge1" class="edge">
<title>Node1&#45;&gt;Node2</title>
<path fill="none" stroke="midnightblue" d="M186.71,-50.84C174.61,-52.41 162.32,-54 150.62,-55.52"/>
<polygon fill="midnightblue" stroke="midnightblue" points="187.35,-54.28 196.81,-49.52 186.44,-47.34 187.35,-54.28"/>
</g>
<!-- Node3 -->
<g id="node3" class="node">
<title>Node3</title>
<g id="a_node3"><a xlink:href="../../d8/dfb/class_utils_1_1_compare_1_1_minimal_vaccines_to_heal.html#a8ade2351641e8c262a40020e1a7e44d3" target="_top" xlink:title=" ">
<polygon fill="none" stroke="black" points="0,-0.5 0,-30.5 161,-30.5 161,-0.5 0,-0.5"/>
<text text-anchor="start" x="8" y="-18.5" font-family="Helvetica,sans-Serif" font-size="10.00">Utils::Compare::MinimalVaccines</text>
<text text-anchor="middle" x="80.5" y="-7.5" font-family="Helvetica,sans-Serif" font-size="10.00">ToHeal::operator()</text>
</a>
</g>
</g>
<!-- Node1&#45;&gt;Node3 -->
<g id="edge2" class="edge">
<title>Node1&#45;&gt;Node3</title>
<path fill="none" stroke="midnightblue" d="M186.85,-28.63C178.31,-27.57 169.68,-26.49 161.22,-25.44"/>
<polygon fill="midnightblue" stroke="midnightblue" points="186.46,-32.11 196.81,-29.88 187.32,-25.17 186.46,-32.11"/>
</g>
</g>
</svg>
