<?xml version="1.0" encoding="UTF-8" standalone="no"?>
<!DOCTYPE svg PUBLIC "-//W3C//DTD SVG 1.1//EN"
 "http://www.w3.org/Graphics/SVG/1.1/DTD/svg11.dtd">
<!-- Generated by graphviz version 2.44.1 (20200629.0846)
 -->
<!-- Title: Country::getTotalProductionCapacity Pages: 1 -->
<svg width="754pt" height="104pt"
 viewBox="0.00 0.00 754.00 104.00" xmlns="http://www.w3.org/2000/svg" xmlns:xlink="http://www.w3.org/1999/xlink">
<g id="graph0" class="graph" transform="scale(1 1) rotate(0) translate(4 100)">
<title>Country::getTotalProductionCapacity</title>
<!-- Node1 -->
<g id="node1" class="node">
<title>Node1</title>
<g id="a_node1"><a xlink:title=" ">
<polygon fill="#bfbfbf" stroke="black" points="609,-33 609,-63 746,-63 746,-33 609,-33"/>
<text text-anchor="start" x="617" y="-51" font-family="Helvetica,sans-Serif" font-size="10.00">Country::getTotalProduction</text>
<text text-anchor="middle" x="677.5" y="-40" font-family="Helvetica,sans-Serif" font-size="10.00">Capacity</text>
</a>
</g>
</g>
<!-- Node2 -->
<g id="node2" class="node">
<title>Node2</title>
<g id="a_node2"><a xlink:href="../../da/d74/class_grid.html#a100932ff6ef1862637eb732683c2d720" target="_top" xlink:title=" ">
<polygon fill="none" stroke="black" points="480.5,-76.5 480.5,-95.5 570.5,-95.5 570.5,-76.5 480.5,-76.5"/>
<text text-anchor="middle" x="525.5" y="-83.5" font-family="Helvetica,sans-Serif" font-size="10.00">Grid::addCountry</text>
</a>
</g>
</g>
<!-- Node1&#45;&gt;Node2 -->
<g id="edge1" class="edge">
<title>Node1&#45;&gt;Node2</title>
<path fill="none" stroke="midnightblue" d="M607.5,-65.48C592.6,-69.25 577.39,-73.11 564.22,-76.44"/>
<polygon fill="midnightblue" stroke="midnightblue" points="608.38,-68.87 617.22,-63.02 606.66,-62.08 608.38,-68.87"/>
</g>
<!-- Node7 -->
<g id="node7" class="node">
<title>Node7</title>
<g id="a_node7"><a xlink:href="../../df/da4/country_8cpp.html#ae269112a3e2a2a7a7773b4ef29dba4eb" target="_top" xlink:title=" ">
<polygon fill="none" stroke="black" points="493.5,-38.5 493.5,-57.5 557.5,-57.5 557.5,-38.5 493.5,-38.5"/>
<text text-anchor="middle" x="525.5" y="-45.5" font-family="Helvetica,sans-Serif" font-size="10.00">operator&lt;&lt;</text>
</a>
</g>
</g>
<!-- Node1&#45;&gt;Node7 -->
<g id="edge6" class="edge">
<title>Node1&#45;&gt;Node7</title>
<path fill="none" stroke="midnightblue" d="M598.87,-48C584.28,-48 569.82,-48 557.71,-48"/>
<polygon fill="midnightblue" stroke="midnightblue" points="598.96,-51.5 608.96,-48 598.96,-44.5 598.96,-51.5"/>
</g>
<!-- Node8 -->
<g id="node8" class="node">
<title>Node8</title>
<g id="a_node8"><a xlink:href="../../da/df6/class_logic.html#a7ebaa13c8a671d82c669431478524784" target="_top" xlink:title=" ">
<polygon fill="none" stroke="black" points="478,-0.5 478,-19.5 573,-19.5 573,-0.5 478,-0.5"/>
<text text-anchor="middle" x="525.5" y="-7.5" font-family="Helvetica,sans-Serif" font-size="10.00">Logic::simulateTO</text>
</a>
</g>
</g>
<!-- Node1&#45;&gt;Node8 -->
<g id="edge7" class="edge">
<title>Node1&#45;&gt;Node8</title>
<path fill="none" stroke="midnightblue" d="M607.5,-30.52C592.6,-26.75 577.39,-22.89 564.22,-19.56"/>
<polygon fill="midnightblue" stroke="midnightblue" points="606.66,-33.92 617.22,-32.98 608.38,-27.13 606.66,-33.92"/>
</g>
<!-- Node3 -->
<g id="node3" class="node">
<title>Node3</title>
<g id="a_node3"><a xlink:href="../../d2/d5c/class_iface.html#abae0122b800731a979c9f8e4c3a58176" target="_top" xlink:title=" ">
<polygon fill="none" stroke="black" points="351,-57.5 351,-76.5 418,-76.5 418,-57.5 351,-57.5"/>
<text text-anchor="middle" x="384.5" y="-64.5" font-family="Helvetica,sans-Serif" font-size="10.00">Iface::round</text>
</a>
</g>
</g>
<!-- Node2&#45;&gt;Node3 -->
<g id="edge2" class="edge">
<title>Node2&#45;&gt;Node3</title>
<path fill="none" stroke="midnightblue" d="M469.98,-78.55C452.4,-76.14 433.47,-73.56 418,-71.44"/>
<polygon fill="midnightblue" stroke="midnightblue" points="469.76,-82.05 480.14,-79.94 470.7,-75.11 469.76,-82.05"/>
</g>
<!-- Node4 -->
<g id="node4" class="node">
<title>Node4</title>
<g id="a_node4"><a xlink:href="../../d2/d5c/class_iface.html#a44e6d0db22abbce5cb8c132e5f1d4284" target="_top" xlink:title=" ">
<polygon fill="none" stroke="black" points="229,-57.5 229,-76.5 291,-76.5 291,-57.5 229,-57.5"/>
<text text-anchor="middle" x="260" y="-64.5" font-family="Helvetica,sans-Serif" font-size="10.00">Iface::start</text>
</a>
</g>
</g>
<!-- Node3&#45;&gt;Node4 -->
<g id="edge3" class="edge">
<title>Node3&#45;&gt;Node4</title>
<path fill="none" stroke="midnightblue" d="M340.6,-67C324.27,-67 306.03,-67 291.13,-67"/>
<polygon fill="midnightblue" stroke="midnightblue" points="340.99,-70.5 350.99,-67 340.99,-63.5 340.99,-70.5"/>
</g>
<!-- Node5 -->
<g id="node5" class="node">
<title>Node5</title>
<g id="a_node5"><a xlink:href="../../dc/d90/class_anti_virus.html#affe3f62a87b880cc964188d9ddb9d562" target="_top" xlink:title=" ">
<polygon fill="none" stroke="black" points="74,-57.5 74,-76.5 193,-76.5 193,-57.5 74,-57.5"/>
<text text-anchor="middle" x="133.5" y="-64.5" font-family="Helvetica,sans-Serif" font-size="10.00">AntiVirus::startInterface</text>
</a>
</g>
</g>
<!-- Node4&#45;&gt;Node5 -->
<g id="edge4" class="edge">
<title>Node4&#45;&gt;Node5</title>
<path fill="none" stroke="midnightblue" d="M218.83,-67C210.62,-67 201.82,-67 193.12,-67"/>
<polygon fill="midnightblue" stroke="midnightblue" points="218.86,-70.5 228.86,-67 218.86,-63.5 218.86,-70.5"/>
</g>
<!-- Node6 -->
<g id="node6" class="node">
<title>Node6</title>
<g id="a_node6"><a xlink:href="../../df/d0a/main_8cpp.html#ae66f6b31b5ad750f1fe042a706a4e3d4" target="_top" xlink:title=" ">
<polygon fill="none" stroke="black" points="0,-57.5 0,-76.5 38,-76.5 38,-57.5 0,-57.5"/>
<text text-anchor="middle" x="19" y="-64.5" font-family="Helvetica,sans-Serif" font-size="10.00">main</text>
</a>
</g>
</g>
<!-- Node5&#45;&gt;Node6 -->
<g id="edge5" class="edge">
<title>Node5&#45;&gt;Node6</title>
<path fill="none" stroke="midnightblue" d="M63.65,-67C54.29,-67 45.43,-67 38.16,-67"/>
<polygon fill="midnightblue" stroke="midnightblue" points="63.94,-70.5 73.94,-67 63.94,-63.5 63.94,-70.5"/>
</g>
<!-- Node8&#45;&gt;Node3 -->
<g id="edge9" class="edge">
<title>Node8&#45;&gt;Node3</title>
<path fill="none" stroke="midnightblue" d="M491.27,-23.57C486.81,-25.39 482.29,-27.24 478,-29 454.38,-38.68 427.39,-49.77 408.68,-57.46"/>
<polygon fill="midnightblue" stroke="midnightblue" points="492.91,-26.68 500.84,-19.66 490.26,-20.2 492.91,-26.68"/>
</g>
<!-- Node9 -->
<g id="node9" class="node">
<title>Node9</title>
<g id="a_node9"><a xlink:href="../../d2/d5c/class_iface.html#ad724ec2c6a2aa884f61de19193affc6a" target="_top" xlink:title=" ">
<polygon fill="none" stroke="black" points="327,-0.5 327,-19.5 442,-19.5 442,-0.5 327,-0.5"/>
<text text-anchor="middle" x="384.5" y="-7.5" font-family="Helvetica,sans-Serif" font-size="10.00">Iface::requestLEGACY</text>
</a>
</g>
</g>
<!-- Node8&#45;&gt;Node9 -->
<g id="edge8" class="edge">
<title>Node8&#45;&gt;Node9</title>
<path fill="none" stroke="midnightblue" d="M467.78,-10C459.42,-10 450.8,-10 442.43,-10"/>
<polygon fill="midnightblue" stroke="midnightblue" points="467.83,-13.5 477.83,-10 467.83,-6.5 467.83,-13.5"/>
</g>
</g>
</svg>
