<?xml version="1.0" encoding="UTF-8" standalone="no"?>
<!DOCTYPE svg PUBLIC "-//W3C//DTD SVG 1.1//EN"
 "http://www.w3.org/Graphics/SVG/1.1/DTD/svg11.dtd">
<!-- Generated by graphviz version 2.44.1 (20200629.0846)
 -->
<!-- Title: Country::isNeighbourToWannabeVaccinatedField Pages: 1 -->
<svg width="627pt" height="85pt"
 viewBox="0.00 0.00 627.00 85.00" xmlns="http://www.w3.org/2000/svg" xmlns:xlink="http://www.w3.org/1999/xlink">
<g id="graph0" class="graph" transform="scale(1 1) rotate(0) translate(4 81)">
<title>Country::isNeighbourToWannabeVaccinatedField</title>
<!-- Node1 -->
<g id="node1" class="node">
<title>Node1</title>
<g id="a_node1"><a xlink:title=" ">
<polygon fill="#bfbfbf" stroke="black" points="0,-33 0,-63 159,-63 159,-33 0,-33"/>
<text text-anchor="start" x="8" y="-51" font-family="Helvetica,sans-Serif" font-size="10.00">Country::isNeighbourToWannabe</text>
<text text-anchor="middle" x="79.5" y="-40" font-family="Helvetica,sans-Serif" font-size="10.00">VaccinatedField</text>
</a>
</g>
</g>
<!-- Node2 -->
<g id="node2" class="node">
<title>Node2</title>
<g id="a_node2"><a xlink:href="../../d1/d22/class_utils_1_1_point.html#adedde8c4c0d9e7efeb415929a10ef8db" target="_top" xlink:title=" ">
<polygon fill="none" stroke="black" points="195,-38.5 195,-57.5 328,-57.5 328,-38.5 195,-38.5"/>
<text text-anchor="middle" x="261.5" y="-45.5" font-family="Helvetica,sans-Serif" font-size="10.00">Utils::Point::getNeighbours</text>
</a>
</g>
</g>
<!-- Node1&#45;&gt;Node2 -->
<g id="edge1" class="edge">
<title>Node1&#45;&gt;Node2</title>
<path fill="none" stroke="midnightblue" d="M159.19,-48C167.66,-48 176.27,-48 184.71,-48"/>
<polygon fill="midnightblue" stroke="midnightblue" points="184.9,-51.5 194.9,-48 184.9,-44.5 184.9,-51.5"/>
</g>
<!-- Node3 -->
<g id="node3" class="node">
<title>Node3</title>
<g id="a_node3"><a xlink:href="../../d1/d22/class_utils_1_1_point.html#ac6478449387ca5e2f34511ad421785d7" target="_top" xlink:title=" ">
<polygon fill="none" stroke="black" points="381.5,-57.5 381.5,-76.5 474.5,-76.5 474.5,-57.5 381.5,-57.5"/>
<text text-anchor="middle" x="428" y="-64.5" font-family="Helvetica,sans-Serif" font-size="10.00">Utils::Point::Point</text>
</a>
</g>
</g>
<!-- Node2&#45;&gt;Node3 -->
<g id="edge2" class="edge">
<title>Node2&#45;&gt;Node3</title>
<path fill="none" stroke="midnightblue" d="M328.46,-55.62C342.56,-57.25 357.33,-58.95 371.02,-60.53"/>
<polygon fill="midnightblue" stroke="midnightblue" points="370.91,-64.04 381.24,-61.71 371.71,-57.09 370.91,-64.04"/>
</g>
<!-- Node4 -->
<g id="node4" class="node">
<title>Node4</title>
<g id="a_node4"><a xlink:href="../../d1/d22/class_utils_1_1_point.html#a1563d88d568349cd8e76904c25671594" target="_top" xlink:title=" ">
<polygon fill="none" stroke="black" points="364,-19.5 364,-38.5 492,-38.5 492,-19.5 364,-19.5"/>
<text text-anchor="middle" x="428" y="-26.5" font-family="Helvetica,sans-Serif" font-size="10.00">Utils::Point::withinBounds</text>
</a>
</g>
</g>
<!-- Node2&#45;&gt;Node4 -->
<g id="edge3" class="edge">
<title>Node2&#45;&gt;Node4</title>
<path fill="none" stroke="midnightblue" d="M328.46,-40.38C336.79,-39.42 345.34,-38.43 353.77,-37.46"/>
<polygon fill="midnightblue" stroke="midnightblue" points="354.43,-40.91 363.96,-36.28 353.63,-33.95 354.43,-40.91"/>
</g>
<!-- Node5 -->
<g id="node5" class="node">
<title>Node5</title>
<g id="a_node5"><a xlink:href="../../d1/d22/class_utils_1_1_point.html#a4fd453f573c399f7195a8982268a9f55" target="_top" xlink:title=" ">
<polygon fill="none" stroke="black" points="529,-38.5 529,-57.5 618,-57.5 618,-38.5 529,-38.5"/>
<text text-anchor="middle" x="573.5" y="-45.5" font-family="Helvetica,sans-Serif" font-size="10.00">Utils::Point::getX</text>
</a>
</g>
</g>
<!-- Node4&#45;&gt;Node5 -->
<g id="edge4" class="edge">
<title>Node4&#45;&gt;Node5</title>
<path fill="none" stroke="midnightblue" d="M492.36,-37.39C501.21,-38.56 510.23,-39.76 518.88,-40.9"/>
<polygon fill="midnightblue" stroke="midnightblue" points="518.45,-44.37 528.82,-42.22 519.37,-37.43 518.45,-44.37"/>
</g>
<!-- Node6 -->
<g id="node6" class="node">
<title>Node6</title>
<g id="a_node6"><a xlink:href="../../d1/d22/class_utils_1_1_point.html#a62ce3a4ededc21a4f417bf18e357fc8e" target="_top" xlink:title=" ">
<polygon fill="none" stroke="black" points="528,-0.5 528,-19.5 619,-19.5 619,-0.5 528,-0.5"/>
<text text-anchor="middle" x="573.5" y="-7.5" font-family="Helvetica,sans-Serif" font-size="10.00">Utils::Point::getY</text>
</a>
</g>
</g>
<!-- Node4&#45;&gt;Node6 -->
<g id="edge5" class="edge">
<title>Node4&#45;&gt;Node6</title>
<path fill="none" stroke="midnightblue" d="M492.36,-20.61C500.9,-19.48 509.6,-18.33 517.97,-17.22"/>
<polygon fill="midnightblue" stroke="midnightblue" points="518.53,-20.68 527.98,-15.89 517.61,-13.74 518.53,-20.68"/>
</g>
</g>
</svg>
