<?xml version="1.0" encoding="UTF-8" standalone="no"?>
<!DOCTYPE svg PUBLIC "-//W3C//DTD SVG 1.1//EN"
 "http://www.w3.org/Graphics/SVG/1.1/DTD/svg11.dtd">
<!-- Generated by graphviz version 2.44.1 (20200629.0846)
 -->
<!-- Title: Country::isNeighbourToVaccinatedField Pages: 1 -->
<svg width="674pt" height="142pt"
 viewBox="0.00 0.00 674.00 142.00" xmlns="http://www.w3.org/2000/svg" xmlns:xlink="http://www.w3.org/1999/xlink">
<g id="graph0" class="graph" transform="scale(1 1) rotate(0) translate(4 138)">
<title>Country::isNeighbourToVaccinatedField</title>
<!-- Node1 -->
<g id="node1" class="node">
<title>Node1</title>
<g id="a_node1"><a xlink:title=" ">
<polygon fill="#bfbfbf" stroke="black" points="0,-52 0,-82 167,-82 167,-52 0,-52"/>
<text text-anchor="start" x="8" y="-70" font-family="Helvetica,sans-Serif" font-size="10.00">Country::isNeighbourToVaccinated</text>
<text text-anchor="middle" x="83.5" y="-59" font-family="Helvetica,sans-Serif" font-size="10.00">Field</text>
</a>
</g>
</g>
<!-- Node2 -->
<g id="node2" class="node">
<title>Node2</title>
<g id="a_node2"><a xlink:href="../../d1/d22/class_utils_1_1_point.html#adedde8c4c0d9e7efeb415929a10ef8db" target="_top" xlink:title=" ">
<polygon fill="none" stroke="black" points="203,-76.5 203,-95.5 336,-95.5 336,-76.5 203,-76.5"/>
<text text-anchor="middle" x="269.5" y="-83.5" font-family="Helvetica,sans-Serif" font-size="10.00">Utils::Point::getNeighbours</text>
</a>
</g>
</g>
<!-- Node1&#45;&gt;Node2 -->
<g id="edge1" class="edge">
<title>Node1&#45;&gt;Node2</title>
<path fill="none" stroke="midnightblue" d="M167.08,-75.53C175.57,-76.4 184.17,-77.29 192.58,-78.16"/>
<polygon fill="midnightblue" stroke="midnightblue" points="192.43,-81.66 202.73,-79.21 193.15,-74.7 192.43,-81.66"/>
</g>
<!-- Node7 -->
<g id="node7" class="node">
<title>Node7</title>
<g id="a_node7"><a xlink:href="../../d1/d22/class_utils_1_1_point.html#a917da588000a88cdcc3cfa4a403d7112" target="_top" xlink:title=" ">
<polygon fill="none" stroke="black" points="382.5,-38.5 382.5,-57.5 489.5,-57.5 489.5,-38.5 382.5,-38.5"/>
<text text-anchor="middle" x="436" y="-45.5" font-family="Helvetica,sans-Serif" font-size="10.00">Utils::Point::isBorder</text>
</a>
</g>
</g>
<!-- Node1&#45;&gt;Node7 -->
<g id="edge6" class="edge">
<title>Node1&#45;&gt;Node7</title>
<path fill="none" stroke="midnightblue" d="M167.12,-62.52C229.93,-59.12 315.03,-54.5 372.31,-51.4"/>
<polygon fill="midnightblue" stroke="midnightblue" points="372.52,-54.89 382.32,-50.86 372.14,-47.9 372.52,-54.89"/>
</g>
<!-- Node3 -->
<g id="node3" class="node">
<title>Node3</title>
<g id="a_node3"><a xlink:href="../../d1/d22/class_utils_1_1_point.html#ac6478449387ca5e2f34511ad421785d7" target="_top" xlink:title=" ">
<polygon fill="none" stroke="black" points="389.5,-76.5 389.5,-95.5 482.5,-95.5 482.5,-76.5 389.5,-76.5"/>
<text text-anchor="middle" x="436" y="-83.5" font-family="Helvetica,sans-Serif" font-size="10.00">Utils::Point::Point</text>
</a>
</g>
</g>
<!-- Node2&#45;&gt;Node3 -->
<g id="edge2" class="edge">
<title>Node2&#45;&gt;Node3</title>
<path fill="none" stroke="midnightblue" d="M336.46,-86C350.56,-86 365.33,-86 379.02,-86"/>
<polygon fill="midnightblue" stroke="midnightblue" points="379.24,-89.5 389.24,-86 379.24,-82.5 379.24,-89.5"/>
</g>
<!-- Node4 -->
<g id="node4" class="node">
<title>Node4</title>
<g id="a_node4"><a xlink:href="../../d1/d22/class_utils_1_1_point.html#a1563d88d568349cd8e76904c25671594" target="_top" xlink:title=" ">
<polygon fill="none" stroke="black" points="372,-114.5 372,-133.5 500,-133.5 500,-114.5 372,-114.5"/>
<text text-anchor="middle" x="436" y="-121.5" font-family="Helvetica,sans-Serif" font-size="10.00">Utils::Point::withinBounds</text>
</a>
</g>
</g>
<!-- Node2&#45;&gt;Node4 -->
<g id="edge3" class="edge">
<title>Node2&#45;&gt;Node4</title>
<path fill="none" stroke="midnightblue" d="M312.01,-95.59C333.82,-100.63 360.73,-106.84 383.82,-112.18"/>
<polygon fill="midnightblue" stroke="midnightblue" points="383.26,-115.64 393.79,-114.48 384.83,-108.82 383.26,-115.64"/>
</g>
<!-- Node5 -->
<g id="node5" class="node">
<title>Node5</title>
<g id="a_node5"><a xlink:href="../../d1/d22/class_utils_1_1_point.html#a4fd453f573c399f7195a8982268a9f55" target="_top" xlink:title=" ">
<polygon fill="none" stroke="black" points="556.5,-114.5 556.5,-133.5 645.5,-133.5 645.5,-114.5 556.5,-114.5"/>
<text text-anchor="middle" x="601" y="-121.5" font-family="Helvetica,sans-Serif" font-size="10.00">Utils::Point::getX</text>
</a>
</g>
</g>
<!-- Node4&#45;&gt;Node5 -->
<g id="edge4" class="edge">
<title>Node4&#45;&gt;Node5</title>
<path fill="none" stroke="midnightblue" d="M500.02,-124C515.31,-124 531.51,-124 546.32,-124"/>
<polygon fill="midnightblue" stroke="midnightblue" points="546.32,-127.5 556.32,-124 546.32,-120.5 546.32,-127.5"/>
</g>
<!-- Node6 -->
<g id="node6" class="node">
<title>Node6</title>
<g id="a_node6"><a xlink:href="../../d1/d22/class_utils_1_1_point.html#a62ce3a4ededc21a4f417bf18e357fc8e" target="_top" xlink:title=" ">
<polygon fill="none" stroke="black" points="555.5,-76.5 555.5,-95.5 646.5,-95.5 646.5,-76.5 555.5,-76.5"/>
<text text-anchor="middle" x="601" y="-83.5" font-family="Helvetica,sans-Serif" font-size="10.00">Utils::Point::getY</text>
</a>
</g>
</g>
<!-- Node4&#45;&gt;Node6 -->
<g id="edge5" class="edge">
<title>Node4&#45;&gt;Node6</title>
<path fill="none" stroke="midnightblue" d="M478.13,-114.41C499.74,-109.37 526.41,-103.16 549.29,-97.82"/>
<polygon fill="midnightblue" stroke="midnightblue" points="550.22,-101.2 559.16,-95.52 548.63,-94.38 550.22,-101.2"/>
</g>
<!-- Node7&#45;&gt;Node5 -->
<g id="edge9" class="edge">
<title>Node7&#45;&gt;Node5</title>
<path fill="none" stroke="midnightblue" d="M479.66,-57.55C486.73,-60.06 493.78,-63.16 500,-67 519.8,-79.21 516.17,-92.83 536,-105 539.4,-107.09 543.05,-108.96 546.81,-110.63"/>
<polygon fill="midnightblue" stroke="midnightblue" points="545.75,-113.98 556.33,-114.4 548.32,-107.47 545.75,-113.98"/>
</g>
<!-- Node7&#45;&gt;Node6 -->
<g id="edge10" class="edge">
<title>Node7&#45;&gt;Node6</title>
<path fill="none" stroke="midnightblue" d="M478.13,-57.59C499.74,-62.63 526.41,-68.84 549.29,-74.18"/>
<polygon fill="midnightblue" stroke="midnightblue" points="548.63,-77.62 559.16,-76.48 550.22,-70.8 548.63,-77.62"/>
</g>
<!-- Node8 -->
<g id="node8" class="node">
<title>Node8</title>
<g id="a_node8"><a xlink:href="../../d1/d22/class_utils_1_1_point.html#a8c221e78e5131f58a6ef0d5cee14c638" target="_top" xlink:title=" ">
<polygon fill="none" stroke="black" points="536,-38.5 536,-57.5 666,-57.5 666,-38.5 536,-38.5"/>
<text text-anchor="middle" x="601" y="-45.5" font-family="Helvetica,sans-Serif" font-size="10.00">Utils::Point::getGridHeight</text>
</a>
</g>
</g>
<!-- Node7&#45;&gt;Node8 -->
<g id="edge7" class="edge">
<title>Node7&#45;&gt;Node8</title>
<path fill="none" stroke="midnightblue" d="M489.92,-48C501.4,-48 513.74,-48 525.86,-48"/>
<polygon fill="midnightblue" stroke="midnightblue" points="525.96,-51.5 535.96,-48 525.96,-44.5 525.96,-51.5"/>
</g>
<!-- Node9 -->
<g id="node9" class="node">
<title>Node9</title>
<g id="a_node9"><a xlink:href="../../d1/d22/class_utils_1_1_point.html#ac4c9e72916dac2eaa4cf5e13c8885a2c" target="_top" xlink:title=" ">
<polygon fill="none" stroke="black" points="537,-0.5 537,-19.5 665,-19.5 665,-0.5 537,-0.5"/>
<text text-anchor="middle" x="601" y="-7.5" font-family="Helvetica,sans-Serif" font-size="10.00">Utils::Point::getGridWidth</text>
</a>
</g>
</g>
<!-- Node7&#45;&gt;Node9 -->
<g id="edge8" class="edge">
<title>Node7&#45;&gt;Node9</title>
<path fill="none" stroke="midnightblue" d="M478.13,-38.41C499.74,-33.37 526.41,-27.16 549.29,-21.82"/>
<polygon fill="midnightblue" stroke="midnightblue" points="550.22,-25.2 559.16,-19.52 548.63,-18.38 550.22,-25.2"/>
</g>
</g>
</svg>
