<?xml version="1.0" encoding="UTF-8" standalone="no"?>
<!DOCTYPE svg PUBLIC "-//W3C//DTD SVG 1.1//EN"
 "http://www.w3.org/Graphics/SVG/1.1/DTD/svg11.dtd">
<!-- Generated by graphviz version 2.44.1 (20200629.0846)
 -->
<!-- Title: Country::getReserveVaccines Pages: 1 -->
<svg width="762pt" height="142pt"
 viewBox="0.00 0.00 762.00 142.00" xmlns="http://www.w3.org/2000/svg" xmlns:xlink="http://www.w3.org/1999/xlink">
<g id="graph0" class="graph" transform="scale(1 1) rotate(0) translate(4 138)">
<title>Country::getReserveVaccines</title>
<!-- Node1 -->
<g id="node1" class="node">
<title>Node1</title>
<g id="a_node1"><a xlink:title=" ">
<polygon fill="#bfbfbf" stroke="black" points="609,-57.5 609,-76.5 754,-76.5 754,-57.5 609,-57.5"/>
<text text-anchor="middle" x="681.5" y="-64.5" font-family="Helvetica,sans-Serif" font-size="10.00">Country::getReserveVaccines</text>
</a>
</g>
</g>
<!-- Node2 -->
<g id="node2" class="node">
<title>Node2</title>
<g id="a_node2"><a xlink:href="../../da/d74/class_grid.html#a100932ff6ef1862637eb732683c2d720" target="_top" xlink:title=" ">
<polygon fill="none" stroke="black" points="480.5,-114.5 480.5,-133.5 570.5,-133.5 570.5,-114.5 480.5,-114.5"/>
<text text-anchor="middle" x="525.5" y="-121.5" font-family="Helvetica,sans-Serif" font-size="10.00">Grid::addCountry</text>
</a>
</g>
</g>
<!-- Node1&#45;&gt;Node2 -->
<g id="edge1" class="edge">
<title>Node1&#45;&gt;Node2</title>
<path fill="none" stroke="midnightblue" d="M645.2,-80.07C616.89,-90.54 577.82,-105.01 552.36,-114.43"/>
<polygon fill="midnightblue" stroke="midnightblue" points="646.56,-83.29 654.72,-76.54 644.13,-76.73 646.56,-83.29"/>
</g>
<!-- Node3 -->
<g id="node3" class="node">
<title>Node3</title>
<g id="a_node3"><a xlink:href="../../d2/d5c/class_iface.html#abae0122b800731a979c9f8e4c3a58176" target="_top" xlink:title=" ">
<polygon fill="none" stroke="black" points="351,-76.5 351,-95.5 418,-95.5 418,-76.5 351,-76.5"/>
<text text-anchor="middle" x="384.5" y="-83.5" font-family="Helvetica,sans-Serif" font-size="10.00">Iface::round</text>
</a>
</g>
</g>
<!-- Node1&#45;&gt;Node3 -->
<g id="edge7" class="edge">
<title>Node1&#45;&gt;Node3</title>
<path fill="none" stroke="midnightblue" d="M598.55,-72.28C538.9,-76.12 461.3,-81.12 418.13,-83.9"/>
<polygon fill="midnightblue" stroke="midnightblue" points="598.96,-75.76 608.71,-71.62 598.51,-68.77 598.96,-75.76"/>
</g>
<!-- Node7 -->
<g id="node7" class="node">
<title>Node7</title>
<g id="a_node7"><a xlink:href="../../df/da4/country_8cpp.html#ae269112a3e2a2a7a7773b4ef29dba4eb" target="_top" xlink:title=" ">
<polygon fill="none" stroke="black" points="493.5,-38.5 493.5,-57.5 557.5,-57.5 557.5,-38.5 493.5,-38.5"/>
<text text-anchor="middle" x="525.5" y="-45.5" font-family="Helvetica,sans-Serif" font-size="10.00">operator&lt;&lt;</text>
</a>
</g>
</g>
<!-- Node1&#45;&gt;Node7 -->
<g id="edge6" class="edge">
<title>Node1&#45;&gt;Node7</title>
<path fill="none" stroke="midnightblue" d="M598.73,-56.91C584.05,-55.1 569.59,-53.32 557.52,-51.83"/>
<polygon fill="midnightblue" stroke="midnightblue" points="598.56,-60.42 608.91,-58.17 599.41,-53.47 598.56,-60.42"/>
</g>
<!-- Node8 -->
<g id="node8" class="node">
<title>Node8</title>
<g id="a_node8"><a xlink:href="../../da/df6/class_logic.html#a7ebaa13c8a671d82c669431478524784" target="_top" xlink:title=" ">
<polygon fill="none" stroke="black" points="478,-0.5 478,-19.5 573,-19.5 573,-0.5 478,-0.5"/>
<text text-anchor="middle" x="525.5" y="-7.5" font-family="Helvetica,sans-Serif" font-size="10.00">Logic::simulateTO</text>
</a>
</g>
</g>
<!-- Node1&#45;&gt;Node8 -->
<g id="edge8" class="edge">
<title>Node1&#45;&gt;Node8</title>
<path fill="none" stroke="midnightblue" d="M645.2,-53.93C616.89,-43.46 577.82,-28.99 552.36,-19.57"/>
<polygon fill="midnightblue" stroke="midnightblue" points="644.13,-57.27 654.72,-57.46 646.56,-50.71 644.13,-57.27"/>
</g>
<!-- Node2&#45;&gt;Node3 -->
<g id="edge2" class="edge">
<title>Node2&#45;&gt;Node3</title>
<path fill="none" stroke="midnightblue" d="M479.6,-111.72C459.6,-106.26 436.49,-99.94 418.18,-94.93"/>
<polygon fill="midnightblue" stroke="midnightblue" points="478.86,-115.15 489.42,-114.41 480.7,-108.4 478.86,-115.15"/>
</g>
<!-- Node4 -->
<g id="node4" class="node">
<title>Node4</title>
<g id="a_node4"><a xlink:href="../../d2/d5c/class_iface.html#a44e6d0db22abbce5cb8c132e5f1d4284" target="_top" xlink:title=" ">
<polygon fill="none" stroke="black" points="229,-76.5 229,-95.5 291,-95.5 291,-76.5 229,-76.5"/>
<text text-anchor="middle" x="260" y="-83.5" font-family="Helvetica,sans-Serif" font-size="10.00">Iface::start</text>
</a>
</g>
</g>
<!-- Node3&#45;&gt;Node4 -->
<g id="edge3" class="edge">
<title>Node3&#45;&gt;Node4</title>
<path fill="none" stroke="midnightblue" d="M340.6,-86C324.27,-86 306.03,-86 291.13,-86"/>
<polygon fill="midnightblue" stroke="midnightblue" points="340.99,-89.5 350.99,-86 340.99,-82.5 340.99,-89.5"/>
</g>
<!-- Node5 -->
<g id="node5" class="node">
<title>Node5</title>
<g id="a_node5"><a xlink:href="../../dc/d90/class_anti_virus.html#affe3f62a87b880cc964188d9ddb9d562" target="_top" xlink:title=" ">
<polygon fill="none" stroke="black" points="74,-76.5 74,-95.5 193,-95.5 193,-76.5 74,-76.5"/>
<text text-anchor="middle" x="133.5" y="-83.5" font-family="Helvetica,sans-Serif" font-size="10.00">AntiVirus::startInterface</text>
</a>
</g>
</g>
<!-- Node4&#45;&gt;Node5 -->
<g id="edge4" class="edge">
<title>Node4&#45;&gt;Node5</title>
<path fill="none" stroke="midnightblue" d="M218.83,-86C210.62,-86 201.82,-86 193.12,-86"/>
<polygon fill="midnightblue" stroke="midnightblue" points="218.86,-89.5 228.86,-86 218.86,-82.5 218.86,-89.5"/>
</g>
<!-- Node6 -->
<g id="node6" class="node">
<title>Node6</title>
<g id="a_node6"><a xlink:href="../../df/d0a/main_8cpp.html#ae66f6b31b5ad750f1fe042a706a4e3d4" target="_top" xlink:title=" ">
<polygon fill="none" stroke="black" points="0,-76.5 0,-95.5 38,-95.5 38,-76.5 0,-76.5"/>
<text text-anchor="middle" x="19" y="-83.5" font-family="Helvetica,sans-Serif" font-size="10.00">main</text>
</a>
</g>
</g>
<!-- Node5&#45;&gt;Node6 -->
<g id="edge5" class="edge">
<title>Node5&#45;&gt;Node6</title>
<path fill="none" stroke="midnightblue" d="M63.65,-86C54.29,-86 45.43,-86 38.16,-86"/>
<polygon fill="midnightblue" stroke="midnightblue" points="63.94,-89.5 73.94,-86 63.94,-82.5 63.94,-89.5"/>
</g>
<!-- Node8&#45;&gt;Node3 -->
<g id="edge10" class="edge">
<title>Node8&#45;&gt;Node3</title>
<path fill="none" stroke="midnightblue" d="M489.78,-23.45C485.76,-25.22 481.76,-27.09 478,-29 449.07,-43.7 417.26,-64.37 399.5,-76.36"/>
<polygon fill="midnightblue" stroke="midnightblue" points="491.22,-26.64 499.06,-19.51 488.49,-20.19 491.22,-26.64"/>
</g>
<!-- Node9 -->
<g id="node9" class="node">
<title>Node9</title>
<g id="a_node9"><a xlink:href="../../d2/d5c/class_iface.html#ad724ec2c6a2aa884f61de19193affc6a" target="_top" xlink:title=" ">
<polygon fill="none" stroke="black" points="327,-0.5 327,-19.5 442,-19.5 442,-0.5 327,-0.5"/>
<text text-anchor="middle" x="384.5" y="-7.5" font-family="Helvetica,sans-Serif" font-size="10.00">Iface::requestLEGACY</text>
</a>
</g>
</g>
<!-- Node8&#45;&gt;Node9 -->
<g id="edge9" class="edge">
<title>Node8&#45;&gt;Node9</title>
<path fill="none" stroke="midnightblue" d="M467.78,-10C459.42,-10 450.8,-10 442.43,-10"/>
<polygon fill="midnightblue" stroke="midnightblue" points="467.83,-13.5 477.83,-10 467.83,-6.5 467.83,-13.5"/>
</g>
</g>
</svg>
