<?xml version="1.0" encoding="UTF-8" standalone="no"?>
<!DOCTYPE svg PUBLIC "-//W3C//DTD SVG 1.1//EN"
 "http://www.w3.org/Graphics/SVG/1.1/DTD/svg11.dtd">
<!-- Generated by graphviz version 2.44.1 (20200629.0846)
 -->
<!-- Title: C:/Users/lukac/CLionProjects/virus_real/src/window.cpp Pages: 1 -->
<!--zoomable 375 -->
<svg id="main" version="1.1" xmlns="http://www.w3.org/2000/svg" xmlns:xlink="http://www.w3.org/1999/xlink" xml:space="preserve" onload="init(evt)">
<style type="text/css"><![CDATA[
.edge:hover path { stroke: red; }
.edge:hover polygon { stroke: red; fill: red; }
]]></style>
<script type="text/javascript"><![CDATA[
var edges = document.getElementsByTagName('g');
if (edges && edges.length) {
  for (var i=0;i<edges.length;i++) {
    if (edges[i].id.substr(0,4)=='edge') {
      edges[i].setAttribute('class','edge');
    }
  }
}
]]></script>
        <defs>
                <circle id="rim" cx="0" cy="0" r="7"/>
                <circle id="rim2" cx="0" cy="0" r="3.5"/>
                <g id="zoomPlus">
                        <use xlink:href="#rim" fill="#404040">
                                <set attributeName="fill" to="#808080" begin="zoomplus.mouseover" end="zoomplus.mouseout"/>
                        </use>
                        <path d="M-4,0h8M0,-4v8" fill="none" stroke="white" stroke-width="1.5" pointer-events="none"/>
                </g>
                <g id="zoomMin">
                        <use xlink:href="#rim" fill="#404040">
                                <set attributeName="fill" to="#808080" begin="zoomminus.mouseover" end="zoomminus.mouseout"/>
                        </use>
                        <path d="M-4,0h8" fill="none" stroke="white" stroke-width="1.5" pointer-events="none"/>
                </g>
                <g id="dirArrow">
                        <path fill="none" stroke="white" stroke-width="1.5" d="M0,-3.0v7 M-2.5,-0.5L0,-3.0L2.5,-0.5"/>
                </g>
               <g id="resetDef">
                       <use xlink:href="#rim2" fill="#404040">
                               <set attributeName="fill" to="#808080" begin="reset.mouseover" end="reset.mouseout"/>
                       </use>
               </g>
        </defs>

<script type="text/javascript">
var viewWidth = 666;
var viewHeight = 375;
var sectionId = 'dynsection-0';
</script>
<script xlink:href="../../svgpan.js"/>
<svg id="graph" class="graph">
<g id="viewport">
<title>C:/Users/lukac/CLionProjects/virus_real/src/window.cpp</title>
<!-- Node1 -->
<g id="node1" class="node">
<title>Node1</title>
<g id="a_node1"><a xlink:title=" ">
<polygon fill="#bfbfbf" stroke="black" points="186,-336.5 186,-366.5 331,-366.5 331,-336.5 186,-336.5"/>
<text text-anchor="start" x="194" y="-354.5" font-family="Helvetica,sans-Serif" font-size="10.00">C:/Users/lukac/CLionProjects</text>
<text text-anchor="middle" x="258.5" y="-343.5" font-family="Helvetica,sans-Serif" font-size="10.00">/virus_real/src/window.cpp</text>
</a>
</g>
</g>
<!-- Node2 -->
<g id="node2" class="node">
<title>Node2</title>
<g id="a_node2"><a xlink:href="../../d3/df1/window_8h.html" target="_top" xlink:title=" ">
<polygon fill="none" stroke="black" points="230.5,-280.5 230.5,-299.5 286.5,-299.5 286.5,-280.5 230.5,-280.5"/>
<text text-anchor="middle" x="258.5" y="-287.5" font-family="Helvetica,sans-Serif" font-size="10.00">window.h</text>
</a>
</g>
</g>
<!-- Node1&#45;&gt;Node2 -->
<g id="edge1" class="edge">
<title>Node1&#45;&gt;Node2</title>
<path fill="none" stroke="midnightblue" d="M258.5,-336.4C258.5,-328.47 258.5,-318.46 258.5,-309.86"/>
<polygon fill="midnightblue" stroke="midnightblue" points="262,-309.66 258.5,-299.66 255,-309.66 262,-309.66"/>
</g>
<!-- Node3 -->
<g id="node3" class="node">
<title>Node3</title>
<g id="a_node3"><a xlink:title=" ">
<polygon fill="none" stroke="#bfbfbf" points="52.5,-112.5 52.5,-131.5 106.5,-131.5 106.5,-112.5 52.5,-112.5"/>
<text text-anchor="middle" x="79.5" y="-119.5" font-family="Helvetica,sans-Serif" font-size="10.00">iostream</text>
</a>
</g>
</g>
<!-- Node2&#45;&gt;Node3 -->
<g id="edge2" class="edge">
<title>Node2&#45;&gt;Node3</title>
<path fill="none" stroke="midnightblue" d="M230.45,-284.15C204.67,-278.44 166.75,-266.7 141.5,-244 110.01,-215.69 92.21,-167.65 84.38,-141.42"/>
<polygon fill="midnightblue" stroke="midnightblue" points="87.7,-140.32 81.62,-131.64 80.96,-142.22 87.7,-140.32"/>
</g>
<!-- Node4 -->
<g id="node4" class="node">
<title>Node4</title>
<g id="a_node4"><a xlink:title=" ">
<polygon fill="none" stroke="#bfbfbf" points="223,-224.5 223,-243.5 294,-243.5 294,-224.5 223,-224.5"/>
<text text-anchor="middle" x="258.5" y="-231.5" font-family="Helvetica,sans-Serif" font-size="10.00">SDL2/SDL.h</text>
</a>
</g>
</g>
<!-- Node2&#45;&gt;Node4 -->
<g id="edge3" class="edge">
<title>Node2&#45;&gt;Node4</title>
<path fill="none" stroke="midnightblue" d="M258.5,-280.08C258.5,-273.01 258.5,-262.86 258.5,-253.99"/>
<polygon fill="midnightblue" stroke="midnightblue" points="262,-253.75 258.5,-243.75 255,-253.75 262,-253.75"/>
</g>
<!-- Node5 -->
<g id="node5" class="node">
<title>Node5</title>
<g id="a_node5"><a xlink:title=" ">
<polygon fill="none" stroke="#bfbfbf" points="312.5,-224.5 312.5,-243.5 396.5,-243.5 396.5,-224.5 312.5,-224.5"/>
<text text-anchor="middle" x="354.5" y="-231.5" font-family="Helvetica,sans-Serif" font-size="10.00">SDL2/SDL_ttf.h</text>
</a>
</g>
</g>
<!-- Node2&#45;&gt;Node5 -->
<g id="edge4" class="edge">
<title>Node2&#45;&gt;Node5</title>
<path fill="none" stroke="midnightblue" d="M273.92,-280.32C289.04,-271.82 312.32,-258.73 329.97,-248.8"/>
<polygon fill="midnightblue" stroke="midnightblue" points="332.11,-251.61 339.11,-243.65 328.68,-245.51 332.11,-251.61"/>
</g>
<!-- Node6 -->
<g id="node6" class="node">
<title>Node6</title>
<g id="a_node6"><a xlink:title=" ">
<polygon fill="none" stroke="#bfbfbf" points="415,-224.5 415,-243.5 472,-243.5 472,-224.5 415,-224.5"/>
<text text-anchor="middle" x="443.5" y="-231.5" font-family="Helvetica,sans-Serif" font-size="10.00">SDL_ttf.h</text>
</a>
</g>
</g>
<!-- Node2&#45;&gt;Node6 -->
<g id="edge5" class="edge">
<title>Node2&#45;&gt;Node6</title>
<path fill="none" stroke="midnightblue" d="M286.6,-280.8C318.15,-271.59 369.56,-256.58 404.88,-246.27"/>
<polygon fill="midnightblue" stroke="midnightblue" points="406.21,-249.53 414.83,-243.37 404.25,-242.81 406.21,-249.53"/>
</g>
<!-- Node7 -->
<g id="node7" class="node">
<title>Node7</title>
<g id="a_node7"><a xlink:title=" ">
<polygon fill="none" stroke="#bfbfbf" points="490.5,-224.5 490.5,-243.5 534.5,-243.5 534.5,-224.5 490.5,-224.5"/>
<text text-anchor="middle" x="512.5" y="-231.5" font-family="Helvetica,sans-Serif" font-size="10.00">SDL.h</text>
</a>
</g>
</g>
<!-- Node2&#45;&gt;Node7 -->
<g id="edge6" class="edge">
<title>Node2&#45;&gt;Node7</title>
<path fill="none" stroke="midnightblue" d="M286.83,-284.07C327.52,-276.81 405.04,-262.36 480.12,-244.18"/>
<polygon fill="midnightblue" stroke="midnightblue" points="481.33,-247.49 490.21,-241.71 479.66,-240.69 481.33,-247.49"/>
</g>
<!-- Node8 -->
<g id="node8" class="node">
<title>Node8</title>
<g id="a_node8"><a xlink:title=" ">
<polygon fill="none" stroke="#bfbfbf" points="553,-224.5 553,-243.5 658,-243.5 658,-224.5 553,-224.5"/>
<text text-anchor="middle" x="605.5" y="-231.5" font-family="Helvetica,sans-Serif" font-size="10.00">SDL2/SDL_mouse.h</text>
</a>
</g>
</g>
<!-- Node2&#45;&gt;Node8 -->
<g id="edge7" class="edge">
<title>Node2&#45;&gt;Node8</title>
<path fill="none" stroke="midnightblue" d="M286.6,-284.63C342.11,-275.99 467.02,-256.55 542.99,-244.73"/>
<polygon fill="midnightblue" stroke="midnightblue" points="543.57,-248.18 552.92,-243.18 542.5,-241.26 543.57,-248.18"/>
</g>
<!-- Node9 -->
<g id="node9" class="node">
<title>Node9</title>
<g id="a_node9"><a xlink:title=" ">
<polygon fill="none" stroke="#bfbfbf" points="179.5,-56.5 179.5,-75.5 221.5,-75.5 221.5,-56.5 179.5,-56.5"/>
<text text-anchor="middle" x="200.5" y="-63.5" font-family="Helvetica,sans-Serif" font-size="10.00">vector</text>
</a>
</g>
</g>
<!-- Node2&#45;&gt;Node9 -->
<g id="edge8" class="edge">
<title>Node2&#45;&gt;Node9</title>
<path fill="none" stroke="midnightblue" d="M230.4,-285.28C200.64,-280.18 153.5,-268.67 120.5,-244 72.12,-207.84 61.42,-189.69 43.5,-132 25.32,-73.48 110.61,-92.96 169.5,-76 169.6,-75.97 169.7,-75.94 169.8,-75.91"/>
<polygon fill="midnightblue" stroke="midnightblue" points="170.86,-79.25 179.49,-73.11 168.91,-72.53 170.86,-79.25"/>
</g>
<!-- Node10 -->
<g id="node10" class="node">
<title>Node10</title>
<g id="a_node10"><a xlink:href="../../da/d15/grid_8h.html" target="_top" xlink:title=" ">
<polygon fill="none" stroke="black" points="164,-224.5 164,-243.5 205,-243.5 205,-224.5 164,-224.5"/>
<text text-anchor="middle" x="184.5" y="-231.5" font-family="Helvetica,sans-Serif" font-size="10.00">grid.h</text>
</a>
</g>
</g>
<!-- Node2&#45;&gt;Node10 -->
<g id="edge9" class="edge">
<title>Node2&#45;&gt;Node10</title>
<path fill="none" stroke="midnightblue" d="M246.61,-280.32C235.35,-272.11 218.21,-259.6 204.79,-249.81"/>
<polygon fill="midnightblue" stroke="midnightblue" points="206.75,-246.9 196.61,-243.83 202.62,-252.56 206.75,-246.9"/>
</g>
<!-- Node17 -->
<g id="node17" class="node">
<title>Node17</title>
<g id="a_node17"><a xlink:href="../../d5/d60/utils_8h.html" target="_top" xlink:title=" ">
<polygon fill="none" stroke="black" points="125,-112.5 125,-131.5 168,-131.5 168,-112.5 125,-112.5"/>
<text text-anchor="middle" x="146.5" y="-119.5" font-family="Helvetica,sans-Serif" font-size="10.00">utils.h</text>
</a>
</g>
</g>
<!-- Node2&#45;&gt;Node17 -->
<g id="edge35" class="edge">
<title>Node2&#45;&gt;Node17</title>
<path fill="none" stroke="midnightblue" d="M230.44,-285.05C206.05,-280.01 171.96,-268.76 154.5,-244 132.94,-213.43 137.46,-166.99 142.24,-141.45"/>
<polygon fill="midnightblue" stroke="midnightblue" points="145.67,-142.11 144.29,-131.6 138.82,-140.68 145.67,-142.11"/>
</g>
<!-- Node10&#45;&gt;Node9 -->
<g id="edge10" class="edge">
<title>Node10&#45;&gt;Node9</title>
<path fill="none" stroke="midnightblue" d="M203.8,-224.48C217.93,-217.08 236.06,-204.89 244.5,-188 262.4,-152.21 233.75,-107.31 214.9,-83.54"/>
<polygon fill="midnightblue" stroke="midnightblue" points="217.57,-81.27 208.5,-75.79 212.17,-85.73 217.57,-81.27"/>
</g>
<!-- Node11 -->
<g id="node11" class="node">
<title>Node11</title>
<g id="a_node11"><a xlink:title=" ">
<polygon fill="none" stroke="#bfbfbf" points="0,-56.5 0,-75.5 59,-75.5 59,-56.5 0,-56.5"/>
<text text-anchor="middle" x="29.5" y="-63.5" font-family="Helvetica,sans-Serif" font-size="10.00">stdexcept</text>
</a>
</g>
</g>
<!-- Node10&#45;&gt;Node11 -->
<g id="edge11" class="edge">
<title>Node10&#45;&gt;Node11</title>
<path fill="none" stroke="midnightblue" d="M164.27,-224.4C133.11,-210.06 73.81,-178.2 43.5,-132 34.5,-118.28 31.17,-99.75 30,-85.98"/>
<polygon fill="midnightblue" stroke="midnightblue" points="33.48,-85.55 29.44,-75.75 26.49,-85.93 33.48,-85.55"/>
</g>
<!-- Node12 -->
<g id="node12" class="node">
<title>Node12</title>
<g id="a_node12"><a xlink:href="../../d5/d5a/field_8h.html" target="_top" xlink:title=" ">
<polygon fill="none" stroke="black" points="369.5,-56.5 369.5,-75.5 411.5,-75.5 411.5,-56.5 369.5,-56.5"/>
<text text-anchor="middle" x="390.5" y="-63.5" font-family="Helvetica,sans-Serif" font-size="10.00">field.h</text>
</a>
</g>
</g>
<!-- Node10&#45;&gt;Node12 -->
<g id="edge12" class="edge">
<title>Node10&#45;&gt;Node12</title>
<path fill="none" stroke="midnightblue" d="M205.2,-225.95C235.12,-215.67 288.92,-196.84 307.5,-188 351.41,-167.11 377.47,-174.28 401.5,-132 409.7,-117.57 405.08,-98.63 399.53,-84.92"/>
<polygon fill="midnightblue" stroke="midnightblue" points="402.63,-83.27 395.31,-75.61 396.26,-86.17 402.63,-83.27"/>
</g>
<!-- Node10&#45;&gt;Node17 -->
<g id="edge17" class="edge">
<title>Node10&#45;&gt;Node17</title>
<path fill="none" stroke="midnightblue" d="M181.52,-224.37C175.36,-206.54 161.11,-165.3 152.81,-141.27"/>
<polygon fill="midnightblue" stroke="midnightblue" points="156.04,-139.9 149.47,-131.59 149.43,-142.19 156.04,-139.9"/>
</g>
<!-- Node19 -->
<g id="node19" class="node">
<title>Node19</title>
<g id="a_node19"><a xlink:href="../../dc/d5f/country_8h.html" target="_top" xlink:title=" ">
<polygon fill="none" stroke="black" points="179,-168.5 179,-187.5 236,-187.5 236,-168.5 179,-168.5"/>
<text text-anchor="middle" x="207.5" y="-175.5" font-family="Helvetica,sans-Serif" font-size="10.00">country.h</text>
</a>
</g>
</g>
<!-- Node10&#45;&gt;Node19 -->
<g id="edge21" class="edge">
<title>Node10&#45;&gt;Node19</title>
<path fill="none" stroke="midnightblue" d="M188.3,-224.08C191.41,-216.77 195.92,-206.18 199.79,-197.1"/>
<polygon fill="midnightblue" stroke="midnightblue" points="203.07,-198.32 203.77,-187.75 196.63,-195.58 203.07,-198.32"/>
</g>
<!-- Node22 -->
<g id="node22" class="node">
<title>Node22</title>
<g id="a_node22"><a xlink:href="../../dd/dae/district_8h.html" target="_top" xlink:title=" ">
<polygon fill="none" stroke="black" points="338.5,-112.5 338.5,-131.5 392.5,-131.5 392.5,-112.5 338.5,-112.5"/>
<text text-anchor="middle" x="365.5" y="-119.5" font-family="Helvetica,sans-Serif" font-size="10.00">district.h</text>
</a>
</g>
</g>
<!-- Node10&#45;&gt;Node22 -->
<g id="edge33" class="edge">
<title>Node10&#45;&gt;Node22</title>
<path fill="none" stroke="midnightblue" d="M205.27,-224.45C224.73,-216.12 254.35,-202.61 278.5,-188 303.5,-172.87 330.12,-152.24 347.23,-138.31"/>
<polygon fill="midnightblue" stroke="midnightblue" points="349.76,-140.76 355.25,-131.7 345.31,-135.36 349.76,-140.76"/>
</g>
<!-- Node23 -->
<g id="node23" class="node">
<title>Node23</title>
<g id="a_node23"><a xlink:title=" ">
<polygon fill="none" stroke="#bfbfbf" points="429.5,-56.5 429.5,-75.5 485.5,-75.5 485.5,-56.5 429.5,-56.5"/>
<text text-anchor="middle" x="457.5" y="-63.5" font-family="Helvetica,sans-Serif" font-size="10.00">algorithm</text>
</a>
</g>
</g>
<!-- Node10&#45;&gt;Node23 -->
<g id="edge34" class="edge">
<title>Node10&#45;&gt;Node23</title>
<path fill="none" stroke="midnightblue" d="M205.06,-226.5C207.89,-225.64 210.76,-224.79 213.5,-224 273.59,-206.73 293.76,-216.33 349.5,-188 384.71,-170.1 392.61,-161.83 418.5,-132 431.01,-117.58 441.86,-98.64 448.92,-84.93"/>
<polygon fill="midnightblue" stroke="midnightblue" points="452.23,-86.13 453.54,-75.62 445.96,-83.02 452.23,-86.13"/>
</g>
<!-- Node13 -->
<g id="node13" class="node">
<title>Node13</title>
<g id="a_node13"><a xlink:title=" ">
<polygon fill="none" stroke="#bfbfbf" points="283,-0.5 283,-19.5 318,-19.5 318,-0.5 283,-0.5"/>
<text text-anchor="middle" x="300.5" y="-7.5" font-family="Helvetica,sans-Serif" font-size="10.00">map</text>
</a>
</g>
</g>
<!-- Node12&#45;&gt;Node13 -->
<g id="edge13" class="edge">
<title>Node12&#45;&gt;Node13</title>
<path fill="none" stroke="midnightblue" d="M376.04,-56.32C362,-47.9 340.45,-34.97 323.96,-25.07"/>
<polygon fill="midnightblue" stroke="midnightblue" points="325.3,-21.8 314.92,-19.65 321.7,-27.8 325.3,-21.8"/>
</g>
<!-- Node14 -->
<g id="node14" class="node">
<title>Node14</title>
<g id="a_node14"><a xlink:title=" ">
<polygon fill="none" stroke="#bfbfbf" points="336,-0.5 336,-19.5 379,-19.5 379,-0.5 336,-0.5"/>
<text text-anchor="middle" x="357.5" y="-7.5" font-family="Helvetica,sans-Serif" font-size="10.00">queue</text>
</a>
</g>
</g>
<!-- Node12&#45;&gt;Node14 -->
<g id="edge14" class="edge">
<title>Node12&#45;&gt;Node14</title>
<path fill="none" stroke="midnightblue" d="M385.05,-56.08C380.49,-48.61 373.83,-37.72 368.21,-28.52"/>
<polygon fill="midnightblue" stroke="midnightblue" points="371.05,-26.46 362.85,-19.75 365.08,-30.11 371.05,-26.46"/>
</g>
<!-- Node15 -->
<g id="node15" class="node">
<title>Node15</title>
<g id="a_node15"><a xlink:title=" ">
<polygon fill="none" stroke="#bfbfbf" points="397.5,-0.5 397.5,-19.5 449.5,-19.5 449.5,-0.5 397.5,-0.5"/>
<text text-anchor="middle" x="423.5" y="-7.5" font-family="Helvetica,sans-Serif" font-size="10.00">sstream</text>
</a>
</g>
</g>
<!-- Node12&#45;&gt;Node15 -->
<g id="edge15" class="edge">
<title>Node12&#45;&gt;Node15</title>
<path fill="none" stroke="midnightblue" d="M395.95,-56.08C400.51,-48.61 407.17,-37.72 412.79,-28.52"/>
<polygon fill="midnightblue" stroke="midnightblue" points="415.92,-30.11 418.15,-19.75 409.95,-26.46 415.92,-30.11"/>
</g>
<!-- Node16 -->
<g id="node16" class="node">
<title>Node16</title>
<g id="a_node16"><a xlink:title=" ">
<polygon fill="none" stroke="#bfbfbf" points="467.5,-0.5 467.5,-19.5 511.5,-19.5 511.5,-0.5 467.5,-0.5"/>
<text text-anchor="middle" x="489.5" y="-7.5" font-family="Helvetica,sans-Serif" font-size="10.00">cmath</text>
</a>
</g>
</g>
<!-- Node12&#45;&gt;Node16 -->
<g id="edge16" class="edge">
<title>Node12&#45;&gt;Node16</title>
<path fill="none" stroke="midnightblue" d="M406.41,-56.32C422.14,-47.74 446.44,-34.49 464.71,-24.52"/>
<polygon fill="midnightblue" stroke="midnightblue" points="466.53,-27.52 473.63,-19.65 463.18,-21.37 466.53,-27.52"/>
</g>
<!-- Node17&#45;&gt;Node9 -->
<g id="edge20" class="edge">
<title>Node17&#45;&gt;Node9</title>
<path fill="none" stroke="midnightblue" d="M155.42,-112.08C163.28,-104.22 174.93,-92.57 184.42,-83.08"/>
<polygon fill="midnightblue" stroke="midnightblue" points="187.15,-85.3 191.75,-75.75 182.2,-80.35 187.15,-85.3"/>
</g>
<!-- Node17&#45;&gt;Node11 -->
<g id="edge18" class="edge">
<title>Node17&#45;&gt;Node11</title>
<path fill="none" stroke="midnightblue" d="M127.96,-112.44C108.88,-103.64 78.93,-89.81 57.06,-79.72"/>
<polygon fill="midnightblue" stroke="midnightblue" points="58.5,-76.53 47.95,-75.52 55.57,-82.88 58.5,-76.53"/>
</g>
<!-- Node18 -->
<g id="node18" class="node">
<title>Node18</title>
<g id="a_node18"><a xlink:title=" ">
<polygon fill="none" stroke="#bfbfbf" points="116,-56.5 116,-75.5 161,-75.5 161,-56.5 116,-56.5"/>
<text text-anchor="middle" x="138.5" y="-63.5" font-family="Helvetica,sans-Serif" font-size="10.00">climits</text>
</a>
</g>
</g>
<!-- Node17&#45;&gt;Node18 -->
<g id="edge19" class="edge">
<title>Node17&#45;&gt;Node18</title>
<path fill="none" stroke="midnightblue" d="M145.18,-112.08C144.12,-104.93 142.59,-94.64 141.27,-85.69"/>
<polygon fill="midnightblue" stroke="midnightblue" points="144.72,-85.13 139.8,-75.75 137.8,-86.16 144.72,-85.13"/>
</g>
<!-- Node19&#45;&gt;Node3 -->
<g id="edge23" class="edge">
<title>Node19&#45;&gt;Node3</title>
<path fill="none" stroke="midnightblue" d="M187.22,-168.44C166.15,-159.56 132.98,-145.56 109.01,-135.45"/>
<polygon fill="midnightblue" stroke="midnightblue" points="110.26,-132.18 99.69,-131.52 107.54,-138.63 110.26,-132.18"/>
</g>
<!-- Node19&#45;&gt;Node9 -->
<g id="edge22" class="edge">
<title>Node19&#45;&gt;Node9</title>
<path fill="none" stroke="midnightblue" d="M206.95,-168.37C205.82,-150.62 203.22,-109.67 201.68,-85.6"/>
<polygon fill="midnightblue" stroke="midnightblue" points="205.17,-85.35 201.05,-75.59 198.19,-85.79 205.17,-85.35"/>
</g>
<!-- Node19&#45;&gt;Node17 -->
<g id="edge26" class="edge">
<title>Node19&#45;&gt;Node17</title>
<path fill="none" stroke="midnightblue" d="M197.7,-168.32C188.68,-160.34 175.09,-148.31 164.18,-138.65"/>
<polygon fill="midnightblue" stroke="midnightblue" points="166.29,-135.84 156.48,-131.83 161.65,-141.08 166.29,-135.84"/>
</g>
<!-- Node20 -->
<g id="node20" class="node">
<title>Node20</title>
<g id="a_node20"><a xlink:title=" ">
<polygon fill="none" stroke="#bfbfbf" points="320.5,-56.5 320.5,-75.5 350.5,-75.5 350.5,-56.5 320.5,-56.5"/>
<text text-anchor="middle" x="335.5" y="-63.5" font-family="Helvetica,sans-Serif" font-size="10.00">set</text>
</a>
</g>
</g>
<!-- Node19&#45;&gt;Node20 -->
<g id="edge24" class="edge">
<title>Node19&#45;&gt;Node20</title>
<path fill="none" stroke="midnightblue" d="M217.54,-168.37C239.23,-149.73 290.66,-105.53 317.89,-82.13"/>
<polygon fill="midnightblue" stroke="midnightblue" points="320.2,-84.76 325.5,-75.59 315.64,-79.45 320.2,-84.76"/>
</g>
<!-- Node21 -->
<g id="node21" class="node">
<title>Node21</title>
<g id="a_node21"><a xlink:title=" ">
<polygon fill="none" stroke="#bfbfbf" points="243.5,-56.5 243.5,-75.5 301.5,-75.5 301.5,-56.5 243.5,-56.5"/>
<text text-anchor="middle" x="272.5" y="-63.5" font-family="Helvetica,sans-Serif" font-size="10.00">functional</text>
</a>
</g>
</g>
<!-- Node19&#45;&gt;Node21 -->
<g id="edge25" class="edge">
<title>Node19&#45;&gt;Node21</title>
<path fill="none" stroke="midnightblue" d="M212.6,-168.37C223.28,-150.3 248.17,-108.18 262.27,-84.31"/>
<polygon fill="midnightblue" stroke="midnightblue" points="265.35,-85.98 267.42,-75.59 259.32,-82.42 265.35,-85.98"/>
</g>
<!-- Node19&#45;&gt;Node22 -->
<g id="edge27" class="edge">
<title>Node19&#45;&gt;Node22</title>
<path fill="none" stroke="midnightblue" d="M232.54,-168.44C259.12,-159.36 301.31,-144.94 331.02,-134.78"/>
<polygon fill="midnightblue" stroke="midnightblue" points="332.25,-138.06 340.58,-131.52 329.99,-131.44 332.25,-138.06"/>
</g>
<!-- Node22&#45;&gt;Node9 -->
<g id="edge28" class="edge">
<title>Node22&#45;&gt;Node9</title>
<path fill="none" stroke="midnightblue" d="M339.36,-112.44C310.05,-102.85 262.56,-87.31 231.43,-77.12"/>
<polygon fill="midnightblue" stroke="midnightblue" points="232.14,-73.67 221.55,-73.89 229.96,-80.33 232.14,-73.67"/>
</g>
<!-- Node22&#45;&gt;Node12 -->
<g id="edge29" class="edge">
<title>Node22&#45;&gt;Node12</title>
<path fill="none" stroke="midnightblue" d="M369.63,-112.08C373.01,-104.77 377.92,-94.18 382.12,-85.1"/>
<polygon fill="midnightblue" stroke="midnightblue" points="385.42,-86.3 386.45,-75.75 379.07,-83.36 385.42,-86.3"/>
</g>
<!-- Node22&#45;&gt;Node20 -->
<g id="edge31" class="edge">
<title>Node22&#45;&gt;Node20</title>
<path fill="none" stroke="midnightblue" d="M360.55,-112.08C356.4,-104.61 350.35,-93.72 345.23,-84.52"/>
<polygon fill="midnightblue" stroke="midnightblue" points="348.28,-82.79 340.36,-75.75 342.16,-86.19 348.28,-82.79"/>
</g>
<!-- Node22&#45;&gt;Node21 -->
<g id="edge32" class="edge">
<title>Node22&#45;&gt;Node21</title>
<path fill="none" stroke="midnightblue" d="M350.56,-112.32C335.91,-103.82 313.37,-90.73 296.26,-80.8"/>
<polygon fill="midnightblue" stroke="midnightblue" points="297.81,-77.65 287.4,-75.65 294.3,-83.7 297.81,-77.65"/>
</g>
<!-- Node22&#45;&gt;Node23 -->
<g id="edge30" class="edge">
<title>Node22&#45;&gt;Node23</title>
<path fill="none" stroke="midnightblue" d="M380.28,-112.32C394.77,-103.82 417.07,-90.73 433.99,-80.8"/>
<polygon fill="midnightblue" stroke="midnightblue" points="435.9,-83.74 442.76,-75.65 432.36,-77.7 435.9,-83.74"/>
</g>
</g>
</svg>
        <g id="navigator" transform="translate(0 0)" fill="#404254">
                <rect fill="#f2f5e9" fill-opacity="0.5" stroke="#606060" stroke-width=".5" x="0" y="0" width="60" height="60"/>
                <use id="zoomplus" xlink:href="#zoomPlus" x="17" y="9" onmousedown="handleZoom(evt,'in')"/>
                <use id="zoomminus" xlink:href="#zoomMin" x="42" y="9" onmousedown="handleZoom(evt,'out')"/>
                <use id="reset" xlink:href="#resetDef" x="30" y="36" onmousedown="handleReset()"/>
                <g id="arrowUp" xlink:href="#dirArrow" transform="translate(30 24)" onmousedown="handlePan(0,-1)">
                  <use xlink:href="#rim" fill="#404040">
                        <set attributeName="fill" to="#808080" begin="arrowUp.mouseover" end="arrowUp.mouseout"/>
                  </use>
                  <path fill="none" stroke="white" stroke-width="1.5" d="M0,-3.0v7 M-2.5,-0.5L0,-3.0L2.5,-0.5"/>
                </g>
                <g id="arrowRight" xlink:href="#dirArrow" transform="rotate(90) translate(36 -43)" onmousedown="handlePan(1,0)">
                  <use xlink:href="#rim" fill="#404040">
                        <set attributeName="fill" to="#808080" begin="arrowRight.mouseover" end="arrowRight.mouseout"/>
                  </use>
                  <path fill="none" stroke="white" stroke-width="1.5" d="M0,-3.0v7 M-2.5,-0.5L0,-3.0L2.5,-0.5"/>
                </g>
                <g id="arrowDown" xlink:href="#dirArrow" transform="rotate(180) translate(-30 -48)" onmousedown="handlePan(0,1)">
                  <use xlink:href="#rim" fill="#404040">
                        <set attributeName="fill" to="#808080" begin="arrowDown.mouseover" end="arrowDown.mouseout"/>
                  </use>
                  <path fill="none" stroke="white" stroke-width="1.5" d="M0,-3.0v7 M-2.5,-0.5L0,-3.0L2.5,-0.5"/>
                </g>
                <g id="arrowLeft" xlink:href="#dirArrow" transform="rotate(270) translate(-36 17)" onmousedown="handlePan(-1,0)">
                  <use xlink:href="#rim" fill="#404040">
                        <set attributeName="fill" to="#808080" begin="arrowLeft.mouseover" end="arrowLeft.mouseout"/>
                  </use>
                  <path fill="none" stroke="white" stroke-width="1.5" d="M0,-3.0v7 M-2.5,-0.5L0,-3.0L2.5,-0.5"/>
                </g>
        </g>
        <svg viewBox="0 0 15 15" width="100%" height="30px" preserveAspectRatio="xMaxYMin meet">
         <g id="arrow_out" transform="scale(0.3 0.3)">
          <a xlink:href="window_8cpp__incl_org.svg" target="_base">
           <rect id="button" ry="5" rx="5" y="6" x="6" height="38" width="38"
                fill="#f2f5e9" fill-opacity="0.5" stroke="#606060" stroke-width="1.0"/>
           <path id="arrow"
             d="M 11.500037,31.436501 C 11.940474,20.09759 22.043105,11.32322 32.158766,21.979434 L 37.068811,17.246167 C 37.068811,17.246167 37.088388,32 37.088388,32 L 22.160133,31.978069 C 22.160133,31.978069 26.997745,27.140456 26.997745,27.140456 C 18.528582,18.264221 13.291696,25.230495 11.500037,31.436501 z"
             style="fill:#404040;"/>
          </a>
         </g>
        </svg>
</svg>
