<?xml version="1.0" encoding="UTF-8" standalone="no"?>
<!DOCTYPE svg PUBLIC "-//W3C//DTD SVG 1.1//EN"
 "http://www.w3.org/Graphics/SVG/1.1/DTD/svg11.dtd">
<!-- Generated by graphviz version 2.44.1 (20200629.0846)
 -->
<!-- Title: Window::createMinimalVaccinationMap Pages: 1 -->
<svg width="504pt" height="142pt"
 viewBox="0.00 0.00 504.00 142.00" xmlns="http://www.w3.org/2000/svg" xmlns:xlink="http://www.w3.org/1999/xlink">
<g id="graph0" class="graph" transform="scale(1 1) rotate(0) translate(4 138)">
<title>Window::createMinimalVaccinationMap</title>
<!-- Node1 -->
<g id="node1" class="node">
<title>Node1</title>
<g id="a_node1"><a xlink:title=" ">
<polygon fill="#bfbfbf" stroke="black" points="0,-57.5 0,-76.5 188,-76.5 188,-57.5 0,-57.5"/>
<text text-anchor="middle" x="94" y="-64.5" font-family="Helvetica,sans-Serif" font-size="10.00">Window::createMinimalVaccinationMap</text>
</a>
</g>
</g>
<!-- Node2 -->
<g id="node2" class="node">
<title>Node2</title>
<g id="a_node2"><a xlink:href="../../da/d74/class_grid.html#aff3d5bc3ea4e8da08e0a78d7f73f0084" target="_top" xlink:title=" ">
<polygon fill="none" stroke="black" points="239,-76.5 239,-95.5 349,-95.5 349,-76.5 239,-76.5"/>
<text text-anchor="middle" x="294" y="-83.5" font-family="Helvetica,sans-Serif" font-size="10.00">Grid::getFieldByPoint</text>
</a>
</g>
</g>
<!-- Node1&#45;&gt;Node2 -->
<g id="edge1" class="edge">
<title>Node1&#45;&gt;Node2</title>
<path fill="none" stroke="midnightblue" d="M188.2,-75.94C201.89,-77.26 215.73,-78.59 228.67,-79.83"/>
<polygon fill="midnightblue" stroke="midnightblue" points="228.54,-83.33 238.83,-80.8 229.21,-76.36 228.54,-83.33"/>
</g>
<!-- Node4 -->
<g id="node4" class="node">
<title>Node4</title>
<g id="a_node4"><a xlink:href="../../d1/d22/class_utils_1_1_point.html#a4fd453f573c399f7195a8982268a9f55" target="_top" xlink:title=" ">
<polygon fill="none" stroke="black" points="403.5,-114.5 403.5,-133.5 492.5,-133.5 492.5,-114.5 403.5,-114.5"/>
<text text-anchor="middle" x="448" y="-121.5" font-family="Helvetica,sans-Serif" font-size="10.00">Utils::Point::getX</text>
</a>
</g>
</g>
<!-- Node1&#45;&gt;Node4 -->
<g id="edge5" class="edge">
<title>Node1&#45;&gt;Node4</title>
<path fill="none" stroke="midnightblue" d="M121.79,-76.62C147.62,-85.47 187.98,-98.23 224,-105 281.22,-115.75 347.84,-120.43 393.27,-122.45"/>
<polygon fill="midnightblue" stroke="midnightblue" points="393.35,-125.96 403.48,-122.88 393.64,-118.97 393.35,-125.96"/>
</g>
<!-- Node5 -->
<g id="node5" class="node">
<title>Node5</title>
<g id="a_node5"><a xlink:href="../../d1/d22/class_utils_1_1_point.html#a62ce3a4ededc21a4f417bf18e357fc8e" target="_top" xlink:title=" ">
<polygon fill="none" stroke="black" points="402.5,-38.5 402.5,-57.5 493.5,-57.5 493.5,-38.5 402.5,-38.5"/>
<text text-anchor="middle" x="448" y="-45.5" font-family="Helvetica,sans-Serif" font-size="10.00">Utils::Point::getY</text>
</a>
</g>
</g>
<!-- Node1&#45;&gt;Node5 -->
<g id="edge6" class="edge">
<title>Node1&#45;&gt;Node5</title>
<path fill="none" stroke="midnightblue" d="M188.41,-61.96C253.27,-58.46 337.49,-53.91 391.9,-50.97"/>
<polygon fill="midnightblue" stroke="midnightblue" points="392.23,-54.46 402.03,-50.43 391.86,-47.47 392.23,-54.46"/>
</g>
<!-- Node6 -->
<g id="node6" class="node">
<title>Node6</title>
<g id="a_node6"><a xlink:href="../../dc/d67/class_field.html#ac9823a5988356e6d2f6aa8cf232c16c5" target="_top" xlink:title=" ">
<polygon fill="none" stroke="black" points="224,-0.5 224,-19.5 364,-19.5 364,-0.5 224,-0.5"/>
<text text-anchor="middle" x="294" y="-7.5" font-family="Helvetica,sans-Serif" font-size="10.00">Field::vaccinesToPutMinimal</text>
</a>
</g>
</g>
<!-- Node1&#45;&gt;Node6 -->
<g id="edge7" class="edge">
<title>Node1&#45;&gt;Node6</title>
<path fill="none" stroke="midnightblue" d="M128.14,-57.46C161.55,-47.84 213.27,-32.95 249.86,-22.42"/>
<polygon fill="midnightblue" stroke="midnightblue" points="251.11,-25.7 259.75,-19.57 249.17,-18.97 251.11,-25.7"/>
</g>
<!-- Node3 -->
<g id="node3" class="node">
<title>Node3</title>
<g id="a_node3"><a xlink:href="../../da/d74/class_grid.html#a3618702f7872969eedc6e8817dc26776" target="_top" xlink:title=" ">
<polygon fill="none" stroke="black" points="400,-76.5 400,-95.5 496,-95.5 496,-76.5 400,-76.5"/>
<text text-anchor="middle" x="448" y="-83.5" font-family="Helvetica,sans-Serif" font-size="10.00">Grid::getFieldByID</text>
</a>
</g>
</g>
<!-- Node2&#45;&gt;Node3 -->
<g id="edge2" class="edge">
<title>Node2&#45;&gt;Node3</title>
<path fill="none" stroke="midnightblue" d="M349.02,-86C362.21,-86 376.37,-86 389.71,-86"/>
<polygon fill="midnightblue" stroke="midnightblue" points="389.72,-89.5 399.72,-86 389.72,-82.5 389.72,-89.5"/>
</g>
<!-- Node2&#45;&gt;Node4 -->
<g id="edge3" class="edge">
<title>Node2&#45;&gt;Node4</title>
<path fill="none" stroke="midnightblue" d="M333.36,-95.59C353.32,-100.58 377.93,-106.73 399.13,-112.03"/>
<polygon fill="midnightblue" stroke="midnightblue" points="398.37,-115.45 408.92,-114.48 400.07,-108.66 398.37,-115.45"/>
</g>
<!-- Node2&#45;&gt;Node5 -->
<g id="edge4" class="edge">
<title>Node2&#45;&gt;Node5</title>
<path fill="none" stroke="midnightblue" d="M333.36,-76.41C353.32,-71.42 377.93,-65.27 399.13,-59.97"/>
<polygon fill="midnightblue" stroke="midnightblue" points="400.07,-63.34 408.92,-57.52 398.37,-56.55 400.07,-63.34"/>
</g>
</g>
</svg>
