<?xml version="1.0" encoding="UTF-8" standalone="no"?>
<!DOCTYPE svg PUBLIC "-//W3C//DTD SVG 1.1//EN"
 "http://www.w3.org/Graphics/SVG/1.1/DTD/svg11.dtd">
<!-- Generated by graphviz version 2.44.1 (20200629.0846)
 -->
<!-- Title: Window::createDistrictCell Pages: 1 -->
<!--zoomable 357 -->
<svg id="main" version="1.1" xmlns="http://www.w3.org/2000/svg" xmlns:xlink="http://www.w3.org/1999/xlink" xml:space="preserve" onload="init(evt)">
<style type="text/css"><![CDATA[
.edge:hover path { stroke: red; }
.edge:hover polygon { stroke: red; fill: red; }
]]></style>
<script type="text/javascript"><![CDATA[
var edges = document.getElementsByTagName('g');
if (edges && edges.length) {
  for (var i=0;i<edges.length;i++) {
    if (edges[i].id.substr(0,4)=='edge') {
      edges[i].setAttribute('class','edge');
    }
  }
}
]]></script>
        <defs>
                <circle id="rim" cx="0" cy="0" r="7"/>
                <circle id="rim2" cx="0" cy="0" r="3.5"/>
                <g id="zoomPlus">
                        <use xlink:href="#rim" fill="#404040">
                                <set attributeName="fill" to="#808080" begin="zoomplus.mouseover" end="zoomplus.mouseout"/>
                        </use>
                        <path d="M-4,0h8M0,-4v8" fill="none" stroke="white" stroke-width="1.5" pointer-events="none"/>
                </g>
                <g id="zoomMin">
                        <use xlink:href="#rim" fill="#404040">
                                <set attributeName="fill" to="#808080" begin="zoomminus.mouseover" end="zoomminus.mouseout"/>
                        </use>
                        <path d="M-4,0h8" fill="none" stroke="white" stroke-width="1.5" pointer-events="none"/>
                </g>
                <g id="dirArrow">
                        <path fill="none" stroke="white" stroke-width="1.5" d="M0,-3.0v7 M-2.5,-0.5L0,-3.0L2.5,-0.5"/>
                </g>
               <g id="resetDef">
                       <use xlink:href="#rim2" fill="#404040">
                               <set attributeName="fill" to="#808080" begin="reset.mouseover" end="reset.mouseout"/>
                       </use>
               </g>
        </defs>

<script type="text/javascript">
var viewWidth = 625;
var viewHeight = 357;
var sectionId = 'dynsection-3';
</script>
<script xlink:href="../../svgpan.js"/>
<svg id="graph" class="graph">
<g id="viewport">
<title>Window::createDistrictCell</title>
<!-- Node1 -->
<g id="node1" class="node">
<title>Node1</title>
<g id="a_node1"><a xlink:title=" ">
<polygon fill="#bfbfbf" stroke="black" points="0,-152.5 0,-171.5 131,-171.5 131,-152.5 0,-152.5"/>
<text text-anchor="middle" x="65.5" y="-159.5" font-family="Helvetica,sans-Serif" font-size="10.00">Window::createDistrictCell</text>
</a>
</g>
</g>
<!-- Node2 -->
<g id="node2" class="node">
<title>Node2</title>
<g id="a_node2"><a xlink:href="../../d9/dbf/class_window.html#aa1dba04db317de569def71239cf37dcb" target="_top" xlink:title=" ">
<polygon fill="none" stroke="black" points="364.5,-190.5 364.5,-209.5 468.5,-209.5 468.5,-190.5 364.5,-190.5"/>
<text text-anchor="middle" x="416.5" y="-197.5" font-family="Helvetica,sans-Serif" font-size="10.00">Window::createRect</text>
</a>
</g>
</g>
<!-- Node1&#45;&gt;Node2 -->
<g id="edge1" class="edge">
<title>Node1&#45;&gt;Node2</title>
<path fill="none" stroke="midnightblue" d="M111.35,-171.58C128.67,-174.99 148.69,-178.58 167,-181 230.61,-189.42 303.9,-194.46 354.32,-197.21"/>
<polygon fill="midnightblue" stroke="midnightblue" points="354.23,-200.71 364.4,-197.75 354.6,-193.72 354.23,-200.71"/>
</g>
<!-- Node3 -->
<g id="node3" class="node">
<title>Node3</title>
<g id="a_node3"><a xlink:href="../../d1/d22/class_utils_1_1_point.html#a4fd453f573c399f7195a8982268a9f55" target="_top" xlink:title=" ">
<polygon fill="none" stroke="black" points="524.5,-228.5 524.5,-247.5 613.5,-247.5 613.5,-228.5 524.5,-228.5"/>
<text text-anchor="middle" x="569" y="-235.5" font-family="Helvetica,sans-Serif" font-size="10.00">Utils::Point::getX</text>
</a>
</g>
</g>
<!-- Node1&#45;&gt;Node3 -->
<g id="edge19" class="edge">
<title>Node1&#45;&gt;Node3</title>
<path fill="none" stroke="midnightblue" d="M70.74,-171.58C82.26,-196.4 116.66,-263.06 167,-295 236.41,-339.03 266.24,-324.51 348,-333 408.56,-339.29 433.55,-365.56 485,-333 516.58,-313.01 493.81,-282.65 521,-257 522.66,-255.43 524.48,-253.98 526.39,-252.65"/>
<polygon fill="midnightblue" stroke="midnightblue" points="528.36,-255.55 535.26,-247.51 524.85,-249.49 528.36,-255.55"/>
</g>
<!-- Node4 -->
<g id="node4" class="node">
<title>Node4</title>
<g id="a_node4"><a xlink:href="../../d1/d22/class_utils_1_1_point.html#a62ce3a4ededc21a4f417bf18e357fc8e" target="_top" xlink:title=" ">
<polygon fill="none" stroke="black" points="523.5,-171.5 523.5,-190.5 614.5,-190.5 614.5,-171.5 523.5,-171.5"/>
<text text-anchor="middle" x="569" y="-178.5" font-family="Helvetica,sans-Serif" font-size="10.00">Utils::Point::getY</text>
</a>
</g>
</g>
<!-- Node1&#45;&gt;Node4 -->
<g id="edge20" class="edge">
<title>Node1&#45;&gt;Node4</title>
<path fill="none" stroke="midnightblue" d="M86.94,-152.34C149.09,-124.37 340.45,-48.82 485,-105 515.03,-116.67 540.81,-144.84 555.35,-163.41"/>
<polygon fill="midnightblue" stroke="midnightblue" points="552.57,-165.53 561.39,-171.4 558.16,-161.31 552.57,-165.53"/>
</g>
<!-- Node5 -->
<g id="node5" class="node">
<title>Node5</title>
<g id="a_node5"><a xlink:href="../../d9/dbf/class_window.html#ac2cf80c0ebb9c8fa2217776be9c394d7" target="_top" xlink:title=" ">
<polygon fill="none" stroke="black" points="188,-152.5 188,-171.5 291,-171.5 291,-152.5 188,-152.5"/>
<text text-anchor="middle" x="239.5" y="-159.5" font-family="Helvetica,sans-Serif" font-size="10.00">Window::createText</text>
</a>
</g>
</g>
<!-- Node1&#45;&gt;Node5 -->
<g id="edge4" class="edge">
<title>Node1&#45;&gt;Node5</title>
<path fill="none" stroke="midnightblue" d="M131.04,-162C146.29,-162 162.51,-162 177.6,-162"/>
<polygon fill="midnightblue" stroke="midnightblue" points="177.85,-165.5 187.85,-162 177.85,-158.5 177.85,-165.5"/>
</g>
<!-- Node6 -->
<g id="node6" class="node">
<title>Node6</title>
<g id="a_node6"><a xlink:href="../../dc/d67/class_field.html#a79869bd37f491e83beab556eaa3e50c0" target="_top" xlink:title=" ">
<polygon fill="none" stroke="black" points="348,-114.5 348,-133.5 485,-133.5 485,-114.5 348,-114.5"/>
<text text-anchor="middle" x="416.5" y="-121.5" font-family="Helvetica,sans-Serif" font-size="10.00">Field::getAssignedDistrictID</text>
</a>
</g>
</g>
<!-- Node1&#45;&gt;Node6 -->
<g id="edge12" class="edge">
<title>Node1&#45;&gt;Node6</title>
<path fill="none" stroke="midnightblue" d="M111.35,-152.42C128.67,-149.01 148.69,-145.42 167,-143 223.87,-135.47 288.48,-130.65 337.56,-127.74"/>
<polygon fill="midnightblue" stroke="midnightblue" points="338.01,-131.22 347.79,-127.15 337.6,-124.23 338.01,-131.22"/>
</g>
<!-- Node7 -->
<g id="node7" class="node">
<title>Node7</title>
<g id="a_node7"><a xlink:href="../../da/d74/class_grid.html#aff3d5bc3ea4e8da08e0a78d7f73f0084" target="_top" xlink:title=" ">
<polygon fill="none" stroke="black" points="361.5,-266.5 361.5,-285.5 471.5,-285.5 471.5,-266.5 361.5,-266.5"/>
<text text-anchor="middle" x="416.5" y="-273.5" font-family="Helvetica,sans-Serif" font-size="10.00">Grid::getFieldByPoint</text>
</a>
</g>
</g>
<!-- Node1&#45;&gt;Node7 -->
<g id="edge18" class="edge">
<title>Node1&#45;&gt;Node7</title>
<path fill="none" stroke="midnightblue" d="M89.87,-171.66C110.12,-179.88 140.28,-191.8 167,-201 237.56,-225.3 320.81,-249.54 370.81,-263.64"/>
<polygon fill="midnightblue" stroke="midnightblue" points="370.08,-267.07 380.66,-266.4 371.98,-260.33 370.08,-267.07"/>
</g>
<!-- Node9 -->
<g id="node9" class="node">
<title>Node9</title>
<g id="a_node9"><a xlink:href="../../dc/d67/class_field.html#a3ceb497dd33f97896974a2367fedc3c4" target="_top" xlink:title=" ">
<polygon fill="none" stroke="black" points="167,-38.5 167,-57.5 312,-57.5 312,-38.5 167,-38.5"/>
<text text-anchor="middle" x="239.5" y="-45.5" font-family="Helvetica,sans-Serif" font-size="10.00">Field::getCurrentInfectionRate</text>
</a>
</g>
</g>
<!-- Node1&#45;&gt;Node9 -->
<g id="edge13" class="edge">
<title>Node1&#45;&gt;Node9</title>
<path fill="none" stroke="midnightblue" d="M74.67,-152.46C90.65,-134.35 127.93,-94.74 167,-72 174.4,-67.69 182.69,-64.02 190.93,-60.94"/>
<polygon fill="midnightblue" stroke="midnightblue" points="192.23,-64.19 200.51,-57.59 189.92,-57.58 192.23,-64.19"/>
</g>
<!-- Node10 -->
<g id="node10" class="node">
<title>Node10</title>
<g id="a_node10"><a xlink:href="../../da/d74/class_grid.html#a258fdb0fb8bc7f13cad6637d40a7f20c" target="_top" xlink:title=" ">
<polygon fill="none" stroke="black" points="180,-266.5 180,-285.5 299,-285.5 299,-266.5 180,-266.5"/>
<text text-anchor="middle" x="239.5" y="-273.5" font-family="Helvetica,sans-Serif" font-size="10.00">Grid::getDistrictByPoint</text>
</a>
</g>
</g>
<!-- Node1&#45;&gt;Node10 -->
<g id="edge14" class="edge">
<title>Node1&#45;&gt;Node10</title>
<path fill="none" stroke="midnightblue" d="M74.67,-171.54C90.65,-189.65 127.93,-229.26 167,-252 174.4,-256.31 182.69,-259.98 190.93,-263.06"/>
<polygon fill="midnightblue" stroke="midnightblue" points="189.92,-266.42 200.51,-266.41 192.23,-259.81 189.92,-266.42"/>
</g>
<!-- Node12 -->
<g id="node12" class="node">
<title>Node12</title>
<g id="a_node12"><a xlink:href="../../d6/d85/class_district.html#af11816ea48d5c0e7073fcef4af5d504c" target="_top" xlink:title=" ">
<polygon fill="none" stroke="black" points="186,-0.5 186,-19.5 293,-19.5 293,-0.5 186,-0.5"/>
<text text-anchor="middle" x="239.5" y="-7.5" font-family="Helvetica,sans-Serif" font-size="10.00">District::getDistrictID</text>
</a>
</g>
</g>
<!-- Node1&#45;&gt;Node12 -->
<g id="edge17" class="edge">
<title>Node1&#45;&gt;Node12</title>
<path fill="none" stroke="midnightblue" d="M71.01,-152.21C82.93,-127.47 117.76,-62.09 167,-29 170.06,-26.94 173.33,-25.11 176.73,-23.48"/>
<polygon fill="midnightblue" stroke="midnightblue" points="178.09,-26.7 185.95,-19.59 175.38,-20.25 178.09,-26.7"/>
</g>
<!-- Node2&#45;&gt;Node3 -->
<g id="edge2" class="edge">
<title>Node2&#45;&gt;Node3</title>
<path fill="none" stroke="midnightblue" d="M455.48,-209.59C475.16,-214.56 499.39,-220.68 520.32,-225.96"/>
<polygon fill="midnightblue" stroke="midnightblue" points="519.74,-229.43 530.3,-228.48 521.46,-222.64 519.74,-229.43"/>
</g>
<!-- Node2&#45;&gt;Node4 -->
<g id="edge3" class="edge">
<title>Node2&#45;&gt;Node4</title>
<path fill="none" stroke="midnightblue" d="M468.87,-193.51C483.13,-191.72 498.65,-189.75 513.1,-187.93"/>
<polygon fill="midnightblue" stroke="midnightblue" points="513.91,-191.36 523.39,-186.63 513.03,-184.41 513.91,-191.36"/>
</g>
<!-- Node5&#45;&gt;Node3 -->
<g id="edge10" class="edge">
<title>Node5&#45;&gt;Node3</title>
<path fill="none" stroke="midnightblue" d="M254.31,-171.69C274.05,-184.96 311.93,-208.36 348,-219 403.09,-235.25 469.06,-238.99 514.29,-239.29"/>
<polygon fill="midnightblue" stroke="midnightblue" points="514.47,-242.79 524.47,-239.31 514.48,-235.79 514.47,-242.79"/>
</g>
<!-- Node5&#45;&gt;Node4 -->
<g id="edge11" class="edge">
<title>Node5&#45;&gt;Node4</title>
<path fill="none" stroke="midnightblue" d="M291.31,-164.95C351.44,-168.44 451.16,-174.22 513.04,-177.81"/>
<polygon fill="midnightblue" stroke="midnightblue" points="513.2,-181.33 523.39,-178.41 513.61,-174.34 513.2,-181.33"/>
</g>
<!-- Node5&#45;&gt;Node6 -->
<g id="edge5" class="edge">
<title>Node5&#45;&gt;Node6</title>
<path fill="none" stroke="midnightblue" d="M284.66,-152.41C308.07,-147.33 337.01,-141.04 361.71,-135.68"/>
<polygon fill="midnightblue" stroke="midnightblue" points="362.63,-139.06 371.66,-133.52 361.14,-132.22 362.63,-139.06"/>
</g>
<!-- Node5&#45;&gt;Node7 -->
<g id="edge6" class="edge">
<title>Node5&#45;&gt;Node7</title>
<path fill="none" stroke="midnightblue" d="M251.41,-171.51C276.57,-193.39 337.33,-245.9 348,-252 355.37,-256.21 363.61,-259.89 371.74,-263.01"/>
<polygon fill="midnightblue" stroke="midnightblue" points="370.56,-266.31 381.16,-266.42 372.95,-259.73 370.56,-266.31"/>
</g>
<!-- Node7&#45;&gt;Node3 -->
<g id="edge8" class="edge">
<title>Node7&#45;&gt;Node3</title>
<path fill="none" stroke="midnightblue" d="M455.48,-266.41C475.16,-261.44 499.39,-255.32 520.32,-250.04"/>
<polygon fill="midnightblue" stroke="midnightblue" points="521.46,-253.36 530.3,-247.52 519.74,-246.57 521.46,-253.36"/>
</g>
<!-- Node7&#45;&gt;Node4 -->
<g id="edge9" class="edge">
<title>Node7&#45;&gt;Node4</title>
<path fill="none" stroke="midnightblue" d="M432.76,-266.37C459.01,-249.8 512.91,-215.77 544.16,-196.05"/>
<polygon fill="midnightblue" stroke="midnightblue" points="546.11,-198.95 552.7,-190.66 542.38,-193.04 546.11,-198.95"/>
</g>
<!-- Node8 -->
<g id="node8" class="node">
<title>Node8</title>
<g id="a_node8"><a xlink:href="../../da/d74/class_grid.html#a3618702f7872969eedc6e8817dc26776" target="_top" xlink:title=" ">
<polygon fill="none" stroke="black" points="521,-266.5 521,-285.5 617,-285.5 617,-266.5 521,-266.5"/>
<text text-anchor="middle" x="569" y="-273.5" font-family="Helvetica,sans-Serif" font-size="10.00">Grid::getFieldByID</text>
</a>
</g>
</g>
<!-- Node7&#45;&gt;Node8 -->
<g id="edge7" class="edge">
<title>Node7&#45;&gt;Node8</title>
<path fill="none" stroke="midnightblue" d="M471.83,-276C484.46,-276 497.93,-276 510.68,-276"/>
<polygon fill="midnightblue" stroke="midnightblue" points="510.72,-279.5 520.72,-276 510.72,-272.5 510.72,-279.5"/>
</g>
<!-- Node10&#45;&gt;Node7 -->
<g id="edge16" class="edge">
<title>Node10&#45;&gt;Node7</title>
<path fill="none" stroke="midnightblue" d="M299.26,-276C315.87,-276 334.03,-276 350.96,-276"/>
<polygon fill="midnightblue" stroke="midnightblue" points="351.32,-279.5 361.32,-276 351.32,-272.5 351.32,-279.5"/>
</g>
<!-- Node11 -->
<g id="node11" class="node">
<title>Node11</title>
<g id="a_node11"><a xlink:href="../../da/d74/class_grid.html#af60e6e64cac90b7d38132dc6560b2052" target="_top" xlink:title=" ">
<polygon fill="none" stroke="black" points="363.5,-304.5 363.5,-323.5 469.5,-323.5 469.5,-304.5 363.5,-304.5"/>
<text text-anchor="middle" x="416.5" y="-311.5" font-family="Helvetica,sans-Serif" font-size="10.00">Grid::getDistrictByID</text>
</a>
</g>
</g>
<!-- Node10&#45;&gt;Node11 -->
<g id="edge15" class="edge">
<title>Node10&#45;&gt;Node11</title>
<path fill="none" stroke="midnightblue" d="M284.66,-285.59C308.07,-290.67 337.01,-296.96 361.71,-302.32"/>
<polygon fill="midnightblue" stroke="midnightblue" points="361.14,-305.78 371.66,-304.48 362.63,-298.94 361.14,-305.78"/>
</g>
</g>
</svg>
        <g id="navigator" transform="translate(0 0)" fill="#404254">
                <rect fill="#f2f5e9" fill-opacity="0.5" stroke="#606060" stroke-width=".5" x="0" y="0" width="60" height="60"/>
                <use id="zoomplus" xlink:href="#zoomPlus" x="17" y="9" onmousedown="handleZoom(evt,'in')"/>
                <use id="zoomminus" xlink:href="#zoomMin" x="42" y="9" onmousedown="handleZoom(evt,'out')"/>
                <use id="reset" xlink:href="#resetDef" x="30" y="36" onmousedown="handleReset()"/>
                <g id="arrowUp" xlink:href="#dirArrow" transform="translate(30 24)" onmousedown="handlePan(0,-1)">
                  <use xlink:href="#rim" fill="#404040">
                        <set attributeName="fill" to="#808080" begin="arrowUp.mouseover" end="arrowUp.mouseout"/>
                  </use>
                  <path fill="none" stroke="white" stroke-width="1.5" d="M0,-3.0v7 M-2.5,-0.5L0,-3.0L2.5,-0.5"/>
                </g>
                <g id="arrowRight" xlink:href="#dirArrow" transform="rotate(90) translate(36 -43)" onmousedown="handlePan(1,0)">
                  <use xlink:href="#rim" fill="#404040">
                        <set attributeName="fill" to="#808080" begin="arrowRight.mouseover" end="arrowRight.mouseout"/>
                  </use>
                  <path fill="none" stroke="white" stroke-width="1.5" d="M0,-3.0v7 M-2.5,-0.5L0,-3.0L2.5,-0.5"/>
                </g>
                <g id="arrowDown" xlink:href="#dirArrow" transform="rotate(180) translate(-30 -48)" onmousedown="handlePan(0,1)">
                  <use xlink:href="#rim" fill="#404040">
                        <set attributeName="fill" to="#808080" begin="arrowDown.mouseover" end="arrowDown.mouseout"/>
                  </use>
                  <path fill="none" stroke="white" stroke-width="1.5" d="M0,-3.0v7 M-2.5,-0.5L0,-3.0L2.5,-0.5"/>
                </g>
                <g id="arrowLeft" xlink:href="#dirArrow" transform="rotate(270) translate(-36 17)" onmousedown="handlePan(-1,0)">
                  <use xlink:href="#rim" fill="#404040">
                        <set attributeName="fill" to="#808080" begin="arrowLeft.mouseover" end="arrowLeft.mouseout"/>
                  </use>
                  <path fill="none" stroke="white" stroke-width="1.5" d="M0,-3.0v7 M-2.5,-0.5L0,-3.0L2.5,-0.5"/>
                </g>
        </g>
        <svg viewBox="0 0 15 15" width="100%" height="30px" preserveAspectRatio="xMaxYMin meet">
         <g id="arrow_out" transform="scale(0.3 0.3)">
          <a xlink:href="class_window_a3cf04a74c49b1871b64436ef60fedc87_cgraph_org.svg" target="_base">
           <rect id="button" ry="5" rx="5" y="6" x="6" height="38" width="38"
                fill="#f2f5e9" fill-opacity="0.5" stroke="#606060" stroke-width="1.0"/>
           <path id="arrow"
             d="M 11.500037,31.436501 C 11.940474,20.09759 22.043105,11.32322 32.158766,21.979434 L 37.068811,17.246167 C 37.068811,17.246167 37.088388,32 37.088388,32 L 22.160133,31.978069 C 22.160133,31.978069 26.997745,27.140456 26.997745,27.140456 C 18.528582,18.264221 13.291696,25.230495 11.500037,31.436501 z"
             style="fill:#404040;"/>
          </a>
         </g>
        </svg>
</svg>
