<?xml version="1.0" encoding="UTF-8" standalone="no"?>
<!DOCTYPE svg PUBLIC "-//W3C//DTD SVG 1.1//EN"
 "http://www.w3.org/Graphics/SVG/1.1/DTD/svg11.dtd">
<!-- Generated by graphviz version 2.44.1 (20200629.0846)
 -->
<!-- Title: Window::showStatus Pages: 1 -->
<svg width="412pt" height="218pt"
 viewBox="0.00 0.00 412.00 218.00" xmlns="http://www.w3.org/2000/svg" xmlns:xlink="http://www.w3.org/1999/xlink">
<g id="graph0" class="graph" transform="scale(1 1) rotate(0) translate(4 214)">
<title>Window::showStatus</title>
<!-- Node1 -->
<g id="node1" class="node">
<title>Node1</title>
<g id="a_node1"><a xlink:title=" ">
<polygon fill="#bfbfbf" stroke="black" points="0,-95.5 0,-114.5 108,-114.5 108,-95.5 0,-95.5"/>
<text text-anchor="middle" x="54" y="-102.5" font-family="Helvetica,sans-Serif" font-size="10.00">Window::showStatus</text>
</a>
</g>
</g>
<!-- Node2 -->
<g id="node2" class="node">
<title>Node2</title>
<g id="a_node2"><a xlink:href="../../da/d74/class_grid.html#a122b323349de05dbe68517d602cb2221" target="_top" xlink:title=" ">
<polygon fill="none" stroke="black" points="153.5,-190.5 153.5,-209.5 262.5,-209.5 262.5,-190.5 153.5,-190.5"/>
<text text-anchor="middle" x="208" y="-197.5" font-family="Helvetica,sans-Serif" font-size="10.00">Grid::getCountryByID</text>
</a>
</g>
</g>
<!-- Node1&#45;&gt;Node2 -->
<g id="edge1" class="edge">
<title>Node1&#45;&gt;Node2</title>
<path fill="none" stroke="midnightblue" d="M63.64,-114.62C78.53,-130.63 110.65,-162.79 144,-181 148,-183.18 152.28,-185.15 156.66,-186.91"/>
<polygon fill="midnightblue" stroke="midnightblue" points="155.74,-190.3 166.34,-190.44 158.15,-183.73 155.74,-190.3"/>
</g>
<!-- Node3 -->
<g id="node3" class="node">
<title>Node3</title>
<g id="a_node3"><a xlink:href="../../da/d74/class_grid.html#a53693945f3d1ec88325b6a7c45053b7d" target="_top" xlink:title=" ">
<polygon fill="none" stroke="black" points="156,-152.5 156,-171.5 260,-171.5 260,-152.5 156,-152.5"/>
<text text-anchor="middle" x="208" y="-159.5" font-family="Helvetica,sans-Serif" font-size="10.00">Grid::getCurrentTick</text>
</a>
</g>
</g>
<!-- Node1&#45;&gt;Node3 -->
<g id="edge2" class="edge">
<title>Node1&#45;&gt;Node3</title>
<path fill="none" stroke="midnightblue" d="M80.44,-114.54C105.54,-123.95 144.1,-138.41 172.07,-148.9"/>
<polygon fill="midnightblue" stroke="midnightblue" points="170.88,-152.19 181.48,-152.43 173.34,-145.64 170.88,-152.19"/>
</g>
<!-- Node4 -->
<g id="node4" class="node">
<title>Node4</title>
<g id="a_node4"><a xlink:href="../../da/d74/class_grid.html#aff3d5bc3ea4e8da08e0a78d7f73f0084" target="_top" xlink:title=" ">
<polygon fill="none" stroke="black" points="153,-38.5 153,-57.5 263,-57.5 263,-38.5 153,-38.5"/>
<text text-anchor="middle" x="208" y="-45.5" font-family="Helvetica,sans-Serif" font-size="10.00">Grid::getFieldByPoint</text>
</a>
</g>
</g>
<!-- Node1&#45;&gt;Node4 -->
<g id="edge3" class="edge">
<title>Node1&#45;&gt;Node4</title>
<path fill="none" stroke="midnightblue" d="M75.6,-95.43C93.47,-87.32 120.15,-75.66 144,-67 150.06,-64.8 156.51,-62.65 162.88,-60.63"/>
<polygon fill="midnightblue" stroke="midnightblue" points="164.25,-63.87 172.77,-57.57 162.18,-57.18 164.25,-63.87"/>
</g>
<!-- Node6 -->
<g id="node6" class="node">
<title>Node6</title>
<g id="a_node6"><a xlink:href="../../d1/d22/class_utils_1_1_point.html#a4fd453f573c399f7195a8982268a9f55" target="_top" xlink:title=" ">
<polygon fill="none" stroke="black" points="311.5,-76.5 311.5,-95.5 400.5,-95.5 400.5,-76.5 311.5,-76.5"/>
<text text-anchor="middle" x="356" y="-83.5" font-family="Helvetica,sans-Serif" font-size="10.00">Utils::Point::getX</text>
</a>
</g>
</g>
<!-- Node1&#45;&gt;Node6 -->
<g id="edge7" class="edge">
<title>Node1&#45;&gt;Node6</title>
<path fill="none" stroke="midnightblue" d="M108.25,-108.32C152.29,-110.28 216.41,-111.28 272,-105 284.98,-103.53 298.89,-100.81 311.54,-97.88"/>
<polygon fill="midnightblue" stroke="midnightblue" points="312.48,-101.26 321.38,-95.51 310.83,-94.45 312.48,-101.26"/>
</g>
<!-- Node7 -->
<g id="node7" class="node">
<title>Node7</title>
<g id="a_node7"><a xlink:href="../../d1/d22/class_utils_1_1_point.html#a62ce3a4ededc21a4f417bf18e357fc8e" target="_top" xlink:title=" ">
<polygon fill="none" stroke="black" points="310.5,-38.5 310.5,-57.5 401.5,-57.5 401.5,-38.5 310.5,-38.5"/>
<text text-anchor="middle" x="356" y="-45.5" font-family="Helvetica,sans-Serif" font-size="10.00">Utils::Point::getY</text>
</a>
</g>
</g>
<!-- Node1&#45;&gt;Node7 -->
<g id="edge8" class="edge">
<title>Node1&#45;&gt;Node7</title>
<path fill="none" stroke="midnightblue" d="M62.26,-95.39C75.97,-78.13 107.59,-42.43 144,-29 202.3,-7.49 275.55,-22.65 318.63,-35.44"/>
<polygon fill="midnightblue" stroke="midnightblue" points="317.79,-38.85 328.38,-38.46 319.86,-32.16 317.79,-38.85"/>
</g>
<!-- Node8 -->
<g id="node8" class="node">
<title>Node8</title>
<g id="a_node8"><a xlink:href="../../d1/d22/class_utils_1_1_point.html#a1563d88d568349cd8e76904c25671594" target="_top" xlink:title=" ">
<polygon fill="none" stroke="black" points="144,-76.5 144,-95.5 272,-95.5 272,-76.5 144,-76.5"/>
<text text-anchor="middle" x="208" y="-83.5" font-family="Helvetica,sans-Serif" font-size="10.00">Utils::Point::withinBounds</text>
</a>
</g>
</g>
<!-- Node1&#45;&gt;Node8 -->
<g id="edge9" class="edge">
<title>Node1&#45;&gt;Node8</title>
<path fill="none" stroke="midnightblue" d="M108.16,-98.35C116.47,-97.32 125.18,-96.23 133.84,-95.15"/>
<polygon fill="midnightblue" stroke="midnightblue" points="134.46,-98.59 143.95,-93.88 133.59,-91.65 134.46,-98.59"/>
</g>
<!-- Node5 -->
<g id="node5" class="node">
<title>Node5</title>
<g id="a_node5"><a xlink:href="../../da/d74/class_grid.html#a3618702f7872969eedc6e8817dc26776" target="_top" xlink:title=" ">
<polygon fill="none" stroke="black" points="308,-0.5 308,-19.5 404,-19.5 404,-0.5 308,-0.5"/>
<text text-anchor="middle" x="356" y="-7.5" font-family="Helvetica,sans-Serif" font-size="10.00">Grid::getFieldByID</text>
</a>
</g>
</g>
<!-- Node4&#45;&gt;Node5 -->
<g id="edge4" class="edge">
<title>Node4&#45;&gt;Node5</title>
<path fill="none" stroke="midnightblue" d="M245.84,-38.41C264.85,-33.46 288.23,-27.38 308.47,-22.11"/>
<polygon fill="midnightblue" stroke="midnightblue" points="309.63,-25.43 318.42,-19.52 307.86,-18.65 309.63,-25.43"/>
</g>
<!-- Node4&#45;&gt;Node6 -->
<g id="edge5" class="edge">
<title>Node4&#45;&gt;Node6</title>
<path fill="none" stroke="midnightblue" d="M245.84,-57.59C264.85,-62.54 288.23,-68.62 308.47,-73.89"/>
<polygon fill="midnightblue" stroke="midnightblue" points="307.86,-77.35 318.42,-76.48 309.63,-70.57 307.86,-77.35"/>
</g>
<!-- Node4&#45;&gt;Node7 -->
<g id="edge6" class="edge">
<title>Node4&#45;&gt;Node7</title>
<path fill="none" stroke="midnightblue" d="M263.37,-48C275.28,-48 287.9,-48 299.85,-48"/>
<polygon fill="midnightblue" stroke="midnightblue" points="300.13,-51.5 310.13,-48 300.13,-44.5 300.13,-51.5"/>
</g>
<!-- Node8&#45;&gt;Node6 -->
<g id="edge10" class="edge">
<title>Node8&#45;&gt;Node6</title>
<path fill="none" stroke="midnightblue" d="M272.19,-86C281.92,-86 291.89,-86 301.39,-86"/>
<polygon fill="midnightblue" stroke="midnightblue" points="301.48,-89.5 311.48,-86 301.48,-82.5 301.48,-89.5"/>
</g>
<!-- Node8&#45;&gt;Node7 -->
<g id="edge11" class="edge">
<title>Node8&#45;&gt;Node7</title>
<path fill="none" stroke="midnightblue" d="M245.84,-76.41C264.85,-71.46 288.23,-65.38 308.47,-60.11"/>
<polygon fill="midnightblue" stroke="midnightblue" points="309.63,-63.43 318.42,-57.52 307.86,-56.65 309.63,-63.43"/>
</g>
</g>
</svg>
