<?xml version="1.0" encoding="UTF-8" standalone="no"?>
<!DOCTYPE svg PUBLIC "-//W3C//DTD SVG 1.1//EN"
 "http://www.w3.org/Graphics/SVG/1.1/DTD/svg11.dtd">
<!-- Generated by graphviz version 2.44.1 (20200629.0846)
 -->
<!-- Title: Window::createVaccinationMap Pages: 1 -->
<svg width="456pt" height="142pt"
 viewBox="0.00 0.00 456.00 142.00" xmlns="http://www.w3.org/2000/svg" xmlns:xlink="http://www.w3.org/1999/xlink">
<g id="graph0" class="graph" transform="scale(1 1) rotate(0) translate(4 138)">
<title>Window::createVaccinationMap</title>
<!-- Node1 -->
<g id="node1" class="node">
<title>Node1</title>
<g id="a_node1"><a xlink:title=" ">
<polygon fill="#bfbfbf" stroke="black" points="0,-57.5 0,-76.5 154,-76.5 154,-57.5 0,-57.5"/>
<text text-anchor="middle" x="77" y="-64.5" font-family="Helvetica,sans-Serif" font-size="10.00">Window::createVaccinationMap</text>
</a>
</g>
</g>
<!-- Node2 -->
<g id="node2" class="node">
<title>Node2</title>
<g id="a_node2"><a xlink:href="../../da/d74/class_grid.html#aff3d5bc3ea4e8da08e0a78d7f73f0084" target="_top" xlink:title=" ">
<polygon fill="none" stroke="black" points="198,-76.5 198,-95.5 308,-95.5 308,-76.5 198,-76.5"/>
<text text-anchor="middle" x="253" y="-83.5" font-family="Helvetica,sans-Serif" font-size="10.00">Grid::getFieldByPoint</text>
</a>
</g>
</g>
<!-- Node1&#45;&gt;Node2 -->
<g id="edge1" class="edge">
<title>Node1&#45;&gt;Node2</title>
<path fill="none" stroke="midnightblue" d="M154.07,-75.31C165.22,-76.52 176.62,-77.77 187.52,-78.96"/>
<polygon fill="midnightblue" stroke="midnightblue" points="187.46,-82.47 197.79,-80.08 188.22,-75.52 187.46,-82.47"/>
</g>
<!-- Node4 -->
<g id="node4" class="node">
<title>Node4</title>
<g id="a_node4"><a xlink:href="../../d1/d22/class_utils_1_1_point.html#a4fd453f573c399f7195a8982268a9f55" target="_top" xlink:title=" ">
<polygon fill="none" stroke="black" points="355.5,-114.5 355.5,-133.5 444.5,-133.5 444.5,-114.5 355.5,-114.5"/>
<text text-anchor="middle" x="400" y="-121.5" font-family="Helvetica,sans-Serif" font-size="10.00">Utils::Point::getX</text>
</a>
</g>
</g>
<!-- Node1&#45;&gt;Node4 -->
<g id="edge6" class="edge">
<title>Node1&#45;&gt;Node4</title>
<path fill="none" stroke="midnightblue" d="M101.15,-76.65C123.48,-85.54 158.46,-98.32 190,-105 242.03,-116.03 302.67,-120.66 345.19,-122.6"/>
<polygon fill="midnightblue" stroke="midnightblue" points="345.18,-126.1 355.32,-123.03 345.48,-119.11 345.18,-126.1"/>
</g>
<!-- Node5 -->
<g id="node5" class="node">
<title>Node5</title>
<g id="a_node5"><a xlink:href="../../d1/d22/class_utils_1_1_point.html#a62ce3a4ededc21a4f417bf18e357fc8e" target="_top" xlink:title=" ">
<polygon fill="none" stroke="black" points="354.5,-38.5 354.5,-57.5 445.5,-57.5 445.5,-38.5 354.5,-38.5"/>
<text text-anchor="middle" x="400" y="-45.5" font-family="Helvetica,sans-Serif" font-size="10.00">Utils::Point::getY</text>
</a>
</g>
</g>
<!-- Node1&#45;&gt;Node5 -->
<g id="edge7" class="edge">
<title>Node1&#45;&gt;Node5</title>
<path fill="none" stroke="midnightblue" d="M154.07,-62.5C212.47,-59.04 291.72,-54.35 344.06,-51.25"/>
<polygon fill="midnightblue" stroke="midnightblue" points="344.38,-54.74 354.16,-50.65 343.97,-47.75 344.38,-54.74"/>
</g>
<!-- Node6 -->
<g id="node6" class="node">
<title>Node6</title>
<g id="a_node6"><a xlink:href="../../dc/d67/class_field.html#a35aeab02328c4fdc387534a7a8f61bb3" target="_top" xlink:title=" ">
<polygon fill="none" stroke="black" points="190,-0.5 190,-19.5 316,-19.5 316,-0.5 190,-0.5"/>
<text text-anchor="middle" x="253" y="-7.5" font-family="Helvetica,sans-Serif" font-size="10.00">Field::getStoredVaccines</text>
</a>
</g>
</g>
<!-- Node1&#45;&gt;Node6 -->
<g id="edge5" class="edge">
<title>Node1&#45;&gt;Node6</title>
<path fill="none" stroke="midnightblue" d="M107.12,-57.46C136.23,-47.92 181.16,-33.21 213.26,-22.69"/>
<polygon fill="midnightblue" stroke="midnightblue" points="214.37,-26.01 222.78,-19.57 212.19,-19.36 214.37,-26.01"/>
</g>
<!-- Node3 -->
<g id="node3" class="node">
<title>Node3</title>
<g id="a_node3"><a xlink:href="../../da/d74/class_grid.html#a3618702f7872969eedc6e8817dc26776" target="_top" xlink:title=" ">
<polygon fill="none" stroke="black" points="352,-76.5 352,-95.5 448,-95.5 448,-76.5 352,-76.5"/>
<text text-anchor="middle" x="400" y="-83.5" font-family="Helvetica,sans-Serif" font-size="10.00">Grid::getFieldByID</text>
</a>
</g>
</g>
<!-- Node2&#45;&gt;Node3 -->
<g id="edge2" class="edge">
<title>Node2&#45;&gt;Node3</title>
<path fill="none" stroke="midnightblue" d="M308.41,-86C319.25,-86 330.66,-86 341.6,-86"/>
<polygon fill="midnightblue" stroke="midnightblue" points="341.9,-89.5 351.9,-86 341.9,-82.5 341.9,-89.5"/>
</g>
<!-- Node2&#45;&gt;Node4 -->
<g id="edge3" class="edge">
<title>Node2&#45;&gt;Node4</title>
<path fill="none" stroke="midnightblue" d="M290.59,-95.59C309.47,-100.54 332.69,-106.62 352.79,-111.89"/>
<polygon fill="midnightblue" stroke="midnightblue" points="352.11,-115.33 362.67,-114.48 353.89,-108.56 352.11,-115.33"/>
</g>
<!-- Node2&#45;&gt;Node5 -->
<g id="edge4" class="edge">
<title>Node2&#45;&gt;Node5</title>
<path fill="none" stroke="midnightblue" d="M290.59,-76.41C309.47,-71.46 332.69,-65.38 352.79,-60.11"/>
<polygon fill="midnightblue" stroke="midnightblue" points="353.89,-63.44 362.67,-57.52 352.11,-56.67 353.89,-63.44"/>
</g>
</g>
</svg>
