<?xml version="1.0" encoding="UTF-8" standalone="no"?>
<!DOCTYPE svg PUBLIC "-//W3C//DTD SVG 1.1//EN"
 "http://www.w3.org/Graphics/SVG/1.1/DTD/svg11.dtd">
<!-- Generated by graphviz version 2.44.1 (20200629.0846)
 -->
<!-- Title: Window::createInfectionHeatMap Pages: 1 -->
<svg width="480pt" height="142pt"
 viewBox="0.00 0.00 480.00 142.00" xmlns="http://www.w3.org/2000/svg" xmlns:xlink="http://www.w3.org/1999/xlink">
<g id="graph0" class="graph" transform="scale(1 1) rotate(0) translate(4 138)">
<title>Window::createInfectionHeatMap</title>
<!-- Node1 -->
<g id="node1" class="node">
<title>Node1</title>
<g id="a_node1"><a xlink:title=" ">
<polygon fill="#bfbfbf" stroke="black" points="0,-57.5 0,-76.5 159,-76.5 159,-57.5 0,-57.5"/>
<text text-anchor="middle" x="79.5" y="-64.5" font-family="Helvetica,sans-Serif" font-size="10.00">Window::createInfectionHeatMap</text>
</a>
</g>
</g>
<!-- Node2 -->
<g id="node2" class="node">
<title>Node2</title>
<g id="a_node2"><a xlink:href="../../dc/d67/class_field.html#a3ceb497dd33f97896974a2367fedc3c4" target="_top" xlink:title=" ">
<polygon fill="none" stroke="black" points="195,-114.5 195,-133.5 340,-133.5 340,-114.5 195,-114.5"/>
<text text-anchor="middle" x="267.5" y="-121.5" font-family="Helvetica,sans-Serif" font-size="10.00">Field::getCurrentInfectionRate</text>
</a>
</g>
</g>
<!-- Node1&#45;&gt;Node2 -->
<g id="edge1" class="edge">
<title>Node1&#45;&gt;Node2</title>
<path fill="none" stroke="midnightblue" d="M111.63,-76.54C142.88,-86.12 191.19,-100.92 225.53,-111.45"/>
<polygon fill="midnightblue" stroke="midnightblue" points="224.68,-114.84 235.27,-114.43 226.73,-108.15 224.68,-114.84"/>
</g>
<!-- Node3 -->
<g id="node3" class="node">
<title>Node3</title>
<g id="a_node3"><a xlink:href="../../da/d74/class_grid.html#aff3d5bc3ea4e8da08e0a78d7f73f0084" target="_top" xlink:title=" ">
<polygon fill="none" stroke="black" points="212.5,-38.5 212.5,-57.5 322.5,-57.5 322.5,-38.5 212.5,-38.5"/>
<text text-anchor="middle" x="267.5" y="-45.5" font-family="Helvetica,sans-Serif" font-size="10.00">Grid::getFieldByPoint</text>
</a>
</g>
</g>
<!-- Node1&#45;&gt;Node3 -->
<g id="edge2" class="edge">
<title>Node1&#45;&gt;Node3</title>
<path fill="none" stroke="midnightblue" d="M159.11,-58.97C173.55,-57.49 188.47,-55.97 202.42,-54.55"/>
<polygon fill="midnightblue" stroke="midnightblue" points="202.79,-58.03 212.39,-53.53 202.08,-51.06 202.79,-58.03"/>
</g>
<!-- Node5 -->
<g id="node5" class="node">
<title>Node5</title>
<g id="a_node5"><a xlink:href="../../d1/d22/class_utils_1_1_point.html#a4fd453f573c399f7195a8982268a9f55" target="_top" xlink:title=" ">
<polygon fill="none" stroke="black" points="379.5,-76.5 379.5,-95.5 468.5,-95.5 468.5,-76.5 379.5,-76.5"/>
<text text-anchor="middle" x="424" y="-83.5" font-family="Helvetica,sans-Serif" font-size="10.00">Utils::Point::getX</text>
</a>
</g>
</g>
<!-- Node1&#45;&gt;Node5 -->
<g id="edge6" class="edge">
<title>Node1&#45;&gt;Node5</title>
<path fill="none" stroke="midnightblue" d="M159.08,-71.36C223.41,-74.93 312.7,-79.88 369.16,-83.01"/>
<polygon fill="midnightblue" stroke="midnightblue" points="369.13,-86.52 379.31,-83.58 369.52,-79.53 369.13,-86.52"/>
</g>
<!-- Node6 -->
<g id="node6" class="node">
<title>Node6</title>
<g id="a_node6"><a xlink:href="../../d1/d22/class_utils_1_1_point.html#a62ce3a4ededc21a4f417bf18e357fc8e" target="_top" xlink:title=" ">
<polygon fill="none" stroke="black" points="378.5,-0.5 378.5,-19.5 469.5,-19.5 469.5,-0.5 378.5,-0.5"/>
<text text-anchor="middle" x="424" y="-7.5" font-family="Helvetica,sans-Serif" font-size="10.00">Utils::Point::getY</text>
</a>
</g>
</g>
<!-- Node1&#45;&gt;Node6 -->
<g id="edge7" class="edge">
<title>Node1&#45;&gt;Node6</title>
<path fill="none" stroke="midnightblue" d="M103.74,-57.47C126.56,-48.55 162.58,-35.63 195,-29 253.43,-17.05 321.75,-12.58 368.26,-10.93"/>
<polygon fill="midnightblue" stroke="midnightblue" points="368.54,-14.42 378.42,-10.6 368.32,-7.42 368.54,-14.42"/>
</g>
<!-- Node4 -->
<g id="node4" class="node">
<title>Node4</title>
<g id="a_node4"><a xlink:href="../../da/d74/class_grid.html#a3618702f7872969eedc6e8817dc26776" target="_top" xlink:title=" ">
<polygon fill="none" stroke="black" points="376,-38.5 376,-57.5 472,-57.5 472,-38.5 376,-38.5"/>
<text text-anchor="middle" x="424" y="-45.5" font-family="Helvetica,sans-Serif" font-size="10.00">Grid::getFieldByID</text>
</a>
</g>
</g>
<!-- Node3&#45;&gt;Node4 -->
<g id="edge3" class="edge">
<title>Node3&#45;&gt;Node4</title>
<path fill="none" stroke="midnightblue" d="M322.54,-48C336.54,-48 351.67,-48 365.83,-48"/>
<polygon fill="midnightblue" stroke="midnightblue" points="365.94,-51.5 375.94,-48 365.94,-44.5 365.94,-51.5"/>
</g>
<!-- Node3&#45;&gt;Node5 -->
<g id="edge4" class="edge">
<title>Node3&#45;&gt;Node5</title>
<path fill="none" stroke="midnightblue" d="M307.49,-57.59C327.78,-62.58 352.79,-68.73 374.35,-74.03"/>
<polygon fill="midnightblue" stroke="midnightblue" points="373.75,-77.49 384.29,-76.48 375.42,-70.69 373.75,-77.49"/>
</g>
<!-- Node3&#45;&gt;Node6 -->
<g id="edge5" class="edge">
<title>Node3&#45;&gt;Node6</title>
<path fill="none" stroke="midnightblue" d="M307.49,-38.41C327.78,-33.42 352.79,-27.27 374.35,-21.97"/>
<polygon fill="midnightblue" stroke="midnightblue" points="375.42,-25.31 384.29,-19.52 373.75,-18.51 375.42,-25.31"/>
</g>
</g>
</svg>
