<?xml version="1.0" encoding="UTF-8" standalone="no"?>
<!DOCTYPE svg PUBLIC "-//W3C//DTD SVG 1.1//EN"
 "http://www.w3.org/Graphics/SVG/1.1/DTD/svg11.dtd">
<!-- Generated by graphviz version 2.44.1 (20200629.0846)
 -->
<!-- Title: Window::createPopulationMap Pages: 1 -->
<svg width="461pt" height="142pt"
 viewBox="0.00 0.00 461.00 142.00" xmlns="http://www.w3.org/2000/svg" xmlns:xlink="http://www.w3.org/1999/xlink">
<g id="graph0" class="graph" transform="scale(1 1) rotate(0) translate(4 138)">
<title>Window::createPopulationMap</title>
<!-- Node1 -->
<g id="node1" class="node">
<title>Node1</title>
<g id="a_node1"><a xlink:title=" ">
<polygon fill="#bfbfbf" stroke="black" points="0,-57.5 0,-76.5 149,-76.5 149,-57.5 0,-57.5"/>
<text text-anchor="middle" x="74.5" y="-64.5" font-family="Helvetica,sans-Serif" font-size="10.00">Window::createPopulationMap</text>
</a>
</g>
</g>
<!-- Node2 -->
<g id="node2" class="node">
<title>Node2</title>
<g id="a_node2"><a xlink:href="../../da/d74/class_grid.html#aff3d5bc3ea4e8da08e0a78d7f73f0084" target="_top" xlink:title=" ">
<polygon fill="none" stroke="black" points="198,-76.5 198,-95.5 308,-95.5 308,-76.5 198,-76.5"/>
<text text-anchor="middle" x="253" y="-83.5" font-family="Helvetica,sans-Serif" font-size="10.00">Grid::getFieldByPoint</text>
</a>
</g>
</g>
<!-- Node1&#45;&gt;Node2 -->
<g id="edge1" class="edge">
<title>Node1&#45;&gt;Node2</title>
<path fill="none" stroke="midnightblue" d="M149.07,-74.92C161.99,-76.31 175.33,-77.75 187.96,-79.11"/>
<polygon fill="midnightblue" stroke="midnightblue" points="187.59,-82.59 197.91,-80.18 188.34,-75.63 187.59,-82.59"/>
</g>
<!-- Node4 -->
<g id="node4" class="node">
<title>Node4</title>
<g id="a_node4"><a xlink:href="../../d1/d22/class_utils_1_1_point.html#a4fd453f573c399f7195a8982268a9f55" target="_top" xlink:title=" ">
<polygon fill="none" stroke="black" points="360.5,-114.5 360.5,-133.5 449.5,-133.5 449.5,-114.5 360.5,-114.5"/>
<text text-anchor="middle" x="405" y="-121.5" font-family="Helvetica,sans-Serif" font-size="10.00">Utils::Point::getX</text>
</a>
</g>
</g>
<!-- Node1&#45;&gt;Node4 -->
<g id="edge6" class="edge">
<title>Node1&#45;&gt;Node4</title>
<path fill="none" stroke="midnightblue" d="M97.68,-76.52C119.48,-85.44 153.91,-98.36 185,-105 240.57,-116.86 305.59,-121.35 350.26,-123.03"/>
<polygon fill="midnightblue" stroke="midnightblue" points="350.2,-126.53 360.32,-123.38 350.44,-119.54 350.2,-126.53"/>
</g>
<!-- Node5 -->
<g id="node5" class="node">
<title>Node5</title>
<g id="a_node5"><a xlink:href="../../d1/d22/class_utils_1_1_point.html#a62ce3a4ededc21a4f417bf18e357fc8e" target="_top" xlink:title=" ">
<polygon fill="none" stroke="black" points="359.5,-38.5 359.5,-57.5 450.5,-57.5 450.5,-38.5 359.5,-38.5"/>
<text text-anchor="middle" x="405" y="-45.5" font-family="Helvetica,sans-Serif" font-size="10.00">Utils::Point::getY</text>
</a>
</g>
</g>
<!-- Node1&#45;&gt;Node5 -->
<g id="edge7" class="edge">
<title>Node1&#45;&gt;Node5</title>
<path fill="none" stroke="midnightblue" d="M149.22,-62.74C209.82,-59.23 294.33,-54.34 349.11,-51.18"/>
<polygon fill="midnightblue" stroke="midnightblue" points="349.53,-54.66 359.31,-50.58 349.13,-47.67 349.53,-54.66"/>
</g>
<!-- Node6 -->
<g id="node6" class="node">
<title>Node6</title>
<g id="a_node6"><a xlink:href="../../dc/d67/class_field.html#a17faeb6e0835c0ec6446c5f6b291d806" target="_top" xlink:title=" ">
<polygon fill="none" stroke="black" points="185,-0.5 185,-19.5 321,-19.5 321,-0.5 185,-0.5"/>
<text text-anchor="middle" x="253" y="-7.5" font-family="Helvetica,sans-Serif" font-size="10.00">Field::getPopulationDensity</text>
</a>
</g>
</g>
<!-- Node1&#45;&gt;Node6 -->
<g id="edge5" class="edge">
<title>Node1&#45;&gt;Node6</title>
<path fill="none" stroke="midnightblue" d="M105.04,-57.46C134.57,-47.92 180.14,-33.21 212.71,-22.69"/>
<polygon fill="midnightblue" stroke="midnightblue" points="213.92,-25.98 222.36,-19.57 211.77,-19.31 213.92,-25.98"/>
</g>
<!-- Node3 -->
<g id="node3" class="node">
<title>Node3</title>
<g id="a_node3"><a xlink:href="../../da/d74/class_grid.html#a3618702f7872969eedc6e8817dc26776" target="_top" xlink:title=" ">
<polygon fill="none" stroke="black" points="357,-76.5 357,-95.5 453,-95.5 453,-76.5 357,-76.5"/>
<text text-anchor="middle" x="405" y="-83.5" font-family="Helvetica,sans-Serif" font-size="10.00">Grid::getFieldByID</text>
</a>
</g>
</g>
<!-- Node2&#45;&gt;Node3 -->
<g id="edge2" class="edge">
<title>Node2&#45;&gt;Node3</title>
<path fill="none" stroke="midnightblue" d="M308.15,-86C320.73,-86 334.17,-86 346.87,-86"/>
<polygon fill="midnightblue" stroke="midnightblue" points="346.87,-89.5 356.87,-86 346.87,-82.5 346.87,-89.5"/>
</g>
<!-- Node2&#45;&gt;Node4 -->
<g id="edge3" class="edge">
<title>Node2&#45;&gt;Node4</title>
<path fill="none" stroke="midnightblue" d="M291.85,-95.59C311.47,-100.56 335.62,-106.68 356.48,-111.96"/>
<polygon fill="midnightblue" stroke="midnightblue" points="355.87,-115.42 366.42,-114.48 357.59,-108.63 355.87,-115.42"/>
</g>
<!-- Node2&#45;&gt;Node5 -->
<g id="edge4" class="edge">
<title>Node2&#45;&gt;Node5</title>
<path fill="none" stroke="midnightblue" d="M291.85,-76.41C311.47,-71.44 335.62,-65.32 356.48,-60.04"/>
<polygon fill="midnightblue" stroke="midnightblue" points="357.59,-63.37 366.42,-57.52 355.87,-56.58 357.59,-63.37"/>
</g>
</g>
</svg>
