<?xml version="1.0" encoding="UTF-8" standalone="no"?>
<!DOCTYPE svg PUBLIC "-//W3C//DTD SVG 1.1//EN"
 "http://www.w3.org/Graphics/SVG/1.1/DTD/svg11.dtd">
<!-- Generated by graphviz version 2.44.1 (20200629.0846)
 -->
<!-- Title: Window::createAcquiredDistrictsMap Pages: 1 -->
<svg width="645pt" height="294pt"
 viewBox="0.00 0.00 645.00 294.00" xmlns="http://www.w3.org/2000/svg" xmlns:xlink="http://www.w3.org/1999/xlink">
<g id="graph0" class="graph" transform="scale(1 1) rotate(0) translate(4 290)">
<title>Window::createAcquiredDistrictsMap</title>
<!-- Node1 -->
<g id="node1" class="node">
<title>Node1</title>
<g id="a_node1"><a xlink:title=" ">
<polygon fill="#bfbfbf" stroke="black" points="0,-133.5 0,-152.5 177,-152.5 177,-133.5 0,-133.5"/>
<text text-anchor="middle" x="88.5" y="-140.5" font-family="Helvetica,sans-Serif" font-size="10.00">Window::createAcquiredDistrictsMap</text>
</a>
</g>
</g>
<!-- Node2 -->
<g id="node2" class="node">
<title>Node2</title>
<g id="a_node2"><a xlink:href="../../d3/d56/class_country.html#ae4cb1ce84aaf89445110978833606882" target="_top" xlink:title=" ">
<polygon fill="none" stroke="black" points="213,-266.5 213,-285.5 359,-285.5 359,-266.5 213,-266.5"/>
<text text-anchor="middle" x="286" y="-273.5" font-family="Helvetica,sans-Serif" font-size="10.00">Country::getAssignedDistricts</text>
</a>
</g>
</g>
<!-- Node1&#45;&gt;Node2 -->
<g id="edge1" class="edge">
<title>Node1&#45;&gt;Node2</title>
<path fill="none" stroke="midnightblue" d="M97.03,-152.62C114.77,-174.6 161.58,-228.79 213,-257 217.17,-259.29 221.63,-261.31 226.21,-263.1"/>
<polygon fill="midnightblue" stroke="midnightblue" points="225.14,-266.43 235.73,-266.44 227.46,-259.83 225.14,-266.43"/>
</g>
<!-- Node3 -->
<g id="node3" class="node">
<title>Node3</title>
<g id="a_node3"><a xlink:href="../../da/d74/class_grid.html#a122b323349de05dbe68517d602cb2221" target="_top" xlink:title=" ">
<polygon fill="none" stroke="black" points="231.5,-228.5 231.5,-247.5 340.5,-247.5 340.5,-228.5 231.5,-228.5"/>
<text text-anchor="middle" x="286" y="-235.5" font-family="Helvetica,sans-Serif" font-size="10.00">Grid::getCountryByID</text>
</a>
</g>
</g>
<!-- Node1&#45;&gt;Node3 -->
<g id="edge2" class="edge">
<title>Node1&#45;&gt;Node3</title>
<path fill="none" stroke="midnightblue" d="M102.15,-152.55C123.78,-168.45 169.73,-200.46 213,-219 218.69,-221.44 224.78,-223.63 230.9,-225.58"/>
<polygon fill="midnightblue" stroke="midnightblue" points="229.94,-228.95 240.52,-228.45 231.94,-222.24 229.94,-228.95"/>
</g>
<!-- Node4 -->
<g id="node4" class="node">
<title>Node4</title>
<g id="a_node4"><a xlink:href="../../da/d74/class_grid.html#a258fdb0fb8bc7f13cad6637d40a7f20c" target="_top" xlink:title=" ">
<polygon fill="none" stroke="black" points="226.5,-190.5 226.5,-209.5 345.5,-209.5 345.5,-190.5 226.5,-190.5"/>
<text text-anchor="middle" x="286" y="-197.5" font-family="Helvetica,sans-Serif" font-size="10.00">Grid::getDistrictByPoint</text>
</a>
</g>
</g>
<!-- Node1&#45;&gt;Node4 -->
<g id="edge3" class="edge">
<title>Node1&#45;&gt;Node4</title>
<path fill="none" stroke="midnightblue" d="M122.22,-152.54C155.21,-162.16 206.28,-177.05 242.4,-187.58"/>
<polygon fill="midnightblue" stroke="midnightblue" points="241.59,-190.99 252.17,-190.43 243.55,-184.27 241.59,-190.99"/>
</g>
<!-- Node6 -->
<g id="node6" class="node">
<title>Node6</title>
<g id="a_node6"><a xlink:href="../../da/d74/class_grid.html#aff3d5bc3ea4e8da08e0a78d7f73f0084" target="_top" xlink:title=" ">
<polygon fill="none" stroke="black" points="395,-152.5 395,-171.5 505,-171.5 505,-152.5 395,-152.5"/>
<text text-anchor="middle" x="450" y="-159.5" font-family="Helvetica,sans-Serif" font-size="10.00">Grid::getFieldByPoint</text>
</a>
</g>
</g>
<!-- Node1&#45;&gt;Node6 -->
<g id="edge10" class="edge">
<title>Node1&#45;&gt;Node6</title>
<path fill="none" stroke="midnightblue" d="M177.44,-147.65C241.57,-151.04 327,-155.55 384.78,-158.61"/>
<polygon fill="midnightblue" stroke="midnightblue" points="384.71,-162.11 394.88,-159.14 385.08,-155.12 384.71,-162.11"/>
</g>
<!-- Node8 -->
<g id="node8" class="node">
<title>Node8</title>
<g id="a_node8"><a xlink:href="../../d1/d22/class_utils_1_1_point.html#a4fd453f573c399f7195a8982268a9f55" target="_top" xlink:title=" ">
<polygon fill="none" stroke="black" points="544.5,-114.5 544.5,-133.5 633.5,-133.5 633.5,-114.5 544.5,-114.5"/>
<text text-anchor="middle" x="589" y="-121.5" font-family="Helvetica,sans-Serif" font-size="10.00">Utils::Point::getX</text>
</a>
</g>
</g>
<!-- Node1&#45;&gt;Node8 -->
<g id="edge11" class="edge">
<title>Node1&#45;&gt;Node8</title>
<path fill="none" stroke="midnightblue" d="M177.19,-139.66C280.41,-135.72 448.59,-129.31 534.22,-126.05"/>
<polygon fill="midnightblue" stroke="midnightblue" points="534.39,-129.55 544.25,-125.67 534.12,-122.55 534.39,-129.55"/>
</g>
<!-- Node9 -->
<g id="node9" class="node">
<title>Node9</title>
<g id="a_node9"><a xlink:href="../../d1/d22/class_utils_1_1_point.html#a62ce3a4ededc21a4f417bf18e357fc8e" target="_top" xlink:title=" ">
<polygon fill="none" stroke="black" points="543.5,-76.5 543.5,-95.5 634.5,-95.5 634.5,-76.5 543.5,-76.5"/>
<text text-anchor="middle" x="589" y="-83.5" font-family="Helvetica,sans-Serif" font-size="10.00">Utils::Point::getY</text>
</a>
</g>
</g>
<!-- Node1&#45;&gt;Node9 -->
<g id="edge12" class="edge">
<title>Node1&#45;&gt;Node9</title>
<path fill="none" stroke="midnightblue" d="M172.66,-133.49C275.11,-121.78 446.28,-102.2 533.43,-92.24"/>
<polygon fill="midnightblue" stroke="midnightblue" points="533.84,-95.72 543.37,-91.1 533.04,-88.76 533.84,-95.72"/>
</g>
<!-- Node10 -->
<g id="node10" class="node">
<title>Node10</title>
<g id="a_node10"><a xlink:href="../../d6/d85/class_district.html#af11816ea48d5c0e7073fcef4af5d504c" target="_top" xlink:title=" ">
<polygon fill="none" stroke="black" points="232.5,-38.5 232.5,-57.5 339.5,-57.5 339.5,-38.5 232.5,-38.5"/>
<text text-anchor="middle" x="286" y="-45.5" font-family="Helvetica,sans-Serif" font-size="10.00">District::getDistrictID</text>
</a>
</g>
</g>
<!-- Node1&#45;&gt;Node10 -->
<g id="edge9" class="edge">
<title>Node1&#45;&gt;Node10</title>
<path fill="none" stroke="midnightblue" d="M103.83,-133.49C126.34,-118.85 171.71,-90.53 213,-72 222.29,-67.83 232.52,-64 242.29,-60.67"/>
<polygon fill="midnightblue" stroke="midnightblue" points="243.45,-63.97 251.86,-57.52 241.26,-57.32 243.45,-63.97"/>
</g>
<!-- Node11 -->
<g id="node11" class="node">
<title>Node11</title>
<g id="a_node11"><a xlink:href="../../dc/d67/class_field.html#ac9823a5988356e6d2f6aa8cf232c16c5" target="_top" xlink:title=" ">
<polygon fill="none" stroke="black" points="216,-0.5 216,-19.5 356,-19.5 356,-0.5 216,-0.5"/>
<text text-anchor="middle" x="286" y="-7.5" font-family="Helvetica,sans-Serif" font-size="10.00">Field::vaccinesToPutMinimal</text>
</a>
</g>
</g>
<!-- Node1&#45;&gt;Node11 -->
<g id="edge13" class="edge">
<title>Node1&#45;&gt;Node11</title>
<path fill="none" stroke="midnightblue" d="M97.03,-133.38C114.77,-111.4 161.58,-57.21 213,-29 217.17,-26.71 221.63,-24.69 226.21,-22.9"/>
<polygon fill="midnightblue" stroke="midnightblue" points="227.46,-26.17 235.73,-19.56 225.14,-19.57 227.46,-26.17"/>
</g>
<!-- Node5 -->
<g id="node5" class="node">
<title>Node5</title>
<g id="a_node5"><a xlink:href="../../da/d74/class_grid.html#af60e6e64cac90b7d38132dc6560b2052" target="_top" xlink:title=" ">
<polygon fill="none" stroke="black" points="397,-190.5 397,-209.5 503,-209.5 503,-190.5 397,-190.5"/>
<text text-anchor="middle" x="450" y="-197.5" font-family="Helvetica,sans-Serif" font-size="10.00">Grid::getDistrictByID</text>
</a>
</g>
</g>
<!-- Node4&#45;&gt;Node5 -->
<g id="edge4" class="edge">
<title>Node4&#45;&gt;Node5</title>
<path fill="none" stroke="midnightblue" d="M345.94,-200C359.21,-200 373.33,-200 386.72,-200"/>
<polygon fill="midnightblue" stroke="midnightblue" points="386.8,-203.5 396.8,-200 386.8,-196.5 386.8,-203.5"/>
</g>
<!-- Node4&#45;&gt;Node6 -->
<g id="edge5" class="edge">
<title>Node4&#45;&gt;Node6</title>
<path fill="none" stroke="midnightblue" d="M327.88,-190.41C349.35,-185.37 375.86,-179.16 398.6,-173.82"/>
<polygon fill="midnightblue" stroke="midnightblue" points="399.48,-177.21 408.41,-171.52 397.88,-170.4 399.48,-177.21"/>
</g>
<!-- Node7 -->
<g id="node7" class="node">
<title>Node7</title>
<g id="a_node7"><a xlink:href="../../da/d74/class_grid.html#a3618702f7872969eedc6e8817dc26776" target="_top" xlink:title=" ">
<polygon fill="none" stroke="black" points="541,-152.5 541,-171.5 637,-171.5 637,-152.5 541,-152.5"/>
<text text-anchor="middle" x="589" y="-159.5" font-family="Helvetica,sans-Serif" font-size="10.00">Grid::getFieldByID</text>
</a>
</g>
</g>
<!-- Node6&#45;&gt;Node7 -->
<g id="edge6" class="edge">
<title>Node6&#45;&gt;Node7</title>
<path fill="none" stroke="midnightblue" d="M505.15,-162C513.55,-162 522.25,-162 530.72,-162"/>
<polygon fill="midnightblue" stroke="midnightblue" points="530.89,-165.5 540.89,-162 530.89,-158.5 530.89,-165.5"/>
</g>
<!-- Node6&#45;&gt;Node8 -->
<g id="edge7" class="edge">
<title>Node6&#45;&gt;Node8</title>
<path fill="none" stroke="midnightblue" d="M485.57,-152.41C503.18,-147.53 524.78,-141.54 543.6,-136.32"/>
<polygon fill="midnightblue" stroke="midnightblue" points="544.74,-139.63 553.44,-133.59 542.87,-132.89 544.74,-139.63"/>
</g>
<!-- Node6&#45;&gt;Node9 -->
<g id="edge8" class="edge">
<title>Node6&#45;&gt;Node9</title>
<path fill="none" stroke="midnightblue" d="M464.57,-152.31C481.8,-140.27 512.7,-119.53 541,-105 544.6,-103.15 548.42,-101.36 552.26,-99.65"/>
<polygon fill="midnightblue" stroke="midnightblue" points="553.92,-102.75 561.77,-95.63 551.19,-96.31 553.92,-102.75"/>
</g>
</g>
</svg>
