<?xml version="1.0" encoding="UTF-8" standalone="no"?>
<!DOCTYPE svg PUBLIC "-//W3C//DTD SVG 1.1//EN"
 "http://www.w3.org/Graphics/SVG/1.1/DTD/svg11.dtd">
<!-- Generated by graphviz version 2.44.1 (20200629.0846)
 -->
<!-- Title: Window::createGrid Pages: 1 -->
<svg width="860pt" height="978pt"
 viewBox="0.00 0.00 860.00 978.16" xmlns="http://www.w3.org/2000/svg" xmlns:xlink="http://www.w3.org/1999/xlink">
<g id="graph0" class="graph" transform="scale(1 1) rotate(0) translate(4 974.16)">
<title>Window::createGrid</title>
<!-- Node1 -->
<g id="node1" class="node">
<title>Node1</title>
<g id="a_node1"><a xlink:title=" ">
<polygon fill="#bfbfbf" stroke="black" points="0,-447.07 0,-466.07 102,-466.07 102,-447.07 0,-447.07"/>
<text text-anchor="middle" x="51" y="-454.07" font-family="Helvetica,sans-Serif" font-size="10.00">Window::createGrid</text>
</a>
</g>
</g>
<!-- Node2 -->
<g id="node2" class="node">
<title>Node2</title>
<g id="a_node2"><a xlink:href="../../d9/dbf/class_window.html#a3d7f68f2fe4c1e7d787353b056090ea4" target="_top" xlink:title=" ">
<polygon fill="none" stroke="black" points="138,-751.07 138,-770.07 315,-770.07 315,-751.07 138,-751.07"/>
<text text-anchor="middle" x="226.5" y="-758.07" font-family="Helvetica,sans-Serif" font-size="10.00">Window::createAcquiredDistrictsMap</text>
</a>
</g>
</g>
<!-- Node1&#45;&gt;Node2 -->
<g id="edge1" class="edge">
<title>Node1&#45;&gt;Node2</title>
<path fill="none" stroke="midnightblue" d="M56.18,-466.36C67.88,-493.45 102.42,-571.43 138,-632.57 161.77,-673.41 194.09,-718.44 212.06,-742.7"/>
<polygon fill="midnightblue" stroke="midnightblue" points="209.41,-745 218.19,-750.93 215.02,-740.82 209.41,-745"/>
</g>
<!-- Node9 -->
<g id="node9" class="node">
<title>Node9</title>
<g id="a_node9"><a xlink:href="../../d1/d22/class_utils_1_1_point.html#a4fd453f573c399f7195a8982268a9f55" target="_top" xlink:title=" ">
<polygon fill="none" stroke="black" points="759.5,-523.07 759.5,-542.07 848.5,-542.07 848.5,-523.07 759.5,-523.07"/>
<text text-anchor="middle" x="804" y="-530.07" font-family="Helvetica,sans-Serif" font-size="10.00">Utils::Point::getX</text>
</a>
</g>
</g>
<!-- Node1&#45;&gt;Node9 -->
<g id="edge51" class="edge">
<title>Node1&#45;&gt;Node9</title>
<path fill="none" stroke="midnightblue" d="M52.26,-466.26C53.8,-507.79 64.5,-673.41 138,-779.57 204.2,-875.18 240.24,-896.1 351,-931.57 508.79,-982.09 605.77,-998.58 720,-878.57 765.8,-830.45 793.23,-618.94 800.83,-552.57"/>
<polygon fill="midnightblue" stroke="midnightblue" points="804.35,-552.58 801.98,-542.25 797.39,-551.8 804.35,-552.58"/>
</g>
<!-- Node10 -->
<g id="node10" class="node">
<title>Node10</title>
<g id="a_node10"><a xlink:href="../../d1/d22/class_utils_1_1_point.html#a62ce3a4ededc21a4f417bf18e357fc8e" target="_top" xlink:title=" ">
<polygon fill="none" stroke="black" points="758.5,-333.07 758.5,-352.07 849.5,-352.07 849.5,-333.07 758.5,-333.07"/>
<text text-anchor="middle" x="804" y="-340.07" font-family="Helvetica,sans-Serif" font-size="10.00">Utils::Point::getY</text>
</a>
</g>
</g>
<!-- Node1&#45;&gt;Node10 -->
<g id="edge52" class="edge">
<title>Node1&#45;&gt;Node10</title>
<path fill="none" stroke="midnightblue" d="M53.26,-446.86C59.8,-398.06 91.31,-180.02 138,-133.57 280.29,8.01 375.91,-45.11 575,-19.57 638.92,-11.37 669.08,19.93 720,-19.57 769.1,-57.64 794.21,-258.88 801.04,-322.96"/>
<polygon fill="midnightblue" stroke="midnightblue" points="797.57,-323.36 802.08,-332.95 804.53,-322.64 797.57,-323.36"/>
</g>
<!-- Node13 -->
<g id="node13" class="node">
<title>Node13</title>
<g id="a_node13"><a xlink:href="../../d9/dbf/class_window.html#a3cf04a74c49b1871b64436ef60fedc87" target="_top" xlink:title=" ">
<polygon fill="none" stroke="black" points="161,-466.07 161,-485.07 292,-485.07 292,-466.07 161,-466.07"/>
<text text-anchor="middle" x="226.5" y="-473.07" font-family="Helvetica,sans-Serif" font-size="10.00">Window::createDistrictCell</text>
</a>
</g>
</g>
<!-- Node1&#45;&gt;Node13 -->
<g id="edge15" class="edge">
<title>Node1&#45;&gt;Node13</title>
<path fill="none" stroke="midnightblue" d="M102.18,-462.06C117.35,-463.72 134.34,-465.58 150.75,-467.38"/>
<polygon fill="midnightblue" stroke="midnightblue" points="150.55,-470.88 160.87,-468.49 151.31,-463.92 150.55,-470.88"/>
</g>
<!-- Node18 -->
<g id="node18" class="node">
<title>Node18</title>
<g id="a_node18"><a xlink:href="../../d9/dbf/class_window.html#a64c006506fe02aaabd214abef651d87d" target="_top" xlink:title=" ">
<polygon fill="none" stroke="black" points="365.5,-333.07 365.5,-352.07 524.5,-352.07 524.5,-333.07 365.5,-333.07"/>
<text text-anchor="middle" x="445" y="-340.07" font-family="Helvetica,sans-Serif" font-size="10.00">Window::createInfectionHeatMap</text>
</a>
</g>
</g>
<!-- Node1&#45;&gt;Node18 -->
<g id="edge31" class="edge">
<title>Node1&#45;&gt;Node18</title>
<path fill="none" stroke="midnightblue" d="M84.75,-447.04C155.51,-426.46 322.64,-377.86 401.46,-354.94"/>
<polygon fill="midnightblue" stroke="midnightblue" points="402.45,-358.3 411.07,-352.14 400.49,-351.58 402.45,-358.3"/>
</g>
<!-- Node19 -->
<g id="node19" class="node">
<title>Node19</title>
<g id="a_node19"><a xlink:href="../../d9/dbf/class_window.html#a559be400478ab10fd0c147c3e88710be" target="_top" xlink:title=" ">
<polygon fill="none" stroke="black" points="351,-713.07 351,-732.07 539,-732.07 539,-713.07 351,-713.07"/>
<text text-anchor="middle" x="445" y="-720.07" font-family="Helvetica,sans-Serif" font-size="10.00">Window::createMinimalVaccinationMap</text>
</a>
</g>
</g>
<!-- Node1&#45;&gt;Node19 -->
<g id="edge36" class="edge">
<title>Node1&#45;&gt;Node19</title>
<path fill="none" stroke="midnightblue" d="M65.21,-466.23C106.72,-496.5 238.42,-591.82 351,-665.57 373.73,-680.46 400.21,-696.57 419.08,-707.85"/>
<polygon fill="midnightblue" stroke="midnightblue" points="417.3,-710.86 427.69,-712.97 420.88,-704.85 417.3,-710.86"/>
</g>
<!-- Node20 -->
<g id="node20" class="node">
<title>Node20</title>
<g id="a_node20"><a xlink:href="../../d9/dbf/class_window.html#ad7e1d8bae4995cbd51eff71c283e6945" target="_top" xlink:title=" ">
<polygon fill="none" stroke="black" points="370.5,-105.07 370.5,-124.07 519.5,-124.07 519.5,-105.07 370.5,-105.07"/>
<text text-anchor="middle" x="445" y="-112.07" font-family="Helvetica,sans-Serif" font-size="10.00">Window::createPopulationMap</text>
</a>
</g>
</g>
<!-- Node1&#45;&gt;Node20 -->
<g id="edge41" class="edge">
<title>Node1&#45;&gt;Node20</title>
<path fill="none" stroke="midnightblue" d="M52.87,-446.86C56.48,-412.35 73.25,-294.15 138,-229.57 198.99,-168.74 295.23,-139.61 363.48,-125.98"/>
<polygon fill="midnightblue" stroke="midnightblue" points="364.18,-129.41 373.34,-124.08 362.86,-122.54 364.18,-129.41"/>
</g>
<!-- Node22 -->
<g id="node22" class="node">
<title>Node22</title>
<g id="a_node22"><a xlink:href="../../d9/dbf/class_window.html#a27b72cfc7953f398cace9362daa9d4ca" target="_top" xlink:title=" ">
<polygon fill="none" stroke="black" points="368,-181.07 368,-200.07 522,-200.07 522,-181.07 368,-181.07"/>
<text text-anchor="middle" x="445" y="-188.07" font-family="Helvetica,sans-Serif" font-size="10.00">Window::createVaccinationMap</text>
</a>
</g>
</g>
<!-- Node1&#45;&gt;Node22 -->
<g id="edge46" class="edge">
<title>Node1&#45;&gt;Node22</title>
<path fill="none" stroke="midnightblue" d="M60.7,-446.89C94.2,-410.22 219.59,-278.75 351,-214.57 360.64,-209.86 371.3,-206 381.87,-202.87"/>
<polygon fill="midnightblue" stroke="midnightblue" points="382.82,-206.24 391.51,-200.19 380.94,-199.49 382.82,-206.24"/>
</g>
<!-- Node3 -->
<g id="node3" class="node">
<title>Node3</title>
<g id="a_node3"><a xlink:href="../../d3/d56/class_country.html#ae4cb1ce84aaf89445110978833606882" target="_top" xlink:title=" ">
<polygon fill="none" stroke="black" points="372,-789.07 372,-808.07 518,-808.07 518,-789.07 372,-789.07"/>
<text text-anchor="middle" x="445" y="-796.07" font-family="Helvetica,sans-Serif" font-size="10.00">Country::getAssignedDistricts</text>
</a>
</g>
</g>
<!-- Node2&#45;&gt;Node3 -->
<g id="edge2" class="edge">
<title>Node2&#45;&gt;Node3</title>
<path fill="none" stroke="midnightblue" d="M281.85,-770.11C311.58,-775.32 348.58,-781.82 379.73,-787.29"/>
<polygon fill="midnightblue" stroke="midnightblue" points="379.17,-790.74 389.62,-789.02 380.38,-783.85 379.17,-790.74"/>
</g>
<!-- Node4 -->
<g id="node4" class="node">
<title>Node4</title>
<g id="a_node4"><a xlink:href="../../da/d74/class_grid.html#a122b323349de05dbe68517d602cb2221" target="_top" xlink:title=" ">
<polygon fill="none" stroke="black" points="390.5,-903.07 390.5,-922.07 499.5,-922.07 499.5,-903.07 390.5,-903.07"/>
<text text-anchor="middle" x="445" y="-910.07" font-family="Helvetica,sans-Serif" font-size="10.00">Grid::getCountryByID</text>
</a>
</g>
</g>
<!-- Node2&#45;&gt;Node4 -->
<g id="edge3" class="edge">
<title>Node2&#45;&gt;Node4</title>
<path fill="none" stroke="midnightblue" d="M233.98,-770.34C250.47,-794.39 296.58,-856.83 351,-888.57 360.06,-893.85 370.28,-897.99 380.55,-901.22"/>
<polygon fill="midnightblue" stroke="midnightblue" points="379.79,-904.64 390.37,-904.05 381.73,-897.92 379.79,-904.64"/>
</g>
<!-- Node5 -->
<g id="node5" class="node">
<title>Node5</title>
<g id="a_node5"><a xlink:href="../../da/d74/class_grid.html#a258fdb0fb8bc7f13cad6637d40a7f20c" target="_top" xlink:title=" ">
<polygon fill="none" stroke="black" points="385.5,-599.07 385.5,-618.07 504.5,-618.07 504.5,-599.07 385.5,-599.07"/>
<text text-anchor="middle" x="445" y="-606.07" font-family="Helvetica,sans-Serif" font-size="10.00">Grid::getDistrictByPoint</text>
</a>
</g>
</g>
<!-- Node2&#45;&gt;Node5 -->
<g id="edge4" class="edge">
<title>Node2&#45;&gt;Node5</title>
<path fill="none" stroke="midnightblue" d="M233.32,-750.97C248.93,-726.11 294.41,-659.37 351,-627.57 358.62,-623.29 367.07,-619.96 375.69,-617.38"/>
<polygon fill="midnightblue" stroke="midnightblue" points="376.69,-620.74 385.45,-614.78 374.89,-613.98 376.69,-620.74"/>
</g>
<!-- Node7 -->
<g id="node7" class="node">
<title>Node7</title>
<g id="a_node7"><a xlink:href="../../da/d74/class_grid.html#aff3d5bc3ea4e8da08e0a78d7f73f0084" target="_top" xlink:title=" ">
<polygon fill="none" stroke="black" points="592.5,-485.07 592.5,-504.07 702.5,-504.07 702.5,-485.07 592.5,-485.07"/>
<text text-anchor="middle" x="647.5" y="-492.07" font-family="Helvetica,sans-Serif" font-size="10.00">Grid::getFieldByPoint</text>
</a>
</g>
</g>
<!-- Node2&#45;&gt;Node7 -->
<g id="edge11" class="edge">
<title>Node2&#45;&gt;Node7</title>
<path fill="none" stroke="midnightblue" d="M244.97,-750.92C268.43,-738.33 311.72,-716.41 351,-703.57 432.03,-677.08 475.6,-722.55 539,-665.57 578.52,-630.05 544.92,-595.36 575,-551.57 586.87,-534.28 605.52,-519.66 620.8,-509.56"/>
<polygon fill="midnightblue" stroke="midnightblue" points="622.76,-512.46 629.33,-504.14 619.01,-506.55 622.76,-512.46"/>
</g>
<!-- Node2&#45;&gt;Node9 -->
<g id="edge12" class="edge">
<title>Node2&#45;&gt;Node9</title>
<path fill="none" stroke="midnightblue" d="M238.05,-770.1C258.21,-787.58 304.36,-824.22 351,-837.57 508.67,-882.69 589.93,-936.46 720,-836.57 766.26,-801.04 793.04,-613.79 800.7,-552.21"/>
<polygon fill="midnightblue" stroke="midnightblue" points="804.18,-552.59 801.91,-542.24 797.23,-551.75 804.18,-552.59"/>
</g>
<!-- Node2&#45;&gt;Node10 -->
<g id="edge13" class="edge">
<title>Node2&#45;&gt;Node10</title>
<path fill="none" stroke="midnightblue" d="M315.21,-761.74C442.03,-761.38 667.26,-752.35 720,-694.57 786.5,-621.71 731.47,-571.11 756,-475.57 766.65,-434.08 784.69,-387.2 795.05,-361.66"/>
<polygon fill="midnightblue" stroke="midnightblue" points="798.29,-362.97 798.85,-352.39 791.82,-360.31 798.29,-362.97"/>
</g>
<!-- Node11 -->
<g id="node11" class="node">
<title>Node11</title>
<g id="a_node11"><a xlink:href="../../d6/d85/class_district.html#af11816ea48d5c0e7073fcef4af5d504c" target="_top" xlink:title=" ">
<polygon fill="none" stroke="black" points="391.5,-637.07 391.5,-656.07 498.5,-656.07 498.5,-637.07 391.5,-637.07"/>
<text text-anchor="middle" x="445" y="-644.07" font-family="Helvetica,sans-Serif" font-size="10.00">District::getDistrictID</text>
</a>
</g>
</g>
<!-- Node2&#45;&gt;Node11 -->
<g id="edge10" class="edge">
<title>Node2&#45;&gt;Node11</title>
<path fill="none" stroke="midnightblue" d="M237.84,-750.87C258.02,-732.48 304.7,-692.43 351,-670.57 360.93,-665.88 371.9,-662.01 382.73,-658.86"/>
<polygon fill="midnightblue" stroke="midnightblue" points="383.87,-662.18 392.59,-656.16 382.02,-655.43 383.87,-662.18"/>
</g>
<!-- Node12 -->
<g id="node12" class="node">
<title>Node12</title>
<g id="a_node12"><a xlink:href="../../dc/d67/class_field.html#ac9823a5988356e6d2f6aa8cf232c16c5" target="_top" xlink:title=" ">
<polygon fill="none" stroke="black" points="577.5,-808.07 577.5,-827.07 717.5,-827.07 717.5,-808.07 577.5,-808.07"/>
<text text-anchor="middle" x="647.5" y="-815.07" font-family="Helvetica,sans-Serif" font-size="10.00">Field::vaccinesToPutMinimal</text>
</a>
</g>
</g>
<!-- Node2&#45;&gt;Node12 -->
<g id="edge14" class="edge">
<title>Node2&#45;&gt;Node12</title>
<path fill="none" stroke="midnightblue" d="M242.71,-770.24C265.29,-783.97 309.48,-808.45 351,-817.57 422.88,-833.35 506.99,-831.45 567.05,-826.72"/>
<polygon fill="midnightblue" stroke="midnightblue" points="567.55,-830.19 577.23,-825.88 566.97,-823.22 567.55,-830.19"/>
</g>
<!-- Node6 -->
<g id="node6" class="node">
<title>Node6</title>
<g id="a_node6"><a xlink:href="../../da/d74/class_grid.html#af60e6e64cac90b7d38132dc6560b2052" target="_top" xlink:title=" ">
<polygon fill="none" stroke="black" points="594.5,-637.07 594.5,-656.07 700.5,-656.07 700.5,-637.07 594.5,-637.07"/>
<text text-anchor="middle" x="647.5" y="-644.07" font-family="Helvetica,sans-Serif" font-size="10.00">Grid::getDistrictByID</text>
</a>
</g>
</g>
<!-- Node5&#45;&gt;Node6 -->
<g id="edge5" class="edge">
<title>Node5&#45;&gt;Node6</title>
<path fill="none" stroke="midnightblue" d="M496.34,-618.11C523.63,-623.28 557.54,-629.71 586.23,-635.14"/>
<polygon fill="midnightblue" stroke="midnightblue" points="585.67,-638.6 596.14,-637.02 586.97,-631.72 585.67,-638.6"/>
</g>
<!-- Node5&#45;&gt;Node7 -->
<g id="edge6" class="edge">
<title>Node5&#45;&gt;Node7</title>
<path fill="none" stroke="midnightblue" d="M462.75,-599.04C497.84,-579.09 579.25,-532.8 620.92,-509.11"/>
<polygon fill="midnightblue" stroke="midnightblue" points="622.69,-512.13 629.66,-504.14 619.23,-506.04 622.69,-512.13"/>
</g>
<!-- Node8 -->
<g id="node8" class="node">
<title>Node8</title>
<g id="a_node8"><a xlink:href="../../da/d74/class_grid.html#a3618702f7872969eedc6e8817dc26776" target="_top" xlink:title=" ">
<polygon fill="none" stroke="black" points="756,-485.07 756,-504.07 852,-504.07 852,-485.07 756,-485.07"/>
<text text-anchor="middle" x="804" y="-492.07" font-family="Helvetica,sans-Serif" font-size="10.00">Grid::getFieldByID</text>
</a>
</g>
</g>
<!-- Node7&#45;&gt;Node8 -->
<g id="edge7" class="edge">
<title>Node7&#45;&gt;Node8</title>
<path fill="none" stroke="midnightblue" d="M702.54,-494.57C716.54,-494.57 731.67,-494.57 745.83,-494.57"/>
<polygon fill="midnightblue" stroke="midnightblue" points="745.94,-498.07 755.94,-494.57 745.94,-491.07 745.94,-498.07"/>
</g>
<!-- Node7&#45;&gt;Node9 -->
<g id="edge8" class="edge">
<title>Node7&#45;&gt;Node9</title>
<path fill="none" stroke="midnightblue" d="M687.49,-504.16C707.78,-509.15 732.79,-515.3 754.35,-520.6"/>
<polygon fill="midnightblue" stroke="midnightblue" points="753.75,-524.06 764.29,-523.05 755.42,-517.26 753.75,-524.06"/>
</g>
<!-- Node7&#45;&gt;Node10 -->
<g id="edge9" class="edge">
<title>Node7&#45;&gt;Node10</title>
<path fill="none" stroke="midnightblue" d="M692.43,-484.97C702.14,-481.5 711.93,-476.83 720,-470.57 757.86,-441.21 783.66,-389.43 795.53,-361.57"/>
<polygon fill="midnightblue" stroke="midnightblue" points="798.84,-362.75 799.4,-352.17 792.36,-360.08 798.84,-362.75"/>
</g>
<!-- Node13&#45;&gt;Node5 -->
<g id="edge26" class="edge">
<title>Node13&#45;&gt;Node5</title>
<path fill="none" stroke="midnightblue" d="M235.39,-485.08C253.52,-506.31 300.48,-557.76 351,-584.57 359.84,-589.26 369.64,-593.07 379.47,-596.15"/>
<polygon fill="midnightblue" stroke="midnightblue" points="378.7,-599.57 389.28,-599 380.65,-592.85 378.7,-599.57"/>
</g>
<!-- Node13&#45;&gt;Node7 -->
<g id="edge28" class="edge">
<title>Node13&#45;&gt;Node7</title>
<path fill="none" stroke="midnightblue" d="M292.08,-472.29C355.17,-469.85 453.88,-468.1 539,-475.57 556.68,-477.12 575.8,-480.07 592.95,-483.2"/>
<polygon fill="midnightblue" stroke="midnightblue" points="592.32,-486.65 602.8,-485.06 593.62,-479.77 592.32,-486.65"/>
</g>
<!-- Node13&#45;&gt;Node9 -->
<g id="edge29" class="edge">
<title>Node13&#45;&gt;Node9</title>
<path fill="none" stroke="midnightblue" d="M250.11,-485.14C268.18,-493.15 293.9,-505.37 315,-518.57 332.19,-529.32 332.54,-538.2 351,-546.57 443.34,-588.4 474.08,-579.97 575,-589.57 639.15,-595.67 658.45,-608.67 720,-589.57 745.36,-581.7 769.84,-563.1 785.56,-549.28"/>
<polygon fill="midnightblue" stroke="midnightblue" points="788.31,-551.51 793.34,-542.19 783.59,-546.34 788.31,-551.51"/>
</g>
<!-- Node13&#45;&gt;Node10 -->
<g id="edge30" class="edge">
<title>Node13&#45;&gt;Node10</title>
<path fill="none" stroke="midnightblue" d="M231.62,-466.03C244.4,-437.82 286.43,-354.83 351,-323.57 491.5,-255.54 686.28,-304.59 766.37,-329.93"/>
<polygon fill="midnightblue" stroke="midnightblue" points="765.42,-333.3 776.01,-333.04 767.57,-326.64 765.42,-333.3"/>
</g>
<!-- Node13&#45;&gt;Node11 -->
<g id="edge27" class="edge">
<title>Node13&#45;&gt;Node11</title>
<path fill="none" stroke="midnightblue" d="M232.31,-485.33C246.37,-512.73 290.23,-590.73 351,-627.57 360.28,-633.19 370.94,-637.18 381.65,-640"/>
<polygon fill="midnightblue" stroke="midnightblue" points="380.94,-643.43 391.47,-642.28 382.52,-636.61 380.94,-643.43"/>
</g>
<!-- Node14 -->
<g id="node14" class="node">
<title>Node14</title>
<g id="a_node14"><a xlink:href="../../d9/dbf/class_window.html#aa1dba04db317de569def71239cf37dcb" target="_top" xlink:title=" ">
<polygon fill="none" stroke="black" points="595.5,-409.07 595.5,-428.07 699.5,-428.07 699.5,-409.07 595.5,-409.07"/>
<text text-anchor="middle" x="647.5" y="-416.07" font-family="Helvetica,sans-Serif" font-size="10.00">Window::createRect</text>
</a>
</g>
</g>
<!-- Node13&#45;&gt;Node14 -->
<g id="edge16" class="edge">
<title>Node13&#45;&gt;Node14</title>
<path fill="none" stroke="midnightblue" d="M292.05,-466.79C371.91,-455.92 506.88,-437.56 585.21,-426.91"/>
<polygon fill="midnightblue" stroke="midnightblue" points="585.97,-430.33 595.4,-425.52 585.02,-423.4 585.97,-430.33"/>
</g>
<!-- Node15 -->
<g id="node15" class="node">
<title>Node15</title>
<g id="a_node15"><a xlink:href="../../d9/dbf/class_window.html#ac2cf80c0ebb9c8fa2217776be9c394d7" target="_top" xlink:title=" ">
<polygon fill="none" stroke="black" points="393.5,-485.07 393.5,-504.07 496.5,-504.07 496.5,-485.07 393.5,-485.07"/>
<text text-anchor="middle" x="445" y="-492.07" font-family="Helvetica,sans-Serif" font-size="10.00">Window::createText</text>
</a>
</g>
</g>
<!-- Node13&#45;&gt;Node15 -->
<g id="edge19" class="edge">
<title>Node13&#45;&gt;Node15</title>
<path fill="none" stroke="midnightblue" d="M292.16,-481.24C321.02,-483.77 354.83,-486.74 383.21,-489.23"/>
<polygon fill="midnightblue" stroke="midnightblue" points="383.14,-492.74 393.4,-490.13 383.75,-485.77 383.14,-492.74"/>
</g>
<!-- Node16 -->
<g id="node16" class="node">
<title>Node16</title>
<g id="a_node16"><a xlink:href="../../dc/d67/class_field.html#a79869bd37f491e83beab556eaa3e50c0" target="_top" xlink:title=" ">
<polygon fill="none" stroke="black" points="579,-561.07 579,-580.07 716,-580.07 716,-561.07 579,-561.07"/>
<text text-anchor="middle" x="647.5" y="-568.07" font-family="Helvetica,sans-Serif" font-size="10.00">Field::getAssignedDistrictID</text>
</a>
</g>
</g>
<!-- Node13&#45;&gt;Node16 -->
<g id="edge24" class="edge">
<title>Node13&#45;&gt;Node16</title>
<path fill="none" stroke="midnightblue" d="M255.71,-485.2C280.58,-493.46 317.92,-505.31 351,-513.57 427.55,-532.67 516.62,-549.07 576.79,-559.31"/>
<polygon fill="midnightblue" stroke="midnightblue" points="576.5,-562.81 586.94,-561.02 577.66,-555.91 576.5,-562.81"/>
</g>
<!-- Node17 -->
<g id="node17" class="node">
<title>Node17</title>
<g id="a_node17"><a xlink:href="../../dc/d67/class_field.html#a3ceb497dd33f97896974a2367fedc3c4" target="_top" xlink:title=" ">
<polygon fill="none" stroke="black" points="575,-371.07 575,-390.07 720,-390.07 720,-371.07 575,-371.07"/>
<text text-anchor="middle" x="647.5" y="-378.07" font-family="Helvetica,sans-Serif" font-size="10.00">Field::getCurrentInfectionRate</text>
</a>
</g>
</g>
<!-- Node13&#45;&gt;Node17 -->
<g id="edge25" class="edge">
<title>Node13&#45;&gt;Node17</title>
<path fill="none" stroke="midnightblue" d="M249.39,-465.95C273.76,-455.59 314.52,-439.29 351,-429.57 422.13,-410.61 504.95,-397.64 564.79,-389.82"/>
<polygon fill="midnightblue" stroke="midnightblue" points="565.46,-393.27 574.93,-388.52 564.57,-386.32 565.46,-393.27"/>
</g>
<!-- Node14&#45;&gt;Node9 -->
<g id="edge17" class="edge">
<title>Node14&#45;&gt;Node9</title>
<path fill="none" stroke="midnightblue" d="M661.6,-428.14C676.29,-439.07 700.59,-457.74 720,-475.57 737.14,-491.3 736.78,-500.46 756,-513.57 758.69,-515.4 761.59,-517.1 764.57,-518.67"/>
<polygon fill="midnightblue" stroke="midnightblue" points="763.13,-521.86 773.67,-522.97 766.13,-515.54 763.13,-521.86"/>
</g>
<!-- Node14&#45;&gt;Node10 -->
<g id="edge18" class="edge">
<title>Node14&#45;&gt;Node10</title>
<path fill="none" stroke="midnightblue" d="M693.95,-409C702.78,-406.44 711.83,-403.32 720,-399.57 743.45,-388.79 767.46,-371.48 783.59,-358.76"/>
<polygon fill="midnightblue" stroke="midnightblue" points="786.09,-361.24 791.68,-352.24 781.7,-355.79 786.09,-361.24"/>
</g>
<!-- Node15&#45;&gt;Node7 -->
<g id="edge21" class="edge">
<title>Node15&#45;&gt;Node7</title>
<path fill="none" stroke="midnightblue" d="M496.59,-494.57C522.63,-494.57 554.65,-494.57 582.4,-494.57"/>
<polygon fill="midnightblue" stroke="midnightblue" points="582.41,-498.07 592.41,-494.57 582.41,-491.07 582.41,-498.07"/>
</g>
<!-- Node15&#45;&gt;Node9 -->
<g id="edge22" class="edge">
<title>Node15&#45;&gt;Node9</title>
<path fill="none" stroke="midnightblue" d="M496.76,-502.8C520.48,-506.45 549.14,-510.59 575,-513.57 634.43,-520.41 702.85,-525.78 749.11,-529.04"/>
<polygon fill="midnightblue" stroke="midnightblue" points="748.99,-532.54 759.21,-529.74 749.48,-525.56 748.99,-532.54"/>
</g>
<!-- Node15&#45;&gt;Node10 -->
<g id="edge23" class="edge">
<title>Node15&#45;&gt;Node10</title>
<path fill="none" stroke="midnightblue" d="M496.66,-485.83C570.48,-472.83 700.91,-448.72 720,-437.57 752.28,-418.7 778.42,-382.74 792.25,-360.88"/>
<polygon fill="midnightblue" stroke="midnightblue" points="795.33,-362.56 797.57,-352.21 789.36,-358.91 795.33,-362.56"/>
</g>
<!-- Node15&#45;&gt;Node16 -->
<g id="edge20" class="edge">
<title>Node15&#45;&gt;Node16</title>
<path fill="none" stroke="midnightblue" d="M496.57,-503.65C510.73,-507.24 525.83,-512.09 539,-518.57 557.19,-527.51 557.14,-536.98 575,-546.57 582.96,-550.84 591.83,-554.55 600.54,-557.7"/>
<polygon fill="midnightblue" stroke="midnightblue" points="599.64,-561.09 610.24,-561.01 601.9,-554.47 599.64,-561.09"/>
</g>
<!-- Node18&#45;&gt;Node7 -->
<g id="edge33" class="edge">
<title>Node18&#45;&gt;Node7</title>
<path fill="none" stroke="midnightblue" d="M458.54,-352.08C492.16,-377.56 584.52,-447.58 625.94,-478.98"/>
<polygon fill="midnightblue" stroke="midnightblue" points="623.88,-481.81 633.96,-485.06 628.11,-476.23 623.88,-481.81"/>
</g>
<!-- Node18&#45;&gt;Node9 -->
<g id="edge34" class="edge">
<title>Node18&#45;&gt;Node9</title>
<path fill="none" stroke="midnightblue" d="M482.02,-332.97C539.6,-319.98 652.74,-304.49 720,-361.57 772.93,-406.49 710.77,-460.9 756,-513.57 757.14,-514.9 758.39,-516.14 759.73,-517.29"/>
<polygon fill="midnightblue" stroke="midnightblue" points="757.88,-520.27 768.11,-523 761.82,-514.48 757.88,-520.27"/>
</g>
<!-- Node18&#45;&gt;Node10 -->
<g id="edge35" class="edge">
<title>Node18&#45;&gt;Node10</title>
<path fill="none" stroke="midnightblue" d="M520.92,-333.05C538.62,-331.19 557.45,-329.52 575,-328.57 639.35,-325.09 655.78,-323.19 720,-328.57 729.2,-329.34 738.91,-330.58 748.32,-332.01"/>
<polygon fill="midnightblue" stroke="midnightblue" points="747.95,-335.5 758.38,-333.63 749.06,-328.59 747.95,-335.5"/>
</g>
<!-- Node18&#45;&gt;Node17 -->
<g id="edge32" class="edge">
<title>Node18&#45;&gt;Node17</title>
<path fill="none" stroke="midnightblue" d="M496.34,-352.11C523.63,-357.28 557.54,-363.71 586.23,-369.14"/>
<polygon fill="midnightblue" stroke="midnightblue" points="585.67,-372.6 596.14,-371.02 586.97,-365.72 585.67,-372.6"/>
</g>
<!-- Node19&#45;&gt;Node7 -->
<g id="edge37" class="edge">
<title>Node19&#45;&gt;Node7</title>
<path fill="none" stroke="midnightblue" d="M517.44,-712.89C525.45,-709.39 532.91,-704.74 539,-698.57 586.27,-650.71 538.76,-608.23 575,-551.57 586.22,-534.01 604.73,-519.48 620.11,-509.48"/>
<polygon fill="midnightblue" stroke="midnightblue" points="622.07,-512.38 628.72,-504.13 618.38,-506.43 622.07,-512.38"/>
</g>
<!-- Node19&#45;&gt;Node9 -->
<g id="edge38" class="edge">
<title>Node19&#45;&gt;Node9</title>
<path fill="none" stroke="midnightblue" d="M497.88,-732.07C556.97,-739.94 653.86,-743.55 720,-698.57 770.97,-663.9 792.11,-588.35 799.54,-552.38"/>
<polygon fill="midnightblue" stroke="midnightblue" points="803.05,-552.67 801.49,-542.19 796.17,-551.35 803.05,-552.67"/>
</g>
<!-- Node19&#45;&gt;Node10 -->
<g id="edge39" class="edge">
<title>Node19&#45;&gt;Node10</title>
<path fill="none" stroke="midnightblue" d="M495.37,-713.02C573.19,-697.86 716.04,-669.6 720,-665.57 780.23,-604.25 733.62,-558.55 756,-475.57 767.16,-434.19 785.03,-387.23 795.21,-361.66"/>
<polygon fill="midnightblue" stroke="midnightblue" points="798.58,-362.67 799.07,-352.09 792.09,-360.06 798.58,-362.67"/>
</g>
<!-- Node19&#45;&gt;Node12 -->
<g id="edge40" class="edge">
<title>Node19&#45;&gt;Node12</title>
<path fill="none" stroke="midnightblue" d="M466.33,-732.2C502,-749.1 575.97,-784.15 617.17,-803.67"/>
<polygon fill="midnightblue" stroke="midnightblue" points="615.88,-806.93 626.42,-808.05 618.88,-800.61 615.88,-806.93"/>
</g>
<!-- Node20&#45;&gt;Node7 -->
<g id="edge42" class="edge">
<title>Node20&#45;&gt;Node7</title>
<path fill="none" stroke="midnightblue" d="M473.95,-124.09C495.39,-132.91 523.8,-148.25 539,-171.57 604.15,-271.51 516.12,-333.81 575,-437.57 585.15,-455.46 603.34,-469.84 618.84,-479.68"/>
<polygon fill="midnightblue" stroke="midnightblue" points="617.19,-482.78 627.56,-484.94 620.81,-476.78 617.19,-482.78"/>
</g>
<!-- Node20&#45;&gt;Node9 -->
<g id="edge44" class="edge">
<title>Node20&#45;&gt;Node9</title>
<path fill="none" stroke="midnightblue" d="M519.51,-109.42C590.91,-106.16 692.47,-106.73 720,-133.57 780.73,-192.78 705.31,-445.56 756,-513.57 756.8,-514.64 757.67,-515.65 758.6,-516.6"/>
<polygon fill="midnightblue" stroke="midnightblue" points="756.64,-519.52 766.7,-522.86 760.92,-513.98 756.64,-519.52"/>
</g>
<!-- Node20&#45;&gt;Node10 -->
<g id="edge45" class="edge">
<title>Node20&#45;&gt;Node10</title>
<path fill="none" stroke="midnightblue" d="M468.09,-105.05C518.23,-85.09 642.28,-45.06 720,-100.57 793.46,-153.03 802.59,-274.72 803.24,-322.65"/>
<polygon fill="midnightblue" stroke="midnightblue" points="799.74,-322.93 803.26,-332.93 806.74,-322.92 799.74,-322.93"/>
</g>
<!-- Node21 -->
<g id="node21" class="node">
<title>Node21</title>
<g id="a_node21"><a xlink:href="../../dc/d67/class_field.html#a17faeb6e0835c0ec6446c5f6b291d806" target="_top" xlink:title=" ">
<polygon fill="none" stroke="black" points="579.5,-29.07 579.5,-48.07 715.5,-48.07 715.5,-29.07 579.5,-29.07"/>
<text text-anchor="middle" x="647.5" y="-36.07" font-family="Helvetica,sans-Serif" font-size="10.00">Field::getPopulationDensity</text>
</a>
</g>
</g>
<!-- Node20&#45;&gt;Node21 -->
<g id="edge43" class="edge">
<title>Node20&#45;&gt;Node21</title>
<path fill="none" stroke="midnightblue" d="M468.68,-104.95C494.32,-94.19 537.39,-76.44 575,-62.57 585.33,-58.75 596.6,-54.86 607.06,-51.34"/>
<polygon fill="midnightblue" stroke="midnightblue" points="608.41,-54.58 616.79,-48.1 606.2,-47.94 608.41,-54.58"/>
</g>
<!-- Node22&#45;&gt;Node7 -->
<g id="edge47" class="edge">
<title>Node22&#45;&gt;Node7</title>
<path fill="none" stroke="midnightblue" d="M454.36,-200.25C472.19,-221.33 514.33,-273.53 539,-323.57 562.5,-371.22 544.92,-393.77 575,-437.57 586.87,-454.85 605.52,-469.47 620.8,-479.58"/>
<polygon fill="midnightblue" stroke="midnightblue" points="619.01,-482.59 629.33,-484.99 622.76,-476.68 619.01,-482.59"/>
</g>
<!-- Node22&#45;&gt;Node9 -->
<g id="edge49" class="edge">
<title>Node22&#45;&gt;Node9</title>
<path fill="none" stroke="midnightblue" d="M498.68,-200.1C561.58,-214.39 665.16,-247.64 720,-318.57 773.91,-388.29 700.27,-445.29 756,-513.57 756.97,-514.76 758.03,-515.88 759.16,-516.93"/>
<polygon fill="midnightblue" stroke="midnightblue" points="757.3,-519.9 767.47,-522.89 761.39,-514.21 757.3,-519.9"/>
</g>
<!-- Node22&#45;&gt;Node10 -->
<g id="edge50" class="edge">
<title>Node22&#45;&gt;Node10</title>
<path fill="none" stroke="midnightblue" d="M510.11,-181.07C568.94,-175.67 656.37,-176.3 720,-214.57 761.46,-239.5 786.01,-294.02 796.68,-323.21"/>
<polygon fill="midnightblue" stroke="midnightblue" points="793.5,-324.74 800.09,-333.04 800.12,-322.45 793.5,-324.74"/>
</g>
<!-- Node23 -->
<g id="node23" class="node">
<title>Node23</title>
<g id="a_node23"><a xlink:href="../../dc/d67/class_field.html#a35aeab02328c4fdc387534a7a8f61bb3" target="_top" xlink:title=" ">
<polygon fill="none" stroke="black" points="584.5,-143.07 584.5,-162.07 710.5,-162.07 710.5,-143.07 584.5,-143.07"/>
<text text-anchor="middle" x="647.5" y="-150.07" font-family="Helvetica,sans-Serif" font-size="10.00">Field::getStoredVaccines</text>
</a>
</g>
</g>
<!-- Node22&#45;&gt;Node23 -->
<g id="edge48" class="edge">
<title>Node22&#45;&gt;Node23</title>
<path fill="none" stroke="midnightblue" d="M496.34,-181.03C523.63,-175.85 557.54,-169.43 586.23,-163.99"/>
<polygon fill="midnightblue" stroke="midnightblue" points="586.97,-167.41 596.14,-162.11 585.67,-160.53 586.97,-167.41"/>
</g>
</g>
</svg>
