<?xml version="1.0" encoding="UTF-8" standalone="no"?>
<!DOCTYPE svg PUBLIC "-//W3C//DTD SVG 1.1//EN"
 "http://www.w3.org/Graphics/SVG/1.1/DTD/svg11.dtd">
<!-- Generated by graphviz version 2.44.1 (20200629.0846)
 -->
<!-- Title: Window::update Pages: 1 -->
<svg width="982pt" height="1098pt"
 viewBox="0.00 0.00 982.00 1098.21" xmlns="http://www.w3.org/2000/svg" xmlns:xlink="http://www.w3.org/1999/xlink">
<g id="graph0" class="graph" transform="scale(1 1) rotate(0) translate(4 1094.21)">
<title>Window::update</title>
<!-- Node1 -->
<g id="node1" class="node">
<title>Node1</title>
<g id="a_node1"><a xlink:title=" ">
<polygon fill="#bfbfbf" stroke="black" points="0,-342.68 0,-361.68 86,-361.68 86,-342.68 0,-342.68"/>
<text text-anchor="middle" x="43" y="-349.68" font-family="Helvetica,sans-Serif" font-size="10.00">Window::update</text>
</a>
</g>
</g>
<!-- Node2 -->
<g id="node2" class="node">
<title>Node2</title>
<g id="a_node2"><a xlink:href="../../d9/dbf/class_window.html#a613473425472a8fa471f2cbd4926aa2e" target="_top" xlink:title=" ">
<polygon fill="none" stroke="black" points="122,-513.68 122,-532.68 224,-532.68 224,-513.68 122,-513.68"/>
<text text-anchor="middle" x="173" y="-520.68" font-family="Helvetica,sans-Serif" font-size="10.00">Window::createGrid</text>
</a>
</g>
</g>
<!-- Node1&#45;&gt;Node2 -->
<g id="edge1" class="edge">
<title>Node1&#45;&gt;Node2</title>
<path fill="none" stroke="midnightblue" d="M50.7,-361.93C63.97,-381.17 94.68,-425.23 122,-461.18 133.58,-476.41 147.25,-493.3 157.37,-505.59"/>
<polygon fill="midnightblue" stroke="midnightblue" points="154.96,-508.17 164.03,-513.65 160.36,-503.71 154.96,-508.17"/>
</g>
<!-- Node6 -->
<g id="node6" class="node">
<title>Node6</title>
<g id="a_node6"><a xlink:href="../../da/d74/class_grid.html#a258fdb0fb8bc7f13cad6637d40a7f20c" target="_top" xlink:title=" ">
<polygon fill="none" stroke="black" points="507.5,-437.68 507.5,-456.68 626.5,-456.68 626.5,-437.68 507.5,-437.68"/>
<text text-anchor="middle" x="567" y="-444.68" font-family="Helvetica,sans-Serif" font-size="10.00">Grid::getDistrictByPoint</text>
</a>
</g>
</g>
<!-- Node1&#45;&gt;Node6 -->
<g id="edge54" class="edge">
<title>Node1&#45;&gt;Node6</title>
<path fill="none" stroke="midnightblue" d="M83.59,-361.76C95.87,-364.61 109.47,-367.64 122,-370.18 254.22,-396.88 409.75,-422.54 497.21,-436.45"/>
<polygon fill="midnightblue" stroke="midnightblue" points="496.85,-439.94 507.27,-438.05 497.94,-433.02 496.85,-439.94"/>
</g>
<!-- Node12 -->
<g id="node12" class="node">
<title>Node12</title>
<g id="a_node12"><a xlink:href="../../d6/d85/class_district.html#af11816ea48d5c0e7073fcef4af5d504c" target="_top" xlink:title=" ">
<polygon fill="none" stroke="black" points="513.5,-361.68 513.5,-380.68 620.5,-380.68 620.5,-361.68 513.5,-361.68"/>
<text text-anchor="middle" x="567" y="-368.68" font-family="Helvetica,sans-Serif" font-size="10.00">District::getDistrictID</text>
</a>
</g>
</g>
<!-- Node1&#45;&gt;Node12 -->
<g id="edge55" class="edge">
<title>Node1&#45;&gt;Node12</title>
<path fill="none" stroke="midnightblue" d="M86.28,-353.71C177.98,-357.05 395.56,-364.97 503.31,-368.89"/>
<polygon fill="midnightblue" stroke="midnightblue" points="503.27,-372.39 513.39,-369.26 503.52,-365.4 503.27,-372.39"/>
</g>
<!-- Node25 -->
<g id="node25" class="node">
<title>Node25</title>
<g id="a_node25"><a xlink:href="../../da/d74/class_grid.html#ae7393bc74ab867cc3f4409c70d80351b" target="_top" xlink:title=" ">
<polygon fill="none" stroke="black" points="132,-323.68 132,-342.68 214,-342.68 214,-323.68 132,-323.68"/>
<text text-anchor="middle" x="173" y="-330.68" font-family="Helvetica,sans-Serif" font-size="10.00">Grid::getHeight</text>
</a>
</g>
</g>
<!-- Node1&#45;&gt;Node25 -->
<g id="edge56" class="edge">
<title>Node1&#45;&gt;Node25</title>
<path fill="none" stroke="midnightblue" d="M86.27,-345.9C97.64,-344.21 110.06,-342.37 121.82,-340.62"/>
<polygon fill="midnightblue" stroke="midnightblue" points="122.57,-344.05 131.95,-339.12 121.54,-337.13 122.57,-344.05"/>
</g>
<!-- Node26 -->
<g id="node26" class="node">
<title>Node26</title>
<g id="a_node26"><a xlink:href="../../da/d74/class_grid.html#a862cf2f474e31195bea649b08cfb7b46" target="_top" xlink:title=" ">
<polygon fill="none" stroke="black" points="133,-285.68 133,-304.68 213,-304.68 213,-285.68 133,-285.68"/>
<text text-anchor="middle" x="173" y="-292.68" font-family="Helvetica,sans-Serif" font-size="10.00">Grid::getWidth</text>
</a>
</g>
</g>
<!-- Node1&#45;&gt;Node26 -->
<g id="edge57" class="edge">
<title>Node1&#45;&gt;Node26</title>
<path fill="none" stroke="midnightblue" d="M62.38,-342.64C78.05,-334.65 101.26,-323.15 122,-314.18 126.5,-312.23 131.28,-310.27 136.02,-308.4"/>
<polygon fill="midnightblue" stroke="midnightblue" points="137.55,-311.56 145.61,-304.69 135.02,-305.03 137.55,-311.56"/>
</g>
<!-- Node27 -->
<g id="node27" class="node">
<title>Node27</title>
<g id="a_node27"><a xlink:href="../../d9/dbf/class_window.html#ab5efaea1f6d653d0404cb3f17b0e7e4c" target="_top" xlink:title=" ">
<polygon fill="none" stroke="black" points="513,-171.68 513,-190.68 621,-190.68 621,-171.68 513,-171.68"/>
<text text-anchor="middle" x="567" y="-178.68" font-family="Helvetica,sans-Serif" font-size="10.00">Window::showStatus</text>
</a>
</g>
</g>
<!-- Node1&#45;&gt;Node27 -->
<g id="edge58" class="edge">
<title>Node1&#45;&gt;Node27</title>
<path fill="none" stroke="midnightblue" d="M50.96,-342.5C63.3,-326.1 90.68,-292.99 122,-276.18 246.04,-209.56 413.14,-189.66 502.82,-183.71"/>
<polygon fill="midnightblue" stroke="midnightblue" points="503.08,-187.2 512.84,-183.08 502.64,-180.21 503.08,-187.2"/>
</g>
<!-- Node3 -->
<g id="node3" class="node">
<title>Node3</title>
<g id="a_node3"><a xlink:href="../../d9/dbf/class_window.html#a3d7f68f2fe4c1e7d787353b056090ea4" target="_top" xlink:title=" ">
<polygon fill="none" stroke="black" points="260,-323.68 260,-342.68 437,-342.68 437,-323.68 260,-323.68"/>
<text text-anchor="middle" x="348.5" y="-330.68" font-family="Helvetica,sans-Serif" font-size="10.00">Window::createAcquiredDistrictsMap</text>
</a>
</g>
</g>
<!-- Node2&#45;&gt;Node3 -->
<g id="edge2" class="edge">
<title>Node2&#45;&gt;Node3</title>
<path fill="none" stroke="midnightblue" d="M178.82,-513.66C190.52,-491.2 222.24,-433.89 260,-395.18 278.35,-376.36 303.07,-359.45 321.55,-348.06"/>
<polygon fill="midnightblue" stroke="midnightblue" points="323.56,-350.93 330.32,-342.77 319.95,-344.93 323.56,-350.93"/>
</g>
<!-- Node10 -->
<g id="node10" class="node">
<title>Node10</title>
<g id="a_node10"><a xlink:href="../../d1/d22/class_utils_1_1_point.html#a4fd453f573c399f7195a8982268a9f55" target="_top" xlink:title=" ">
<polygon fill="none" stroke="black" points="881.5,-475.68 881.5,-494.68 970.5,-494.68 970.5,-475.68 881.5,-475.68"/>
<text text-anchor="middle" x="926" y="-482.68" font-family="Helvetica,sans-Serif" font-size="10.00">Utils::Point::getX</text>
</a>
</g>
</g>
<!-- Node2&#45;&gt;Node10 -->
<g id="edge52" class="edge">
<title>Node2&#45;&gt;Node10</title>
<path fill="none" stroke="midnightblue" d="M176.59,-513.66C192.31,-458.01 280.79,-173.98 473,-80.18 620.54,-8.17 720.86,47.63 842,-63.18 908.35,-123.86 824.46,-393.94 878,-466.18 878.8,-467.25 879.66,-468.26 880.59,-469.22"/>
<polygon fill="midnightblue" stroke="midnightblue" points="878.63,-472.13 888.68,-475.49 882.92,-466.59 878.63,-472.13"/>
</g>
<!-- Node11 -->
<g id="node11" class="node">
<title>Node11</title>
<g id="a_node11"><a xlink:href="../../d1/d22/class_utils_1_1_point.html#a62ce3a4ededc21a4f417bf18e357fc8e" target="_top" xlink:title=" ">
<polygon fill="none" stroke="black" points="880.5,-760.68 880.5,-779.68 971.5,-779.68 971.5,-760.68 880.5,-760.68"/>
<text text-anchor="middle" x="926" y="-767.68" font-family="Helvetica,sans-Serif" font-size="10.00">Utils::Point::getY</text>
</a>
</g>
</g>
<!-- Node2&#45;&gt;Node11 -->
<g id="edge53" class="edge">
<title>Node2&#45;&gt;Node11</title>
<path fill="none" stroke="midnightblue" d="M175.11,-532.9C179.76,-570.57 200.33,-709.41 260,-804.18 328.55,-913.04 357.74,-943.03 473,-1000.18 620.79,-1073.45 709.32,-1138.2 842,-1040.18 883.51,-1009.51 912.87,-846.77 922,-789.85"/>
<polygon fill="midnightblue" stroke="midnightblue" points="925.46,-790.37 923.55,-779.95 918.54,-789.28 925.46,-790.37"/>
</g>
<!-- Node14 -->
<g id="node14" class="node">
<title>Node14</title>
<g id="a_node14"><a xlink:href="../../d9/dbf/class_window.html#a3cf04a74c49b1871b64436ef60fedc87" target="_top" xlink:title=" ">
<polygon fill="none" stroke="black" points="283,-684.68 283,-703.68 414,-703.68 414,-684.68 283,-684.68"/>
<text text-anchor="middle" x="348.5" y="-691.68" font-family="Helvetica,sans-Serif" font-size="10.00">Window::createDistrictCell</text>
</a>
</g>
</g>
<!-- Node2&#45;&gt;Node14 -->
<g id="edge16" class="edge">
<title>Node2&#45;&gt;Node14</title>
<path fill="none" stroke="midnightblue" d="M183.83,-532.86C212.22,-560.84 294.62,-642.06 330.49,-677.41"/>
<polygon fill="midnightblue" stroke="midnightblue" points="328.2,-680.07 337.78,-684.6 333.12,-675.09 328.2,-680.07"/>
</g>
<!-- Node19 -->
<g id="node19" class="node">
<title>Node19</title>
<g id="a_node19"><a xlink:href="../../d9/dbf/class_window.html#a64c006506fe02aaabd214abef651d87d" target="_top" xlink:title=" ">
<polygon fill="none" stroke="black" points="487.5,-931.68 487.5,-950.68 646.5,-950.68 646.5,-931.68 487.5,-931.68"/>
<text text-anchor="middle" x="567" y="-938.68" font-family="Helvetica,sans-Serif" font-size="10.00">Window::createInfectionHeatMap</text>
</a>
</g>
</g>
<!-- Node2&#45;&gt;Node19 -->
<g id="edge32" class="edge">
<title>Node2&#45;&gt;Node19</title>
<path fill="none" stroke="midnightblue" d="M176.78,-533.07C185.41,-562.65 214.02,-652.16 260,-713.18 334.76,-812.39 369.51,-825.46 473,-894.18 492.38,-907.04 515.75,-918.84 534.22,-927.4"/>
<polygon fill="midnightblue" stroke="midnightblue" points="532.83,-930.61 543.38,-931.57 535.73,-924.24 532.83,-930.61"/>
</g>
<!-- Node20 -->
<g id="node20" class="node">
<title>Node20</title>
<g id="a_node20"><a xlink:href="../../d9/dbf/class_window.html#a559be400478ab10fd0c147c3e88710be" target="_top" xlink:title=" ">
<polygon fill="none" stroke="black" points="473,-399.68 473,-418.68 661,-418.68 661,-399.68 473,-399.68"/>
<text text-anchor="middle" x="567" y="-406.68" font-family="Helvetica,sans-Serif" font-size="10.00">Window::createMinimalVaccinationMap</text>
</a>
</g>
</g>
<!-- Node2&#45;&gt;Node20 -->
<g id="edge37" class="edge">
<title>Node2&#45;&gt;Node20</title>
<path fill="none" stroke="midnightblue" d="M200.93,-513.56C252.98,-495.2 371.27,-454.65 473,-428.18 483.03,-425.57 493.75,-423.09 504.21,-420.84"/>
<polygon fill="midnightblue" stroke="midnightblue" points="505.06,-424.24 514.12,-418.76 503.62,-417.39 505.06,-424.24"/>
</g>
<!-- Node21 -->
<g id="node21" class="node">
<title>Node21</title>
<g id="a_node21"><a xlink:href="../../d9/dbf/class_window.html#ad7e1d8bae4995cbd51eff71c283e6945" target="_top" xlink:title=" ">
<polygon fill="none" stroke="black" points="492.5,-551.68 492.5,-570.68 641.5,-570.68 641.5,-551.68 492.5,-551.68"/>
<text text-anchor="middle" x="567" y="-558.68" font-family="Helvetica,sans-Serif" font-size="10.00">Window::createPopulationMap</text>
</a>
</g>
</g>
<!-- Node2&#45;&gt;Node21 -->
<g id="edge42" class="edge">
<title>Node2&#45;&gt;Node21</title>
<path fill="none" stroke="midnightblue" d="M224.38,-532.1C236.05,-533.96 248.44,-535.78 260,-537.18 334.92,-546.2 420.59,-552.58 482.19,-556.49"/>
<polygon fill="midnightblue" stroke="midnightblue" points="482.05,-559.98 492.25,-557.12 482.49,-553 482.05,-559.98"/>
</g>
<!-- Node23 -->
<g id="node23" class="node">
<title>Node23</title>
<g id="a_node23"><a xlink:href="../../d9/dbf/class_window.html#a27b72cfc7953f398cace9362daa9d4ca" target="_top" xlink:title=" ">
<polygon fill="none" stroke="black" points="490,-513.68 490,-532.68 644,-532.68 644,-513.68 490,-513.68"/>
<text text-anchor="middle" x="567" y="-520.68" font-family="Helvetica,sans-Serif" font-size="10.00">Window::createVaccinationMap</text>
</a>
</g>
</g>
<!-- Node2&#45;&gt;Node23 -->
<g id="edge47" class="edge">
<title>Node2&#45;&gt;Node23</title>
<path fill="none" stroke="midnightblue" d="M224.05,-523.18C288.34,-523.18 400.98,-523.18 479.34,-523.18"/>
<polygon fill="midnightblue" stroke="midnightblue" points="479.68,-526.68 489.68,-523.18 479.68,-519.68 479.68,-526.68"/>
</g>
<!-- Node4 -->
<g id="node4" class="node">
<title>Node4</title>
<g id="a_node4"><a xlink:href="../../d3/d56/class_country.html#ae4cb1ce84aaf89445110978833606882" target="_top" xlink:title=" ">
<polygon fill="none" stroke="black" points="494,-209.68 494,-228.68 640,-228.68 640,-209.68 494,-209.68"/>
<text text-anchor="middle" x="567" y="-216.68" font-family="Helvetica,sans-Serif" font-size="10.00">Country::getAssignedDistricts</text>
</a>
</g>
</g>
<!-- Node3&#45;&gt;Node4 -->
<g id="edge3" class="edge">
<title>Node3&#45;&gt;Node4</title>
<path fill="none" stroke="midnightblue" d="M359.84,-323.48C380.02,-305.09 426.7,-265.04 473,-243.18 482.93,-238.49 493.9,-234.62 504.73,-231.47"/>
<polygon fill="midnightblue" stroke="midnightblue" points="505.87,-234.79 514.59,-228.77 504.02,-228.03 505.87,-234.79"/>
</g>
<!-- Node5 -->
<g id="node5" class="node">
<title>Node5</title>
<g id="a_node5"><a xlink:href="../../da/d74/class_grid.html#a122b323349de05dbe68517d602cb2221" target="_top" xlink:title=" ">
<polygon fill="none" stroke="black" points="715,-247.68 715,-266.68 824,-266.68 824,-247.68 715,-247.68"/>
<text text-anchor="middle" x="769.5" y="-254.68" font-family="Helvetica,sans-Serif" font-size="10.00">Grid::getCountryByID</text>
</a>
</g>
</g>
<!-- Node3&#45;&gt;Node5 -->
<g id="edge4" class="edge">
<title>Node3&#45;&gt;Node5</title>
<path fill="none" stroke="midnightblue" d="M379.94,-323.63C404.78,-316.12 440.88,-305.85 473,-299.18 552.13,-282.73 644.53,-270.73 704.66,-263.87"/>
<polygon fill="midnightblue" stroke="midnightblue" points="705.22,-267.33 714.76,-262.73 704.43,-260.37 705.22,-267.33"/>
</g>
<!-- Node3&#45;&gt;Node6 -->
<g id="edge5" class="edge">
<title>Node3&#45;&gt;Node6</title>
<path fill="none" stroke="midnightblue" d="M358.73,-342.75C378,-362.16 424.78,-406.14 473,-428.18 480.65,-431.67 488.94,-434.53 497.32,-436.86"/>
<polygon fill="midnightblue" stroke="midnightblue" points="496.61,-440.29 507.17,-439.37 498.34,-433.51 496.61,-440.29"/>
</g>
<!-- Node8 -->
<g id="node8" class="node">
<title>Node8</title>
<g id="a_node8"><a xlink:href="../../da/d74/class_grid.html#aff3d5bc3ea4e8da08e0a78d7f73f0084" target="_top" xlink:title=" ">
<polygon fill="none" stroke="black" points="714.5,-437.68 714.5,-456.68 824.5,-456.68 824.5,-437.68 714.5,-437.68"/>
<text text-anchor="middle" x="769.5" y="-444.68" font-family="Helvetica,sans-Serif" font-size="10.00">Grid::getFieldByPoint</text>
</a>
</g>
</g>
<!-- Node3&#45;&gt;Node8 -->
<g id="edge12" class="edge">
<title>Node3&#45;&gt;Node8</title>
<path fill="none" stroke="midnightblue" d="M437.04,-328.82C516.24,-326.59 625.71,-328.31 661,-352.18 691.96,-373.11 668.27,-404.27 697,-428.18 699.57,-430.31 702.35,-432.21 705.28,-433.9"/>
<polygon fill="midnightblue" stroke="midnightblue" points="703.91,-437.12 714.43,-438.35 706.97,-430.83 703.91,-437.12"/>
</g>
<!-- Node3&#45;&gt;Node10 -->
<g id="edge13" class="edge">
<title>Node3&#45;&gt;Node10</title>
<path fill="none" stroke="midnightblue" d="M353.85,-323.44C367.25,-294.48 410.85,-208.09 473,-162.18 540.34,-112.43 780.07,-29.84 842,-86.18 904.74,-143.26 827.31,-398.17 878,-466.18 878.8,-467.25 879.67,-468.26 880.6,-469.21"/>
<polygon fill="midnightblue" stroke="midnightblue" points="878.64,-472.13 888.7,-475.47 882.92,-466.59 878.64,-472.13"/>
</g>
<!-- Node3&#45;&gt;Node11 -->
<g id="edge14" class="edge">
<title>Node3&#45;&gt;Node11</title>
<path fill="none" stroke="midnightblue" d="M352.12,-342.86C362.16,-378.49 401.3,-504.13 473,-580.18 512.41,-621.97 643.91,-687.23 697,-709.18 754.15,-732.8 823.16,-749.77 870.18,-759.72"/>
<polygon fill="midnightblue" stroke="midnightblue" points="869.66,-763.19 880.17,-761.8 871.09,-756.34 869.66,-763.19"/>
</g>
<!-- Node3&#45;&gt;Node12 -->
<g id="edge11" class="edge">
<title>Node3&#45;&gt;Node12</title>
<path fill="none" stroke="midnightblue" d="M403.85,-342.72C434.14,-348.03 471.99,-354.68 503.5,-360.21"/>
<polygon fill="midnightblue" stroke="midnightblue" points="503.04,-363.68 513.49,-361.96 504.25,-356.78 503.04,-363.68"/>
</g>
<!-- Node13 -->
<g id="node13" class="node">
<title>Node13</title>
<g id="a_node13"><a xlink:href="../../dc/d67/class_field.html#ac9823a5988356e6d2f6aa8cf232c16c5" target="_top" xlink:title=" ">
<polygon fill="none" stroke="black" points="699.5,-285.68 699.5,-304.68 839.5,-304.68 839.5,-285.68 699.5,-285.68"/>
<text text-anchor="middle" x="769.5" y="-292.68" font-family="Helvetica,sans-Serif" font-size="10.00">Field::vaccinesToPutMinimal</text>
</a>
</g>
</g>
<!-- Node3&#45;&gt;Node13 -->
<g id="edge15" class="edge">
<title>Node3&#45;&gt;Node13</title>
<path fill="none" stroke="midnightblue" d="M430.18,-323.66C444.44,-322.08 459.15,-320.52 473,-319.18 546.25,-312.05 629.85,-305.4 689.4,-300.91"/>
<polygon fill="midnightblue" stroke="midnightblue" points="689.77,-304.39 699.48,-300.16 689.25,-297.41 689.77,-304.39"/>
</g>
<!-- Node7 -->
<g id="node7" class="node">
<title>Node7</title>
<g id="a_node7"><a xlink:href="../../da/d74/class_grid.html#af60e6e64cac90b7d38132dc6560b2052" target="_top" xlink:title=" ">
<polygon fill="none" stroke="black" points="716.5,-399.68 716.5,-418.68 822.5,-418.68 822.5,-399.68 716.5,-399.68"/>
<text text-anchor="middle" x="769.5" y="-406.68" font-family="Helvetica,sans-Serif" font-size="10.00">Grid::getDistrictByID</text>
</a>
</g>
</g>
<!-- Node6&#45;&gt;Node7 -->
<g id="edge6" class="edge">
<title>Node6&#45;&gt;Node7</title>
<path fill="none" stroke="midnightblue" d="M618.34,-437.64C645.63,-432.46 679.54,-426.04 708.23,-420.6"/>
<polygon fill="midnightblue" stroke="midnightblue" points="708.97,-424.02 718.14,-418.72 707.67,-417.14 708.97,-424.02"/>
</g>
<!-- Node6&#45;&gt;Node8 -->
<g id="edge7" class="edge">
<title>Node6&#45;&gt;Node8</title>
<path fill="none" stroke="midnightblue" d="M626.53,-447.18C650.91,-447.18 679.3,-447.18 704.26,-447.18"/>
<polygon fill="midnightblue" stroke="midnightblue" points="704.36,-450.68 714.36,-447.18 704.36,-443.68 704.36,-450.68"/>
</g>
<!-- Node9 -->
<g id="node9" class="node">
<title>Node9</title>
<g id="a_node9"><a xlink:href="../../da/d74/class_grid.html#a3618702f7872969eedc6e8817dc26776" target="_top" xlink:title=" ">
<polygon fill="none" stroke="black" points="878,-437.68 878,-456.68 974,-456.68 974,-437.68 878,-437.68"/>
<text text-anchor="middle" x="926" y="-444.68" font-family="Helvetica,sans-Serif" font-size="10.00">Grid::getFieldByID</text>
</a>
</g>
</g>
<!-- Node8&#45;&gt;Node9 -->
<g id="edge8" class="edge">
<title>Node8&#45;&gt;Node9</title>
<path fill="none" stroke="midnightblue" d="M824.54,-447.18C838.54,-447.18 853.67,-447.18 867.83,-447.18"/>
<polygon fill="midnightblue" stroke="midnightblue" points="867.94,-450.68 877.94,-447.18 867.94,-443.68 867.94,-450.68"/>
</g>
<!-- Node8&#45;&gt;Node10 -->
<g id="edge9" class="edge">
<title>Node8&#45;&gt;Node10</title>
<path fill="none" stroke="midnightblue" d="M809.49,-456.76C829.78,-461.76 854.79,-467.91 876.35,-473.21"/>
<polygon fill="midnightblue" stroke="midnightblue" points="875.75,-476.67 886.29,-475.66 877.42,-469.87 875.75,-476.67"/>
</g>
<!-- Node8&#45;&gt;Node11 -->
<g id="edge10" class="edge">
<title>Node8&#45;&gt;Node11</title>
<path fill="none" stroke="midnightblue" d="M787.68,-456.74C803.92,-466.61 827.84,-483.48 842,-504.18 897.27,-584.95 917.02,-704.19 922.87,-750.65"/>
<polygon fill="midnightblue" stroke="midnightblue" points="919.4,-751.07 924.05,-760.59 926.35,-750.25 919.4,-751.07"/>
</g>
<!-- Node14&#45;&gt;Node6 -->
<g id="edge27" class="edge">
<title>Node14&#45;&gt;Node6</title>
<path fill="none" stroke="midnightblue" d="M351.94,-684.32C361.13,-649.32 397.06,-529.97 473,-471.18 480.26,-465.55 488.7,-461.24 497.48,-457.93"/>
<polygon fill="midnightblue" stroke="midnightblue" points="498.72,-461.21 507.1,-454.72 496.51,-454.57 498.72,-461.21"/>
</g>
<!-- Node14&#45;&gt;Node8 -->
<g id="edge29" class="edge">
<title>Node14&#45;&gt;Node8</title>
<path fill="none" stroke="midnightblue" d="M352.74,-684.31C363.78,-652.37 403.16,-551.19 473,-504.18 477.86,-500.9 621.11,-474.21 706.35,-458.54"/>
<polygon fill="midnightblue" stroke="midnightblue" points="707.24,-461.93 716.44,-456.68 705.97,-455.05 707.24,-461.93"/>
</g>
<!-- Node14&#45;&gt;Node10 -->
<g id="edge30" class="edge">
<title>Node14&#45;&gt;Node10</title>
<path fill="none" stroke="midnightblue" d="M414.18,-692.74C539.78,-689.44 807.45,-679.71 842,-656.18 894.65,-620.32 915.09,-541.31 921.96,-504.61"/>
<polygon fill="midnightblue" stroke="midnightblue" points="925.42,-505.13 923.68,-494.68 918.53,-503.94 925.42,-505.13"/>
</g>
<!-- Node14&#45;&gt;Node11 -->
<g id="edge31" class="edge">
<title>Node14&#45;&gt;Node11</title>
<path fill="none" stroke="midnightblue" d="M350.94,-703.7C357.28,-742.29 386.41,-888.32 473,-960.18 552.06,-1025.78 595.07,-1004.41 697,-1017.18 760.94,-1025.18 789.67,-1054.79 842,-1017.18 916.98,-963.27 925.16,-838.28 925.39,-789.85"/>
<polygon fill="midnightblue" stroke="midnightblue" points="928.89,-789.73 925.33,-779.75 921.89,-789.77 928.89,-789.73"/>
</g>
<!-- Node14&#45;&gt;Node12 -->
<g id="edge28" class="edge">
<title>Node14&#45;&gt;Node12</title>
<path fill="none" stroke="midnightblue" d="M350.23,-684.65C354,-642.55 375.07,-471.54 473,-390.18 481.73,-382.93 492.48,-378.2 503.55,-375.17"/>
<polygon fill="midnightblue" stroke="midnightblue" points="504.35,-378.58 513.31,-372.92 502.78,-371.76 504.35,-378.58"/>
</g>
<!-- Node15 -->
<g id="node15" class="node">
<title>Node15</title>
<g id="a_node15"><a xlink:href="../../d9/dbf/class_window.html#aa1dba04db317de569def71239cf37dcb" target="_top" xlink:title=" ">
<polygon fill="none" stroke="black" points="717.5,-893.68 717.5,-912.68 821.5,-912.68 821.5,-893.68 717.5,-893.68"/>
<text text-anchor="middle" x="769.5" y="-900.68" font-family="Helvetica,sans-Serif" font-size="10.00">Window::createRect</text>
</a>
</g>
</g>
<!-- Node14&#45;&gt;Node15 -->
<g id="edge17" class="edge">
<title>Node14&#45;&gt;Node15</title>
<path fill="none" stroke="midnightblue" d="M358.96,-703.68C378.67,-723.07 426.21,-767.64 473,-795.18 553.49,-842.54 658.28,-874.81 719.01,-891.02"/>
<polygon fill="midnightblue" stroke="midnightblue" points="718.16,-894.42 728.73,-893.58 719.95,-887.65 718.16,-894.42"/>
</g>
<!-- Node16 -->
<g id="node16" class="node">
<title>Node16</title>
<g id="a_node16"><a xlink:href="../../d9/dbf/class_window.html#ac2cf80c0ebb9c8fa2217776be9c394d7" target="_top" xlink:title=" ">
<polygon fill="none" stroke="black" points="515.5,-703.68 515.5,-722.68 618.5,-722.68 618.5,-703.68 515.5,-703.68"/>
<text text-anchor="middle" x="567" y="-710.68" font-family="Helvetica,sans-Serif" font-size="10.00">Window::createText</text>
</a>
</g>
</g>
<!-- Node14&#45;&gt;Node16 -->
<g id="edge20" class="edge">
<title>Node14&#45;&gt;Node16</title>
<path fill="none" stroke="midnightblue" d="M414.16,-699.85C443.02,-702.38 476.83,-705.35 505.21,-707.84"/>
<polygon fill="midnightblue" stroke="midnightblue" points="505.14,-711.35 515.4,-708.74 505.75,-704.37 505.14,-711.35"/>
</g>
<!-- Node17 -->
<g id="node17" class="node">
<title>Node17</title>
<g id="a_node17"><a xlink:href="../../dc/d67/class_field.html#a79869bd37f491e83beab556eaa3e50c0" target="_top" xlink:title=" ">
<polygon fill="none" stroke="black" points="701,-855.68 701,-874.68 838,-874.68 838,-855.68 701,-855.68"/>
<text text-anchor="middle" x="769.5" y="-862.68" font-family="Helvetica,sans-Serif" font-size="10.00">Field::getAssignedDistrictID</text>
</a>
</g>
</g>
<!-- Node14&#45;&gt;Node17 -->
<g id="edge25" class="edge">
<title>Node14&#45;&gt;Node17</title>
<path fill="none" stroke="midnightblue" d="M372.93,-703.74C443.47,-732.53 654.08,-818.48 735.69,-851.78"/>
<polygon fill="midnightblue" stroke="midnightblue" points="734.4,-855.04 744.98,-855.58 737.05,-848.56 734.4,-855.04"/>
</g>
<!-- Node18 -->
<g id="node18" class="node">
<title>Node18</title>
<g id="a_node18"><a xlink:href="../../dc/d67/class_field.html#a3ceb497dd33f97896974a2367fedc3c4" target="_top" xlink:title=" ">
<polygon fill="none" stroke="black" points="697,-931.68 697,-950.68 842,-950.68 842,-931.68 697,-931.68"/>
<text text-anchor="middle" x="769.5" y="-938.68" font-family="Helvetica,sans-Serif" font-size="10.00">Field::getCurrentInfectionRate</text>
</a>
</g>
</g>
<!-- Node14&#45;&gt;Node18 -->
<g id="edge26" class="edge">
<title>Node14&#45;&gt;Node18</title>
<path fill="none" stroke="midnightblue" d="M354.51,-703.71C369.08,-730.53 414.17,-807.32 473,-848.18 513.08,-876.01 644.82,-911.11 718.13,-929.19"/>
<polygon fill="midnightblue" stroke="midnightblue" points="717.53,-932.65 728.07,-931.63 719.19,-925.85 717.53,-932.65"/>
</g>
<!-- Node15&#45;&gt;Node10 -->
<g id="edge18" class="edge">
<title>Node15&#45;&gt;Node10</title>
<path fill="none" stroke="midnightblue" d="M821.65,-897.08C829.28,-894.19 836.44,-890.05 842,-884.18 855.42,-870.01 907.37,-583.85 921.46,-505.09"/>
<polygon fill="midnightblue" stroke="midnightblue" points="924.94,-505.49 923.25,-495.03 918.05,-504.26 924.94,-505.49"/>
</g>
<!-- Node15&#45;&gt;Node11 -->
<g id="edge19" class="edge">
<title>Node15&#45;&gt;Node11</title>
<path fill="none" stroke="midnightblue" d="M821.62,-894.22C828.82,-891.66 835.85,-888.39 842,-884.18 877.68,-859.73 903.64,-814.74 916.31,-789.2"/>
<polygon fill="midnightblue" stroke="midnightblue" points="919.62,-790.38 920.77,-779.85 913.3,-787.36 919.62,-790.38"/>
</g>
<!-- Node16&#45;&gt;Node8 -->
<g id="edge22" class="edge">
<title>Node16&#45;&gt;Node8</title>
<path fill="none" stroke="midnightblue" d="M575.59,-703.54C592.26,-682.13 632.83,-628.66 661,-580.18 679.78,-547.86 673.79,-533.47 697,-504.18 710.19,-487.53 729.11,-472.72 744.18,-462.37"/>
<polygon fill="midnightblue" stroke="midnightblue" points="746.15,-465.27 752.53,-456.81 742.27,-459.44 746.15,-465.27"/>
</g>
<!-- Node16&#45;&gt;Node10 -->
<g id="edge23" class="edge">
<title>Node16&#45;&gt;Node10</title>
<path fill="none" stroke="midnightblue" d="M614.77,-722.71C673.77,-731.95 775.54,-738.24 842,-689.18 902.87,-644.25 919.23,-546.91 923.52,-505.01"/>
<polygon fill="midnightblue" stroke="midnightblue" points="927.01,-505.24 924.42,-494.97 920.04,-504.62 927.01,-505.24"/>
</g>
<!-- Node16&#45;&gt;Node11 -->
<g id="edge24" class="edge">
<title>Node16&#45;&gt;Node11</title>
<path fill="none" stroke="midnightblue" d="M611.72,-722.79C628.38,-728 646.77,-735.79 661,-747.18 684.1,-765.66 671.03,-789 697,-803.18 762.41,-838.89 853.39,-805.13 898.06,-784.11"/>
<polygon fill="midnightblue" stroke="midnightblue" points="899.65,-787.23 907.12,-779.72 896.6,-780.94 899.65,-787.23"/>
</g>
<!-- Node16&#45;&gt;Node17 -->
<g id="edge21" class="edge">
<title>Node16&#45;&gt;Node17</title>
<path fill="none" stroke="midnightblue" d="M617.31,-722.69C632.89,-727.76 649.12,-735.47 661,-747.18 692.87,-778.57 664.71,-810.21 697,-841.18 701.24,-845.24 706.19,-848.62 711.46,-851.42"/>
<polygon fill="midnightblue" stroke="midnightblue" points="710.04,-854.62 720.59,-855.62 712.97,-848.26 710.04,-854.62"/>
</g>
<!-- Node19&#45;&gt;Node8 -->
<g id="edge34" class="edge">
<title>Node19&#45;&gt;Node8</title>
<path fill="none" stroke="midnightblue" d="M573.41,-931.52C589.46,-902.41 637.23,-812.53 661,-732.18 690.1,-633.8 645.39,-592.84 697,-504.18 707.42,-486.28 725.77,-471.83 741.28,-461.95"/>
<polygon fill="midnightblue" stroke="midnightblue" points="743.25,-464.85 750,-456.68 739.63,-458.86 743.25,-464.85"/>
</g>
<!-- Node19&#45;&gt;Node10 -->
<g id="edge35" class="edge">
<title>Node19&#45;&gt;Node10</title>
<path fill="none" stroke="midnightblue" d="M587.75,-950.8C637.15,-973.33 767.42,-1023 842,-960.18 878.04,-929.81 869.9,-797.6 878,-751.18 894.09,-658.95 913.67,-548.81 921.51,-504.78"/>
<polygon fill="midnightblue" stroke="midnightblue" points="924.97,-505.29 923.28,-494.84 918.08,-504.07 924.97,-505.29"/>
</g>
<!-- Node19&#45;&gt;Node11 -->
<g id="edge36" class="edge">
<title>Node19&#45;&gt;Node11</title>
<path fill="none" stroke="midnightblue" d="M582.65,-950.83C626.37,-978.34 758.1,-1051.47 842,-993.18 910.18,-945.8 922.46,-835.38 924.59,-790.09"/>
<polygon fill="midnightblue" stroke="midnightblue" points="928.09,-790.18 924.95,-780.06 921.1,-789.93 928.09,-790.18"/>
</g>
<!-- Node19&#45;&gt;Node18 -->
<g id="edge33" class="edge">
<title>Node19&#45;&gt;Node18</title>
<path fill="none" stroke="midnightblue" d="M646.67,-941.18C659.87,-941.18 673.59,-941.18 686.87,-941.18"/>
<polygon fill="midnightblue" stroke="midnightblue" points="686.91,-944.68 696.91,-941.18 686.91,-937.68 686.91,-944.68"/>
</g>
<!-- Node20&#45;&gt;Node8 -->
<g id="edge38" class="edge">
<title>Node20&#45;&gt;Node8</title>
<path fill="none" stroke="midnightblue" d="M618.34,-418.72C645.63,-423.89 679.54,-430.32 708.23,-435.75"/>
<polygon fill="midnightblue" stroke="midnightblue" points="707.67,-439.21 718.14,-437.63 708.97,-432.33 707.67,-439.21"/>
</g>
<!-- Node20&#45;&gt;Node10 -->
<g id="edge39" class="edge">
<title>Node20&#45;&gt;Node10</title>
<path fill="none" stroke="midnightblue" d="M636.51,-399.63C645,-397.17 653.37,-394.07 661,-390.18 680.33,-380.31 676.77,-365.04 697,-357.18 757.06,-333.81 789.77,-319.42 842,-357.18 883.35,-387.06 843.12,-428.94 878,-466.18 879.35,-467.62 880.83,-468.96 882.4,-470.2"/>
<polygon fill="midnightblue" stroke="midnightblue" points="880.57,-473.18 890.88,-475.59 884.33,-467.27 880.57,-473.18"/>
</g>
<!-- Node20&#45;&gt;Node11 -->
<g id="edge40" class="edge">
<title>Node20&#45;&gt;Node11</title>
<path fill="none" stroke="midnightblue" d="M620.53,-399.66C643.86,-395.9 671.71,-392.03 697,-390.18 761.27,-385.47 791.8,-349.76 842,-390.18 856.45,-401.81 907.24,-673.4 921.34,-750.14"/>
<polygon fill="midnightblue" stroke="midnightblue" points="917.97,-751.16 923.21,-760.36 924.85,-749.89 917.97,-751.16"/>
</g>
<!-- Node20&#45;&gt;Node13 -->
<g id="edge41" class="edge">
<title>Node20&#45;&gt;Node13</title>
<path fill="none" stroke="midnightblue" d="M644.63,-399.57C650.47,-397.06 656.02,-393.97 661,-390.18 689.13,-368.72 670.23,-342.31 697,-319.18 701.81,-315.02 707.37,-311.57 713.22,-308.72"/>
<polygon fill="midnightblue" stroke="midnightblue" points="714.77,-311.87 722.59,-304.71 712.01,-305.43 714.77,-311.87"/>
</g>
<!-- Node21&#45;&gt;Node8 -->
<g id="edge43" class="edge">
<title>Node21&#45;&gt;Node8</title>
<path fill="none" stroke="midnightblue" d="M638.72,-551.54C646.49,-549.08 654.08,-546.02 661,-542.18 681.34,-530.88 679.86,-519.91 697,-504.18 713.08,-489.42 732.5,-474.07 747.05,-463.03"/>
<polygon fill="midnightblue" stroke="midnightblue" points="749.51,-465.56 755.4,-456.75 745.3,-459.96 749.51,-465.56"/>
</g>
<!-- Node21&#45;&gt;Node10 -->
<g id="edge45" class="edge">
<title>Node21&#45;&gt;Node10</title>
<path fill="none" stroke="midnightblue" d="M641.63,-566.41C698.03,-567.99 776.94,-564.86 842,-542.18 866.79,-533.53 891.06,-515.41 906.89,-501.91"/>
<polygon fill="midnightblue" stroke="midnightblue" points="909.57,-504.21 914.76,-494.97 904.94,-498.96 909.57,-504.21"/>
</g>
<!-- Node21&#45;&gt;Node11 -->
<g id="edge46" class="edge">
<title>Node21&#45;&gt;Node11</title>
<path fill="none" stroke="midnightblue" d="M583.98,-570.78C602.93,-582.4 635.19,-602.94 661,-623.18 678.08,-636.57 679.12,-643.87 697,-656.18 761.19,-700.36 844.94,-737.69 890.98,-756.7"/>
<polygon fill="midnightblue" stroke="midnightblue" points="889.9,-760.04 900.48,-760.58 892.55,-753.56 889.9,-760.04"/>
</g>
<!-- Node22 -->
<g id="node22" class="node">
<title>Node22</title>
<g id="a_node22"><a xlink:href="../../dc/d67/class_field.html#a17faeb6e0835c0ec6446c5f6b291d806" target="_top" xlink:title=" ">
<polygon fill="none" stroke="black" points="701.5,-627.68 701.5,-646.68 837.5,-646.68 837.5,-627.68 701.5,-627.68"/>
<text text-anchor="middle" x="769.5" y="-634.68" font-family="Helvetica,sans-Serif" font-size="10.00">Field::getPopulationDensity</text>
</a>
</g>
</g>
<!-- Node21&#45;&gt;Node22 -->
<g id="edge44" class="edge">
<title>Node21&#45;&gt;Node22</title>
<path fill="none" stroke="midnightblue" d="M590.68,-570.79C616.32,-581.55 659.39,-599.3 697,-613.18 707.33,-616.99 718.6,-620.89 729.06,-624.4"/>
<polygon fill="midnightblue" stroke="midnightblue" points="728.2,-627.81 738.79,-627.64 730.41,-621.16 728.2,-627.81"/>
</g>
<!-- Node23&#45;&gt;Node8 -->
<g id="edge48" class="edge">
<title>Node23&#45;&gt;Node8</title>
<path fill="none" stroke="midnightblue" d="M620.51,-513.6C634.1,-510.06 648.43,-505.35 661,-499.18 679.19,-490.24 679.14,-480.76 697,-471.18 704.96,-466.9 713.83,-463.19 722.54,-460.04"/>
<polygon fill="midnightblue" stroke="midnightblue" points="723.9,-463.28 732.24,-456.74 721.64,-456.65 723.9,-463.28"/>
</g>
<!-- Node23&#45;&gt;Node10 -->
<g id="edge50" class="edge">
<title>Node23&#45;&gt;Node10</title>
<path fill="none" stroke="midnightblue" d="M627.3,-513.64C649.17,-510.34 674.17,-506.81 697,-504.18 756.43,-497.33 824.85,-491.96 871.11,-488.7"/>
<polygon fill="midnightblue" stroke="midnightblue" points="871.48,-492.19 881.21,-488 870.99,-485.2 871.48,-492.19"/>
</g>
<!-- Node23&#45;&gt;Node11 -->
<g id="edge51" class="edge">
<title>Node23&#45;&gt;Node11</title>
<path fill="none" stroke="midnightblue" d="M642.1,-532.69C702.35,-543.89 786.22,-567.83 842,-618.18 883.53,-655.66 908.53,-718.95 919.1,-750.73"/>
<polygon fill="midnightblue" stroke="midnightblue" points="915.86,-752.1 922.24,-760.57 922.53,-749.98 915.86,-752.1"/>
</g>
<!-- Node24 -->
<g id="node24" class="node">
<title>Node24</title>
<g id="a_node24"><a xlink:href="../../dc/d67/class_field.html#a35aeab02328c4fdc387534a7a8f61bb3" target="_top" xlink:title=" ">
<polygon fill="none" stroke="black" points="706.5,-513.68 706.5,-532.68 832.5,-532.68 832.5,-513.68 706.5,-513.68"/>
<text text-anchor="middle" x="769.5" y="-520.68" font-family="Helvetica,sans-Serif" font-size="10.00">Field::getStoredVaccines</text>
</a>
</g>
</g>
<!-- Node23&#45;&gt;Node24 -->
<g id="edge49" class="edge">
<title>Node23&#45;&gt;Node24</title>
<path fill="none" stroke="midnightblue" d="M644.09,-523.18C661.15,-523.18 679.21,-523.18 696.12,-523.18"/>
<polygon fill="midnightblue" stroke="midnightblue" points="696.48,-526.68 706.48,-523.18 696.48,-519.68 696.48,-526.68"/>
</g>
<!-- Node27&#45;&gt;Node5 -->
<g id="edge59" class="edge">
<title>Node27&#45;&gt;Node5</title>
<path fill="none" stroke="midnightblue" d="M621.32,-186.96C634.76,-189.78 648.82,-193.96 661,-200.18 680.33,-210.04 678.3,-222.15 697,-233.18 704.38,-237.53 712.65,-241.22 720.88,-244.31"/>
<polygon fill="midnightblue" stroke="midnightblue" points="719.88,-247.67 730.47,-247.66 722.19,-241.06 719.88,-247.67"/>
</g>
<!-- Node27&#45;&gt;Node8 -->
<g id="edge61" class="edge">
<title>Node27&#45;&gt;Node8</title>
<path fill="none" stroke="midnightblue" d="M621.19,-181.17C635.89,-183.8 650.64,-189.34 661,-200.18 731.89,-274.33 628.29,-351.99 697,-428.18 699.44,-430.88 702.22,-433.22 705.22,-435.24"/>
<polygon fill="midnightblue" stroke="midnightblue" points="703.77,-438.44 714.23,-440.13 707.11,-432.28 703.77,-438.44"/>
</g>
<!-- Node27&#45;&gt;Node10 -->
<g id="edge62" class="edge">
<title>Node27&#45;&gt;Node10</title>
<path fill="none" stroke="midnightblue" d="M587.23,-171.65C636.54,-148.74 768.75,-97.09 842,-162.18 892.85,-207.36 836.71,-412.11 878,-466.18 878.81,-467.24 879.69,-468.24 880.63,-469.19"/>
<polygon fill="midnightblue" stroke="midnightblue" points="878.71,-472.12 888.78,-475.41 882.96,-466.56 878.71,-472.12"/>
</g>
<!-- Node27&#45;&gt;Node11 -->
<g id="edge63" class="edge">
<title>Node27&#45;&gt;Node11</title>
<path fill="none" stroke="midnightblue" d="M621.23,-188.89C696.62,-200.31 827.05,-222.1 842,-238.18 882.62,-281.85 868.81,-445.24 878,-504.18 892.42,-596.67 912.93,-706.66 921.26,-750.61"/>
<polygon fill="midnightblue" stroke="midnightblue" points="917.84,-751.37 923.15,-760.54 924.72,-750.06 917.84,-751.37"/>
</g>
<!-- Node28 -->
<g id="node28" class="node">
<title>Node28</title>
<g id="a_node28"><a xlink:href="../../da/d74/class_grid.html#a53693945f3d1ec88325b6a7c45053b7d" target="_top" xlink:title=" ">
<polygon fill="none" stroke="black" points="717.5,-95.68 717.5,-114.68 821.5,-114.68 821.5,-95.68 717.5,-95.68"/>
<text text-anchor="middle" x="769.5" y="-102.68" font-family="Helvetica,sans-Serif" font-size="10.00">Grid::getCurrentTick</text>
</a>
</g>
</g>
<!-- Node27&#45;&gt;Node28 -->
<g id="edge60" class="edge">
<title>Node27&#45;&gt;Node28</title>
<path fill="none" stroke="midnightblue" d="M590.68,-171.56C616.32,-160.8 659.39,-143.05 697,-129.18 707.33,-125.36 718.6,-121.46 729.06,-117.95"/>
<polygon fill="midnightblue" stroke="midnightblue" points="730.41,-121.19 738.79,-114.71 728.2,-114.55 730.41,-121.19"/>
</g>
<!-- Node29 -->
<g id="node29" class="node">
<title>Node29</title>
<g id="a_node29"><a xlink:href="../../d1/d22/class_utils_1_1_point.html#a1563d88d568349cd8e76904c25671594" target="_top" xlink:title=" ">
<polygon fill="none" stroke="black" points="705.5,-171.68 705.5,-190.68 833.5,-190.68 833.5,-171.68 705.5,-171.68"/>
<text text-anchor="middle" x="769.5" y="-178.68" font-family="Helvetica,sans-Serif" font-size="10.00">Utils::Point::withinBounds</text>
</a>
</g>
</g>
<!-- Node27&#45;&gt;Node29 -->
<g id="edge64" class="edge">
<title>Node27&#45;&gt;Node29</title>
<path fill="none" stroke="midnightblue" d="M621.2,-181.18C643.94,-181.18 670.86,-181.18 695.42,-181.18"/>
<polygon fill="midnightblue" stroke="midnightblue" points="695.42,-184.68 705.42,-181.18 695.42,-177.68 695.42,-184.68"/>
</g>
<!-- Node29&#45;&gt;Node10 -->
<g id="edge65" class="edge">
<title>Node29&#45;&gt;Node10</title>
<path fill="none" stroke="midnightblue" d="M822.17,-190.7C829.73,-194.15 836.74,-198.82 842,-205.18 916.72,-295.34 806.03,-373.8 878,-466.18 878.95,-467.39 879.98,-468.53 881.09,-469.59"/>
<polygon fill="midnightblue" stroke="midnightblue" points="879.18,-472.53 889.31,-475.62 883.32,-466.89 879.18,-472.53"/>
</g>
<!-- Node29&#45;&gt;Node11 -->
<g id="edge66" class="edge">
<title>Node29&#45;&gt;Node11</title>
<path fill="none" stroke="midnightblue" d="M822.62,-190.79C830.04,-194.23 836.87,-198.88 842,-205.18 884.26,-257.07 868.17,-437.98 878,-504.18 891.74,-596.78 912.63,-706.7 921.17,-750.63"/>
<polygon fill="midnightblue" stroke="midnightblue" points="917.75,-751.4 923.1,-760.54 924.62,-750.06 917.75,-751.4"/>
</g>
</g>
</svg>
