<?xml version="1.0" encoding="UTF-8" standalone="no"?>
<!DOCTYPE svg PUBLIC "-//W3C//DTD SVG 1.1//EN"
 "http://www.w3.org/Graphics/SVG/1.1/DTD/svg11.dtd">
<!-- Generated by graphviz version 2.44.1 (20200629.0846)
 -->
<!-- Title: Visualization::setGrid Pages: 1 -->
<svg width="413pt" height="85pt"
 viewBox="0.00 0.00 413.00 85.00" xmlns="http://www.w3.org/2000/svg" xmlns:xlink="http://www.w3.org/1999/xlink">
<g id="graph0" class="graph" transform="scale(1 1) rotate(0) translate(4 81)">
<title>Visualization::setGrid</title>
<!-- Node1 -->
<g id="node1" class="node">
<title>Node1</title>
<g id="a_node1"><a xlink:title=" ">
<polygon fill="#bfbfbf" stroke="black" points="0,-19.5 0,-38.5 110,-38.5 110,-19.5 0,-19.5"/>
<text text-anchor="middle" x="55" y="-26.5" font-family="Helvetica,sans-Serif" font-size="10.00">Visualization::setGrid</text>
</a>
</g>
</g>
<!-- Node2 -->
<g id="node2" class="node">
<title>Node2</title>
<g id="a_node2"><a xlink:href="../../d9/dbf/class_window.html#a626bdb561d368f98a72d2d3ce2007c97" target="_top" xlink:title=" ">
<polygon fill="none" stroke="black" points="146,-38.5 146,-57.5 235,-57.5 235,-38.5 146,-38.5"/>
<text text-anchor="middle" x="190.5" y="-45.5" font-family="Helvetica,sans-Serif" font-size="10.00">Window::setGrid</text>
</a>
</g>
</g>
<!-- Node1&#45;&gt;Node2 -->
<g id="edge1" class="edge">
<title>Node1&#45;&gt;Node2</title>
<path fill="none" stroke="midnightblue" d="M110.3,-36.73C118.72,-37.93 127.41,-39.16 135.81,-40.36"/>
<polygon fill="midnightblue" stroke="midnightblue" points="135.49,-43.85 145.88,-41.79 136.47,-36.92 135.49,-43.85"/>
</g>
<!-- Node5 -->
<g id="node5" class="node">
<title>Node5</title>
<g id="a_node5"><a xlink:href="../../da/df6/class_logic.html#ad75934b1d5b2304e6999be5e6c708ee9" target="_top" xlink:title=" ">
<polygon fill="none" stroke="black" points="152,-0.5 152,-19.5 229,-19.5 229,-0.5 152,-0.5"/>
<text text-anchor="middle" x="190.5" y="-7.5" font-family="Helvetica,sans-Serif" font-size="10.00">Logic::setGrid</text>
</a>
</g>
</g>
<!-- Node1&#45;&gt;Node5 -->
<g id="edge4" class="edge">
<title>Node1&#45;&gt;Node5</title>
<path fill="none" stroke="midnightblue" d="M110.3,-21.27C120.69,-19.79 131.51,-18.25 141.68,-16.81"/>
<polygon fill="midnightblue" stroke="midnightblue" points="142.19,-20.27 151.6,-15.39 141.21,-13.34 142.19,-20.27"/>
</g>
<!-- Node3 -->
<g id="node3" class="node">
<title>Node3</title>
<g id="a_node3"><a xlink:href="../../da/d74/class_grid.html#ac4eb373e8490b24c5d685191b1a91e71" target="_top" xlink:title=" ">
<polygon fill="none" stroke="black" points="271,-57.5 271,-76.5 405,-76.5 405,-57.5 271,-57.5"/>
<text text-anchor="middle" x="338" y="-64.5" font-family="Helvetica,sans-Serif" font-size="10.00">Grid::getNumberOfDistricts</text>
</a>
</g>
</g>
<!-- Node2&#45;&gt;Node3 -->
<g id="edge2" class="edge">
<title>Node2&#45;&gt;Node3</title>
<path fill="none" stroke="midnightblue" d="M235.15,-53.7C243.3,-54.76 252.04,-55.91 260.84,-57.05"/>
<polygon fill="midnightblue" stroke="midnightblue" points="260.4,-60.53 270.77,-58.35 261.31,-53.59 260.4,-60.53"/>
</g>
<!-- Node4 -->
<g id="node4" class="node">
<title>Node4</title>
<g id="a_node4"><a xlink:href="../../d9/dbf/class_window.html#a0d3d4b9f7f5175eb88ae5bb8b2d2e90a" target="_top" xlink:title=" ">
<polygon fill="none" stroke="black" points="289,-19.5 289,-38.5 387,-38.5 387,-19.5 289,-19.5"/>
<text text-anchor="middle" x="338" y="-26.5" font-family="Helvetica,sans-Serif" font-size="10.00">Window::setColors</text>
</a>
</g>
</g>
<!-- Node2&#45;&gt;Node4 -->
<g id="edge3" class="edge">
<title>Node2&#45;&gt;Node4</title>
<path fill="none" stroke="midnightblue" d="M235.15,-42.3C248.89,-40.51 264.29,-38.49 278.87,-36.59"/>
<polygon fill="midnightblue" stroke="midnightblue" points="279.34,-40.06 288.8,-35.29 278.43,-33.12 279.34,-40.06"/>
</g>
</g>
</svg>
