<?xml version="1.0" encoding="UTF-8" standalone="no"?>
<!DOCTYPE svg PUBLIC "-//W3C//DTD SVG 1.1//EN"
 "http://www.w3.org/Graphics/SVG/1.1/DTD/svg11.dtd">
<!-- Generated by graphviz version 2.44.1 (20200629.0846)
 -->
<!-- Title: Visualization::displayCurrentRound Pages: 1 -->
<!--zoomable 1149 -->
<svg id="main" version="1.1" xmlns="http://www.w3.org/2000/svg" xmlns:xlink="http://www.w3.org/1999/xlink" xml:space="preserve" onload="init(evt)">
<style type="text/css"><![CDATA[
.edge:hover path { stroke: red; }
.edge:hover polygon { stroke: red; fill: red; }
]]></style>
<script type="text/javascript"><![CDATA[
var edges = document.getElementsByTagName('g');
if (edges && edges.length) {
  for (var i=0;i<edges.length;i++) {
    if (edges[i].id.substr(0,4)=='edge') {
      edges[i].setAttribute('class','edge');
    }
  }
}
]]></script>
        <defs>
                <circle id="rim" cx="0" cy="0" r="7"/>
                <circle id="rim2" cx="0" cy="0" r="3.5"/>
                <g id="zoomPlus">
                        <use xlink:href="#rim" fill="#404040">
                                <set attributeName="fill" to="#808080" begin="zoomplus.mouseover" end="zoomplus.mouseout"/>
                        </use>
                        <path d="M-4,0h8M0,-4v8" fill="none" stroke="white" stroke-width="1.5" pointer-events="none"/>
                </g>
                <g id="zoomMin">
                        <use xlink:href="#rim" fill="#404040">
                                <set attributeName="fill" to="#808080" begin="zoomminus.mouseover" end="zoomminus.mouseout"/>
                        </use>
                        <path d="M-4,0h8" fill="none" stroke="white" stroke-width="1.5" pointer-events="none"/>
                </g>
                <g id="dirArrow">
                        <path fill="none" stroke="white" stroke-width="1.5" d="M0,-3.0v7 M-2.5,-0.5L0,-3.0L2.5,-0.5"/>
                </g>
               <g id="resetDef">
                       <use xlink:href="#rim2" fill="#404040">
                               <set attributeName="fill" to="#808080" begin="reset.mouseover" end="reset.mouseout"/>
                       </use>
               </g>
        </defs>

<script type="text/javascript">
var viewWidth = 1153;
var viewHeight = 1149;
var sectionId = 'dynsection-2';
</script>
<script xlink:href="../../svgpan.js"/>
<svg id="graph" class="graph">
<g id="viewport">
<title>Visualization::displayCurrentRound</title>
<!-- Node1 -->
<g id="node1" class="node">
<title>Node1</title>
<g id="a_node1"><a xlink:title=" ">
<polygon fill="#bfbfbf" stroke="black" points="0,-593.06 0,-623.06 140,-623.06 140,-593.06 0,-593.06"/>
<text text-anchor="start" x="8" y="-611.06" font-family="Helvetica,sans-Serif" font-size="10.00">Visualization::displayCurrent</text>
<text text-anchor="middle" x="70" y="-600.06" font-family="Helvetica,sans-Serif" font-size="10.00">Round</text>
</a>
</g>
</g>
<!-- Node2 -->
<g id="node2" class="node">
<title>Node2</title>
<g id="a_node2"><a xlink:href="../../dc/d67/class_field.html#a3ceb497dd33f97896974a2367fedc3c4" target="_top" xlink:title=" ">
<polygon fill="none" stroke="black" points="670.5,-1092.56 670.5,-1111.56 815.5,-1111.56 815.5,-1092.56 670.5,-1092.56"/>
<text text-anchor="middle" x="743" y="-1099.56" font-family="Helvetica,sans-Serif" font-size="10.00">Field::getCurrentInfectionRate</text>
</a>
</g>
</g>
<!-- Node1&#45;&gt;Node2 -->
<g id="edge1" class="edge">
<title>Node1&#45;&gt;Node2</title>
<path fill="none" stroke="midnightblue" d="M89.42,-623.17C160.01,-680.83 420.69,-891.45 649,-1046.06 671.03,-1060.97 697.04,-1076.47 715.94,-1087.36"/>
<polygon fill="midnightblue" stroke="midnightblue" points="714.44,-1090.54 724.86,-1092.47 717.92,-1084.46 714.44,-1090.54"/>
</g>
<!-- Node3 -->
<g id="node3" class="node">
<title>Node3</title>
<g id="a_node3"><a xlink:href="../../da/d74/class_grid.html#a3618702f7872969eedc6e8817dc26776" target="_top" xlink:title=" ">
<polygon fill="none" stroke="black" points="1049,-769.56 1049,-788.56 1145,-788.56 1145,-769.56 1049,-769.56"/>
<text text-anchor="middle" x="1097" y="-776.56" font-family="Helvetica,sans-Serif" font-size="10.00">Grid::getFieldByID</text>
</a>
</g>
</g>
<!-- Node1&#45;&gt;Node3 -->
<g id="edge2" class="edge">
<title>Node1&#45;&gt;Node3</title>
<path fill="none" stroke="midnightblue" d="M71.57,-623.12C75.69,-709.7 108.24,-1140.06 348,-1140.06 348,-1140.06 348,-1140.06 744,-1140.06 868.73,-1140.06 926.87,-1150.28 1013,-1060.06 1085.02,-984.62 1094.92,-849.77 1096,-799.07"/>
<polygon fill="midnightblue" stroke="midnightblue" points="1099.51,-798.86 1096.12,-788.82 1092.51,-798.78 1099.51,-798.86"/>
</g>
<!-- Node4 -->
<g id="node4" class="node">
<title>Node4</title>
<g id="a_node4"><a xlink:href="../../da/d74/class_grid.html#ae7393bc74ab867cc3f4409c70d80351b" target="_top" xlink:title=" ">
<polygon fill="none" stroke="black" points="308,-598.56 308,-617.56 390,-617.56 390,-598.56 308,-598.56"/>
<text text-anchor="middle" x="349" y="-605.56" font-family="Helvetica,sans-Serif" font-size="10.00">Grid::getHeight</text>
</a>
</g>
</g>
<!-- Node1&#45;&gt;Node4 -->
<g id="edge3" class="edge">
<title>Node1&#45;&gt;Node4</title>
<path fill="none" stroke="midnightblue" d="M140.18,-608.06C189.14,-608.06 253.66,-608.06 297.75,-608.06"/>
<polygon fill="midnightblue" stroke="midnightblue" points="297.94,-611.56 307.94,-608.06 297.94,-604.56 297.94,-611.56"/>
</g>
<!-- Node5 -->
<g id="node5" class="node">
<title>Node5</title>
<g id="a_node5"><a xlink:href="../../da/d74/class_grid.html#a862cf2f474e31195bea649b08cfb7b46" target="_top" xlink:title=" ">
<polygon fill="none" stroke="black" points="309,-560.56 309,-579.56 389,-579.56 389,-560.56 309,-560.56"/>
<text text-anchor="middle" x="349" y="-567.56" font-family="Helvetica,sans-Serif" font-size="10.00">Grid::getWidth</text>
</a>
</g>
</g>
<!-- Node1&#45;&gt;Node5 -->
<g id="edge4" class="edge">
<title>Node1&#45;&gt;Node5</title>
<path fill="none" stroke="midnightblue" d="M140.18,-598.57C189.44,-591.81 254.45,-582.89 298.55,-576.84"/>
<polygon fill="midnightblue" stroke="midnightblue" points="299.3,-580.27 308.73,-575.44 298.35,-573.34 299.3,-580.27"/>
</g>
<!-- Node6 -->
<g id="node6" class="node">
<title>Node6</title>
<g id="a_node6"><a xlink:href="../../d9/dbf/class_window.html#a59515fc5a56e86d5a46d771595daac55" target="_top" xlink:title=" ">
<polygon fill="none" stroke="black" points="176,-522.56 176,-541.56 262,-541.56 262,-522.56 176,-522.56"/>
<text text-anchor="middle" x="219" y="-529.56" font-family="Helvetica,sans-Serif" font-size="10.00">Window::update</text>
</a>
</g>
</g>
<!-- Node1&#45;&gt;Node6 -->
<g id="edge5" class="edge">
<title>Node1&#45;&gt;Node6</title>
<path fill="none" stroke="midnightblue" d="M100.04,-593.04C126.27,-579.48 164.61,-559.66 190.39,-546.33"/>
<polygon fill="midnightblue" stroke="midnightblue" points="191.99,-549.44 199.27,-541.74 188.78,-543.22 191.99,-549.44"/>
</g>
<!-- Node6&#45;&gt;Node4 -->
<g id="edge61" class="edge">
<title>Node6&#45;&gt;Node4</title>
<path fill="none" stroke="midnightblue" d="M230.99,-541.57C245.53,-553.81 272.35,-575.14 298,-589.06 301.67,-591.05 305.6,-592.93 309.58,-594.67"/>
<polygon fill="midnightblue" stroke="midnightblue" points="308.28,-597.92 318.86,-598.49 310.94,-591.45 308.28,-597.92"/>
</g>
<!-- Node6&#45;&gt;Node5 -->
<g id="edge62" class="edge">
<title>Node6&#45;&gt;Node5</title>
<path fill="none" stroke="midnightblue" d="M252.3,-541.65C268.52,-546.46 288.38,-552.36 305.79,-557.52"/>
<polygon fill="midnightblue" stroke="midnightblue" points="305.13,-560.98 315.71,-560.47 307.12,-554.27 305.13,-560.98"/>
</g>
<!-- Node7 -->
<g id="node7" class="node">
<title>Node7</title>
<g id="a_node7"><a xlink:href="../../d9/dbf/class_window.html#a613473425472a8fa471f2cbd4926aa2e" target="_top" xlink:title=" ">
<polygon fill="none" stroke="black" points="298,-522.56 298,-541.56 400,-541.56 400,-522.56 298,-522.56"/>
<text text-anchor="middle" x="349" y="-529.56" font-family="Helvetica,sans-Serif" font-size="10.00">Window::createGrid</text>
</a>
</g>
</g>
<!-- Node6&#45;&gt;Node7 -->
<g id="edge6" class="edge">
<title>Node6&#45;&gt;Node7</title>
<path fill="none" stroke="midnightblue" d="M262.27,-532.06C270.43,-532.06 279.13,-532.06 287.74,-532.06"/>
<polygon fill="midnightblue" stroke="midnightblue" points="287.77,-535.56 297.77,-532.06 287.77,-528.56 287.77,-535.56"/>
</g>
<!-- Node11 -->
<g id="node11" class="node">
<title>Node11</title>
<g id="a_node11"><a xlink:href="../../da/d74/class_grid.html#a258fdb0fb8bc7f13cad6637d40a7f20c" target="_top" xlink:title=" ">
<polygon fill="none" stroke="black" points="683.5,-484.56 683.5,-503.56 802.5,-503.56 802.5,-484.56 683.5,-484.56"/>
<text text-anchor="middle" x="743" y="-491.56" font-family="Helvetica,sans-Serif" font-size="10.00">Grid::getDistrictByPoint</text>
</a>
</g>
</g>
<!-- Node6&#45;&gt;Node11 -->
<g id="edge59" class="edge">
<title>Node6&#45;&gt;Node11</title>
<path fill="none" stroke="midnightblue" d="M253.12,-522.47C266.89,-518.88 283.1,-515.17 298,-513.06 429.9,-494.36 585.85,-492.24 673.41,-492.84"/>
<polygon fill="midnightblue" stroke="midnightblue" points="673.46,-496.34 683.48,-492.92 673.51,-489.34 673.46,-496.34"/>
</g>
<!-- Node16 -->
<g id="node16" class="node">
<title>Node16</title>
<g id="a_node16"><a xlink:href="../../d6/d85/class_district.html#af11816ea48d5c0e7073fcef4af5d504c" target="_top" xlink:title=" ">
<polygon fill="none" stroke="black" points="689.5,-408.56 689.5,-427.56 796.5,-427.56 796.5,-408.56 689.5,-408.56"/>
<text text-anchor="middle" x="743" y="-415.56" font-family="Helvetica,sans-Serif" font-size="10.00">District::getDistrictID</text>
</a>
</g>
</g>
<!-- Node6&#45;&gt;Node16 -->
<g id="edge60" class="edge">
<title>Node6&#45;&gt;Node16</title>
<path fill="none" stroke="midnightblue" d="M238.45,-522.55C253.97,-514.92 276.94,-504.45 298,-498.06 430.83,-457.74 592.55,-434.9 679.49,-424.67"/>
<polygon fill="midnightblue" stroke="midnightblue" points="679.93,-428.14 689.46,-423.51 679.12,-421.19 679.93,-428.14"/>
</g>
<!-- Node28 -->
<g id="node28" class="node">
<title>Node28</title>
<g id="a_node28"><a xlink:href="../../d9/dbf/class_window.html#ab5efaea1f6d653d0404cb3f17b0e7e4c" target="_top" xlink:title=" ">
<polygon fill="none" stroke="black" points="689,-218.56 689,-237.56 797,-237.56 797,-218.56 689,-218.56"/>
<text text-anchor="middle" x="743" y="-225.56" font-family="Helvetica,sans-Serif" font-size="10.00">Window::showStatus</text>
</a>
</g>
</g>
<!-- Node6&#45;&gt;Node28 -->
<g id="edge63" class="edge">
<title>Node6&#45;&gt;Node28</title>
<path fill="none" stroke="midnightblue" d="M231.85,-522.39C247.09,-509.98 274.43,-487.8 298,-469.06 358.96,-420.59 369.08,-400.9 436,-361.06 527.28,-306.71 644.81,-261.97 704.14,-240.97"/>
<polygon fill="midnightblue" stroke="midnightblue" points="705.56,-244.18 713.84,-237.57 703.24,-237.58 705.56,-244.18"/>
</g>
<!-- Node8 -->
<g id="node8" class="node">
<title>Node8</title>
<g id="a_node8"><a xlink:href="../../d9/dbf/class_window.html#a3d7f68f2fe4c1e7d787353b056090ea4" target="_top" xlink:title=" ">
<polygon fill="none" stroke="black" points="436,-370.56 436,-389.56 613,-389.56 613,-370.56 436,-370.56"/>
<text text-anchor="middle" x="524.5" y="-377.56" font-family="Helvetica,sans-Serif" font-size="10.00">Window::createAcquiredDistrictsMap</text>
</a>
</g>
</g>
<!-- Node7&#45;&gt;Node8 -->
<g id="edge7" class="edge">
<title>Node7&#45;&gt;Node8</title>
<path fill="none" stroke="midnightblue" d="M358,-522.55C372.6,-505.47 404.92,-468.89 436,-442.06 456.16,-424.65 481.11,-407.33 499.21,-395.45"/>
<polygon fill="midnightblue" stroke="midnightblue" points="501.5,-398.13 507.98,-389.75 497.69,-392.26 501.5,-398.13"/>
</g>
<!-- Node14 -->
<g id="node14" class="node">
<title>Node14</title>
<g id="a_node14"><a xlink:href="../../d1/d22/class_utils_1_1_point.html#a4fd453f573c399f7195a8982268a9f55" target="_top" xlink:title=" ">
<polygon fill="none" stroke="black" points="1052.5,-693.56 1052.5,-712.56 1141.5,-712.56 1141.5,-693.56 1052.5,-693.56"/>
<text text-anchor="middle" x="1097" y="-700.56" font-family="Helvetica,sans-Serif" font-size="10.00">Utils::Point::getX</text>
</a>
</g>
</g>
<!-- Node7&#45;&gt;Node14 -->
<g id="edge57" class="edge">
<title>Node7&#45;&gt;Node14</title>
<path fill="none" stroke="midnightblue" d="M400.22,-530.97C536.31,-528.87 908.99,-528.91 1013,-589.06 1050.79,-610.91 1076.21,-657.64 1088.15,-683.98"/>
<polygon fill="midnightblue" stroke="midnightblue" points="1085,-685.51 1092.19,-693.28 1091.42,-682.72 1085,-685.51"/>
</g>
<!-- Node15 -->
<g id="node15" class="node">
<title>Node15</title>
<g id="a_node15"><a xlink:href="../../d1/d22/class_utils_1_1_point.html#a62ce3a4ededc21a4f417bf18e357fc8e" target="_top" xlink:title=" ">
<polygon fill="none" stroke="black" points="1051.5,-522.56 1051.5,-541.56 1142.5,-541.56 1142.5,-522.56 1051.5,-522.56"/>
<text text-anchor="middle" x="1097" y="-529.56" font-family="Helvetica,sans-Serif" font-size="10.00">Utils::Point::getY</text>
</a>
</g>
</g>
<!-- Node7&#45;&gt;Node15 -->
<g id="edge58" class="edge">
<title>Node7&#45;&gt;Node15</title>
<path fill="none" stroke="midnightblue" d="M352.49,-522.24C367.65,-464.8 453.5,-171.44 649,-70.06 792.62,4.42 888.97,37.83 1013,-66.06 1082.8,-124.52 1093.95,-430.95 1095.69,-512.24"/>
<polygon fill="midnightblue" stroke="midnightblue" points="1092.19,-512.62 1095.88,-522.55 1099.19,-512.48 1092.19,-512.62"/>
</g>
<!-- Node18 -->
<g id="node18" class="node">
<title>Node18</title>
<g id="a_node18"><a xlink:href="../../d9/dbf/class_window.html#a3cf04a74c49b1871b64436ef60fedc87" target="_top" xlink:title=" ">
<polygon fill="none" stroke="black" points="459,-703.56 459,-722.56 590,-722.56 590,-703.56 459,-703.56"/>
<text text-anchor="middle" x="524.5" y="-710.56" font-family="Helvetica,sans-Serif" font-size="10.00">Window::createDistrictCell</text>
</a>
</g>
</g>
<!-- Node7&#45;&gt;Node18 -->
<g id="edge21" class="edge">
<title>Node7&#45;&gt;Node18</title>
<path fill="none" stroke="midnightblue" d="M383.51,-541.56C389.34,-544.09 395.1,-547.22 400,-551.06 422.13,-568.38 419.24,-580.49 436,-603.06 460.81,-636.46 491.38,-674.17 509.04,-695.62"/>
<polygon fill="midnightblue" stroke="midnightblue" points="506.49,-698.03 515.56,-703.51 511.89,-693.57 506.49,-698.03"/>
</g>
<!-- Node22 -->
<g id="node22" class="node">
<title>Node22</title>
<g id="a_node22"><a xlink:href="../../d9/dbf/class_window.html#a64c006506fe02aaabd214abef651d87d" target="_top" xlink:title=" ">
<polygon fill="none" stroke="black" points="445,-807.56 445,-826.56 604,-826.56 604,-807.56 445,-807.56"/>
<text text-anchor="middle" x="524.5" y="-814.56" font-family="Helvetica,sans-Serif" font-size="10.00">Window::createInfectionHeatMap</text>
</a>
</g>
</g>
<!-- Node7&#45;&gt;Node22 -->
<g id="edge37" class="edge">
<title>Node7&#45;&gt;Node22</title>
<path fill="none" stroke="midnightblue" d="M388.37,-541.6C392.8,-544.06 396.85,-547.16 400,-551.06 465.93,-632.5 369.97,-702.69 436,-784.06 442.89,-792.55 452.22,-798.86 462.22,-803.54"/>
<polygon fill="midnightblue" stroke="midnightblue" points="460.96,-806.81 471.54,-807.41 463.64,-800.35 460.96,-806.81"/>
</g>
<!-- Node23 -->
<g id="node23" class="node">
<title>Node23</title>
<g id="a_node23"><a xlink:href="../../d9/dbf/class_window.html#a559be400478ab10fd0c147c3e88710be" target="_top" xlink:title=" ">
<polygon fill="none" stroke="black" points="649,-446.56 649,-465.56 837,-465.56 837,-446.56 649,-446.56"/>
<text text-anchor="middle" x="743" y="-453.56" font-family="Helvetica,sans-Serif" font-size="10.00">Window::createMinimalVaccinationMap</text>
</a>
</g>
</g>
<!-- Node7&#45;&gt;Node23 -->
<g id="edge42" class="edge">
<title>Node7&#45;&gt;Node23</title>
<path fill="none" stroke="midnightblue" d="M399.25,-522.51C471.38,-508.52 605.54,-482.51 682.89,-467.52"/>
<polygon fill="midnightblue" stroke="midnightblue" points="683.8,-470.91 692.95,-465.57 682.47,-464.03 683.8,-470.91"/>
</g>
<!-- Node24 -->
<g id="node24" class="node">
<title>Node24</title>
<g id="a_node24"><a xlink:href="../../d9/dbf/class_window.html#ad7e1d8bae4995cbd51eff71c283e6945" target="_top" xlink:title=" ">
<polygon fill="none" stroke="black" points="668.5,-845.56 668.5,-864.56 817.5,-864.56 817.5,-845.56 668.5,-845.56"/>
<text text-anchor="middle" x="743" y="-852.56" font-family="Helvetica,sans-Serif" font-size="10.00">Window::createPopulationMap</text>
</a>
</g>
</g>
<!-- Node7&#45;&gt;Node24 -->
<g id="edge47" class="edge">
<title>Node7&#45;&gt;Node24</title>
<path fill="none" stroke="midnightblue" d="M388.22,-541.73C392.67,-544.17 396.76,-547.23 400,-551.06 452.96,-613.68 382.84,-669.6 436,-732.06 490.41,-795.99 535.24,-766.41 613,-798.06 647.19,-811.97 685.84,-829.26 711.85,-841.13"/>
<polygon fill="midnightblue" stroke="midnightblue" points="710.61,-844.41 721.16,-845.39 713.52,-838.05 710.61,-844.41"/>
</g>
<!-- Node26 -->
<g id="node26" class="node">
<title>Node26</title>
<g id="a_node26"><a xlink:href="../../d9/dbf/class_window.html#a27b72cfc7953f398cace9362daa9d4ca" target="_top" xlink:title=" ">
<polygon fill="none" stroke="black" points="666,-598.56 666,-617.56 820,-617.56 820,-598.56 666,-598.56"/>
<text text-anchor="middle" x="743" y="-605.56" font-family="Helvetica,sans-Serif" font-size="10.00">Window::createVaccinationMap</text>
</a>
</g>
</g>
<!-- Node7&#45;&gt;Node26 -->
<g id="edge52" class="edge">
<title>Node7&#45;&gt;Node26</title>
<path fill="none" stroke="midnightblue" d="M399.25,-541.61C471.38,-555.59 605.54,-581.6 682.89,-596.6"/>
<polygon fill="midnightblue" stroke="midnightblue" points="682.47,-600.08 692.95,-598.55 683.8,-593.21 682.47,-600.08"/>
</g>
<!-- Node9 -->
<g id="node9" class="node">
<title>Node9</title>
<g id="a_node9"><a xlink:href="../../d3/d56/class_country.html#ae4cb1ce84aaf89445110978833606882" target="_top" xlink:title=" ">
<polygon fill="none" stroke="black" points="670,-332.56 670,-351.56 816,-351.56 816,-332.56 670,-332.56"/>
<text text-anchor="middle" x="743" y="-339.56" font-family="Helvetica,sans-Serif" font-size="10.00">Country::getAssignedDistricts</text>
</a>
</g>
</g>
<!-- Node8&#45;&gt;Node9 -->
<g id="edge8" class="edge">
<title>Node8&#45;&gt;Node9</title>
<path fill="none" stroke="midnightblue" d="M579.85,-370.52C609.58,-365.3 646.58,-358.8 677.73,-353.34"/>
<polygon fill="midnightblue" stroke="midnightblue" points="678.38,-356.78 687.62,-351.6 677.17,-349.88 678.38,-356.78"/>
</g>
<!-- Node10 -->
<g id="node10" class="node">
<title>Node10</title>
<g id="a_node10"><a xlink:href="../../da/d74/class_grid.html#a122b323349de05dbe68517d602cb2221" target="_top" xlink:title=" ">
<polygon fill="none" stroke="black" points="888.5,-104.56 888.5,-123.56 997.5,-123.56 997.5,-104.56 888.5,-104.56"/>
<text text-anchor="middle" x="943" y="-111.56" font-family="Helvetica,sans-Serif" font-size="10.00">Grid::getCountryByID</text>
</a>
</g>
</g>
<!-- Node8&#45;&gt;Node10 -->
<g id="edge9" class="edge">
<title>Node8&#45;&gt;Node10</title>
<path fill="none" stroke="midnightblue" d="M529.85,-370.32C543.25,-341.36 586.85,-254.97 649,-209.06 717.76,-158.27 814.89,-133.87 878.15,-122.7"/>
<polygon fill="midnightblue" stroke="midnightblue" points="879.12,-126.09 888.39,-120.96 877.94,-119.19 879.12,-126.09"/>
</g>
<!-- Node8&#45;&gt;Node11 -->
<g id="edge10" class="edge">
<title>Node8&#45;&gt;Node11</title>
<path fill="none" stroke="midnightblue" d="M534.73,-389.64C554,-409.04 600.78,-453.02 649,-475.06 656.65,-478.55 664.94,-481.41 673.32,-483.74"/>
<polygon fill="midnightblue" stroke="midnightblue" points="672.61,-487.17 683.17,-486.25 674.34,-480.39 672.61,-487.17"/>
</g>
<!-- Node13 -->
<g id="node13" class="node">
<title>Node13</title>
<g id="a_node13"><a xlink:href="../../da/d74/class_grid.html#aff3d5bc3ea4e8da08e0a78d7f73f0084" target="_top" xlink:title=" ">
<polygon fill="none" stroke="black" points="888,-750.56 888,-769.56 998,-769.56 998,-750.56 888,-750.56"/>
<text text-anchor="middle" x="943" y="-757.56" font-family="Helvetica,sans-Serif" font-size="10.00">Grid::getFieldByPoint</text>
</a>
</g>
</g>
<!-- Node8&#45;&gt;Node13 -->
<g id="edge17" class="edge">
<title>Node8&#45;&gt;Node13</title>
<path fill="none" stroke="midnightblue" d="M527.99,-389.87C537.58,-425.92 575.36,-552.89 649,-627.06 715.97,-694.51 823.35,-731.05 887.84,-747.97"/>
<polygon fill="midnightblue" stroke="midnightblue" points="887.25,-751.44 897.81,-750.52 888.99,-744.65 887.25,-751.44"/>
</g>
<!-- Node8&#45;&gt;Node14 -->
<g id="edge18" class="edge">
<title>Node8&#45;&gt;Node14</title>
<path fill="none" stroke="midnightblue" d="M613.2,-374.46C737.04,-368.5 954.62,-365.75 1013,-415.06 1060.77,-455.4 1031.76,-490.95 1049,-551.06 1062.78,-599.09 1080.55,-655.13 1089.79,-683.88"/>
<polygon fill="midnightblue" stroke="midnightblue" points="1086.49,-685.05 1092.89,-693.49 1093.15,-682.9 1086.49,-685.05"/>
</g>
<!-- Node8&#45;&gt;Node15 -->
<g id="edge19" class="edge">
<title>Node8&#45;&gt;Node15</title>
<path fill="none" stroke="midnightblue" d="M526.94,-370.47C533.21,-332.35 561.87,-190.49 649,-127.06 714.65,-79.26 950.45,-43.27 1013,-95.06 1078.49,-149.28 1092.73,-433.54 1095.43,-511.99"/>
<polygon fill="midnightblue" stroke="midnightblue" points="1091.94,-512.5 1095.76,-522.38 1098.94,-512.28 1091.94,-512.5"/>
</g>
<!-- Node8&#45;&gt;Node16 -->
<g id="edge16" class="edge">
<title>Node8&#45;&gt;Node16</title>
<path fill="none" stroke="midnightblue" d="M579.85,-389.6C610.14,-394.91 647.99,-401.56 679.5,-407.09"/>
<polygon fill="midnightblue" stroke="midnightblue" points="679.04,-410.56 689.49,-408.84 680.25,-403.67 679.04,-410.56"/>
</g>
<!-- Node17 -->
<g id="node17" class="node">
<title>Node17</title>
<g id="a_node17"><a xlink:href="../../dc/d67/class_field.html#ac9823a5988356e6d2f6aa8cf232c16c5" target="_top" xlink:title=" ">
<polygon fill="none" stroke="black" points="873,-294.56 873,-313.56 1013,-313.56 1013,-294.56 873,-294.56"/>
<text text-anchor="middle" x="943" y="-301.56" font-family="Helvetica,sans-Serif" font-size="10.00">Field::vaccinesToPutMinimal</text>
</a>
</g>
</g>
<!-- Node8&#45;&gt;Node17 -->
<g id="edge20" class="edge">
<title>Node8&#45;&gt;Node17</title>
<path fill="none" stroke="midnightblue" d="M541.18,-370.51C563.97,-357.18 608.03,-333.46 649,-323.06 719.76,-305.1 803.05,-301.28 862.7,-301.41"/>
<polygon fill="midnightblue" stroke="midnightblue" points="862.79,-304.91 872.81,-301.47 862.83,-297.91 862.79,-304.91"/>
</g>
<!-- Node12 -->
<g id="node12" class="node">
<title>Node12</title>
<g id="a_node12"><a xlink:href="../../da/d74/class_grid.html#af60e6e64cac90b7d38132dc6560b2052" target="_top" xlink:title=" ">
<polygon fill="none" stroke="black" points="890,-446.56 890,-465.56 996,-465.56 996,-446.56 890,-446.56"/>
<text text-anchor="middle" x="943" y="-453.56" font-family="Helvetica,sans-Serif" font-size="10.00">Grid::getDistrictByID</text>
</a>
</g>
</g>
<!-- Node11&#45;&gt;Node12 -->
<g id="edge11" class="edge">
<title>Node11&#45;&gt;Node12</title>
<path fill="none" stroke="midnightblue" d="M793.71,-484.52C820.54,-479.37 853.86,-472.97 882.11,-467.55"/>
<polygon fill="midnightblue" stroke="midnightblue" points="883.11,-470.92 892.27,-465.6 881.79,-464.05 883.11,-470.92"/>
</g>
<!-- Node11&#45;&gt;Node13 -->
<g id="edge12" class="edge">
<title>Node11&#45;&gt;Node13</title>
<path fill="none" stroke="midnightblue" d="M757.4,-503.8C777.85,-519.41 816.61,-552.06 837,-589.06 870.51,-649.86 824.8,-691.09 873,-741.06 874.85,-742.97 876.87,-744.7 879.03,-746.26"/>
<polygon fill="midnightblue" stroke="midnightblue" points="877.51,-749.43 887.91,-751.47 881.05,-743.39 877.51,-749.43"/>
</g>
<!-- Node13&#45;&gt;Node3 -->
<g id="edge13" class="edge">
<title>Node13&#45;&gt;Node3</title>
<path fill="none" stroke="midnightblue" d="M998.02,-766.81C1011.21,-768.46 1025.37,-770.23 1038.71,-771.9"/>
<polygon fill="midnightblue" stroke="midnightblue" points="1038.36,-775.38 1048.72,-773.15 1039.23,-768.43 1038.36,-775.38"/>
</g>
<!-- Node13&#45;&gt;Node14 -->
<g id="edge14" class="edge">
<title>Node13&#45;&gt;Node14</title>
<path fill="none" stroke="midnightblue" d="M983.03,-750.49C992.91,-747.74 1003.43,-744.54 1013,-741.06 1031.75,-734.23 1052.12,-724.93 1068,-717.24"/>
<polygon fill="midnightblue" stroke="midnightblue" points="1069.81,-720.25 1077.24,-712.7 1066.72,-713.97 1069.81,-720.25"/>
</g>
<!-- Node13&#45;&gt;Node15 -->
<g id="edge15" class="edge">
<title>Node13&#45;&gt;Node15</title>
<path fill="none" stroke="midnightblue" d="M998.18,-750.54C1003.57,-748.06 1008.65,-744.95 1013,-741.06 1042.61,-714.52 1077.64,-597.92 1090.73,-551.36"/>
<polygon fill="midnightblue" stroke="midnightblue" points="1094.13,-552.17 1093.43,-541.59 1087.39,-550.29 1094.13,-552.17"/>
</g>
<!-- Node18&#45;&gt;Node2 -->
<g id="edge31" class="edge">
<title>Node18&#45;&gt;Node2</title>
<path fill="none" stroke="midnightblue" d="M540.13,-722.58C560.22,-736.52 595.8,-764.51 613,-798.06 662.61,-894.82 590.76,-948.23 649,-1040.06 662.88,-1061.94 687.59,-1077.87 708.05,-1088.09"/>
<polygon fill="midnightblue" stroke="midnightblue" points="706.56,-1091.26 717.1,-1092.39 709.57,-1084.94 706.56,-1091.26"/>
</g>
<!-- Node18&#45;&gt;Node11 -->
<g id="edge32" class="edge">
<title>Node18&#45;&gt;Node11</title>
<path fill="none" stroke="midnightblue" d="M531.55,-703.36C548.07,-677.36 596.29,-604.79 649,-556.06 669.3,-537.29 695.8,-520.22 715.32,-508.76"/>
<polygon fill="midnightblue" stroke="midnightblue" points="717.09,-511.77 724.01,-503.75 713.6,-505.71 717.09,-511.77"/>
</g>
<!-- Node18&#45;&gt;Node13 -->
<g id="edge34" class="edge">
<title>Node18&#45;&gt;Node13</title>
<path fill="none" stroke="midnightblue" d="M546.83,-722.59C571.03,-732.86 611.96,-748.61 649,-755.06 726.82,-768.61 818.03,-767.56 877.75,-764.64"/>
<polygon fill="midnightblue" stroke="midnightblue" points="877.99,-768.13 887.79,-764.12 877.62,-761.14 877.99,-768.13"/>
</g>
<!-- Node18&#45;&gt;Node14 -->
<g id="edge35" class="edge">
<title>Node18&#45;&gt;Node14</title>
<path fill="none" stroke="midnightblue" d="M539.81,-722.75C559.52,-736.89 594.66,-765.12 613,-798.06 649.3,-863.26 595.76,-909.76 649,-962.06 707.14,-1019.17 951.35,-1060.37 1013,-1007.06 1054.96,-970.77 1026.53,-810.77 1049,-760.06 1055.71,-744.92 1067.6,-730.55 1077.75,-720.03"/>
<polygon fill="midnightblue" stroke="midnightblue" points="1080.42,-722.31 1085.05,-712.78 1075.48,-717.35 1080.42,-722.31"/>
</g>
<!-- Node18&#45;&gt;Node15 -->
<g id="edge36" class="edge">
<title>Node18&#45;&gt;Node15</title>
<path fill="none" stroke="midnightblue" d="M531.94,-703.39C548.34,-679.62 594.27,-618.15 649,-589.06 776.75,-521.16 953.19,-521.61 1041.31,-527.1"/>
<polygon fill="midnightblue" stroke="midnightblue" points="1041.14,-530.59 1051.35,-527.77 1041.61,-523.61 1041.14,-530.59"/>
</g>
<!-- Node18&#45;&gt;Node16 -->
<g id="edge33" class="edge">
<title>Node18&#45;&gt;Node16</title>
<path fill="none" stroke="midnightblue" d="M526.68,-703.33C532.09,-663.28 558.28,-509.79 649,-437.06 657.66,-430.11 668.21,-425.51 679.04,-422.49"/>
<polygon fill="midnightblue" stroke="midnightblue" points="680.1,-425.84 689.03,-420.15 678.5,-419.02 680.1,-425.84"/>
</g>
<!-- Node19 -->
<g id="node19" class="node">
<title>Node19</title>
<g id="a_node19"><a xlink:href="../../d9/dbf/class_window.html#aa1dba04db317de569def71239cf37dcb" target="_top" xlink:title=" ">
<polygon fill="none" stroke="black" points="891,-712.56 891,-731.56 995,-731.56 995,-712.56 891,-712.56"/>
<text text-anchor="middle" x="943" y="-719.56" font-family="Helvetica,sans-Serif" font-size="10.00">Window::createRect</text>
</a>
</g>
</g>
<!-- Node18&#45;&gt;Node19 -->
<g id="edge22" class="edge">
<title>Node18&#45;&gt;Node19</title>
<path fill="none" stroke="midnightblue" d="M590.12,-714.45C669.39,-716.17 802.79,-719.05 880.57,-720.73"/>
<polygon fill="midnightblue" stroke="midnightblue" points="880.63,-724.23 890.7,-720.95 880.78,-717.23 880.63,-724.23"/>
</g>
<!-- Node20 -->
<g id="node20" class="node">
<title>Node20</title>
<g id="a_node20"><a xlink:href="../../d9/dbf/class_window.html#ac2cf80c0ebb9c8fa2217776be9c394d7" target="_top" xlink:title=" ">
<polygon fill="none" stroke="black" points="691.5,-883.56 691.5,-902.56 794.5,-902.56 794.5,-883.56 691.5,-883.56"/>
<text text-anchor="middle" x="743" y="-890.56" font-family="Helvetica,sans-Serif" font-size="10.00">Window::createText</text>
</a>
</g>
</g>
<!-- Node18&#45;&gt;Node20 -->
<g id="edge25" class="edge">
<title>Node18&#45;&gt;Node20</title>
<path fill="none" stroke="midnightblue" d="M537.89,-722.64C556.19,-737.3 590.69,-766.88 613,-798.06 634.75,-828.45 619.59,-850.99 649,-874.06 658.23,-881.29 669.51,-885.97 680.99,-888.96"/>
<polygon fill="midnightblue" stroke="midnightblue" points="680.57,-892.45 691.09,-891.17 682.07,-885.61 680.57,-892.45"/>
</g>
<!-- Node21 -->
<g id="node21" class="node">
<title>Node21</title>
<g id="a_node21"><a xlink:href="../../dc/d67/class_field.html#a79869bd37f491e83beab556eaa3e50c0" target="_top" xlink:title=" ">
<polygon fill="none" stroke="black" points="874.5,-978.56 874.5,-997.56 1011.5,-997.56 1011.5,-978.56 874.5,-978.56"/>
<text text-anchor="middle" x="943" y="-985.56" font-family="Helvetica,sans-Serif" font-size="10.00">Field::getAssignedDistrictID</text>
</a>
</g>
</g>
<!-- Node18&#45;&gt;Node21 -->
<g id="edge30" class="edge">
<title>Node18&#45;&gt;Node21</title>
<path fill="none" stroke="midnightblue" d="M539.08,-722.74C558.24,-737.09 593.09,-765.8 613,-798.06 640.9,-843.27 610.46,-875.48 649,-912.06 706.71,-966.83 798.64,-983.4 864.13,-987.8"/>
<polygon fill="midnightblue" stroke="midnightblue" points="864.21,-991.31 874.4,-988.4 864.63,-984.32 864.21,-991.31"/>
</g>
<!-- Node19&#45;&gt;Node14 -->
<g id="edge23" class="edge">
<title>Node19&#45;&gt;Node14</title>
<path fill="none" stroke="midnightblue" d="M995.04,-715.68C1010.17,-713.79 1026.79,-711.71 1042.11,-709.79"/>
<polygon fill="midnightblue" stroke="midnightblue" points="1042.97,-713.21 1052.46,-708.5 1042.11,-706.27 1042.97,-713.21"/>
</g>
<!-- Node19&#45;&gt;Node15 -->
<g id="edge24" class="edge">
<title>Node19&#45;&gt;Node15</title>
<path fill="none" stroke="midnightblue" d="M987.99,-712.45C996.97,-709 1005.85,-704.34 1013,-698.06 1058.86,-657.75 1082.31,-586.16 1091.39,-551.69"/>
<polygon fill="midnightblue" stroke="midnightblue" points="1094.81,-552.43 1093.85,-541.88 1088.02,-550.73 1094.81,-552.43"/>
</g>
<!-- Node20&#45;&gt;Node13 -->
<g id="edge27" class="edge">
<title>Node20&#45;&gt;Node13</title>
<path fill="none" stroke="midnightblue" d="M794.72,-890.17C809.34,-887.44 824.66,-882.58 837,-874.06 861.65,-857.03 853.2,-839.55 873,-817.06 886.86,-801.31 905.29,-786.33 919.61,-775.67"/>
<polygon fill="midnightblue" stroke="midnightblue" points="921.89,-778.34 927.92,-769.63 917.78,-772.68 921.89,-778.34"/>
</g>
<!-- Node20&#45;&gt;Node14 -->
<g id="edge28" class="edge">
<title>Node20&#45;&gt;Node14</title>
<path fill="none" stroke="midnightblue" d="M780.73,-902.61C837.15,-914.94 945.69,-929 1013,-876.06 1055.43,-842.68 1023.35,-807.55 1049,-760.06 1056.97,-745.31 1069.05,-730.76 1078.97,-720.06"/>
<polygon fill="midnightblue" stroke="midnightblue" points="1081.64,-722.32 1086.03,-712.68 1076.58,-717.49 1081.64,-722.32"/>
</g>
<!-- Node20&#45;&gt;Node15 -->
<g id="edge29" class="edge">
<title>Node20&#45;&gt;Node15</title>
<path fill="none" stroke="midnightblue" d="M794.51,-889.04C867.98,-882.74 997.32,-869.71 1013,-855.06 1069.73,-802.01 1029.51,-759.24 1049,-684.06 1061.54,-635.69 1079.83,-579.78 1089.48,-551.14"/>
<polygon fill="midnightblue" stroke="midnightblue" points="1092.82,-552.17 1092.72,-541.57 1086.19,-549.92 1092.82,-552.17"/>
</g>
<!-- Node20&#45;&gt;Node21 -->
<g id="edge26" class="edge">
<title>Node20&#45;&gt;Node21</title>
<path fill="none" stroke="midnightblue" d="M759.45,-902.68C783.23,-917.23 830.5,-945.13 873,-964.06 882.03,-968.08 891.96,-971.87 901.4,-975.21"/>
<polygon fill="midnightblue" stroke="midnightblue" points="900.4,-978.57 911,-978.51 902.68,-971.95 900.4,-978.57"/>
</g>
<!-- Node22&#45;&gt;Node2 -->
<g id="edge38" class="edge">
<title>Node22&#45;&gt;Node2</title>
<path fill="none" stroke="midnightblue" d="M532.26,-826.61C548.17,-849.44 588.46,-909.31 613,-964.06 634.73,-1012.54 610.44,-1041.5 649,-1078.06 653.08,-1081.93 657.71,-1085.2 662.66,-1087.95"/>
<polygon fill="midnightblue" stroke="midnightblue" points="661.34,-1091.21 671.87,-1092.38 664.38,-1084.9 661.34,-1091.21"/>
</g>
<!-- Node22&#45;&gt;Node13 -->
<g id="edge39" class="edge">
<title>Node22&#45;&gt;Node13</title>
<path fill="none" stroke="midnightblue" d="M595.21,-807.52C674.11,-796.72 801.57,-779.28 878.02,-768.81"/>
<polygon fill="midnightblue" stroke="midnightblue" points="878.56,-772.27 888,-767.45 877.61,-765.34 878.56,-772.27"/>
</g>
<!-- Node22&#45;&gt;Node14 -->
<g id="edge40" class="edge">
<title>Node22&#45;&gt;Node14</title>
<path fill="none" stroke="midnightblue" d="M531.04,-826.65C552.6,-863.79 630.53,-996.63 649,-1008.06 717.95,-1050.71 952.04,-1086.51 1013,-1033.06 1059.01,-992.72 1024.59,-816.17 1049,-760.06 1055.6,-744.87 1067.5,-730.51 1077.67,-720"/>
<polygon fill="midnightblue" stroke="midnightblue" points="1080.34,-722.28 1085,-712.76 1075.42,-717.3 1080.34,-722.28"/>
</g>
<!-- Node22&#45;&gt;Node15 -->
<g id="edge41" class="edge">
<title>Node22&#45;&gt;Node15</title>
<path fill="none" stroke="midnightblue" d="M551.16,-807.44C648.79,-770.82 992.6,-641.38 1013,-627.06 1043.29,-605.79 1069.76,-571.2 1084.25,-550.15"/>
<polygon fill="midnightblue" stroke="midnightblue" points="1087.2,-552.03 1089.87,-541.78 1081.39,-548.13 1087.2,-552.03"/>
</g>
<!-- Node23&#45;&gt;Node13 -->
<g id="edge43" class="edge">
<title>Node23&#45;&gt;Node13</title>
<path fill="none" stroke="midnightblue" d="M825.15,-465.64C829.5,-468.22 833.51,-471.33 837,-475.06 918.48,-562.19 794.49,-651.23 873,-741.06 874.79,-743.1 876.78,-744.94 878.91,-746.58"/>
<polygon fill="midnightblue" stroke="midnightblue" points="877.45,-749.8 887.81,-752.03 881.11,-743.83 877.45,-749.8"/>
</g>
<!-- Node23&#45;&gt;Node14 -->
<g id="edge44" class="edge">
<title>Node23&#45;&gt;Node14</title>
<path fill="none" stroke="midnightblue" d="M796.53,-446.54C819.86,-442.78 847.71,-438.91 873,-437.06 935.06,-432.51 962.88,-400.19 1013,-437.06 1013.65,-437.54 1071.04,-622.52 1090,-683.68"/>
<polygon fill="midnightblue" stroke="midnightblue" points="1086.67,-684.78 1092.98,-693.29 1093.36,-682.71 1086.67,-684.78"/>
</g>
<!-- Node23&#45;&gt;Node15 -->
<g id="edge45" class="edge">
<title>Node23&#45;&gt;Node15</title>
<path fill="none" stroke="midnightblue" d="M812.51,-446.51C821,-444.05 829.37,-440.95 837,-437.06 856.33,-427.19 852.77,-411.93 873,-404.06 930.99,-381.5 958.33,-374.35 1013,-404.06 1055.7,-427.26 1079.82,-482.95 1090.07,-512.64"/>
<polygon fill="midnightblue" stroke="midnightblue" points="1086.79,-513.88 1093.22,-522.3 1093.45,-511.7 1086.79,-513.88"/>
</g>
<!-- Node23&#45;&gt;Node17 -->
<g id="edge46" class="edge">
<title>Node23&#45;&gt;Node17</title>
<path fill="none" stroke="midnightblue" d="M823.07,-446.37C828.1,-443.85 832.81,-440.78 837,-437.06 875.13,-403.16 837.21,-364.42 873,-328.06 876.89,-324.1 881.47,-320.8 886.38,-318.04"/>
<polygon fill="midnightblue" stroke="midnightblue" points="888.03,-321.13 895.52,-313.64 884.99,-314.82 888.03,-321.13"/>
</g>
<!-- Node24&#45;&gt;Node13 -->
<g id="edge48" class="edge">
<title>Node24&#45;&gt;Node13</title>
<path fill="none" stroke="midnightblue" d="M805.02,-845.52C816.23,-842.08 827.41,-837.41 837,-831.06 858.94,-816.53 851.68,-799.47 873,-784.06 878.87,-779.82 885.54,-776.27 892.38,-773.33"/>
<polygon fill="midnightblue" stroke="midnightblue" points="893.7,-776.57 901.74,-769.67 891.16,-770.05 893.7,-776.57"/>
</g>
<!-- Node24&#45;&gt;Node14 -->
<g id="edge50" class="edge">
<title>Node24&#45;&gt;Node14</title>
<path fill="none" stroke="midnightblue" d="M817.76,-864.18C886.38,-871.06 982.5,-876.12 1013,-855.06 1050.16,-829.4 1026.33,-799.11 1049,-760.06 1057.41,-745.56 1069.49,-731.01 1079.29,-720.24"/>
<polygon fill="midnightblue" stroke="midnightblue" points="1081.97,-722.5 1086.24,-712.8 1076.86,-717.71 1081.97,-722.5"/>
</g>
<!-- Node24&#45;&gt;Node15 -->
<g id="edge51" class="edge">
<title>Node24&#45;&gt;Node15</title>
<path fill="none" stroke="midnightblue" d="M775.75,-845.5C801.83,-837.7 839.75,-826.47 873,-817.06 935.04,-799.5 966.08,-823.28 1013,-779.06 1021.68,-770.88 1072.41,-608.48 1090,-551.56"/>
<polygon fill="midnightblue" stroke="midnightblue" points="1093.45,-552.25 1093.05,-541.66 1086.76,-550.19 1093.45,-552.25"/>
</g>
<!-- Node25 -->
<g id="node25" class="node">
<title>Node25</title>
<g id="a_node25"><a xlink:href="../../dc/d67/class_field.html#a17faeb6e0835c0ec6446c5f6b291d806" target="_top" xlink:title=" ">
<polygon fill="none" stroke="black" points="875,-826.56 875,-845.56 1011,-845.56 1011,-826.56 875,-826.56"/>
<text text-anchor="middle" x="943" y="-833.56" font-family="Helvetica,sans-Serif" font-size="10.00">Field::getPopulationDensity</text>
</a>
</g>
</g>
<!-- Node24&#45;&gt;Node25 -->
<g id="edge49" class="edge">
<title>Node24&#45;&gt;Node25</title>
<path fill="none" stroke="midnightblue" d="M817.73,-847.98C833.06,-846.51 849.26,-844.96 864.72,-843.47"/>
<polygon fill="midnightblue" stroke="midnightblue" points="865.13,-846.95 874.75,-842.51 864.46,-839.98 865.13,-846.95"/>
</g>
<!-- Node26&#45;&gt;Node13 -->
<g id="edge53" class="edge">
<title>Node26&#45;&gt;Node13</title>
<path fill="none" stroke="midnightblue" d="M750.56,-617.79C767.67,-642.38 816.26,-707.45 873,-741.06 876.67,-743.23 880.59,-745.16 884.64,-746.88"/>
<polygon fill="midnightblue" stroke="midnightblue" points="883.65,-750.24 894.24,-750.5 886.12,-743.69 883.65,-750.24"/>
</g>
<!-- Node26&#45;&gt;Node14 -->
<g id="edge55" class="edge">
<title>Node26&#45;&gt;Node14</title>
<path fill="none" stroke="midnightblue" d="M779.36,-617.6C843.67,-634.96 979.66,-671.66 1050.67,-690.82"/>
<polygon fill="midnightblue" stroke="midnightblue" points="1050.09,-694.29 1060.66,-693.52 1051.92,-687.53 1050.09,-694.29"/>
</g>
<!-- Node26&#45;&gt;Node15 -->
<g id="edge56" class="edge">
<title>Node26&#45;&gt;Node15</title>
<path fill="none" stroke="midnightblue" d="M788.22,-598.51C852.73,-584.58 972.48,-558.73 1042.07,-543.7"/>
<polygon fill="midnightblue" stroke="midnightblue" points="1042.92,-547.1 1051.96,-541.57 1041.44,-540.26 1042.92,-547.1"/>
</g>
<!-- Node27 -->
<g id="node27" class="node">
<title>Node27</title>
<g id="a_node27"><a xlink:href="../../dc/d67/class_field.html#a35aeab02328c4fdc387534a7a8f61bb3" target="_top" xlink:title=" ">
<polygon fill="none" stroke="black" points="880,-598.56 880,-617.56 1006,-617.56 1006,-598.56 880,-598.56"/>
<text text-anchor="middle" x="943" y="-605.56" font-family="Helvetica,sans-Serif" font-size="10.00">Field::getStoredVaccines</text>
</a>
</g>
</g>
<!-- Node26&#45;&gt;Node27 -->
<g id="edge54" class="edge">
<title>Node26&#45;&gt;Node27</title>
<path fill="none" stroke="midnightblue" d="M820.27,-608.06C836.44,-608.06 853.47,-608.06 869.5,-608.06"/>
<polygon fill="midnightblue" stroke="midnightblue" points="869.88,-611.56 879.88,-608.06 869.88,-604.56 869.88,-611.56"/>
</g>
<!-- Node28&#45;&gt;Node10 -->
<g id="edge64" class="edge">
<title>Node28&#45;&gt;Node10</title>
<path fill="none" stroke="midnightblue" d="M759.98,-218.45C778.93,-206.83 811.19,-186.29 837,-166.06 854.08,-152.66 854.01,-143.56 873,-133.06 877.13,-130.77 881.56,-128.75 886.1,-126.95"/>
<polygon fill="midnightblue" stroke="midnightblue" points="887.28,-130.25 895.52,-123.59 884.93,-123.65 887.28,-130.25"/>
</g>
<!-- Node28&#45;&gt;Node13 -->
<g id="edge66" class="edge">
<title>Node28&#45;&gt;Node13</title>
<path fill="none" stroke="midnightblue" d="M758.43,-237.71C779.86,-252.97 819.48,-284.88 837,-323.06 875.89,-407.79 813.37,-669.39 873,-741.06 874.9,-743.34 877.05,-745.36 879.38,-747.15"/>
<polygon fill="midnightblue" stroke="midnightblue" points="877.57,-750.15 887.92,-752.39 881.22,-744.18 877.57,-750.15"/>
</g>
<!-- Node28&#45;&gt;Node14 -->
<g id="edge67" class="edge">
<title>Node28&#45;&gt;Node14</title>
<path fill="none" stroke="midnightblue" d="M797.18,-235.98C871.33,-247.53 998.38,-269.31 1013,-285.06 1053.58,-328.77 1036.15,-492.81 1049,-551.06 1059.71,-599.61 1078.6,-655.03 1088.87,-683.66"/>
<polygon fill="midnightblue" stroke="midnightblue" points="1085.64,-685.04 1092.34,-693.25 1092.22,-682.66 1085.64,-685.04"/>
</g>
<!-- Node28&#45;&gt;Node15 -->
<g id="edge68" class="edge">
<title>Node28&#45;&gt;Node15</title>
<path fill="none" stroke="midnightblue" d="M764.16,-218.46C812.76,-196.89 937.9,-150.81 1013,-209.06 1062.1,-247.13 1087.21,-448.37 1094.04,-512.45"/>
<polygon fill="midnightblue" stroke="midnightblue" points="1090.57,-512.85 1095.08,-522.44 1097.53,-512.13 1090.57,-512.85"/>
</g>
<!-- Node29 -->
<g id="node29" class="node">
<title>Node29</title>
<g id="a_node29"><a xlink:href="../../da/d74/class_grid.html#a53693945f3d1ec88325b6a7c45053b7d" target="_top" xlink:title=" ">
<polygon fill="none" stroke="black" points="891,-142.56 891,-161.56 995,-161.56 995,-142.56 891,-142.56"/>
<text text-anchor="middle" x="943" y="-149.56" font-family="Helvetica,sans-Serif" font-size="10.00">Grid::getCurrentTick</text>
</a>
</g>
</g>
<!-- Node28&#45;&gt;Node29 -->
<g id="edge65" class="edge">
<title>Node28&#45;&gt;Node29</title>
<path fill="none" stroke="midnightblue" d="M766.71,-218.52C792.37,-207.82 835.47,-190.14 873,-176.06 883.08,-172.28 894.06,-168.36 904.23,-164.82"/>
<polygon fill="midnightblue" stroke="midnightblue" points="905.38,-168.13 913.69,-161.56 903.09,-161.51 905.38,-168.13"/>
</g>
<!-- Node30 -->
<g id="node30" class="node">
<title>Node30</title>
<g id="a_node30"><a xlink:href="../../d1/d22/class_utils_1_1_point.html#a1563d88d568349cd8e76904c25671594" target="_top" xlink:title=" ">
<polygon fill="none" stroke="black" points="879,-218.56 879,-237.56 1007,-237.56 1007,-218.56 879,-218.56"/>
<text text-anchor="middle" x="943" y="-225.56" font-family="Helvetica,sans-Serif" font-size="10.00">Utils::Point::withinBounds</text>
</a>
</g>
</g>
<!-- Node28&#45;&gt;Node30 -->
<g id="edge69" class="edge">
<title>Node28&#45;&gt;Node30</title>
<path fill="none" stroke="midnightblue" d="M797.06,-228.06C819.11,-228.06 845.07,-228.06 868.88,-228.06"/>
<polygon fill="midnightblue" stroke="midnightblue" points="868.93,-231.56 878.93,-228.06 868.93,-224.56 868.93,-231.56"/>
</g>
<!-- Node30&#45;&gt;Node14 -->
<g id="edge70" class="edge">
<title>Node30&#45;&gt;Node14</title>
<path fill="none" stroke="midnightblue" d="M993.63,-237.64C1001.05,-241.07 1007.91,-245.73 1013,-252.06 1054.97,-304.18 1035.06,-485.6 1049,-551.06 1059.36,-599.69 1078.39,-655.08 1088.77,-683.68"/>
<polygon fill="midnightblue" stroke="midnightblue" points="1085.56,-685.08 1092.29,-693.26 1092.13,-682.67 1085.56,-685.08"/>
</g>
<!-- Node30&#45;&gt;Node15 -->
<g id="edge71" class="edge">
<title>Node30&#45;&gt;Node15</title>
<path fill="none" stroke="midnightblue" d="M990.99,-237.63C999.16,-241.06 1006.96,-245.73 1013,-252.06 1084.78,-327.25 1094.82,-461.6 1095.98,-512.12"/>
<polygon fill="midnightblue" stroke="midnightblue" points="1092.48,-512.38 1096.11,-522.33 1099.48,-512.29 1092.48,-512.38"/>
</g>
</g>
</svg>
        <g id="navigator" transform="translate(0 0)" fill="#404254">
                <rect fill="#f2f5e9" fill-opacity="0.5" stroke="#606060" stroke-width=".5" x="0" y="0" width="60" height="60"/>
                <use id="zoomplus" xlink:href="#zoomPlus" x="17" y="9" onmousedown="handleZoom(evt,'in')"/>
                <use id="zoomminus" xlink:href="#zoomMin" x="42" y="9" onmousedown="handleZoom(evt,'out')"/>
                <use id="reset" xlink:href="#resetDef" x="30" y="36" onmousedown="handleReset()"/>
                <g id="arrowUp" xlink:href="#dirArrow" transform="translate(30 24)" onmousedown="handlePan(0,-1)">
                  <use xlink:href="#rim" fill="#404040">
                        <set attributeName="fill" to="#808080" begin="arrowUp.mouseover" end="arrowUp.mouseout"/>
                  </use>
                  <path fill="none" stroke="white" stroke-width="1.5" d="M0,-3.0v7 M-2.5,-0.5L0,-3.0L2.5,-0.5"/>
                </g>
                <g id="arrowRight" xlink:href="#dirArrow" transform="rotate(90) translate(36 -43)" onmousedown="handlePan(1,0)">
                  <use xlink:href="#rim" fill="#404040">
                        <set attributeName="fill" to="#808080" begin="arrowRight.mouseover" end="arrowRight.mouseout"/>
                  </use>
                  <path fill="none" stroke="white" stroke-width="1.5" d="M0,-3.0v7 M-2.5,-0.5L0,-3.0L2.5,-0.5"/>
                </g>
                <g id="arrowDown" xlink:href="#dirArrow" transform="rotate(180) translate(-30 -48)" onmousedown="handlePan(0,1)">
                  <use xlink:href="#rim" fill="#404040">
                        <set attributeName="fill" to="#808080" begin="arrowDown.mouseover" end="arrowDown.mouseout"/>
                  </use>
                  <path fill="none" stroke="white" stroke-width="1.5" d="M0,-3.0v7 M-2.5,-0.5L0,-3.0L2.5,-0.5"/>
                </g>
                <g id="arrowLeft" xlink:href="#dirArrow" transform="rotate(270) translate(-36 17)" onmousedown="handlePan(-1,0)">
                  <use xlink:href="#rim" fill="#404040">
                        <set attributeName="fill" to="#808080" begin="arrowLeft.mouseover" end="arrowLeft.mouseout"/>
                  </use>
                  <path fill="none" stroke="white" stroke-width="1.5" d="M0,-3.0v7 M-2.5,-0.5L0,-3.0L2.5,-0.5"/>
                </g>
        </g>
        <svg viewBox="0 0 15 15" width="100%" height="30px" preserveAspectRatio="xMaxYMin meet">
         <g id="arrow_out" transform="scale(0.3 0.3)">
          <a xlink:href="class_visualization_a83a40506ae13f42fefad3449d644909a_cgraph_org.svg" target="_base">
           <rect id="button" ry="5" rx="5" y="6" x="6" height="38" width="38"
                fill="#f2f5e9" fill-opacity="0.5" stroke="#606060" stroke-width="1.0"/>
           <path id="arrow"
             d="M 11.500037,31.436501 C 11.940474,20.09759 22.043105,11.32322 32.158766,21.979434 L 37.068811,17.246167 C 37.068811,17.246167 37.088388,32 37.088388,32 L 22.160133,31.978069 C 22.160133,31.978069 26.997745,27.140456 26.997745,27.140456 C 18.528582,18.264221 13.291696,25.230495 11.500037,31.436501 z"
             style="fill:#404040;"/>
          </a>
         </g>
        </svg>
</svg>
