<?xml version="1.0" encoding="UTF-8" standalone="no"?>
<!DOCTYPE svg PUBLIC "-//W3C//DTD SVG 1.1//EN"
 "http://www.w3.org/Graphics/SVG/1.1/DTD/svg11.dtd">
<!-- Generated by graphviz version 2.44.1 (20200629.0846)
 -->
<!-- Title: C:/Users/lukac/CLionProjects/virus_real/src/graphalgos.h Pages: 1 -->
<!--zoomable 375 -->
<svg id="main" version="1.1" xmlns="http://www.w3.org/2000/svg" xmlns:xlink="http://www.w3.org/1999/xlink" xml:space="preserve" onload="init(evt)">
<style type="text/css"><![CDATA[
.edge:hover path { stroke: red; }
.edge:hover polygon { stroke: red; fill: red; }
]]></style>
<script type="text/javascript"><![CDATA[
var edges = document.getElementsByTagName('g');
if (edges && edges.length) {
  for (var i=0;i<edges.length;i++) {
    if (edges[i].id.substr(0,4)=='edge') {
      edges[i].setAttribute('class','edge');
    }
  }
}
]]></script>
        <defs>
                <circle id="rim" cx="0" cy="0" r="7"/>
                <circle id="rim2" cx="0" cy="0" r="3.5"/>
                <g id="zoomPlus">
                        <use xlink:href="#rim" fill="#404040">
                                <set attributeName="fill" to="#808080" begin="zoomplus.mouseover" end="zoomplus.mouseout"/>
                        </use>
                        <path d="M-4,0h8M0,-4v8" fill="none" stroke="white" stroke-width="1.5" pointer-events="none"/>
                </g>
                <g id="zoomMin">
                        <use xlink:href="#rim" fill="#404040">
                                <set attributeName="fill" to="#808080" begin="zoomminus.mouseover" end="zoomminus.mouseout"/>
                        </use>
                        <path d="M-4,0h8" fill="none" stroke="white" stroke-width="1.5" pointer-events="none"/>
                </g>
                <g id="dirArrow">
                        <path fill="none" stroke="white" stroke-width="1.5" d="M0,-3.0v7 M-2.5,-0.5L0,-3.0L2.5,-0.5"/>
                </g>
               <g id="resetDef">
                       <use xlink:href="#rim2" fill="#404040">
                               <set attributeName="fill" to="#808080" begin="reset.mouseover" end="reset.mouseout"/>
                       </use>
               </g>
        </defs>

<script type="text/javascript">
var viewWidth = 624;
var viewHeight = 375;
var sectionId = 'dynsection-0';
</script>
<script xlink:href="../../svgpan.js"/>
<svg id="graph" class="graph">
<g id="viewport">
<title>C:/Users/lukac/CLionProjects/virus_real/src/graphalgos.h</title>
<!-- Node1 -->
<g id="node1" class="node">
<title>Node1</title>
<g id="a_node1"><a xlink:title=" ">
<polygon fill="#bfbfbf" stroke="black" points="312,-336.5 312,-366.5 457,-366.5 457,-336.5 312,-336.5"/>
<text text-anchor="start" x="320" y="-354.5" font-family="Helvetica,sans-Serif" font-size="10.00">C:/Users/lukac/CLionProjects</text>
<text text-anchor="middle" x="384.5" y="-343.5" font-family="Helvetica,sans-Serif" font-size="10.00">/virus_real/src/graphalgos.h</text>
</a>
</g>
</g>
<!-- Node2 -->
<g id="node2" class="node">
<title>Node2</title>
<g id="a_node2"><a xlink:href="../../d5/d60/utils_8h.html" target="_top" xlink:title=" ">
<polygon fill="none" stroke="black" points="492,-112.5 492,-131.5 535,-131.5 535,-112.5 492,-112.5"/>
<text text-anchor="middle" x="513.5" y="-119.5" font-family="Helvetica,sans-Serif" font-size="10.00">utils.h</text>
</a>
</g>
</g>
<!-- Node1&#45;&gt;Node2 -->
<g id="edge1" class="edge">
<title>Node1&#45;&gt;Node2</title>
<path fill="none" stroke="midnightblue" d="M404.28,-336.49C429.09,-317.97 471.42,-283.06 496.5,-244 515.5,-214.41 520.44,-203.11 518.5,-168 518.02,-159.36 517.03,-149.83 516.05,-141.77"/>
<polygon fill="midnightblue" stroke="midnightblue" points="519.49,-141.07 514.74,-131.6 512.55,-141.97 519.49,-141.07"/>
</g>
<!-- Node6 -->
<g id="node6" class="node">
<title>Node6</title>
<g id="a_node6"><a xlink:href="../../d5/d5a/field_8h.html" target="_top" xlink:title=" ">
<polygon fill="none" stroke="black" points="66.5,-56.5 66.5,-75.5 108.5,-75.5 108.5,-56.5 66.5,-56.5"/>
<text text-anchor="middle" x="87.5" y="-63.5" font-family="Helvetica,sans-Serif" font-size="10.00">field.h</text>
</a>
</g>
</g>
<!-- Node1&#45;&gt;Node6 -->
<g id="edge5" class="edge">
<title>Node1&#45;&gt;Node6</title>
<path fill="none" stroke="midnightblue" d="M311.6,-342.66C204.06,-329.05 15.5,-296.42 15.5,-235 15.5,-235 15.5,-235 15.5,-177 15.5,-137.94 47.68,-101.94 69.01,-82.37"/>
<polygon fill="midnightblue" stroke="midnightblue" points="71.38,-84.94 76.56,-75.7 66.75,-79.7 71.38,-84.94"/>
</g>
<!-- Node11 -->
<g id="node11" class="node">
<title>Node11</title>
<g id="a_node11"><a xlink:href="../../da/d15/grid_8h.html" target="_top" xlink:title=" ">
<polygon fill="none" stroke="black" points="288,-224.5 288,-243.5 329,-243.5 329,-224.5 288,-224.5"/>
<text text-anchor="middle" x="308.5" y="-231.5" font-family="Helvetica,sans-Serif" font-size="10.00">grid.h</text>
</a>
</g>
</g>
<!-- Node1&#45;&gt;Node11 -->
<g id="edge10" class="edge">
<title>Node1&#45;&gt;Node11</title>
<path fill="none" stroke="midnightblue" d="M375.18,-336.34C361.18,-315.05 334.75,-274.89 319.71,-252.03"/>
<polygon fill="midnightblue" stroke="midnightblue" points="322.63,-250.1 314.2,-243.67 316.78,-253.95 322.63,-250.1"/>
</g>
<!-- Node18 -->
<g id="node18" class="node">
<title>Node18</title>
<g id="a_node18"><a xlink:href="../../d3/daa/logic_8h.html" target="_top" xlink:title=" ">
<polygon fill="none" stroke="black" points="388,-280.5 388,-299.5 433,-299.5 433,-280.5 388,-280.5"/>
<text text-anchor="middle" x="410.5" y="-287.5" font-family="Helvetica,sans-Serif" font-size="10.00">logic.h</text>
</a>
</g>
</g>
<!-- Node1&#45;&gt;Node18 -->
<g id="edge29" class="edge">
<title>Node1&#45;&gt;Node18</title>
<path fill="none" stroke="midnightblue" d="M390.66,-336.4C394.24,-328.2 398.8,-317.78 402.64,-308.99"/>
<polygon fill="midnightblue" stroke="midnightblue" points="405.92,-310.22 406.72,-299.66 399.51,-307.42 405.92,-310.22"/>
</g>
<!-- Node3 -->
<g id="node3" class="node">
<title>Node3</title>
<g id="a_node3"><a xlink:title=" ">
<polygon fill="none" stroke="#bfbfbf" points="544,-56.5 544,-75.5 603,-75.5 603,-56.5 544,-56.5"/>
<text text-anchor="middle" x="573.5" y="-63.5" font-family="Helvetica,sans-Serif" font-size="10.00">stdexcept</text>
</a>
</g>
</g>
<!-- Node2&#45;&gt;Node3 -->
<g id="edge2" class="edge">
<title>Node2&#45;&gt;Node3</title>
<path fill="none" stroke="midnightblue" d="M523.14,-112.32C532.01,-104.34 545.37,-92.31 556.11,-82.65"/>
<polygon fill="midnightblue" stroke="midnightblue" points="558.59,-85.13 563.68,-75.83 553.91,-79.92 558.59,-85.13"/>
</g>
<!-- Node4 -->
<g id="node4" class="node">
<title>Node4</title>
<g id="a_node4"><a xlink:title=" ">
<polygon fill="none" stroke="#bfbfbf" points="481,-56.5 481,-75.5 526,-75.5 526,-56.5 481,-56.5"/>
<text text-anchor="middle" x="503.5" y="-63.5" font-family="Helvetica,sans-Serif" font-size="10.00">climits</text>
</a>
</g>
</g>
<!-- Node2&#45;&gt;Node4 -->
<g id="edge3" class="edge">
<title>Node2&#45;&gt;Node4</title>
<path fill="none" stroke="midnightblue" d="M511.85,-112.08C510.52,-104.93 508.62,-94.64 506.96,-85.69"/>
<polygon fill="midnightblue" stroke="midnightblue" points="510.38,-84.95 505.12,-75.75 503.5,-86.22 510.38,-84.95"/>
</g>
<!-- Node5 -->
<g id="node5" class="node">
<title>Node5</title>
<g id="a_node5"><a xlink:title=" ">
<polygon fill="none" stroke="#bfbfbf" points="404.5,-56.5 404.5,-75.5 446.5,-75.5 446.5,-56.5 404.5,-56.5"/>
<text text-anchor="middle" x="425.5" y="-63.5" font-family="Helvetica,sans-Serif" font-size="10.00">vector</text>
</a>
</g>
</g>
<!-- Node2&#45;&gt;Node5 -->
<g id="edge4" class="edge">
<title>Node2&#45;&gt;Node5</title>
<path fill="none" stroke="midnightblue" d="M499.36,-112.32C485.63,-103.9 464.56,-90.97 448.44,-81.07"/>
<polygon fill="midnightblue" stroke="midnightblue" points="449.96,-77.9 439.6,-75.65 446.3,-83.87 449.96,-77.9"/>
</g>
<!-- Node7 -->
<g id="node7" class="node">
<title>Node7</title>
<g id="a_node7"><a xlink:title=" ">
<polygon fill="none" stroke="#bfbfbf" points="132,-0.5 132,-19.5 167,-19.5 167,-0.5 132,-0.5"/>
<text text-anchor="middle" x="149.5" y="-7.5" font-family="Helvetica,sans-Serif" font-size="10.00">map</text>
</a>
</g>
</g>
<!-- Node6&#45;&gt;Node7 -->
<g id="edge6" class="edge">
<title>Node6&#45;&gt;Node7</title>
<path fill="none" stroke="midnightblue" d="M97.46,-56.32C106.63,-48.34 120.44,-36.31 131.53,-26.65"/>
<polygon fill="midnightblue" stroke="midnightblue" points="134.12,-29.04 139.36,-19.83 129.52,-23.76 134.12,-29.04"/>
</g>
<!-- Node8 -->
<g id="node8" class="node">
<title>Node8</title>
<g id="a_node8"><a xlink:title=" ">
<polygon fill="none" stroke="#bfbfbf" points="0,-0.5 0,-19.5 43,-19.5 43,-0.5 0,-0.5"/>
<text text-anchor="middle" x="21.5" y="-7.5" font-family="Helvetica,sans-Serif" font-size="10.00">queue</text>
</a>
</g>
</g>
<!-- Node6&#45;&gt;Node8 -->
<g id="edge7" class="edge">
<title>Node6&#45;&gt;Node8</title>
<path fill="none" stroke="midnightblue" d="M76.9,-56.32C67.04,-48.26 52.15,-36.08 40.28,-26.37"/>
<polygon fill="midnightblue" stroke="midnightblue" points="42.25,-23.46 32.3,-19.83 37.82,-28.88 42.25,-23.46"/>
</g>
<!-- Node9 -->
<g id="node9" class="node">
<title>Node9</title>
<g id="a_node9"><a xlink:title=" ">
<polygon fill="none" stroke="#bfbfbf" points="61.5,-0.5 61.5,-19.5 113.5,-19.5 113.5,-0.5 61.5,-0.5"/>
<text text-anchor="middle" x="87.5" y="-7.5" font-family="Helvetica,sans-Serif" font-size="10.00">sstream</text>
</a>
</g>
</g>
<!-- Node6&#45;&gt;Node9 -->
<g id="edge8" class="edge">
<title>Node6&#45;&gt;Node9</title>
<path fill="none" stroke="midnightblue" d="M87.5,-56.08C87.5,-49.01 87.5,-38.86 87.5,-29.99"/>
<polygon fill="midnightblue" stroke="midnightblue" points="91,-29.75 87.5,-19.75 84,-29.75 91,-29.75"/>
</g>
<!-- Node10 -->
<g id="node10" class="node">
<title>Node10</title>
<g id="a_node10"><a xlink:title=" ">
<polygon fill="none" stroke="#bfbfbf" points="427.5,-0.5 427.5,-19.5 471.5,-19.5 471.5,-0.5 427.5,-0.5"/>
<text text-anchor="middle" x="449.5" y="-7.5" font-family="Helvetica,sans-Serif" font-size="10.00">cmath</text>
</a>
</g>
</g>
<!-- Node6&#45;&gt;Node10 -->
<g id="edge9" class="edge">
<title>Node6&#45;&gt;Node10</title>
<path fill="none" stroke="midnightblue" d="M108.7,-58.19C111.64,-57.38 114.63,-56.62 117.5,-56 225.88,-32.55 356.95,-19.07 416.82,-13.72"/>
<polygon fill="midnightblue" stroke="midnightblue" points="417.49,-17.17 427.14,-12.81 416.88,-10.2 417.49,-17.17"/>
</g>
<!-- Node11&#45;&gt;Node2 -->
<g id="edge14" class="edge">
<title>Node11&#45;&gt;Node2</title>
<path fill="none" stroke="midnightblue" d="M329.07,-228.57C355.8,-222.24 403.31,-209 439.5,-188 462.46,-174.68 484.79,-153.61 498.81,-139.09"/>
<polygon fill="midnightblue" stroke="midnightblue" points="501.38,-141.46 505.69,-131.79 496.28,-136.66 501.38,-141.46"/>
</g>
<!-- Node11&#45;&gt;Node3 -->
<g id="edge12" class="edge">
<title>Node11&#45;&gt;Node3</title>
<path fill="none" stroke="midnightblue" d="M329.01,-229.51C359.95,-223.73 419.89,-210.52 466.5,-188 504.93,-169.43 517.54,-165.08 544.5,-132 555.71,-118.24 563.47,-99.47 568.12,-85.63"/>
<polygon fill="midnightblue" stroke="midnightblue" points="571.56,-86.37 571.19,-75.78 564.87,-84.29 571.56,-86.37"/>
</g>
<!-- Node11&#45;&gt;Node5 -->
<g id="edge11" class="edge">
<title>Node11&#45;&gt;Node5</title>
<path fill="none" stroke="midnightblue" d="M320.02,-224.32C340.47,-208.32 383.14,-172.11 406.5,-132 414.91,-117.55 419.84,-99.1 422.56,-85.55"/>
<polygon fill="midnightblue" stroke="midnightblue" points="426.04,-85.98 424.35,-75.52 419.15,-84.75 426.04,-85.98"/>
</g>
<!-- Node11&#45;&gt;Node6 -->
<g id="edge13" class="edge">
<title>Node11&#45;&gt;Node6</title>
<path fill="none" stroke="midnightblue" d="M287.6,-230.08C259.56,-225.3 209.25,-213.64 174.5,-188 136.82,-160.2 108.94,-111.23 95.83,-84.92"/>
<polygon fill="midnightblue" stroke="midnightblue" points="98.9,-83.23 91.4,-75.74 92.59,-86.27 98.9,-83.23"/>
</g>
<!-- Node12 -->
<g id="node12" class="node">
<title>Node12</title>
<g id="a_node12"><a xlink:href="../../dc/d5f/country_8h.html" target="_top" xlink:title=" ">
<polygon fill="none" stroke="black" points="272,-168.5 272,-187.5 329,-187.5 329,-168.5 272,-168.5"/>
<text text-anchor="middle" x="300.5" y="-175.5" font-family="Helvetica,sans-Serif" font-size="10.00">country.h</text>
</a>
</g>
</g>
<!-- Node11&#45;&gt;Node12 -->
<g id="edge15" class="edge">
<title>Node11&#45;&gt;Node12</title>
<path fill="none" stroke="midnightblue" d="M307.18,-224.08C306.12,-216.93 304.59,-206.64 303.27,-197.69"/>
<polygon fill="midnightblue" stroke="midnightblue" points="306.72,-197.13 301.8,-187.75 299.8,-198.16 306.72,-197.13"/>
</g>
<!-- Node16 -->
<g id="node16" class="node">
<title>Node16</title>
<g id="a_node16"><a xlink:href="../../dd/dae/district_8h.html" target="_top" xlink:title=" ">
<polygon fill="none" stroke="black" points="157.5,-112.5 157.5,-131.5 211.5,-131.5 211.5,-112.5 157.5,-112.5"/>
<text text-anchor="middle" x="184.5" y="-119.5" font-family="Helvetica,sans-Serif" font-size="10.00">district.h</text>
</a>
</g>
</g>
<!-- Node11&#45;&gt;Node16 -->
<g id="edge27" class="edge">
<title>Node11&#45;&gt;Node16</title>
<path fill="none" stroke="midnightblue" d="M298.77,-224.37C277.85,-205.81 228.37,-161.91 201.9,-138.44"/>
<polygon fill="midnightblue" stroke="midnightblue" points="203.99,-135.61 194.18,-131.59 199.34,-140.85 203.99,-135.61"/>
</g>
<!-- Node17 -->
<g id="node17" class="node">
<title>Node17</title>
<g id="a_node17"><a xlink:title=" ">
<polygon fill="none" stroke="#bfbfbf" points="126.5,-56.5 126.5,-75.5 182.5,-75.5 182.5,-56.5 126.5,-56.5"/>
<text text-anchor="middle" x="154.5" y="-63.5" font-family="Helvetica,sans-Serif" font-size="10.00">algorithm</text>
</a>
</g>
</g>
<!-- Node11&#45;&gt;Node17 -->
<g id="edge28" class="edge">
<title>Node11&#45;&gt;Node17</title>
<path fill="none" stroke="midnightblue" d="M287.92,-227.31C251.74,-216.05 177.8,-187.11 148.5,-132 140.86,-117.63 143.68,-98.93 147.63,-85.28"/>
<polygon fill="midnightblue" stroke="midnightblue" points="151.02,-86.18 150.86,-75.59 144.38,-83.97 151.02,-86.18"/>
</g>
<!-- Node12&#45;&gt;Node2 -->
<g id="edge20" class="edge">
<title>Node12&#45;&gt;Node2</title>
<path fill="none" stroke="midnightblue" d="M329.23,-169.72C369.11,-159.61 440.99,-141.38 482.2,-130.93"/>
<polygon fill="midnightblue" stroke="midnightblue" points="483.15,-134.31 491.98,-128.46 481.43,-127.52 483.15,-134.31"/>
</g>
<!-- Node12&#45;&gt;Node5 -->
<g id="edge16" class="edge">
<title>Node12&#45;&gt;Node5</title>
<path fill="none" stroke="midnightblue" d="M303.08,-168.35C307.51,-154.79 317.74,-128.38 334.5,-112 351.46,-95.42 375.73,-83.84 394.94,-76.58"/>
<polygon fill="midnightblue" stroke="midnightblue" points="396.22,-79.84 404.46,-73.18 393.86,-73.25 396.22,-79.84"/>
</g>
<!-- Node13 -->
<g id="node13" class="node">
<title>Node13</title>
<g id="a_node13"><a xlink:title=" ">
<polygon fill="none" stroke="#bfbfbf" points="343.5,-112.5 343.5,-131.5 397.5,-131.5 397.5,-112.5 343.5,-112.5"/>
<text text-anchor="middle" x="370.5" y="-119.5" font-family="Helvetica,sans-Serif" font-size="10.00">iostream</text>
</a>
</g>
</g>
<!-- Node12&#45;&gt;Node13 -->
<g id="edge17" class="edge">
<title>Node12&#45;&gt;Node13</title>
<path fill="none" stroke="midnightblue" d="M311.75,-168.32C322.3,-160.18 338.3,-147.84 350.94,-138.09"/>
<polygon fill="midnightblue" stroke="midnightblue" points="353.27,-140.71 359.05,-131.83 348.99,-135.17 353.27,-140.71"/>
</g>
<!-- Node14 -->
<g id="node14" class="node">
<title>Node14</title>
<g id="a_node14"><a xlink:title=" ">
<polygon fill="none" stroke="#bfbfbf" points="200.5,-56.5 200.5,-75.5 230.5,-75.5 230.5,-56.5 200.5,-56.5"/>
<text text-anchor="middle" x="215.5" y="-63.5" font-family="Helvetica,sans-Serif" font-size="10.00">set</text>
</a>
</g>
</g>
<!-- Node12&#45;&gt;Node14 -->
<g id="edge18" class="edge">
<title>Node12&#45;&gt;Node14</title>
<path fill="none" stroke="midnightblue" d="M293.83,-168.37C279.74,-150.14 246.74,-107.43 228.39,-83.68"/>
<polygon fill="midnightblue" stroke="midnightblue" points="231.02,-81.36 222.14,-75.59 225.48,-85.64 231.02,-81.36"/>
</g>
<!-- Node15 -->
<g id="node15" class="node">
<title>Node15</title>
<g id="a_node15"><a xlink:title=" ">
<polygon fill="none" stroke="#bfbfbf" points="248.5,-56.5 248.5,-75.5 306.5,-75.5 306.5,-56.5 248.5,-56.5"/>
<text text-anchor="middle" x="277.5" y="-63.5" font-family="Helvetica,sans-Serif" font-size="10.00">functional</text>
</a>
</g>
</g>
<!-- Node12&#45;&gt;Node15 -->
<g id="edge19" class="edge">
<title>Node12&#45;&gt;Node15</title>
<path fill="none" stroke="midnightblue" d="M298.7,-168.37C294.98,-150.62 286.42,-109.67 281.39,-85.6"/>
<polygon fill="midnightblue" stroke="midnightblue" points="284.77,-84.66 279.3,-75.59 277.92,-86.1 284.77,-84.66"/>
</g>
<!-- Node12&#45;&gt;Node16 -->
<g id="edge21" class="edge">
<title>Node12&#45;&gt;Node16</title>
<path fill="none" stroke="midnightblue" d="M282.12,-168.44C263.28,-159.68 233.77,-145.94 212.12,-135.86"/>
<polygon fill="midnightblue" stroke="midnightblue" points="213.34,-132.56 202.79,-131.52 210.38,-138.91 213.34,-132.56"/>
</g>
<!-- Node16&#45;&gt;Node5 -->
<g id="edge22" class="edge">
<title>Node16&#45;&gt;Node5</title>
<path fill="none" stroke="midnightblue" d="M211.68,-114.91C256.77,-104.81 346.78,-84.64 394.36,-73.98"/>
<polygon fill="midnightblue" stroke="midnightblue" points="395.4,-77.33 404.39,-71.73 393.87,-70.5 395.4,-77.33"/>
</g>
<!-- Node16&#45;&gt;Node6 -->
<g id="edge23" class="edge">
<title>Node16&#45;&gt;Node6</title>
<path fill="none" stroke="midnightblue" d="M168.92,-112.32C153.5,-103.74 129.69,-90.49 111.79,-80.52"/>
<polygon fill="midnightblue" stroke="midnightblue" points="113.49,-77.46 103.05,-75.65 110.08,-83.58 113.49,-77.46"/>
</g>
<!-- Node16&#45;&gt;Node14 -->
<g id="edge25" class="edge">
<title>Node16&#45;&gt;Node14</title>
<path fill="none" stroke="midnightblue" d="M189.62,-112.08C193.91,-104.61 200.16,-93.72 205.44,-84.52"/>
<polygon fill="midnightblue" stroke="midnightblue" points="208.53,-86.17 210.48,-75.75 202.46,-82.68 208.53,-86.17"/>
</g>
<!-- Node16&#45;&gt;Node15 -->
<g id="edge26" class="edge">
<title>Node16&#45;&gt;Node15</title>
<path fill="none" stroke="midnightblue" d="M199.44,-112.32C214.09,-103.82 236.63,-90.73 253.74,-80.8"/>
<polygon fill="midnightblue" stroke="midnightblue" points="255.7,-83.7 262.6,-75.65 252.19,-77.65 255.7,-83.7"/>
</g>
<!-- Node16&#45;&gt;Node17 -->
<g id="edge24" class="edge">
<title>Node16&#45;&gt;Node17</title>
<path fill="none" stroke="midnightblue" d="M179.55,-112.08C175.4,-104.61 169.35,-93.72 164.23,-84.52"/>
<polygon fill="midnightblue" stroke="midnightblue" points="167.28,-82.79 159.36,-75.75 161.16,-86.19 167.28,-82.79"/>
</g>
<!-- Node18&#45;&gt;Node2 -->
<g id="edge37" class="edge">
<title>Node18&#45;&gt;Node2</title>
<path fill="none" stroke="midnightblue" d="M429.96,-280.5C445.01,-272.97 465.29,-260.59 477.5,-244 500.36,-212.92 508.81,-167.37 511.85,-141.94"/>
<polygon fill="midnightblue" stroke="midnightblue" points="515.35,-142.11 512.9,-131.8 508.39,-141.39 515.35,-142.11"/>
</g>
<!-- Node18&#45;&gt;Node3 -->
<g id="edge32" class="edge">
<title>Node18&#45;&gt;Node3</title>
<path fill="none" stroke="midnightblue" d="M433.04,-281.14C451.71,-273.77 478.07,-261.3 496.5,-244 538.97,-204.15 544.99,-186.87 564.5,-132 569.81,-117.06 572.01,-99.14 572.91,-85.91"/>
<polygon fill="midnightblue" stroke="midnightblue" points="576.41,-85.84 573.41,-75.68 569.42,-85.49 576.41,-85.84"/>
</g>
<!-- Node18&#45;&gt;Node5 -->
<g id="edge31" class="edge">
<title>Node18&#45;&gt;Node5</title>
<path fill="none" stroke="midnightblue" d="M419.79,-280.39C428.08,-272.02 439.64,-258.48 444.5,-244 463.13,-188.45 443.75,-118.11 432.44,-85.35"/>
<polygon fill="midnightblue" stroke="midnightblue" points="435.66,-83.97 428.98,-75.75 429.08,-86.35 435.66,-83.97"/>
</g>
<!-- Node18&#45;&gt;Node10 -->
<g id="edge33" class="edge">
<title>Node18&#45;&gt;Node10</title>
<path fill="none" stroke="midnightblue" d="M433.24,-283.53C456.69,-277.05 493.4,-264.47 519.5,-244 586.65,-191.33 594.1,-159.34 612.5,-76 614.42,-67.32 617.88,-63.07 612.5,-56 596.73,-35.28 524.56,-21.67 481.72,-15.26"/>
<polygon fill="midnightblue" stroke="midnightblue" points="482.17,-11.79 471.77,-13.83 481.16,-18.72 482.17,-11.79"/>
</g>
<!-- Node18&#45;&gt;Node11 -->
<g id="edge34" class="edge">
<title>Node18&#45;&gt;Node11</title>
<path fill="none" stroke="midnightblue" d="M394.11,-280.32C377.83,-271.7 352.63,-258.36 333.78,-248.39"/>
<polygon fill="midnightblue" stroke="midnightblue" points="335.32,-245.24 324.85,-243.65 332.05,-251.43 335.32,-245.24"/>
</g>
<!-- Node18&#45;&gt;Node13 -->
<g id="edge36" class="edge">
<title>Node18&#45;&gt;Node13</title>
<path fill="none" stroke="midnightblue" d="M401.38,-280.34C393.2,-271.93 381.71,-258.36 376.5,-244 363.98,-209.52 365.73,-165.87 368.12,-141.54"/>
<polygon fill="midnightblue" stroke="midnightblue" points="371.61,-141.88 369.25,-131.55 364.65,-141.09 371.61,-141.88"/>
</g>
<!-- Node18&#45;&gt;Node17 -->
<g id="edge30" class="edge">
<title>Node18&#45;&gt;Node17</title>
<path fill="none" stroke="midnightblue" d="M387.77,-284.8C342,-275.26 237.68,-248 174.5,-188 153.39,-167.95 148.35,-160.04 140.5,-132 136.13,-116.39 140.77,-98.34 145.85,-85.23"/>
<polygon fill="midnightblue" stroke="midnightblue" points="149.12,-86.48 149.85,-75.91 142.69,-83.72 149.12,-86.48"/>
</g>
<!-- Node19 -->
<g id="node19" class="node">
<title>Node19</title>
<g id="a_node19"><a xlink:href="../../db/d16/config_8h.html" target="_top" xlink:title=" ">
<polygon fill="none" stroke="black" points="385.5,-224.5 385.5,-243.5 435.5,-243.5 435.5,-224.5 385.5,-224.5"/>
<text text-anchor="middle" x="410.5" y="-231.5" font-family="Helvetica,sans-Serif" font-size="10.00">config.h</text>
</a>
</g>
</g>
<!-- Node18&#45;&gt;Node19 -->
<g id="edge35" class="edge">
<title>Node18&#45;&gt;Node19</title>
<path fill="none" stroke="midnightblue" d="M410.5,-280.08C410.5,-273.01 410.5,-262.86 410.5,-253.99"/>
<polygon fill="midnightblue" stroke="midnightblue" points="414,-253.75 410.5,-243.75 407,-253.75 414,-253.75"/>
</g>
</g>
</svg>
        <g id="navigator" transform="translate(0 0)" fill="#404254">
                <rect fill="#f2f5e9" fill-opacity="0.5" stroke="#606060" stroke-width=".5" x="0" y="0" width="60" height="60"/>
                <use id="zoomplus" xlink:href="#zoomPlus" x="17" y="9" onmousedown="handleZoom(evt,'in')"/>
                <use id="zoomminus" xlink:href="#zoomMin" x="42" y="9" onmousedown="handleZoom(evt,'out')"/>
                <use id="reset" xlink:href="#resetDef" x="30" y="36" onmousedown="handleReset()"/>
                <g id="arrowUp" xlink:href="#dirArrow" transform="translate(30 24)" onmousedown="handlePan(0,-1)">
                  <use xlink:href="#rim" fill="#404040">
                        <set attributeName="fill" to="#808080" begin="arrowUp.mouseover" end="arrowUp.mouseout"/>
                  </use>
                  <path fill="none" stroke="white" stroke-width="1.5" d="M0,-3.0v7 M-2.5,-0.5L0,-3.0L2.5,-0.5"/>
                </g>
                <g id="arrowRight" xlink:href="#dirArrow" transform="rotate(90) translate(36 -43)" onmousedown="handlePan(1,0)">
                  <use xlink:href="#rim" fill="#404040">
                        <set attributeName="fill" to="#808080" begin="arrowRight.mouseover" end="arrowRight.mouseout"/>
                  </use>
                  <path fill="none" stroke="white" stroke-width="1.5" d="M0,-3.0v7 M-2.5,-0.5L0,-3.0L2.5,-0.5"/>
                </g>
                <g id="arrowDown" xlink:href="#dirArrow" transform="rotate(180) translate(-30 -48)" onmousedown="handlePan(0,1)">
                  <use xlink:href="#rim" fill="#404040">
                        <set attributeName="fill" to="#808080" begin="arrowDown.mouseover" end="arrowDown.mouseout"/>
                  </use>
                  <path fill="none" stroke="white" stroke-width="1.5" d="M0,-3.0v7 M-2.5,-0.5L0,-3.0L2.5,-0.5"/>
                </g>
                <g id="arrowLeft" xlink:href="#dirArrow" transform="rotate(270) translate(-36 17)" onmousedown="handlePan(-1,0)">
                  <use xlink:href="#rim" fill="#404040">
                        <set attributeName="fill" to="#808080" begin="arrowLeft.mouseover" end="arrowLeft.mouseout"/>
                  </use>
                  <path fill="none" stroke="white" stroke-width="1.5" d="M0,-3.0v7 M-2.5,-0.5L0,-3.0L2.5,-0.5"/>
                </g>
        </g>
        <svg viewBox="0 0 15 15" width="100%" height="30px" preserveAspectRatio="xMaxYMin meet">
         <g id="arrow_out" transform="scale(0.3 0.3)">
          <a xlink:href="graphalgos_8h__incl_org.svg" target="_base">
           <rect id="button" ry="5" rx="5" y="6" x="6" height="38" width="38"
                fill="#f2f5e9" fill-opacity="0.5" stroke="#606060" stroke-width="1.0"/>
           <path id="arrow"
             d="M 11.500037,31.436501 C 11.940474,20.09759 22.043105,11.32322 32.158766,21.979434 L 37.068811,17.246167 C 37.068811,17.246167 37.088388,32 37.088388,32 L 22.160133,31.978069 C 22.160133,31.978069 26.997745,27.140456 26.997745,27.140456 C 18.528582,18.264221 13.291696,25.230495 11.500037,31.436501 z"
             style="fill:#404040;"/>
          </a>
         </g>
        </svg>
</svg>
