<?xml version="1.0" encoding="UTF-8" standalone="no"?>
<!DOCTYPE svg PUBLIC "-//W3C//DTD SVG 1.1//EN"
 "http://www.w3.org/Graphics/SVG/1.1/DTD/svg11.dtd">
<!-- Generated by graphviz version 2.44.1 (20200629.0846)
 -->
<!-- Title: C:/Users/lukac/CLionProjects/virus_real/src/field.h Pages: 1 -->
<!--zoomable 709 -->
<svg id="main" version="1.1" xmlns="http://www.w3.org/2000/svg" xmlns:xlink="http://www.w3.org/1999/xlink" xml:space="preserve" onload="init(evt)">
<style type="text/css"><![CDATA[
.edge:hover path { stroke: red; }
.edge:hover polygon { stroke: red; fill: red; }
]]></style>
<script type="text/javascript"><![CDATA[
var edges = document.getElementsByTagName('g');
if (edges && edges.length) {
  for (var i=0;i<edges.length;i++) {
    if (edges[i].id.substr(0,4)=='edge') {
      edges[i].setAttribute('class','edge');
    }
  }
}
]]></script>
        <defs>
                <circle id="rim" cx="0" cy="0" r="7"/>
                <circle id="rim2" cx="0" cy="0" r="3.5"/>
                <g id="zoomPlus">
                        <use xlink:href="#rim" fill="#404040">
                                <set attributeName="fill" to="#808080" begin="zoomplus.mouseover" end="zoomplus.mouseout"/>
                        </use>
                        <path d="M-4,0h8M0,-4v8" fill="none" stroke="white" stroke-width="1.5" pointer-events="none"/>
                </g>
                <g id="zoomMin">
                        <use xlink:href="#rim" fill="#404040">
                                <set attributeName="fill" to="#808080" begin="zoomminus.mouseover" end="zoomminus.mouseout"/>
                        </use>
                        <path d="M-4,0h8" fill="none" stroke="white" stroke-width="1.5" pointer-events="none"/>
                </g>
                <g id="dirArrow">
                        <path fill="none" stroke="white" stroke-width="1.5" d="M0,-3.0v7 M-2.5,-0.5L0,-3.0L2.5,-0.5"/>
                </g>
               <g id="resetDef">
                       <use xlink:href="#rim2" fill="#404040">
                               <set attributeName="fill" to="#808080" begin="reset.mouseover" end="reset.mouseout"/>
                       </use>
               </g>
        </defs>

<script type="text/javascript">
var viewWidth = 876;
var viewHeight = 709;
var sectionId = 'dynsection-1';
</script>
<script xlink:href="../../svgpan.js"/>
<svg id="graph" class="graph">
<g id="viewport">
<title>C:/Users/lukac/CLionProjects/virus_real/src/field.h</title>
<!-- Node1 -->
<g id="node1" class="node">
<title>Node1</title>
<g id="a_node1"><a xlink:title=" ">
<polygon fill="#bfbfbf" stroke="black" points="269.5,-670.5 269.5,-700.5 414.5,-700.5 414.5,-670.5 269.5,-670.5"/>
<text text-anchor="start" x="277.5" y="-688.5" font-family="Helvetica,sans-Serif" font-size="10.00">C:/Users/lukac/CLionProjects</text>
<text text-anchor="middle" x="342" y="-677.5" font-family="Helvetica,sans-Serif" font-size="10.00">/virus_real/src/field.h</text>
</a>
</g>
</g>
<!-- Node2 -->
<g id="node2" class="node">
<title>Node2</title>
<g id="a_node2"><a xlink:href="../../dd/dae/district_8h.html" target="_top" xlink:title=" ">
<polygon fill="none" stroke="black" points="320.5,-603.5 320.5,-633.5 465.5,-633.5 465.5,-603.5 320.5,-603.5"/>
<text text-anchor="start" x="328.5" y="-621.5" font-family="Helvetica,sans-Serif" font-size="10.00">C:/Users/lukac/CLionProjects</text>
<text text-anchor="middle" x="393" y="-610.5" font-family="Helvetica,sans-Serif" font-size="10.00">/virus_real/src/district.h</text>
</a>
</g>
</g>
<!-- Node1&#45;&gt;Node2 -->
<g id="edge1" class="edge">
<title>Node1&#45;&gt;Node2</title>
<path fill="none" stroke="midnightblue" d="M359.3,-662.45C366.79,-652.9 375.34,-642 381.96,-633.58"/>
<polygon fill="midnightblue" stroke="midnightblue" points="356.49,-660.37 353.07,-670.4 361.99,-664.69 356.49,-660.37"/>
</g>
<!-- Node8 -->
<g id="node8" class="node">
<title>Node8</title>
<g id="a_node8"><a xlink:href="../../da/d15/grid_8h.html" target="_top" xlink:title=" ">
<polygon fill="none" stroke="black" points="406.5,-469.5 406.5,-499.5 551.5,-499.5 551.5,-469.5 406.5,-469.5"/>
<text text-anchor="start" x="414.5" y="-487.5" font-family="Helvetica,sans-Serif" font-size="10.00">C:/Users/lukac/CLionProjects</text>
<text text-anchor="middle" x="479" y="-476.5" font-family="Helvetica,sans-Serif" font-size="10.00">/virus_real/src/grid.h</text>
</a>
</g>
</g>
<!-- Node1&#45;&gt;Node8 -->
<g id="edge42" class="edge">
<title>Node1&#45;&gt;Node8</title>
<path fill="none" stroke="midnightblue" d="M324.59,-662.09C319.12,-653.75 313.79,-643.89 311,-634 299.16,-592.08 285.01,-570.95 311,-536 332.99,-506.43 371.72,-493.53 406.46,-488.15"/>
<polygon fill="midnightblue" stroke="midnightblue" points="321.86,-664.3 330.46,-670.49 327.6,-660.29 321.86,-664.3"/>
</g>
<!-- Node19 -->
<g id="node19" class="node">
<title>Node19</title>
<g id="a_node19"><a xlink:href="../../d2/d3d/graphalgos_8h.html" target="_top" xlink:title=" ">
<polygon fill="none" stroke="black" points="0.5,-335.5 0.5,-365.5 145.5,-365.5 145.5,-335.5 0.5,-335.5"/>
<text text-anchor="start" x="8.5" y="-353.5" font-family="Helvetica,sans-Serif" font-size="10.00">C:/Users/lukac/CLionProjects</text>
<text text-anchor="middle" x="73" y="-342.5" font-family="Helvetica,sans-Serif" font-size="10.00">/virus_real/src/graphalgos.h</text>
</a>
</g>
</g>
<!-- Node1&#45;&gt;Node19 -->
<g id="edge41" class="edge">
<title>Node1&#45;&gt;Node19</title>
<path fill="none" stroke="midnightblue" d="M259.01,-677.86C180.63,-666.51 75,-635.76 75,-552.5 75,-552.5 75,-552.5 75,-483.5 75,-440.64 73.93,-389.96 73.36,-365.76"/>
<polygon fill="midnightblue" stroke="midnightblue" points="259.01,-681.39 269.39,-679.27 259.96,-674.45 259.01,-681.39"/>
</g>
<!-- Node27 -->
<g id="node27" class="node">
<title>Node27</title>
<g id="a_node27"><a xlink:href="../../d4/dd0/field_8cpp.html" target="_top" xlink:title=" ">
<polygon fill="none" stroke="black" points="483.5,-603.5 483.5,-633.5 628.5,-633.5 628.5,-603.5 483.5,-603.5"/>
<text text-anchor="start" x="491.5" y="-621.5" font-family="Helvetica,sans-Serif" font-size="10.00">C:/Users/lukac/CLionProjects</text>
<text text-anchor="middle" x="556" y="-610.5" font-family="Helvetica,sans-Serif" font-size="10.00">/virus_real/src/field.cpp</text>
</a>
</g>
</g>
<!-- Node1&#45;&gt;Node27 -->
<g id="edge40" class="edge">
<title>Node1&#45;&gt;Node27</title>
<path fill="none" stroke="midnightblue" d="M398.15,-667.44C432.84,-656.91 476.82,-643.55 509.54,-633.61"/>
<polygon fill="midnightblue" stroke="midnightblue" points="396.72,-664.22 388.17,-670.48 398.76,-670.92 396.72,-664.22"/>
</g>
<!-- Node3 -->
<g id="node3" class="node">
<title>Node3</title>
<g id="a_node3"><a xlink:href="../../dc/d5f/country_8h.html" target="_top" xlink:title=" ">
<polygon fill="none" stroke="black" points="538.5,-536.5 538.5,-566.5 683.5,-566.5 683.5,-536.5 538.5,-536.5"/>
<text text-anchor="start" x="546.5" y="-554.5" font-family="Helvetica,sans-Serif" font-size="10.00">C:/Users/lukac/CLionProjects</text>
<text text-anchor="middle" x="611" y="-543.5" font-family="Helvetica,sans-Serif" font-size="10.00">/virus_real/src/country.h</text>
</a>
</g>
</g>
<!-- Node2&#45;&gt;Node3 -->
<g id="edge2" class="edge">
<title>Node2&#45;&gt;Node3</title>
<path fill="none" stroke="midnightblue" d="M449.75,-600.58C485.16,-590.02 530.2,-576.59 563.67,-566.61"/>
<polygon fill="midnightblue" stroke="midnightblue" points="448.62,-597.26 440.03,-603.48 450.62,-603.97 448.62,-597.26"/>
</g>
<!-- Node2&#45;&gt;Node8 -->
<g id="edge39" class="edge">
<title>Node2&#45;&gt;Node8</title>
<path fill="none" stroke="midnightblue" d="M439.92,-598.36C453.14,-590.62 466.08,-580.3 474,-567 486.41,-546.17 484.47,-516.81 481.82,-499.6"/>
<polygon fill="midnightblue" stroke="midnightblue" points="437.9,-595.48 430.77,-603.32 441.23,-601.63 437.9,-595.48"/>
</g>
<!-- Node26 -->
<g id="node26" class="node">
<title>Node26</title>
<g id="a_node26"><a xlink:href="../../d4/def/district_8cpp.html" target="_top" xlink:title=" ">
<polygon fill="none" stroke="black" points="320.5,-536.5 320.5,-566.5 465.5,-566.5 465.5,-536.5 320.5,-536.5"/>
<text text-anchor="start" x="328.5" y="-554.5" font-family="Helvetica,sans-Serif" font-size="10.00">C:/Users/lukac/CLionProjects</text>
<text text-anchor="middle" x="393" y="-543.5" font-family="Helvetica,sans-Serif" font-size="10.00">/virus_real/src/district.cpp</text>
</a>
</g>
</g>
<!-- Node2&#45;&gt;Node26 -->
<g id="edge38" class="edge">
<title>Node2&#45;&gt;Node26</title>
<path fill="none" stroke="midnightblue" d="M393,-593.11C393,-584.15 393,-574.32 393,-566.58"/>
<polygon fill="midnightblue" stroke="midnightblue" points="389.5,-593.4 393,-603.4 396.5,-593.4 389.5,-593.4"/>
</g>
<!-- Node4 -->
<g id="node4" class="node">
<title>Node4</title>
<g id="a_node4"><a xlink:href="../../d3/d5b/anti_virus_8h.html" target="_top" xlink:title=" ">
<polygon fill="none" stroke="black" points="483.5,-67.5 483.5,-97.5 628.5,-97.5 628.5,-67.5 483.5,-67.5"/>
<text text-anchor="start" x="491.5" y="-85.5" font-family="Helvetica,sans-Serif" font-size="10.00">C:/Users/lukac/CLionProjects</text>
<text text-anchor="middle" x="556" y="-74.5" font-family="Helvetica,sans-Serif" font-size="10.00">/virus_real/src/antiVirus.h</text>
</a>
</g>
</g>
<!-- Node3&#45;&gt;Node4 -->
<g id="edge3" class="edge">
<title>Node3&#45;&gt;Node4</title>
<path fill="none" stroke="midnightblue" d="M693.77,-536.13C757.22,-519.8 834,-486.08 834,-418.5 834,-418.5 834,-418.5 834,-215.5 834,-175.53 827.3,-158.85 796,-134 770.45,-113.72 689.48,-99.62 628.6,-91.57"/>
<polygon fill="midnightblue" stroke="midnightblue" points="692.58,-532.81 683.71,-538.6 694.26,-539.61 692.58,-532.81"/>
</g>
<!-- Node7 -->
<g id="node7" class="node">
<title>Node7</title>
<g id="a_node7"><a xlink:href="../../df/da4/country_8cpp.html" target="_top" xlink:title=" ">
<polygon fill="none" stroke="black" points="569.5,-469.5 569.5,-499.5 714.5,-499.5 714.5,-469.5 569.5,-469.5"/>
<text text-anchor="start" x="577.5" y="-487.5" font-family="Helvetica,sans-Serif" font-size="10.00">C:/Users/lukac/CLionProjects</text>
<text text-anchor="middle" x="642" y="-476.5" font-family="Helvetica,sans-Serif" font-size="10.00">/virus_real/src/country.cpp</text>
</a>
</g>
</g>
<!-- Node3&#45;&gt;Node7 -->
<g id="edge6" class="edge">
<title>Node3&#45;&gt;Node7</title>
<path fill="none" stroke="midnightblue" d="M622.07,-527.28C626.49,-518.02 631.43,-507.66 635.29,-499.58"/>
<polygon fill="midnightblue" stroke="midnightblue" points="618.87,-525.86 617.73,-536.4 625.19,-528.88 618.87,-525.86"/>
</g>
<!-- Node3&#45;&gt;Node8 -->
<g id="edge7" class="edge">
<title>Node3&#45;&gt;Node8</title>
<path fill="none" stroke="midnightblue" d="M573.13,-531.85C552.26,-521.58 526.77,-509.03 507.59,-499.58"/>
<polygon fill="midnightblue" stroke="midnightblue" points="571.84,-535.12 582.36,-536.4 574.93,-528.84 571.84,-535.12"/>
</g>
<!-- Node5 -->
<g id="node5" class="node">
<title>Node5</title>
<g id="a_node5"><a xlink:href="../../da/d6e/anti_virus_8cpp.html" target="_top" xlink:title=" ">
<polygon fill="none" stroke="black" points="452.5,-0.5 452.5,-30.5 597.5,-30.5 597.5,-0.5 452.5,-0.5"/>
<text text-anchor="start" x="460.5" y="-18.5" font-family="Helvetica,sans-Serif" font-size="10.00">C:/Users/lukac/CLionProjects</text>
<text text-anchor="middle" x="525" y="-7.5" font-family="Helvetica,sans-Serif" font-size="10.00">/virus_real/src/antiVirus.cpp</text>
</a>
</g>
</g>
<!-- Node4&#45;&gt;Node5 -->
<g id="edge4" class="edge">
<title>Node4&#45;&gt;Node5</title>
<path fill="none" stroke="midnightblue" d="M544.93,-58.28C540.51,-49.02 535.57,-38.66 531.71,-30.58"/>
<polygon fill="midnightblue" stroke="midnightblue" points="541.81,-59.88 549.27,-67.4 548.13,-56.86 541.81,-59.88"/>
</g>
<!-- Node6 -->
<g id="node6" class="node">
<title>Node6</title>
<g id="a_node6"><a xlink:href="../../df/d0a/main_8cpp.html" target="_top" xlink:title=" ">
<polygon fill="none" stroke="black" points="615.5,-0.5 615.5,-30.5 760.5,-30.5 760.5,-0.5 615.5,-0.5"/>
<text text-anchor="start" x="623.5" y="-18.5" font-family="Helvetica,sans-Serif" font-size="10.00">C:/Users/lukac/CLionProjects</text>
<text text-anchor="middle" x="688" y="-7.5" font-family="Helvetica,sans-Serif" font-size="10.00">/virus_real/src/main.cpp</text>
</a>
</g>
</g>
<!-- Node4&#45;&gt;Node6 -->
<g id="edge5" class="edge">
<title>Node4&#45;&gt;Node6</title>
<path fill="none" stroke="midnightblue" d="M593.87,-62.85C614.74,-52.58 640.23,-40.03 659.41,-30.58"/>
<polygon fill="midnightblue" stroke="midnightblue" points="592.07,-59.84 584.64,-67.4 595.16,-66.12 592.07,-59.84"/>
</g>
<!-- Node8&#45;&gt;Node4 -->
<g id="edge22" class="edge">
<title>Node8&#45;&gt;Node4</title>
<path fill="none" stroke="midnightblue" d="M512.97,-463.86C546.89,-441.43 594,-401.3 594,-351.5 594,-351.5 594,-351.5 594,-215.5 594,-171.14 573.94,-121.56 562.97,-97.76"/>
<polygon fill="midnightblue" stroke="midnightblue" points="510.78,-461.11 504.24,-469.45 514.55,-467.01 510.78,-461.11"/>
</g>
<!-- Node9 -->
<g id="node9" class="node">
<title>Node9</title>
<g id="a_node9"><a xlink:href="../../d1/df3/ai_8h.html" target="_top" xlink:title=" ">
<polygon fill="none" stroke="black" points="202.5,-268.5 202.5,-298.5 347.5,-298.5 347.5,-268.5 202.5,-268.5"/>
<text text-anchor="start" x="210.5" y="-286.5" font-family="Helvetica,sans-Serif" font-size="10.00">C:/Users/lukac/CLionProjects</text>
<text text-anchor="middle" x="275" y="-275.5" font-family="Helvetica,sans-Serif" font-size="10.00">/virus_real/src/ai.h</text>
</a>
</g>
</g>
<!-- Node8&#45;&gt;Node9 -->
<g id="edge8" class="edge">
<title>Node8&#45;&gt;Node9</title>
<path fill="none" stroke="midnightblue" d="M476.67,-459.26C472.1,-425.92 458.85,-366.49 421,-335 400.18,-317.67 373.06,-306.16 347.85,-298.57"/>
<polygon fill="midnightblue" stroke="midnightblue" points="473.23,-459.98 477.9,-469.48 480.18,-459.14 473.23,-459.98"/>
</g>
<!-- Node11 -->
<g id="node11" class="node">
<title>Node11</title>
<g id="a_node11"><a xlink:href="../../db/db2/iface_8h.html" target="_top" xlink:title=" ">
<polygon fill="none" stroke="black" points="364.5,-201.5 364.5,-231.5 509.5,-231.5 509.5,-201.5 364.5,-201.5"/>
<text text-anchor="start" x="372.5" y="-219.5" font-family="Helvetica,sans-Serif" font-size="10.00">C:/Users/lukac/CLionProjects</text>
<text text-anchor="middle" x="437" y="-208.5" font-family="Helvetica,sans-Serif" font-size="10.00">/virus_real/src/iface.h</text>
</a>
</g>
</g>
<!-- Node8&#45;&gt;Node11 -->
<g id="edge27" class="edge">
<title>Node8&#45;&gt;Node11</title>
<path fill="none" stroke="midnightblue" d="M480.74,-459.2C481.25,-450.89 481.75,-441.55 482,-433 482.41,-419.23 483.51,-415.69 482,-402 475.29,-341.34 467.36,-327.06 452,-268 448.78,-255.61 444.59,-241.67 441.46,-231.58"/>
<polygon fill="midnightblue" stroke="midnightblue" points="477.23,-459.15 480.07,-469.36 484.22,-459.61 477.23,-459.15"/>
</g>
<!-- Node8&#45;&gt;Node19 -->
<g id="edge23" class="edge">
<title>Node8&#45;&gt;Node19</title>
<path fill="none" stroke="midnightblue" d="M396.25,-468.12C363.89,-460.22 327.15,-448.84 296,-433 276.26,-422.96 276.74,-412.02 257,-402 222.29,-384.38 180.68,-372.3 145.82,-364.38"/>
<polygon fill="midnightblue" stroke="midnightblue" points="395.6,-471.56 406.13,-470.46 397.21,-464.75 395.6,-471.56"/>
</g>
<!-- Node21 -->
<g id="node21" class="node">
<title>Node21</title>
<g id="a_node21"><a xlink:href="../../d7/d70/grid_8cpp.html" target="_top" xlink:title=" ">
<polygon fill="none" stroke="black" points="103.5,-402.5 103.5,-432.5 248.5,-432.5 248.5,-402.5 103.5,-402.5"/>
<text text-anchor="start" x="111.5" y="-420.5" font-family="Helvetica,sans-Serif" font-size="10.00">C:/Users/lukac/CLionProjects</text>
<text text-anchor="middle" x="176" y="-409.5" font-family="Helvetica,sans-Serif" font-size="10.00">/virus_real/src/grid.cpp</text>
</a>
</g>
</g>
<!-- Node8&#45;&gt;Node21 -->
<g id="edge26" class="edge">
<title>Node8&#45;&gt;Node21</title>
<path fill="none" stroke="midnightblue" d="M403.56,-467.32C353.76,-456.63 289.16,-442.77 241.52,-432.55"/>
<polygon fill="midnightblue" stroke="midnightblue" points="403.11,-470.8 413.63,-469.48 404.58,-463.96 403.11,-470.8"/>
</g>
<!-- Node22 -->
<g id="node22" class="node">
<title>Node22</title>
<g id="a_node22"><a xlink:href="../../d3/daa/logic_8h.html" target="_top" xlink:title=" ">
<polygon fill="none" stroke="black" points="305.5,-402.5 305.5,-432.5 450.5,-432.5 450.5,-402.5 305.5,-402.5"/>
<text text-anchor="start" x="313.5" y="-420.5" font-family="Helvetica,sans-Serif" font-size="10.00">C:/Users/lukac/CLionProjects</text>
<text text-anchor="middle" x="378" y="-409.5" font-family="Helvetica,sans-Serif" font-size="10.00">/virus_real/src/logic.h</text>
</a>
</g>
</g>
<!-- Node8&#45;&gt;Node22 -->
<g id="edge28" class="edge">
<title>Node8&#45;&gt;Node22</title>
<path fill="none" stroke="midnightblue" d="M448.29,-463.73C432.66,-453.68 414.03,-441.68 399.87,-432.58"/>
<polygon fill="midnightblue" stroke="midnightblue" points="446.78,-466.93 457.08,-469.4 450.57,-461.04 446.78,-466.93"/>
</g>
<!-- Node24 -->
<g id="node24" class="node">
<title>Node24</title>
<g id="a_node24"><a xlink:href="../../d3/df1/window_8h.html" target="_top" xlink:title=" ">
<polygon fill="none" stroke="black" points="622.5,-402.5 622.5,-432.5 767.5,-432.5 767.5,-402.5 622.5,-402.5"/>
<text text-anchor="start" x="630.5" y="-420.5" font-family="Helvetica,sans-Serif" font-size="10.00">C:/Users/lukac/CLionProjects</text>
<text text-anchor="middle" x="695" y="-409.5" font-family="Helvetica,sans-Serif" font-size="10.00">/virus_real/src/window.h</text>
</a>
</g>
</g>
<!-- Node8&#45;&gt;Node24 -->
<g id="edge35" class="edge">
<title>Node8&#45;&gt;Node24</title>
<path fill="none" stroke="midnightblue" d="M535.23,-466.58C570.31,-456.02 614.94,-442.59 648.11,-432.61"/>
<polygon fill="midnightblue" stroke="midnightblue" points="534.17,-463.24 525.6,-469.48 536.19,-469.95 534.17,-463.24"/>
</g>
<!-- Node10 -->
<g id="node10" class="node">
<title>Node10</title>
<g id="a_node10"><a xlink:href="../../d1/d4a/ai_8cpp.html" target="_top" xlink:title=" ">
<polygon fill="none" stroke="black" points="201.5,-201.5 201.5,-231.5 346.5,-231.5 346.5,-201.5 201.5,-201.5"/>
<text text-anchor="start" x="209.5" y="-219.5" font-family="Helvetica,sans-Serif" font-size="10.00">C:/Users/lukac/CLionProjects</text>
<text text-anchor="middle" x="274" y="-208.5" font-family="Helvetica,sans-Serif" font-size="10.00">/virus_real/src/ai.cpp</text>
</a>
</g>
</g>
<!-- Node9&#45;&gt;Node10 -->
<g id="edge9" class="edge">
<title>Node9&#45;&gt;Node10</title>
<path fill="none" stroke="midnightblue" d="M274.62,-258.11C274.49,-249.15 274.34,-239.32 274.22,-231.58"/>
<polygon fill="midnightblue" stroke="midnightblue" points="271.13,-258.45 274.78,-268.4 278.13,-258.34 271.13,-258.45"/>
</g>
<!-- Node9&#45;&gt;Node11 -->
<g id="edge10" class="edge">
<title>Node9&#45;&gt;Node11</title>
<path fill="none" stroke="midnightblue" d="M319.75,-264.54C345.67,-254.14 377.84,-241.24 401.92,-231.58"/>
<polygon fill="midnightblue" stroke="midnightblue" points="318.13,-261.42 310.15,-268.4 320.74,-267.92 318.13,-261.42"/>
</g>
<!-- Node11&#45;&gt;Node11 -->
<g id="edge15" class="edge">
<title>Node11&#45;&gt;Node11</title>
<path fill="none" stroke="midnightblue" d="M519.69,-225C524.57,-222.97 527.5,-220.13 527.5,-216.5 527.5,-210.83 520.37,-207.11 509.79,-205.33"/>
<polygon fill="midnightblue" stroke="midnightblue" points="518.53,-221.69 509.79,-227.67 520.35,-228.45 518.53,-221.69"/>
</g>
<!-- Node12 -->
<g id="node12" class="node">
<title>Node12</title>
<g id="a_node12"><a xlink:href="../../d7/d04/graphics_8h.html" target="_top" xlink:title=" ">
<polygon fill="none" stroke="black" points="219.5,-134.5 219.5,-164.5 364.5,-164.5 364.5,-134.5 219.5,-134.5"/>
<text text-anchor="start" x="227.5" y="-152.5" font-family="Helvetica,sans-Serif" font-size="10.00">C:/Users/lukac/CLionProjects</text>
<text text-anchor="middle" x="292" y="-141.5" font-family="Helvetica,sans-Serif" font-size="10.00">/virus_real/src/graphics.h</text>
</a>
</g>
</g>
<!-- Node11&#45;&gt;Node12 -->
<g id="edge11" class="edge">
<title>Node11&#45;&gt;Node12</title>
<path fill="none" stroke="midnightblue" d="M396.33,-197.27C373.24,-186.92 344.76,-174.15 323.4,-164.58"/>
<polygon fill="midnightblue" stroke="midnightblue" points="394.98,-200.5 405.54,-201.4 397.84,-194.11 394.98,-200.5"/>
</g>
<!-- Node14 -->
<g id="node14" class="node">
<title>Node14</title>
<g id="a_node14"><a xlink:href="../../dc/d59/iface_8cpp.html" target="_top" xlink:title=" ">
<polygon fill="none" stroke="black" points="382.5,-134.5 382.5,-164.5 527.5,-164.5 527.5,-134.5 382.5,-134.5"/>
<text text-anchor="start" x="390.5" y="-152.5" font-family="Helvetica,sans-Serif" font-size="10.00">C:/Users/lukac/CLionProjects</text>
<text text-anchor="middle" x="455" y="-141.5" font-family="Helvetica,sans-Serif" font-size="10.00">/virus_real/src/iface.cpp</text>
</a>
</g>
</g>
<!-- Node11&#45;&gt;Node14 -->
<g id="edge14" class="edge">
<title>Node11&#45;&gt;Node14</title>
<path fill="none" stroke="midnightblue" d="M443.59,-191.7C446.11,-182.59 448.91,-172.49 451.1,-164.58"/>
<polygon fill="midnightblue" stroke="midnightblue" points="440.2,-190.82 440.91,-201.4 446.95,-192.69 440.2,-190.82"/>
</g>
<!-- Node15 -->
<g id="node15" class="node">
<title>Node15</title>
<g id="a_node15"><a xlink:href="../../d2/d5e/protocol_8h.html" target="_top" xlink:title=" ">
<polygon fill="none" stroke="black" points="56.5,-134.5 56.5,-164.5 201.5,-164.5 201.5,-134.5 56.5,-134.5"/>
<text text-anchor="start" x="64.5" y="-152.5" font-family="Helvetica,sans-Serif" font-size="10.00">C:/Users/lukac/CLionProjects</text>
<text text-anchor="middle" x="129" y="-141.5" font-family="Helvetica,sans-Serif" font-size="10.00">/virus_real/src/protocol.h</text>
</a>
</g>
</g>
<!-- Node11&#45;&gt;Node15 -->
<g id="edge16" class="edge">
<title>Node11&#45;&gt;Node15</title>
<path fill="none" stroke="midnightblue" d="M360.63,-199.38C309.97,-188.69 244.13,-174.8 195.6,-164.55"/>
<polygon fill="midnightblue" stroke="midnightblue" points="360.04,-202.84 370.55,-201.48 361.49,-195.99 360.04,-202.84"/>
</g>
<!-- Node17 -->
<g id="node17" class="node">
<title>Node17</title>
<g id="a_node17"><a xlink:href="../../d2/d02/visualization_8h.html" target="_top" xlink:title=" ">
<polygon fill="none" stroke="black" points="641.5,-134.5 641.5,-164.5 786.5,-164.5 786.5,-134.5 641.5,-134.5"/>
<text text-anchor="start" x="649.5" y="-152.5" font-family="Helvetica,sans-Serif" font-size="10.00">C:/Users/lukac/CLionProjects</text>
<text text-anchor="middle" x="714" y="-141.5" font-family="Helvetica,sans-Serif" font-size="10.00">/virus_real/src/visualization.h</text>
</a>
</g>
</g>
<!-- Node11&#45;&gt;Node17 -->
<g id="edge19" class="edge">
<title>Node11&#45;&gt;Node17</title>
<path fill="none" stroke="midnightblue" d="M506.52,-199.19C551.89,-188.54 610.51,-174.78 653.87,-164.61"/>
<polygon fill="midnightblue" stroke="midnightblue" points="505.7,-195.78 496.76,-201.48 507.3,-202.6 505.7,-195.78"/>
</g>
<!-- Node12&#45;&gt;Node4 -->
<g id="edge12" class="edge">
<title>Node12&#45;&gt;Node4</title>
<path fill="none" stroke="midnightblue" d="M358.81,-132.05C401.97,-121.43 457.54,-107.74 498.69,-97.61"/>
<polygon fill="midnightblue" stroke="midnightblue" points="357.83,-128.69 348.96,-134.48 359.51,-135.48 357.83,-128.69"/>
</g>
<!-- Node13 -->
<g id="node13" class="node">
<title>Node13</title>
<g id="a_node13"><a xlink:href="../../d6/d99/graphics_8cpp.html" target="_top" xlink:title=" ">
<polygon fill="none" stroke="black" points="219.5,-67.5 219.5,-97.5 364.5,-97.5 364.5,-67.5 219.5,-67.5"/>
<text text-anchor="start" x="227.5" y="-85.5" font-family="Helvetica,sans-Serif" font-size="10.00">C:/Users/lukac/CLionProjects</text>
<text text-anchor="middle" x="292" y="-74.5" font-family="Helvetica,sans-Serif" font-size="10.00">/virus_real/src/graphics.cpp</text>
</a>
</g>
</g>
<!-- Node12&#45;&gt;Node13 -->
<g id="edge13" class="edge">
<title>Node12&#45;&gt;Node13</title>
<path fill="none" stroke="midnightblue" d="M292,-124.11C292,-115.15 292,-105.32 292,-97.58"/>
<polygon fill="midnightblue" stroke="midnightblue" points="288.5,-124.4 292,-134.4 295.5,-124.4 288.5,-124.4"/>
</g>
<!-- Node15&#45;&gt;Node4 -->
<g id="edge17" class="edge">
<title>Node15&#45;&gt;Node4</title>
<path fill="none" stroke="midnightblue" d="M211.76,-133.74C311.21,-117.7 415.5,-102.82 483.33,-93.41"/>
<polygon fill="midnightblue" stroke="midnightblue" points="211.15,-130.29 201.84,-135.35 212.27,-137.2 211.15,-130.29"/>
</g>
<!-- Node16 -->
<g id="node16" class="node">
<title>Node16</title>
<g id="a_node16"><a xlink:href="../../d4/d25/protocol_8cpp.html" target="_top" xlink:title=" ">
<polygon fill="none" stroke="black" points="6.5,-67.5 6.5,-97.5 151.5,-97.5 151.5,-67.5 6.5,-67.5"/>
<text text-anchor="start" x="14.5" y="-85.5" font-family="Helvetica,sans-Serif" font-size="10.00">C:/Users/lukac/CLionProjects</text>
<text text-anchor="middle" x="79" y="-74.5" font-family="Helvetica,sans-Serif" font-size="10.00">/virus_real/src/protocol.cpp</text>
</a>
</g>
</g>
<!-- Node15&#45;&gt;Node16 -->
<g id="edge18" class="edge">
<title>Node15&#45;&gt;Node16</title>
<path fill="none" stroke="midnightblue" d="M112.04,-126.45C104.69,-116.9 96.31,-106 89.83,-97.58"/>
<polygon fill="midnightblue" stroke="midnightblue" points="109.28,-128.6 118.15,-134.4 114.83,-124.34 109.28,-128.6"/>
</g>
<!-- Node17&#45;&gt;Node6 -->
<g id="edge20" class="edge">
<title>Node17&#45;&gt;Node6</title>
<path fill="none" stroke="midnightblue" d="M709.25,-124.39C703.84,-96.9 695.17,-52.89 690.76,-30.52"/>
<polygon fill="midnightblue" stroke="midnightblue" points="705.85,-125.24 711.22,-134.37 712.72,-123.89 705.85,-125.24"/>
</g>
<!-- Node18 -->
<g id="node18" class="node">
<title>Node18</title>
<g id="a_node18"><a xlink:href="../../d3/d49/visualization_8cpp.html" target="_top" xlink:title=" ">
<polygon fill="none" stroke="black" points="716.5,-67.5 716.5,-97.5 867.5,-97.5 867.5,-67.5 716.5,-67.5"/>
<text text-anchor="start" x="724.5" y="-85.5" font-family="Helvetica,sans-Serif" font-size="10.00">C:/Users/lukac/CLionProjects</text>
<text text-anchor="middle" x="792" y="-74.5" font-family="Helvetica,sans-Serif" font-size="10.00">/virus_real/src/visualization.cpp</text>
</a>
</g>
</g>
<!-- Node17&#45;&gt;Node18 -->
<g id="edge21" class="edge">
<title>Node17&#45;&gt;Node18</title>
<path fill="none" stroke="midnightblue" d="M738.74,-127.88C750.59,-118.01 764.48,-106.43 775.11,-97.58"/>
<polygon fill="midnightblue" stroke="midnightblue" points="736.37,-125.31 730.92,-134.4 740.85,-130.68 736.37,-125.31"/>
</g>
<!-- Node19&#45;&gt;Node9 -->
<g id="edge24" class="edge">
<title>Node19&#45;&gt;Node9</title>
<path fill="none" stroke="midnightblue" d="M126.68,-332.23C159.35,-321.71 200.57,-308.45 231.25,-298.58"/>
<polygon fill="midnightblue" stroke="midnightblue" points="125.28,-329 116.83,-335.4 127.42,-335.66 125.28,-329"/>
</g>
<!-- Node20 -->
<g id="node20" class="node">
<title>Node20</title>
<g id="a_node20"><a xlink:href="../../d0/d23/graphalgos_8cpp.html" target="_top" xlink:title=" ">
<polygon fill="none" stroke="black" points="0,-268.5 0,-298.5 146,-298.5 146,-268.5 0,-268.5"/>
<text text-anchor="start" x="8" y="-286.5" font-family="Helvetica,sans-Serif" font-size="10.00">C:/Users/lukac/CLionProjects</text>
<text text-anchor="middle" x="73" y="-275.5" font-family="Helvetica,sans-Serif" font-size="10.00">/virus_real/src/graphalgos.cpp</text>
</a>
</g>
</g>
<!-- Node19&#45;&gt;Node20 -->
<g id="edge25" class="edge">
<title>Node19&#45;&gt;Node20</title>
<path fill="none" stroke="midnightblue" d="M73,-325.11C73,-316.15 73,-306.32 73,-298.58"/>
<polygon fill="midnightblue" stroke="midnightblue" points="69.5,-325.4 73,-335.4 76.5,-325.4 69.5,-325.4"/>
</g>
<!-- Node22&#45;&gt;Node4 -->
<g id="edge30" class="edge">
<title>Node22&#45;&gt;Node4</title>
<path fill="none" stroke="midnightblue" d="M406.01,-396.21C417.16,-387.51 429.74,-376.86 440,-366 490.49,-312.55 509.94,-300.36 537,-232 555.46,-185.36 556.89,-124.64 556.47,-97.58"/>
<polygon fill="midnightblue" stroke="midnightblue" points="403.66,-393.6 397.83,-402.45 407.91,-399.17 403.66,-393.6"/>
</g>
<!-- Node22&#45;&gt;Node9 -->
<g id="edge29" class="edge">
<title>Node22&#45;&gt;Node9</title>
<path fill="none" stroke="midnightblue" d="M298.62,-398.44C282.6,-391.04 267.72,-380.64 258,-366 244.33,-345.41 256.51,-315.96 266.1,-298.68"/>
<polygon fill="midnightblue" stroke="midnightblue" points="297.57,-401.79 308.15,-402.45 300.29,-395.34 297.57,-401.79"/>
</g>
<!-- Node22&#45;&gt;Node11 -->
<g id="edge32" class="edge">
<title>Node22&#45;&gt;Node11</title>
<path fill="none" stroke="midnightblue" d="M401.36,-394.89C408.89,-386.6 416.45,-376.58 421,-366 440.78,-320.03 439.83,-258.97 438.16,-231.7"/>
<polygon fill="midnightblue" stroke="midnightblue" points="398.68,-392.63 394.26,-402.26 403.72,-397.49 398.68,-392.63"/>
</g>
<!-- Node22&#45;&gt;Node16 -->
<g id="edge34" class="edge">
<title>Node22&#45;&gt;Node16</title>
<path fill="none" stroke="midnightblue" d="M317.42,-399.2C294.56,-391.12 269.02,-380.11 248,-366 198.14,-332.54 197.41,-310.51 155,-268 108.16,-221.04 73.11,-225.98 47,-165 37.01,-141.66 53.67,-114.09 66.46,-97.74"/>
<polygon fill="midnightblue" stroke="midnightblue" points="316.43,-402.56 327.03,-402.49 318.7,-395.94 316.43,-402.56"/>
</g>
<!-- Node22&#45;&gt;Node19 -->
<g id="edge31" class="edge">
<title>Node22&#45;&gt;Node19</title>
<path fill="none" stroke="midnightblue" d="M302.37,-400.38C252.2,-389.69 187.01,-375.8 138.95,-365.55"/>
<polygon fill="midnightblue" stroke="midnightblue" points="301.69,-403.81 312.2,-402.48 303.14,-396.97 301.69,-403.81"/>
</g>
<!-- Node23 -->
<g id="node23" class="node">
<title>Node23</title>
<g id="a_node23"><a xlink:href="../../de/d61/logic_8cpp.html" target="_top" xlink:title=" ">
<polygon fill="none" stroke="black" points="267.5,-335.5 267.5,-365.5 412.5,-365.5 412.5,-335.5 267.5,-335.5"/>
<text text-anchor="start" x="275.5" y="-353.5" font-family="Helvetica,sans-Serif" font-size="10.00">C:/Users/lukac/CLionProjects</text>
<text text-anchor="middle" x="340" y="-342.5" font-family="Helvetica,sans-Serif" font-size="10.00">/virus_real/src/logic.cpp</text>
</a>
</g>
</g>
<!-- Node22&#45;&gt;Node23 -->
<g id="edge33" class="edge">
<title>Node22&#45;&gt;Node23</title>
<path fill="none" stroke="midnightblue" d="M364.6,-393.58C359.14,-384.24 353.01,-373.75 348.23,-365.58"/>
<polygon fill="midnightblue" stroke="midnightblue" points="361.69,-395.53 369.75,-402.4 367.73,-392 361.69,-395.53"/>
</g>
<!-- Node24&#45;&gt;Node17 -->
<g id="edge36" class="edge">
<title>Node24&#45;&gt;Node17</title>
<path fill="none" stroke="midnightblue" d="M742.95,-397.79C756.38,-390.07 769.38,-379.65 777,-366 815.87,-296.41 752.44,-200.48 725.34,-164.71"/>
<polygon fill="midnightblue" stroke="midnightblue" points="741.31,-394.7 734.12,-402.48 744.59,-400.88 741.31,-394.7"/>
</g>
<!-- Node25 -->
<g id="node25" class="node">
<title>Node25</title>
<g id="a_node25"><a xlink:href="../../d8/d8e/window_8cpp.html" target="_top" xlink:title=" ">
<polygon fill="none" stroke="black" points="622.5,-335.5 622.5,-365.5 767.5,-365.5 767.5,-335.5 622.5,-335.5"/>
<text text-anchor="start" x="630.5" y="-353.5" font-family="Helvetica,sans-Serif" font-size="10.00">C:/Users/lukac/CLionProjects</text>
<text text-anchor="middle" x="695" y="-342.5" font-family="Helvetica,sans-Serif" font-size="10.00">/virus_real/src/window.cpp</text>
</a>
</g>
</g>
<!-- Node24&#45;&gt;Node25 -->
<g id="edge37" class="edge">
<title>Node24&#45;&gt;Node25</title>
<path fill="none" stroke="midnightblue" d="M695,-392.11C695,-383.15 695,-373.32 695,-365.58"/>
<polygon fill="midnightblue" stroke="midnightblue" points="691.5,-392.4 695,-402.4 698.5,-392.4 691.5,-392.4"/>
</g>
</g>
</svg>
        <g id="navigator" transform="translate(0 0)" fill="#404254">
                <rect fill="#f2f5e9" fill-opacity="0.5" stroke="#606060" stroke-width=".5" x="0" y="0" width="60" height="60"/>
                <use id="zoomplus" xlink:href="#zoomPlus" x="17" y="9" onmousedown="handleZoom(evt,'in')"/>
                <use id="zoomminus" xlink:href="#zoomMin" x="42" y="9" onmousedown="handleZoom(evt,'out')"/>
                <use id="reset" xlink:href="#resetDef" x="30" y="36" onmousedown="handleReset()"/>
                <g id="arrowUp" xlink:href="#dirArrow" transform="translate(30 24)" onmousedown="handlePan(0,-1)">
                  <use xlink:href="#rim" fill="#404040">
                        <set attributeName="fill" to="#808080" begin="arrowUp.mouseover" end="arrowUp.mouseout"/>
                  </use>
                  <path fill="none" stroke="white" stroke-width="1.5" d="M0,-3.0v7 M-2.5,-0.5L0,-3.0L2.5,-0.5"/>
                </g>
                <g id="arrowRight" xlink:href="#dirArrow" transform="rotate(90) translate(36 -43)" onmousedown="handlePan(1,0)">
                  <use xlink:href="#rim" fill="#404040">
                        <set attributeName="fill" to="#808080" begin="arrowRight.mouseover" end="arrowRight.mouseout"/>
                  </use>
                  <path fill="none" stroke="white" stroke-width="1.5" d="M0,-3.0v7 M-2.5,-0.5L0,-3.0L2.5,-0.5"/>
                </g>
                <g id="arrowDown" xlink:href="#dirArrow" transform="rotate(180) translate(-30 -48)" onmousedown="handlePan(0,1)">
                  <use xlink:href="#rim" fill="#404040">
                        <set attributeName="fill" to="#808080" begin="arrowDown.mouseover" end="arrowDown.mouseout"/>
                  </use>
                  <path fill="none" stroke="white" stroke-width="1.5" d="M0,-3.0v7 M-2.5,-0.5L0,-3.0L2.5,-0.5"/>
                </g>
                <g id="arrowLeft" xlink:href="#dirArrow" transform="rotate(270) translate(-36 17)" onmousedown="handlePan(-1,0)">
                  <use xlink:href="#rim" fill="#404040">
                        <set attributeName="fill" to="#808080" begin="arrowLeft.mouseover" end="arrowLeft.mouseout"/>
                  </use>
                  <path fill="none" stroke="white" stroke-width="1.5" d="M0,-3.0v7 M-2.5,-0.5L0,-3.0L2.5,-0.5"/>
                </g>
        </g>
        <svg viewBox="0 0 15 15" width="100%" height="30px" preserveAspectRatio="xMaxYMin meet">
         <g id="arrow_out" transform="scale(0.3 0.3)">
          <a xlink:href="field_8h__dep__incl_org.svg" target="_base">
           <rect id="button" ry="5" rx="5" y="6" x="6" height="38" width="38"
                fill="#f2f5e9" fill-opacity="0.5" stroke="#606060" stroke-width="1.0"/>
           <path id="arrow"
             d="M 11.500037,31.436501 C 11.940474,20.09759 22.043105,11.32322 32.158766,21.979434 L 37.068811,17.246167 C 37.068811,17.246167 37.088388,32 37.088388,32 L 22.160133,31.978069 C 22.160133,31.978069 26.997745,27.140456 26.997745,27.140456 C 18.528582,18.264221 13.291696,25.230495 11.500037,31.436501 z"
             style="fill:#404040;"/>
          </a>
         </g>
        </svg>
</svg>
