<?xml version="1.0" encoding="UTF-8" standalone="no"?>
<!DOCTYPE svg PUBLIC "-//W3C//DTD SVG 1.1//EN"
 "http://www.w3.org/Graphics/SVG/1.1/DTD/svg11.dtd">
<!-- Generated by graphviz version 2.44.1 (20200629.0846)
 -->
<!-- Title: C:/Users/lukac/CLionProjects/virus_real/src/logic.cpp Pages: 1 -->
<!--zoomable 375 -->
<svg id="main" version="1.1" xmlns="http://www.w3.org/2000/svg" xmlns:xlink="http://www.w3.org/1999/xlink" xml:space="preserve" onload="init(evt)">
<style type="text/css"><![CDATA[
.edge:hover path { stroke: red; }
.edge:hover polygon { stroke: red; fill: red; }
]]></style>
<script type="text/javascript"><![CDATA[
var edges = document.getElementsByTagName('g');
if (edges && edges.length) {
  for (var i=0;i<edges.length;i++) {
    if (edges[i].id.substr(0,4)=='edge') {
      edges[i].setAttribute('class','edge');
    }
  }
}
]]></script>
        <defs>
                <circle id="rim" cx="0" cy="0" r="7"/>
                <circle id="rim2" cx="0" cy="0" r="3.5"/>
                <g id="zoomPlus">
                        <use xlink:href="#rim" fill="#404040">
                                <set attributeName="fill" to="#808080" begin="zoomplus.mouseover" end="zoomplus.mouseout"/>
                        </use>
                        <path d="M-4,0h8M0,-4v8" fill="none" stroke="white" stroke-width="1.5" pointer-events="none"/>
                </g>
                <g id="zoomMin">
                        <use xlink:href="#rim" fill="#404040">
                                <set attributeName="fill" to="#808080" begin="zoomminus.mouseover" end="zoomminus.mouseout"/>
                        </use>
                        <path d="M-4,0h8" fill="none" stroke="white" stroke-width="1.5" pointer-events="none"/>
                </g>
                <g id="dirArrow">
                        <path fill="none" stroke="white" stroke-width="1.5" d="M0,-3.0v7 M-2.5,-0.5L0,-3.0L2.5,-0.5"/>
                </g>
               <g id="resetDef">
                       <use xlink:href="#rim2" fill="#404040">
                               <set attributeName="fill" to="#808080" begin="reset.mouseover" end="reset.mouseout"/>
                       </use>
               </g>
        </defs>

<script type="text/javascript">
var viewWidth = 701;
var viewHeight = 375;
var sectionId = 'dynsection-0';
</script>
<script xlink:href="../../svgpan.js"/>
<svg id="graph" class="graph">
<g id="viewport">
<title>C:/Users/lukac/CLionProjects/virus_real/src/logic.cpp</title>
<!-- Node1 -->
<g id="node1" class="node">
<title>Node1</title>
<g id="a_node1"><a xlink:title=" ">
<polygon fill="#bfbfbf" stroke="black" points="386.5,-336.5 386.5,-366.5 531.5,-366.5 531.5,-336.5 386.5,-336.5"/>
<text text-anchor="start" x="394.5" y="-354.5" font-family="Helvetica,sans-Serif" font-size="10.00">C:/Users/lukac/CLionProjects</text>
<text text-anchor="middle" x="459" y="-343.5" font-family="Helvetica,sans-Serif" font-size="10.00">/virus_real/src/logic.cpp</text>
</a>
</g>
</g>
<!-- Node2 -->
<g id="node2" class="node">
<title>Node2</title>
<g id="a_node2"><a xlink:title=" ">
<polygon fill="none" stroke="#bfbfbf" points="2.5,-0.5 2.5,-19.5 45.5,-19.5 45.5,-0.5 2.5,-0.5"/>
<text text-anchor="middle" x="24" y="-7.5" font-family="Helvetica,sans-Serif" font-size="10.00">queue</text>
</a>
</g>
</g>
<!-- Node1&#45;&gt;Node2 -->
<g id="edge1" class="edge">
<title>Node1&#45;&gt;Node2</title>
<path fill="none" stroke="midnightblue" d="M386.27,-347.18C256.84,-339.28 0,-313.68 0,-235 0,-235 0,-235 0,-121 0,-88.06 10.4,-50.82 17.51,-29.21"/>
<polygon fill="midnightblue" stroke="midnightblue" points="20.84,-30.29 20.76,-19.7 14.22,-28.03 20.84,-30.29"/>
</g>
<!-- Node3 -->
<g id="node3" class="node">
<title>Node3</title>
<g id="a_node3"><a xlink:title=" ">
<polygon fill="none" stroke="#bfbfbf" points="499.5,-280.5 499.5,-299.5 550.5,-299.5 550.5,-280.5 499.5,-280.5"/>
<text text-anchor="middle" x="525" y="-287.5" font-family="Helvetica,sans-Serif" font-size="10.00">numeric</text>
</a>
</g>
</g>
<!-- Node1&#45;&gt;Node3 -->
<g id="edge2" class="edge">
<title>Node1&#45;&gt;Node3</title>
<path fill="none" stroke="midnightblue" d="M474.64,-336.4C484.63,-327.4 497.58,-315.72 507.85,-306.47"/>
<polygon fill="midnightblue" stroke="midnightblue" points="510.31,-308.95 515.4,-299.66 505.63,-303.75 510.31,-308.95"/>
</g>
<!-- Node4 -->
<g id="node4" class="node">
<title>Node4</title>
<g id="a_node4"><a xlink:href="../../d3/daa/logic_8h.html" target="_top" xlink:title=" ">
<polygon fill="none" stroke="black" points="436.5,-280.5 436.5,-299.5 481.5,-299.5 481.5,-280.5 436.5,-280.5"/>
<text text-anchor="middle" x="459" y="-287.5" font-family="Helvetica,sans-Serif" font-size="10.00">logic.h</text>
</a>
</g>
</g>
<!-- Node1&#45;&gt;Node4 -->
<g id="edge3" class="edge">
<title>Node1&#45;&gt;Node4</title>
<path fill="none" stroke="midnightblue" d="M459,-336.4C459,-328.47 459,-318.46 459,-309.86"/>
<polygon fill="midnightblue" stroke="midnightblue" points="462.5,-309.66 459,-299.66 455.5,-309.66 462.5,-309.66"/>
</g>
<!-- Node5 -->
<g id="node5" class="node">
<title>Node5</title>
<g id="a_node5"><a xlink:title=" ">
<polygon fill="none" stroke="#bfbfbf" points="48,-56.5 48,-75.5 104,-75.5 104,-56.5 48,-56.5"/>
<text text-anchor="middle" x="76" y="-63.5" font-family="Helvetica,sans-Serif" font-size="10.00">algorithm</text>
</a>
</g>
</g>
<!-- Node4&#45;&gt;Node5 -->
<g id="edge4" class="edge">
<title>Node4&#45;&gt;Node5</title>
<path fill="none" stroke="midnightblue" d="M436.39,-287.35C379.67,-282.17 229.05,-261.87 133,-188 99.82,-162.48 85.11,-112.91 79.3,-85.81"/>
<polygon fill="midnightblue" stroke="midnightblue" points="82.68,-84.85 77.33,-75.71 75.81,-86.19 82.68,-84.85"/>
</g>
<!-- Node6 -->
<g id="node6" class="node">
<title>Node6</title>
<g id="a_node6"><a xlink:title=" ">
<polygon fill="none" stroke="#bfbfbf" points="389,-56.5 389,-75.5 431,-75.5 431,-56.5 389,-56.5"/>
<text text-anchor="middle" x="410" y="-63.5" font-family="Helvetica,sans-Serif" font-size="10.00">vector</text>
</a>
</g>
</g>
<!-- Node4&#45;&gt;Node6 -->
<g id="edge5" class="edge">
<title>Node4&#45;&gt;Node6</title>
<path fill="none" stroke="midnightblue" d="M457.08,-280.3C449.85,-247.56 424.21,-131.38 414.12,-85.67"/>
<polygon fill="midnightblue" stroke="midnightblue" points="417.53,-84.89 411.96,-75.88 410.7,-86.4 417.53,-84.89"/>
</g>
<!-- Node7 -->
<g id="node7" class="node">
<title>Node7</title>
<g id="a_node7"><a xlink:title=" ">
<polygon fill="none" stroke="#bfbfbf" points="528.5,-56.5 528.5,-75.5 587.5,-75.5 587.5,-56.5 528.5,-56.5"/>
<text text-anchor="middle" x="558" y="-63.5" font-family="Helvetica,sans-Serif" font-size="10.00">stdexcept</text>
</a>
</g>
</g>
<!-- Node4&#45;&gt;Node7 -->
<g id="edge6" class="edge">
<title>Node4&#45;&gt;Node7</title>
<path fill="none" stroke="midnightblue" d="M465.67,-280.42C482.9,-257.7 528.97,-193.54 549,-132 553.91,-116.92 556.14,-99.02 557.15,-85.82"/>
<polygon fill="midnightblue" stroke="midnightblue" points="560.66,-85.82 557.77,-75.63 553.67,-85.4 560.66,-85.82"/>
</g>
<!-- Node8 -->
<g id="node8" class="node">
<title>Node8</title>
<g id="a_node8"><a xlink:title=" ">
<polygon fill="none" stroke="#bfbfbf" points="440,-0.5 440,-19.5 484,-19.5 484,-0.5 440,-0.5"/>
<text text-anchor="middle" x="462" y="-7.5" font-family="Helvetica,sans-Serif" font-size="10.00">cmath</text>
</a>
</g>
</g>
<!-- Node4&#45;&gt;Node8 -->
<g id="edge7" class="edge">
<title>Node4&#45;&gt;Node8</title>
<path fill="none" stroke="midnightblue" d="M481.67,-282.39C484.79,-281.54 487.97,-280.72 491,-280 571.2,-260.82 612.16,-299.65 673,-244 695.21,-223.69 692,-209.1 692,-179 692,-179 692,-179 692,-121 692,-34.39 557.62,-15.91 494.29,-12.02"/>
<polygon fill="midnightblue" stroke="midnightblue" points="494.22,-8.51 484.05,-11.48 493.85,-15.5 494.22,-8.51"/>
</g>
<!-- Node9 -->
<g id="node9" class="node">
<title>Node9</title>
<g id="a_node9"><a xlink:href="../../da/d15/grid_8h.html" target="_top" xlink:title=" ">
<polygon fill="none" stroke="black" points="295.5,-224.5 295.5,-243.5 336.5,-243.5 336.5,-224.5 295.5,-224.5"/>
<text text-anchor="middle" x="316" y="-231.5" font-family="Helvetica,sans-Serif" font-size="10.00">grid.h</text>
</a>
</g>
</g>
<!-- Node4&#45;&gt;Node9 -->
<g id="edge8" class="edge">
<title>Node4&#45;&gt;Node9</title>
<path fill="none" stroke="midnightblue" d="M436.34,-280.44C412.04,-271.27 373.32,-256.64 346.39,-246.47"/>
<polygon fill="midnightblue" stroke="midnightblue" points="347.29,-243.07 336.7,-242.82 344.81,-249.62 347.29,-243.07"/>
</g>
<!-- Node13 -->
<g id="node13" class="node">
<title>Node13</title>
<g id="a_node13"><a xlink:href="../../d5/d60/utils_8h.html" target="_top" xlink:title=" ">
<polygon fill="none" stroke="black" points="476.5,-112.5 476.5,-131.5 519.5,-131.5 519.5,-112.5 476.5,-112.5"/>
<text text-anchor="middle" x="498" y="-119.5" font-family="Helvetica,sans-Serif" font-size="10.00">utils.h</text>
</a>
</g>
</g>
<!-- Node4&#45;&gt;Node13 -->
<g id="edge36" class="edge">
<title>Node4&#45;&gt;Node13</title>
<path fill="none" stroke="midnightblue" d="M461.94,-280.44C464.96,-271.45 469.69,-256.83 473,-244 482.26,-208.12 490.41,-165.57 494.73,-141.69"/>
<polygon fill="midnightblue" stroke="midnightblue" points="498.22,-142.03 496.53,-131.57 491.33,-140.81 498.22,-142.03"/>
</g>
<!-- Node16 -->
<g id="node16" class="node">
<title>Node16</title>
<g id="a_node16"><a xlink:title=" ">
<polygon fill="none" stroke="#bfbfbf" points="328,-112.5 328,-131.5 382,-131.5 382,-112.5 328,-112.5"/>
<text text-anchor="middle" x="355" y="-119.5" font-family="Helvetica,sans-Serif" font-size="10.00">iostream</text>
</a>
</g>
</g>
<!-- Node4&#45;&gt;Node16 -->
<g id="edge35" class="edge">
<title>Node4&#45;&gt;Node16</title>
<path fill="none" stroke="midnightblue" d="M453.41,-280.08C436.83,-253.61 387.71,-175.21 365.78,-140.21"/>
<polygon fill="midnightblue" stroke="midnightblue" points="368.64,-138.18 360.37,-131.57 362.71,-141.9 368.64,-138.18"/>
</g>
<!-- Node20 -->
<g id="node20" class="node">
<title>Node20</title>
<g id="a_node20"><a xlink:href="../../db/d16/config_8h.html" target="_top" xlink:title=" ">
<polygon fill="none" stroke="black" points="614,-224.5 614,-243.5 664,-243.5 664,-224.5 614,-224.5"/>
<text text-anchor="middle" x="639" y="-231.5" font-family="Helvetica,sans-Serif" font-size="10.00">config.h</text>
</a>
</g>
</g>
<!-- Node4&#45;&gt;Node20 -->
<g id="edge34" class="edge">
<title>Node4&#45;&gt;Node20</title>
<path fill="none" stroke="midnightblue" d="M481.8,-282.16C512.67,-272.9 568.04,-256.29 604.15,-245.45"/>
<polygon fill="midnightblue" stroke="midnightblue" points="605.21,-248.79 613.79,-242.56 603.2,-242.09 605.21,-248.79"/>
</g>
<!-- Node9&#45;&gt;Node5 -->
<g id="edge33" class="edge">
<title>Node9&#45;&gt;Node5</title>
<path fill="none" stroke="midnightblue" d="M295.25,-231.51C263.24,-228.29 201.1,-218.33 159,-188 121.41,-160.92 95.34,-111.25 83.39,-84.75"/>
<polygon fill="midnightblue" stroke="midnightblue" points="86.58,-83.31 79.39,-75.53 80.16,-86.1 86.58,-83.31"/>
</g>
<!-- Node9&#45;&gt;Node6 -->
<g id="edge9" class="edge">
<title>Node9&#45;&gt;Node6</title>
<path fill="none" stroke="midnightblue" d="M324.22,-224.26C339.48,-207.59 372.33,-169.55 391,-132 398.36,-117.2 403.37,-99.04 406.39,-85.69"/>
<polygon fill="midnightblue" stroke="midnightblue" points="409.84,-86.28 408.46,-75.77 402.99,-84.85 409.84,-86.28"/>
</g>
<!-- Node9&#45;&gt;Node7 -->
<g id="edge10" class="edge">
<title>Node9&#45;&gt;Node7</title>
<path fill="none" stroke="midnightblue" d="M336.55,-228.57C378.35,-218.56 473.97,-190.36 529,-132 541.31,-118.95 548.98,-99.79 553.32,-85.66"/>
<polygon fill="midnightblue" stroke="midnightblue" points="556.81,-86.18 556.11,-75.61 550.06,-84.31 556.81,-86.18"/>
</g>
<!-- Node10 -->
<g id="node10" class="node">
<title>Node10</title>
<g id="a_node10"><a xlink:href="../../d5/d5a/field_8h.html" target="_top" xlink:title=" ">
<polygon fill="none" stroke="black" points="123,-56.5 123,-75.5 165,-75.5 165,-56.5 123,-56.5"/>
<text text-anchor="middle" x="144" y="-63.5" font-family="Helvetica,sans-Serif" font-size="10.00">field.h</text>
</a>
</g>
</g>
<!-- Node9&#45;&gt;Node10 -->
<g id="edge11" class="edge">
<title>Node9&#45;&gt;Node10</title>
<path fill="none" stroke="midnightblue" d="M295.27,-229.03C254.95,-220.03 166.96,-193.87 133,-132 125.01,-117.45 129.61,-98.52 135.09,-84.85"/>
<polygon fill="midnightblue" stroke="midnightblue" points="138.35,-86.13 139.26,-75.58 131.97,-83.26 138.35,-86.13"/>
</g>
<!-- Node9&#45;&gt;Node13 -->
<g id="edge16" class="edge">
<title>Node9&#45;&gt;Node13</title>
<path fill="none" stroke="midnightblue" d="M330.28,-224.37C361.65,-205.41 436.78,-160 474.93,-136.94"/>
<polygon fill="midnightblue" stroke="midnightblue" points="477.04,-139.76 483.79,-131.59 473.42,-133.77 477.04,-139.76"/>
</g>
<!-- Node15 -->
<g id="node15" class="node">
<title>Node15</title>
<g id="a_node15"><a xlink:href="../../dc/d5f/country_8h.html" target="_top" xlink:title=" ">
<polygon fill="none" stroke="black" points="259.5,-168.5 259.5,-187.5 316.5,-187.5 316.5,-168.5 259.5,-168.5"/>
<text text-anchor="middle" x="288" y="-175.5" font-family="Helvetica,sans-Serif" font-size="10.00">country.h</text>
</a>
</g>
</g>
<!-- Node9&#45;&gt;Node15 -->
<g id="edge20" class="edge">
<title>Node9&#45;&gt;Node15</title>
<path fill="none" stroke="midnightblue" d="M311.38,-224.08C307.54,-216.69 301.98,-205.95 297.24,-196.81"/>
<polygon fill="midnightblue" stroke="midnightblue" points="300.25,-195.02 292.54,-187.75 294.03,-198.24 300.25,-195.02"/>
</g>
<!-- Node19 -->
<g id="node19" class="node">
<title>Node19</title>
<g id="a_node19"><a xlink:href="../../dd/dae/district_8h.html" target="_top" xlink:title=" ">
<polygon fill="none" stroke="black" points="142,-112.5 142,-131.5 196,-131.5 196,-112.5 142,-112.5"/>
<text text-anchor="middle" x="169" y="-119.5" font-family="Helvetica,sans-Serif" font-size="10.00">district.h</text>
</a>
</g>
</g>
<!-- Node9&#45;&gt;Node19 -->
<g id="edge32" class="edge">
<title>Node9&#45;&gt;Node19</title>
<path fill="none" stroke="midnightblue" d="M302.88,-224.28C289.62,-215.39 268.64,-201.08 251,-188 228.63,-171.42 203.65,-151.39 187.21,-137.99"/>
<polygon fill="midnightblue" stroke="midnightblue" points="189.4,-135.26 179.44,-131.64 184.97,-140.68 189.4,-135.26"/>
</g>
<!-- Node10&#45;&gt;Node2 -->
<g id="edge13" class="edge">
<title>Node10&#45;&gt;Node2</title>
<path fill="none" stroke="midnightblue" d="M124.99,-56.44C105.41,-47.64 74.69,-33.81 52.27,-23.72"/>
<polygon fill="midnightblue" stroke="midnightblue" points="53.48,-20.43 42.93,-19.52 50.61,-26.81 53.48,-20.43"/>
</g>
<!-- Node10&#45;&gt;Node8 -->
<g id="edge15" class="edge">
<title>Node10&#45;&gt;Node8</title>
<path fill="none" stroke="midnightblue" d="M165.25,-58.44C168.5,-57.55 171.83,-56.71 175,-56 266.42,-35.65 376.23,-21.14 429.65,-14.71"/>
<polygon fill="midnightblue" stroke="midnightblue" points="430.34,-18.15 439.86,-13.5 429.51,-11.2 430.34,-18.15"/>
</g>
<!-- Node11 -->
<g id="node11" class="node">
<title>Node11</title>
<g id="a_node11"><a xlink:title=" ">
<polygon fill="none" stroke="#bfbfbf" points="157.5,-0.5 157.5,-19.5 192.5,-19.5 192.5,-0.5 157.5,-0.5"/>
<text text-anchor="middle" x="175" y="-7.5" font-family="Helvetica,sans-Serif" font-size="10.00">map</text>
</a>
</g>
</g>
<!-- Node10&#45;&gt;Node11 -->
<g id="edge12" class="edge">
<title>Node10&#45;&gt;Node11</title>
<path fill="none" stroke="midnightblue" d="M149.12,-56.08C153.41,-48.61 159.66,-37.72 164.94,-28.52"/>
<polygon fill="midnightblue" stroke="midnightblue" points="168.03,-30.17 169.98,-19.75 161.96,-26.68 168.03,-30.17"/>
</g>
<!-- Node12 -->
<g id="node12" class="node">
<title>Node12</title>
<g id="a_node12"><a xlink:title=" ">
<polygon fill="none" stroke="#bfbfbf" points="87,-0.5 87,-19.5 139,-19.5 139,-0.5 87,-0.5"/>
<text text-anchor="middle" x="113" y="-7.5" font-family="Helvetica,sans-Serif" font-size="10.00">sstream</text>
</a>
</g>
</g>
<!-- Node10&#45;&gt;Node12 -->
<g id="edge14" class="edge">
<title>Node10&#45;&gt;Node12</title>
<path fill="none" stroke="midnightblue" d="M138.88,-56.08C134.59,-48.61 128.34,-37.72 123.06,-28.52"/>
<polygon fill="midnightblue" stroke="midnightblue" points="126.04,-26.68 118.02,-19.75 119.97,-30.17 126.04,-26.68"/>
</g>
<!-- Node13&#45;&gt;Node6 -->
<g id="edge19" class="edge">
<title>Node13&#45;&gt;Node6</title>
<path fill="none" stroke="midnightblue" d="M483.86,-112.32C470.13,-103.9 449.06,-90.97 432.94,-81.07"/>
<polygon fill="midnightblue" stroke="midnightblue" points="434.46,-77.9 424.1,-75.65 430.8,-83.87 434.46,-77.9"/>
</g>
<!-- Node13&#45;&gt;Node7 -->
<g id="edge17" class="edge">
<title>Node13&#45;&gt;Node7</title>
<path fill="none" stroke="midnightblue" d="M507.64,-112.32C516.51,-104.34 529.87,-92.31 540.61,-82.65"/>
<polygon fill="midnightblue" stroke="midnightblue" points="543.09,-85.13 548.18,-75.83 538.41,-79.92 543.09,-85.13"/>
</g>
<!-- Node14 -->
<g id="node14" class="node">
<title>Node14</title>
<g id="a_node14"><a xlink:title=" ">
<polygon fill="none" stroke="#bfbfbf" points="465.5,-56.5 465.5,-75.5 510.5,-75.5 510.5,-56.5 465.5,-56.5"/>
<text text-anchor="middle" x="488" y="-63.5" font-family="Helvetica,sans-Serif" font-size="10.00">climits</text>
</a>
</g>
</g>
<!-- Node13&#45;&gt;Node14 -->
<g id="edge18" class="edge">
<title>Node13&#45;&gt;Node14</title>
<path fill="none" stroke="midnightblue" d="M496.35,-112.08C495.02,-104.93 493.12,-94.64 491.46,-85.69"/>
<polygon fill="midnightblue" stroke="midnightblue" points="494.88,-84.95 489.62,-75.75 488,-86.22 494.88,-84.95"/>
</g>
<!-- Node15&#45;&gt;Node6 -->
<g id="edge21" class="edge">
<title>Node15&#45;&gt;Node6</title>
<path fill="none" stroke="midnightblue" d="M290.14,-168.35C293.9,-154.79 302.85,-128.38 319,-112 335.65,-95.11 359.93,-83.55 379.23,-76.37"/>
<polygon fill="midnightblue" stroke="midnightblue" points="380.52,-79.63 388.8,-73.02 378.2,-73.02 380.52,-79.63"/>
</g>
<!-- Node15&#45;&gt;Node13 -->
<g id="edge25" class="edge">
<title>Node15&#45;&gt;Node13</title>
<path fill="none" stroke="midnightblue" d="M316.76,-169.6C355.92,-159.53 425.79,-141.57 466.39,-131.13"/>
<polygon fill="midnightblue" stroke="midnightblue" points="467.47,-134.46 476.28,-128.58 465.73,-127.69 467.47,-134.46"/>
</g>
<!-- Node15&#45;&gt;Node16 -->
<g id="edge22" class="edge">
<title>Node15&#45;&gt;Node16</title>
<path fill="none" stroke="midnightblue" d="M298.76,-168.32C308.77,-160.26 323.89,-148.08 335.93,-138.37"/>
<polygon fill="midnightblue" stroke="midnightblue" points="338.45,-140.83 344.04,-131.83 334.06,-135.38 338.45,-140.83"/>
</g>
<!-- Node17 -->
<g id="node17" class="node">
<title>Node17</title>
<g id="a_node17"><a xlink:title=" ">
<polygon fill="none" stroke="#bfbfbf" points="184,-56.5 184,-75.5 214,-75.5 214,-56.5 184,-56.5"/>
<text text-anchor="middle" x="199" y="-63.5" font-family="Helvetica,sans-Serif" font-size="10.00">set</text>
</a>
</g>
</g>
<!-- Node15&#45;&gt;Node17 -->
<g id="edge23" class="edge">
<title>Node15&#45;&gt;Node17</title>
<path fill="none" stroke="midnightblue" d="M281.02,-168.37C266.26,-150.14 231.71,-107.43 212.49,-83.68"/>
<polygon fill="midnightblue" stroke="midnightblue" points="214.96,-81.16 205.95,-75.59 209.52,-85.57 214.96,-81.16"/>
</g>
<!-- Node18 -->
<g id="node18" class="node">
<title>Node18</title>
<g id="a_node18"><a xlink:title=" ">
<polygon fill="none" stroke="#bfbfbf" points="232,-56.5 232,-75.5 290,-75.5 290,-56.5 232,-56.5"/>
<text text-anchor="middle" x="261" y="-63.5" font-family="Helvetica,sans-Serif" font-size="10.00">functional</text>
</a>
</g>
</g>
<!-- Node15&#45;&gt;Node18 -->
<g id="edge24" class="edge">
<title>Node15&#45;&gt;Node18</title>
<path fill="none" stroke="midnightblue" d="M285.88,-168.37C281.52,-150.62 271.47,-109.67 265.56,-85.6"/>
<polygon fill="midnightblue" stroke="midnightblue" points="268.89,-84.47 263.11,-75.59 262.09,-86.14 268.89,-84.47"/>
</g>
<!-- Node15&#45;&gt;Node19 -->
<g id="edge26" class="edge">
<title>Node15&#45;&gt;Node19</title>
<path fill="none" stroke="midnightblue" d="M269.14,-168.44C249.73,-159.64 219.27,-145.81 197.04,-135.72"/>
<polygon fill="midnightblue" stroke="midnightblue" points="198.32,-132.46 187.77,-131.52 195.43,-138.84 198.32,-132.46"/>
</g>
<!-- Node19&#45;&gt;Node5 -->
<g id="edge29" class="edge">
<title>Node19&#45;&gt;Node5</title>
<path fill="none" stroke="midnightblue" d="M154.06,-112.32C139.41,-103.82 116.87,-90.73 99.76,-80.8"/>
<polygon fill="midnightblue" stroke="midnightblue" points="101.31,-77.65 90.9,-75.65 97.8,-83.7 101.31,-77.65"/>
</g>
<!-- Node19&#45;&gt;Node6 -->
<g id="edge27" class="edge">
<title>Node19&#45;&gt;Node6</title>
<path fill="none" stroke="midnightblue" d="M196.18,-114.91C241.27,-104.81 331.28,-84.64 378.86,-73.98"/>
<polygon fill="midnightblue" stroke="midnightblue" points="379.9,-77.33 388.89,-71.73 378.37,-70.5 379.9,-77.33"/>
</g>
<!-- Node19&#45;&gt;Node10 -->
<g id="edge28" class="edge">
<title>Node19&#45;&gt;Node10</title>
<path fill="none" stroke="midnightblue" d="M164.87,-112.08C161.49,-104.77 156.58,-94.18 152.38,-85.1"/>
<polygon fill="midnightblue" stroke="midnightblue" points="155.43,-83.36 148.05,-75.75 149.08,-86.3 155.43,-83.36"/>
</g>
<!-- Node19&#45;&gt;Node17 -->
<g id="edge30" class="edge">
<title>Node19&#45;&gt;Node17</title>
<path fill="none" stroke="midnightblue" d="M173.95,-112.08C178.1,-104.61 184.15,-93.72 189.27,-84.52"/>
<polygon fill="midnightblue" stroke="midnightblue" points="192.34,-86.19 194.14,-75.75 186.22,-82.79 192.34,-86.19"/>
</g>
<!-- Node19&#45;&gt;Node18 -->
<g id="edge31" class="edge">
<title>Node19&#45;&gt;Node18</title>
<path fill="none" stroke="midnightblue" d="M183.78,-112.32C198.27,-103.82 220.57,-90.73 237.49,-80.8"/>
<polygon fill="midnightblue" stroke="midnightblue" points="239.4,-83.74 246.26,-75.65 235.86,-77.7 239.4,-83.74"/>
</g>
</g>
</svg>
        <g id="navigator" transform="translate(0 0)" fill="#404254">
                <rect fill="#f2f5e9" fill-opacity="0.5" stroke="#606060" stroke-width=".5" x="0" y="0" width="60" height="60"/>
                <use id="zoomplus" xlink:href="#zoomPlus" x="17" y="9" onmousedown="handleZoom(evt,'in')"/>
                <use id="zoomminus" xlink:href="#zoomMin" x="42" y="9" onmousedown="handleZoom(evt,'out')"/>
                <use id="reset" xlink:href="#resetDef" x="30" y="36" onmousedown="handleReset()"/>
                <g id="arrowUp" xlink:href="#dirArrow" transform="translate(30 24)" onmousedown="handlePan(0,-1)">
                  <use xlink:href="#rim" fill="#404040">
                        <set attributeName="fill" to="#808080" begin="arrowUp.mouseover" end="arrowUp.mouseout"/>
                  </use>
                  <path fill="none" stroke="white" stroke-width="1.5" d="M0,-3.0v7 M-2.5,-0.5L0,-3.0L2.5,-0.5"/>
                </g>
                <g id="arrowRight" xlink:href="#dirArrow" transform="rotate(90) translate(36 -43)" onmousedown="handlePan(1,0)">
                  <use xlink:href="#rim" fill="#404040">
                        <set attributeName="fill" to="#808080" begin="arrowRight.mouseover" end="arrowRight.mouseout"/>
                  </use>
                  <path fill="none" stroke="white" stroke-width="1.5" d="M0,-3.0v7 M-2.5,-0.5L0,-3.0L2.5,-0.5"/>
                </g>
                <g id="arrowDown" xlink:href="#dirArrow" transform="rotate(180) translate(-30 -48)" onmousedown="handlePan(0,1)">
                  <use xlink:href="#rim" fill="#404040">
                        <set attributeName="fill" to="#808080" begin="arrowDown.mouseover" end="arrowDown.mouseout"/>
                  </use>
                  <path fill="none" stroke="white" stroke-width="1.5" d="M0,-3.0v7 M-2.5,-0.5L0,-3.0L2.5,-0.5"/>
                </g>
                <g id="arrowLeft" xlink:href="#dirArrow" transform="rotate(270) translate(-36 17)" onmousedown="handlePan(-1,0)">
                  <use xlink:href="#rim" fill="#404040">
                        <set attributeName="fill" to="#808080" begin="arrowLeft.mouseover" end="arrowLeft.mouseout"/>
                  </use>
                  <path fill="none" stroke="white" stroke-width="1.5" d="M0,-3.0v7 M-2.5,-0.5L0,-3.0L2.5,-0.5"/>
                </g>
        </g>
        <svg viewBox="0 0 15 15" width="100%" height="30px" preserveAspectRatio="xMaxYMin meet">
         <g id="arrow_out" transform="scale(0.3 0.3)">
          <a xlink:href="logic_8cpp__incl_org.svg" target="_base">
           <rect id="button" ry="5" rx="5" y="6" x="6" height="38" width="38"
                fill="#f2f5e9" fill-opacity="0.5" stroke="#606060" stroke-width="1.0"/>
           <path id="arrow"
             d="M 11.500037,31.436501 C 11.940474,20.09759 22.043105,11.32322 32.158766,21.979434 L 37.068811,17.246167 C 37.068811,17.246167 37.088388,32 37.088388,32 L 22.160133,31.978069 C 22.160133,31.978069 26.997745,27.140456 26.997745,27.140456 C 18.528582,18.264221 13.291696,25.230495 11.500037,31.436501 z"
             style="fill:#404040;"/>
          </a>
         </g>
        </svg>
</svg>
