<?xml version="1.0" encoding="UTF-8" standalone="no"?>
<!DOCTYPE svg PUBLIC "-//W3C//DTD SVG 1.1//EN"
 "http://www.w3.org/Graphics/SVG/1.1/DTD/svg11.dtd">
<!-- Generated by graphviz version 2.44.1 (20200629.0846)
 -->
<!-- Title: Iface Pages: 1 -->
<!--zoomable 573 -->
<svg id="main" version="1.1" xmlns="http://www.w3.org/2000/svg" xmlns:xlink="http://www.w3.org/1999/xlink" xml:space="preserve" onload="init(evt)">
<style type="text/css"><![CDATA[
.edge:hover path { stroke: red; }
.edge:hover polygon { stroke: red; fill: red; }
]]></style>
<script type="text/javascript"><![CDATA[
var edges = document.getElementsByTagName('g');
if (edges && edges.length) {
  for (var i=0;i<edges.length;i++) {
    if (edges[i].id.substr(0,4)=='edge') {
      edges[i].setAttribute('class','edge');
    }
  }
}
]]></script>
        <defs>
                <circle id="rim" cx="0" cy="0" r="7"/>
                <circle id="rim2" cx="0" cy="0" r="3.5"/>
                <g id="zoomPlus">
                        <use xlink:href="#rim" fill="#404040">
                                <set attributeName="fill" to="#808080" begin="zoomplus.mouseover" end="zoomplus.mouseout"/>
                        </use>
                        <path d="M-4,0h8M0,-4v8" fill="none" stroke="white" stroke-width="1.5" pointer-events="none"/>
                </g>
                <g id="zoomMin">
                        <use xlink:href="#rim" fill="#404040">
                                <set attributeName="fill" to="#808080" begin="zoomminus.mouseover" end="zoomminus.mouseout"/>
                        </use>
                        <path d="M-4,0h8" fill="none" stroke="white" stroke-width="1.5" pointer-events="none"/>
                </g>
                <g id="dirArrow">
                        <path fill="none" stroke="white" stroke-width="1.5" d="M0,-3.0v7 M-2.5,-0.5L0,-3.0L2.5,-0.5"/>
                </g>
               <g id="resetDef">
                       <use xlink:href="#rim2" fill="#404040">
                               <set attributeName="fill" to="#808080" begin="reset.mouseover" end="reset.mouseout"/>
                       </use>
               </g>
        </defs>

<script type="text/javascript">
var viewWidth = 416;
var viewHeight = 573;
var sectionId = 'dynsection-1';
</script>
<script xlink:href="../../svgpan.js"/>
<svg id="graph" class="graph">
<g id="viewport">
<title>Iface</title>
<!-- Node1 -->
<g id="node1" class="node">
<title>Node1</title>
<g id="a_node1"><a xlink:title=" ">
<polygon fill="#bfbfbf" stroke="black" points="159,-0.5 159,-167.5 243,-167.5 243,-0.5 159,-0.5"/>
<text text-anchor="middle" x="201" y="-155.5" font-family="Helvetica,sans-Serif" font-size="10.00">Iface</text>
<polyline fill="none" stroke="black" points="159,-148.5 243,-148.5 "/>
<text text-anchor="middle" x="201" y="-136.5" font-family="Helvetica,sans-Serif" font-size="10.00"> </text>
<polyline fill="none" stroke="black" points="159,-129.5 243,-129.5 "/>
<text text-anchor="start" x="167" y="-117.5" font-family="Helvetica,sans-Serif" font-size="10.00">+ Iface()</text>
<text text-anchor="start" x="167" y="-106.5" font-family="Helvetica,sans-Serif" font-size="10.00">+ Iface()</text>
<text text-anchor="start" x="167" y="-95.5" font-family="Helvetica,sans-Serif" font-size="10.00">+ Iface()</text>
<text text-anchor="start" x="167" y="-84.5" font-family="Helvetica,sans-Serif" font-size="10.00">+ operator=()</text>
<text text-anchor="start" x="167" y="-73.5" font-family="Helvetica,sans-Serif" font-size="10.00">+ Iface()</text>
<text text-anchor="start" x="167" y="-62.5" font-family="Helvetica,sans-Serif" font-size="10.00">+ checkGrid()</text>
<text text-anchor="start" x="167" y="-51.5" font-family="Helvetica,sans-Serif" font-size="10.00">+ setGrid()</text>
<text text-anchor="start" x="167" y="-40.5" font-family="Helvetica,sans-Serif" font-size="10.00">+ getGrid()</text>
<text text-anchor="start" x="167" y="-29.5" font-family="Helvetica,sans-Serif" font-size="10.00">+ initAntiVirus()</text>
<text text-anchor="start" x="167" y="-18.5" font-family="Helvetica,sans-Serif" font-size="10.00">+ login()</text>
<text text-anchor="start" x="167" y="-7.5" font-family="Helvetica,sans-Serif" font-size="10.00">and 11 more...</text>
</a>
</g>
</g>
<!-- Node2 -->
<g id="node2" class="node">
<title>Node2</title>
<g id="a_node2"><a xlink:title=" ">
<polygon fill="none" stroke="#bfbfbf" points="0,-292.5 0,-349.5 62,-349.5 62,-292.5 0,-292.5"/>
<text text-anchor="middle" x="31" y="-337.5" font-family="Helvetica,sans-Serif" font-size="10.00">ostream &amp;</text>
<polyline fill="none" stroke="#bfbfbf" points="0,-330.5 62,-330.5 "/>
<text text-anchor="middle" x="31" y="-318.5" font-family="Helvetica,sans-Serif" font-size="10.00"> </text>
<polyline fill="none" stroke="#bfbfbf" points="0,-311.5 62,-311.5 "/>
<text text-anchor="middle" x="31" y="-299.5" font-family="Helvetica,sans-Serif" font-size="10.00"> </text>
</a>
</g>
</g>
<!-- Node2&#45;&gt;Node1 -->
<g id="edge1" class="edge">
<title>Node2&#45;&gt;Node1</title>
<path fill="none" stroke="#404040" d="M42.27,-292.13C49.5,-275.54 59.63,-254.41 71,-237 94.21,-201.45 124.9,-165.18 150.64,-137"/>
<polygon fill="none" stroke="#404040" points="150.67,-136.96 151.79,-129.84 158.8,-128.14 157.67,-135.26 150.67,-136.96"/>
<text text-anchor="middle" x="118" y="-205.5" font-family="Helvetica,sans-Serif" font-size="10.00"> #ers</text>
<text text-anchor="middle" x="118" y="-194.5" font-family="Helvetica,sans-Serif" font-size="10.00">#os</text>
</g>
<!-- Node3 -->
<g id="node3" class="node">
<title>Node3</title>
<g id="a_node3"><a xlink:href="../../da/d74/class_grid.html" target="_top" xlink:title=" ">
<polygon fill="none" stroke="black" points="80,-237.5 80,-404.5 180,-404.5 180,-237.5 80,-237.5"/>
<text text-anchor="middle" x="130" y="-392.5" font-family="Helvetica,sans-Serif" font-size="10.00">Grid</text>
<polyline fill="none" stroke="black" points="80,-385.5 180,-385.5 "/>
<text text-anchor="middle" x="130" y="-373.5" font-family="Helvetica,sans-Serif" font-size="10.00"> </text>
<polyline fill="none" stroke="black" points="80,-366.5 180,-366.5 "/>
<text text-anchor="start" x="88" y="-354.5" font-family="Helvetica,sans-Serif" font-size="10.00">+ Grid()</text>
<text text-anchor="start" x="88" y="-343.5" font-family="Helvetica,sans-Serif" font-size="10.00">+ Grid()</text>
<text text-anchor="start" x="88" y="-332.5" font-family="Helvetica,sans-Serif" font-size="10.00">+ operator=()</text>
<text text-anchor="start" x="88" y="-321.5" font-family="Helvetica,sans-Serif" font-size="10.00">+ operator=()</text>
<text text-anchor="start" x="88" y="-310.5" font-family="Helvetica,sans-Serif" font-size="10.00">+ Grid()</text>
<text text-anchor="start" x="88" y="-299.5" font-family="Helvetica,sans-Serif" font-size="10.00">+ operator[]()</text>
<text text-anchor="start" x="88" y="-288.5" font-family="Helvetica,sans-Serif" font-size="10.00">+ getWidth()</text>
<text text-anchor="start" x="88" y="-277.5" font-family="Helvetica,sans-Serif" font-size="10.00">+ getHeight()</text>
<text text-anchor="start" x="88" y="-266.5" font-family="Helvetica,sans-Serif" font-size="10.00">+ getCountryByID()</text>
<text text-anchor="start" x="88" y="-255.5" font-family="Helvetica,sans-Serif" font-size="10.00">+ getDistrictByID()</text>
<text text-anchor="start" x="88" y="-244.5" font-family="Helvetica,sans-Serif" font-size="10.00">and 21 more...</text>
</a>
</g>
</g>
<!-- Node3&#45;&gt;Node1 -->
<g id="edge2" class="edge">
<title>Node3&#45;&gt;Node1</title>
<path fill="none" stroke="#404040" d="M154.55,-237.41C159.63,-220.4 164.97,-202.61 170,-186 170.68,-183.76 171.36,-181.5 172.06,-179.21"/>
<polygon fill="none" stroke="#404040" points="172.08,-179.14 170,-172.24 175.57,-167.66 177.65,-174.57 172.08,-179.14"/>
<text text-anchor="middle" x="182.5" y="-200" font-family="Helvetica,sans-Serif" font-size="10.00"> #grid</text>
</g>
<!-- Node4 -->
<g id="node4" class="node">
<title>Node4</title>
<g id="a_node4"><a xlink:href="../../dc/d64/class_utils_1_1_random.html" target="_top" xlink:title=" ">
<polygon fill="none" stroke="black" points="91,-452.5 91,-564.5 169,-564.5 169,-452.5 91,-452.5"/>
<text text-anchor="middle" x="130" y="-552.5" font-family="Helvetica,sans-Serif" font-size="10.00">Utils::Random</text>
<polyline fill="none" stroke="black" points="91,-545.5 169,-545.5 "/>
<text text-anchor="middle" x="130" y="-533.5" font-family="Helvetica,sans-Serif" font-size="10.00"> </text>
<polyline fill="none" stroke="black" points="91,-526.5 169,-526.5 "/>
<text text-anchor="start" x="99" y="-514.5" font-family="Helvetica,sans-Serif" font-size="10.00">+ Random()</text>
<text text-anchor="start" x="99" y="-503.5" font-family="Helvetica,sans-Serif" font-size="10.00">+ Random()</text>
<text text-anchor="start" x="99" y="-492.5" font-family="Helvetica,sans-Serif" font-size="10.00">+ Random()</text>
<text text-anchor="start" x="99" y="-481.5" font-family="Helvetica,sans-Serif" font-size="10.00">+ operator=()</text>
<text text-anchor="start" x="99" y="-470.5" font-family="Helvetica,sans-Serif" font-size="10.00">+ next()</text>
<text text-anchor="start" x="99" y="-459.5" font-family="Helvetica,sans-Serif" font-size="10.00">+ getFactor()</text>
</a>
</g>
</g>
<!-- Node4&#45;&gt;Node3 -->
<g id="edge3" class="edge">
<title>Node4&#45;&gt;Node3</title>
<path fill="none" stroke="#404040" d="M130,-452.35C130,-441.13 130,-429.04 130,-416.89"/>
<polygon fill="none" stroke="#404040" points="130,-416.76 126,-410.76 130,-404.76 134,-410.76 130,-416.76"/>
<text text-anchor="middle" x="151" y="-426" font-family="Helvetica,sans-Serif" font-size="10.00"> +random</text>
</g>
<!-- Node5 -->
<g id="node5" class="node">
<title>Node5</title>
<g id="a_node5"><a xlink:title=" ">
<polygon fill="none" stroke="#bfbfbf" points="198.5,-292.5 198.5,-349.5 241.5,-349.5 241.5,-292.5 198.5,-292.5"/>
<text text-anchor="middle" x="220" y="-337.5" font-family="Helvetica,sans-Serif" font-size="10.00">size_t</text>
<polyline fill="none" stroke="#bfbfbf" points="198.5,-330.5 241.5,-330.5 "/>
<text text-anchor="middle" x="220" y="-318.5" font-family="Helvetica,sans-Serif" font-size="10.00"> </text>
<polyline fill="none" stroke="#bfbfbf" points="198.5,-311.5 241.5,-311.5 "/>
<text text-anchor="middle" x="220" y="-299.5" font-family="Helvetica,sans-Serif" font-size="10.00"> </text>
</a>
</g>
</g>
<!-- Node5&#45;&gt;Node1 -->
<g id="edge4" class="edge">
<title>Node5&#45;&gt;Node1</title>
<path fill="none" stroke="#404040" d="M213.76,-292.31C209.53,-272.11 204.31,-244.01 202,-219 200.83,-206.32 200.12,-192.93 199.71,-179.72"/>
<polygon fill="none" stroke="#404040" points="199.71,-179.67 195.57,-173.76 199.43,-167.67 203.57,-173.57 199.71,-179.67"/>
<text text-anchor="middle" x="239" y="-211" font-family="Helvetica,sans-Serif" font-size="10.00"> #countriesCount</text>
<text text-anchor="middle" x="239" y="-200" font-family="Helvetica,sans-Serif" font-size="10.00">#gameID</text>
<text text-anchor="middle" x="239" y="-189" font-family="Helvetica,sans-Serif" font-size="10.00">#maxTickCount</text>
</g>
<!-- Node6 -->
<g id="node6" class="node">
<title>Node6</title>
<g id="a_node6"><a xlink:title=" ">
<polygon fill="none" stroke="#bfbfbf" points="277.5,-292.5 277.5,-349.5 318.5,-349.5 318.5,-292.5 277.5,-292.5"/>
<text text-anchor="middle" x="298" y="-337.5" font-family="Helvetica,sans-Serif" font-size="10.00">string</text>
<polyline fill="none" stroke="#bfbfbf" points="277.5,-330.5 318.5,-330.5 "/>
<text text-anchor="middle" x="298" y="-318.5" font-family="Helvetica,sans-Serif" font-size="10.00"> </text>
<polyline fill="none" stroke="#bfbfbf" points="277.5,-311.5 318.5,-311.5 "/>
<text text-anchor="middle" x="298" y="-299.5" font-family="Helvetica,sans-Serif" font-size="10.00"> </text>
</a>
</g>
</g>
<!-- Node6&#45;&gt;Node1 -->
<g id="edge5" class="edge">
<title>Node6&#45;&gt;Node1</title>
<path fill="none" stroke="#404040" d="M297.25,-292.25C295.63,-264.39 290.71,-220.73 276,-186 269.49,-170.63 260.18,-155.43 250.32,-141.67"/>
<polygon fill="none" stroke="#404040" points="250.23,-141.56 243.45,-139.13 243.08,-131.93 249.87,-134.36 250.23,-141.56"/>
<text text-anchor="middle" x="314.5" y="-200" font-family="Helvetica,sans-Serif" font-size="10.00"> #teamToken</text>
</g>
<!-- Node7 -->
<g id="node7" class="node">
<title>Node7</title>
<g id="a_node7"><a xlink:title=" ">
<polygon fill="none" stroke="#bfbfbf" points="348.5,-292.5 348.5,-349.5 407.5,-349.5 407.5,-292.5 348.5,-292.5"/>
<text text-anchor="middle" x="378" y="-337.5" font-family="Helvetica,sans-Serif" font-size="10.00">istream &amp;</text>
<polyline fill="none" stroke="#bfbfbf" points="348.5,-330.5 407.5,-330.5 "/>
<text text-anchor="middle" x="378" y="-318.5" font-family="Helvetica,sans-Serif" font-size="10.00"> </text>
<polyline fill="none" stroke="#bfbfbf" points="348.5,-311.5 407.5,-311.5 "/>
<text text-anchor="middle" x="378" y="-299.5" font-family="Helvetica,sans-Serif" font-size="10.00"> </text>
</a>
</g>
</g>
<!-- Node7&#45;&gt;Node1 -->
<g id="edge6" class="edge">
<title>Node7&#45;&gt;Node1</title>
<path fill="none" stroke="#404040" d="M377.34,-292.28C375.41,-263.44 368.8,-218.1 347,-186 324,-152.13 285.56,-126.21 253.89,-109.12"/>
<polygon fill="none" stroke="#404040" points="253.65,-108.99 246.48,-109.76 243.01,-103.44 250.18,-102.67 253.65,-108.99"/>
<text text-anchor="middle" x="370" y="-200" font-family="Helvetica,sans-Serif" font-size="10.00"> #is</text>
</g>
</g>
</svg>
        <g id="navigator" transform="translate(0 0)" fill="#404254">
                <rect fill="#f2f5e9" fill-opacity="0.5" stroke="#606060" stroke-width=".5" x="0" y="0" width="60" height="60"/>
                <use id="zoomplus" xlink:href="#zoomPlus" x="17" y="9" onmousedown="handleZoom(evt,'in')"/>
                <use id="zoomminus" xlink:href="#zoomMin" x="42" y="9" onmousedown="handleZoom(evt,'out')"/>
                <use id="reset" xlink:href="#resetDef" x="30" y="36" onmousedown="handleReset()"/>
                <g id="arrowUp" xlink:href="#dirArrow" transform="translate(30 24)" onmousedown="handlePan(0,-1)">
                  <use xlink:href="#rim" fill="#404040">
                        <set attributeName="fill" to="#808080" begin="arrowUp.mouseover" end="arrowUp.mouseout"/>
                  </use>
                  <path fill="none" stroke="white" stroke-width="1.5" d="M0,-3.0v7 M-2.5,-0.5L0,-3.0L2.5,-0.5"/>
                </g>
                <g id="arrowRight" xlink:href="#dirArrow" transform="rotate(90) translate(36 -43)" onmousedown="handlePan(1,0)">
                  <use xlink:href="#rim" fill="#404040">
                        <set attributeName="fill" to="#808080" begin="arrowRight.mouseover" end="arrowRight.mouseout"/>
                  </use>
                  <path fill="none" stroke="white" stroke-width="1.5" d="M0,-3.0v7 M-2.5,-0.5L0,-3.0L2.5,-0.5"/>
                </g>
                <g id="arrowDown" xlink:href="#dirArrow" transform="rotate(180) translate(-30 -48)" onmousedown="handlePan(0,1)">
                  <use xlink:href="#rim" fill="#404040">
                        <set attributeName="fill" to="#808080" begin="arrowDown.mouseover" end="arrowDown.mouseout"/>
                  </use>
                  <path fill="none" stroke="white" stroke-width="1.5" d="M0,-3.0v7 M-2.5,-0.5L0,-3.0L2.5,-0.5"/>
                </g>
                <g id="arrowLeft" xlink:href="#dirArrow" transform="rotate(270) translate(-36 17)" onmousedown="handlePan(-1,0)">
                  <use xlink:href="#rim" fill="#404040">
                        <set attributeName="fill" to="#808080" begin="arrowLeft.mouseover" end="arrowLeft.mouseout"/>
                  </use>
                  <path fill="none" stroke="white" stroke-width="1.5" d="M0,-3.0v7 M-2.5,-0.5L0,-3.0L2.5,-0.5"/>
                </g>
        </g>
        <svg viewBox="0 0 15 15" width="100%" height="30px" preserveAspectRatio="xMaxYMin meet">
         <g id="arrow_out" transform="scale(0.3 0.3)">
          <a xlink:href="class_iface__coll__graph_org.svg" target="_base">
           <rect id="button" ry="5" rx="5" y="6" x="6" height="38" width="38"
                fill="#f2f5e9" fill-opacity="0.5" stroke="#606060" stroke-width="1.0"/>
           <path id="arrow"
             d="M 11.500037,31.436501 C 11.940474,20.09759 22.043105,11.32322 32.158766,21.979434 L 37.068811,17.246167 C 37.068811,17.246167 37.088388,32 37.088388,32 L 22.160133,31.978069 C 22.160133,31.978069 26.997745,27.140456 26.997745,27.140456 C 18.528582,18.264221 13.291696,25.230495 11.500037,31.436501 z"
             style="fill:#404040;"/>
          </a>
         </g>
        </svg>
</svg>
