<?xml version="1.0" encoding="UTF-8" standalone="no"?>
<!DOCTYPE svg PUBLIC "-//W3C//DTD SVG 1.1//EN"
 "http://www.w3.org/Graphics/SVG/1.1/DTD/svg11.dtd">
<!-- Generated by graphviz version 2.44.1 (20200629.0846)
 -->
<!-- Title: C:/Users/lukac/CLionProjects/virus_real/src/iface.h Pages: 1 -->
<!--zoomable 487 -->
<svg id="main" version="1.1" xmlns="http://www.w3.org/2000/svg" xmlns:xlink="http://www.w3.org/1999/xlink" xml:space="preserve" onload="init(evt)">
<style type="text/css"><![CDATA[
.edge:hover path { stroke: red; }
.edge:hover polygon { stroke: red; fill: red; }
]]></style>
<script type="text/javascript"><![CDATA[
var edges = document.getElementsByTagName('g');
if (edges && edges.length) {
  for (var i=0;i<edges.length;i++) {
    if (edges[i].id.substr(0,4)=='edge') {
      edges[i].setAttribute('class','edge');
    }
  }
}
]]></script>
        <defs>
                <circle id="rim" cx="0" cy="0" r="7"/>
                <circle id="rim2" cx="0" cy="0" r="3.5"/>
                <g id="zoomPlus">
                        <use xlink:href="#rim" fill="#404040">
                                <set attributeName="fill" to="#808080" begin="zoomplus.mouseover" end="zoomplus.mouseout"/>
                        </use>
                        <path d="M-4,0h8M0,-4v8" fill="none" stroke="white" stroke-width="1.5" pointer-events="none"/>
                </g>
                <g id="zoomMin">
                        <use xlink:href="#rim" fill="#404040">
                                <set attributeName="fill" to="#808080" begin="zoomminus.mouseover" end="zoomminus.mouseout"/>
                        </use>
                        <path d="M-4,0h8" fill="none" stroke="white" stroke-width="1.5" pointer-events="none"/>
                </g>
                <g id="dirArrow">
                        <path fill="none" stroke="white" stroke-width="1.5" d="M0,-3.0v7 M-2.5,-0.5L0,-3.0L2.5,-0.5"/>
                </g>
               <g id="resetDef">
                       <use xlink:href="#rim2" fill="#404040">
                               <set attributeName="fill" to="#808080" begin="reset.mouseover" end="reset.mouseout"/>
                       </use>
               </g>
        </defs>

<script type="text/javascript">
var viewWidth = 799;
var viewHeight = 487;
var sectionId = 'dynsection-0';
</script>
<script xlink:href="../../svgpan.js"/>
<svg id="graph" class="graph">
<g id="viewport">
<title>C:/Users/lukac/CLionProjects/virus_real/src/iface.h</title>
<!-- Node1 -->
<g id="node1" class="node">
<title>Node1</title>
<g id="a_node1"><a xlink:title=" ">
<polygon fill="#bfbfbf" stroke="black" points="350.5,-448.5 350.5,-478.5 495.5,-478.5 495.5,-448.5 350.5,-448.5"/>
<text text-anchor="start" x="358.5" y="-466.5" font-family="Helvetica,sans-Serif" font-size="10.00">C:/Users/lukac/CLionProjects</text>
<text text-anchor="middle" x="423" y="-455.5" font-family="Helvetica,sans-Serif" font-size="10.00">/virus_real/src/iface.h</text>
</a>
</g>
</g>
<!-- Node1&#45;&gt;Node1 -->
<g id="edge27" class="edge">
<title>Node1&#45;&gt;Node1</title>
<path fill="none" stroke="midnightblue" d="M495.79,-473.65C506.37,-472.04 513.5,-468.66 513.5,-463.5 513.5,-460.2 510.57,-457.62 505.69,-455.77"/>
<polygon fill="midnightblue" stroke="midnightblue" points="506.33,-452.33 495.79,-453.35 504.67,-459.13 506.33,-452.33"/>
</g>
<!-- Node2 -->
<g id="node2" class="node">
<title>Node2</title>
<g id="a_node2"><a xlink:href="../../da/d15/grid_8h.html" target="_top" xlink:title=" ">
<polygon fill="none" stroke="black" points="482.5,-224.5 482.5,-243.5 523.5,-243.5 523.5,-224.5 482.5,-224.5"/>
<text text-anchor="middle" x="503" y="-231.5" font-family="Helvetica,sans-Serif" font-size="10.00">grid.h</text>
</a>
</g>
</g>
<!-- Node1&#45;&gt;Node2 -->
<g id="edge1" class="edge">
<title>Node1&#45;&gt;Node2</title>
<path fill="none" stroke="midnightblue" d="M428,-448.27C441.91,-408.73 481.01,-297.55 496.53,-253.4"/>
<polygon fill="midnightblue" stroke="midnightblue" points="499.85,-254.52 499.86,-243.93 493.24,-252.2 499.85,-254.52"/>
</g>
<!-- Node18 -->
<g id="node18" class="node">
<title>Node18</title>
<g id="a_node18"><a xlink:href="../../d3/daa/logic_8h.html" target="_top" xlink:title=" ">
<polygon fill="none" stroke="black" points="283.5,-280.5 283.5,-299.5 328.5,-299.5 328.5,-280.5 283.5,-280.5"/>
<text text-anchor="middle" x="306" y="-287.5" font-family="Helvetica,sans-Serif" font-size="10.00">logic.h</text>
</a>
</g>
</g>
<!-- Node1&#45;&gt;Node18 -->
<g id="edge28" class="edge">
<title>Node1&#45;&gt;Node18</title>
<path fill="none" stroke="midnightblue" d="M424.92,-448.34C427.54,-423.07 429.36,-369.73 404,-336 388.27,-315.07 360.48,-303.58 338.5,-297.46"/>
<polygon fill="midnightblue" stroke="midnightblue" points="339.12,-294.01 328.56,-294.94 337.4,-300.79 339.12,-294.01"/>
</g>
<!-- Node19 -->
<g id="node19" class="node">
<title>Node19</title>
<g id="a_node19"><a xlink:href="../../db/d16/config_8h.html" target="_top" xlink:title=" ">
<polygon fill="none" stroke="black" points="0,-224.5 0,-243.5 50,-243.5 50,-224.5 0,-224.5"/>
<text text-anchor="middle" x="25" y="-231.5" font-family="Helvetica,sans-Serif" font-size="10.00">config.h</text>
</a>
</g>
</g>
<!-- Node1&#45;&gt;Node19 -->
<g id="edge48" class="edge">
<title>Node1&#45;&gt;Node19</title>
<path fill="none" stroke="midnightblue" d="M350.14,-461.16C266.16,-455.74 128.96,-434.41 45,-356 16.95,-329.81 18.48,-280.51 21.85,-253.63"/>
<polygon fill="midnightblue" stroke="midnightblue" points="25.33,-254.02 23.32,-243.62 18.4,-253 25.33,-254.02"/>
</g>
<!-- Node20 -->
<g id="node20" class="node">
<title>Node20</title>
<g id="a_node20"><a xlink:href="../../d1/df3/ai_8h.html" target="_top" xlink:title=" ">
<polygon fill="none" stroke="black" points="311,-392.5 311,-411.5 343,-411.5 343,-392.5 311,-392.5"/>
<text text-anchor="middle" x="327" y="-399.5" font-family="Helvetica,sans-Serif" font-size="10.00">ai.h</text>
</a>
</g>
</g>
<!-- Node1&#45;&gt;Node20 -->
<g id="edge37" class="edge">
<title>Node1&#45;&gt;Node20</title>
<path fill="none" stroke="midnightblue" d="M400.25,-448.4C385.01,-438.95 365.01,-426.56 349.76,-417.11"/>
<polygon fill="midnightblue" stroke="midnightblue" points="351.31,-413.95 340.97,-411.66 347.62,-419.9 351.31,-413.95"/>
</g>
<!-- Node22 -->
<g id="node22" class="node">
<title>Node22</title>
<g id="a_node22"><a xlink:title=" ">
<polygon fill="none" stroke="#bfbfbf" points="550.5,-392.5 550.5,-411.5 599.5,-411.5 599.5,-392.5 550.5,-392.5"/>
<text text-anchor="middle" x="575" y="-399.5" font-family="Helvetica,sans-Serif" font-size="10.00">ctype.h</text>
</a>
</g>
</g>
<!-- Node1&#45;&gt;Node22 -->
<g id="edge47" class="edge">
<title>Node1&#45;&gt;Node22</title>
<path fill="none" stroke="midnightblue" d="M459.02,-448.4C484.64,-438.37 518.73,-425.03 543.31,-415.4"/>
<polygon fill="midnightblue" stroke="midnightblue" points="544.85,-418.56 552.88,-411.66 542.29,-412.04 544.85,-418.56"/>
</g>
<!-- Node3 -->
<g id="node3" class="node">
<title>Node3</title>
<g id="a_node3"><a xlink:title=" ">
<polygon fill="none" stroke="#bfbfbf" points="395,-56.5 395,-75.5 437,-75.5 437,-56.5 395,-56.5"/>
<text text-anchor="middle" x="416" y="-63.5" font-family="Helvetica,sans-Serif" font-size="10.00">vector</text>
</a>
</g>
</g>
<!-- Node2&#45;&gt;Node3 -->
<g id="edge2" class="edge">
<title>Node2&#45;&gt;Node3</title>
<path fill="none" stroke="midnightblue" d="M490.7,-224.34C479.87,-216.13 464.41,-202.86 455,-188 434.21,-155.18 423.57,-110.28 418.95,-85.43"/>
<polygon fill="midnightblue" stroke="midnightblue" points="422.39,-84.8 417.24,-75.54 415.5,-86 422.39,-84.8"/>
</g>
<!-- Node4 -->
<g id="node4" class="node">
<title>Node4</title>
<g id="a_node4"><a xlink:title=" ">
<polygon fill="none" stroke="#bfbfbf" points="213.5,-56.5 213.5,-75.5 272.5,-75.5 272.5,-56.5 213.5,-56.5"/>
<text text-anchor="middle" x="243" y="-63.5" font-family="Helvetica,sans-Serif" font-size="10.00">stdexcept</text>
</a>
</g>
</g>
<!-- Node2&#45;&gt;Node4 -->
<g id="edge3" class="edge">
<title>Node2&#45;&gt;Node4</title>
<path fill="none" stroke="midnightblue" d="M485.79,-224.37C453.41,-207.88 381.56,-170.14 325,-132 301.66,-116.26 276.52,-95.76 260.32,-82.02"/>
<polygon fill="midnightblue" stroke="midnightblue" points="262.6,-79.36 252.72,-75.52 258.05,-84.68 262.6,-79.36"/>
</g>
<!-- Node5 -->
<g id="node5" class="node">
<title>Node5</title>
<g id="a_node5"><a xlink:href="../../d5/d5a/field_8h.html" target="_top" xlink:title=" ">
<polygon fill="none" stroke="black" points="690,-56.5 690,-75.5 732,-75.5 732,-56.5 690,-56.5"/>
<text text-anchor="middle" x="711" y="-63.5" font-family="Helvetica,sans-Serif" font-size="10.00">field.h</text>
</a>
</g>
</g>
<!-- Node2&#45;&gt;Node5 -->
<g id="edge4" class="edge">
<title>Node2&#45;&gt;Node5</title>
<path fill="none" stroke="midnightblue" d="M523.69,-232.39C556.13,-230.38 619.25,-222.01 658,-188 688.92,-160.87 702.53,-112.35 707.91,-85.74"/>
<polygon fill="midnightblue" stroke="midnightblue" points="711.37,-86.27 709.74,-75.8 704.48,-85 711.37,-86.27"/>
</g>
<!-- Node10 -->
<g id="node10" class="node">
<title>Node10</title>
<g id="a_node10"><a xlink:href="../../d5/d60/utils_8h.html" target="_top" xlink:title=" ">
<polygon fill="none" stroke="black" points="158.5,-112.5 158.5,-131.5 201.5,-131.5 201.5,-112.5 158.5,-112.5"/>
<text text-anchor="middle" x="180" y="-119.5" font-family="Helvetica,sans-Serif" font-size="10.00">utils.h</text>
</a>
</g>
</g>
<!-- Node2&#45;&gt;Node10 -->
<g id="edge9" class="edge">
<title>Node2&#45;&gt;Node10</title>
<path fill="none" stroke="midnightblue" d="M482.39,-226.21C455.89,-217.46 408.47,-201.74 368,-188 312.85,-169.28 248.78,-147.01 211.47,-134"/>
<polygon fill="midnightblue" stroke="midnightblue" points="212.28,-130.58 201.68,-130.59 209.97,-137.18 212.28,-130.58"/>
</g>
<!-- Node12 -->
<g id="node12" class="node">
<title>Node12</title>
<g id="a_node12"><a xlink:href="../../dc/d5f/country_8h.html" target="_top" xlink:title=" ">
<polygon fill="none" stroke="black" points="463.5,-168.5 463.5,-187.5 520.5,-187.5 520.5,-168.5 463.5,-168.5"/>
<text text-anchor="middle" x="492" y="-175.5" font-family="Helvetica,sans-Serif" font-size="10.00">country.h</text>
</a>
</g>
</g>
<!-- Node2&#45;&gt;Node12 -->
<g id="edge13" class="edge">
<title>Node2&#45;&gt;Node12</title>
<path fill="none" stroke="midnightblue" d="M501.18,-224.08C499.73,-216.93 497.63,-206.64 495.81,-197.69"/>
<polygon fill="midnightblue" stroke="midnightblue" points="499.21,-196.85 493.78,-187.75 492.35,-198.25 499.21,-196.85"/>
</g>
<!-- Node16 -->
<g id="node16" class="node">
<title>Node16</title>
<g id="a_node16"><a xlink:href="../../dd/dae/district_8h.html" target="_top" xlink:title=" ">
<polygon fill="none" stroke="black" points="558,-112.5 558,-131.5 612,-131.5 612,-112.5 558,-112.5"/>
<text text-anchor="middle" x="585" y="-119.5" font-family="Helvetica,sans-Serif" font-size="10.00">district.h</text>
</a>
</g>
</g>
<!-- Node2&#45;&gt;Node16 -->
<g id="edge25" class="edge">
<title>Node2&#45;&gt;Node16</title>
<path fill="none" stroke="midnightblue" d="M509.43,-224.37C523.03,-206.14 554.86,-163.43 572.57,-139.68"/>
<polygon fill="midnightblue" stroke="midnightblue" points="575.42,-141.7 578.6,-131.59 569.81,-137.52 575.42,-141.7"/>
</g>
<!-- Node17 -->
<g id="node17" class="node">
<title>Node17</title>
<g id="a_node17"><a xlink:title=" ">
<polygon fill="none" stroke="#bfbfbf" points="612,-56.5 612,-75.5 668,-75.5 668,-56.5 612,-56.5"/>
<text text-anchor="middle" x="640" y="-63.5" font-family="Helvetica,sans-Serif" font-size="10.00">algorithm</text>
</a>
</g>
</g>
<!-- Node2&#45;&gt;Node17 -->
<g id="edge26" class="edge">
<title>Node2&#45;&gt;Node17</title>
<path fill="none" stroke="midnightblue" d="M523.77,-231.79C553.08,-228.96 606.4,-219.51 637,-188 661.11,-163.17 659.2,-146.22 654,-112 652.63,-103 649.81,-93.33 647.05,-85.26"/>
<polygon fill="midnightblue" stroke="midnightblue" points="650.31,-83.98 643.6,-75.78 643.73,-86.37 650.31,-83.98"/>
</g>
<!-- Node6 -->
<g id="node6" class="node">
<title>Node6</title>
<g id="a_node6"><a xlink:title=" ">
<polygon fill="none" stroke="#bfbfbf" points="755.5,-0.5 755.5,-19.5 790.5,-19.5 790.5,-0.5 755.5,-0.5"/>
<text text-anchor="middle" x="773" y="-7.5" font-family="Helvetica,sans-Serif" font-size="10.00">map</text>
</a>
</g>
</g>
<!-- Node5&#45;&gt;Node6 -->
<g id="edge5" class="edge">
<title>Node5&#45;&gt;Node6</title>
<path fill="none" stroke="midnightblue" d="M720.96,-56.32C730.13,-48.34 743.94,-36.31 755.03,-26.65"/>
<polygon fill="midnightblue" stroke="midnightblue" points="757.62,-29.04 762.86,-19.83 753.02,-23.76 757.62,-29.04"/>
</g>
<!-- Node7 -->
<g id="node7" class="node">
<title>Node7</title>
<g id="a_node7"><a xlink:title=" ">
<polygon fill="none" stroke="#bfbfbf" points="623.5,-0.5 623.5,-19.5 666.5,-19.5 666.5,-0.5 623.5,-0.5"/>
<text text-anchor="middle" x="645" y="-7.5" font-family="Helvetica,sans-Serif" font-size="10.00">queue</text>
</a>
</g>
</g>
<!-- Node5&#45;&gt;Node7 -->
<g id="edge6" class="edge">
<title>Node5&#45;&gt;Node7</title>
<path fill="none" stroke="midnightblue" d="M700.4,-56.32C690.54,-48.26 675.65,-36.08 663.78,-26.37"/>
<polygon fill="midnightblue" stroke="midnightblue" points="665.75,-23.46 655.8,-19.83 661.32,-28.88 665.75,-23.46"/>
</g>
<!-- Node8 -->
<g id="node8" class="node">
<title>Node8</title>
<g id="a_node8"><a xlink:title=" ">
<polygon fill="none" stroke="#bfbfbf" points="685,-0.5 685,-19.5 737,-19.5 737,-0.5 685,-0.5"/>
<text text-anchor="middle" x="711" y="-7.5" font-family="Helvetica,sans-Serif" font-size="10.00">sstream</text>
</a>
</g>
</g>
<!-- Node5&#45;&gt;Node8 -->
<g id="edge7" class="edge">
<title>Node5&#45;&gt;Node8</title>
<path fill="none" stroke="midnightblue" d="M711,-56.08C711,-49.01 711,-38.86 711,-29.99"/>
<polygon fill="midnightblue" stroke="midnightblue" points="714.5,-29.75 711,-19.75 707.5,-29.75 714.5,-29.75"/>
</g>
<!-- Node9 -->
<g id="node9" class="node">
<title>Node9</title>
<g id="a_node9"><a xlink:title=" ">
<polygon fill="none" stroke="#bfbfbf" points="328,-0.5 328,-19.5 372,-19.5 372,-0.5 328,-0.5"/>
<text text-anchor="middle" x="350" y="-7.5" font-family="Helvetica,sans-Serif" font-size="10.00">cmath</text>
</a>
</g>
</g>
<!-- Node5&#45;&gt;Node9 -->
<g id="edge8" class="edge">
<title>Node5&#45;&gt;Node9</title>
<path fill="none" stroke="midnightblue" d="M689.87,-58.98C685.63,-57.89 681.19,-56.84 677,-56 570.15,-34.59 441.61,-20.16 382.56,-14.15"/>
<polygon fill="midnightblue" stroke="midnightblue" points="382.66,-10.64 372.36,-13.13 381.96,-17.61 382.66,-10.64"/>
</g>
<!-- Node10&#45;&gt;Node3 -->
<g id="edge12" class="edge">
<title>Node10&#45;&gt;Node3</title>
<path fill="none" stroke="midnightblue" d="M201.78,-116.02C243.88,-106.38 336.53,-85.18 385.03,-74.09"/>
<polygon fill="midnightblue" stroke="midnightblue" points="385.99,-77.46 394.95,-71.82 384.42,-70.63 385.99,-77.46"/>
</g>
<!-- Node10&#45;&gt;Node4 -->
<g id="edge10" class="edge">
<title>Node10&#45;&gt;Node4</title>
<path fill="none" stroke="midnightblue" d="M190.12,-112.32C199.53,-104.26 213.74,-92.08 225.07,-82.37"/>
<polygon fill="midnightblue" stroke="midnightblue" points="227.38,-85 232.69,-75.83 222.82,-79.68 227.38,-85"/>
</g>
<!-- Node11 -->
<g id="node11" class="node">
<title>Node11</title>
<g id="a_node11"><a xlink:title=" ">
<polygon fill="none" stroke="#bfbfbf" points="150.5,-56.5 150.5,-75.5 195.5,-75.5 195.5,-56.5 150.5,-56.5"/>
<text text-anchor="middle" x="173" y="-63.5" font-family="Helvetica,sans-Serif" font-size="10.00">climits</text>
</a>
</g>
</g>
<!-- Node10&#45;&gt;Node11 -->
<g id="edge11" class="edge">
<title>Node10&#45;&gt;Node11</title>
<path fill="none" stroke="midnightblue" d="M178.84,-112.08C177.92,-104.93 176.58,-94.64 175.42,-85.69"/>
<polygon fill="midnightblue" stroke="midnightblue" points="178.89,-85.22 174.13,-75.75 171.95,-86.12 178.89,-85.22"/>
</g>
<!-- Node12&#45;&gt;Node3 -->
<g id="edge14" class="edge">
<title>Node12&#45;&gt;Node3</title>
<path fill="none" stroke="midnightblue" d="M486.04,-168.37C473.49,-150.22 444.19,-107.8 427.74,-83.99"/>
<polygon fill="midnightblue" stroke="midnightblue" points="430.5,-81.83 421.94,-75.59 424.74,-85.81 430.5,-81.83"/>
</g>
<!-- Node12&#45;&gt;Node10 -->
<g id="edge18" class="edge">
<title>Node12&#45;&gt;Node10</title>
<path fill="none" stroke="midnightblue" d="M463.48,-172.06C405.16,-161.97 272.6,-139.03 211.69,-128.48"/>
<polygon fill="midnightblue" stroke="midnightblue" points="211.97,-124.98 201.52,-126.73 210.78,-131.88 211.97,-124.98"/>
</g>
<!-- Node13 -->
<g id="node13" class="node">
<title>Node13</title>
<g id="a_node13"><a xlink:title=" ">
<polygon fill="none" stroke="#bfbfbf" points="334,-112.5 334,-131.5 388,-131.5 388,-112.5 334,-112.5"/>
<text text-anchor="middle" x="361" y="-119.5" font-family="Helvetica,sans-Serif" font-size="10.00">iostream</text>
</a>
</g>
</g>
<!-- Node12&#45;&gt;Node13 -->
<g id="edge15" class="edge">
<title>Node12&#45;&gt;Node13</title>
<path fill="none" stroke="midnightblue" d="M471.24,-168.44C449.68,-159.56 415.74,-145.56 391.21,-135.45"/>
<polygon fill="midnightblue" stroke="midnightblue" points="392.24,-132.09 381.66,-131.52 389.57,-138.56 392.24,-132.09"/>
</g>
<!-- Node14 -->
<g id="node14" class="node">
<title>Node14</title>
<g id="a_node14"><a xlink:title=" ">
<polygon fill="none" stroke="#bfbfbf" points="480,-56.5 480,-75.5 510,-75.5 510,-56.5 480,-56.5"/>
<text text-anchor="middle" x="495" y="-63.5" font-family="Helvetica,sans-Serif" font-size="10.00">set</text>
</a>
</g>
</g>
<!-- Node12&#45;&gt;Node14 -->
<g id="edge16" class="edge">
<title>Node12&#45;&gt;Node14</title>
<path fill="none" stroke="midnightblue" d="M492.24,-168.37C492.72,-150.62 493.84,-109.67 494.49,-85.6"/>
<polygon fill="midnightblue" stroke="midnightblue" points="497.99,-85.68 494.77,-75.59 490.99,-85.49 497.99,-85.68"/>
</g>
<!-- Node15 -->
<g id="node15" class="node">
<title>Node15</title>
<g id="a_node15"><a xlink:title=" ">
<polygon fill="none" stroke="#bfbfbf" points="533,-56.5 533,-75.5 591,-75.5 591,-56.5 533,-56.5"/>
<text text-anchor="middle" x="562" y="-63.5" font-family="Helvetica,sans-Serif" font-size="10.00">functional</text>
</a>
</g>
</g>
<!-- Node12&#45;&gt;Node15 -->
<g id="edge17" class="edge">
<title>Node12&#45;&gt;Node15</title>
<path fill="none" stroke="midnightblue" d="M497.49,-168.37C508.99,-150.3 535.8,-108.18 550.99,-84.31"/>
<polygon fill="midnightblue" stroke="midnightblue" points="554.12,-85.91 556.53,-75.59 548.21,-82.15 554.12,-85.91"/>
</g>
<!-- Node12&#45;&gt;Node16 -->
<g id="edge19" class="edge">
<title>Node12&#45;&gt;Node16</title>
<path fill="none" stroke="midnightblue" d="M506.94,-168.32C521.59,-159.82 544.13,-146.73 561.24,-136.8"/>
<polygon fill="midnightblue" stroke="midnightblue" points="563.2,-139.7 570.1,-131.65 559.69,-133.65 563.2,-139.7"/>
</g>
<!-- Node16&#45;&gt;Node3 -->
<g id="edge20" class="edge">
<title>Node16&#45;&gt;Node3</title>
<path fill="none" stroke="midnightblue" d="M558.22,-112.44C527.9,-102.76 478.59,-87 446.73,-76.82"/>
<polygon fill="midnightblue" stroke="midnightblue" points="447.64,-73.43 437.05,-73.73 445.51,-80.1 447.64,-73.43"/>
</g>
<!-- Node16&#45;&gt;Node5 -->
<g id="edge21" class="edge">
<title>Node16&#45;&gt;Node5</title>
<path fill="none" stroke="midnightblue" d="M604.97,-112.44C625.61,-103.6 658.06,-89.69 681.63,-79.59"/>
<polygon fill="midnightblue" stroke="midnightblue" points="683.32,-82.67 691.13,-75.52 680.56,-76.24 683.32,-82.67"/>
</g>
<!-- Node16&#45;&gt;Node14 -->
<g id="edge23" class="edge">
<title>Node16&#45;&gt;Node14</title>
<path fill="none" stroke="midnightblue" d="M570.54,-112.32C556.5,-103.9 534.95,-90.97 518.46,-81.07"/>
<polygon fill="midnightblue" stroke="midnightblue" points="519.8,-77.8 509.42,-75.65 516.2,-83.8 519.8,-77.8"/>
</g>
<!-- Node16&#45;&gt;Node15 -->
<g id="edge24" class="edge">
<title>Node16&#45;&gt;Node15</title>
<path fill="none" stroke="midnightblue" d="M581.2,-112.08C578.09,-104.77 573.58,-94.18 569.71,-85.1"/>
<polygon fill="midnightblue" stroke="midnightblue" points="572.87,-83.58 565.73,-75.75 566.43,-86.32 572.87,-83.58"/>
</g>
<!-- Node16&#45;&gt;Node17 -->
<g id="edge22" class="edge">
<title>Node16&#45;&gt;Node17</title>
<path fill="none" stroke="midnightblue" d="M594.08,-112.08C602.17,-104.14 614.2,-92.34 623.91,-82.8"/>
<polygon fill="midnightblue" stroke="midnightblue" points="626.4,-85.25 631.09,-75.75 621.5,-80.26 626.4,-85.25"/>
</g>
<!-- Node18&#45;&gt;Node2 -->
<g id="edge33" class="edge">
<title>Node18&#45;&gt;Node2</title>
<path fill="none" stroke="midnightblue" d="M328.6,-282.81C364.11,-273.07 433.03,-254.18 472.77,-243.29"/>
<polygon fill="midnightblue" stroke="midnightblue" points="473.73,-246.65 482.45,-240.63 471.88,-239.9 473.73,-246.65"/>
</g>
<!-- Node18&#45;&gt;Node3 -->
<g id="edge30" class="edge">
<title>Node18&#45;&gt;Node3</title>
<path fill="none" stroke="midnightblue" d="M304.24,-280.27C299.19,-252.67 287.33,-165.99 325,-112 338.98,-91.97 364.49,-80.44 384.95,-74.07"/>
<polygon fill="midnightblue" stroke="midnightblue" points="386.15,-77.37 394.81,-71.28 384.24,-70.64 386.15,-77.37"/>
</g>
<!-- Node18&#45;&gt;Node4 -->
<g id="edge31" class="edge">
<title>Node18&#45;&gt;Node4</title>
<path fill="none" stroke="midnightblue" d="M303.24,-280.4C300.35,-271.36 295.74,-256.72 292,-244 275.03,-186.26 256.45,-117.45 247.86,-85.27"/>
<polygon fill="midnightblue" stroke="midnightblue" points="251.21,-84.26 245.25,-75.5 244.44,-86.07 251.21,-84.26"/>
</g>
<!-- Node18&#45;&gt;Node9 -->
<g id="edge32" class="edge">
<title>Node18&#45;&gt;Node9</title>
<path fill="none" stroke="midnightblue" d="M288.5,-280.39C273.12,-272.31 250.65,-259.21 234,-244 165.17,-181.14 82.43,-128.52 141,-56 162.82,-28.99 264.39,-17.42 317.48,-13.15"/>
<polygon fill="midnightblue" stroke="midnightblue" points="318.02,-16.62 327.72,-12.37 317.48,-9.64 318.02,-16.62"/>
</g>
<!-- Node18&#45;&gt;Node10 -->
<g id="edge36" class="edge">
<title>Node18&#45;&gt;Node10</title>
<path fill="none" stroke="midnightblue" d="M293.91,-280.27C282.72,-271.81 266.04,-258.21 254,-244 225.72,-210.64 201.06,-165.32 188.61,-140.7"/>
<polygon fill="midnightblue" stroke="midnightblue" points="191.63,-138.91 184.05,-131.51 185.36,-142.02 191.63,-138.91"/>
</g>
<!-- Node18&#45;&gt;Node13 -->
<g id="edge35" class="edge">
<title>Node18&#45;&gt;Node13</title>
<path fill="none" stroke="midnightblue" d="M308.96,-280.08C317.65,-253.83 343.26,-176.55 355,-141.12"/>
<polygon fill="midnightblue" stroke="midnightblue" points="358.34,-142.16 358.16,-131.57 351.69,-139.96 358.34,-142.16"/>
</g>
<!-- Node18&#45;&gt;Node17 -->
<g id="edge29" class="edge">
<title>Node18&#45;&gt;Node17</title>
<path fill="none" stroke="midnightblue" d="M328.62,-280.73C394.15,-256.33 581.99,-183.13 621,-132 631.24,-118.58 635.97,-99.76 638.15,-85.82"/>
<polygon fill="midnightblue" stroke="midnightblue" points="641.63,-86.25 639.41,-75.89 634.68,-85.37 641.63,-86.25"/>
</g>
<!-- Node18&#45;&gt;Node19 -->
<g id="edge34" class="edge">
<title>Node18&#45;&gt;Node19</title>
<path fill="none" stroke="midnightblue" d="M283.48,-284.67C234.58,-275.28 118.4,-252.95 59.91,-241.71"/>
<polygon fill="midnightblue" stroke="midnightblue" points="60.51,-238.26 50.03,-239.81 59.19,-245.13 60.51,-238.26"/>
</g>
<!-- Node20&#45;&gt;Node2 -->
<g id="edge38" class="edge">
<title>Node20&#45;&gt;Node2</title>
<path fill="none" stroke="midnightblue" d="M343.11,-393.7C359.48,-385.82 385.05,-372.19 404,-356 441.15,-324.27 475,-277.34 491.83,-252.27"/>
<polygon fill="midnightblue" stroke="midnightblue" points="494.82,-254.08 497.41,-243.81 488.98,-250.23 494.82,-254.08"/>
</g>
<!-- Node20&#45;&gt;Node10 -->
<g id="edge40" class="edge">
<title>Node20&#45;&gt;Node10</title>
<path fill="none" stroke="midnightblue" d="M310.66,-401.26C255.27,-401.21 78,-393.08 78,-291 78,-291 78,-291 78,-233 78,-188.39 123.66,-154.23 153.88,-136.51"/>
<polygon fill="midnightblue" stroke="midnightblue" points="155.7,-139.5 162.7,-131.55 152.27,-133.4 155.7,-139.5"/>
</g>
<!-- Node20&#45;&gt;Node18 -->
<g id="edge39" class="edge">
<title>Node20&#45;&gt;Node18</title>
<path fill="none" stroke="midnightblue" d="M324.1,-392.47C321.15,-383.5 316.64,-368.91 314,-356 310.86,-340.66 308.79,-323.02 307.54,-309.99"/>
<polygon fill="midnightblue" stroke="midnightblue" points="311.01,-309.56 306.65,-299.9 304.04,-310.17 311.01,-309.56"/>
</g>
<!-- Node20&#45;&gt;Node19 -->
<g id="edge46" class="edge">
<title>Node20&#45;&gt;Node19</title>
<path fill="none" stroke="midnightblue" d="M310.75,-400.37C259.33,-398.05 101.36,-388.39 64,-356 33.94,-329.94 26.88,-280.59 25.33,-253.67"/>
<polygon fill="midnightblue" stroke="midnightblue" points="28.82,-253.5 24.95,-243.64 21.83,-253.76 28.82,-253.5"/>
</g>
<!-- Node21 -->
<g id="node21" class="node">
<title>Node21</title>
<g id="a_node21"><a xlink:href="../../d2/d3d/graphalgos_8h.html" target="_top" xlink:title=" ">
<polygon fill="none" stroke="black" points="323,-336.5 323,-355.5 395,-355.5 395,-336.5 323,-336.5"/>
<text text-anchor="middle" x="359" y="-343.5" font-family="Helvetica,sans-Serif" font-size="10.00">graphalgos.h</text>
</a>
</g>
</g>
<!-- Node20&#45;&gt;Node21 -->
<g id="edge41" class="edge">
<title>Node20&#45;&gt;Node21</title>
<path fill="none" stroke="midnightblue" d="M332.28,-392.08C336.71,-384.61 343.16,-373.72 348.62,-364.52"/>
<polygon fill="midnightblue" stroke="midnightblue" points="351.73,-366.14 353.81,-355.75 345.71,-362.57 351.73,-366.14"/>
</g>
<!-- Node21&#45;&gt;Node2 -->
<g id="edge44" class="edge">
<title>Node21&#45;&gt;Node2</title>
<path fill="none" stroke="midnightblue" d="M368.03,-336.08C381.43,-323.06 407.61,-298.39 432,-280 447.1,-268.61 465.11,-257.22 479.21,-248.75"/>
<polygon fill="midnightblue" stroke="midnightblue" points="481.03,-251.74 487.85,-243.63 477.46,-245.72 481.03,-251.74"/>
</g>
<!-- Node21&#45;&gt;Node5 -->
<g id="edge43" class="edge">
<title>Node21&#45;&gt;Node5</title>
<path fill="none" stroke="midnightblue" d="M391.01,-336.42C453.4,-318.33 592.77,-270.92 680,-188 700.62,-168.4 703.88,-159.54 711,-132 714.93,-116.79 714.58,-98.9 713.45,-85.74"/>
<polygon fill="midnightblue" stroke="midnightblue" points="716.91,-85.15 712.34,-75.58 709.95,-85.91 716.91,-85.15"/>
</g>
<!-- Node21&#45;&gt;Node10 -->
<g id="edge42" class="edge">
<title>Node21&#45;&gt;Node10</title>
<path fill="none" stroke="midnightblue" d="M337,-336.46C319.01,-328.76 293.61,-316.17 275,-300 229.78,-260.71 224.54,-242.65 200,-188 193.2,-172.85 187.83,-154.73 184.38,-141.48"/>
<polygon fill="midnightblue" stroke="midnightblue" points="187.75,-140.52 181.94,-131.66 180.96,-142.21 187.75,-140.52"/>
</g>
<!-- Node21&#45;&gt;Node18 -->
<g id="edge45" class="edge">
<title>Node21&#45;&gt;Node18</title>
<path fill="none" stroke="midnightblue" d="M350.25,-336.08C342.53,-328.22 331.1,-316.57 321.78,-307.08"/>
<polygon fill="midnightblue" stroke="midnightblue" points="324.09,-304.44 314.59,-299.75 319.1,-309.34 324.09,-304.44"/>
</g>
</g>
</svg>
        <g id="navigator" transform="translate(0 0)" fill="#404254">
                <rect fill="#f2f5e9" fill-opacity="0.5" stroke="#606060" stroke-width=".5" x="0" y="0" width="60" height="60"/>
                <use id="zoomplus" xlink:href="#zoomPlus" x="17" y="9" onmousedown="handleZoom(evt,'in')"/>
                <use id="zoomminus" xlink:href="#zoomMin" x="42" y="9" onmousedown="handleZoom(evt,'out')"/>
                <use id="reset" xlink:href="#resetDef" x="30" y="36" onmousedown="handleReset()"/>
                <g id="arrowUp" xlink:href="#dirArrow" transform="translate(30 24)" onmousedown="handlePan(0,-1)">
                  <use xlink:href="#rim" fill="#404040">
                        <set attributeName="fill" to="#808080" begin="arrowUp.mouseover" end="arrowUp.mouseout"/>
                  </use>
                  <path fill="none" stroke="white" stroke-width="1.5" d="M0,-3.0v7 M-2.5,-0.5L0,-3.0L2.5,-0.5"/>
                </g>
                <g id="arrowRight" xlink:href="#dirArrow" transform="rotate(90) translate(36 -43)" onmousedown="handlePan(1,0)">
                  <use xlink:href="#rim" fill="#404040">
                        <set attributeName="fill" to="#808080" begin="arrowRight.mouseover" end="arrowRight.mouseout"/>
                  </use>
                  <path fill="none" stroke="white" stroke-width="1.5" d="M0,-3.0v7 M-2.5,-0.5L0,-3.0L2.5,-0.5"/>
                </g>
                <g id="arrowDown" xlink:href="#dirArrow" transform="rotate(180) translate(-30 -48)" onmousedown="handlePan(0,1)">
                  <use xlink:href="#rim" fill="#404040">
                        <set attributeName="fill" to="#808080" begin="arrowDown.mouseover" end="arrowDown.mouseout"/>
                  </use>
                  <path fill="none" stroke="white" stroke-width="1.5" d="M0,-3.0v7 M-2.5,-0.5L0,-3.0L2.5,-0.5"/>
                </g>
                <g id="arrowLeft" xlink:href="#dirArrow" transform="rotate(270) translate(-36 17)" onmousedown="handlePan(-1,0)">
                  <use xlink:href="#rim" fill="#404040">
                        <set attributeName="fill" to="#808080" begin="arrowLeft.mouseover" end="arrowLeft.mouseout"/>
                  </use>
                  <path fill="none" stroke="white" stroke-width="1.5" d="M0,-3.0v7 M-2.5,-0.5L0,-3.0L2.5,-0.5"/>
                </g>
        </g>
        <svg viewBox="0 0 15 15" width="100%" height="30px" preserveAspectRatio="xMaxYMin meet">
         <g id="arrow_out" transform="scale(0.3 0.3)">
          <a xlink:href="iface_8h__incl_org.svg" target="_base">
           <rect id="button" ry="5" rx="5" y="6" x="6" height="38" width="38"
                fill="#f2f5e9" fill-opacity="0.5" stroke="#606060" stroke-width="1.0"/>
           <path id="arrow"
             d="M 11.500037,31.436501 C 11.940474,20.09759 22.043105,11.32322 32.158766,21.979434 L 37.068811,17.246167 C 37.068811,17.246167 37.088388,32 37.088388,32 L 22.160133,31.978069 C 22.160133,31.978069 26.997745,27.140456 26.997745,27.140456 C 18.528582,18.264221 13.291696,25.230495 11.500037,31.436501 z"
             style="fill:#404040;"/>
          </a>
         </g>
        </svg>
</svg>
