<?xml version="1.0" encoding="UTF-8" standalone="no"?>
<!DOCTYPE svg PUBLIC "-//W3C//DTD SVG 1.1//EN"
 "http://www.w3.org/Graphics/SVG/1.1/DTD/svg11.dtd">
<!-- Generated by graphviz version 2.44.1 (20200629.0846)
 -->
<!-- Title: Logic::setGrid Pages: 1 -->
<svg width="624pt" height="85pt"
 viewBox="0.00 0.00 624.00 85.00" xmlns="http://www.w3.org/2000/svg" xmlns:xlink="http://www.w3.org/1999/xlink">
<g id="graph0" class="graph" transform="scale(1 1) rotate(0) translate(4 81)">
<title>Logic::setGrid</title>
<!-- Node1 -->
<g id="node1" class="node">
<title>Node1</title>
<g id="a_node1"><a xlink:title=" ">
<polygon fill="#bfbfbf" stroke="black" points="539,-38.5 539,-57.5 616,-57.5 616,-38.5 539,-38.5"/>
<text text-anchor="middle" x="577.5" y="-45.5" font-family="Helvetica,sans-Serif" font-size="10.00">Logic::setGrid</text>
</a>
</g>
</g>
<!-- Node2 -->
<g id="node2" class="node">
<title>Node2</title>
<g id="a_node2"><a xlink:href="../../d2/d5c/class_iface.html#a6afe73763b17570a7a884ffeca597c0e" target="_top" xlink:title=" ">
<polygon fill="none" stroke="black" points="138,-57.5 138,-76.5 233,-76.5 233,-57.5 138,-57.5"/>
<text text-anchor="middle" x="185.5" y="-64.5" font-family="Helvetica,sans-Serif" font-size="10.00">Iface::initAntiVirus</text>
</a>
</g>
</g>
<!-- Node1&#45;&gt;Node2 -->
<g id="edge1" class="edge">
<title>Node1&#45;&gt;Node2</title>
<path fill="none" stroke="midnightblue" d="M537.09,-60.14C526.16,-62.97 514.21,-65.57 503,-67 407.75,-79.11 295.06,-74.69 233.12,-70.66"/>
<polygon fill="midnightblue" stroke="midnightblue" points="538.06,-63.5 546.8,-57.5 536.23,-56.75 538.06,-63.5"/>
</g>
<!-- Node4 -->
<g id="node4" class="node">
<title>Node4</title>
<g id="a_node4"><a xlink:href="../../d2/d5c/class_iface.html#aa5b85524eb9b9430432f3705fa7de007" target="_top" xlink:title=" ">
<polygon fill="none" stroke="black" points="411,-38.5 411,-57.5 485,-57.5 485,-38.5 411,-38.5"/>
<text text-anchor="middle" x="448" y="-45.5" font-family="Helvetica,sans-Serif" font-size="10.00">Iface::setGrid</text>
</a>
</g>
</g>
<!-- Node1&#45;&gt;Node4 -->
<g id="edge3" class="edge">
<title>Node1&#45;&gt;Node4</title>
<path fill="none" stroke="midnightblue" d="M528.74,-48C514.4,-48 498.9,-48 485.42,-48"/>
<polygon fill="midnightblue" stroke="midnightblue" points="528.94,-51.5 538.94,-48 528.94,-44.5 528.94,-51.5"/>
</g>
<!-- Node6 -->
<g id="node6" class="node">
<title>Node6</title>
<g id="a_node6"><a xlink:href="../../d0/d85/class_visualization.html#a78d86708461ee973c03060fcbb894ee2" target="_top" xlink:title=" ">
<polygon fill="none" stroke="black" points="393,-0.5 393,-19.5 503,-19.5 503,-0.5 393,-0.5"/>
<text text-anchor="middle" x="448" y="-7.5" font-family="Helvetica,sans-Serif" font-size="10.00">Visualization::setGrid</text>
</a>
</g>
</g>
<!-- Node1&#45;&gt;Node6 -->
<g id="edge6" class="edge">
<title>Node1&#45;&gt;Node6</title>
<path fill="none" stroke="midnightblue" d="M534.44,-35.46C517.1,-30.3 497.32,-24.4 481.16,-19.59"/>
<polygon fill="midnightblue" stroke="midnightblue" points="533.74,-38.91 544.33,-38.41 535.74,-32.2 533.74,-38.91"/>
</g>
<!-- Node3 -->
<g id="node3" class="node">
<title>Node3</title>
<g id="a_node3"><a xlink:href="../../dc/d90/class_anti_virus.html#a3b3aed962d274c4333a8c9ac191816a0" target="_top" xlink:title=" ">
<polygon fill="none" stroke="black" points="0,-57.5 0,-76.5 102,-76.5 102,-57.5 0,-57.5"/>
<text text-anchor="middle" x="51" y="-64.5" font-family="Helvetica,sans-Serif" font-size="10.00">AntiVirus::AntiVirus</text>
</a>
</g>
</g>
<!-- Node2&#45;&gt;Node3 -->
<g id="edge2" class="edge">
<title>Node2&#45;&gt;Node3</title>
<path fill="none" stroke="midnightblue" d="M127.66,-67C119.24,-67 110.62,-67 102.34,-67"/>
<polygon fill="midnightblue" stroke="midnightblue" points="127.79,-70.5 137.79,-67 127.79,-63.5 127.79,-70.5"/>
</g>
<!-- Node5 -->
<g id="node5" class="node">
<title>Node5</title>
<g id="a_node5"><a xlink:href="../../d2/d5c/class_iface.html#a42712663a207dad0227b8fc592c7046b" target="_top" xlink:title=" ">
<polygon fill="none" stroke="black" points="269,-38.5 269,-57.5 357,-57.5 357,-38.5 269,-38.5"/>
<text text-anchor="middle" x="313" y="-45.5" font-family="Helvetica,sans-Serif" font-size="10.00">Iface::createGrid</text>
</a>
</g>
</g>
<!-- Node4&#45;&gt;Node5 -->
<g id="edge4" class="edge">
<title>Node4&#45;&gt;Node5</title>
<path fill="none" stroke="midnightblue" d="M400.29,-48C386.34,-48 371.11,-48 357.39,-48"/>
<polygon fill="midnightblue" stroke="midnightblue" points="400.66,-51.5 410.66,-48 400.66,-44.5 400.66,-51.5"/>
</g>
<!-- Node5&#45;&gt;Node2 -->
<g id="edge5" class="edge">
<title>Node5&#45;&gt;Node2</title>
<path fill="none" stroke="midnightblue" d="M258.65,-56.08C250.19,-57.36 241.49,-58.67 233.2,-59.93"/>
<polygon fill="midnightblue" stroke="midnightblue" points="259.45,-59.5 268.81,-54.54 258.4,-52.58 259.45,-59.5"/>
</g>
</g>
</svg>
