<?xml version="1.0" encoding="UTF-8" standalone="no"?>
<!DOCTYPE svg PUBLIC "-//W3C//DTD SVG 1.1//EN"
 "http://www.w3.org/Graphics/SVG/1.1/DTD/svg11.dtd">
<!-- Generated by graphviz version 2.44.1 (20200629.0846)
 -->
<!-- Title: Logic::setGrid Pages: 1 -->
<!--zoomable 85 -->
<svg id="main" version="1.1" xmlns="http://www.w3.org/2000/svg" xmlns:xlink="http://www.w3.org/1999/xlink" xml:space="preserve" onload="init(evt)">
<style type="text/css"><![CDATA[
.edge:hover path { stroke: red; }
.edge:hover polygon { stroke: red; fill: red; }
]]></style>
<script type="text/javascript"><![CDATA[
var edges = document.getElementsByTagName('g');
if (edges && edges.length) {
  for (var i=0;i<edges.length;i++) {
    if (edges[i].id.substr(0,4)=='edge') {
      edges[i].setAttribute('class','edge');
    }
  }
}
]]></script>
        <defs>
                <circle id="rim" cx="0" cy="0" r="7"/>
                <circle id="rim2" cx="0" cy="0" r="3.5"/>
                <g id="zoomPlus">
                        <use xlink:href="#rim" fill="#404040">
                                <set attributeName="fill" to="#808080" begin="zoomplus.mouseover" end="zoomplus.mouseout"/>
                        </use>
                        <path d="M-4,0h8M0,-4v8" fill="none" stroke="white" stroke-width="1.5" pointer-events="none"/>
                </g>
                <g id="zoomMin">
                        <use xlink:href="#rim" fill="#404040">
                                <set attributeName="fill" to="#808080" begin="zoomminus.mouseover" end="zoomminus.mouseout"/>
                        </use>
                        <path d="M-4,0h8" fill="none" stroke="white" stroke-width="1.5" pointer-events="none"/>
                </g>
                <g id="dirArrow">
                        <path fill="none" stroke="white" stroke-width="1.5" d="M0,-3.0v7 M-2.5,-0.5L0,-3.0L2.5,-0.5"/>
                </g>
               <g id="resetDef">
                       <use xlink:href="#rim2" fill="#404040">
                               <set attributeName="fill" to="#808080" begin="reset.mouseover" end="reset.mouseout"/>
                       </use>
               </g>
        </defs>

<script type="text/javascript">
var viewWidth = 624;
var viewHeight = 85;
var sectionId = 'dynsection-12';
</script>
<script xlink:href="../../svgpan.js"/>
<svg id="graph" class="graph">
<g id="viewport">
<title>Logic::setGrid</title>
<!-- Node1 -->
<g id="node1" class="node">
<title>Node1</title>
<g id="a_node1"><a xlink:title=" ">
<polygon fill="#bfbfbf" stroke="black" points="539,-38.5 539,-57.5 616,-57.5 616,-38.5 539,-38.5"/>
<text text-anchor="middle" x="577.5" y="-45.5" font-family="Helvetica,sans-Serif" font-size="10.00">Logic::setGrid</text>
</a>
</g>
</g>
<!-- Node2 -->
<g id="node2" class="node">
<title>Node2</title>
<g id="a_node2"><a xlink:href="../../d2/d5c/class_iface.html#a6afe73763b17570a7a884ffeca597c0e" target="_top" xlink:title=" ">
<polygon fill="none" stroke="black" points="138,-57.5 138,-76.5 233,-76.5 233,-57.5 138,-57.5"/>
<text text-anchor="middle" x="185.5" y="-64.5" font-family="Helvetica,sans-Serif" font-size="10.00">Iface::initAntiVirus</text>
</a>
</g>
</g>
<!-- Node1&#45;&gt;Node2 -->
<g id="edge1" class="edge">
<title>Node1&#45;&gt;Node2</title>
<path fill="none" stroke="midnightblue" d="M537.09,-60.14C526.16,-62.97 514.21,-65.57 503,-67 407.75,-79.11 295.06,-74.69 233.12,-70.66"/>
<polygon fill="midnightblue" stroke="midnightblue" points="538.06,-63.5 546.8,-57.5 536.23,-56.75 538.06,-63.5"/>
</g>
<!-- Node4 -->
<g id="node4" class="node">
<title>Node4</title>
<g id="a_node4"><a xlink:href="../../d2/d5c/class_iface.html#aa5b85524eb9b9430432f3705fa7de007" target="_top" xlink:title=" ">
<polygon fill="none" stroke="black" points="411,-38.5 411,-57.5 485,-57.5 485,-38.5 411,-38.5"/>
<text text-anchor="middle" x="448" y="-45.5" font-family="Helvetica,sans-Serif" font-size="10.00">Iface::setGrid</text>
</a>
</g>
</g>
<!-- Node1&#45;&gt;Node4 -->
<g id="edge3" class="edge">
<title>Node1&#45;&gt;Node4</title>
<path fill="none" stroke="midnightblue" d="M528.74,-48C514.4,-48 498.9,-48 485.42,-48"/>
<polygon fill="midnightblue" stroke="midnightblue" points="528.94,-51.5 538.94,-48 528.94,-44.5 528.94,-51.5"/>
</g>
<!-- Node6 -->
<g id="node6" class="node">
<title>Node6</title>
<g id="a_node6"><a xlink:href="../../d0/d85/class_visualization.html#a78d86708461ee973c03060fcbb894ee2" target="_top" xlink:title=" ">
<polygon fill="none" stroke="black" points="393,-0.5 393,-19.5 503,-19.5 503,-0.5 393,-0.5"/>
<text text-anchor="middle" x="448" y="-7.5" font-family="Helvetica,sans-Serif" font-size="10.00">Visualization::setGrid</text>
</a>
</g>
</g>
<!-- Node1&#45;&gt;Node6 -->
<g id="edge6" class="edge">
<title>Node1&#45;&gt;Node6</title>
<path fill="none" stroke="midnightblue" d="M534.44,-35.46C517.1,-30.3 497.32,-24.4 481.16,-19.59"/>
<polygon fill="midnightblue" stroke="midnightblue" points="533.74,-38.91 544.33,-38.41 535.74,-32.2 533.74,-38.91"/>
</g>
<!-- Node3 -->
<g id="node3" class="node">
<title>Node3</title>
<g id="a_node3"><a xlink:href="../../dc/d90/class_anti_virus.html#a3b3aed962d274c4333a8c9ac191816a0" target="_top" xlink:title=" ">
<polygon fill="none" stroke="black" points="0,-57.5 0,-76.5 102,-76.5 102,-57.5 0,-57.5"/>
<text text-anchor="middle" x="51" y="-64.5" font-family="Helvetica,sans-Serif" font-size="10.00">AntiVirus::AntiVirus</text>
</a>
</g>
</g>
<!-- Node2&#45;&gt;Node3 -->
<g id="edge2" class="edge">
<title>Node2&#45;&gt;Node3</title>
<path fill="none" stroke="midnightblue" d="M127.66,-67C119.24,-67 110.62,-67 102.34,-67"/>
<polygon fill="midnightblue" stroke="midnightblue" points="127.79,-70.5 137.79,-67 127.79,-63.5 127.79,-70.5"/>
</g>
<!-- Node5 -->
<g id="node5" class="node">
<title>Node5</title>
<g id="a_node5"><a xlink:href="../../d2/d5c/class_iface.html#a42712663a207dad0227b8fc592c7046b" target="_top" xlink:title=" ">
<polygon fill="none" stroke="black" points="269,-38.5 269,-57.5 357,-57.5 357,-38.5 269,-38.5"/>
<text text-anchor="middle" x="313" y="-45.5" font-family="Helvetica,sans-Serif" font-size="10.00">Iface::createGrid</text>
</a>
</g>
</g>
<!-- Node4&#45;&gt;Node5 -->
<g id="edge4" class="edge">
<title>Node4&#45;&gt;Node5</title>
<path fill="none" stroke="midnightblue" d="M400.29,-48C386.34,-48 371.11,-48 357.39,-48"/>
<polygon fill="midnightblue" stroke="midnightblue" points="400.66,-51.5 410.66,-48 400.66,-44.5 400.66,-51.5"/>
</g>
<!-- Node5&#45;&gt;Node2 -->
<g id="edge5" class="edge">
<title>Node5&#45;&gt;Node2</title>
<path fill="none" stroke="midnightblue" d="M258.65,-56.08C250.19,-57.36 241.49,-58.67 233.2,-59.93"/>
<polygon fill="midnightblue" stroke="midnightblue" points="259.45,-59.5 268.81,-54.54 258.4,-52.58 259.45,-59.5"/>
</g>
</g>
</svg>
        <g id="navigator" transform="translate(0 0)" fill="#404254">
                <rect fill="#f2f5e9" fill-opacity="0.5" stroke="#606060" stroke-width=".5" x="0" y="0" width="60" height="60"/>
                <use id="zoomplus" xlink:href="#zoomPlus" x="17" y="9" onmousedown="handleZoom(evt,'in')"/>
                <use id="zoomminus" xlink:href="#zoomMin" x="42" y="9" onmousedown="handleZoom(evt,'out')"/>
                <use id="reset" xlink:href="#resetDef" x="30" y="36" onmousedown="handleReset()"/>
                <g id="arrowUp" xlink:href="#dirArrow" transform="translate(30 24)" onmousedown="handlePan(0,-1)">
                  <use xlink:href="#rim" fill="#404040">
                        <set attributeName="fill" to="#808080" begin="arrowUp.mouseover" end="arrowUp.mouseout"/>
                  </use>
                  <path fill="none" stroke="white" stroke-width="1.5" d="M0,-3.0v7 M-2.5,-0.5L0,-3.0L2.5,-0.5"/>
                </g>
                <g id="arrowRight" xlink:href="#dirArrow" transform="rotate(90) translate(36 -43)" onmousedown="handlePan(1,0)">
                  <use xlink:href="#rim" fill="#404040">
                        <set attributeName="fill" to="#808080" begin="arrowRight.mouseover" end="arrowRight.mouseout"/>
                  </use>
                  <path fill="none" stroke="white" stroke-width="1.5" d="M0,-3.0v7 M-2.5,-0.5L0,-3.0L2.5,-0.5"/>
                </g>
                <g id="arrowDown" xlink:href="#dirArrow" transform="rotate(180) translate(-30 -48)" onmousedown="handlePan(0,1)">
                  <use xlink:href="#rim" fill="#404040">
                        <set attributeName="fill" to="#808080" begin="arrowDown.mouseover" end="arrowDown.mouseout"/>
                  </use>
                  <path fill="none" stroke="white" stroke-width="1.5" d="M0,-3.0v7 M-2.5,-0.5L0,-3.0L2.5,-0.5"/>
                </g>
                <g id="arrowLeft" xlink:href="#dirArrow" transform="rotate(270) translate(-36 17)" onmousedown="handlePan(-1,0)">
                  <use xlink:href="#rim" fill="#404040">
                        <set attributeName="fill" to="#808080" begin="arrowLeft.mouseover" end="arrowLeft.mouseout"/>
                  </use>
                  <path fill="none" stroke="white" stroke-width="1.5" d="M0,-3.0v7 M-2.5,-0.5L0,-3.0L2.5,-0.5"/>
                </g>
        </g>
        <svg viewBox="0 0 15 15" width="100%" height="30px" preserveAspectRatio="xMaxYMin meet">
         <g id="arrow_out" transform="scale(0.3 0.3)">
          <a xlink:href="class_logic_ad75934b1d5b2304e6999be5e6c708ee9_icgraph_org.svg" target="_base">
           <rect id="button" ry="5" rx="5" y="6" x="6" height="38" width="38"
                fill="#f2f5e9" fill-opacity="0.5" stroke="#606060" stroke-width="1.0"/>
           <path id="arrow"
             d="M 11.500037,31.436501 C 11.940474,20.09759 22.043105,11.32322 32.158766,21.979434 L 37.068811,17.246167 C 37.068811,17.246167 37.088388,32 37.088388,32 L 22.160133,31.978069 C 22.160133,31.978069 26.997745,27.140456 26.997745,27.140456 C 18.528582,18.264221 13.291696,25.230495 11.500037,31.436501 z"
             style="fill:#404040;"/>
          </a>
         </g>
        </svg>
</svg>
