<?xml version="1.0" encoding="UTF-8" standalone="no"?>
<!DOCTYPE svg PUBLIC "-//W3C//DTD SVG 1.1//EN"
 "http://www.w3.org/Graphics/SVG/1.1/DTD/svg11.dtd">
<!-- Generated by graphviz version 2.44.1 (20200629.0846)
 -->
<!-- Title: Logic::calculateVaccination Pages: 1 -->
<svg width="457pt" height="180pt"
 viewBox="0.00 0.00 457.00 180.00" xmlns="http://www.w3.org/2000/svg" xmlns:xlink="http://www.w3.org/1999/xlink">
<g id="graph0" class="graph" transform="scale(1 1) rotate(0) translate(4 176)">
<title>Logic::calculateVaccination</title>
<!-- Node1 -->
<g id="node1" class="node">
<title>Node1</title>
<g id="a_node1"><a xlink:title=" ">
<polygon fill="#bfbfbf" stroke="black" points="0,-76.5 0,-95.5 136,-95.5 136,-76.5 0,-76.5"/>
<text text-anchor="middle" x="68" y="-83.5" font-family="Helvetica,sans-Serif" font-size="10.00">Logic::calculateVaccination</text>
</a>
</g>
</g>
<!-- Node2 -->
<g id="node2" class="node">
<title>Node2</title>
<g id="a_node2"><a xlink:href="../../dc/d67/class_field.html#a3ceb497dd33f97896974a2367fedc3c4" target="_top" xlink:title=" ">
<polygon fill="none" stroke="black" points="172,-152.5 172,-171.5 317,-171.5 317,-152.5 172,-152.5"/>
<text text-anchor="middle" x="244.5" y="-159.5" font-family="Helvetica,sans-Serif" font-size="10.00">Field::getCurrentInfectionRate</text>
</a>
</g>
</g>
<!-- Node1&#45;&gt;Node2 -->
<g id="edge1" class="edge">
<title>Node1&#45;&gt;Node2</title>
<path fill="none" stroke="midnightblue" d="M83.78,-95.71C103.28,-108.16 139.01,-129.72 172,-143 177.94,-145.39 184.28,-147.57 190.64,-149.53"/>
<polygon fill="midnightblue" stroke="midnightblue" points="190.01,-153 200.59,-152.43 191.97,-146.28 190.01,-153"/>
</g>
<!-- Node3 -->
<g id="node3" class="node">
<title>Node3</title>
<g id="a_node3"><a xlink:href="../../da/d74/class_grid.html#aff3d5bc3ea4e8da08e0a78d7f73f0084" target="_top" xlink:title=" ">
<polygon fill="none" stroke="black" points="189.5,-114.5 189.5,-133.5 299.5,-133.5 299.5,-114.5 189.5,-114.5"/>
<text text-anchor="middle" x="244.5" y="-121.5" font-family="Helvetica,sans-Serif" font-size="10.00">Grid::getFieldByPoint</text>
</a>
</g>
</g>
<!-- Node1&#45;&gt;Node3 -->
<g id="edge2" class="edge">
<title>Node1&#45;&gt;Node3</title>
<path fill="none" stroke="midnightblue" d="M113.03,-95.59C136.37,-100.67 165.23,-106.96 189.87,-112.32"/>
<polygon fill="midnightblue" stroke="midnightblue" points="189.27,-115.77 199.78,-114.48 190.76,-108.93 189.27,-115.77"/>
</g>
<!-- Node7 -->
<g id="node7" class="node">
<title>Node7</title>
<g id="a_node7"><a xlink:href="../../dc/d67/class_field.html#a17faeb6e0835c0ec6446c5f6b291d806" target="_top" xlink:title=" ">
<polygon fill="none" stroke="black" points="176.5,-76.5 176.5,-95.5 312.5,-95.5 312.5,-76.5 176.5,-76.5"/>
<text text-anchor="middle" x="244.5" y="-83.5" font-family="Helvetica,sans-Serif" font-size="10.00">Field::getPopulationDensity</text>
</a>
</g>
</g>
<!-- Node1&#45;&gt;Node7 -->
<g id="edge6" class="edge">
<title>Node1&#45;&gt;Node7</title>
<path fill="none" stroke="midnightblue" d="M136.47,-86C146.15,-86 156.17,-86 166.03,-86"/>
<polygon fill="midnightblue" stroke="midnightblue" points="166.21,-89.5 176.21,-86 166.21,-82.5 166.21,-89.5"/>
</g>
<!-- Node8 -->
<g id="node8" class="node">
<title>Node8</title>
<g id="a_node8"><a xlink:href="../../dc/d67/class_field.html#a35aeab02328c4fdc387534a7a8f61bb3" target="_top" xlink:title=" ">
<polygon fill="none" stroke="black" points="181.5,-38.5 181.5,-57.5 307.5,-57.5 307.5,-38.5 181.5,-38.5"/>
<text text-anchor="middle" x="244.5" y="-45.5" font-family="Helvetica,sans-Serif" font-size="10.00">Field::getStoredVaccines</text>
</a>
</g>
</g>
<!-- Node1&#45;&gt;Node8 -->
<g id="edge7" class="edge">
<title>Node1&#45;&gt;Node8</title>
<path fill="none" stroke="midnightblue" d="M113.03,-76.41C136.37,-71.33 165.23,-65.04 189.87,-59.68"/>
<polygon fill="midnightblue" stroke="midnightblue" points="190.76,-63.07 199.78,-57.52 189.27,-56.23 190.76,-63.07"/>
</g>
<!-- Node9 -->
<g id="node9" class="node">
<title>Node9</title>
<g id="a_node9"><a xlink:href="../../dc/d67/class_field.html#a04c6c9dfaf10a4ed003292b446a0111f" target="_top" xlink:title=" ">
<polygon fill="none" stroke="black" points="207.5,-0.5 207.5,-19.5 281.5,-19.5 281.5,-0.5 207.5,-0.5"/>
<text text-anchor="middle" x="244.5" y="-7.5" font-family="Helvetica,sans-Serif" font-size="10.00">Field::isClear</text>
</a>
</g>
</g>
<!-- Node1&#45;&gt;Node9 -->
<g id="edge8" class="edge">
<title>Node1&#45;&gt;Node9</title>
<path fill="none" stroke="midnightblue" d="M83.78,-76.29C103.28,-63.84 139.01,-42.28 172,-29 180.05,-25.76 188.83,-22.91 197.4,-20.46"/>
<polygon fill="midnightblue" stroke="midnightblue" points="198.56,-23.77 207.3,-17.78 196.73,-17.02 198.56,-23.77"/>
</g>
<!-- Node4 -->
<g id="node4" class="node">
<title>Node4</title>
<g id="a_node4"><a xlink:href="../../da/d74/class_grid.html#a3618702f7872969eedc6e8817dc26776" target="_top" xlink:title=" ">
<polygon fill="none" stroke="black" points="353,-152.5 353,-171.5 449,-171.5 449,-152.5 353,-152.5"/>
<text text-anchor="middle" x="401" y="-159.5" font-family="Helvetica,sans-Serif" font-size="10.00">Grid::getFieldByID</text>
</a>
</g>
</g>
<!-- Node3&#45;&gt;Node4 -->
<g id="edge3" class="edge">
<title>Node3&#45;&gt;Node4</title>
<path fill="none" stroke="midnightblue" d="M284.49,-133.59C304.78,-138.58 329.79,-144.73 351.35,-150.03"/>
<polygon fill="midnightblue" stroke="midnightblue" points="350.75,-153.49 361.29,-152.48 352.42,-146.69 350.75,-153.49"/>
</g>
<!-- Node5 -->
<g id="node5" class="node">
<title>Node5</title>
<g id="a_node5"><a xlink:href="../../d1/d22/class_utils_1_1_point.html#a4fd453f573c399f7195a8982268a9f55" target="_top" xlink:title=" ">
<polygon fill="none" stroke="black" points="356.5,-114.5 356.5,-133.5 445.5,-133.5 445.5,-114.5 356.5,-114.5"/>
<text text-anchor="middle" x="401" y="-121.5" font-family="Helvetica,sans-Serif" font-size="10.00">Utils::Point::getX</text>
</a>
</g>
</g>
<!-- Node3&#45;&gt;Node5 -->
<g id="edge4" class="edge">
<title>Node3&#45;&gt;Node5</title>
<path fill="none" stroke="midnightblue" d="M299.54,-124C314.67,-124 331.11,-124 346.22,-124"/>
<polygon fill="midnightblue" stroke="midnightblue" points="346.44,-127.5 356.44,-124 346.44,-120.5 346.44,-127.5"/>
</g>
<!-- Node6 -->
<g id="node6" class="node">
<title>Node6</title>
<g id="a_node6"><a xlink:href="../../d1/d22/class_utils_1_1_point.html#a62ce3a4ededc21a4f417bf18e357fc8e" target="_top" xlink:title=" ">
<polygon fill="none" stroke="black" points="355.5,-76.5 355.5,-95.5 446.5,-95.5 446.5,-76.5 355.5,-76.5"/>
<text text-anchor="middle" x="401" y="-83.5" font-family="Helvetica,sans-Serif" font-size="10.00">Utils::Point::getY</text>
</a>
</g>
</g>
<!-- Node3&#45;&gt;Node6 -->
<g id="edge5" class="edge">
<title>Node3&#45;&gt;Node6</title>
<path fill="none" stroke="midnightblue" d="M284.49,-114.41C304.78,-109.42 329.79,-103.27 351.35,-97.97"/>
<polygon fill="midnightblue" stroke="midnightblue" points="352.42,-101.31 361.29,-95.52 350.75,-94.51 352.42,-101.31"/>
</g>
</g>
</svg>
