<?xml version="1.0" encoding="UTF-8" standalone="no"?>
<!DOCTYPE svg PUBLIC "-//W3C//DTD SVG 1.1//EN"
 "http://www.w3.org/Graphics/SVG/1.1/DTD/svg11.dtd">
<!-- Generated by graphviz version 2.44.1 (20200629.0846)
 -->
<!-- Title: Logic::simulateVaccination Pages: 1 -->
<svg width="432pt" height="104pt"
 viewBox="0.00 0.00 432.00 104.00" xmlns="http://www.w3.org/2000/svg" xmlns:xlink="http://www.w3.org/1999/xlink">
<g id="graph0" class="graph" transform="scale(1 1) rotate(0) translate(4 100)">
<title>Logic::simulateVaccination</title>
<!-- Node1 -->
<g id="node1" class="node">
<title>Node1</title>
<g id="a_node1"><a xlink:title=" ">
<polygon fill="#bfbfbf" stroke="black" points="0,-38.5 0,-57.5 134,-57.5 134,-38.5 0,-38.5"/>
<text text-anchor="middle" x="67" y="-45.5" font-family="Helvetica,sans-Serif" font-size="10.00">Logic::simulateVaccination</text>
</a>
</g>
</g>
<!-- Node2 -->
<g id="node2" class="node">
<title>Node2</title>
<g id="a_node2"><a xlink:href="../../dc/d67/class_field.html#ad96a3faacfa496c97c676888c2f323d4" target="_top" xlink:title=" ">
<polygon fill="none" stroke="black" points="170,-76.5 170,-95.5 292,-95.5 292,-76.5 170,-76.5"/>
<text text-anchor="middle" x="231" y="-83.5" font-family="Helvetica,sans-Serif" font-size="10.00">Field::callBackVaccines</text>
</a>
</g>
</g>
<!-- Node1&#45;&gt;Node2 -->
<g id="edge1" class="edge">
<title>Node1&#45;&gt;Node2</title>
<path fill="none" stroke="midnightblue" d="M108.88,-57.59C130.35,-62.63 156.86,-68.84 179.6,-74.18"/>
<polygon fill="midnightblue" stroke="midnightblue" points="178.88,-77.6 189.41,-76.48 180.48,-70.79 178.88,-77.6"/>
</g>
<!-- Node3 -->
<g id="node3" class="node">
<title>Node3</title>
<g id="a_node3"><a xlink:href="../../da/d74/class_grid.html#aff3d5bc3ea4e8da08e0a78d7f73f0084" target="_top" xlink:title=" ">
<polygon fill="none" stroke="black" points="176,-38.5 176,-57.5 286,-57.5 286,-38.5 176,-38.5"/>
<text text-anchor="middle" x="231" y="-45.5" font-family="Helvetica,sans-Serif" font-size="10.00">Grid::getFieldByPoint</text>
</a>
</g>
</g>
<!-- Node1&#45;&gt;Node3 -->
<g id="edge2" class="edge">
<title>Node1&#45;&gt;Node3</title>
<path fill="none" stroke="midnightblue" d="M134.36,-48C144.71,-48 155.4,-48 165.71,-48"/>
<polygon fill="midnightblue" stroke="midnightblue" points="165.86,-51.5 175.86,-48 165.86,-44.5 165.86,-51.5"/>
</g>
<!-- Node7 -->
<g id="node7" class="node">
<title>Node7</title>
<g id="a_node7"><a xlink:href="../../dc/d67/class_field.html#a82dd5a1c9844b790ea7032a62856f90c" target="_top" xlink:title=" ">
<polygon fill="none" stroke="black" points="178.5,-0.5 178.5,-19.5 283.5,-19.5 283.5,-0.5 178.5,-0.5"/>
<text text-anchor="middle" x="231" y="-7.5" font-family="Helvetica,sans-Serif" font-size="10.00">Field::pushVaccines</text>
</a>
</g>
</g>
<!-- Node1&#45;&gt;Node7 -->
<g id="edge6" class="edge">
<title>Node1&#45;&gt;Node7</title>
<path fill="none" stroke="midnightblue" d="M108.88,-38.41C130.35,-33.37 156.86,-27.16 179.6,-21.82"/>
<polygon fill="midnightblue" stroke="midnightblue" points="180.48,-25.21 189.41,-19.52 178.88,-18.4 180.48,-25.21"/>
</g>
<!-- Node4 -->
<g id="node4" class="node">
<title>Node4</title>
<g id="a_node4"><a xlink:href="../../da/d74/class_grid.html#a3618702f7872969eedc6e8817dc26776" target="_top" xlink:title=" ">
<polygon fill="none" stroke="black" points="328,-76.5 328,-95.5 424,-95.5 424,-76.5 328,-76.5"/>
<text text-anchor="middle" x="376" y="-83.5" font-family="Helvetica,sans-Serif" font-size="10.00">Grid::getFieldByID</text>
</a>
</g>
</g>
<!-- Node3&#45;&gt;Node4 -->
<g id="edge3" class="edge">
<title>Node3&#45;&gt;Node4</title>
<path fill="none" stroke="midnightblue" d="M268.08,-57.59C286.63,-62.52 309.43,-68.57 329.2,-73.83"/>
<polygon fill="midnightblue" stroke="midnightblue" points="328.36,-77.23 338.93,-76.41 330.16,-70.46 328.36,-77.23"/>
</g>
<!-- Node5 -->
<g id="node5" class="node">
<title>Node5</title>
<g id="a_node5"><a xlink:href="../../d1/d22/class_utils_1_1_point.html#a4fd453f573c399f7195a8982268a9f55" target="_top" xlink:title=" ">
<polygon fill="none" stroke="black" points="331.5,-38.5 331.5,-57.5 420.5,-57.5 420.5,-38.5 331.5,-38.5"/>
<text text-anchor="middle" x="376" y="-45.5" font-family="Helvetica,sans-Serif" font-size="10.00">Utils::Point::getX</text>
</a>
</g>
</g>
<!-- Node3&#45;&gt;Node5 -->
<g id="edge4" class="edge">
<title>Node3&#45;&gt;Node5</title>
<path fill="none" stroke="midnightblue" d="M286.06,-48C297.45,-48 309.46,-48 320.85,-48"/>
<polygon fill="midnightblue" stroke="midnightblue" points="321.09,-51.5 331.09,-48 321.09,-44.5 321.09,-51.5"/>
</g>
<!-- Node6 -->
<g id="node6" class="node">
<title>Node6</title>
<g id="a_node6"><a xlink:href="../../d1/d22/class_utils_1_1_point.html#a62ce3a4ededc21a4f417bf18e357fc8e" target="_top" xlink:title=" ">
<polygon fill="none" stroke="black" points="330.5,-0.5 330.5,-19.5 421.5,-19.5 421.5,-0.5 330.5,-0.5"/>
<text text-anchor="middle" x="376" y="-7.5" font-family="Helvetica,sans-Serif" font-size="10.00">Utils::Point::getY</text>
</a>
</g>
</g>
<!-- Node3&#45;&gt;Node6 -->
<g id="edge5" class="edge">
<title>Node3&#45;&gt;Node6</title>
<path fill="none" stroke="midnightblue" d="M268.08,-38.41C286.63,-33.48 309.43,-27.43 329.2,-22.17"/>
<polygon fill="midnightblue" stroke="midnightblue" points="330.16,-25.54 338.93,-19.59 328.36,-18.77 330.16,-25.54"/>
</g>
</g>
</svg>
