<?xml version="1.0" encoding="UTF-8" standalone="no"?>
<!DOCTYPE svg PUBLIC "-//W3C//DTD SVG 1.1//EN"
 "http://www.w3.org/Graphics/SVG/1.1/DTD/svg11.dtd">
<!-- Generated by graphviz version 2.44.1 (20200629.0846)
 -->
<!-- Title: Logic::calculateSpontaneousInfection Pages: 1 -->
<svg width="467pt" height="294pt"
 viewBox="0.00 0.00 467.00 294.00" xmlns="http://www.w3.org/2000/svg" xmlns:xlink="http://www.w3.org/1999/xlink">
<g id="graph0" class="graph" transform="scale(1 1) rotate(0) translate(4 290)">
<title>Logic::calculateSpontaneousInfection</title>
<!-- Node1 -->
<g id="node1" class="node">
<title>Node1</title>
<g id="a_node1"><a xlink:title=" ">
<polygon fill="#bfbfbf" stroke="black" points="0,-128 0,-158 142,-158 142,-128 0,-128"/>
<text text-anchor="start" x="8" y="-146" font-family="Helvetica,sans-Serif" font-size="10.00">Logic::calculateSpontaneous</text>
<text text-anchor="middle" x="71" y="-135" font-family="Helvetica,sans-Serif" font-size="10.00">Infection</text>
</a>
</g>
</g>
<!-- Node2 -->
<g id="node2" class="node">
<title>Node2</title>
<g id="a_node2"><a xlink:href="../../dc/d67/class_field.html#a79869bd37f491e83beab556eaa3e50c0" target="_top" xlink:title=" ">
<polygon fill="none" stroke="black" points="180.5,-266.5 180.5,-285.5 317.5,-285.5 317.5,-266.5 180.5,-266.5"/>
<text text-anchor="middle" x="249" y="-273.5" font-family="Helvetica,sans-Serif" font-size="10.00">Field::getAssignedDistrictID</text>
</a>
</g>
</g>
<!-- Node1&#45;&gt;Node2 -->
<g id="edge1" class="edge">
<title>Node1&#45;&gt;Node2</title>
<path fill="none" stroke="midnightblue" d="M81.79,-158.08C98.51,-182.61 134.97,-231.01 178,-257 181.58,-259.16 185.4,-261.08 189.35,-262.79"/>
<polygon fill="midnightblue" stroke="midnightblue" points="188.15,-266.07 198.74,-266.39 190.66,-259.54 188.15,-266.07"/>
</g>
<!-- Node3 -->
<g id="node3" class="node">
<title>Node3</title>
<g id="a_node3"><a xlink:href="../../da/d74/class_grid.html#a53693945f3d1ec88325b6a7c45053b7d" target="_top" xlink:title=" ">
<polygon fill="none" stroke="black" points="197,-228.5 197,-247.5 301,-247.5 301,-228.5 197,-228.5"/>
<text text-anchor="middle" x="249" y="-235.5" font-family="Helvetica,sans-Serif" font-size="10.00">Grid::getCurrentTick</text>
</a>
</g>
</g>
<!-- Node1&#45;&gt;Node3 -->
<g id="edge2" class="edge">
<title>Node1&#45;&gt;Node3</title>
<path fill="none" stroke="midnightblue" d="M89.14,-158.29C109.14,-175.37 143.84,-202.77 178,-219 182.98,-221.36 188.3,-223.48 193.7,-225.35"/>
<polygon fill="midnightblue" stroke="midnightblue" points="192.86,-228.76 203.45,-228.48 194.99,-222.09 192.86,-228.76"/>
</g>
<!-- Node4 -->
<g id="node4" class="node">
<title>Node4</title>
<g id="a_node4"><a xlink:href="../../da/d74/class_grid.html#af60e6e64cac90b7d38132dc6560b2052" target="_top" xlink:title=" ">
<polygon fill="none" stroke="black" points="196,-190.5 196,-209.5 302,-209.5 302,-190.5 196,-190.5"/>
<text text-anchor="middle" x="249" y="-197.5" font-family="Helvetica,sans-Serif" font-size="10.00">Grid::getDistrictByID</text>
</a>
</g>
</g>
<!-- Node1&#45;&gt;Node4 -->
<g id="edge3" class="edge">
<title>Node1&#45;&gt;Node4</title>
<path fill="none" stroke="midnightblue" d="M111.51,-158.01C131.34,-165.32 155.81,-174.02 178,-181 185.43,-183.34 193.36,-185.65 201.11,-187.82"/>
<polygon fill="midnightblue" stroke="midnightblue" points="200.22,-191.21 210.79,-190.49 202.07,-184.46 200.22,-191.21"/>
</g>
<!-- Node5 -->
<g id="node5" class="node">
<title>Node5</title>
<g id="a_node5"><a xlink:href="../../dc/d64/class_utils_1_1_random.html#a8b6fde0d9c07b7205894eef230c89811" target="_top" xlink:title=" ">
<polygon fill="none" stroke="black" points="186.5,-152.5 186.5,-171.5 311.5,-171.5 311.5,-152.5 186.5,-152.5"/>
<text text-anchor="middle" x="249" y="-159.5" font-family="Helvetica,sans-Serif" font-size="10.00">Utils::Random::getFactor</text>
</a>
</g>
</g>
<!-- Node1&#45;&gt;Node5 -->
<g id="edge4" class="edge">
<title>Node1&#45;&gt;Node5</title>
<path fill="none" stroke="midnightblue" d="M142.07,-150.56C153.29,-151.78 164.93,-153.03 176.2,-154.25"/>
<polygon fill="midnightblue" stroke="midnightblue" points="176.11,-157.76 186.42,-155.35 176.86,-150.8 176.11,-157.76"/>
</g>
<!-- Node6 -->
<g id="node6" class="node">
<title>Node6</title>
<g id="a_node6"><a xlink:href="../../da/d74/class_grid.html#aff3d5bc3ea4e8da08e0a78d7f73f0084" target="_top" xlink:title=" ">
<polygon fill="none" stroke="black" points="194,-114.5 194,-133.5 304,-133.5 304,-114.5 194,-114.5"/>
<text text-anchor="middle" x="249" y="-121.5" font-family="Helvetica,sans-Serif" font-size="10.00">Grid::getFieldByPoint</text>
</a>
</g>
</g>
<!-- Node1&#45;&gt;Node6 -->
<g id="edge5" class="edge">
<title>Node1&#45;&gt;Node6</title>
<path fill="none" stroke="midnightblue" d="M142.07,-135.44C155.82,-133.95 170.18,-132.4 183.72,-130.94"/>
<polygon fill="midnightblue" stroke="midnightblue" points="184.34,-134.39 193.9,-129.84 183.59,-127.43 184.34,-134.39"/>
</g>
<!-- Node10 -->
<g id="node10" class="node">
<title>Node10</title>
<g id="a_node10"><a xlink:href="../../dc/d67/class_field.html#aa36a4d42e042a3146f6e6b9a0407597b" target="_top" xlink:title=" ">
<polygon fill="none" stroke="black" points="178,-76.5 178,-95.5 320,-95.5 320,-76.5 178,-76.5"/>
<text text-anchor="middle" x="249" y="-83.5" font-family="Helvetica,sans-Serif" font-size="10.00">Field::getLastInfectionValues</text>
</a>
</g>
</g>
<!-- Node1&#45;&gt;Node10 -->
<g id="edge9" class="edge">
<title>Node1&#45;&gt;Node10</title>
<path fill="none" stroke="midnightblue" d="M111.51,-127.99C131.34,-120.68 155.81,-111.98 178,-105 185.43,-102.66 193.36,-100.35 201.11,-98.18"/>
<polygon fill="midnightblue" stroke="midnightblue" points="202.07,-101.54 210.79,-95.51 200.22,-94.79 202.07,-101.54"/>
</g>
<!-- Node11 -->
<g id="node11" class="node">
<title>Node11</title>
<g id="a_node11"><a xlink:href="../../d6/d85/class_district.html#a9f95a81345775882edb95c75893ef5ba" target="_top" xlink:title=" ">
<polygon fill="none" stroke="black" points="207.5,-38.5 207.5,-57.5 290.5,-57.5 290.5,-38.5 207.5,-38.5"/>
<text text-anchor="middle" x="249" y="-45.5" font-family="Helvetica,sans-Serif" font-size="10.00">District::isClear</text>
</a>
</g>
</g>
<!-- Node1&#45;&gt;Node11 -->
<g id="edge10" class="edge">
<title>Node1&#45;&gt;Node11</title>
<path fill="none" stroke="midnightblue" d="M89.14,-127.71C109.14,-110.63 143.84,-83.23 178,-67 184.11,-64.1 190.75,-61.57 197.41,-59.4"/>
<polygon fill="midnightblue" stroke="midnightblue" points="198.58,-62.7 207.14,-56.46 196.55,-56 198.58,-62.7"/>
</g>
<!-- Node12 -->
<g id="node12" class="node">
<title>Node12</title>
<g id="a_node12"><a xlink:href="../../da/df6/class_logic.html#a30152d112cacf98f17a849d9769ab6ef" target="_top" xlink:title=" ">
<polygon fill="none" stroke="black" points="194,-0.5 194,-19.5 304,-19.5 304,-0.5 194,-0.5"/>
<text text-anchor="middle" x="249" y="-7.5" font-family="Helvetica,sans-Serif" font-size="10.00">Logic::shiftFactor2to4</text>
</a>
</g>
</g>
<!-- Node1&#45;&gt;Node12 -->
<g id="edge11" class="edge">
<title>Node1&#45;&gt;Node12</title>
<path fill="none" stroke="midnightblue" d="M81.79,-127.92C98.51,-103.39 134.97,-54.99 178,-29 181.58,-26.84 185.4,-24.92 189.35,-23.21"/>
<polygon fill="midnightblue" stroke="midnightblue" points="190.66,-26.46 198.74,-19.61 188.15,-19.93 190.66,-26.46"/>
</g>
<!-- Node7 -->
<g id="node7" class="node">
<title>Node7</title>
<g id="a_node7"><a xlink:href="../../da/d74/class_grid.html#a3618702f7872969eedc6e8817dc26776" target="_top" xlink:title=" ">
<polygon fill="none" stroke="black" points="359.5,-152.5 359.5,-171.5 455.5,-171.5 455.5,-152.5 359.5,-152.5"/>
<text text-anchor="middle" x="407.5" y="-159.5" font-family="Helvetica,sans-Serif" font-size="10.00">Grid::getFieldByID</text>
</a>
</g>
</g>
<!-- Node6&#45;&gt;Node7 -->
<g id="edge6" class="edge">
<title>Node6&#45;&gt;Node7</title>
<path fill="none" stroke="midnightblue" d="M289.49,-133.59C310.14,-138.6 335.61,-144.79 357.51,-150.11"/>
<polygon fill="midnightblue" stroke="midnightblue" points="356.75,-153.52 367.29,-152.48 358.4,-146.72 356.75,-153.52"/>
</g>
<!-- Node8 -->
<g id="node8" class="node">
<title>Node8</title>
<g id="a_node8"><a xlink:href="../../d1/d22/class_utils_1_1_point.html#a4fd453f573c399f7195a8982268a9f55" target="_top" xlink:title=" ">
<polygon fill="none" stroke="black" points="363,-114.5 363,-133.5 452,-133.5 452,-114.5 363,-114.5"/>
<text text-anchor="middle" x="407.5" y="-121.5" font-family="Helvetica,sans-Serif" font-size="10.00">Utils::Point::getX</text>
</a>
</g>
</g>
<!-- Node6&#45;&gt;Node8 -->
<g id="edge7" class="edge">
<title>Node6&#45;&gt;Node8</title>
<path fill="none" stroke="midnightblue" d="M304.3,-124C320.01,-124 337.15,-124 352.83,-124"/>
<polygon fill="midnightblue" stroke="midnightblue" points="352.89,-127.5 362.89,-124 352.89,-120.5 352.89,-127.5"/>
</g>
<!-- Node9 -->
<g id="node9" class="node">
<title>Node9</title>
<g id="a_node9"><a xlink:href="../../d1/d22/class_utils_1_1_point.html#a62ce3a4ededc21a4f417bf18e357fc8e" target="_top" xlink:title=" ">
<polygon fill="none" stroke="black" points="362,-76.5 362,-95.5 453,-95.5 453,-76.5 362,-76.5"/>
<text text-anchor="middle" x="407.5" y="-83.5" font-family="Helvetica,sans-Serif" font-size="10.00">Utils::Point::getY</text>
</a>
</g>
</g>
<!-- Node6&#45;&gt;Node9 -->
<g id="edge8" class="edge">
<title>Node6&#45;&gt;Node9</title>
<path fill="none" stroke="midnightblue" d="M289.49,-114.41C310.14,-109.4 335.61,-103.21 357.51,-97.89"/>
<polygon fill="midnightblue" stroke="midnightblue" points="358.4,-101.28 367.29,-95.52 356.75,-94.48 358.4,-101.28"/>
</g>
<!-- Node13 -->
<g id="node13" class="node">
<title>Node13</title>
<g id="a_node13"><a xlink:href="../../dc/d64/class_utils_1_1_random.html#a8e32d199a5e6c46b317b4f594793f48e" target="_top" xlink:title=" ">
<polygon fill="none" stroke="black" points="356,-0.5 356,-19.5 459,-19.5 459,-0.5 356,-0.5"/>
<text text-anchor="middle" x="407.5" y="-7.5" font-family="Helvetica,sans-Serif" font-size="10.00">Utils::Random::next</text>
</a>
</g>
</g>
<!-- Node12&#45;&gt;Node13 -->
<g id="edge12" class="edge">
<title>Node12&#45;&gt;Node13</title>
<path fill="none" stroke="midnightblue" d="M304.3,-10C317.66,-10 332.06,-10 345.71,-10"/>
<polygon fill="midnightblue" stroke="midnightblue" points="345.98,-13.5 355.98,-10 345.98,-6.5 345.98,-13.5"/>
</g>
</g>
</svg>
