<?xml version="1.0" encoding="UTF-8" standalone="no"?>
<!DOCTYPE svg PUBLIC "-//W3C//DTD SVG 1.1//EN"
 "http://www.w3.org/Graphics/SVG/1.1/DTD/svg11.dtd">
<!-- Generated by graphviz version 2.44.1 (20200629.0846)
 -->
<!-- Title: Logic::calculateSpontaneousHealing Pages: 1 -->
<svg width="463pt" height="294pt"
 viewBox="0.00 0.00 463.00 294.00" xmlns="http://www.w3.org/2000/svg" xmlns:xlink="http://www.w3.org/1999/xlink">
<g id="graph0" class="graph" transform="scale(1 1) rotate(0) translate(4 290)">
<title>Logic::calculateSpontaneousHealing</title>
<!-- Node1 -->
<g id="node1" class="node">
<title>Node1</title>
<g id="a_node1"><a xlink:title=" ">
<polygon fill="#bfbfbf" stroke="black" points="0,-128 0,-158 142,-158 142,-128 0,-128"/>
<text text-anchor="start" x="8" y="-146" font-family="Helvetica,sans-Serif" font-size="10.00">Logic::calculateSpontaneous</text>
<text text-anchor="middle" x="71" y="-135" font-family="Helvetica,sans-Serif" font-size="10.00">Healing</text>
</a>
</g>
</g>
<!-- Node2 -->
<g id="node2" class="node">
<title>Node2</title>
<g id="a_node2"><a xlink:href="../../dc/d67/class_field.html#a3ceb497dd33f97896974a2367fedc3c4" target="_top" xlink:title=" ">
<polygon fill="none" stroke="black" points="178,-266.5 178,-285.5 323,-285.5 323,-266.5 178,-266.5"/>
<text text-anchor="middle" x="250.5" y="-273.5" font-family="Helvetica,sans-Serif" font-size="10.00">Field::getCurrentInfectionRate</text>
</a>
</g>
</g>
<!-- Node1&#45;&gt;Node2 -->
<g id="edge1" class="edge">
<title>Node1&#45;&gt;Node2</title>
<path fill="none" stroke="midnightblue" d="M81.78,-158.11C98.48,-182.67 134.9,-231.12 178,-257 181.65,-259.19 185.56,-261.14 189.6,-262.86"/>
<polygon fill="midnightblue" stroke="midnightblue" points="188.59,-266.22 199.18,-266.49 191.07,-259.68 188.59,-266.22"/>
</g>
<!-- Node3 -->
<g id="node3" class="node">
<title>Node3</title>
<g id="a_node3"><a xlink:href="../../da/d74/class_grid.html#a53693945f3d1ec88325b6a7c45053b7d" target="_top" xlink:title=" ">
<polygon fill="none" stroke="black" points="198.5,-228.5 198.5,-247.5 302.5,-247.5 302.5,-228.5 198.5,-228.5"/>
<text text-anchor="middle" x="250.5" y="-235.5" font-family="Helvetica,sans-Serif" font-size="10.00">Grid::getCurrentTick</text>
</a>
</g>
</g>
<!-- Node1&#45;&gt;Node3 -->
<g id="edge2" class="edge">
<title>Node1&#45;&gt;Node3</title>
<path fill="none" stroke="midnightblue" d="M88.77,-158.01C108.7,-175.11 143.6,-202.77 178,-219 183.01,-221.36 188.36,-223.47 193.79,-225.34"/>
<polygon fill="midnightblue" stroke="midnightblue" points="193.02,-228.77 203.61,-228.45 195.14,-222.09 193.02,-228.77"/>
</g>
<!-- Node4 -->
<g id="node4" class="node">
<title>Node4</title>
<g id="a_node4"><a xlink:href="../../dc/d64/class_utils_1_1_random.html#a8b6fde0d9c07b7205894eef230c89811" target="_top" xlink:title=" ">
<polygon fill="none" stroke="black" points="188,-190.5 188,-209.5 313,-209.5 313,-190.5 188,-190.5"/>
<text text-anchor="middle" x="250.5" y="-197.5" font-family="Helvetica,sans-Serif" font-size="10.00">Utils::Random::getFactor</text>
</a>
</g>
</g>
<!-- Node1&#45;&gt;Node4 -->
<g id="edge3" class="edge">
<title>Node1&#45;&gt;Node4</title>
<path fill="none" stroke="midnightblue" d="M111.5,-158.06C131.32,-165.38 155.79,-174.08 178,-181 185.5,-183.34 193.5,-185.64 201.33,-187.8"/>
<polygon fill="midnightblue" stroke="midnightblue" points="200.54,-191.21 211.11,-190.44 202.37,-184.45 200.54,-191.21"/>
</g>
<!-- Node5 -->
<g id="node5" class="node">
<title>Node5</title>
<g id="a_node5"><a xlink:href="../../da/d74/class_grid.html#aff3d5bc3ea4e8da08e0a78d7f73f0084" target="_top" xlink:title=" ">
<polygon fill="none" stroke="black" points="195.5,-152.5 195.5,-171.5 305.5,-171.5 305.5,-152.5 195.5,-152.5"/>
<text text-anchor="middle" x="250.5" y="-159.5" font-family="Helvetica,sans-Serif" font-size="10.00">Grid::getFieldByPoint</text>
</a>
</g>
</g>
<!-- Node1&#45;&gt;Node5 -->
<g id="edge4" class="edge">
<title>Node1&#45;&gt;Node5</title>
<path fill="none" stroke="midnightblue" d="M142.15,-150.51C156.42,-152.04 171.36,-153.64 185.41,-155.14"/>
<polygon fill="midnightblue" stroke="midnightblue" points="185.14,-158.63 195.46,-156.22 185.89,-151.67 185.14,-158.63"/>
</g>
<!-- Node9 -->
<g id="node9" class="node">
<title>Node9</title>
<g id="a_node9"><a xlink:href="../../da/d74/class_grid.html#ae7393bc74ab867cc3f4409c70d80351b" target="_top" xlink:title=" ">
<polygon fill="none" stroke="black" points="209.5,-114.5 209.5,-133.5 291.5,-133.5 291.5,-114.5 209.5,-114.5"/>
<text text-anchor="middle" x="250.5" y="-121.5" font-family="Helvetica,sans-Serif" font-size="10.00">Grid::getHeight</text>
</a>
</g>
</g>
<!-- Node1&#45;&gt;Node9 -->
<g id="edge8" class="edge">
<title>Node1&#45;&gt;Node9</title>
<path fill="none" stroke="midnightblue" d="M142.15,-135.49C161.27,-133.44 181.59,-131.27 199.35,-129.37"/>
<polygon fill="midnightblue" stroke="midnightblue" points="199.92,-132.83 209.49,-128.28 199.17,-125.87 199.92,-132.83"/>
</g>
<!-- Node10 -->
<g id="node10" class="node">
<title>Node10</title>
<g id="a_node10"><a xlink:href="../../dc/d67/class_field.html#aa423d47cf2447bea76169b293d0d703f" target="_top" xlink:title=" ">
<polygon fill="none" stroke="black" points="182,-76.5 182,-95.5 319,-95.5 319,-76.5 182,-76.5"/>
<text text-anchor="middle" x="250.5" y="-83.5" font-family="Helvetica,sans-Serif" font-size="10.00">Field::getLastInfectionRates</text>
</a>
</g>
</g>
<!-- Node1&#45;&gt;Node10 -->
<g id="edge9" class="edge">
<title>Node1&#45;&gt;Node10</title>
<path fill="none" stroke="midnightblue" d="M111.5,-127.94C131.32,-120.62 155.79,-111.92 178,-105 185.5,-102.66 193.5,-100.36 201.33,-98.2"/>
<polygon fill="midnightblue" stroke="midnightblue" points="202.37,-101.55 211.11,-95.56 200.54,-94.79 202.37,-101.55"/>
</g>
<!-- Node11 -->
<g id="node11" class="node">
<title>Node11</title>
<g id="a_node11"><a xlink:href="../../da/d74/class_grid.html#a862cf2f474e31195bea649b08cfb7b46" target="_top" xlink:title=" ">
<polygon fill="none" stroke="black" points="210.5,-38.5 210.5,-57.5 290.5,-57.5 290.5,-38.5 210.5,-38.5"/>
<text text-anchor="middle" x="250.5" y="-45.5" font-family="Helvetica,sans-Serif" font-size="10.00">Grid::getWidth</text>
</a>
</g>
</g>
<!-- Node1&#45;&gt;Node11 -->
<g id="edge10" class="edge">
<title>Node1&#45;&gt;Node11</title>
<path fill="none" stroke="midnightblue" d="M88.77,-127.99C108.7,-110.89 143.6,-83.23 178,-67 185.11,-63.65 192.9,-60.81 200.64,-58.44"/>
<polygon fill="midnightblue" stroke="midnightblue" points="201.71,-61.77 210.37,-55.67 199.8,-55.04 201.71,-61.77"/>
</g>
<!-- Node12 -->
<g id="node12" class="node">
<title>Node12</title>
<g id="a_node12"><a xlink:href="../../dc/d64/class_utils_1_1_random.html#a8e32d199a5e6c46b317b4f594793f48e" target="_top" xlink:title=" ">
<polygon fill="none" stroke="black" points="199,-0.5 199,-19.5 302,-19.5 302,-0.5 199,-0.5"/>
<text text-anchor="middle" x="250.5" y="-7.5" font-family="Helvetica,sans-Serif" font-size="10.00">Utils::Random::next</text>
</a>
</g>
</g>
<!-- Node1&#45;&gt;Node12 -->
<g id="edge11" class="edge">
<title>Node1&#45;&gt;Node12</title>
<path fill="none" stroke="midnightblue" d="M81.78,-127.89C98.48,-103.33 134.9,-54.88 178,-29 181.65,-26.81 185.56,-24.86 189.6,-23.14"/>
<polygon fill="midnightblue" stroke="midnightblue" points="191.07,-26.32 199.18,-19.51 188.59,-19.78 191.07,-26.32"/>
</g>
<!-- Node6 -->
<g id="node6" class="node">
<title>Node6</title>
<g id="a_node6"><a xlink:href="../../da/d74/class_grid.html#a3618702f7872969eedc6e8817dc26776" target="_top" xlink:title=" ">
<polygon fill="none" stroke="black" points="359,-190.5 359,-209.5 455,-209.5 455,-190.5 359,-190.5"/>
<text text-anchor="middle" x="407" y="-197.5" font-family="Helvetica,sans-Serif" font-size="10.00">Grid::getFieldByID</text>
</a>
</g>
</g>
<!-- Node5&#45;&gt;Node6 -->
<g id="edge5" class="edge">
<title>Node5&#45;&gt;Node6</title>
<path fill="none" stroke="midnightblue" d="M290.49,-171.59C310.78,-176.58 335.79,-182.73 357.35,-188.03"/>
<polygon fill="midnightblue" stroke="midnightblue" points="356.75,-191.49 367.29,-190.48 358.42,-184.69 356.75,-191.49"/>
</g>
<!-- Node7 -->
<g id="node7" class="node">
<title>Node7</title>
<g id="a_node7"><a xlink:href="../../d1/d22/class_utils_1_1_point.html#a4fd453f573c399f7195a8982268a9f55" target="_top" xlink:title=" ">
<polygon fill="none" stroke="black" points="362.5,-152.5 362.5,-171.5 451.5,-171.5 451.5,-152.5 362.5,-152.5"/>
<text text-anchor="middle" x="407" y="-159.5" font-family="Helvetica,sans-Serif" font-size="10.00">Utils::Point::getX</text>
</a>
</g>
</g>
<!-- Node5&#45;&gt;Node7 -->
<g id="edge6" class="edge">
<title>Node5&#45;&gt;Node7</title>
<path fill="none" stroke="midnightblue" d="M305.54,-162C320.67,-162 337.11,-162 352.22,-162"/>
<polygon fill="midnightblue" stroke="midnightblue" points="352.44,-165.5 362.44,-162 352.44,-158.5 352.44,-165.5"/>
</g>
<!-- Node8 -->
<g id="node8" class="node">
<title>Node8</title>
<g id="a_node8"><a xlink:href="../../d1/d22/class_utils_1_1_point.html#a62ce3a4ededc21a4f417bf18e357fc8e" target="_top" xlink:title=" ">
<polygon fill="none" stroke="black" points="361.5,-114.5 361.5,-133.5 452.5,-133.5 452.5,-114.5 361.5,-114.5"/>
<text text-anchor="middle" x="407" y="-121.5" font-family="Helvetica,sans-Serif" font-size="10.00">Utils::Point::getY</text>
</a>
</g>
</g>
<!-- Node5&#45;&gt;Node8 -->
<g id="edge7" class="edge">
<title>Node5&#45;&gt;Node8</title>
<path fill="none" stroke="midnightblue" d="M290.49,-152.41C310.78,-147.42 335.79,-141.27 357.35,-135.97"/>
<polygon fill="midnightblue" stroke="midnightblue" points="358.42,-139.31 367.29,-133.52 356.75,-132.51 358.42,-139.31"/>
</g>
</g>
</svg>
