<?xml version="1.0" encoding="UTF-8" standalone="no"?>
<!DOCTYPE svg PUBLIC "-//W3C//DTD SVG 1.1//EN"
 "http://www.w3.org/Graphics/SVG/1.1/DTD/svg11.dtd">
<!-- Generated by graphviz version 2.44.1 (20200629.0846)
 -->
<!-- Title: Visualization Pages: 1 -->
<svg width="416pt" height="723pt"
 viewBox="0.00 0.00 415.50 723.00" xmlns="http://www.w3.org/2000/svg" xmlns:xlink="http://www.w3.org/1999/xlink">
<g id="graph0" class="graph" transform="scale(1 1) rotate(0) translate(4 719)">
<title>Visualization</title>
<!-- Node1 -->
<g id="node1" class="node">
<title>Node1</title>
<g id="a_node1"><a xlink:title=" ">
<polygon fill="#bfbfbf" stroke="black" points="140,-0.5 140,-112.5 262,-112.5 262,-0.5 140,-0.5"/>
<text text-anchor="middle" x="201" y="-100.5" font-family="Helvetica,sans-Serif" font-size="10.00">Visualization</text>
<polyline fill="none" stroke="black" points="140,-93.5 262,-93.5 "/>
<text text-anchor="middle" x="201" y="-81.5" font-family="Helvetica,sans-Serif" font-size="10.00"> </text>
<polyline fill="none" stroke="black" points="140,-74.5 262,-74.5 "/>
<text text-anchor="start" x="148" y="-62.5" font-family="Helvetica,sans-Serif" font-size="10.00">+ Visualization()</text>
<text text-anchor="start" x="148" y="-51.5" font-family="Helvetica,sans-Serif" font-size="10.00">+ Visualization()</text>
<text text-anchor="start" x="148" y="-40.5" font-family="Helvetica,sans-Serif" font-size="10.00">+ Visualization()</text>
<text text-anchor="start" x="148" y="-29.5" font-family="Helvetica,sans-Serif" font-size="10.00">+ operator=()</text>
<text text-anchor="start" x="148" y="-18.5" font-family="Helvetica,sans-Serif" font-size="10.00">+ setGrid()</text>
<text text-anchor="start" x="148" y="-7.5" font-family="Helvetica,sans-Serif" font-size="10.00">+ displayCurrentRound()</text>
</a>
</g>
</g>
<!-- Node2 -->
<g id="node2" class="node">
<title>Node2</title>
<g id="a_node2"><a xlink:href="../../d2/d5c/class_iface.html" target="_top" xlink:title=" ">
<polygon fill="none" stroke="black" points="159,-150.5 159,-317.5 243,-317.5 243,-150.5 159,-150.5"/>
<text text-anchor="middle" x="201" y="-305.5" font-family="Helvetica,sans-Serif" font-size="10.00">Iface</text>
<polyline fill="none" stroke="black" points="159,-298.5 243,-298.5 "/>
<text text-anchor="middle" x="201" y="-286.5" font-family="Helvetica,sans-Serif" font-size="10.00"> </text>
<polyline fill="none" stroke="black" points="159,-279.5 243,-279.5 "/>
<text text-anchor="start" x="167" y="-267.5" font-family="Helvetica,sans-Serif" font-size="10.00">+ Iface()</text>
<text text-anchor="start" x="167" y="-256.5" font-family="Helvetica,sans-Serif" font-size="10.00">+ Iface()</text>
<text text-anchor="start" x="167" y="-245.5" font-family="Helvetica,sans-Serif" font-size="10.00">+ Iface()</text>
<text text-anchor="start" x="167" y="-234.5" font-family="Helvetica,sans-Serif" font-size="10.00">+ operator=()</text>
<text text-anchor="start" x="167" y="-223.5" font-family="Helvetica,sans-Serif" font-size="10.00">+ Iface()</text>
<text text-anchor="start" x="167" y="-212.5" font-family="Helvetica,sans-Serif" font-size="10.00">+ checkGrid()</text>
<text text-anchor="start" x="167" y="-201.5" font-family="Helvetica,sans-Serif" font-size="10.00">+ setGrid()</text>
<text text-anchor="start" x="167" y="-190.5" font-family="Helvetica,sans-Serif" font-size="10.00">+ getGrid()</text>
<text text-anchor="start" x="167" y="-179.5" font-family="Helvetica,sans-Serif" font-size="10.00">+ initAntiVirus()</text>
<text text-anchor="start" x="167" y="-168.5" font-family="Helvetica,sans-Serif" font-size="10.00">+ login()</text>
<text text-anchor="start" x="167" y="-157.5" font-family="Helvetica,sans-Serif" font-size="10.00">and 11 more...</text>
</a>
</g>
</g>
<!-- Node2&#45;&gt;Node1 -->
<g id="edge1" class="edge">
<title>Node2&#45;&gt;Node1</title>
<path fill="none" stroke="midnightblue" d="M201,-140.18C201,-130.77 201,-121.45 201,-112.64"/>
<polygon fill="none" stroke="midnightblue" points="197.5,-140.39 201,-150.39 204.5,-140.39 197.5,-140.39"/>
</g>
<!-- Node3 -->
<g id="node3" class="node">
<title>Node3</title>
<g id="a_node3"><a xlink:title=" ">
<polygon fill="none" stroke="#bfbfbf" points="0,-442.5 0,-499.5 62,-499.5 62,-442.5 0,-442.5"/>
<text text-anchor="middle" x="31" y="-487.5" font-family="Helvetica,sans-Serif" font-size="10.00">ostream &amp;</text>
<polyline fill="none" stroke="#bfbfbf" points="0,-480.5 62,-480.5 "/>
<text text-anchor="middle" x="31" y="-468.5" font-family="Helvetica,sans-Serif" font-size="10.00"> </text>
<polyline fill="none" stroke="#bfbfbf" points="0,-461.5 62,-461.5 "/>
<text text-anchor="middle" x="31" y="-449.5" font-family="Helvetica,sans-Serif" font-size="10.00"> </text>
</a>
</g>
</g>
<!-- Node3&#45;&gt;Node2 -->
<g id="edge2" class="edge">
<title>Node3&#45;&gt;Node2</title>
<path fill="none" stroke="#404040" d="M42.27,-442.13C49.5,-425.54 59.63,-404.41 71,-387 94.21,-351.45 124.9,-315.18 150.64,-287"/>
<polygon fill="none" stroke="#404040" points="150.67,-286.96 151.79,-279.84 158.8,-278.14 157.67,-285.26 150.67,-286.96"/>
<text text-anchor="middle" x="118" y="-355.5" font-family="Helvetica,sans-Serif" font-size="10.00"> #ers</text>
<text text-anchor="middle" x="118" y="-344.5" font-family="Helvetica,sans-Serif" font-size="10.00">#os</text>
</g>
<!-- Node4 -->
<g id="node4" class="node">
<title>Node4</title>
<g id="a_node4"><a xlink:href="../../da/d74/class_grid.html" target="_top" xlink:title=" ">
<polygon fill="none" stroke="black" points="80,-387.5 80,-554.5 180,-554.5 180,-387.5 80,-387.5"/>
<text text-anchor="middle" x="130" y="-542.5" font-family="Helvetica,sans-Serif" font-size="10.00">Grid</text>
<polyline fill="none" stroke="black" points="80,-535.5 180,-535.5 "/>
<text text-anchor="middle" x="130" y="-523.5" font-family="Helvetica,sans-Serif" font-size="10.00"> </text>
<polyline fill="none" stroke="black" points="80,-516.5 180,-516.5 "/>
<text text-anchor="start" x="88" y="-504.5" font-family="Helvetica,sans-Serif" font-size="10.00">+ Grid()</text>
<text text-anchor="start" x="88" y="-493.5" font-family="Helvetica,sans-Serif" font-size="10.00">+ Grid()</text>
<text text-anchor="start" x="88" y="-482.5" font-family="Helvetica,sans-Serif" font-size="10.00">+ operator=()</text>
<text text-anchor="start" x="88" y="-471.5" font-family="Helvetica,sans-Serif" font-size="10.00">+ operator=()</text>
<text text-anchor="start" x="88" y="-460.5" font-family="Helvetica,sans-Serif" font-size="10.00">+ Grid()</text>
<text text-anchor="start" x="88" y="-449.5" font-family="Helvetica,sans-Serif" font-size="10.00">+ operator[]()</text>
<text text-anchor="start" x="88" y="-438.5" font-family="Helvetica,sans-Serif" font-size="10.00">+ getWidth()</text>
<text text-anchor="start" x="88" y="-427.5" font-family="Helvetica,sans-Serif" font-size="10.00">+ getHeight()</text>
<text text-anchor="start" x="88" y="-416.5" font-family="Helvetica,sans-Serif" font-size="10.00">+ getCountryByID()</text>
<text text-anchor="start" x="88" y="-405.5" font-family="Helvetica,sans-Serif" font-size="10.00">+ getDistrictByID()</text>
<text text-anchor="start" x="88" y="-394.5" font-family="Helvetica,sans-Serif" font-size="10.00">and 21 more...</text>
</a>
</g>
</g>
<!-- Node4&#45;&gt;Node2 -->
<g id="edge3" class="edge">
<title>Node4&#45;&gt;Node2</title>
<path fill="none" stroke="#404040" d="M154.55,-387.41C159.63,-370.4 164.97,-352.61 170,-336 170.68,-333.76 171.36,-331.5 172.06,-329.21"/>
<polygon fill="none" stroke="#404040" points="172.08,-329.14 170,-322.24 175.57,-317.66 177.65,-324.57 172.08,-329.14"/>
<text text-anchor="middle" x="182.5" y="-350" font-family="Helvetica,sans-Serif" font-size="10.00"> #grid</text>
</g>
<!-- Node5 -->
<g id="node5" class="node">
<title>Node5</title>
<g id="a_node5"><a xlink:href="../../dc/d64/class_utils_1_1_random.html" target="_top" xlink:title=" ">
<polygon fill="none" stroke="black" points="91,-602.5 91,-714.5 169,-714.5 169,-602.5 91,-602.5"/>
<text text-anchor="middle" x="130" y="-702.5" font-family="Helvetica,sans-Serif" font-size="10.00">Utils::Random</text>
<polyline fill="none" stroke="black" points="91,-695.5 169,-695.5 "/>
<text text-anchor="middle" x="130" y="-683.5" font-family="Helvetica,sans-Serif" font-size="10.00"> </text>
<polyline fill="none" stroke="black" points="91,-676.5 169,-676.5 "/>
<text text-anchor="start" x="99" y="-664.5" font-family="Helvetica,sans-Serif" font-size="10.00">+ Random()</text>
<text text-anchor="start" x="99" y="-653.5" font-family="Helvetica,sans-Serif" font-size="10.00">+ Random()</text>
<text text-anchor="start" x="99" y="-642.5" font-family="Helvetica,sans-Serif" font-size="10.00">+ Random()</text>
<text text-anchor="start" x="99" y="-631.5" font-family="Helvetica,sans-Serif" font-size="10.00">+ operator=()</text>
<text text-anchor="start" x="99" y="-620.5" font-family="Helvetica,sans-Serif" font-size="10.00">+ next()</text>
<text text-anchor="start" x="99" y="-609.5" font-family="Helvetica,sans-Serif" font-size="10.00">+ getFactor()</text>
</a>
</g>
</g>
<!-- Node5&#45;&gt;Node4 -->
<g id="edge4" class="edge">
<title>Node5&#45;&gt;Node4</title>
<path fill="none" stroke="#404040" d="M130,-602.35C130,-591.13 130,-579.04 130,-566.89"/>
<polygon fill="none" stroke="#404040" points="130,-566.76 126,-560.76 130,-554.76 134,-560.76 130,-566.76"/>
<text text-anchor="middle" x="151" y="-576" font-family="Helvetica,sans-Serif" font-size="10.00"> +random</text>
</g>
<!-- Node6 -->
<g id="node6" class="node">
<title>Node6</title>
<g id="a_node6"><a xlink:title=" ">
<polygon fill="none" stroke="#bfbfbf" points="198.5,-442.5 198.5,-499.5 241.5,-499.5 241.5,-442.5 198.5,-442.5"/>
<text text-anchor="middle" x="220" y="-487.5" font-family="Helvetica,sans-Serif" font-size="10.00">size_t</text>
<polyline fill="none" stroke="#bfbfbf" points="198.5,-480.5 241.5,-480.5 "/>
<text text-anchor="middle" x="220" y="-468.5" font-family="Helvetica,sans-Serif" font-size="10.00"> </text>
<polyline fill="none" stroke="#bfbfbf" points="198.5,-461.5 241.5,-461.5 "/>
<text text-anchor="middle" x="220" y="-449.5" font-family="Helvetica,sans-Serif" font-size="10.00"> </text>
</a>
</g>
</g>
<!-- Node6&#45;&gt;Node2 -->
<g id="edge5" class="edge">
<title>Node6&#45;&gt;Node2</title>
<path fill="none" stroke="#404040" d="M213.76,-442.31C209.53,-422.11 204.31,-394.01 202,-369 200.83,-356.32 200.12,-342.93 199.71,-329.72"/>
<polygon fill="none" stroke="#404040" points="199.71,-329.67 195.57,-323.76 199.43,-317.67 203.57,-323.57 199.71,-329.67"/>
<text text-anchor="middle" x="239" y="-361" font-family="Helvetica,sans-Serif" font-size="10.00"> #countriesCount</text>
<text text-anchor="middle" x="239" y="-350" font-family="Helvetica,sans-Serif" font-size="10.00">#gameID</text>
<text text-anchor="middle" x="239" y="-339" font-family="Helvetica,sans-Serif" font-size="10.00">#maxTickCount</text>
</g>
<!-- Node7 -->
<g id="node7" class="node">
<title>Node7</title>
<g id="a_node7"><a xlink:title=" ">
<polygon fill="none" stroke="#bfbfbf" points="277.5,-442.5 277.5,-499.5 318.5,-499.5 318.5,-442.5 277.5,-442.5"/>
<text text-anchor="middle" x="298" y="-487.5" font-family="Helvetica,sans-Serif" font-size="10.00">string</text>
<polyline fill="none" stroke="#bfbfbf" points="277.5,-480.5 318.5,-480.5 "/>
<text text-anchor="middle" x="298" y="-468.5" font-family="Helvetica,sans-Serif" font-size="10.00"> </text>
<polyline fill="none" stroke="#bfbfbf" points="277.5,-461.5 318.5,-461.5 "/>
<text text-anchor="middle" x="298" y="-449.5" font-family="Helvetica,sans-Serif" font-size="10.00"> </text>
</a>
</g>
</g>
<!-- Node7&#45;&gt;Node2 -->
<g id="edge6" class="edge">
<title>Node7&#45;&gt;Node2</title>
<path fill="none" stroke="#404040" d="M297.25,-442.25C295.63,-414.39 290.71,-370.73 276,-336 269.49,-320.63 260.18,-305.43 250.32,-291.67"/>
<polygon fill="none" stroke="#404040" points="250.23,-291.56 243.45,-289.13 243.08,-281.93 249.87,-284.36 250.23,-291.56"/>
<text text-anchor="middle" x="314.5" y="-350" font-family="Helvetica,sans-Serif" font-size="10.00"> #teamToken</text>
</g>
<!-- Node8 -->
<g id="node8" class="node">
<title>Node8</title>
<g id="a_node8"><a xlink:title=" ">
<polygon fill="none" stroke="#bfbfbf" points="348.5,-442.5 348.5,-499.5 407.5,-499.5 407.5,-442.5 348.5,-442.5"/>
<text text-anchor="middle" x="378" y="-487.5" font-family="Helvetica,sans-Serif" font-size="10.00">istream &amp;</text>
<polyline fill="none" stroke="#bfbfbf" points="348.5,-480.5 407.5,-480.5 "/>
<text text-anchor="middle" x="378" y="-468.5" font-family="Helvetica,sans-Serif" font-size="10.00"> </text>
<polyline fill="none" stroke="#bfbfbf" points="348.5,-461.5 407.5,-461.5 "/>
<text text-anchor="middle" x="378" y="-449.5" font-family="Helvetica,sans-Serif" font-size="10.00"> </text>
</a>
</g>
</g>
<!-- Node8&#45;&gt;Node2 -->
<g id="edge7" class="edge">
<title>Node8&#45;&gt;Node2</title>
<path fill="none" stroke="#404040" d="M377.34,-442.28C375.41,-413.44 368.8,-368.1 347,-336 324,-302.13 285.56,-276.21 253.89,-259.12"/>
<polygon fill="none" stroke="#404040" points="253.65,-258.99 246.48,-259.76 243.01,-253.44 250.18,-252.67 253.65,-258.99"/>
<text text-anchor="middle" x="370" y="-350" font-family="Helvetica,sans-Serif" font-size="10.00"> #is</text>
</g>
</g>
</svg>
