<?xml version="1.0" encoding="UTF-8" standalone="no"?>
<!DOCTYPE svg PUBLIC "-//W3C//DTD SVG 1.1//EN"
 "http://www.w3.org/Graphics/SVG/1.1/DTD/svg11.dtd">
<!-- Generated by graphviz version 2.44.1 (20200629.0846)
 -->
<!-- Title: Iface Pages: 1 -->
<svg width="410pt" height="402pt"
 viewBox="0.00 0.00 410.00 402.00" xmlns="http://www.w3.org/2000/svg" xmlns:xlink="http://www.w3.org/1999/xlink">
<g id="graph0" class="graph" transform="scale(1 1) rotate(0) translate(4 398)">
<title>Iface</title>
<!-- Node1 -->
<g id="node1" class="node">
<title>Node1</title>
<g id="a_node1"><a xlink:title=" ">
<polygon fill="#bfbfbf" stroke="black" points="156,-149.5 156,-393.5 246,-393.5 246,-149.5 156,-149.5"/>
<text text-anchor="middle" x="201" y="-381.5" font-family="Helvetica,sans-Serif" font-size="10.00">Iface</text>
<polyline fill="none" stroke="black" points="156,-374.5 246,-374.5 "/>
<text text-anchor="start" x="164" y="-362.5" font-family="Helvetica,sans-Serif" font-size="10.00"># grid</text>
<text text-anchor="start" x="164" y="-351.5" font-family="Helvetica,sans-Serif" font-size="10.00"># gameID</text>
<text text-anchor="start" x="164" y="-340.5" font-family="Helvetica,sans-Serif" font-size="10.00"># maxTickCount</text>
<text text-anchor="start" x="164" y="-329.5" font-family="Helvetica,sans-Serif" font-size="10.00"># countriesCount</text>
<text text-anchor="start" x="164" y="-318.5" font-family="Helvetica,sans-Serif" font-size="10.00"># teamToken</text>
<text text-anchor="start" x="164" y="-307.5" font-family="Helvetica,sans-Serif" font-size="10.00"># is</text>
<text text-anchor="start" x="164" y="-296.5" font-family="Helvetica,sans-Serif" font-size="10.00"># os</text>
<text text-anchor="start" x="164" y="-285.5" font-family="Helvetica,sans-Serif" font-size="10.00"># ers</text>
<polyline fill="none" stroke="black" points="156,-278.5 246,-278.5 "/>
<text text-anchor="start" x="164" y="-266.5" font-family="Helvetica,sans-Serif" font-size="10.00">+ Iface()</text>
<text text-anchor="start" x="164" y="-255.5" font-family="Helvetica,sans-Serif" font-size="10.00">+ Iface()</text>
<text text-anchor="start" x="164" y="-244.5" font-family="Helvetica,sans-Serif" font-size="10.00">+ Iface()</text>
<text text-anchor="start" x="164" y="-233.5" font-family="Helvetica,sans-Serif" font-size="10.00">+ operator=()</text>
<text text-anchor="start" x="164" y="-222.5" font-family="Helvetica,sans-Serif" font-size="10.00">+ Iface()</text>
<text text-anchor="start" x="164" y="-211.5" font-family="Helvetica,sans-Serif" font-size="10.00">+ checkGrid()</text>
<text text-anchor="start" x="164" y="-200.5" font-family="Helvetica,sans-Serif" font-size="10.00">+ setGrid()</text>
<text text-anchor="start" x="164" y="-189.5" font-family="Helvetica,sans-Serif" font-size="10.00">+ getGrid()</text>
<text text-anchor="start" x="164" y="-178.5" font-family="Helvetica,sans-Serif" font-size="10.00">+ initAntiVirus()</text>
<text text-anchor="start" x="164" y="-167.5" font-family="Helvetica,sans-Serif" font-size="10.00">+ login()</text>
<text text-anchor="start" x="164" y="-156.5" font-family="Helvetica,sans-Serif" font-size="10.00">and 11 more...</text>
</a>
</g>
</g>
<!-- Node2 -->
<g id="node2" class="node">
<title>Node2</title>
<g id="a_node2"><a xlink:href="../../d7/d8b/class_graphics.html" target="_top" xlink:title=" ">
<polygon fill="none" stroke="black" points="0,-0.5 0,-112.5 122,-112.5 122,-0.5 0,-0.5"/>
<text text-anchor="middle" x="61" y="-100.5" font-family="Helvetica,sans-Serif" font-size="10.00">Graphics</text>
<polyline fill="none" stroke="black" points="0,-93.5 122,-93.5 "/>
<text text-anchor="middle" x="61" y="-81.5" font-family="Helvetica,sans-Serif" font-size="10.00"> </text>
<polyline fill="none" stroke="black" points="0,-74.5 122,-74.5 "/>
<text text-anchor="start" x="8" y="-62.5" font-family="Helvetica,sans-Serif" font-size="10.00">+ Graphics()</text>
<text text-anchor="start" x="8" y="-51.5" font-family="Helvetica,sans-Serif" font-size="10.00">+ Graphics()</text>
<text text-anchor="start" x="8" y="-40.5" font-family="Helvetica,sans-Serif" font-size="10.00">+ Graphics()</text>
<text text-anchor="start" x="8" y="-29.5" font-family="Helvetica,sans-Serif" font-size="10.00">+ operator=()</text>
<text text-anchor="start" x="8" y="-18.5" font-family="Helvetica,sans-Serif" font-size="10.00">+ displayCurrentRound()</text>
<text text-anchor="start" x="8" y="-7.5" font-family="Helvetica,sans-Serif" font-size="10.00">+ terminalGraphicsRun()</text>
</a>
</g>
</g>
<!-- Node1&#45;&gt;Node2 -->
<g id="edge1" class="edge">
<title>Node1&#45;&gt;Node2</title>
<path fill="none" stroke="midnightblue" d="M150.31,-193.38C132.78,-166.7 113.49,-137.36 97.35,-112.8"/>
<polygon fill="none" stroke="midnightblue" points="147.52,-195.5 155.93,-201.93 153.36,-191.65 147.52,-195.5"/>
</g>
<!-- Node3 -->
<g id="node3" class="node">
<title>Node3</title>
<g id="a_node3"><a xlink:href="../../d6/dcc/class_protocol.html" target="_top" xlink:title=" ">
<polygon fill="none" stroke="black" points="140,-0.5 140,-112.5 262,-112.5 262,-0.5 140,-0.5"/>
<text text-anchor="middle" x="201" y="-100.5" font-family="Helvetica,sans-Serif" font-size="10.00">Protocol</text>
<polyline fill="none" stroke="black" points="140,-93.5 262,-93.5 "/>
<text text-anchor="middle" x="201" y="-81.5" font-family="Helvetica,sans-Serif" font-size="10.00"> </text>
<polyline fill="none" stroke="black" points="140,-74.5 262,-74.5 "/>
<text text-anchor="start" x="148" y="-62.5" font-family="Helvetica,sans-Serif" font-size="10.00">+ Protocol()</text>
<text text-anchor="start" x="148" y="-51.5" font-family="Helvetica,sans-Serif" font-size="10.00">+ Protocol()</text>
<text text-anchor="start" x="148" y="-40.5" font-family="Helvetica,sans-Serif" font-size="10.00">+ Protocol()</text>
<text text-anchor="start" x="148" y="-29.5" font-family="Helvetica,sans-Serif" font-size="10.00">+ operator=()</text>
<text text-anchor="start" x="148" y="-18.5" font-family="Helvetica,sans-Serif" font-size="10.00">+ displayCurrentRound()</text>
<text text-anchor="start" x="148" y="-7.5" font-family="Helvetica,sans-Serif" font-size="10.00">+ displayResult()</text>
</a>
</g>
</g>
<!-- Node1&#45;&gt;Node3 -->
<g id="edge2" class="edge">
<title>Node1&#45;&gt;Node3</title>
<path fill="none" stroke="midnightblue" d="M201,-139.23C201,-129.96 201,-120.95 201,-112.51"/>
<polygon fill="none" stroke="midnightblue" points="197.5,-139.38 201,-149.38 204.5,-139.38 197.5,-139.38"/>
</g>
<!-- Node4 -->
<g id="node4" class="node">
<title>Node4</title>
<g id="a_node4"><a xlink:href="../../d0/d85/class_visualization.html" target="_top" xlink:title=" ">
<polygon fill="none" stroke="black" points="280,-0.5 280,-112.5 402,-112.5 402,-0.5 280,-0.5"/>
<text text-anchor="middle" x="341" y="-100.5" font-family="Helvetica,sans-Serif" font-size="10.00">Visualization</text>
<polyline fill="none" stroke="black" points="280,-93.5 402,-93.5 "/>
<text text-anchor="middle" x="341" y="-81.5" font-family="Helvetica,sans-Serif" font-size="10.00"> </text>
<polyline fill="none" stroke="black" points="280,-74.5 402,-74.5 "/>
<text text-anchor="start" x="288" y="-62.5" font-family="Helvetica,sans-Serif" font-size="10.00">+ Visualization()</text>
<text text-anchor="start" x="288" y="-51.5" font-family="Helvetica,sans-Serif" font-size="10.00">+ Visualization()</text>
<text text-anchor="start" x="288" y="-40.5" font-family="Helvetica,sans-Serif" font-size="10.00">+ Visualization()</text>
<text text-anchor="start" x="288" y="-29.5" font-family="Helvetica,sans-Serif" font-size="10.00">+ operator=()</text>
<text text-anchor="start" x="288" y="-18.5" font-family="Helvetica,sans-Serif" font-size="10.00">+ setGrid()</text>
<text text-anchor="start" x="288" y="-7.5" font-family="Helvetica,sans-Serif" font-size="10.00">+ displayCurrentRound()</text>
</a>
</g>
</g>
<!-- Node1&#45;&gt;Node4 -->
<g id="edge3" class="edge">
<title>Node1&#45;&gt;Node4</title>
<path fill="none" stroke="midnightblue" d="M251.69,-193.38C269.22,-166.7 288.51,-137.36 304.65,-112.8"/>
<polygon fill="none" stroke="midnightblue" points="248.64,-191.65 246.07,-201.93 254.48,-195.5 248.64,-191.65"/>
</g>
</g>
</svg>
