<?xml version="1.0" encoding="UTF-8" standalone="no"?>
<!DOCTYPE svg PUBLIC "-//W3C//DTD SVG 1.1//EN"
 "http://www.w3.org/Graphics/SVG/1.1/DTD/svg11.dtd">
<!-- Generated by graphviz version 2.44.1 (20200629.0846)
 -->
<!-- Title: C:/Users/lukac/CLionProjects/virus_real/src/grid.h Pages: 1 -->
<svg width="935pt" height="508pt"
 viewBox="0.00 0.00 935.50 508.00" xmlns="http://www.w3.org/2000/svg" xmlns:xlink="http://www.w3.org/1999/xlink">
<g id="graph0" class="graph" transform="scale(1 1) rotate(0) translate(4 504)">
<title>C:/Users/lukac/CLionProjects/virus_real/src/grid.h</title>
<!-- Node1 -->
<g id="node1" class="node">
<title>Node1</title>
<g id="a_node1"><a xlink:title=" ">
<polygon fill="#bfbfbf" stroke="black" points="192.66,-469.5 192.66,-499.5 337.66,-499.5 337.66,-469.5 192.66,-469.5"/>
<text text-anchor="start" x="200.66" y="-487.5" font-family="Helvetica,sans-Serif" font-size="10.00">C:/Users/lukac/CLionProjects</text>
<text text-anchor="middle" x="265.16" y="-476.5" font-family="Helvetica,sans-Serif" font-size="10.00">/virus_real/src/grid.h</text>
</a>
</g>
</g>
<!-- Node2 -->
<g id="node2" class="node">
<title>Node2</title>
<g id="a_node2"><a xlink:href="../../d1/df3/ai_8h.html" target="_top" xlink:title=" ">
<polygon fill="none" stroke="black" points="154.66,-268.5 154.66,-298.5 299.66,-298.5 299.66,-268.5 154.66,-268.5"/>
<text text-anchor="start" x="162.66" y="-286.5" font-family="Helvetica,sans-Serif" font-size="10.00">C:/Users/lukac/CLionProjects</text>
<text text-anchor="middle" x="227.16" y="-275.5" font-family="Helvetica,sans-Serif" font-size="10.00">/virus_real/src/ai.h</text>
</a>
</g>
</g>
<!-- Node1&#45;&gt;Node2 -->
<g id="edge1" class="edge">
<title>Node1&#45;&gt;Node2</title>
<path fill="none" stroke="midnightblue" d="M260.53,-459.27C252.51,-417.29 236.29,-332.33 229.86,-298.68"/>
<polygon fill="midnightblue" stroke="midnightblue" points="257.11,-460.02 262.42,-469.19 263.99,-458.71 257.11,-460.02"/>
</g>
<!-- Node4 -->
<g id="node4" class="node">
<title>Node4</title>
<g id="a_node4"><a xlink:href="../../db/db2/iface_8h.html" target="_top" xlink:title=" ">
<polygon fill="none" stroke="black" points="255.66,-201.5 255.66,-231.5 400.66,-231.5 400.66,-201.5 255.66,-201.5"/>
<text text-anchor="start" x="263.66" y="-219.5" font-family="Helvetica,sans-Serif" font-size="10.00">C:/Users/lukac/CLionProjects</text>
<text text-anchor="middle" x="328.16" y="-208.5" font-family="Helvetica,sans-Serif" font-size="10.00">/virus_real/src/iface.h</text>
</a>
</g>
</g>
<!-- Node1&#45;&gt;Node4 -->
<g id="edge22" class="edge">
<title>Node1&#45;&gt;Node4</title>
<path fill="none" stroke="midnightblue" d="M238.25,-462.9C189.53,-423.09 96.15,-333.77 146.16,-268 153.52,-258.31 213.59,-242.87 262.73,-231.61"/>
<polygon fill="midnightblue" stroke="midnightblue" points="236.23,-465.76 246.22,-469.29 240.61,-460.3 236.23,-465.76"/>
</g>
<!-- Node6 -->
<g id="node6" class="node">
<title>Node6</title>
<g id="a_node6"><a xlink:href="../../d3/d5b/anti_virus_8h.html" target="_top" xlink:title=" ">
<polygon fill="none" stroke="black" points="348.66,-67.5 348.66,-97.5 493.66,-97.5 493.66,-67.5 348.66,-67.5"/>
<text text-anchor="start" x="356.66" y="-85.5" font-family="Helvetica,sans-Serif" font-size="10.00">C:/Users/lukac/CLionProjects</text>
<text text-anchor="middle" x="421.16" y="-74.5" font-family="Helvetica,sans-Serif" font-size="10.00">/virus_real/src/antiVirus.h</text>
</a>
</g>
</g>
<!-- Node1&#45;&gt;Node6 -->
<g id="edge17" class="edge">
<title>Node1&#45;&gt;Node6</title>
<path fill="none" stroke="midnightblue" d="M182.38,-476.29C105.28,-464.49 2.16,-433.4 2.16,-351.5 2.16,-351.5 2.16,-351.5 2.16,-215.5 2.16,-178.31 -6.47,-158.9 21.16,-134 44.97,-112.53 239.65,-95.92 348.38,-88.21"/>
<polygon fill="midnightblue" stroke="midnightblue" points="182.2,-479.8 192.59,-477.76 183.2,-472.87 182.2,-479.8"/>
</g>
<!-- Node15 -->
<g id="node15" class="node">
<title>Node15</title>
<g id="a_node15"><a xlink:href="../../d2/d3d/graphalgos_8h.html" target="_top" xlink:title=" ">
<polygon fill="none" stroke="black" points="306.66,-335.5 306.66,-365.5 451.66,-365.5 451.66,-335.5 306.66,-335.5"/>
<text text-anchor="start" x="314.66" y="-353.5" font-family="Helvetica,sans-Serif" font-size="10.00">C:/Users/lukac/CLionProjects</text>
<text text-anchor="middle" x="379.16" y="-342.5" font-family="Helvetica,sans-Serif" font-size="10.00">/virus_real/src/graphalgos.h</text>
</a>
</g>
</g>
<!-- Node1&#45;&gt;Node15 -->
<g id="edge18" class="edge">
<title>Node1&#45;&gt;Node15</title>
<path fill="none" stroke="midnightblue" d="M265.97,-459.3C267.69,-441.78 272.45,-418.4 285.16,-402 297.98,-385.45 317.8,-373.67 335.93,-365.68"/>
<polygon fill="midnightblue" stroke="midnightblue" points="262.47,-459.11 265.25,-469.33 269.45,-459.61 262.47,-459.11"/>
</g>
<!-- Node17 -->
<g id="node17" class="node">
<title>Node17</title>
<g id="a_node17"><a xlink:href="../../d7/d70/grid_8cpp.html" target="_top" xlink:title=" ">
<polygon fill="none" stroke="black" points="293.66,-402.5 293.66,-432.5 438.66,-432.5 438.66,-402.5 293.66,-402.5"/>
<text text-anchor="start" x="301.66" y="-420.5" font-family="Helvetica,sans-Serif" font-size="10.00">C:/Users/lukac/CLionProjects</text>
<text text-anchor="middle" x="366.16" y="-409.5" font-family="Helvetica,sans-Serif" font-size="10.00">/virus_real/src/grid.cpp</text>
</a>
</g>
</g>
<!-- Node1&#45;&gt;Node17 -->
<g id="edge21" class="edge">
<title>Node1&#45;&gt;Node17</title>
<path fill="none" stroke="midnightblue" d="M295.87,-463.73C311.5,-453.68 330.13,-441.68 344.28,-432.58"/>
<polygon fill="midnightblue" stroke="midnightblue" points="293.59,-461.04 287.07,-469.4 297.37,-466.93 293.59,-461.04"/>
</g>
<!-- Node18 -->
<g id="node18" class="node">
<title>Node18</title>
<g id="a_node18"><a xlink:href="../../d3/daa/logic_8h.html" target="_top" xlink:title=" ">
<polygon fill="none" stroke="black" points="456.66,-402.5 456.66,-432.5 601.66,-432.5 601.66,-402.5 456.66,-402.5"/>
<text text-anchor="start" x="464.66" y="-420.5" font-family="Helvetica,sans-Serif" font-size="10.00">C:/Users/lukac/CLionProjects</text>
<text text-anchor="middle" x="529.16" y="-409.5" font-family="Helvetica,sans-Serif" font-size="10.00">/virus_real/src/logic.h</text>
</a>
</g>
</g>
<!-- Node1&#45;&gt;Node18 -->
<g id="edge23" class="edge">
<title>Node1&#45;&gt;Node18</title>
<path fill="none" stroke="midnightblue" d="M331.96,-467.05C375.12,-456.43 430.7,-442.74 471.84,-432.61"/>
<polygon fill="midnightblue" stroke="midnightblue" points="330.99,-463.69 322.12,-469.48 332.66,-470.48 330.99,-463.69"/>
</g>
<!-- Node20 -->
<g id="node20" class="node">
<title>Node20</title>
<g id="a_node20"><a xlink:href="../../d3/df1/window_8h.html" target="_top" xlink:title=" ">
<polygon fill="none" stroke="black" points="760.66,-402.5 760.66,-432.5 905.66,-432.5 905.66,-402.5 760.66,-402.5"/>
<text text-anchor="start" x="768.66" y="-420.5" font-family="Helvetica,sans-Serif" font-size="10.00">C:/Users/lukac/CLionProjects</text>
<text text-anchor="middle" x="833.16" y="-409.5" font-family="Helvetica,sans-Serif" font-size="10.00">/virus_real/src/window.h</text>
</a>
</g>
</g>
<!-- Node1&#45;&gt;Node20 -->
<g id="edge30" class="edge">
<title>Node1&#45;&gt;Node20</title>
<path fill="none" stroke="midnightblue" d="M347.83,-474.04C459,-461.32 654.9,-438.9 760.63,-426.8"/>
<polygon fill="midnightblue" stroke="midnightblue" points="347.21,-470.59 337.67,-475.2 348,-477.54 347.21,-470.59"/>
</g>
<!-- Node3 -->
<g id="node3" class="node">
<title>Node3</title>
<g id="a_node3"><a xlink:href="../../d1/d4a/ai_8cpp.html" target="_top" xlink:title=" ">
<polygon fill="none" stroke="black" points="92.66,-201.5 92.66,-231.5 237.66,-231.5 237.66,-201.5 92.66,-201.5"/>
<text text-anchor="start" x="100.66" y="-219.5" font-family="Helvetica,sans-Serif" font-size="10.00">C:/Users/lukac/CLionProjects</text>
<text text-anchor="middle" x="165.16" y="-208.5" font-family="Helvetica,sans-Serif" font-size="10.00">/virus_real/src/ai.cpp</text>
</a>
</g>
</g>
<!-- Node2&#45;&gt;Node3 -->
<g id="edge2" class="edge">
<title>Node2&#45;&gt;Node3</title>
<path fill="none" stroke="midnightblue" d="M206.67,-261.02C197.43,-251.34 186.78,-240.17 178.58,-231.58"/>
<polygon fill="midnightblue" stroke="midnightblue" points="204.27,-263.58 213.7,-268.4 209.33,-258.74 204.27,-263.58"/>
</g>
<!-- Node2&#45;&gt;Node4 -->
<g id="edge3" class="edge">
<title>Node2&#45;&gt;Node4</title>
<path fill="none" stroke="midnightblue" d="M257.87,-262.73C273.5,-252.68 292.13,-240.68 306.28,-231.58"/>
<polygon fill="midnightblue" stroke="midnightblue" points="255.59,-260.04 249.07,-268.4 259.37,-265.93 255.59,-260.04"/>
</g>
<!-- Node4&#45;&gt;Node4 -->
<g id="edge10" class="edge">
<title>Node4&#45;&gt;Node4</title>
<path fill="none" stroke="midnightblue" d="M410.85,-225C415.73,-222.97 418.66,-220.13 418.66,-216.5 418.66,-210.83 411.53,-207.11 400.94,-205.33"/>
<polygon fill="midnightblue" stroke="midnightblue" points="409.69,-221.69 400.94,-227.67 411.51,-228.45 409.69,-221.69"/>
</g>
<!-- Node5 -->
<g id="node5" class="node">
<title>Node5</title>
<g id="a_node5"><a xlink:href="../../d7/d04/graphics_8h.html" target="_top" xlink:title=" ">
<polygon fill="none" stroke="black" points="30.66,-134.5 30.66,-164.5 175.66,-164.5 175.66,-134.5 30.66,-134.5"/>
<text text-anchor="start" x="38.66" y="-152.5" font-family="Helvetica,sans-Serif" font-size="10.00">C:/Users/lukac/CLionProjects</text>
<text text-anchor="middle" x="103.16" y="-141.5" font-family="Helvetica,sans-Serif" font-size="10.00">/virus_real/src/graphics.h</text>
</a>
</g>
</g>
<!-- Node4&#45;&gt;Node5 -->
<g id="edge4" class="edge">
<title>Node4&#45;&gt;Node5</title>
<path fill="none" stroke="midnightblue" d="M269.59,-198.58C233.04,-188.02 186.55,-174.59 152,-164.61"/>
<polygon fill="midnightblue" stroke="midnightblue" points="269.03,-202.06 279.61,-201.48 270.98,-195.34 269.03,-202.06"/>
</g>
<!-- Node10 -->
<g id="node10" class="node">
<title>Node10</title>
<g id="a_node10"><a xlink:href="../../dc/d59/iface_8cpp.html" target="_top" xlink:title=" ">
<polygon fill="none" stroke="black" points="193.66,-134.5 193.66,-164.5 338.66,-164.5 338.66,-134.5 193.66,-134.5"/>
<text text-anchor="start" x="201.66" y="-152.5" font-family="Helvetica,sans-Serif" font-size="10.00">C:/Users/lukac/CLionProjects</text>
<text text-anchor="middle" x="266.16" y="-141.5" font-family="Helvetica,sans-Serif" font-size="10.00">/virus_real/src/iface.cpp</text>
</a>
</g>
</g>
<!-- Node4&#45;&gt;Node10 -->
<g id="edge9" class="edge">
<title>Node4&#45;&gt;Node10</title>
<path fill="none" stroke="midnightblue" d="M307.67,-194.02C298.43,-184.34 287.78,-173.17 279.58,-164.58"/>
<polygon fill="midnightblue" stroke="midnightblue" points="305.27,-196.58 314.7,-201.4 310.33,-191.74 305.27,-196.58"/>
</g>
<!-- Node11 -->
<g id="node11" class="node">
<title>Node11</title>
<g id="a_node11"><a xlink:href="../../d2/d5e/protocol_8h.html" target="_top" xlink:title=" ">
<polygon fill="none" stroke="black" points="356.66,-134.5 356.66,-164.5 501.66,-164.5 501.66,-134.5 356.66,-134.5"/>
<text text-anchor="start" x="364.66" y="-152.5" font-family="Helvetica,sans-Serif" font-size="10.00">C:/Users/lukac/CLionProjects</text>
<text text-anchor="middle" x="429.16" y="-141.5" font-family="Helvetica,sans-Serif" font-size="10.00">/virus_real/src/protocol.h</text>
</a>
</g>
</g>
<!-- Node4&#45;&gt;Node11 -->
<g id="edge11" class="edge">
<title>Node4&#45;&gt;Node11</title>
<path fill="none" stroke="midnightblue" d="M358.87,-195.73C374.5,-185.68 393.13,-173.68 407.28,-164.58"/>
<polygon fill="midnightblue" stroke="midnightblue" points="356.59,-193.04 350.07,-201.4 360.37,-198.93 356.59,-193.04"/>
</g>
<!-- Node13 -->
<g id="node13" class="node">
<title>Node13</title>
<g id="a_node13"><a xlink:href="../../d2/d02/visualization_8h.html" target="_top" xlink:title=" ">
<polygon fill="none" stroke="black" points="774.66,-134.5 774.66,-164.5 919.66,-164.5 919.66,-134.5 774.66,-134.5"/>
<text text-anchor="start" x="782.66" y="-152.5" font-family="Helvetica,sans-Serif" font-size="10.00">C:/Users/lukac/CLionProjects</text>
<text text-anchor="middle" x="847.16" y="-141.5" font-family="Helvetica,sans-Serif" font-size="10.00">/virus_real/src/visualization.h</text>
</a>
</g>
</g>
<!-- Node4&#45;&gt;Node13 -->
<g id="edge14" class="edge">
<title>Node4&#45;&gt;Node13</title>
<path fill="none" stroke="midnightblue" d="M410.97,-205.13C511.36,-192.56 678.94,-171.57 774.52,-159.6"/>
<polygon fill="midnightblue" stroke="midnightblue" points="410.35,-201.68 400.87,-206.39 411.22,-208.62 410.35,-201.68"/>
</g>
<!-- Node5&#45;&gt;Node6 -->
<g id="edge5" class="edge">
<title>Node5&#45;&gt;Node6</title>
<path fill="none" stroke="midnightblue" d="M181.68,-132.45C234.03,-121.75 302.19,-107.82 352.4,-97.55"/>
<polygon fill="midnightblue" stroke="midnightblue" points="180.86,-129.04 171.77,-134.48 182.26,-135.9 180.86,-129.04"/>
</g>
<!-- Node9 -->
<g id="node9" class="node">
<title>Node9</title>
<g id="a_node9"><a xlink:href="../../d6/d99/graphics_8cpp.html" target="_top" xlink:title=" ">
<polygon fill="none" stroke="black" points="30.66,-67.5 30.66,-97.5 175.66,-97.5 175.66,-67.5 30.66,-67.5"/>
<text text-anchor="start" x="38.66" y="-85.5" font-family="Helvetica,sans-Serif" font-size="10.00">C:/Users/lukac/CLionProjects</text>
<text text-anchor="middle" x="103.16" y="-74.5" font-family="Helvetica,sans-Serif" font-size="10.00">/virus_real/src/graphics.cpp</text>
</a>
</g>
</g>
<!-- Node5&#45;&gt;Node9 -->
<g id="edge8" class="edge">
<title>Node5&#45;&gt;Node9</title>
<path fill="none" stroke="midnightblue" d="M103.16,-124.11C103.16,-115.15 103.16,-105.32 103.16,-97.58"/>
<polygon fill="midnightblue" stroke="midnightblue" points="99.66,-124.4 103.16,-134.4 106.66,-124.4 99.66,-124.4"/>
</g>
<!-- Node7 -->
<g id="node7" class="node">
<title>Node7</title>
<g id="a_node7"><a xlink:href="../../da/d6e/anti_virus_8cpp.html" target="_top" xlink:title=" ">
<polygon fill="none" stroke="black" points="348.66,-0.5 348.66,-30.5 493.66,-30.5 493.66,-0.5 348.66,-0.5"/>
<text text-anchor="start" x="356.66" y="-18.5" font-family="Helvetica,sans-Serif" font-size="10.00">C:/Users/lukac/CLionProjects</text>
<text text-anchor="middle" x="421.16" y="-7.5" font-family="Helvetica,sans-Serif" font-size="10.00">/virus_real/src/antiVirus.cpp</text>
</a>
</g>
</g>
<!-- Node6&#45;&gt;Node7 -->
<g id="edge6" class="edge">
<title>Node6&#45;&gt;Node7</title>
<path fill="none" stroke="midnightblue" d="M421.16,-57.11C421.16,-48.15 421.16,-38.32 421.16,-30.58"/>
<polygon fill="midnightblue" stroke="midnightblue" points="417.66,-57.4 421.16,-67.4 424.66,-57.4 417.66,-57.4"/>
</g>
<!-- Node8 -->
<g id="node8" class="node">
<title>Node8</title>
<g id="a_node8"><a xlink:href="../../df/d0a/main_8cpp.html" target="_top" xlink:title=" ">
<polygon fill="none" stroke="black" points="646.66,-0.5 646.66,-30.5 791.66,-30.5 791.66,-0.5 646.66,-0.5"/>
<text text-anchor="start" x="654.66" y="-18.5" font-family="Helvetica,sans-Serif" font-size="10.00">C:/Users/lukac/CLionProjects</text>
<text text-anchor="middle" x="719.16" y="-7.5" font-family="Helvetica,sans-Serif" font-size="10.00">/virus_real/src/main.cpp</text>
</a>
</g>
</g>
<!-- Node6&#45;&gt;Node8 -->
<g id="edge7" class="edge">
<title>Node6&#45;&gt;Node8</title>
<path fill="none" stroke="midnightblue" d="M495.36,-65.32C544.33,-54.63 607.86,-40.77 654.72,-30.55"/>
<polygon fill="midnightblue" stroke="midnightblue" points="494.48,-61.93 485.45,-67.48 495.97,-68.76 494.48,-61.93"/>
</g>
<!-- Node11&#45;&gt;Node6 -->
<g id="edge12" class="edge">
<title>Node11&#45;&gt;Node6</title>
<path fill="none" stroke="midnightblue" d="M426.19,-124.4C425.08,-115.37 423.85,-105.41 422.89,-97.58"/>
<polygon fill="midnightblue" stroke="midnightblue" points="422.72,-124.9 427.42,-134.4 429.67,-124.04 422.72,-124.9"/>
</g>
<!-- Node12 -->
<g id="node12" class="node">
<title>Node12</title>
<g id="a_node12"><a xlink:href="../../d4/d25/protocol_8cpp.html" target="_top" xlink:title=" ">
<polygon fill="none" stroke="black" points="511.66,-67.5 511.66,-97.5 656.66,-97.5 656.66,-67.5 511.66,-67.5"/>
<text text-anchor="start" x="519.66" y="-85.5" font-family="Helvetica,sans-Serif" font-size="10.00">C:/Users/lukac/CLionProjects</text>
<text text-anchor="middle" x="584.16" y="-74.5" font-family="Helvetica,sans-Serif" font-size="10.00">/virus_real/src/protocol.cpp</text>
</a>
</g>
</g>
<!-- Node11&#45;&gt;Node12 -->
<g id="edge13" class="edge">
<title>Node11&#45;&gt;Node12</title>
<path fill="none" stroke="midnightblue" d="M472.3,-130.41C497.05,-120.03 527.65,-107.2 550.59,-97.58"/>
<polygon fill="midnightblue" stroke="midnightblue" points="470.66,-127.3 462.79,-134.4 473.36,-133.76 470.66,-127.3"/>
</g>
<!-- Node13&#45;&gt;Node8 -->
<g id="edge15" class="edge">
<title>Node13&#45;&gt;Node8</title>
<path fill="none" stroke="midnightblue" d="M849.48,-124.17C849.85,-106.58 847.54,-83.18 835.16,-67 821.87,-49.64 801.39,-38.15 781.32,-30.58"/>
<polygon fill="midnightblue" stroke="midnightblue" points="845.98,-124.08 848.96,-134.24 852.97,-124.44 845.98,-124.08"/>
</g>
<!-- Node14 -->
<g id="node14" class="node">
<title>Node14</title>
<g id="a_node14"><a xlink:href="../../d3/d49/visualization_8cpp.html" target="_top" xlink:title=" ">
<polygon fill="none" stroke="black" points="674.66,-67.5 674.66,-97.5 825.66,-97.5 825.66,-67.5 674.66,-67.5"/>
<text text-anchor="start" x="682.66" y="-85.5" font-family="Helvetica,sans-Serif" font-size="10.00">C:/Users/lukac/CLionProjects</text>
<text text-anchor="middle" x="750.16" y="-74.5" font-family="Helvetica,sans-Serif" font-size="10.00">/virus_real/src/visualization.cpp</text>
</a>
</g>
</g>
<!-- Node13&#45;&gt;Node14 -->
<g id="edge16" class="edge">
<title>Node13&#45;&gt;Node14</title>
<path fill="none" stroke="midnightblue" d="M817.66,-128.73C802.65,-118.68 784.75,-106.68 771.16,-97.58"/>
<polygon fill="midnightblue" stroke="midnightblue" points="815.85,-131.74 826.11,-134.4 819.75,-125.92 815.85,-131.74"/>
</g>
<!-- Node15&#45;&gt;Node2 -->
<g id="edge19" class="edge">
<title>Node15&#45;&gt;Node2</title>
<path fill="none" stroke="midnightblue" d="M336.85,-331.41C312.58,-321.03 282.57,-308.2 260.07,-298.58"/>
<polygon fill="midnightblue" stroke="midnightblue" points="335.6,-334.68 346.17,-335.4 338.36,-328.25 335.6,-334.68"/>
</g>
<!-- Node16 -->
<g id="node16" class="node">
<title>Node16</title>
<g id="a_node16"><a xlink:href="../../d0/d23/graphalgos_8cpp.html" target="_top" xlink:title=" ">
<polygon fill="none" stroke="black" points="318.16,-268.5 318.16,-298.5 464.16,-298.5 464.16,-268.5 318.16,-268.5"/>
<text text-anchor="start" x="326.16" y="-286.5" font-family="Helvetica,sans-Serif" font-size="10.00">C:/Users/lukac/CLionProjects</text>
<text text-anchor="middle" x="391.16" y="-275.5" font-family="Helvetica,sans-Serif" font-size="10.00">/virus_real/src/graphalgos.cpp</text>
</a>
</g>
</g>
<!-- Node15&#45;&gt;Node16 -->
<g id="edge20" class="edge">
<title>Node15&#45;&gt;Node16</title>
<path fill="none" stroke="midnightblue" d="M383.6,-325.4C385.27,-316.37 387.11,-306.41 388.56,-298.58"/>
<polygon fill="midnightblue" stroke="midnightblue" points="380.13,-324.93 381.76,-335.4 387.02,-326.2 380.13,-324.93"/>
</g>
<!-- Node18&#45;&gt;Node2 -->
<g id="edge24" class="edge">
<title>Node18&#45;&gt;Node2</title>
<path fill="none" stroke="midnightblue" d="M446.62,-401.08C385.68,-389.26 311.16,-373.7 298.16,-366 269.9,-349.27 247.1,-317.33 235.5,-298.79"/>
<polygon fill="midnightblue" stroke="midnightblue" points="446.17,-404.56 456.65,-403.02 447.5,-397.69 446.17,-404.56"/>
</g>
<!-- Node18&#45;&gt;Node4 -->
<g id="edge27" class="edge">
<title>Node18&#45;&gt;Node4</title>
<path fill="none" stroke="midnightblue" d="M522.64,-391.98C512.26,-354.56 491.29,-285.68 473.16,-268 453.59,-248.93 426.45,-237.03 400.93,-229.62"/>
<polygon fill="midnightblue" stroke="midnightblue" points="519.38,-393.33 525.39,-402.06 526.14,-391.49 519.38,-393.33"/>
</g>
<!-- Node18&#45;&gt;Node6 -->
<g id="edge25" class="edge">
<title>Node18&#45;&gt;Node6</title>
<path fill="none" stroke="midnightblue" d="M529.45,-391.99C529.75,-365.49 530.16,-322 530.16,-284.5 530.16,-284.5 530.16,-284.5 530.16,-215.5 530.16,-178.31 533.49,-163.74 511.16,-134 498.78,-117.53 479.36,-105.66 461.73,-97.59"/>
<polygon fill="midnightblue" stroke="midnightblue" points="525.95,-392.2 529.33,-402.24 532.95,-392.28 525.95,-392.2"/>
</g>
<!-- Node18&#45;&gt;Node12 -->
<g id="edge29" class="edge">
<title>Node18&#45;&gt;Node12</title>
<path fill="none" stroke="midnightblue" d="M611.78,-412.29C647.45,-406.27 686.92,-393.28 713.16,-366 738.94,-339.19 732.16,-321.69 732.16,-284.5 732.16,-284.5 732.16,-284.5 732.16,-215.5 732.16,-156.11 664.96,-116.82 621.12,-97.51"/>
<polygon fill="midnightblue" stroke="midnightblue" points="611.2,-408.84 601.84,-413.81 612.25,-415.75 611.2,-408.84"/>
</g>
<!-- Node18&#45;&gt;Node15 -->
<g id="edge26" class="edge">
<title>Node18&#45;&gt;Node15</title>
<path fill="none" stroke="midnightblue" d="M487.4,-398.41C463.45,-388.03 433.84,-375.2 411.64,-365.58"/>
<polygon fill="midnightblue" stroke="midnightblue" points="486.04,-401.63 496.61,-402.4 488.82,-395.21 486.04,-401.63"/>
</g>
<!-- Node19 -->
<g id="node19" class="node">
<title>Node19</title>
<g id="a_node19"><a xlink:href="../../de/d61/logic_8cpp.html" target="_top" xlink:title=" ">
<polygon fill="none" stroke="black" points="558.66,-335.5 558.66,-365.5 703.66,-365.5 703.66,-335.5 558.66,-335.5"/>
<text text-anchor="start" x="566.66" y="-353.5" font-family="Helvetica,sans-Serif" font-size="10.00">C:/Users/lukac/CLionProjects</text>
<text text-anchor="middle" x="631.16" y="-342.5" font-family="Helvetica,sans-Serif" font-size="10.00">/virus_real/src/logic.cpp</text>
</a>
</g>
</g>
<!-- Node18&#45;&gt;Node19 -->
<g id="edge28" class="edge">
<title>Node18&#45;&gt;Node19</title>
<path fill="none" stroke="midnightblue" d="M559.73,-397.02C575.61,-386.9 594.64,-374.77 609.07,-365.58"/>
<polygon fill="midnightblue" stroke="midnightblue" points="557.84,-394.07 551.29,-402.4 561.6,-399.97 557.84,-394.07"/>
</g>
<!-- Node20&#45;&gt;Node13 -->
<g id="edge31" class="edge">
<title>Node20&#45;&gt;Node13</title>
<path fill="none" stroke="midnightblue" d="M881.11,-397.79C894.54,-390.07 907.53,-379.65 915.16,-366 954.28,-295.96 887.5,-200.3 859.05,-164.65"/>
<polygon fill="midnightblue" stroke="midnightblue" points="879.46,-394.7 872.28,-402.48 882.75,-400.88 879.46,-394.7"/>
</g>
<!-- Node21 -->
<g id="node21" class="node">
<title>Node21</title>
<g id="a_node21"><a xlink:href="../../d8/d8e/window_8cpp.html" target="_top" xlink:title=" ">
<polygon fill="none" stroke="black" points="760.66,-335.5 760.66,-365.5 905.66,-365.5 905.66,-335.5 760.66,-335.5"/>
<text text-anchor="start" x="768.66" y="-353.5" font-family="Helvetica,sans-Serif" font-size="10.00">C:/Users/lukac/CLionProjects</text>
<text text-anchor="middle" x="833.16" y="-342.5" font-family="Helvetica,sans-Serif" font-size="10.00">/virus_real/src/window.cpp</text>
</a>
</g>
</g>
<!-- Node20&#45;&gt;Node21 -->
<g id="edge32" class="edge">
<title>Node20&#45;&gt;Node21</title>
<path fill="none" stroke="midnightblue" d="M833.16,-392.11C833.16,-383.15 833.16,-373.32 833.16,-365.58"/>
<polygon fill="midnightblue" stroke="midnightblue" points="829.66,-392.4 833.16,-402.4 836.66,-392.4 829.66,-392.4"/>
</g>
</g>
</svg>
