<?xml version="1.0" encoding="UTF-8" standalone="no"?>
<!DOCTYPE svg PUBLIC "-//W3C//DTD SVG 1.1//EN"
 "http://www.w3.org/Graphics/SVG/1.1/DTD/svg11.dtd">
<!-- Generated by graphviz version 2.44.1 (20200629.0846)
 -->
<!-- Title: C:/Users/lukac/CLionProjects/virus_real/src/district.h Pages: 1 -->
<!--zoomable 642 -->
<svg id="main" version="1.1" xmlns="http://www.w3.org/2000/svg" xmlns:xlink="http://www.w3.org/1999/xlink" xml:space="preserve" onload="init(evt)">
<style type="text/css"><![CDATA[
.edge:hover path { stroke: red; }
.edge:hover polygon { stroke: red; fill: red; }
]]></style>
<script type="text/javascript"><![CDATA[
var edges = document.getElementsByTagName('g');
if (edges && edges.length) {
  for (var i=0;i<edges.length;i++) {
    if (edges[i].id.substr(0,4)=='edge') {
      edges[i].setAttribute('class','edge');
    }
  }
}
]]></script>
        <defs>
                <circle id="rim" cx="0" cy="0" r="7"/>
                <circle id="rim2" cx="0" cy="0" r="3.5"/>
                <g id="zoomPlus">
                        <use xlink:href="#rim" fill="#404040">
                                <set attributeName="fill" to="#808080" begin="zoomplus.mouseover" end="zoomplus.mouseout"/>
                        </use>
                        <path d="M-4,0h8M0,-4v8" fill="none" stroke="white" stroke-width="1.5" pointer-events="none"/>
                </g>
                <g id="zoomMin">
                        <use xlink:href="#rim" fill="#404040">
                                <set attributeName="fill" to="#808080" begin="zoomminus.mouseover" end="zoomminus.mouseout"/>
                        </use>
                        <path d="M-4,0h8" fill="none" stroke="white" stroke-width="1.5" pointer-events="none"/>
                </g>
                <g id="dirArrow">
                        <path fill="none" stroke="white" stroke-width="1.5" d="M0,-3.0v7 M-2.5,-0.5L0,-3.0L2.5,-0.5"/>
                </g>
               <g id="resetDef">
                       <use xlink:href="#rim2" fill="#404040">
                               <set attributeName="fill" to="#808080" begin="reset.mouseover" end="reset.mouseout"/>
                       </use>
               </g>
        </defs>

<script type="text/javascript">
var viewWidth = 1162;
var viewHeight = 642;
var sectionId = 'dynsection-1';
</script>
<script xlink:href="../../svgpan.js"/>
<svg id="graph" class="graph">
<g id="viewport">
<title>C:/Users/lukac/CLionProjects/virus_real/src/district.h</title>
<!-- Node1 -->
<g id="node1" class="node">
<title>Node1</title>
<g id="a_node1"><a xlink:title=" ">
<polygon fill="#bfbfbf" stroke="black" points="353,-603.5 353,-633.5 498,-633.5 498,-603.5 353,-603.5"/>
<text text-anchor="start" x="361" y="-621.5" font-family="Helvetica,sans-Serif" font-size="10.00">C:/Users/lukac/CLionProjects</text>
<text text-anchor="middle" x="425.5" y="-610.5" font-family="Helvetica,sans-Serif" font-size="10.00">/virus_real/src/district.h</text>
</a>
</g>
</g>
<!-- Node2 -->
<g id="node2" class="node">
<title>Node2</title>
<g id="a_node2"><a xlink:href="../../dc/d5f/country_8h.html" target="_top" xlink:title=" ">
<polygon fill="none" stroke="black" points="202,-536.5 202,-566.5 347,-566.5 347,-536.5 202,-536.5"/>
<text text-anchor="start" x="210" y="-554.5" font-family="Helvetica,sans-Serif" font-size="10.00">C:/Users/lukac/CLionProjects</text>
<text text-anchor="middle" x="274.5" y="-543.5" font-family="Helvetica,sans-Serif" font-size="10.00">/virus_real/src/country.h</text>
</a>
</g>
</g>
<!-- Node1&#45;&gt;Node2 -->
<g id="edge1" class="edge">
<title>Node1&#45;&gt;Node2</title>
<path fill="none" stroke="midnightblue" d="M383.47,-599.41C359.36,-589.03 329.55,-576.2 307.2,-566.58"/>
<polygon fill="midnightblue" stroke="midnightblue" points="382.17,-602.66 392.74,-603.4 384.93,-596.23 382.17,-602.66"/>
</g>
<!-- Node7 -->
<g id="node7" class="node">
<title>Node7</title>
<g id="a_node7"><a xlink:href="../../da/d15/grid_8h.html" target="_top" xlink:title=" ">
<polygon fill="none" stroke="black" points="404,-469.5 404,-499.5 549,-499.5 549,-469.5 404,-469.5"/>
<text text-anchor="start" x="412" y="-487.5" font-family="Helvetica,sans-Serif" font-size="10.00">C:/Users/lukac/CLionProjects</text>
<text text-anchor="middle" x="476.5" y="-476.5" font-family="Helvetica,sans-Serif" font-size="10.00">/virus_real/src/grid.h</text>
</a>
</g>
</g>
<!-- Node1&#45;&gt;Node7 -->
<g id="edge38" class="edge">
<title>Node1&#45;&gt;Node7</title>
<path fill="none" stroke="midnightblue" d="M428.96,-593.23C431.85,-576.67 436.76,-554.47 444.5,-536 449.96,-522.98 458.65,-509.54 465.6,-499.8"/>
<polygon fill="midnightblue" stroke="midnightblue" points="425.49,-592.78 427.35,-603.21 432.4,-593.9 425.49,-592.78"/>
</g>
<!-- Node25 -->
<g id="node25" class="node">
<title>Node25</title>
<g id="a_node25"><a xlink:href="../../d4/def/district_8cpp.html" target="_top" xlink:title=" ">
<polygon fill="none" stroke="black" points="454,-536.5 454,-566.5 599,-566.5 599,-536.5 454,-536.5"/>
<text text-anchor="start" x="462" y="-554.5" font-family="Helvetica,sans-Serif" font-size="10.00">C:/Users/lukac/CLionProjects</text>
<text text-anchor="middle" x="526.5" y="-543.5" font-family="Helvetica,sans-Serif" font-size="10.00">/virus_real/src/district.cpp</text>
</a>
</g>
</g>
<!-- Node1&#45;&gt;Node25 -->
<g id="edge37" class="edge">
<title>Node1&#45;&gt;Node25</title>
<path fill="none" stroke="midnightblue" d="M456.21,-597.73C471.84,-587.68 490.47,-575.68 504.63,-566.58"/>
<polygon fill="midnightblue" stroke="midnightblue" points="453.93,-595.04 447.42,-603.4 457.72,-600.93 453.93,-595.04"/>
</g>
<!-- Node3 -->
<g id="node3" class="node">
<title>Node3</title>
<g id="a_node3"><a xlink:href="../../d3/d5b/anti_virus_8h.html" target="_top" xlink:title=" ">
<polygon fill="none" stroke="black" points="330,-67.5 330,-97.5 475,-97.5 475,-67.5 330,-67.5"/>
<text text-anchor="start" x="338" y="-85.5" font-family="Helvetica,sans-Serif" font-size="10.00">C:/Users/lukac/CLionProjects</text>
<text text-anchor="middle" x="402.5" y="-74.5" font-family="Helvetica,sans-Serif" font-size="10.00">/virus_real/src/antiVirus.h</text>
</a>
</g>
</g>
<!-- Node2&#45;&gt;Node3 -->
<g id="edge2" class="edge">
<title>Node2&#45;&gt;Node3</title>
<path fill="none" stroke="midnightblue" d="M245.03,-530.17C215.22,-506.95 173.5,-465.98 173.5,-418.5 173.5,-418.5 173.5,-418.5 173.5,-215.5 173.5,-142.19 262.67,-108.97 329.73,-94.36"/>
<polygon fill="midnightblue" stroke="midnightblue" points="242.99,-533.01 253.08,-536.24 247.2,-527.42 242.99,-533.01"/>
</g>
<!-- Node6 -->
<g id="node6" class="node">
<title>Node6</title>
<g id="a_node6"><a xlink:href="../../df/da4/country_8cpp.html" target="_top" xlink:title=" ">
<polygon fill="none" stroke="black" points="0,-469.5 0,-499.5 145,-499.5 145,-469.5 0,-469.5"/>
<text text-anchor="start" x="8" y="-487.5" font-family="Helvetica,sans-Serif" font-size="10.00">C:/Users/lukac/CLionProjects</text>
<text text-anchor="middle" x="72.5" y="-476.5" font-family="Helvetica,sans-Serif" font-size="10.00">/virus_real/src/country.cpp</text>
</a>
</g>
</g>
<!-- Node2&#45;&gt;Node6 -->
<g id="edge5" class="edge">
<title>Node2&#45;&gt;Node6</title>
<path fill="none" stroke="midnightblue" d="M220.82,-533.23C188.15,-522.71 146.93,-509.45 116.25,-499.58"/>
<polygon fill="midnightblue" stroke="midnightblue" points="220.08,-536.66 230.67,-536.4 222.22,-530 220.08,-536.66"/>
</g>
<!-- Node2&#45;&gt;Node7 -->
<g id="edge6" class="edge">
<title>Node2&#45;&gt;Node7</title>
<path fill="none" stroke="midnightblue" d="M328.18,-533.23C360.85,-522.71 402.07,-509.45 432.75,-499.58"/>
<polygon fill="midnightblue" stroke="midnightblue" points="326.78,-530 318.33,-536.4 328.92,-536.66 326.78,-530"/>
</g>
<!-- Node4 -->
<g id="node4" class="node">
<title>Node4</title>
<g id="a_node4"><a xlink:href="../../da/d6e/anti_virus_8cpp.html" target="_top" xlink:title=" ">
<polygon fill="none" stroke="black" points="330,-0.5 330,-30.5 475,-30.5 475,-0.5 330,-0.5"/>
<text text-anchor="start" x="338" y="-18.5" font-family="Helvetica,sans-Serif" font-size="10.00">C:/Users/lukac/CLionProjects</text>
<text text-anchor="middle" x="402.5" y="-7.5" font-family="Helvetica,sans-Serif" font-size="10.00">/virus_real/src/antiVirus.cpp</text>
</a>
</g>
</g>
<!-- Node3&#45;&gt;Node4 -->
<g id="edge3" class="edge">
<title>Node3&#45;&gt;Node4</title>
<path fill="none" stroke="midnightblue" d="M402.5,-57.11C402.5,-48.15 402.5,-38.32 402.5,-30.58"/>
<polygon fill="midnightblue" stroke="midnightblue" points="399,-57.4 402.5,-67.4 406,-57.4 399,-57.4"/>
</g>
<!-- Node5 -->
<g id="node5" class="node">
<title>Node5</title>
<g id="a_node5"><a xlink:href="../../df/d0a/main_8cpp.html" target="_top" xlink:title=" ">
<polygon fill="none" stroke="black" points="760,-0.5 760,-30.5 905,-30.5 905,-0.5 760,-0.5"/>
<text text-anchor="start" x="768" y="-18.5" font-family="Helvetica,sans-Serif" font-size="10.00">C:/Users/lukac/CLionProjects</text>
<text text-anchor="middle" x="832.5" y="-7.5" font-family="Helvetica,sans-Serif" font-size="10.00">/virus_real/src/main.cpp</text>
</a>
</g>
</g>
<!-- Node3&#45;&gt;Node5 -->
<g id="edge4" class="edge">
<title>Node3&#45;&gt;Node5</title>
<path fill="none" stroke="midnightblue" d="M485.36,-66.73C585.91,-50.57 691.48,-35.67 759.87,-26.29"/>
<polygon fill="midnightblue" stroke="midnightblue" points="484.65,-63.29 475.34,-68.34 485.77,-70.21 484.65,-63.29"/>
</g>
<!-- Node7&#45;&gt;Node3 -->
<g id="edge21" class="edge">
<title>Node7&#45;&gt;Node3</title>
<path fill="none" stroke="midnightblue" d="M393.44,-476.55C315.72,-464.95 211.5,-434.02 211.5,-351.5 211.5,-351.5 211.5,-351.5 211.5,-215.5 211.5,-150.4 287.51,-114.91 343.64,-97.57"/>
<polygon fill="midnightblue" stroke="midnightblue" points="393.35,-480.07 403.74,-477.99 394.32,-473.14 393.35,-480.07"/>
</g>
<!-- Node8 -->
<g id="node8" class="node">
<title>Node8</title>
<g id="a_node8"><a xlink:href="../../d1/df3/ai_8h.html" target="_top" xlink:title=" ">
<polygon fill="none" stroke="black" points="240,-268.5 240,-298.5 385,-298.5 385,-268.5 240,-268.5"/>
<text text-anchor="start" x="248" y="-286.5" font-family="Helvetica,sans-Serif" font-size="10.00">C:/Users/lukac/CLionProjects</text>
<text text-anchor="middle" x="312.5" y="-275.5" font-family="Helvetica,sans-Serif" font-size="10.00">/virus_real/src/ai.h</text>
</a>
</g>
</g>
<!-- Node7&#45;&gt;Node8 -->
<g id="edge7" class="edge">
<title>Node7&#45;&gt;Node8</title>
<path fill="none" stroke="midnightblue" d="M450.1,-462.88C423.3,-440.98 381.84,-404.29 353.5,-366 337.48,-344.36 324.66,-315.52 317.85,-298.59"/>
<polygon fill="midnightblue" stroke="midnightblue" points="447.93,-465.63 457.91,-469.19 452.33,-460.19 447.93,-465.63"/>
</g>
<!-- Node10 -->
<g id="node10" class="node">
<title>Node10</title>
<g id="a_node10"><a xlink:href="../../db/db2/iface_8h.html" target="_top" xlink:title=" ">
<polygon fill="none" stroke="black" points="594,-201.5 594,-231.5 739,-231.5 739,-201.5 594,-201.5"/>
<text text-anchor="start" x="602" y="-219.5" font-family="Helvetica,sans-Serif" font-size="10.00">C:/Users/lukac/CLionProjects</text>
<text text-anchor="middle" x="666.5" y="-208.5" font-family="Helvetica,sans-Serif" font-size="10.00">/virus_real/src/iface.h</text>
</a>
</g>
</g>
<!-- Node7&#45;&gt;Node10 -->
<g id="edge26" class="edge">
<title>Node7&#45;&gt;Node10</title>
<path fill="none" stroke="midnightblue" d="M559.38,-480.09C637.01,-471.85 748.37,-445.82 798.5,-366 833.08,-310.94 745.17,-256.45 696.4,-231.54"/>
<polygon fill="midnightblue" stroke="midnightblue" points="558.74,-476.64 549.13,-481.1 559.43,-483.6 558.74,-476.64"/>
</g>
<!-- Node18 -->
<g id="node18" class="node">
<title>Node18</title>
<g id="a_node18"><a xlink:href="../../d2/d3d/graphalgos_8h.html" target="_top" xlink:title=" ">
<polygon fill="none" stroke="black" points="404,-335.5 404,-365.5 549,-365.5 549,-335.5 404,-335.5"/>
<text text-anchor="start" x="412" y="-353.5" font-family="Helvetica,sans-Serif" font-size="10.00">C:/Users/lukac/CLionProjects</text>
<text text-anchor="middle" x="476.5" y="-342.5" font-family="Helvetica,sans-Serif" font-size="10.00">/virus_real/src/graphalgos.h</text>
</a>
</g>
</g>
<!-- Node7&#45;&gt;Node18 -->
<g id="edge22" class="edge">
<title>Node7&#45;&gt;Node18</title>
<path fill="none" stroke="midnightblue" d="M476.5,-459.02C476.5,-431.51 476.5,-387.79 476.5,-365.52"/>
<polygon fill="midnightblue" stroke="midnightblue" points="473,-459.37 476.5,-469.37 480,-459.37 473,-459.37"/>
</g>
<!-- Node20 -->
<g id="node20" class="node">
<title>Node20</title>
<g id="a_node20"><a xlink:href="../../d7/d70/grid_8cpp.html" target="_top" xlink:title=" ">
<polygon fill="none" stroke="black" points="846,-402.5 846,-432.5 991,-432.5 991,-402.5 846,-402.5"/>
<text text-anchor="start" x="854" y="-420.5" font-family="Helvetica,sans-Serif" font-size="10.00">C:/Users/lukac/CLionProjects</text>
<text text-anchor="middle" x="918.5" y="-409.5" font-family="Helvetica,sans-Serif" font-size="10.00">/virus_real/src/grid.cpp</text>
</a>
</g>
</g>
<!-- Node7&#45;&gt;Node20 -->
<g id="edge25" class="edge">
<title>Node7&#45;&gt;Node20</title>
<path fill="none" stroke="midnightblue" d="M559.25,-472.3C631.25,-462.41 738.37,-447.38 831.5,-433 836.19,-432.28 841.02,-431.51 845.89,-430.73"/>
<polygon fill="midnightblue" stroke="midnightblue" points="558.76,-468.83 549.32,-473.66 559.71,-475.77 558.76,-468.83"/>
</g>
<!-- Node21 -->
<g id="node21" class="node">
<title>Node21</title>
<g id="a_node21"><a xlink:href="../../d3/daa/logic_8h.html" target="_top" xlink:title=" ">
<polygon fill="none" stroke="black" points="505,-402.5 505,-432.5 650,-432.5 650,-402.5 505,-402.5"/>
<text text-anchor="start" x="513" y="-420.5" font-family="Helvetica,sans-Serif" font-size="10.00">C:/Users/lukac/CLionProjects</text>
<text text-anchor="middle" x="577.5" y="-409.5" font-family="Helvetica,sans-Serif" font-size="10.00">/virus_real/src/logic.h</text>
</a>
</g>
</g>
<!-- Node7&#45;&gt;Node21 -->
<g id="edge27" class="edge">
<title>Node7&#45;&gt;Node21</title>
<path fill="none" stroke="midnightblue" d="M507.21,-463.73C522.84,-453.68 541.47,-441.68 555.63,-432.58"/>
<polygon fill="midnightblue" stroke="midnightblue" points="504.93,-461.04 498.42,-469.4 508.72,-466.93 504.93,-461.04"/>
</g>
<!-- Node23 -->
<g id="node23" class="node">
<title>Node23</title>
<g id="a_node23"><a xlink:href="../../d3/df1/window_8h.html" target="_top" xlink:title=" ">
<polygon fill="none" stroke="black" points="1009,-402.5 1009,-432.5 1154,-432.5 1154,-402.5 1009,-402.5"/>
<text text-anchor="start" x="1017" y="-420.5" font-family="Helvetica,sans-Serif" font-size="10.00">C:/Users/lukac/CLionProjects</text>
<text text-anchor="middle" x="1081.5" y="-409.5" font-family="Helvetica,sans-Serif" font-size="10.00">/virus_real/src/window.h</text>
</a>
</g>
</g>
<!-- Node7&#45;&gt;Node23 -->
<g id="edge34" class="edge">
<title>Node7&#45;&gt;Node23</title>
<path fill="none" stroke="midnightblue" d="M559.26,-477.61C662.74,-469.76 845.19,-454.35 1000.5,-433 1003.19,-432.63 1005.93,-432.24 1008.69,-431.82"/>
<polygon fill="midnightblue" stroke="midnightblue" points="558.9,-474.13 549.19,-478.37 559.42,-481.11 558.9,-474.13"/>
</g>
<!-- Node9 -->
<g id="node9" class="node">
<title>Node9</title>
<g id="a_node9"><a xlink:href="../../d1/d4a/ai_8cpp.html" target="_top" xlink:title=" ">
<polygon fill="none" stroke="black" points="240,-201.5 240,-231.5 385,-231.5 385,-201.5 240,-201.5"/>
<text text-anchor="start" x="248" y="-219.5" font-family="Helvetica,sans-Serif" font-size="10.00">C:/Users/lukac/CLionProjects</text>
<text text-anchor="middle" x="312.5" y="-208.5" font-family="Helvetica,sans-Serif" font-size="10.00">/virus_real/src/ai.cpp</text>
</a>
</g>
</g>
<!-- Node8&#45;&gt;Node9 -->
<g id="edge8" class="edge">
<title>Node8&#45;&gt;Node9</title>
<path fill="none" stroke="midnightblue" d="M312.5,-258.11C312.5,-249.15 312.5,-239.32 312.5,-231.58"/>
<polygon fill="midnightblue" stroke="midnightblue" points="309,-258.4 312.5,-268.4 316,-258.4 309,-258.4"/>
</g>
<!-- Node8&#45;&gt;Node10 -->
<g id="edge9" class="edge">
<title>Node8&#45;&gt;Node10</title>
<path fill="none" stroke="midnightblue" d="M395.28,-267.3C455.51,-256.24 536.28,-241.41 593.98,-230.82"/>
<polygon fill="midnightblue" stroke="midnightblue" points="394.62,-263.86 385.42,-269.11 395.89,-270.75 394.62,-263.86"/>
</g>
<!-- Node10&#45;&gt;Node10 -->
<g id="edge14" class="edge">
<title>Node10&#45;&gt;Node10</title>
<path fill="none" stroke="midnightblue" d="M749.19,-225C754.07,-222.97 757,-220.13 757,-216.5 757,-210.83 749.87,-207.11 739.29,-205.33"/>
<polygon fill="midnightblue" stroke="midnightblue" points="748.03,-221.69 739.29,-227.67 749.85,-228.45 748.03,-221.69"/>
</g>
<!-- Node11 -->
<g id="node11" class="node">
<title>Node11</title>
<g id="a_node11"><a xlink:href="../../d7/d04/graphics_8h.html" target="_top" xlink:title=" ">
<polygon fill="none" stroke="black" points="431,-134.5 431,-164.5 576,-164.5 576,-134.5 431,-134.5"/>
<text text-anchor="start" x="439" y="-152.5" font-family="Helvetica,sans-Serif" font-size="10.00">C:/Users/lukac/CLionProjects</text>
<text text-anchor="middle" x="503.5" y="-141.5" font-family="Helvetica,sans-Serif" font-size="10.00">/virus_real/src/graphics.h</text>
</a>
</g>
</g>
<!-- Node10&#45;&gt;Node11 -->
<g id="edge10" class="edge">
<title>Node10&#45;&gt;Node11</title>
<path fill="none" stroke="midnightblue" d="M621.82,-197.68C595.67,-187.26 563.13,-174.28 538.8,-164.58"/>
<polygon fill="midnightblue" stroke="midnightblue" points="620.55,-200.94 631.13,-201.4 623.14,-194.44 620.55,-200.94"/>
</g>
<!-- Node13 -->
<g id="node13" class="node">
<title>Node13</title>
<g id="a_node13"><a xlink:href="../../dc/d59/iface_8cpp.html" target="_top" xlink:title=" ">
<polygon fill="none" stroke="black" points="594,-134.5 594,-164.5 739,-164.5 739,-134.5 594,-134.5"/>
<text text-anchor="start" x="602" y="-152.5" font-family="Helvetica,sans-Serif" font-size="10.00">C:/Users/lukac/CLionProjects</text>
<text text-anchor="middle" x="666.5" y="-141.5" font-family="Helvetica,sans-Serif" font-size="10.00">/virus_real/src/iface.cpp</text>
</a>
</g>
</g>
<!-- Node10&#45;&gt;Node13 -->
<g id="edge13" class="edge">
<title>Node10&#45;&gt;Node13</title>
<path fill="none" stroke="midnightblue" d="M666.5,-191.11C666.5,-182.15 666.5,-172.32 666.5,-164.58"/>
<polygon fill="midnightblue" stroke="midnightblue" points="663,-191.4 666.5,-201.4 670,-191.4 663,-191.4"/>
</g>
<!-- Node14 -->
<g id="node14" class="node">
<title>Node14</title>
<g id="a_node14"><a xlink:href="../../d2/d5e/protocol_8h.html" target="_top" xlink:title=" ">
<polygon fill="none" stroke="black" points="757,-134.5 757,-164.5 902,-164.5 902,-134.5 757,-134.5"/>
<text text-anchor="start" x="765" y="-152.5" font-family="Helvetica,sans-Serif" font-size="10.00">C:/Users/lukac/CLionProjects</text>
<text text-anchor="middle" x="829.5" y="-141.5" font-family="Helvetica,sans-Serif" font-size="10.00">/virus_real/src/protocol.h</text>
</a>
</g>
</g>
<!-- Node10&#45;&gt;Node14 -->
<g id="edge15" class="edge">
<title>Node10&#45;&gt;Node14</title>
<path fill="none" stroke="midnightblue" d="M711.18,-197.68C737.33,-187.26 769.87,-174.28 794.2,-164.58"/>
<polygon fill="midnightblue" stroke="midnightblue" points="709.86,-194.44 701.87,-201.4 712.45,-200.94 709.86,-194.44"/>
</g>
<!-- Node16 -->
<g id="node16" class="node">
<title>Node16</title>
<g id="a_node16"><a xlink:href="../../d2/d02/visualization_8h.html" target="_top" xlink:title=" ">
<polygon fill="none" stroke="black" points="993,-134.5 993,-164.5 1138,-164.5 1138,-134.5 993,-134.5"/>
<text text-anchor="start" x="1001" y="-152.5" font-family="Helvetica,sans-Serif" font-size="10.00">C:/Users/lukac/CLionProjects</text>
<text text-anchor="middle" x="1065.5" y="-141.5" font-family="Helvetica,sans-Serif" font-size="10.00">/virus_real/src/visualization.h</text>
</a>
</g>
</g>
<!-- Node10&#45;&gt;Node16 -->
<g id="edge18" class="edge">
<title>Node10&#45;&gt;Node16</title>
<path fill="none" stroke="midnightblue" d="M749.15,-202.04C821.04,-190.32 924.19,-173.52 992.94,-162.32"/>
<polygon fill="midnightblue" stroke="midnightblue" points="748.53,-198.59 739.22,-203.65 749.65,-205.5 748.53,-198.59"/>
</g>
<!-- Node11&#45;&gt;Node3 -->
<g id="edge11" class="edge">
<title>Node11&#45;&gt;Node3</title>
<path fill="none" stroke="midnightblue" d="M472.79,-128.73C457.16,-118.68 438.53,-106.68 424.37,-97.58"/>
<polygon fill="midnightblue" stroke="midnightblue" points="471.28,-131.93 481.58,-134.4 475.07,-126.04 471.28,-131.93"/>
</g>
<!-- Node12 -->
<g id="node12" class="node">
<title>Node12</title>
<g id="a_node12"><a xlink:href="../../d6/d99/graphics_8cpp.html" target="_top" xlink:title=" ">
<polygon fill="none" stroke="black" points="493,-67.5 493,-97.5 638,-97.5 638,-67.5 493,-67.5"/>
<text text-anchor="start" x="501" y="-85.5" font-family="Helvetica,sans-Serif" font-size="10.00">C:/Users/lukac/CLionProjects</text>
<text text-anchor="middle" x="565.5" y="-74.5" font-family="Helvetica,sans-Serif" font-size="10.00">/virus_real/src/graphics.cpp</text>
</a>
</g>
</g>
<!-- Node11&#45;&gt;Node12 -->
<g id="edge12" class="edge">
<title>Node11&#45;&gt;Node12</title>
<path fill="none" stroke="midnightblue" d="M523.98,-127.02C533.22,-117.34 543.87,-106.17 552.07,-97.58"/>
<polygon fill="midnightblue" stroke="midnightblue" points="521.32,-124.74 516.95,-134.4 526.39,-129.58 521.32,-124.74"/>
</g>
<!-- Node14&#45;&gt;Node3 -->
<g id="edge16" class="edge">
<title>Node14&#45;&gt;Node3</title>
<path fill="none" stroke="midnightblue" d="M746.58,-133.74C629.37,-115.56 597.7,-115.97 483.5,-98 480.82,-97.58 478.09,-97.14 475.33,-96.69"/>
<polygon fill="midnightblue" stroke="midnightblue" points="746.25,-137.23 756.67,-135.31 747.33,-130.31 746.25,-137.23"/>
</g>
<!-- Node15 -->
<g id="node15" class="node">
<title>Node15</title>
<g id="a_node15"><a xlink:href="../../d4/d25/protocol_8cpp.html" target="_top" xlink:title=" ">
<polygon fill="none" stroke="black" points="757,-67.5 757,-97.5 902,-97.5 902,-67.5 757,-67.5"/>
<text text-anchor="start" x="765" y="-85.5" font-family="Helvetica,sans-Serif" font-size="10.00">C:/Users/lukac/CLionProjects</text>
<text text-anchor="middle" x="829.5" y="-74.5" font-family="Helvetica,sans-Serif" font-size="10.00">/virus_real/src/protocol.cpp</text>
</a>
</g>
</g>
<!-- Node14&#45;&gt;Node15 -->
<g id="edge17" class="edge">
<title>Node14&#45;&gt;Node15</title>
<path fill="none" stroke="midnightblue" d="M829.5,-124.11C829.5,-115.15 829.5,-105.32 829.5,-97.58"/>
<polygon fill="midnightblue" stroke="midnightblue" points="826,-124.4 829.5,-134.4 833,-124.4 826,-124.4"/>
</g>
<!-- Node16&#45;&gt;Node5 -->
<g id="edge19" class="edge">
<title>Node16&#45;&gt;Node5</title>
<path fill="none" stroke="midnightblue" d="M1078.79,-125.29C1087.04,-107.48 1093.79,-83.26 1080.5,-67 1058.68,-40.29 970.35,-27.35 905.29,-21.33"/>
<polygon fill="midnightblue" stroke="midnightblue" points="1075.56,-123.93 1074.17,-134.43 1081.81,-127.09 1075.56,-123.93"/>
</g>
<!-- Node17 -->
<g id="node17" class="node">
<title>Node17</title>
<g id="a_node17"><a xlink:href="../../d3/d49/visualization_8cpp.html" target="_top" xlink:title=" ">
<polygon fill="none" stroke="black" points="920,-67.5 920,-97.5 1071,-97.5 1071,-67.5 920,-67.5"/>
<text text-anchor="start" x="928" y="-85.5" font-family="Helvetica,sans-Serif" font-size="10.00">C:/Users/lukac/CLionProjects</text>
<text text-anchor="middle" x="995.5" y="-74.5" font-family="Helvetica,sans-Serif" font-size="10.00">/virus_real/src/visualization.cpp</text>
</a>
</g>
</g>
<!-- Node16&#45;&gt;Node17 -->
<g id="edge20" class="edge">
<title>Node16&#45;&gt;Node17</title>
<path fill="none" stroke="midnightblue" d="M1042.68,-127.31C1032.18,-117.56 1020.01,-106.26 1010.66,-97.58"/>
<polygon fill="midnightblue" stroke="midnightblue" points="1040.6,-130.16 1050.31,-134.4 1045.36,-125.03 1040.6,-130.16"/>
</g>
<!-- Node18&#45;&gt;Node8 -->
<g id="edge23" class="edge">
<title>Node18&#45;&gt;Node8</title>
<path fill="none" stroke="midnightblue" d="M431.54,-331.68C405.24,-321.26 372.5,-308.28 348.02,-298.58"/>
<polygon fill="midnightblue" stroke="midnightblue" points="430.33,-334.97 440.91,-335.4 432.91,-328.46 430.33,-334.97"/>
</g>
<!-- Node19 -->
<g id="node19" class="node">
<title>Node19</title>
<g id="a_node19"><a xlink:href="../../d0/d23/graphalgos_8cpp.html" target="_top" xlink:title=" ">
<polygon fill="none" stroke="black" points="403.5,-268.5 403.5,-298.5 549.5,-298.5 549.5,-268.5 403.5,-268.5"/>
<text text-anchor="start" x="411.5" y="-286.5" font-family="Helvetica,sans-Serif" font-size="10.00">C:/Users/lukac/CLionProjects</text>
<text text-anchor="middle" x="476.5" y="-275.5" font-family="Helvetica,sans-Serif" font-size="10.00">/virus_real/src/graphalgos.cpp</text>
</a>
</g>
</g>
<!-- Node18&#45;&gt;Node19 -->
<g id="edge24" class="edge">
<title>Node18&#45;&gt;Node19</title>
<path fill="none" stroke="midnightblue" d="M476.5,-325.11C476.5,-316.15 476.5,-306.32 476.5,-298.58"/>
<polygon fill="midnightblue" stroke="midnightblue" points="473,-325.4 476.5,-335.4 480,-325.4 473,-325.4"/>
</g>
<!-- Node21&#45;&gt;Node3 -->
<g id="edge29" class="edge">
<title>Node21&#45;&gt;Node3</title>
<path fill="none" stroke="midnightblue" d="M579.94,-391.93C581.83,-360.89 581.07,-306.82 558.5,-268 520.21,-202.15 463.09,-228.82 421.5,-165 407.94,-144.19 404.01,-114.81 402.91,-97.6"/>
<polygon fill="midnightblue" stroke="midnightblue" points="576.42,-392.02 579.16,-402.26 583.4,-392.55 576.42,-392.02"/>
</g>
<!-- Node21&#45;&gt;Node8 -->
<g id="edge28" class="edge">
<title>Node21&#45;&gt;Node8</title>
<path fill="none" stroke="midnightblue" d="M494.63,-403.07C461.93,-395.41 424.98,-383.69 394.5,-366 364.12,-348.37 336.96,-316.76 322.81,-298.52"/>
<polygon fill="midnightblue" stroke="midnightblue" points="494.1,-406.54 504.62,-405.31 495.63,-399.71 494.1,-406.54"/>
</g>
<!-- Node21&#45;&gt;Node10 -->
<g id="edge31" class="edge">
<title>Node21&#45;&gt;Node10</title>
<path fill="none" stroke="midnightblue" d="M588.1,-392.8C606.79,-351.01 645.05,-265.47 660.16,-231.68"/>
<polygon fill="midnightblue" stroke="midnightblue" points="584.79,-391.63 583.9,-402.19 591.18,-394.49 584.79,-391.63"/>
</g>
<!-- Node21&#45;&gt;Node15 -->
<g id="edge33" class="edge">
<title>Node21&#45;&gt;Node15</title>
<path fill="none" stroke="midnightblue" d="M660.11,-402.61C764.44,-382.68 930.5,-341.94 930.5,-284.5 930.5,-284.5 930.5,-284.5 930.5,-215.5 930.5,-178.31 933.23,-164.19 911.5,-134 899.88,-117.85 881.34,-105.81 864.83,-97.54"/>
<polygon fill="midnightblue" stroke="midnightblue" points="659.39,-399.19 650.21,-404.48 660.69,-406.06 659.39,-399.19"/>
</g>
<!-- Node21&#45;&gt;Node18 -->
<g id="edge30" class="edge">
<title>Node21&#45;&gt;Node18</title>
<path fill="none" stroke="midnightblue" d="M546.79,-396.73C531.16,-386.68 512.53,-374.68 498.37,-365.58"/>
<polygon fill="midnightblue" stroke="midnightblue" points="545.28,-399.93 555.58,-402.4 549.07,-394.04 545.28,-399.93"/>
</g>
<!-- Node22 -->
<g id="node22" class="node">
<title>Node22</title>
<g id="a_node22"><a xlink:href="../../de/d61/logic_8cpp.html" target="_top" xlink:title=" ">
<polygon fill="none" stroke="black" points="644,-335.5 644,-365.5 789,-365.5 789,-335.5 644,-335.5"/>
<text text-anchor="start" x="652" y="-353.5" font-family="Helvetica,sans-Serif" font-size="10.00">C:/Users/lukac/CLionProjects</text>
<text text-anchor="middle" x="716.5" y="-342.5" font-family="Helvetica,sans-Serif" font-size="10.00">/virus_real/src/logic.cpp</text>
</a>
</g>
</g>
<!-- Node21&#45;&gt;Node22 -->
<g id="edge32" class="edge">
<title>Node21&#45;&gt;Node22</title>
<path fill="none" stroke="midnightblue" d="M616.78,-398.13C638.87,-387.8 666.01,-375.11 686.4,-365.58"/>
<polygon fill="midnightblue" stroke="midnightblue" points="615.24,-394.99 607.66,-402.4 618.2,-401.33 615.24,-394.99"/>
</g>
<!-- Node23&#45;&gt;Node16 -->
<g id="edge35" class="edge">
<title>Node23&#45;&gt;Node16</title>
<path fill="none" stroke="midnightblue" d="M1099.71,-393.8C1105.27,-385.54 1110.65,-375.81 1113.5,-366 1117.34,-352.77 1115.25,-348.67 1113.5,-335 1105.18,-270 1081.02,-195.18 1070.49,-164.61"/>
<polygon fill="midnightblue" stroke="midnightblue" points="1096.73,-391.96 1093.74,-402.12 1102.41,-396.05 1096.73,-391.96"/>
</g>
<!-- Node24 -->
<g id="node24" class="node">
<title>Node24</title>
<g id="a_node24"><a xlink:href="../../d8/d8e/window_8cpp.html" target="_top" xlink:title=" ">
<polygon fill="none" stroke="black" points="959,-335.5 959,-365.5 1104,-365.5 1104,-335.5 959,-335.5"/>
<text text-anchor="start" x="967" y="-353.5" font-family="Helvetica,sans-Serif" font-size="10.00">C:/Users/lukac/CLionProjects</text>
<text text-anchor="middle" x="1031.5" y="-342.5" font-family="Helvetica,sans-Serif" font-size="10.00">/virus_real/src/window.cpp</text>
</a>
</g>
</g>
<!-- Node23&#45;&gt;Node24 -->
<g id="edge36" class="edge">
<title>Node23&#45;&gt;Node24</title>
<path fill="none" stroke="midnightblue" d="M1064.54,-394.45C1057.19,-384.9 1048.81,-374 1042.33,-365.58"/>
<polygon fill="midnightblue" stroke="midnightblue" points="1061.78,-396.6 1070.65,-402.4 1067.33,-392.34 1061.78,-396.6"/>
</g>
</g>
</svg>
        <g id="navigator" transform="translate(0 0)" fill="#404254">
                <rect fill="#f2f5e9" fill-opacity="0.5" stroke="#606060" stroke-width=".5" x="0" y="0" width="60" height="60"/>
                <use id="zoomplus" xlink:href="#zoomPlus" x="17" y="9" onmousedown="handleZoom(evt,'in')"/>
                <use id="zoomminus" xlink:href="#zoomMin" x="42" y="9" onmousedown="handleZoom(evt,'out')"/>
                <use id="reset" xlink:href="#resetDef" x="30" y="36" onmousedown="handleReset()"/>
                <g id="arrowUp" xlink:href="#dirArrow" transform="translate(30 24)" onmousedown="handlePan(0,-1)">
                  <use xlink:href="#rim" fill="#404040">
                        <set attributeName="fill" to="#808080" begin="arrowUp.mouseover" end="arrowUp.mouseout"/>
                  </use>
                  <path fill="none" stroke="white" stroke-width="1.5" d="M0,-3.0v7 M-2.5,-0.5L0,-3.0L2.5,-0.5"/>
                </g>
                <g id="arrowRight" xlink:href="#dirArrow" transform="rotate(90) translate(36 -43)" onmousedown="handlePan(1,0)">
                  <use xlink:href="#rim" fill="#404040">
                        <set attributeName="fill" to="#808080" begin="arrowRight.mouseover" end="arrowRight.mouseout"/>
                  </use>
                  <path fill="none" stroke="white" stroke-width="1.5" d="M0,-3.0v7 M-2.5,-0.5L0,-3.0L2.5,-0.5"/>
                </g>
                <g id="arrowDown" xlink:href="#dirArrow" transform="rotate(180) translate(-30 -48)" onmousedown="handlePan(0,1)">
                  <use xlink:href="#rim" fill="#404040">
                        <set attributeName="fill" to="#808080" begin="arrowDown.mouseover" end="arrowDown.mouseout"/>
                  </use>
                  <path fill="none" stroke="white" stroke-width="1.5" d="M0,-3.0v7 M-2.5,-0.5L0,-3.0L2.5,-0.5"/>
                </g>
                <g id="arrowLeft" xlink:href="#dirArrow" transform="rotate(270) translate(-36 17)" onmousedown="handlePan(-1,0)">
                  <use xlink:href="#rim" fill="#404040">
                        <set attributeName="fill" to="#808080" begin="arrowLeft.mouseover" end="arrowLeft.mouseout"/>
                  </use>
                  <path fill="none" stroke="white" stroke-width="1.5" d="M0,-3.0v7 M-2.5,-0.5L0,-3.0L2.5,-0.5"/>
                </g>
        </g>
        <svg viewBox="0 0 15 15" width="100%" height="30px" preserveAspectRatio="xMaxYMin meet">
         <g id="arrow_out" transform="scale(0.3 0.3)">
          <a xlink:href="district_8h__dep__incl_org.svg" target="_base">
           <rect id="button" ry="5" rx="5" y="6" x="6" height="38" width="38"
                fill="#f2f5e9" fill-opacity="0.5" stroke="#606060" stroke-width="1.0"/>
           <path id="arrow"
             d="M 11.500037,31.436501 C 11.940474,20.09759 22.043105,11.32322 32.158766,21.979434 L 37.068811,17.246167 C 37.068811,17.246167 37.088388,32 37.088388,32 L 22.160133,31.978069 C 22.160133,31.978069 26.997745,27.140456 26.997745,27.140456 C 18.528582,18.264221 13.291696,25.230495 11.500037,31.436501 z"
             style="fill:#404040;"/>
          </a>
         </g>
        </svg>
</svg>
