<?xml version="1.0" encoding="UTF-8" standalone="no"?>
<!DOCTYPE svg PUBLIC "-//W3C//DTD SVG 1.1//EN"
 "http://www.w3.org/Graphics/SVG/1.1/DTD/svg11.dtd">
<!-- Generated by graphviz version 2.44.1 (20200629.0846)
 -->
<!-- Title: C:/Users/lukac/CLionProjects/virus_real/src/protocol.h Pages: 1 -->
<svg width="397pt" height="173pt"
 viewBox="0.00 0.00 397.00 173.00" xmlns="http://www.w3.org/2000/svg" xmlns:xlink="http://www.w3.org/1999/xlink">
<g id="graph0" class="graph" transform="scale(1 1) rotate(0) translate(4 169)">
<title>C:/Users/lukac/CLionProjects/virus_real/src/protocol.h</title>
<!-- Node1 -->
<g id="node1" class="node">
<title>Node1</title>
<g id="a_node1"><a xlink:title=" ">
<polygon fill="#bfbfbf" stroke="black" points="162,-134.5 162,-164.5 307,-164.5 307,-134.5 162,-134.5"/>
<text text-anchor="start" x="170" y="-152.5" font-family="Helvetica,sans-Serif" font-size="10.00">C:/Users/lukac/CLionProjects</text>
<text text-anchor="middle" x="234.5" y="-141.5" font-family="Helvetica,sans-Serif" font-size="10.00">/virus_real/src/protocol.h</text>
</a>
</g>
</g>
<!-- Node2 -->
<g id="node2" class="node">
<title>Node2</title>
<g id="a_node2"><a xlink:href="../../d3/d5b/anti_virus_8h.html" target="_top" xlink:title=" ">
<polygon fill="none" stroke="black" points="81,-67.5 81,-97.5 226,-97.5 226,-67.5 81,-67.5"/>
<text text-anchor="start" x="89" y="-85.5" font-family="Helvetica,sans-Serif" font-size="10.00">C:/Users/lukac/CLionProjects</text>
<text text-anchor="middle" x="153.5" y="-74.5" font-family="Helvetica,sans-Serif" font-size="10.00">/virus_real/src/antiVirus.h</text>
</a>
</g>
</g>
<!-- Node1&#45;&gt;Node2 -->
<g id="edge1" class="edge">
<title>Node1&#45;&gt;Node2</title>
<path fill="none" stroke="midnightblue" d="M208.81,-127.88C196.5,-118.01 182.07,-106.43 171.04,-97.58"/>
<polygon fill="midnightblue" stroke="midnightblue" points="206.93,-130.87 216.92,-134.4 211.32,-125.41 206.93,-130.87"/>
</g>
<!-- Node5 -->
<g id="node5" class="node">
<title>Node5</title>
<g id="a_node5"><a xlink:href="../../d4/d25/protocol_8cpp.html" target="_top" xlink:title=" ">
<polygon fill="none" stroke="black" points="244,-67.5 244,-97.5 389,-97.5 389,-67.5 244,-67.5"/>
<text text-anchor="start" x="252" y="-85.5" font-family="Helvetica,sans-Serif" font-size="10.00">C:/Users/lukac/CLionProjects</text>
<text text-anchor="middle" x="316.5" y="-74.5" font-family="Helvetica,sans-Serif" font-size="10.00">/virus_real/src/protocol.cpp</text>
</a>
</g>
</g>
<!-- Node1&#45;&gt;Node5 -->
<g id="edge4" class="edge">
<title>Node1&#45;&gt;Node5</title>
<path fill="none" stroke="midnightblue" d="M260.15,-128.17C272.69,-118.23 287.47,-106.51 298.74,-97.58"/>
<polygon fill="midnightblue" stroke="midnightblue" points="257.96,-125.44 252.29,-134.4 262.3,-130.93 257.96,-125.44"/>
</g>
<!-- Node3 -->
<g id="node3" class="node">
<title>Node3</title>
<g id="a_node3"><a xlink:href="../../da/d6e/anti_virus_8cpp.html" target="_top" xlink:title=" ">
<polygon fill="none" stroke="black" points="0,-0.5 0,-30.5 145,-30.5 145,-0.5 0,-0.5"/>
<text text-anchor="start" x="8" y="-18.5" font-family="Helvetica,sans-Serif" font-size="10.00">C:/Users/lukac/CLionProjects</text>
<text text-anchor="middle" x="72.5" y="-7.5" font-family="Helvetica,sans-Serif" font-size="10.00">/virus_real/src/antiVirus.cpp</text>
</a>
</g>
</g>
<!-- Node2&#45;&gt;Node3 -->
<g id="edge2" class="edge">
<title>Node2&#45;&gt;Node3</title>
<path fill="none" stroke="midnightblue" d="M127.81,-60.88C115.5,-51.01 101.07,-39.43 90.04,-30.58"/>
<polygon fill="midnightblue" stroke="midnightblue" points="125.93,-63.87 135.92,-67.4 130.32,-58.41 125.93,-63.87"/>
</g>
<!-- Node4 -->
<g id="node4" class="node">
<title>Node4</title>
<g id="a_node4"><a xlink:href="../../df/d0a/main_8cpp.html" target="_top" xlink:title=" ">
<polygon fill="none" stroke="black" points="163,-0.5 163,-30.5 308,-30.5 308,-0.5 163,-0.5"/>
<text text-anchor="start" x="171" y="-18.5" font-family="Helvetica,sans-Serif" font-size="10.00">C:/Users/lukac/CLionProjects</text>
<text text-anchor="middle" x="235.5" y="-7.5" font-family="Helvetica,sans-Serif" font-size="10.00">/virus_real/src/main.cpp</text>
</a>
</g>
</g>
<!-- Node2&#45;&gt;Node4 -->
<g id="edge3" class="edge">
<title>Node2&#45;&gt;Node4</title>
<path fill="none" stroke="midnightblue" d="M179.15,-61.17C191.69,-51.23 206.47,-39.51 217.74,-30.58"/>
<polygon fill="midnightblue" stroke="midnightblue" points="176.96,-58.44 171.29,-67.4 181.3,-63.93 176.96,-58.44"/>
</g>
</g>
</svg>
